<svg fill="none" height="32" viewBox="0 0 32 32" width="32" xmlns="http://www.w3.org/2000/svg" xmlns:xlink="http://www.w3.org/1999/xlink"><clipPath id="a"><path d="m0 0h32v32h-32z"/></clipPath><g clip-path="url(#a)"><path d="m24.6327 0h-17.26537c-4.06886 0-7.36733 3.29847-7.36733 7.36733v17.26537c0 4.0688 3.29847 7.3673 7.36733 7.3673h17.26537c4.0688 0 7.3673-3.2985 7.3673-7.3673v-17.26537c0-4.06886-3.2985-7.36733-7.3673-7.36733z" fill="#000"/><path d="m19.0225 10.6274h4.5677v9.4781h-4.5677z" fill="#fa8300"/><path d="m13.7144 11.8909h4.5677v9.478h-4.5677z" fill="#ffc400"/><path d="m8.40979 11.2168h4.56771v8.9513h-4.56771z" fill="#6c006d"/><path d="m3.10535 12.4139h4.56774v8.4246h-4.56774z" fill="#009bd1"/><path d="m24.3269 12.2556h4.5677v7.3747h-4.5677z" fill="#d51d00"/></g></svg>