<svg fill="none" height="32" viewBox="0 0 32 32" width="32" xmlns="http://www.w3.org/2000/svg" xmlns:xlink="http://www.w3.org/1999/xlink"><clipPath id="a"><path d="m0 0h31.823v32h-31.823z"/></clipPath><g clip-path="url(#a)"><path clip-rule="evenodd" d="m25.4577 14.1889c.7117.4222 1.6287.1907 2.053-.5174s.1916-1.6341-.5201-2.0562c-5.9401-3.52679-15.3294-3.8536-20.98205-2.13785-.79384.2451-1.23182 1.07575-.99914 1.86555s1.08127 1.2391 1.86142.994c4.92727-1.4979 13.42687-1.2119 18.58687 1.8519zm-.1643 4.5345c.3559-.5855.1779-1.3481-.4106-1.7157-4.941-3.0366-12.154-3.8945-17.97091-2.1243-.65697.2043-1.02652.8987-.8349 1.5523.2053.6537.90334 1.0349 1.56031.8307 5.0915-1.5387 11.6339-.7762 15.9316 1.8655.5885.3541 1.355.177 1.7108-.4085zm-1.9572 4.3575c.2874-.4766.1369-1.0894-.3285-1.3754-4.2156-2.5736-9.444-3.1727-15.53465-1.7838-.53379.1226-.87596.6536-.75278 1.1983.12319.5311.65698.8715 1.19077.7489 5.57056-1.2663 10.29256-.7489 14.05646 1.5388.4653.2859 1.0813.1361 1.3687-.3268zm-7.3362-23.0809c8.8281 0 16 7.16255 16 16 0 8.8374-7.1583 16-16 16-8.84175 0-16-7.1626-16-16 0-8.83745 7.15825-16 16-16z" fill="#1ed760" fill-rule="evenodd"/></g></svg>