<svg fill="none" height="32" viewBox="0 0 32 32" width="32" xmlns="http://www.w3.org/2000/svg" xmlns:xlink="http://www.w3.org/1999/xlink"><clipPath id="a"><path d="m0 0h32v32h-32z"/></clipPath><g clip-path="url(#a)"><path d="m2.67793 13.2471c-1.07822 0-1.943311.8651-1.943311 1.9433v2.1188c0 1.0657.865091 1.9433 1.943311 1.9433 1.07823 0 1.94331-.8651 1.94331-1.9433v-2.1188c0-1.0657-.86508-1.9433-1.94331-1.9433z" fill="#0066d9"/><path d="m29.8216 13.2471c-1.0657 0-1.9433.8651-1.9433 1.9433v2.1188c0 1.0657.8651 1.9433 1.9433 1.9433s1.9433-.8651 1.9433-1.9433v-2.1188c0-1.0657-.8651-1.9433-1.9433-1.9433z" fill="#4285f4"/><path d="m9.373 19.6036c-1.07823 0-1.94331.8651-1.94331 1.9433v2.1188c0 1.0657.86508 1.9433 1.94331 1.9433 1.0782 0 1.9433-.865 1.9433-1.9433v-2.1188c0-1.0657-.8651-1.9433-1.9433-1.9433z" fill="#ea4335"/><path d="m9.373 6.90308c-1.07823 0-1.94331.86508-1.94331 1.94331v6.92071c.02507 1.0531.87762 1.8931 1.94331 1.8931 1.0657 0 1.9182-.84 1.9433-1.8931v-6.92071c0-1.07823-.8651-1.94331-1.9433-1.94331z" fill="#ea4335"/><path d="m23.1265 6.90308c-1.0656 0-1.9433.86508-1.9433 1.94331v2.11881c0 1.0657.8651 1.9433 1.9433 1.9433 1.0783 0 1.9434-.8651 1.9434-1.9433v-2.11881c0-1.07823-.8651-1.94331-1.9434-1.94331z" fill="#34a853"/><path d="m16.2561.734619c-1.0657 0-1.9434.865091-1.9434 1.943311v2.11884c0 1.07822.8651 1.94331 1.9434 1.94331 1.0782 0 1.9433-.86509 1.9433-1.94331v-2.11884c0-1.07822-.8651-1.943311-1.9433-1.943311z" fill="#fab908"/><path d="m16.2561 25.772c-1.0657 0-1.9434.8651-1.9434 1.9433v2.1188c0 1.0657.8651 1.9433 1.9434 1.9433 1.0782 0 1.9433-.8651 1.9433-1.9433v-2.1188c0-1.0657-.8651-1.9433-1.9433-1.9433z" fill="#fab908"/><path d="m23.1265 14.8393c-1.0656 0-1.9433.8651-1.9433 1.9433v6.8706c0 1.0656.8651 1.9433 1.9433 1.9433 1.0783 0 1.9434-.8651 1.9434-1.9433v-6.8706c0-1.0657-.8651-1.9433-1.9434-1.9433z" fill="#34a853"/><path d="m18.1868 10.6141c0-1.06564-.8651-1.94326-1.9433-1.94326s-1.9433.86508-1.9433 1.94326v11.2838c0 1.0657.8651 1.9433 1.9433 1.9433s1.9433-.8651 1.9433-1.9433z" fill="#fab908"/></g></svg>