<svg fill="none" height="32" viewBox="0 0 28 32" width="28" xmlns="http://www.w3.org/2000/svg" xmlns:xlink="http://www.w3.org/1999/xlink"><linearGradient id="a" gradientUnits="userSpaceOnUse" x1="-1.77801" x2="33.7053" y1=".551886" y2="27.555"><stop offset="0" stop-color="#ffb768"/><stop offset=".19" stop-color="#ff9953"/><stop offset=".57" stop-color="#ff652e"/><stop offset=".85" stop-color="#ff4518"/><stop offset="1" stop-color="#ff390f"/></linearGradient><clipPath id="b"><path d="m0 0h28v32h-28z"/></clipPath><g clip-path="url(#b)" clip-rule="evenodd" fill-rule="evenodd"><path d="m12.9215.211539-11.83563 6.918921c-.6155.35994-1.07964441 1.16981-1.07964441 1.8797v13.85784c0 .7099.46414441 1.5098 1.07964441 1.8797l11.82563 6.9089c.6255.37 1.5639.37 2.1895 0l11.8256-6.9089c.6155-.3599 1.0796-1.1698 1.0796-1.8797v-13.86784c0-.70988-.4641-1.50976-1.0796-1.8797l-11.8155-6.908921c-.6256-.369943-1.564-.369943-2.1896 0z" fill="url(#a)"/><g fill="#fff"><path d="m15.9487 11.7897c-.5348 0-.9586.3999-.9586.8999v2.1796c0 .28-.2623.4999-.5751.4999s-.5751-.2199-.5751-.4999v-2.9595c0-.4999-.4339-.8999-.9586-.8999s-.9586.4-.9586.8999v2.3696c0 .28-.2623.4999-.5751.4999s-.5751-.2199-.5751-.4999v-.8598c0-.5-.4339-.8999-.95859-.8999-.52468 0-.95856.3999-.95856.8999v2.0396c0 .28-.26234.5-.57513.5-.3128 0-.57514-.22-.57514-.5v-.2399c0-.5199-.43387-.9399-.95856-.9399-.52468 0-.95856.42-.95856.9399v2.8295c0 .5199.43388.9399.95856.9399.52469 0 .95856-.42.95856-.9399v-.2399c0-.28.26234-.5.57514-.5.31279 0 .57513.22.57513.5v3.2295c0 .4999.43388.8998.95856.8998.52469 0 .95859-.3999.95859-.8998v-4.4094c0-.2799.2623-.4999.5751-.4999s.5751.22.5751.4999v2.2197c0 .4999.4339.8999.9586.8999s.9586-.4.9586-.8999v-1.6297c0-.28.2623-.5.5751-.5s.5751.22.5751.5v1.7497c0 .4999.4339.8998.9586.8998s.9585-.3999.9585-.8998v-6.279c0-.5-.4338-.8999-.9585-.8999z"/><path d="m19.0261 14.2194c-.5348 0-.9586.3999-.9586.8998v3.5895c0 .4999.4339.8998.9586.8998.5246 0 .9585-.3999.9585-.8998v-3.5895c0-.4999-.4339-.8998-.9585-.8998z"/><path d="m22.1036 16.0391c-.5348 0-.9586.3999-.9586.8998v.8899c0 .4999.4339.8998.9586.8998s.9585-.3999.9585-.8998v-.8899c0-.4999-.4338-.8998-.9585-.8998z"/></g></g></svg>