<svg fill="none" height="32" viewBox="0 0 32 32" width="32" xmlns="http://www.w3.org/2000/svg" xmlns:xlink="http://www.w3.org/1999/xlink"><linearGradient id="a" gradientUnits="userSpaceOnUse" x1="16" x2="16" y1="0" y2="32"><stop offset="0" stop-color="#f452ff"/><stop offset="1" stop-color="#832bc1"/></linearGradient><clipPath id="b"><path d="m0 0h32v32h-32z"/></clipPath><g clip-path="url(#b)"><path clip-rule="evenodd" d="m31.3768 27.7393c-.3053.7885-1.0302 1.9078-2.0477 2.6836-.5851.4579-1.2846.8903-2.2512 1.1701-1.0302.3053-2.2893.407-3.8665.407h-14.41013c-1.5771 0-2.83625-.1017-3.86645-.407-.96662-.2798-1.66614-.7122-2.2512-1.1701-1.01748-.7886-1.729725-1.8951-2.04769-2.6836-.6232114-1.5899-.63593-3.3959-.63593-4.5406v-14.39743c0-1.13195 0-2.93799.63593-4.54054.305246-.78855 1.03021-1.90779 2.04769-2.68362.58506-.45787 1.28458-.890306 2.2512-1.170115 1.0302-.305246 2.28935-.406995 3.86645-.406995h14.39743c1.5771 0 2.8363.101749 3.8665.406995.9666.279809 1.6661.712245 2.2512 1.170115 1.0175.78855 1.7297 1.89507 2.0477 2.68362.6232 1.58983.6359 3.39587.6359 4.54054v14.39743c0 1.132 0 2.938-.6359 4.5406z" fill="url(#a)" fill-rule="evenodd"/><path d="m18.3275 18.3911c-.4833-.5088-1.3227-.8267-2.3147-.8267-.9921 0-1.8442.3306-2.3148.8267-.2544.2671-.3816.5342-.4197.9157-.0763.7504-.0382 1.3863.0508 2.4165.0891.9794.2417 2.2894.4452 3.6248.1526.9539.2671 1.4627.3815 1.8315.1781.5978.8395 1.1193 1.8697 1.1193s1.6916-.5215 1.8696-1.1193c.1145-.3688.2289-.8776.3816-1.8315.2035-1.3354.3688-2.6454.4451-3.6248.0891-1.0302.1272-1.6788.0509-2.4165-.0382-.3815-.1781-.6614-.4197-.9157zm-4.9348-4.5151c0 1.4499 1.1701 2.62 2.6201 2.62 1.4499 0 2.62-1.1701 2.62-2.62 0-1.45-1.1701-2.6201-2.62-2.6201-1.45 0-2.6201 1.1701-2.6201 2.6201zm2.5819-10.32754c-6.13036.01272-11.14149 4.98569-11.2178 11.11604-.06359 4.9603 3.10334 9.2083 7.5294 10.76.1018.0381.2162-.0509.2035-.1654-.0636-.3815-.1145-.7758-.1653-1.1574-.0128-.1399-.1018-.2544-.229-.3052-3.49758-1.5263-5.93955-5.0366-5.9014-9.0938.05088-5.32912 4.4006-9.67888 9.7297-9.71704 5.4436-.03815 9.8951 4.3752 9.8951 9.81874 0 4.0191-2.4292 7.4786-5.9014 9.0048-.1272.0509-.2035.1653-.229.3052-.0508.3816-.1017.7632-.1653 1.1574-.0127.1145.089.2035.2035.1654 4.3752-1.539 7.5294-5.7234 7.5294-10.6201 0-6.21935-5.062-11.26864-11.2814-11.25592zm-.2035 5.16375c3.4722-.1399 6.3466 2.64549 6.3466 6.09219 0 1.7552-.7377 3.3323-1.9332 4.4515-.1018.0891-.1527.229-.1527.3689.0255.4197.0128.8267-.0127 1.2846 0 .1271.1272.2035.229.1271 1.9841-1.3609 3.2941-3.6375 3.2941-6.2321 0-4.2607-3.5485-7.69473-7.8347-7.52939-3.9936.15262-7.18599 3.44679-7.23687 7.44039-.03815 2.62 1.28458 4.9475 3.29407 6.3211.1018.0636.2417 0 .229-.1271-.0255-.4579-.0382-.8649-.0127-1.2846 0-.1399-.0509-.2671-.1527-.3689-1.2209-1.1446-1.97134-2.7981-1.92047-4.6041.08903-3.1924 2.65817-5.8124 5.85057-5.92687z" fill="#fff"/></g></svg>