<svg fill="none" height="32" viewBox="0 0 32 32" width="32" xmlns="http://www.w3.org/2000/svg" xmlns:xlink="http://www.w3.org/1999/xlink"><linearGradient id="a" gradientUnits="userSpaceOnUse" x1="11.6344" x2="37.5276" y1="11.8267" y2="37.8752"><stop offset=".1302" stop-color="#e85d27"/><stop offset=".6867" stop-color="#f0772b"/></linearGradient><clipPath id="b"><path d="m0 0h32v32h-32z"/></clipPath><mask id="c" height="32" maskUnits="userSpaceOnUse" width="32" x="0" y="0"><path d="m24.7025 31.7109h-17.50165c-3.88695 0-7.062788-3.1663-7.062788-7.0415v-17.35256c0-3.87524 3.175838-7.04151 7.062788-7.04151h17.50165c3.88 0 7.0627 3.16627 7.0627 7.04151v17.35256c0 3.8752-3.1827 7.0415-7.0627 7.0415z" fill="#f4842d"/></mask><g clip-path="url(#b)"><path d="m24.7025 31.7109h-17.50165c-3.88695 0-7.062788-3.1663-7.062788-7.0415v-17.35256c0-3.87524 3.175838-7.04151 7.062788-7.04151h17.50165c3.88 0 7.0627 3.16627 7.0627 7.04151v17.35256c0 3.8752-3.1827 7.0415-7.0627 7.0415z" fill="#f4842d"/><g mask="url(#c)"><path d="m27.0705 41.4094-18.10914-18.0478-1.67767-7.2755 7.47701-9.14781 8.4022 2.26458 18.1022 18.05463z" fill="url(#a)"/></g><path d="m26.0487 15.8176c-.1242-5.4928-4.6256-9.91184-10.1695-9.91184-5.6199 0-10.16961 4.54294-10.16961 10.13894 0 3.8753 2.18167 7.248 5.39201 8.9551v-3.0768-5.8095c0-.0413 0-.0757 0-.117 0-2.3471 1.6915-4.302 3.9215-4.7287v1.6864c-1.3187.3854-2.2783 1.6037-2.2783 3.0423v.0276.0137c.0207 1.7346 1.4429 3.1319 3.1827 3.1319 1.4429 0 2.658-.9568 3.0516-2.2646h1.6914c-.428 2.2233-2.3887 3.9028-4.743 3.9028-1.222 0-2.3335-.4543-3.1827-1.1977v6.0848c.9872.3166 2.0435.4956 3.1413.4956 2.1126 0 4.0733-.6402 5.7027-1.7415v1.7415h4.4669zm-10.1281 2.0305c-1.0287 0-1.8572-.826-1.8572-1.8516s.8285-1.8515 1.8572-1.8515 1.8572.8259 1.8572 1.8515-.8285 1.8516-1.8572 1.8516zm4.8328-1.8378h-1.6432c0-.0069 0-.0069 0-.0138 0-1.7552-1.4222-3.1731-3.1827-3.1731h-.0069v-1.6382h.0069c2.6649 0 4.8259 2.1544 4.8259 4.8113zm2.8306 0h-1.6293c0-.0069 0-.0069 0-.0138 0-3.3177-2.6995-6.009-6.0272-6.009h-.0069v-1.62444h.0069c4.2321 0 7.6565 3.42094 7.6565 7.63344z" fill="#fff"/></g></svg>