<svg viewBox="0 0 1075 394" fill="none" xmlns="http://www.w3.org/2000/svg">
    <path d="M112.98 161.43L85.98 188.37M80.98 183.37L91.07 193.46M61.29 137H127.07C132.753 137 137.36 141.607 137.36 147.29V213.07C137.36 218.753 132.753 223.36 127.07 223.36H61.29C55.607 223.36 51 218.753 51 213.07V147.29C51 141.607 55.607 137 61.29 137ZM99.92 181.16L108.11 189.35C109.559 188.697 111.149 188.417 112.733 188.537C114.318 188.656 115.848 189.17 117.183 190.032C118.519 190.894 119.617 192.076 120.378 193.472C121.139 194.867 121.538 196.43 121.54 198.02C121.542 198.692 121.475 199.362 121.34 200.02C121.308 200.173 121.246 200.318 121.158 200.447C121.069 200.576 120.957 200.687 120.826 200.772C120.695 200.857 120.548 200.916 120.395 200.945C120.241 200.974 120.083 200.972 119.93 200.94C119.702 200.897 119.493 200.785 119.33 200.62L115.94 197.23C115.83 197.119 115.699 197.031 115.555 196.971C115.411 196.91 115.256 196.88 115.1 196.88H112.02C111.704 196.88 111.402 197.005 111.179 197.228C110.955 197.452 110.83 197.754 110.83 198.07V201.14C110.831 201.455 110.957 201.757 111.18 201.98L114.57 205.38C114.681 205.49 114.77 205.62 114.83 205.765C114.89 205.909 114.921 206.063 114.921 206.22C114.921 206.376 114.89 206.531 114.83 206.675C114.77 206.819 114.681 206.95 114.57 207.06C114.41 207.223 114.204 207.334 113.98 207.38C113.323 207.519 112.652 207.586 111.98 207.58C110.386 207.579 108.817 207.177 107.419 206.412C106.02 205.647 104.836 204.543 103.975 203.201C103.114 201.859 102.604 200.323 102.491 198.733C102.378 197.143 102.667 195.55 103.33 194.1L95.15 185.92L99.92 181.16ZM93.15 174.44L84.96 166.25C85.4753 165.112 85.7612 163.884 85.8012 162.636C85.8413 161.387 85.6349 160.143 85.1937 158.975C84.7525 157.806 84.0852 156.736 83.2301 155.826C82.3749 154.916 81.3487 154.183 80.21 153.67C78.9921 153.114 77.6687 152.828 76.33 152.83C75.6584 152.819 74.9876 152.883 74.33 153.02C74.177 153.052 74.0318 153.114 73.9028 153.202C73.7737 153.29 73.6633 153.403 73.5779 153.534C73.4924 153.665 73.4336 153.812 73.4048 153.965C73.376 154.119 73.3778 154.277 73.41 154.43C73.4532 154.658 73.5648 154.867 73.73 155.03L77.12 158.42C77.2311 158.53 77.3192 158.66 77.3793 158.805C77.4394 158.949 77.4702 159.104 77.47 159.26V162.34C77.4703 162.647 77.3518 162.942 77.1394 163.164C76.9269 163.386 76.6369 163.517 76.33 163.53H73.27C72.9547 163.529 72.6526 163.403 72.43 163.18L69.03 159.79C68.9203 159.679 68.7895 159.59 68.6453 159.53C68.5011 159.47 68.3463 159.439 68.19 159.439C68.0337 159.439 67.879 159.47 67.7348 159.53C67.5906 159.59 67.4598 159.679 67.35 159.79C67.1871 159.95 67.0757 160.156 67.03 160.38C66.8909 161.037 66.8239 161.708 66.83 162.38C66.8317 163.969 67.2313 165.533 67.9922 166.928C68.7532 168.323 69.8514 169.506 71.1867 170.368C72.5219 171.23 74.0518 171.744 75.6366 171.863C77.2215 171.982 78.8109 171.703 80.26 171.05L88.44 179.23L93.15 174.44ZM117.44 162.04C117.254 162.291 117.02 162.502 116.751 162.663C116.483 162.823 116.186 162.929 115.877 162.974C115.567 163.02 115.252 163.004 114.949 162.928C114.646 162.852 114.361 162.716 114.11 162.53L113.85 162.3L111.92 160.37C111.475 159.924 111.226 159.32 111.226 158.69C111.226 158.06 111.475 157.456 111.92 157.01C112.021 156.909 112.131 156.819 112.25 156.74L117.52 153.08C117.749 152.922 118.026 152.848 118.303 152.872C118.581 152.896 118.841 153.015 119.04 153.21L121.18 155.35C121.382 155.554 121.504 155.823 121.524 156.109C121.544 156.396 121.461 156.68 121.29 156.91L117.44 162.04ZM72.92 206.49C72.2326 207.008 71.3809 207.261 70.5219 207.201C69.6629 207.141 68.8545 206.773 68.2456 206.164C67.6367 205.555 67.2684 204.747 67.2086 203.888C67.1488 203.029 67.4014 202.177 67.92 201.49L83.5 185.81L88.5 190.86L72.92 206.49Z" stroke="#98A2E2" stroke-width="1.5" stroke-miterlimit="10" />
    <path d="M17.66 73.6202H30.66M38.49 81.4102H30.68M30.68 81.4102C30.7681 83.2215 31.5718 84.9236 32.9144 86.1425C34.257 87.3614 36.0287 87.9972 37.84 87.9102V74.9202C36.9437 74.8758 36.0473 75.0085 35.2023 75.3107C34.3572 75.6128 33.58 76.0786 32.915 76.6813C32.2501 77.2841 31.7104 78.012 31.3269 78.8234C30.9434 79.6348 30.7236 80.5138 30.68 81.4102ZM17.68 81.4102H9.84003M6.33 54.75H42C45.0817 54.75 47.58 57.2483 47.58 60.33V96C47.58 99.0817 45.0817 101.58 42 101.58H6.33C3.24825 101.58 0.75 99.0817 0.75 96V60.33C0.75 57.2483 3.24825 54.75 6.33 54.75ZM33.56 63.2202C32.9308 65.4746 31.5109 67.427 29.56 68.7202L33.56 63.2202ZM18.71 68.7202C16.7611 67.4251 15.3417 65.4734 14.71 63.2202L18.71 68.7202ZM10.49 74.9202C12.3007 74.8331 14.072 75.4673 15.416 76.6838C16.7599 77.9003 17.5669 79.5999 17.66 81.4102C17.5668 83.2214 16.7602 84.922 15.4166 86.14C14.0729 87.3581 12.3016 87.9946 10.49 87.9102V74.9202ZM24.17 65.8202C23.3156 65.8189 22.4693 65.9861 21.6795 66.3121C20.8897 66.6382 20.172 67.1168 19.5674 67.7205C18.9627 68.3242 18.483 69.0412 18.1558 69.8305C17.8285 70.6197 17.66 71.4658 17.66 72.3202V86.6102C17.7522 88.2718 18.4772 89.8349 19.6861 90.9786C20.895 92.1222 22.4959 92.7595 24.16 92.7595C25.8241 92.7595 27.4251 92.1222 28.634 90.9786C29.8428 89.8349 30.5678 88.2718 30.66 86.6102V72.3202C30.6574 70.5988 29.9731 68.9486 28.7568 67.7305C27.5406 66.5123 25.8914 65.8255 24.17 65.8202Z" stroke="#4F58A9" stroke-width="1.5" stroke-miterlimit="10" />
    <path d="M395 374L405.23 384.23M376.73 350.75H408.53C411.28 350.75 413.51 352.98 413.51 355.73V387.53C413.51 390.28 411.28 392.51 408.53 392.51H376.73C373.98 392.51 371.75 390.28 371.75 387.53V355.73C371.75 352.98 373.98 350.75 376.73 350.75ZM388.79 359C390.523 359.004 392.216 359.521 393.655 360.486C395.094 361.452 396.215 362.821 396.876 364.423C397.538 366.025 397.71 367.786 397.37 369.486C397.031 371.185 396.197 372.746 394.971 373.971C393.746 375.197 392.185 376.031 390.486 376.37C388.786 376.71 387.025 376.538 385.423 375.876C383.821 375.215 382.452 374.094 381.486 372.655C380.521 371.216 380.004 369.523 380 367.79C379.996 366.635 380.221 365.49 380.661 364.422C381.101 363.353 381.749 362.383 382.566 361.566C383.383 360.749 384.353 360.101 385.422 359.661C386.49 359.221 387.635 358.996 388.79 359Z" stroke="#4F58A9" stroke-width="1.5" stroke-miterlimit="10" />
    <!-- <path d="M959.78 0.75H895.76C890.232 0.75 885.75 5.23163 885.75 10.76V74.78C885.75 80.3084 890.232 84.79 895.76 84.79H959.78C965.308 84.79 969.79 80.3084 969.79 74.78V10.76C969.79 5.23163 965.308 0.75 959.78 0.75Z" stroke="#98A2E2" stroke-width="1.5" stroke-miterlimit="10" />
    <path d="M928.57 66.52C928.36 66.7288 928.076 66.8461 927.78 66.8461C927.484 66.8461 927.2 66.7288 926.99 66.52L905.99 44.76C904.071 42.8769 902.797 40.4345 902.352 37.783C901.906 35.1314 902.312 32.4069 903.51 30C904.438 28.1822 905.781 26.6086 907.431 25.4064C909.08 24.2042 910.989 23.4073 913.004 23.0801C915.019 22.7529 917.082 22.9047 919.027 23.5232C920.972 24.1416 922.744 25.2094 924.2 26.64L927.77 29.9L931.33 26.64C932.547 25.4397 933.988 24.4911 935.572 23.8484C937.155 23.2057 938.85 22.8816 940.559 22.8946C942.268 22.9076 943.958 23.2575 945.531 23.9242C947.105 24.5909 948.532 25.5613 949.73 26.78C950.644 27.7334 951.409 28.8188 952 30C953.208 32.4054 953.625 35.1313 953.19 37.7877C952.755 40.4442 951.492 42.8951 949.58 44.79L928.57 66.52Z" stroke="#98A2E2" stroke-width="1.5" stroke-miterlimit="10" />
    <path d="M987.92 187.75H953.18C950.181 187.75 947.75 190.181 947.75 193.18V227.92C947.75 230.919 950.181 233.35 953.18 233.35H987.92C990.919 233.35 993.35 230.919 993.35 227.92V193.18C993.35 190.181 990.919 187.75 987.92 187.75Z" stroke="#4F58A9" stroke-width="1.5" stroke-miterlimit="10" />
    <path d="M954.25 213.33C953.927 213.664 953.746 214.11 953.746 214.575C953.746 215.04 953.927 215.486 954.25 215.82L962.73 224.32C962.893 224.483 963.086 224.613 963.299 224.701C963.511 224.79 963.74 224.835 963.97 224.835C964.2 224.835 964.429 224.79 964.641 224.701C964.854 224.613 965.047 224.483 965.21 224.32L986.84 202.63C987.167 202.3 987.351 201.855 987.351 201.39C987.351 200.925 987.167 200.48 986.84 200.15L983.48 196.77C983.318 196.606 983.125 196.475 982.912 196.386C982.699 196.297 982.471 196.251 982.24 196.251C982.009 196.251 981.781 196.297 981.568 196.386C981.355 196.475 981.162 196.606 981 196.77L964 213.85L960.1 210C959.769 209.672 959.321 209.488 958.855 209.488C958.389 209.488 957.941 209.672 957.61 210L954.25 213.33Z" stroke="#4F58A9" stroke-width="1.5" stroke-miterlimit="10" />
    <path d="M1039 135.14L1034.31 143.27C1034.22 143.439 1034.19 143.638 1034.24 143.824C1034.29 144.01 1034.42 144.17 1034.58 144.27C1034.73 144.359 1034.91 144.391 1035.08 144.36L1039.24 143.66L1040.69 147.66C1040.73 147.795 1040.82 147.913 1040.93 148.002C1041.04 148.091 1041.17 148.145 1041.31 148.159C1041.45 148.173 1041.6 148.145 1041.72 148.08C1041.85 148.014 1041.95 147.914 1042.02 147.79L1046.07 140.95M1033.18 108.75H1067.92C1070.92 108.75 1073.35 111.181 1073.35 114.18V148.92C1073.35 151.919 1070.92 154.35 1067.92 154.35H1033.18C1030.18 154.35 1027.75 151.919 1027.75 148.92V114.18C1027.75 111.181 1030.18 108.75 1033.18 108.75ZM1051.4 121.44L1053.3 125.36H1057C1057.12 125.357 1057.24 125.378 1057.35 125.422C1057.46 125.465 1057.56 125.53 1057.65 125.612C1057.74 125.695 1057.8 125.794 1057.85 125.903C1057.9 126.013 1057.93 126.13 1057.93 126.25C1057.93 126.382 1057.91 126.513 1057.86 126.634C1057.81 126.755 1057.73 126.863 1057.63 126.95L1054.41 130.12L1056.2 134.22C1056.29 134.459 1056.29 134.724 1056.19 134.961C1056.09 135.197 1055.9 135.386 1055.67 135.49C1055.53 135.545 1055.38 135.568 1055.23 135.557C1055.08 135.547 1054.94 135.504 1054.81 135.43L1050.53 133L1046.22 135.42C1046.04 135.503 1045.85 135.534 1045.65 135.507C1045.46 135.48 1045.28 135.397 1045.13 135.268C1044.99 135.14 1044.88 134.971 1044.83 134.783C1044.78 134.595 1044.78 134.396 1044.84 134.21L1046.62 130.11L1043.4 127C1043.31 126.921 1043.24 126.825 1043.19 126.718C1043.13 126.61 1043.1 126.494 1043.1 126.375C1043.09 126.256 1043.11 126.136 1043.15 126.024C1043.19 125.912 1043.25 125.808 1043.33 125.72C1043.42 125.618 1043.53 125.537 1043.65 125.484C1043.77 125.43 1043.91 125.405 1044.04 125.41H1047.75L1049.66 121.49C1049.71 121.369 1049.79 121.26 1049.89 121.17C1049.99 121.08 1050.1 121.01 1050.23 120.964C1050.35 120.918 1050.48 120.898 1050.62 120.904C1050.75 120.91 1050.88 120.943 1051 121C1051.17 121.103 1051.31 121.256 1051.4 121.44ZM1050.53 115C1053.17 115.002 1055.76 115.788 1057.95 117.259C1060.15 118.729 1061.86 120.818 1062.87 123.261C1063.88 125.704 1064.14 128.392 1063.62 130.984C1063.1 133.575 1061.82 135.955 1059.95 137.821C1058.08 139.687 1055.7 140.956 1053.1 141.468C1050.51 141.979 1047.82 141.71 1045.38 140.693C1042.94 139.677 1040.86 137.96 1039.4 135.76C1037.93 133.559 1037.15 130.973 1037.16 128.33C1037.17 124.79 1038.58 121.398 1041.09 118.899C1043.59 116.4 1046.99 114.997 1050.53 115ZM1062.08 135.14L1066.79 143.27C1066.88 143.439 1066.91 143.638 1066.86 143.824C1066.81 144.01 1066.68 144.17 1066.52 144.27C1066.37 144.359 1066.19 144.391 1066.02 144.36L1061.86 143.66L1060.41 147.66C1060.37 147.795 1060.28 147.913 1060.17 148.002C1060.06 148.091 1059.93 148.145 1059.79 148.159C1059.65 148.173 1059.5 148.145 1059.38 148.08C1059.25 148.014 1059.15 147.914 1059.08 147.79L1055.08 140.95L1062.08 135.14Z" stroke="#4F58A9" stroke-width="1.5" stroke-miterlimit="10" /> -->
</svg>