<svg fill="none" viewBox="0 0 122 24" xmlns="http://www.w3.org/2000/svg"><path clip-rule="evenodd" d="m122 5.53763c-.004-.06923-.026-.13619-.064-.19468-.037-.05849-.088-.10661-.149-.13989-.277-.13622-.68-.22978-1.501-.22978-1.852 0-3.491.90639-4.206 2.42279v-1.85246c0-.03839-.008-.07637-.022-.11176-.015-.03539-.037-.0675-.064-.09447-.028-.02698-.06-.0483-.096-.06274-.035-.01445-.073-.02173-.112-.02143h-2.774c-.038-.0003-.076.00698-.112.02143-.035.01444-.068.03576-.095.06274-.027.02697-.049.05908-.064.09447s-.023.07337-.023.11176v12.48739c0 .0384.008.0764.023.1118s.037.0675.064.0945c.027.0269.06.0483.095.0627.036.0144.074.0217.112.0214h2.906c.038.0003.077-.007.112-.0214.036-.0144.068-.0357.096-.0627.027-.027.049-.0591.064-.0945.015-.0353.023-.0733.023-.1118v-5.6172c0-2.50887 1.771-3.75582 4.073-3.75582.455.00393.907.07299 1.343.20508.184.05988.371-.08982.371-.28142zm-18.567 9.71957c-1.986 0-3.5217-1.3847-3.5217-3.4759 0-2.09118 1.5367-3.4766 3.5217-3.4766s3.521 1.38616 3.521 3.4766c0 2.0912-1.536 3.4759-3.521 3.4759zm0-10.32434c-4.0771 0-7.1219 2.77083-7.1219 6.84844 0 4.0777 3.0448 6.8485 7.1219 6.8485 4.076 0 7.121-2.7708 7.121-6.8485 0-4.07761-3.045-6.84844-7.121-6.84844zm-16.1671 10.32434c-1.9857 0-3.5215-1.3847-3.5215-3.4759 0-2.09044 1.5358-3.47585 3.5215-3.47585s3.5208 1.38467 3.5208 3.47585c0 2.0912-1.5351 3.4759-3.5208 3.4759zm0-10.32434c-4.0769 0-7.1216 2.77083-7.1216 6.84844 0 4.0777 3.0447 6.8485 7.1216 6.8485 4.0762 0 7.1209-2.7708 7.1209-6.8485 0-4.07761-3.0447-6.84844-7.1209-6.84844zm-16.1444 10.35654c-1.9849 0-3.4676-1.3847-3.4676-3.5028 0-2.11669 1.4827-3.50285 3.4684-3.50285 1.9594 0 3.4676 1.33376 3.4676 3.50285 0 2.1436-1.5082 3.5028-3.4676 3.5028zm6.5633-15.2642288h-2.9055c-.0384-.0001971-.0764.0071582-.1119.0216458-.0355.0144877-.0677.035824-.095.062791-.0272.026966-.0489.059035-.0637.094375-.0149.035341-.0226.07326-.0228.111593v6.819274c-.9004-1.25443-2.3832-2.22219-4.4482-2.22219-3.2296 0-5.9832 2.45796-5.9832 6.87544 0 4.4167 2.7543 6.8731 6.0356 6.8731 1.9333 0 3.443-.836 4.395-2.169v1.5396c.0002.0384.008.0764.0229.1117.0149.0354.0366.0675.0639.0945.0274.027.0597.0483.0953.0627.0356.0145.0737.0218.1121.0215h2.9055c.0384.0003.0765-.007.1121-.0215.0355-.0144.0679-.0357.0952-.0627.0274-.027.0491-.0591.064-.0945.0149-.0353.0227-.0733.0229-.1117v-17.715475c-.0001-.03846-.0078-.076522-.0227-.111997-.0148-.035476-.0366-.067667-.0639-.094722-.0273-.0270562-.0597-.0484437-.0954-.0629337-.0356-.0144901-.0737-.0217971-.1122-.0215011zm-15.5546 14.3406288c0 2.9796-2.1975 4.261-5.7183 4.261-2.4318 0-4.5237-.6467-5.7205-1.9842-.045-.0521-.0704-.1184-.0718-.1872-.0013-.0689.0214-.1361.0643-.19l1.6795-2.1533c.0262-.0327.0592-.0593.0965-.078.0374-.0188.0784-.0294.1202-.0309.0418-.0016.0835.0059.1222.0218.0386.0159.0734.04.102.0706.8884.8974 2.2529 1.446 3.9519 1.446.9797 0 1.7739-.2604 1.7739-.9924 0-.7066-.7148-.8623-2.9385-1.3331-1.9595-.3929-4.395-1.2806-4.395-4.13 0-2.63984 2.1181-4.15623 5.5865-4.15623 2.2806 0 3.9205.67961 5.0769 1.74991.053.05025.0853.11857.0905.19146.0051.07289-.0173.14506-.0628.20224l-1.5943 2.04331c-.0237.03131-.0537.05744-.0879.07677-.0343.01934-.0721.03148-.1112.03569-.0391.0042-.0786.00038-.1162-.01124-.0376-.01161-.0724-.03077-.1023-.05631-.7821-.68859-2.0807-1.1212-3.3576-1.1212-1.0853 0-1.6945.34055-1.6945.91537 0 .65341.7155.81059 3.0717 1.30683 2.3022.4962 4.2348 1.3592 4.2348 4.1031zm-13.4365.0075c0 2.9796-2.1975 4.261-5.7183 4.261-2.4317 0-4.5237-.6467-5.7205-1.9842-.0448-.0521-.0701-.1182-.0714-.1869-.0014-.0687.0212-.1357.0639-.1896l1.6796-2.1541c.0263-.0325.0592-.059.0966-.0777.0373-.0187.0783-.0292.1201-.0307.0417-.0016.0833.0058.122.0217.0387.0158.0735.0398.1021.0703.8885.8981 2.2529 1.4468 3.9519 1.4468.9798 0 1.7739-.2613 1.7739-.9933 0-.7065-.7148-.8622-2.9385-1.333-1.9595-.3922-4.395-1.2806-4.395-4.13001 0-2.63984 2.1182-4.15549 5.5866-4.15549 2.2798 0 3.9197.67961 5.0761 1.74917.053.05025.0853.11856.0904.19146.0052.07289-.0172.14505-.0627.20223l-1.5943 2.04332c-.0237.03125-.0536.05734-.0877.07668-.0342.01933-.0719.03151-.1109.03578s-.0785.00055-.116-.01093c-.0375-.01149-.0723-.0305-.1023-.05588-.7821-.68859-2.0807-1.1227-3.3583-1.1227-1.0853 0-1.6946.3413-1.6946.91612 0 .65342.7163.81059 3.0717 1.30685 2.3023.4962 4.2356 1.3592 4.2356 4.1031zm-17.4153-1.3323c0 1.4371-1.1901 2.6922-3.044 2.6922-1.2178 0-1.8802-.5493-1.8802-1.3854 0-.732.5569-1.2814 1.6422-1.4385l3.282-.3915zm-2.303-8.0767c-2.7723 0-4.8613.91612-5.7947 2.72666-.0309.06309-.0382.13518-.0204.20317.0177.06799.0592.12736.117.16732l2.1182 1.49394c.1332.09356.3203.06287.4004-.07859.5883-1.0456 1.9063-1.40262 3.1795-1.40262 1.562 0 2.3023.54787 2.3023 1.30682v.20882c0 .31436-.1849.47158-.6879.52318l-3.6271.3136c-2.4355.2343-4.2348 1.7245-4.2348 4.1031 0 2.4048 1.8525 4.0776 4.4736 4.0776 2.065 0 3.3883-.9932 4.0762-2.0388v1.4872c.0002.0384.0079.0764.0228.1118s.0367.0675.064.0945c.0273.0269.0597.0483.0953.0627.0355.0144.0736.0217.112.0214h2.9063c.0384.0003.0765-.007.112-.0214.0356-.0144.068-.0358.0953-.0627.0274-.027.0491-.0591.064-.0945s.0226-.0734.0228-.1118v-7.7855c0-3.63308-1.9325-5.3059-5.7968-5.3059zm-8.6448-4.650221v17.714721c-.0001.0384-.0078.0765-.0227.112-.0148.0355-.0365.0676-.0639.0947-.0273.0271-.0597.0484-.0953.0629-.0357.0145-.0738.0218-.1123.0215h-2.9324c-.0385.0003-.0766-.007-.1123-.0215-.0356-.0145-.068-.0358-.0953-.0629-.0274-.0271-.0491-.0592-.0639-.0947-.0149-.0355-.0226-.0736-.0227-.112v-17.71996c0-.157178.1295-.2844173.2882-.2844173h2.9384c.0384-.0002958.0765.0069865.1121.0214298.0356.0144434.0679.035764.0953.0627405.0273.026976.049.059079.0639.094468s.0227.07337.0229.111767zm-13.26283 14.961821c-1.98494 0-3.46765-1.3854-3.46765-3.5028 0-2.11741 1.48197-3.50282 3.46765-3.50282s3.44143 1.33376 3.44143 3.50282c0 2.1429-1.45575 3.5028-3.44143 3.5028zm6.56253-10.03691h-2.9025c-.0785-.0004-.1539.03034-.2098.08548-.0558.05515-.0875.13019-.0881.20866v1.53586c-.741-1.17659-2.27686-2.14361-4.31493-2.14361-3.28277 0-6.11497 2.43102-6.11497 6.79612 0 4.3381 2.69972 6.7152 6.2205 6.7152 1.90635 0 3.38831-.7837 4.2625-2.0119v.8361c0 1.8816-.92733 3.3718-3.89201 3.3718-1.49019 0-2.68699-.4895-3.73634-1.4071-.03149-.0286-.06887-.0499-.10951-.0625-.04063-.0125-.08352-.016-.12564-.0101-.04212.0058-.08245.0209-.11812.044-.03567.0232-.06582.0539-.08832.09l-1.31656 2.178c-.169899.2814-.146696.4393-.03892.5321 1.35173 1.1602 3.10988 1.8765 5.66589 1.8765 5.55963 0 7.20103-3.0575 7.20103-6.4294v-11.91481c-.0002-.03839-.008-.07638-.0229-.11176-.0149-.03539-.0366-.0675-.064-.09447-.0273-.02698-.0597-.0483-.0952-.06274-.0356-.01445-.0737-.02173-.1121-.02143z" fill="#0caa41" fill-rule="evenodd"/></svg>