<svg fill="none" viewBox="0 0 136 24" xmlns="http://www.w3.org/2000/svg"><g fill="#0caa41"><path d="m12 0 3.5267 7.1459 7.886 1.1459-5.7064 5.5623 1.3471 7.8541-7.0534-3.7082-7.05342 3.7082 1.34708-7.8541-5.706338-5.5623 7.885968-1.1459z"/><path d="m40 0 3.5267 7.1459 7.886 1.1459-5.7064 5.5623 1.3471 7.8541-7.0534-3.7082-7.0534 3.7082 1.3471-7.8541-5.7064-5.5623 7.886-1.1459z"/><path d="m68 0 3.5267 7.1459 7.886 1.1459-5.7064 5.5623 1.3471 7.8541-7.0534-3.7082-7.0534 3.7082 1.3471-7.8541-5.7064-5.5623 7.886-1.1459z"/><path d="m96 0 3.5267 7.1459 7.8863 1.1459-5.707 5.5623 1.347 7.8541-7.053-3.7082-7.0534 3.7082 1.3471-7.8541-5.7064-5.5623 7.886-1.1459z"/></g><path d="m124 0 3.527 7.1459 7.886 1.1459-5.707 5.5623 1.347 7.8541-7.053-3.7082-7.053 3.7082 1.347-7.8541-5.707-5.5623 7.886-1.1459z" fill="#e0e0e0"/></svg>