<svg height="14" viewBox="0 0 14 14" width="14" xmlns="http://www.w3.org/2000/svg"><path d="m9.33333333 45.6666667h2.66666667c.184 0 .3333333.1493333.3333333.3333333v8.6666667c0 .184-.1493333.3333333-.3333333.3333333h-2.66666667c-.184 0-.33333333-.1493333-.33333333-.3333333v-8.6666667c0-.184.14933333-.3333333.33333333-.3333333zm1.31999997-4.6666667c.9133334 0 1.6533334.746 1.6533334 1.6666667 0 .9206666-.74 1.6666666-1.6533334 1.6666666-.9133333 0-1.6533333-.746-1.6533333-1.6666666 0-.9206667.74-1.6666667 1.6533333-1.6666667zm9.3466667 14h2c.184 0 .3333333-.1493333.3333333-.3333333v-5.6c0-2.5133334-1.42-3.7333334-3.4066666-3.7333334-.7926667-.0286666-1.56.2786667-2.1133334.8466667-.0986666.114-.2713333.1266667-.3853333.028-.0606667-.0526667-.0946667-.128-.0946667-.208 0-.184-.1493333-.3333333-.3333333-.3333333h-2c-.184 0-.3333333.1493333-.3333333.3333333v8.6666667c0 .184.1493333.3333333.3333333.3333333h2c.184 0 .3333333-.1493333.3333333-.3333333v-5c0-.9206667.746-1.6666667 1.6666667-1.6666667s1.6666667.746 1.6666667 1.6666667v5c0 .184.1493333.3333333.3333333.3333333z" fill="#606060" fill-rule="evenodd" transform="translate(-9 -41)"/></svg>