<svg height="12" viewBox="0 0 14 12" width="14" xmlns="http://www.w3.org/2000/svg"><path d="m70.8908778 44.3504915c.1284289-.107226.145997-.298052.0393767-.4264809-.0411941-.0496754-.0975332-.0848116-.1605361-.1005623l-.4785795-.1211594c-.1623535-.0405883-.2610984-.2053651-.22051-.3671128.0048464-.0199913.012116-.038771.0205971-.0569449l.2665506-.5391591c.0726956-.1508434.0090869-.3319767-.1411507-.4046723-.065426-.0315014-.139939-.0381652-.2102114-.0193855l-1.2115936.3392462c-.0914753.0266551-.1902202.0084812-.2665506-.0484637-.5240142-.3931621-1.1619182-.6057968-1.8173903-.6057968-1.6726049 0-3.0289839 1.356379-3.0289839 3.0289839v.2180868c.0006058.0769362-.0569449.1423623-.1332752.1514492-1.702289.1999129-3.3318823-.6663764-5.088693-2.6897377-.0775419-.0860231-.1968839-.1211593-.3089563-.0908695-.1005623.0460406-.1678057.1435738-.1756811.2544347-.2429245.9965356-.1447854 2.0457757.2786665 2.9805201.0375594.074513.0078754.1659883-.0666376.2035477-.0284724.0139333-.0599739.0193855-.0908695.0145391l-.6784924-.1332753c-.1653825-.026655-.3204665.0860232-.3471216.2507999-.0054521.035742-.0048463.071484.0018174.1066202.1060145.942014.6342693 1.7840715 1.4357384 2.2899118.0751188.0363478.1066202.1272174.0702724.2023362-.0151449.0308956-.0393768.0557333-.0702724.0702724l-.3210723.1272173c-.155084.0623971-.2308086.2386839-.1684115.3937679.003029.0084812.0066638.0163565.0109043.0242319.3604491.7887474 1.0849821 1.350321 1.9385497 1.502376.0787536.0284724.119342.1157072.0908695.1938549-.0151449.0424058-.0484637.0751188-.0908695.0908696-.8238836.3404577-1.7077411.5118982-2.5988681.5028113-.1672-.0333188-.3301593.0751188-.3634781.2423187s.0751188.3301592.2423187.3634781c1.5435702.7318025 3.2234446 1.1304167 4.9311857 1.1691877 1.5017702.0230203 2.9774912-.3986142 4.2405775-1.2115935 2.1105959-1.4090833 3.3748938-3.7807777 3.36823-6.3184604v-.5270432c.0006058-.0890521.0405884-.1732578.1090434-.2302027z" fill="#606060" fill-rule="evenodd" transform="translate(-57 -42)"/></svg>