<svg height="14" viewBox="0 0 14 14" width="14" xmlns="http://www.w3.org/2000/svg"><g fill="#606060"><path d="m2.9288 13.2678-2.2092-2.2078c-.95757979-.9614431-.95757979-2.51615687 0-3.4776l1.6884-1.68c.25690426-.29726589.65827341-.42623343 1.04025018-.33425215s.68064194.38951941.7740667.7711457-.03402439.78348015-.33031688 1.04150645l-1.68 1.687c-.13992782.13995771-.13992782.36684229 0 .5068l2.2008 2.2078c.05580633.0856905.1511395.1373721.2534.1373721s.19759367-.0516816.2534-.1373721l1.6884-1.68c.41557609-.36190441 1.04022268-.34096057 1.43062402.0479676.39040134.3889281.41370664 1.013491.05337598 1.4304324l-1.68 1.687c-.46111714.4633754-1.08788312.7238876-1.7416.7238876s-1.28048286-.2605122-1.7416-.7238876z"/><path d="m10.108 8.0808c-.19705876-.19693251-.30777584-.46410609-.30777584-.7427s.11071708-.54576749.30777584-.7427l1.687-1.687c.1400885-.14043781.1400885-.36776219 0-.5082l-2.2078-2.2078c-.05625093-.08505807-.1514243-.13622053-.2534-.13622053s-.19714907.05116246-.2534.13622053l-1.6884 1.6884c-.41218473.39773098-1.06707681.39173345-1.47190814-.0134798-.40483134-.40521325-.41021133-1.06011069-.01209186-1.4719202l1.687-1.687c.97328621-.92711113 2.5029138-.92711113 3.4762 0l2.2092 2.2078c.9574182.96096359.9574182 2.51523641 0 3.4762l-1.6884 1.6884c-.1966934.19697374-.4636352.30765603-.742.30765603s-.5453066-.11068229-.742-.30765603z"/><path d="m5.208 8.7808c-.19705876-.19693251-.30777584-.46410609-.30777584-.7427s.11071708-.54576749.30777584-.7427l2.1-2.1c.41218473-.39773098 1.06707681-.39173345 1.47190814.0134798.40483134.40521325.41021133 1.06011069.01209186 1.4719202l-2.1 2.1c-.1966934.19697374-.46363522.30765603-.742.30765603s-.5453066-.11068229-.742-.30765603z"/></g></svg>