<svg fill="none" viewBox="0 0 86 86" xmlns="http://www.w3.org/2000/svg" xmlns:xlink="http://www.w3.org/1999/xlink"><clipPath id="a"><path d="m0 0h85.54v85.54h-85.54z"/></clipPath><g clip-path="url(#a)" stroke="currentColor" stroke-miterlimit="10" stroke-width="1.5"><path d="m74.78.75h-64.02c-5.52837 0-10.01 4.48163-10.01 10.01v64.02c0 5.5284 4.48163 10.01 10.01 10.01h64.02c5.5284 0 10.01-4.4816 10.01-10.01v-64.02c0-5.52837-4.4816-10.01-10.01-10.01z"/><path d="m43.57 66.5198c-.2098.2088-.4939.3261-.79.3261-.296 0-.5801-.1173-.7899-.3261l-21.0001-21.76c-1.9191-1.8831-3.1927-4.3255-3.6382-6.977-.4455-2.6516-.0401-5.3761 1.1583-7.783.9281-1.8177 2.2713-3.3914 3.9207-4.5936s3.5587-1.9991 5.5733-2.3263 4.078-.1754 6.0231.4431c1.945.6184 3.7171 1.6862 5.1729 3.1168l3.57 3.26 3.56-3.26c1.2166-1.2003 2.6579-2.1489 4.2415-2.7916 1.5837-.6427 3.2785-.9668 4.9875-.9538s3.3987.3629 4.9723 1.0296c1.5737.6667 3.0004 1.6371 4.1987 2.8558.9139.9534 1.6791 2.0388 2.2699 3.22 1.2082 2.4054 1.6248 5.1313 1.1901 7.7877-.4346 2.6565-1.6982 5.1074-3.61 7.0023z"/></g></svg>