<svg fill="none" viewBox="0 0 44 44" xmlns="http://www.w3.org/2000/svg" xmlns:xlink="http://www.w3.org/1999/xlink"><clipPath id="a"><path d="m0 0h43.26v43.26h-43.26z"/></clipPath><g clip-path="url(#a)" stroke="currentColor" stroke-miterlimit="10" stroke-width="1.5"><path d="m37.53.75h-31.8c-2.75038 0-4.98 2.22962-4.98 4.98v31.8c0 2.7504 2.22962 4.98 4.98 4.98h31.8c2.7504 0 4.98-2.2296 4.98-4.98v-31.8c0-2.75038-2.2296-4.98-4.98-4.98z"/><path d="m24.0001 24.0001 10.23 10.23zm-6.21-15.00005c1.7328.00396 3.4256.52117 4.8648 1.48635 1.4391.9652 2.5601 2.3351 3.2214 3.9367.6613 1.6017.8333 3.3634.4942 5.0628-.339 1.6993-1.1738 3.2602-2.3991 4.4855s-2.7862 2.0601-4.4855 2.3991c-1.6994.3391-3.4611.1671-5.0628-.4942-1.6016-.6613-2.9715-1.7823-3.9367-3.2214-.96518-1.4392-1.48239-3.132-1.48635-4.8648-.00396-1.1555.22069-2.3003.66103-3.3685.44032-1.0683 1.08762-2.0388 1.90462-2.8559.8171-.817 1.7876-1.4643 2.8559-1.90462 1.0682-.44034 2.213-.66499 3.3685-.66103z"/></g></svg>