<svg viewBox="0 0 16 16" fill="none" xmlns="http://www.w3.org/2000/svg"><path d="M1 6.83333H0.5H1ZM0.5 6.83333C0.5 10.3311 3.33553 13.1667 6.83333 13.1667V12.1667C3.88781 12.1667 1.5 9.77885 1.5 6.83333H0.5ZM6.83333 13.1667C10.3311 13.1667 13.1667 10.3311 13.1667 6.83333H12.1667C12.1667 9.77885 9.77885 12.1667 6.83333 12.1667V13.1667ZM13.1667 6.83333C13.1667 3.33553 10.3311 0.5 6.83333 0.5V1.5C9.77885 1.5 12.1667 3.88781 12.1667 6.83333H13.1667ZM6.83333 0.5C3.33553 0.5 0.5 3.33553 0.5 6.83333H1.5C1.5 3.88781 3.88781 1.5 6.83333 1.5V0.5ZM15.3535 14.6465L11.4646 10.7576L10.7575 11.4647L14.6464 15.3536L15.3535 14.6465Z" fill="#FFFFFF"/></svg>
