<svg height="14" viewBox="0 0 16 14" width="16" xmlns="http://www.w3.org/2000/svg"><path d="m167.999724 47.2264702c-.003751-.8633838-.561113-1.6269044-1.382295-1.8935613-.821182-.2666568-1.72078.0237548-2.23104.7202324-1.177601-.7013466-2.510672-1.0998934-3.879985-1.1599957.04-.706664.246665-1.9333261.919996-2.3199913.419999-.2399991 1.03333-.1266662 1.80666.3066655.082542.810459.741 1.4412515 1.554254 1.4889517.813254.0477001 1.540939-.5017904 1.717662-1.2970426.176722-.7952522-.24975-1.6012221-1.006664-1.9024483-.756915-.3012261-1.620559-.0086785-2.038586.690543-.760862-.4865103-1.719337-.5445233-2.533324-.1533328-1.179995.6666642-1.393328 2.4333243-1.426661 3.1866548-1.371547.059286-2.706971.4578517-3.886652 1.1599957-.51026-.6964776-1.409858-.9868892-2.23104-.7202324-.821182.2666569-1.378544 1.0301775-1.382295 1.8935613-.003264.8503928.531577 1.6098663 1.333343 1.8933263-.00969.1465061-.00969.2934923 0 .4399984 0 2.5733237 2.993322 4.6666492 6.666642 4.6666492s6.666642-2.0933255 6.666642-4.6666492c.00969-.1465061.00969-.2934923 0-.4399984.801766-.28346 1.336606-1.0429335 1.333343-1.8933263zm-11.666638 1.3333321c0-.5522864.447714-1 1-1 .552279 0 1 .4477136 1 1 0 .552279-.447721 1-1 1-.552286 0-1-.447721-1-1zm6.27331 3.3333172c-.797633.4413396-1.695076.6708647-2.606657.6666642-.916313.008304-1.819087-.2214095-2.61999-.6666642-.239323-.1380707-.321404-.4440083-.183333-.6833308s.444008-.3214033.683331-.1833326c1.328133.6745915 2.898518.6745915 4.226651 0 .239322-.1380707.54526-.0559899.683331.1833326.13807.2393225.055989.5452601-.183333.6833308zm.060003-2.3333172c-.552286 0-1-.447721-1-1 0-.5522864.447714-1 1-1 .552279 0 1 .4477136 1 1 0 .552279-.447721 1-1 1z" fill="#606060" fill-rule="evenodd" transform="translate(-152 -41)"/></svg>