<svg fill="none" viewBox="0 0 48 48" xmlns="http://www.w3.org/2000/svg" xmlns:xlink="http://www.w3.org/1999/xlink"><clipPath id="a"><path d="m0 0h47.1v47.1h-47.1z"/></clipPath><g clip-path="url(#a)" stroke="currentColor" stroke-miterlimit="10" stroke-width="1.5"><path d="m40.92.75h-34.74c-2.99891 0-5.43 2.43109-5.43 5.43v34.74c0 2.9989 2.43109 5.43 5.43 5.43h34.74c2.9989 0 5.43-2.4311 5.43-5.43v-34.74c0-2.99891-2.4311-5.43-5.43-5.43z"/><path d="m7.24999 26.3298c-.3232.3339-.5039.7804-.5039 1.245 0 .4647.1807.9112.5039 1.245l8.48001 8.5c.1626.1633.3558.2929.5686.3813s.441.1339.6714.1339.4586-.0455.6714-.1339c.2127-.0884.406-.218.5686-.3813l21.63-21.69c.3273-.3297.511-.7754.511-1.24 0-.4645-.1837-.9103-.511-1.24l-3.36-3.37997c-.1619-.16448-.3549-.2951-.5678-.38426s-.4414-.13508-.6722-.13508-.4593.04592-.6722.13508-.4059.21978-.5678.38426l-17 17.07997-3.9-3.85c-.3314-.3279-.7788-.5118-1.245-.5118s-.9136.1839-1.245.5118z"/></g></svg>