<svg fill="none" viewBox="0 0 48 48" xmlns="http://www.w3.org/2000/svg" xmlns:xlink="http://www.w3.org/1999/xlink"><clipPath id="a"><path d="m0 0h47.1v47.1h-47.1z"/></clipPath><g clip-path="url(#a)" stroke="currentColor" stroke-miterlimit="10" stroke-width="1.5"><path d="m40.92.75h-34.74c-2.99891 0-5.43 2.43109-5.43 5.43v34.74c0 2.9989 2.43109 5.43 5.43 5.43h34.74c2.9989 0 5.43-2.4311 5.43-5.43v-34.74c0-2.99891-2.4311-5.43-5.43-5.43z"/><path d="m12 27.14-4.68997 8.13c-.09223.1694-.11563.3679-.06535.5541s.17039.3459.33535.4459c.15052.0889.32794.1208.5.09l4.15997-.7 1.45 4c.0442.1346.1266.2534.2371.342.1106.0886.2445.1431.3855.1569s.283-.0137.4086-.0793c.1256-.0655.2294-.1661.2988-.2896l4.05-6.84m5.33-19.51 1.9 3.92h3.7c.1195-.0027.2384.0183.3498.0616.1115.0433.2133.1081.2996.1907.0864.0827.1556.1815.2038.2909.0481.1095.0742.2273.0768.3468.0049.1316-.0194.2627-.0713.3837-.0519.1211-.13.2291-.2287.3163l-3.22 3.17 1.79 4.1c.0911.2393.0868.5044-.0118.7407-.0986.2362-.284.4257-.5182.5293-.1387.0548-.288.0778-.4368.0674-.1488-.0103-.2934-.0539-.4232-.1274l-4.28-2.43-4.31 2.42c-.1763.0835-.3731.1136-.5663.0866-.1932-.0269-.3743-.1098-.521-.2385-.1467-.1286-.2525-.2973-.3045-.4853s-.0479-.3871.0118-.5728l1.78-4.1-3.22-3.11c-.0894-.079-.1622-.1749-.2141-.2823-.052-.1073-.0822-.2239-.0887-.3431-.0065-.1191.0108-.2383.0507-.3506.04-.1124.1019-.2157.1821-.304.0874-.1018.1966-.1826.3195-.2363.123-.0537.2565-.0789.3905-.0737h3.71l1.91-3.92c.0549-.121.1333-.2298.2307-.3201s.2118-.1603.3366-.2059c.1247-.0456.2573-.066.39-.0598s.2628.0388.3827.0958c.1749.1027.3144.2562.4.44zm-.87-6.44c2.6432.00199 5.2265.78798 7.4228 2.25853 2.1964 1.47057 3.9072 3.55957 4.916 6.00267 1.0087 2.4432 1.2701 5.1306.7511 7.7224-.5191 2.5917-1.7953 4.9713-3.6671 6.8375s-4.2552 3.1353-6.8485 3.6466-5.2799.2418-7.72-.7743c-2.4402-1.016-4.524-2.7331-5.988-4.9339-1.4639-2.2007-2.2422-4.7863-2.2363-7.4295.008-3.5398 1.4204-6.9318 3.9272-9.4311 2.5068-2.49928 5.903-3.90155 9.4428-3.8989zm11.55 20.14 4.71 8.13c.0923.1694.1157.3679.0654.5541s-.1704.3459-.3354.4459c-.1505.0889-.3279.1208-.5.09l-4.16-.7-1.45 4c-.0441.1346-.1265.2534-.2371.342-.1105.0886-.2445.1431-.3855.1569-.1409.0138-.2829-.0137-.4085-.0793-.1256-.0655-.2295-.1661-.2989-.2896l-4-6.84z"/></g></svg>