<svg viewBox="0 0 14 12" xmlns="http://www.w3.org/2000/svg"><g fill="currentColor"><path d="m13.8939394 9.95041322c0 .95851068-.7122743 1.73553718-1.5909091 1.73553718h-10.6060606c-.87863483 0-1.5909139-.7770265-1.5909139-1.73553718v-5.48314049c-.00057614-.1052933.05154469-.20254526.13593971-.2536402s.18761937-.04789298.26921661.00835094l5.22348485 3.56132232c.77462045.52458867 1.754925.52458867 2.52954545 0l5.22348488-3.56132232c.0816831-.05624096.1849953-.05934698.2693939-.00809917.0843336.05116799.1368182.14811646.1368182.25338843z"/><path d="m13.8568182 1.92413223-6.43257578 4.38743802c-.25823059.17477191-.58495122.17477191-.84318181 0l-6.43363637-4.38743802c-.02490658-.01429119-.04074371-.04219999-.04136363-.07289256 0-.95851072.71227426-1.73553719 1.59090909-1.73553719h10.6060606c.8786348 0 1.5909198.77702647 1.5909198 1.73553719.0004133.0286519-.0118218.05577734-.0328895.07289256z"/></g></svg>