<svg fill="none" viewBox="0 0 88 88" xmlns="http://www.w3.org/2000/svg" xmlns:xlink="http://www.w3.org/1999/xlink"><clipPath id="a"><path d="m0 0h88v88h-88z"/></clipPath><g clip-path="url(#a)" stroke="currentColor" stroke-miterlimit="10" stroke-width="1.5"><path d="m77.07 1h-65.78c-5.68301 0-10.29 4.60699-10.29 10.29v65.78c0 5.683 4.60699 10.29 10.29 10.29h65.78c5.683 0 10.29-4.607 10.29-10.29v-65.78c0-5.68301-4.607-10.29-10.29-10.29z"/><path d="m49.92 45.1598 8.19 8.19c1.4491-.6528 3.0386-.9323 4.6235-.8132 1.5848.1191 3.1146.6331 4.4499 1.4951s2.4335 2.0445 3.1944 3.4398c.761 1.3953 1.1606 2.959 1.1622 4.5483.0023.6718-.0647 1.342-.2 2-.0321.153-.094.2982-.1823.4273-.0882.129-.2011.2394-.332.3249-.131.0854-.2775.1442-.4311.173-.1537.0288-.3116.027-.4646-.0052-.2279-.0431-.4372-.1548-.6-.32l-3.39-3.39c-.1098-.111-.2407-.1992-.3849-.2592-.1442-.0601-.2989-.091-.4551-.0908h-3.08c-.3156 0-.6183.1254-.8414.3485-.2232.2232-.3486.5259-.3486.8415v3.07c.0008.3153.1267.6174.35.84l3.39 3.4c.1113.1098.1997.2405.26.3847s.0913.299.0913.4553-.031.311-.0913.4552-.1487.275-.26.3848c-.1604.163-.3658.2744-.59.32-.6574.1391-1.328.2062-2 .2-1.5942-.0012-3.1625-.4028-4.5612-1.1678-1.3986-.7651-2.5828-1.8691-3.4437-3.2108-.861-1.3417-1.3712-2.8782-1.4839-4.4684s.1757-3.1833.8388-4.633l-8.18-8.18zm-6.77-6.72-8.19-8.19c.5153-1.1377.8012-2.3659.8412-3.6142.0401-1.2484-.1663-2.4923-.6075-3.6608-.4412-1.1684-1.1084-2.2384-1.9636-3.1487s-1.8814-1.6431-3.0201-2.1563c-1.2179-.5557-2.5413-.8422-3.88-.84-.6716-.0108-1.3424.0529-2 .19-.153.0321-.2982.0941-.4272.1823-.1291.0883-.2395.2011-.3249.332-.0855.131-.1443.2775-.1731.4312s-.027.3115.0052.4645c.0432.2279.1548.4372.32.6l3.39 3.39c.1111.1099.1992.2407.2593.3849s.0909.2989.0907.4551v3.08c.0003.3071-.1182.6025-.3306.8243-.2125.2217-.5025.3528-.8094.3657h-3.06c-.3153-.0008-.6174-.1267-.84-.35l-3.4-3.39c-.1097-.1113-.2405-.1996-.3847-.2599s-.299-.0914-.4553-.0914-.311.0311-.4552.0914-.275.1486-.3848.2599c-.1629.1605-.2743.3659-.32.59-.1391.6574-.2061 1.328-.2 2 .0017 1.5893.4013 3.1529 1.1622 4.5482.761 1.3954 1.8592 2.5779 3.1945 3.4399 1.3352.862 2.8651 1.376 4.4499 1.4951 1.5849.1191 3.1743-.1604 4.6234-.8132l8.18 8.18zm24.29-12.4c-.1864.2508-.4205.4625-.6888.6228-.2682.1604-.5655.2664-.8747.3119s-.6243.0296-.9274-.0467-.5882-.2115-.8391-.398l-.26-.23-1.93-1.93c-.4445-.4461-.6941-1.0502-.6941-1.68s.2496-1.2339.6941-1.68c.1009-.1007.2114-.1911.33-.27l5.27-3.66c.2292-.1579.5061-.2313.7834-.2076.2772.0237.5377.143.7366.3376l2.14 2.14c.2018.2039.3239.4734.3441.7596.0201.2862-.0629.5702-.2341.8004zm-4.46-.61-27 26.94zm-32 21.94 10.09 10.09zm-8.06 23.12c-.6874.5186-1.5391.7713-2.3981.7114-.859-.0598-1.6674-.4281-2.2763-1.037-.6089-.6088-.9772-1.4173-1.037-2.2763s.1928-1.7107.7114-2.3981l15.58-15.68 5 5.05z"/></g></svg>