<svg fill="none" viewBox="0 0 48 48" xmlns="http://www.w3.org/2000/svg" xmlns:xlink="http://www.w3.org/1999/xlink"><clipPath id="a"><path d="m0 0h48v48h-48z"/></clipPath><g clip-path="url(#a)" stroke="currentColor" stroke-miterlimit="10" stroke-width="1.5"><path d="m42 .75h-35.67c-3.08175 0-5.58 2.49825-5.58 5.58v35.67c0 3.0817 2.49825 5.58 5.58 5.58h35.67c3.0817 0 5.58-2.4983 5.58-5.58v-35.67c0-3.08175-2.4983-5.58-5.58-5.58z"/><path d="m17.66 19.6202h13zm15.9-10.39999c-.6292 2.25439-2.0491 4.20679-4 5.49999zm-14.85 5.49999c-1.9489-1.2951-3.3683-3.2468-4-5.49999zm19.78 12.69h-7.81zm-20.81 0h-7.83997zm-7.19-6.49c1.8107-.0871 3.582.5471 4.926 1.7636 1.3439 1.2165 2.1509 2.9161 2.244 4.7264-.0932 1.8112-.8998 3.5118-2.2434 4.7298-1.3437 1.2181-3.115 1.8546-4.9266 1.7702zm27.35 12.99c-1.8113.087-3.583-.5488-4.9256-1.7677s-2.1463-2.921-2.2344-4.7323c.0436-.8964.2634-1.7754.6469-2.5868.3835-.8115.9232-1.5393 1.5881-2.1421.665-.6027 1.4422-1.0685 2.2873-1.3706.845-.3022 1.7414-.4349 2.6377-.3905zm-13.67-22.09c-.8544-.0013-1.7007.1659-2.4905.4919-.7898.3261-1.5075.8047-2.1121 1.4084-.6047.6037-1.0844 1.3207-1.4116 2.11-.3273.7892-.4958 1.6353-.4958 2.4897v14.29c.0922 1.6616.8172 3.2247 2.0261 4.3684 1.2089 1.1436 2.8098 1.7809 4.4739 1.7809s3.2651-.6373 4.474-1.7809c1.2088-1.1437 1.9338-2.7068 2.026-4.3684v-14.29c-.0026-1.7214-.6869-3.3716-1.9032-4.5897-1.2162-1.2182-2.8654-1.905-4.5868-1.9103z"/></g></svg>