<svg height="14" viewBox="0 0 8 14" width="8" xmlns="http://www.w3.org/2000/svg"><path d="m115.665 45.1825c-.054833-.0624167-.133-.098-.215833-.0991667h-2.199167v-.8225c0-.1633333.035-.35.2975-.35h1.75c.077583.0035.152833-.0285833.204167-.0875.051333-.0530833.0805-.12425.081666-.1983333v-2.3333333c0-.161-.130666-.2916667-.291666-.2916667h-2.525834c-2.8 0-3.015833 2.3916667-3.015833 3.1208333v.9625h-1.458333c-.161 0-.291667.1306667-.291667.2916667v2.3333333c0 .161.130667.2916667.291667.2916667h1.458333v6.7083333c0 .161.130667.2916667.291667.2916667h2.916666c.161 0 .291667-.1306667.291667-.2916667v-6.7083333h1.954167c.1505.0005833.2765-.1131667.291666-.2625l.245-2.3333333c.007-.0810834-.020416-.1615834-.075833-.2216667z" fill="#606060" fill-rule="evenodd" transform="translate(-108 -41)"/></svg>