<svg fill="none" viewBox="0 0 102 23" xmlns="http://www.w3.org/2000/svg"><path clip-rule="evenodd" d="m94.1307 1.21365c.2121-.20201.5578-.20201.7715 0l1.2533 1.19908c.1691.16235.4529.14938.6213-.01223l.1588-.15086c.1684-.16272.1684-.42663 0-.58676l-.077-.07375-1.1759-1.120507c-.6474-.620111-1.6951-.626412-2.3416-.009266l-.2069.196449c-.6496.620484-.6428 1.620154.0072 2.237294l1.2606 1.19834c.167.16383.4387.15642.6087-.00445l.1574-.15308c.1704-.16123.178-.42477.008-.58749l-1.256-1.19723c-.2113-.20164-.2076-.53634.0038-.73909zm6.4923.20868c.211.20127.211.52893 0 .73168l-1.2586 1.1987c-.1684.16051-.1559.42997.0125.5901l.1607.15382c.1703.16013.4436.16013.6134 0l.078-.07376 1.178-1.12088c.647-.61714.655-1.61681.005-2.236917l-.206-.196449c-.648-.617517-1.6954-.610476-2.3439.007043l-1.2577 1.203903c-.1684.15975-.1617.41662.0067.5797l.1588.15123c.1684.16124.4465.17013.6168.00705l1.2567-1.19649c.2108-.20312.5616-.1983.7726.00186zm-6.7045 5.26409c-.2136.20201-.2136.53227 0 .73316l.2065.19831c.211.2009.5612.20572.7715.00444l1.2567-1.19908c.1704-.1616.4475-.15382.6179.0063l.1578.15383c.1713.16087.1751.41995.0067.58045l-1.2586 1.20056c-.6485.62049-1.6954.62641-2.3451.00779l-.2068-.19682c-.6466-.61752-.6405-1.61719.0091-2.23433l1.1748-1.12162.0775-.07413c.1688-.16161.4469-.16161.6154 0l.159.15308c.1685.16013.1833.42885.0141.59121zm6.4875.92591c-.211.202-.5576.202-.7693 0l-1.2577-1.19909c-.1703-.16272-.4513-.149-.6207.01113l-.1578.15233c-.1703.16236-.1703.42589 0 .58676l.0761.07302 1.1768 1.12124c.6466.61974 1.6956.62678 2.3456.0063l.204-.19385c.648-.61938.642-1.61904-.008-2.23655l-1.259-1.20168c-.1693-.16087-.4387-.1542-.609.00704l-.1588.15086c-.1703.16346-.179.42663-.0086.5886l1.2564 1.19834c.213.20201.21.53413-.004.7391zm-86.7616 7.28037c0-1.5416-.614-2.9479-1.6173-4.0113.9775-1.05782 1.5721-2.44336 1.5721-3.95935v-1.00745h-.014c-.0421-.23315-.2547-.41292-.5138-.41292h-3.12563c-.25769 0-.46979.17977-.51267.41292l-.06603 1.00745c0 1.07973-.9221 1.96078-2.05935 1.96078v.01187h-1.05794c-.72895 0-1.42793.1212-2.07985.33915v-8.736797c0-.272064-.23299-.497053-.52214-.497053h-3.127165c-.288013 0-.520625.224619-.520625.497053v18.509647c0 .2735.232612.4981.520625.4981h3.127165c.28915 0 .52214-.2243.52214-.4981v-4.114h.02201c0-1.0831.9221-1.963 2.05822-1.963h1.10424c1.13345 0 2.05821.8799 2.05821 1.963v1.0037h.01253v3.1103c0 .2735.23416.4981.52063.4981h3.12563c.2907 0 .5217-.2243.5217-.4981l.0513-3.1103zm15.1023-5.998c.2865 0 .5236.22498.5236.49779l.0016 7.44911c0 3.3081-2.783 5.9983-6.2536 5.9983h-1.1049c-3.4665 0-6.2457-2.6902-6.2457-5.9983l.008-7.44911c0-.27318.2325-.49779.5209-.49779h3.1269c.2849 0 .5221.22498.5221.49779l.0091 7.44911c0 1.083.9255 1.9637 2.0583 1.9637h1.1049c1.137 0 2.0826-.8807 2.0826-1.9637v-7.44911c0-.27318.2325-.49779.5206-.49779zm2.638 10.2201c0 .2725.2353.4978.5207.4978h3.1282c.2866 0 .5237-.2249.5237-.4978l-.0026-7.4517c0-1.0804.9437-1.96115 2.0798-1.96115h1.1031c1.1373 0 2.0594.88075 2.0594 1.96115l.0125 7.4517c0 .2725.2345.4978.5206.4978h3.1283c.2865 0 .5222-.2249.5222-.4978l.0072-7.4517c0-3.30586-2.7818-5.99832-6.2502-5.99832h-1.1031c-3.4683 0-6.2528 2.69246-6.2528 5.99832zm28.7987-10.2201c.288 0 .5229.22498.5229.49779l.0023 7.44911c0 3.3081-2.7849 5.9983-6.2517 5.9983h-1.1054c-3.4701 0-6.2479-2.6902-6.2479-5.9983l.0058-7.44911c0-.27318.2355-.49779.5202-.49779h3.1313c.2854 0 .518.22498.518.49779l.0136 7.44911c0 1.083.9214 1.9637 2.059 1.9637h1.1054c1.1335 0 2.0776-.8807 2.0776-1.9637v-7.44911c0-.27318.2352-.49779.5209-.49779zm31.9589.49779c0-.27281-.2338-.49779-.5203-.49779h-3.1286c-.285 0-.5222.22461-.5222.49779v7.44911c0 1.083-.943 1.9637-2.0776 1.9637h-1.1061c-1.1358 0-2.0578-.8807-2.0578-1.9637l-.0126-7.44911c0-.27281-.2337-.49779-.5217-.49779h-3.1272c-.2849 0-.5221.22461-.5221.49779l-.0073 7.44911c0 3.3081 2.7796 5.9983 6.2487 5.9983h1.1061c3.4669 0 6.2521-2.6902 6.2521-5.9983zm-28.7972 10.11411c-.2861 0-.521-.2223-.521-.497l-.0023-7.4502c0-3.30743 2.7841-5.99767 6.251-5.99767h1.1061c3.4702 0 6.2486 2.69024 6.2486 5.99767l-.0064 7.4502c0 .2747-.2364.497-.5225.497h-3.126c-.2885 0-.5219-.2223-.5219-.497l-.0132-7.4502c0-1.082-.9213-1.96305-2.0586-1.96305h-1.1061c-1.1331 0-2.0777.88105-2.0777 1.96305v7.4502c0 .2747-.2355.497-.5217.497z" fill="#000" fill-rule="evenodd"/></svg>