<svg width="100%" height="100%" viewBox="0 0 41 41" fill="none" xmlns="http://www.w3.org/2000/svg">
<g clip-path="url(#clip0_647_181)">
<path d="M20.5097 1.04642C12.3126 1.04642 9.91526 1.05487 9.44926 1.09349C7.76708 1.23319 6.72033 1.49782 5.57995 2.06509C4.70111 2.50111 4.008 3.00653 3.32396 3.71501C2.07818 5.00707 1.32316 6.59664 1.04984 8.48614C0.916961 9.40343 0.878305 9.59051 0.870452 14.2759C0.867432 15.8378 0.870452 17.8932 0.870452 20.6502C0.870452 28.8334 0.879513 31.2262 0.918773 31.6909C1.05468 33.3263 1.31138 34.3553 1.85499 35.4808C2.8939 37.6352 4.87808 39.2525 7.21562 39.856C8.025 40.0642 8.91894 40.1789 10.0666 40.2332C10.5528 40.2543 15.5087 40.2694 20.4677 40.2694C25.4266 40.2694 30.3856 40.2634 30.8597 40.2392C32.1886 40.1768 32.9602 40.0733 33.8134 39.853C36.166 39.2465 38.1139 37.6533 39.174 35.4687C39.707 34.3704 39.9773 33.3022 40.0996 31.7522C40.1262 31.4142 40.1374 26.026 40.1374 20.6451C40.1374 15.2632 40.1253 9.88501 40.0987 9.54706C39.9749 7.97197 39.7046 6.91286 39.1544 5.7934C38.7029 4.87702 38.2015 4.19267 37.4737 3.49293C36.1748 2.25338 34.5862 1.49903 32.6932 1.22625C31.776 1.09379 31.5933 1.05456 26.9001 1.04642H20.5097Z" fill="url(#paint0_radial_647_181)"/>
<path d="M20.5097 1.04642C12.3126 1.04642 9.91526 1.05487 9.44926 1.09349C7.76708 1.23319 6.72033 1.49782 5.57995 2.06509C4.70111 2.50111 4.008 3.00653 3.32396 3.71501C2.07818 5.00707 1.32316 6.59664 1.04984 8.48614C0.916961 9.40343 0.878305 9.59051 0.870452 14.2759C0.867432 15.8378 0.870452 17.8932 0.870452 20.6502C0.870452 28.8334 0.879513 31.2262 0.918773 31.6909C1.05468 33.3263 1.31138 34.3553 1.85499 35.4808C2.8939 37.6352 4.87808 39.2525 7.21562 39.856C8.025 40.0642 8.91894 40.1789 10.0666 40.2332C10.5528 40.2543 15.5087 40.2694 20.4677 40.2694C25.4266 40.2694 30.3856 40.2634 30.8597 40.2392C32.1886 40.1768 32.9602 40.0733 33.8134 39.853C36.166 39.2465 38.1139 37.6533 39.174 35.4687C39.707 34.3704 39.9773 33.3022 40.0996 31.7522C40.1262 31.4142 40.1374 26.026 40.1374 20.6451C40.1374 15.2632 40.1253 9.88501 40.0987 9.54706C39.9749 7.97197 39.7046 6.91286 39.1544 5.7934C38.7029 4.87702 38.2015 4.19267 37.4737 3.49293C36.1748 2.25338 34.5862 1.49903 32.6932 1.22625C31.776 1.09379 31.5933 1.05456 26.9001 1.04642H20.5097Z" fill="url(#paint1_radial_647_181)"/>
<path d="M20.5006 6.17603C16.5636 6.17603 16.0695 6.19322 14.5233 6.26353C12.98 6.33414 11.9266 6.57825 11.0049 6.93641C10.0515 7.30635 9.24268 7.8012 8.43693 8.60655C7.63057 9.41159 7.13528 10.2197 6.76381 11.1719C6.40442 12.0932 6.15979 13.1459 6.09033 14.6872C6.02117 16.2321 6.00305 16.7261 6.00305 20.6596C6.00305 24.5931 6.02057 25.0852 6.09063 26.6301C6.16161 28.172 6.40593 29.2245 6.76411 30.1454C7.13467 31.098 7.62996 31.9061 8.43602 32.7111C9.24147 33.5168 10.0502 34.0128 11.0031 34.3828C11.9254 34.7409 12.9791 34.985 14.5221 35.0556C16.0683 35.1259 16.5621 35.1431 20.4988 35.1431C24.436 35.1431 24.9286 35.1259 26.4749 35.0556C28.0181 34.985 29.0728 34.7409 29.9951 34.3828C30.9482 34.0128 31.7558 33.5168 32.5612 32.7111C33.3676 31.9061 33.8629 31.098 34.2344 30.1457C34.5907 29.2245 34.8353 28.1717 34.9078 26.6304C34.9773 25.0855 34.9954 24.5931 34.9954 20.6596C34.9954 16.7261 34.9773 16.2324 34.9078 14.6875C34.8353 13.1456 34.5907 12.0932 34.2344 11.1722C33.8629 10.2197 33.3676 9.41159 32.5612 8.60655C31.7549 7.8009 30.9485 7.30604 29.9942 6.93641C29.07 6.57825 28.016 6.33414 26.4728 6.26353C24.9265 6.19322 24.4342 6.17603 20.4961 6.17603H20.5006ZM19.2001 8.78608C19.5861 8.78548 20.0168 8.78608 20.5006 8.78608C24.3711 8.78608 24.8299 8.79996 26.3583 8.86936C27.7717 8.93394 28.5388 9.1699 29.0498 9.36814C29.7263 9.63066 30.2086 9.94447 30.7157 10.4514C31.223 10.9583 31.5371 11.4411 31.8005 12.117C31.9989 12.6269 32.2354 13.3934 32.2997 14.8055C32.3692 16.3323 32.3843 16.791 32.3843 20.6563C32.3843 24.5216 32.3692 24.9802 32.2997 26.507C32.2351 27.9192 31.9989 28.6856 31.8005 29.1955C31.5377 29.8714 31.223 30.3527 30.7157 30.8593C30.2083 31.3663 29.7266 31.6801 29.0498 31.9426C28.5394 32.1417 27.7717 32.3771 26.3583 32.4417C24.8302 32.5111 24.3711 32.5261 20.5006 32.5261C16.6298 32.5261 16.171 32.5111 14.6429 32.4417C13.2295 32.3765 12.4624 32.1405 11.9511 31.9423C11.2746 31.6798 10.7914 31.366 10.284 30.859C9.77663 30.3521 9.46254 29.8705 9.19919 29.1943C9.00077 28.6844 8.7643 27.918 8.69997 26.5058C8.63051 24.979 8.61662 24.5204 8.61662 20.6526C8.61662 16.7849 8.63051 16.3287 8.69997 14.8019C8.7646 13.3897 9.00077 12.6233 9.19919 12.1128C9.46194 11.4369 9.77663 10.9541 10.284 10.4472C10.7914 9.94024 11.2746 9.62643 11.9511 9.36331C12.4621 9.16416 13.2295 8.92881 14.6429 8.86393C15.9802 8.80358 16.4984 8.78548 19.2001 8.78246V8.78608ZM28.2386 11.191C27.2782 11.191 26.4991 11.9685 26.4991 12.9284C26.4991 13.8879 27.2782 14.6664 28.2386 14.6664C29.199 14.6664 29.9782 13.8879 29.9782 12.9284C29.9782 11.9688 29.199 11.1904 28.2386 11.1904V11.191ZM20.5006 13.2217C16.3894 13.2217 13.0561 16.552 13.0561 20.6596C13.0561 24.7672 16.3894 28.096 20.5006 28.096C24.6118 28.096 27.9439 24.7672 27.9439 20.6596C27.9439 16.552 24.6115 13.2217 20.5003 13.2217H20.5006ZM20.5006 15.8317C23.1691 15.8317 25.3327 17.9931 25.3327 20.6596C25.3327 23.3258 23.1691 25.4874 20.5006 25.4874C17.8318 25.4874 15.6685 23.3258 15.6685 20.6596C15.6685 17.9931 17.8318 15.8317 20.5006 15.8317V15.8317Z" fill="white"/>
</g>
<defs>
<radialGradient id="paint0_radial_647_181" cx="0" cy="0" r="1" gradientUnits="userSpaceOnUse" gradientTransform="translate(11.2998 43.2904) rotate(-90) scale(38.8729 36.1966)">
<stop stop-color="#FFDD55"/>
<stop offset="0.1" stop-color="#FFDD55"/>
<stop offset="0.5" stop-color="#FF543E"/>
<stop offset="1" stop-color="#C837AB"/>
</radialGradient>
<radialGradient id="paint1_radial_647_181" cx="0" cy="0" r="1" gradientUnits="userSpaceOnUse" gradientTransform="translate(-5.70854 3.87198) rotate(78.6679) scale(17.3771 71.7055)">
<stop stop-color="#3771C8"/>
<stop offset="0.128" stop-color="#3771C8"/>
<stop offset="1" stop-color="#6600FF" stop-opacity="0"/>
</radialGradient>
<clipPath id="clip0_647_181">
<rect width="39.8661" height="39.8298" fill="white" transform="translate(0.56694 0.74469)"/>
</clipPath>
</defs>
</svg>
