<svg width="100%" height="100%" viewBox="0 0 40 40" fill="none" xmlns="http://www.w3.org/2000/svg">
  <circle cx="20" cy="20" r="20" fill="#D9F4EE" />
  <path
    d="M12.1998 20.1543L18.7807 26.8495C19.4781 27.5345 20.5834 27.5114 21.253 26.7978C21.9397 26.1029 21.96 24.9719 21.2987 24.2515L18.6974 21.688C18.6481 21.6392 18.6326 21.5646 18.6581 21.4993C18.6837 21.4341 18.7452 21.3913 18.8136 21.3912H26.6243C27.0288 21.3485 27.4002 21.1425 27.6567 20.8184C27.9132 20.4944 28.0337 20.0789 27.9918 19.6635C27.9918 19.101 27.6908 17.931 26.6478 17.931H18.7995C18.7315 17.9312 18.6701 17.8891 18.644 17.8246C18.618 17.76 18.6324 17.6857 18.6806 17.6363L21.1878 15.0597C21.8199 14.3331 21.7894 13.2259 21.1183 12.5373C20.4471 11.8487 19.3691 11.8185 18.6624 12.4685L12.1944 19.1776C12.0689 19.3078 11.999 19.4839 12 19.6671C12.001 19.8503 12.0729 20.0255 12.1998 20.1543Z"
    fill="#01B78B" />
</svg>
  