
<svg width="12px" height="12px" viewBox="0 0 12 12" version="1.1" xmlns="http://www.w3.org/2000/svg" xmlns:xlink="http://www.w3.org/1999/xlink">
    <g id="Responsive" stroke="none" stroke-width="1" fill="none" fill-rule="evenodd">
        <g id="DL/Blog/Index" transform="translate(-830.000000, -407.000000)" fill="#606060">
            <g id="Featured" transform="translate(250.000000, 113.000000)">
                <g id="blog/featured/large" transform="translate(0.000000, 42.000000)">
                    <g id="Time" transform="translate(580.000000, 250.000000)">
                        <g id="Group" transform="translate(0.000000, 2.000000)">
                            <path d="M6,12 C2.6862915,12 0,9.3137085 0,6 C0,2.6862915 2.6862915,0 6,0 C9.3137085,0 12,2.6862915 12,6 C11.9960327,9.31206378 9.31206378,11.9960327 6,12 Z M6,1.8 C3.68040405,1.8 1.8,3.68040405 1.8,6 C1.8,8.31959595 3.68040405,10.2 6,10.2 C8.31959595,10.2 10.2,8.31959595 10.2,6 C10.2,4.88609074 9.75750127,3.81780431 8.96984848,3.03015152 C8.18219569,2.24249873 7.11390926,1.8 6,1.8 Z" id="Shape"></path>
                            <path d="M7.5679173,8.25 C7.43319548,8.25013455 7.30146739,8.20628345 7.18941511,8.1239997 L5.55323851,6.92399977 C5.36356986,6.78497092 5.24974048,6.55073406 5.25,6.29999981 L5.25,4.49999993 C5.25,4.0857864 5.55522596,3.75 5.9317407,3.75 C6.30825543,3.75 6.61348094,4.0857864 6.61348095,4.49999993 L6.61348095,5.89919984 L7.94641949,6.87599978 C8.19640445,7.05937898 8.30778733,7.40118381 8.22064397,7.71752274 C8.1335006,8.03386167 7.86837994,8.25014001 7.5679173,8.25 L7.5679173,8.25 Z" id="Path"></path>
                        </g>
                    </g>
                </g>
            </g>
        </g>
    </g>
</svg>