<svg xmlns="http://www.w3.org/2000/svg"><defs><font horiz-adv-x="786"><font-face ascent="1618" descent="-430" units-per-em="2048"/><missing-glyph horiz-adv-x="530"/><glyph d="M596 895h-201l-198-895h-107l199 895h-164l20 94h164l19 90q68 307 307 307 92 0 156-43l-46-77q-38 28-108 28-82 0-129.5-54t-71.5-161l-20-90h200zM958 989h201l-20-94h-201l-199-895h-106l198 895h-163l20 94h164l18 90q68 307 308 307 91 0 155-43l-45-77q-38 28-108 28-82 0-129.5-54t-71.5-161zM1456 1157q-32 0-54 21t-22 51q0 40 29.5 66t63.5 26q32 0 53.5-21t21.5-51q0-40-29-66t-63-26zM807-377l31 88q38-18 88-18 141 0 184 180l248 1116h106l-247-1116q-31-139-99.5-206.5t-185.5-67.5q-72 0-125 24z" horiz-adv-x="1521" unicode="&#x66;&#x66;&#x6a;"/><glyph d="M596 895h-201l-198-895h-107l199 895h-164l20 94h164l19 90q68 307 307 307 92 0 156-43l-46-77q-38 28-108 28-82 0-129.5-54t-71.5-161l-20-90h200zM915 1157q-32 0-53.5 21t-21.5 51q0 40 29 66t63 26q32 0 54-21t22-51q0-40-29.5-66t-63.5-26zM266-377l31 88q37-18 88-18 141 0 184 180l248 1116h107l-248-1116q-31-139-99.5-206.5t-185.5-67.5q-73 0-125 24z" horiz-adv-x="978" unicode="&#x66;&#x6a;"/><glyph d="M197 0h-107l199 895h-164l20 94h164l19 90q68 307 307 307 92 0 156-43l-46-77q-38 28-108 28-82 0-129.5-54t-71.5-161l-20-90h200l-20-94h-201zM739 0h-106l198 895h-163l20 94h164l18 90q68 307 308 307 91 0 155-43l-45-77q-38 28-108 28-82 0-129.5-54t-71.5-161l-21-90h201l-20-94h-201z" horiz-adv-x="1083" unicode="&#xfb00;"/><glyph d="M395 895l-198-895h-107l199 895h-164l20 94h164l19 90q68 307 307 307 92 0 156-43l-46-77q-38 28-108 28-82 0-129.5-54t-71.5-161l-20-90h200l-20-94h-201zM840 1229q0 40 29 66t63 26q32 0 54-21t22-51q0-40-29.5-66t-63.5-26q-32 0-53.5 21t-21.5 51zM705 0h-107l219 989h107z" horiz-adv-x="978" unicode="&#xfb01;"/><glyph d="M596 895h-201l-198-895h-107l199 895h-164l20 94h164l19 90q68 307 307 307 92 0 156-43l-46-77q-38 28-108 28-82 0-129.5-54t-71.5-161l-20-90h200zM705 0h-107l301 1366h107z" horiz-adv-x="978" unicode="&#xfb02;"/><glyph d="M395 895l-198-895h-107l199 895h-164l20 94h164l19 90q68 307 307 307 92 0 156-43l-46-77q-38 28-108 28-82 0-129.5-54t-71.5-161l-20-90h200l-20-94h-201zM1159 989l-20-94h-201l-199-895h-106l198 895h-163l20 94h164l18 90q68 307 308 307 91 0 155-43l-45-77q-38 28-108 28-82 0-129.5-54t-71.5-161l-21-90h201zM1380 1229q0 40 29.5 66t63.5 26q32 0 53.5-21t21.5-51q0-40-29-66t-63-26q-32 0-54 21t-22 51zM1245 0h-106l219 989h106z" horiz-adv-x="1521" unicode="&#xfb03;"/><glyph d="M596 895h-201l-198-895h-107l199 895h-164l20 94h164l19 90q68 307 307 307 92 0 156-43l-46-77q-38 28-108 28-82 0-129.5-54t-71.5-161l-20-90h200zM958 989h201l-20-94h-201l-199-895h-106l198 895h-163l20 94h164l18 90q68 307 308 307 91 0 155-43l-45-77q-38 28-108 28-82 0-129.5-54t-71.5-161zM1245 0h-106l301 1366h106z" horiz-adv-x="1521" unicode="&#xfb04;"/><glyph d="M197 0h-107l199 895h-164l20 94h164l19 90q68 307 307 307 92 0 156-43l-46-77q-38 28-108 28-82 0-129.5-54t-71.5-161l-20-90h200l-20-94h-201zM741 168l-36-168h-107l301 1366h107l-115-526q62 81 149.5 127.5t190.5 46.5q172 0 278.5-109.5t106.5-298.5q0-98-23.5-192t-69.5-173-108-139-144-93.5-173-33.5q-119 0-211.5 52.5t-145.5 140.5zM1499 588q0 151-81.5 240.5t-217.5 89.5q-99 0-189.5-54.5t-146.5-136.5l-104-475q39-78 125.5-129t201.5-51q120 0 216 75t146 192 50 249z" horiz-adv-x="1710" unicode="&#x66;&#x62;"/><glyph d="M197 0h-107l199 895h-164l20 94h164l19 90q68 307 307 307 92 0 156-43l-46-77q-38 28-108 28-82 0-129.5-54t-71.5-161l-20-90h200l-20-94h-201zM1372 0h-106l147 672q12 54 12 71 0 88-60 131.5t-161 43.5q-86 0-174.5-50.5t-161.5-124.5l-163-743h-107l301 1366h107l-115-526q178 174 356 174 131 0 210-62t79-180q0-38-12-84z" horiz-adv-x="1648" unicode="&#x66;&#x68;"/><glyph d="M596 895h-201l-198-895h-107l199 895h-164l20 94h164l19 90q68 307 307 307 92 0 156-43l-46-77q-38 28-108 28-82 0-129.5-54t-71.5-161l-20-90h200zM1427 0h-131l-297 477-229-180-65-297h-107l301 1366h107l-207-934 700 557h150l-562-446z" horiz-adv-x="1576" unicode="&#x66;&#x6b;"/><glyph horiz-adv-x="0"/><glyph horiz-adv-x="682"/><glyph horiz-adv-x="0"/><glyph horiz-adv-x="0"/><glyph horiz-adv-x="0" unicode="&#xd;"/><glyph horiz-adv-x="530" unicode="&#x20;"/><glyph horiz-adv-x="530" unicode="&#x09;"/><glyph horiz-adv-x="530" unicode="&#xa0;"/><glyph d="M233 356h-83l196 1010h137zM39 63q0 40 28.5 68.5t69.5 28.5q34 0 58-24.5t24-59.5q0-40-29-68t-69-28q-35 0-58.5 24t-23.5 59z" horiz-adv-x="448" unicode="&#x21;"/><glyph d="M301 874h-59l51 422q5 41 27.5 65.5t58.5 24.5q27 0 46-19t19-48q0-11-10-41zM569 874h-59l51 422q5 41 27.5 65.5t58.5 24.5q28 0 47-19t19-48q0-8-11-41z" horiz-adv-x="649" unicode="&#x22;"/><glyph d="M471 0h-98l213 381h-242l-211-381h-96l213 381h-227l43 84h229l244 436h-230l41 84h236l209 381h96l-209-381h240l208 381h99l-213-381h227l-41-84h-231l-246-436h238l-43-84h-238zM629 465l245 436h-239l-244-436h238z" horiz-adv-x="1185" unicode="&#x23;"/><glyph d="M823 1268l-114-516q62-27 104-47.5t93-54 81-68 51-83.5 21-106q0-192-153-312.5t-369-103.5l-41-182h-95l43 191q-132 23-235.5 84.5t-155.5 144.5l86 84q118-164 328-205l127 568q-46 20-74 32.5t-69 34.5-66 40-54 45-45 54.5-27 63.5-11 76q0 116 73 207.5t189.5 136 245.5 34.5l41 187h94l-43-199q109-20 195.5-72t136.5-126l-88-82q-88 132-269 174zM623 788l108 492q-86 8-168.5-23.5t-135-95.5-52.5-141q0-41 18.5-75.5t57-63 76.5-48.5 96-45zM680 627l-119-545q80-2 145 16t106 49 68.5 71.5 38.5 80.5 11 80q0 45-19 82.5t-57 67.5-77 51-97 47z" horiz-adv-x="1196" unicode="&#x24;"/><glyph d="M184 989q0 173 106.5 285t252.5 112q125 0 210-76t85-196q0-173-106.5-285t-252.5-112q-125 0-210 75.5t-85 196.5zM244 0h-92l1173 1366h94zM743 1104q0 88-57.5 145.5t-146.5 57.5q-105 0-182.5-89.5t-77.5-220.5q0-88 57.5-145t146.5-57q104 0 182 90t78 219zM715 250q0 173 106.5 285t251.5 112q127 0 212-76.5t85-197.5q0-173-106.5-285.5t-251.5-112.5q-126 0-211.5 77t-85.5 198zM1274 365q0 87-58 144.5t-145 57.5q-105 0-182.5-89.5t-77.5-219.5q0-88 57.5-145.5t145.5-57.5q105 0 182.5 89.5t77.5 220.5z" horiz-adv-x="1474" unicode="&#x25;"/><glyph d="M1085 614l89-51q-138-221-261-350 48-69 164-213h-147q-41 49-101 133-191-158-389-158-173 0-285 88.5t-112 245.5q0 77 23.5 142.5t59 111.5 92.5 87.5 108.5 68.5 122.5 57q-52 132-52 244 0 149 108.5 257.5t252.5 108.5q123 0 201.5-60.5t78.5-170.5q0-49-13.5-92t-33.5-76-55.5-64.5-67-53-82.5-46-86.5-40-92.5-38.5l-15-6q35-75 119-215 81-137 143-229 74 78 135 165t96 154zM512 1022q0-91 45-203 42 17 65 26.5t60 26 58.5 28 51 29.5 46.5 33.5 36.5 37 29.5 42.5 17 47.5 7 55.5q0 72-48.5 111.5t-119.5 39.5q-43 0-86-18.5t-79.5-51.5-59.5-86.5-23-117.5zM451 70q155 0 321 145-86 119-158 240-79 133-129 239-73-32-124.5-63t-99-75-71.5-102-24-130q0-121 82.5-187.5t202.5-66.5z" horiz-adv-x="1308" unicode="&#x26;"/><glyph d="M301 874h-59l51 422q5 41 27.5 65.5t58.5 24.5q27 0 46-19t19-48q0-11-10-41z" horiz-adv-x="382" unicode="&#x27;"/><glyph d="M240-367l-74-41q-115 269-115 580 0 317 131.5 631.5t382.5 599.5l53-53q-221-298-336.5-599t-115.5-628q0-212 74-490z" horiz-adv-x="464" unicode="&#x28;"/><glyph d="M223 1362l72 41q117-267 117-580 0-317-131.5-631.5t-382.5-599.5l-54 54q221 297 337 597.5t116 628.5q0 212-74 490z" horiz-adv-x="464" unicode="&#x29;"/><glyph d="M451 817h-80l67 244-229-107-23 70 236 84-186 129 51 61 172-149 41 237h78l-66-241 229 104 23-69-236-84 187-129-53-62-170 150z" horiz-adv-x="686" unicode="&#x2a;"/><glyph d="M989 647h-403l-99-444h-90l99 444h-404l19 86h403l94 432h92l-94-432h404z" horiz-adv-x="1015" unicode="&#x2b;"/><glyph d="M12-240l-49 56q57 29 102 77t58 95h-14q-28 0-49 21.5t-21 51.5q0 41 28.5 70t67.5 29q38 0 63-26.5t25-72.5q0-85-63-170.5t-148-130.5z" horiz-adv-x="448" unicode="&#x2c;"/><glyph d="M541 446h-492l21 99h491z" horiz-adv-x="614" unicode="&#x2d;"/><glyph d="M39 63q0 40 28.5 68.5t69.5 28.5q34 0 58-24.5t24-59.5q0-40-29-68t-69-28q-35 0-58.5 24t-23.5 59z" horiz-adv-x="448" unicode="&#x2e;"/><glyph d="M-27-41h-94l805 1448h96z" horiz-adv-x="577" unicode="&#x2f;"/><glyph d="M133 500q0 120 27 244.5t81.5 239 128.5 204.5 176.5 144 217.5 54q208 0 317-140t109-382q0-120-26.5-244.5t-80.5-240-127.5-206-175.5-144.5-217-54q-208 0-319 141.5t-111 383.5zM1069 872q0 89-17.5 161.5t-54.5 128.5-99 87-146 31q-89 0-169-49t-138.5-130-102-183.5-65-212.5-21.5-213q0-89 17.5-162t54.5-129.5 99.5-87.5 145.5-31q110 0 206 75t158 192 97 255 35 268z" horiz-adv-x="1245" unicode="&#x30;"/><glyph d="M350 0h-117l265 1206-269-233-55 76 371 317h106z" horiz-adv-x="630" unicode="&#x31;"/><glyph d="M905 0h-901l29 123q136 86 225 144.5t201 136.5 184 135.5 147.5 128 118 128.5 70 122 27.5 124q0 111-86.5 174.5t-227.5 63.5q-217 0-354-137l-64 82q73 73 186 117t236 44q86 0 163-20.5t139-61 98.5-107 36.5-150.5q0-54-16.5-109.5t-45-107-74-107-93.5-104.5-115.5-105-129-103-143.5-103-150-100.5-157-101.5h719z" horiz-adv-x="1191" unicode="&#x32;"/><glyph d="M2 260l94 62q45-109 154-174.5t242-65.5q164 0 262 92t98 236q0 108-89.5 173.5t-236.5 65.5q-93 0-116-2l26 111q31-2 182-2 95 0 173.5 29.5t130 94.5 51.5 156q0 104-91.5 174t-240.5 70q-194 0-350-143l-58 82q77 77 188 122t226 45q197 0 321-89.5t124-249.5q0-78-33-144.5t-87.5-110-119-69.5-131.5-31q106-25 177-101t71-188q0-178-133.5-303t-343.5-125q-167 0-305 80t-185 205z" horiz-adv-x="1114" unicode="&#x33;"/><glyph d="M725 0h-117l82 373h-647l27 112 790 881h166l-197-887h201l-22-106h-201zM713 479l170 770-697-770h527z" horiz-adv-x="1107" unicode="&#x34;"/><glyph d="M86 252l94 67q104-237 385-237 155 0 266 108t111 265q0 137-92 213.5t-238 76.5q-159 0-299-104l-77 47 149 678h789l-23-106h-672l-112-506q51 40 128 67t164 27q109 0 199.5-42t148.5-131 58-210q0-131-64-242.5t-182-179.5-264-68q-340 0-469 277z" horiz-adv-x="1191" unicode="&#x35;"/><glyph d="M125 467q0 79 11.5 164t37 175 62.5 173.5 90.5 157.5 118 129.5 149 87.5 178.5 32q138 0 239-55.5t154-156.5l-88-76q-39 87-119 134.5t-192 47.5q-85 0-159-35.5t-127-92.5-96.5-136-70.5-157.5-47-166.5q-1-3-10-39 65 73 178.5 132t231.5 59q182 0 294.5-95.5t112.5-259.5q0-135-65.5-253t-183.5-189.5-261-71.5q-211 0-324.5 128t-113.5 364zM950 473q0 124-87.5 196t-233.5 72q-212 0-387-196-4-36-4-109 0-160 85.5-257t243.5-97q162 0 272.5 117.5t110.5 273.5z" horiz-adv-x="1196" unicode="&#x36;"/><glyph d="M272 0h-135l848 1260h-749l22 106h895l-18-82z" horiz-adv-x="1028" unicode="&#x37;"/><glyph d="M76 317q0 156 117.5 261.5t310.5 140.5q-104 39-177 114t-73 179q0 74 27.5 137t73 106 105.5 73 124.5 44 130.5 14q117 0 216-38t161.5-114 62.5-177q0-149-110.5-244t-290.5-121q47-20 90-47t85.5-67 67.5-95 25-118q0-110-64.5-200t-173.5-140-239-50q-207 0-338 90t-131 252zM1030 1044q0 99-93 166.5t-226 67.5q-139 0-238.5-73.5t-99.5-198.5q0-61 44.5-116t103.5-88 120-48q175 14 282 88.5t107 201.5zM903 373q0 53-27.5 102t-71.5 83.5-91.5 58.5-94.5 36q-182-12-300.5-99t-118.5-218q0-120 100-187t248-67q89 0 169 33.5t133.5 101.5 53.5 156z" horiz-adv-x="1169" unicode="&#x38;"/><glyph d="M1149 897q0-79-11.5-164.5t-37-175.5-62-173.5-90-158-118-129.5-149-87-179.5-32q-138 0-238.5 56t-152.5 157l86 76q39-87 119.5-134.5t193.5-47.5q85 0 158.5 35.5t126 92.5 96.5 136 71.5 157.5 47.5 166.5q8 36 8 37-65-72-178.5-130.5t-231.5-58.5q-183 0-295 95t-112 259q0 135 66 253t184 190 260 72q211 0 324.5-128t113.5-364zM324 891q0-124 87.5-196t233.5-72q216 0 387 196 4 36 4 109 0 160-85.5 257t-243.5 97q-162 0-272.5-117.5t-110.5-273.5z" horiz-adv-x="1196" unicode="&#x39;"/><glyph d="M225 907q0 40 29.5 68.5t69.5 28.5q35 0 58.5-24t23.5-58q0-41-29.5-69t-69.5-28q-35 0-58.5 23.5t-23.5 58.5zM39 63q0 40 28.5 68.5t69.5 28.5q34 0 58-24.5t24-59.5q0-40-29-68t-69-28q-35 0-58.5 24t-23.5 59z" horiz-adv-x="448" unicode="&#x3a;"/><glyph d="M225 907q0 40 29.5 68.5t69.5 28.5q35 0 58.5-24t23.5-58q0-41-29.5-69t-69.5-28q-35 0-58.5 23.5t-23.5 58.5zM12-240l-49 56q57 29 102 77t58 95h-14q-28 0-49 21.5t-21 51.5q0 41 28.5 70t67.5 29q38 0 63-26.5t25-72.5q0-85-63-170.5t-148-130.5z" horiz-adv-x="448" unicode="&#x3b;"/><glyph d="M885 184l-795 463 19 76 999 465-25-107-878-403 700-397z" horiz-adv-x="1015" unicode="&#x3c;"/><glyph d="M1032 842h-897l19 86h897zM944 442h-899l21 84h897z" horiz-adv-x="1015" unicode="&#x3d;"/><glyph d="M989 647l-1001-463 24 107 881 397-703 404 21 96 795-465z" horiz-adv-x="1015" unicode="&#x3e;"/><glyph d="M500 412l-92-52q-54 69-54 148 0 31 8.5 59t19.5 49 34.5 44 40.5 37 50 34 51 30 56 30q44 22 66 34t59 34.5 56.5 41.5 41.5 46 31 58.5 9 67.5q0 94-75.5 150.5t-207.5 56.5q-200 0-344-147l-57 79q177 174 409 174 180 0 292-83t112-216q0-57-20.5-107.5t-43-81.5-75.5-69-78.5-52.5-91.5-48.5q-6-3-9-5-46-23-71.5-37t-59.5-37-52-42.5-31-47-13-57.5q0-51 39-90zM270 63q0 40 29.5 68.5t69.5 28.5q35 0 58.5-24.5t23.5-59.5q0-40-29-68t-70-28q-34 0-58 24t-24 59z" horiz-adv-x="950" unicode="&#x3f;"/><glyph d="M113 500q0 163 67.5 313t179 257.5 260.5 172 306 64.5q188 0 336.5-88.5t228.5-238.5 80-333q0-220-98.5-346.5t-233.5-126.5q-81 0-129.5 51.5t-50.5 122.5l-2 12q-58-80-148-133t-188-53q-141 0-227 89.5t-86 238.5q0 107 42 204.5t110.5 166 157 109 179.5 40.5q97 0 165.5-47.5t100.5-120.5l27 133h100l-121-577q-4-24-4-39 0-52 30-82.5t73-30.5q26 0 55.5 11t62.5 40 59 71 43 112 17 157q0 168-73 302.5t-207 212-305 77.5q-146 0-283.5-62t-237.5-163-160.5-236.5-60.5-277.5q0-163 76-296t212-209.5 304-76.5q203 0 383 117l35-51q-200-129-426-129-183 0-332 85t-233 232-84 326zM1077 465l66 303q-23 66-82.5 118t-151.5 52q-106 0-198-62t-144.5-161-52.5-207q0-110 60.5-180t166.5-70q105 0 191 60.5t145 146.5z" horiz-adv-x="1603" unicode="&#x40;"/><glyph d="M1184 0h-125l-64 336h-727l-209-336h-139l860 1366h146zM981 442l-147 807-504-807h651z" horiz-adv-x="1325" unicode="&#x41;"/><glyph d="M643 0h-584l301 1366h527q142 0 240-85.5t98-223.5q0-144-93.5-249t-224.5-120q86-22 142.5-103t56.5-179q0-79-28.5-151t-84-129.5-146-91.5-204.5-34zM1096 1044q0 92-68.5 154t-167.5 62h-405l-111-506h447q81 0 142.5 25.5t95.5 68.5 50.5 92.5 16.5 103.5zM985 412q0 103-67 169t-183 66h-416l-120-541h450q156 0 246 91t90 215z" horiz-adv-x="1257" unicode="&#x42;"/><glyph d="M137 567q0 181 64.5 337.5t171 261 242.5 164 280 59.5q180 0 319.5-76t217.5-217l-113-52q-68 122-180.5 180t-251.5 58q-117 0-228.5-50.5t-199.5-140.5-141.5-226-53.5-294q0-221 134-355t360-134q207 0 385 156l84-70q-101-97-224-145t-251-48q-178 0-317.5 73t-218.5 208.5-79 310.5z" horiz-adv-x="1376" unicode="&#x43;"/><glyph d="M360 1366h426q113 0 215-44t177-120 119-185 44-233q0-115-32.5-226.5t-102-212.5-167-177.5-238.5-122-307-45.5h-435zM199 106h315q158 0 292 54.5t223.5 147 139.5 214.5 50 258q0 207-130 343.5t-325 136.5h-309z" horiz-adv-x="1417" unicode="&#x44;"/><glyph d="M926 0h-867l301 1366h867l-23-106h-749l-111-506h733l-24-107h-734l-120-541h747z" horiz-adv-x="1155" unicode="&#x45;"/><glyph d="M176 0h-117l301 1366h867l-23-106h-749l-111-506h733l-24-107h-734z" horiz-adv-x="1110" unicode="&#x46;"/><glyph d="M137 567q0 175 61.5 329t165.5 261.5 244 169.5 293 62q178 0 313.5-75t212.5-206l-104-53q-61 111-177 169t-259 58q-120 0-233-53.5t-199.5-145.5-138.5-226-52-286q0-224 134.5-356.5t359.5-132.5q222 0 397 164l72 327h-516l22 105h635l-108-488q-221-215-508-215-277 0-446 165.5t-169 426.5z" horiz-adv-x="1456" unicode="&#x47;"/><glyph d="M1161 0h-119l144 649h-867l-143-649h-117l301 1366h117l-133-610h864l135 610h119z" horiz-adv-x="1439" unicode="&#x48;"/><glyph d="M176 0h-117l301 1366h117z" horiz-adv-x="456" unicode="&#x49;"/><glyph d="M-39 156l78 82q84-156 274-156 136 0 221 84t117 229l213 971h119l-213-971q-46-210-162-315t-289-105q-119 0-213.5 46.5t-144.5 134.5z" horiz-adv-x="962" unicode="&#x4a;"/><glyph d="M1040 0h-139l-426 651-192-174-107-477h-117l301 1366h117l-162-733 811 733h160l-725-651z" horiz-adv-x="1200" unicode="&#x4b;"/><glyph d="M838 0h-779l301 1366h117l-278-1260h661z" horiz-adv-x="1058" unicode="&#x4c;"/><glyph d="M1337 0h-118l270 1225-768-1225h-45l-230 1225-270-1225h-117l301 1366h168l211-1145 719 1145h180z" horiz-adv-x="1617" unicode="&#x4d;"/><glyph d="M1151 0h-115l-594 1204-266-1204h-117l301 1366h119l592-1186 264 1186h117z" horiz-adv-x="1431" unicode="&#x4e;"/><glyph d="M137 567q0 170 60 323t162 262 242 173 294 64q127 0 238-39.5t194.5-113 131.5-187 48-252.5q0-170-60-323t-161-262-240.5-173-293.5-64q-128 0-239.5 39.5t-195.5 113-132 187-48 252.5zM1380 793q0 116-39 210t-107 154.5-157.5 92.5-191.5 32q-123 0-236.5-53.5t-198.5-146-135.5-226-50.5-285.5q0-116 39-210t107-154.5 157-92.5 191-32q123 0 236.5 53.5t198.5 146 136 226.5 51 285z" horiz-adv-x="1564" unicode="&#x4f;"/><glyph d="M176 0h-117l301 1366h480q157 0 257.5-100.5t100.5-241.5q0-65-17.5-128.5t-57-123.5-96.5-105-143.5-72.5-191.5-27.5h-389zM326 674h381q174 0 270 99t96 243q0 99-72.5 171.5t-179.5 72.5h-366z" horiz-adv-x="1169" unicode="&#x50;"/><glyph d="M1507 797q0-206-84.5-381.5t-230.5-288.5l92-123-94-59-90 121q-166-91-348-91-128 0-239.5 39.5t-195.5 113-132 187-48 252.5q0 170 60 323t162 262 242 173 294 64q127 0 238-39.5t194.5-113 131.5-187 48-252.5zM758 82q144 0 276 74l-178 239 94 60 176-238q118 98 186 247.5t68 328.5q0 116-39 210t-107 154.5-157.5 92.5-191.5 32q-123 0-236.5-53.5t-198.5-146-135.5-226-50.5-285.5q0-116 39-210t107-154.5 157-92.5 191-32z" horiz-adv-x="1564" unicode="&#x51;"/><glyph d="M1001 0h-133l-258 565h-309l-125-565h-117l301 1366h469q70 0 136-23.5t118.5-66 84.5-109 32-145.5q0-192-128.5-319t-338.5-134zM326 672h381q172 0 269 99t97 245q0 104-78 174t-180 70h-360z" horiz-adv-x="1216" unicode="&#x52;"/><glyph d="M49 215l86 84q72-102 187.5-159.5t259.5-57.5q87 0 156 27.5t108.5 71.5 59.5 95 20 103q0 40-19 76t-38.5 58.5-71 51.5-76 40.5-92.5 40.5q-7 3-11 5-44 18-69 28.5t-65.5 29.5-64.5 34.5-55.5 37.5-50 45-36 51-25.5 61-8 70q0 157 134 269t327 112q155 0 281-58t190-155l-89-82q-62 92-167.5 140t-225.5 48q-133 0-228-79.5t-95-182.5q0-36 17.5-68.5t40.5-55 69-48 78-40 92-40.5q166-70 233-116 154-103 154-259 0-62-19.5-122t-60-113.5-97-94-136-64.5-171.5-24q-171 0-314 68t-208 172z" horiz-adv-x="1189" unicode="&#x53;"/><glyph d="M526 0h-118l278 1260h-446l22 106h1012l-23-106h-446z" horiz-adv-x="1155" unicode="&#x54;"/><glyph d="M664-25q-230 0-364 120.5t-134 324.5q0 68 12 117l182 829h119l-182-827q-12-58-12-107 0-159 101.5-254.5t281.5-95.5q100 0 176.5 30t130 89.5 88.5 138 59 186.5l185 840h118l-184-842q-30-133-73-229t-110-170.5-165-112-229-37.5z" horiz-adv-x="1404" unicode="&#x55;"/><glyph d="M625 0h-146l-258 1366h129l223-1235 770 1235h142z" horiz-adv-x="1325" unicode="&#x56;"/><glyph d="M1237 0h-131l-70 1174-585-1174h-132l-90 1366h129l62-1202 602 1202h106l70-1202 594 1202h135z" horiz-adv-x="1775" unicode="&#x57;"/><glyph d="M1171 0h-133l-348 618-604-618h-160l703 709-371 657h137l322-580 565 580h160l-662-672z" horiz-adv-x="1320" unicode="&#x58;"/><glyph d="M582 0h-119l129 584-371 782h131l314-672 608 672h151l-714-782z" horiz-adv-x="1265" unicode="&#x59;"/><glyph d="M977 0h-985l22 102 1069 1158h-811l21 106h971l-21-100-1071-1160h827z" horiz-adv-x="1189" unicode="&#x5a;"/><glyph d="M233-389h-354l393 1778h357l-21-89h-266l-354-1601h264z" horiz-adv-x="466" unicode="&#x5b;"/><glyph d="M365-41l-164 1448h92l164-1448h-92z" horiz-adv-x="577" unicode="&#x5c;"/><glyph d="M193-389h-355l21 88h262l356 1601h-266l20 89h357z" horiz-adv-x="466" unicode="&#x5d;"/><glyph d="M877 682h-93l-170 600-434-600h-102l508 684h86z" horiz-adv-x="876" unicode="&#x5e;"/><glyph d="M1012-170h-1166l21 88h1165z" horiz-adv-x="1155" unicode="&#x5f;"/><glyph d="M584 1139h-90l-287 295h127z" horiz-adv-x="442" unicode="&#x60;"/><glyph d="M969 821l35 168h108l-219-989h-109l35 150q-64-81-151-128t-189-47q-173 0-280 108.5t-107 297.5q0 125 38 240t104.5 202 165 139 212.5 52q118 0 211-52.5t146-140.5zM209 399q0-151 81.5-239t217.5-88q100 0 191 54.5t145 135.5l104 475q-39 78-125.5 129.5t-201.5 51.5q-90 0-168.5-44.5t-131-117-82.5-166-30-191.5z" horiz-adv-x="1169" unicode="&#x61;"/><glyph d="M199 168l-37-168h-107l301 1366h107l-115-526q62 81 149.5 127.5t190.5 46.5q172 0 278.5-109.5t106.5-298.5q0-98-23.5-192t-69.5-173-108-139-144-93.5-173-33.5q-119 0-211 52.5t-145 140.5zM956 588q0 151-81.5 240.5t-217.5 89.5q-99 0-189-54.5t-146-136.5l-105-475q39-78 126-129t202-51q91 0 169.5 44t130.5 116.5 81.5 165 29.5 190.5z" horiz-adv-x="1169" unicode="&#x62;"/><glyph d="M94 414q0 161 72 299t199 219.5 278 81.5q248 0 354-180l-82-62q-41 73-112 109.5t-156 36.5q-131 0-233.5-73t-154.5-187-52-246q0-163 94-251.5t244-88.5q81 0 150 34t118 93l61-74q-143-150-339-150t-318.5 116.5-122.5 322.5z" horiz-adv-x="1011" unicode="&#x63;"/><glyph d="M969 821l118 545h109l-303-1366h-109l35 150q-64-81-151-128t-189-47q-173 0-280 108.5t-107 297.5q0 125 38 240t104.5 202 165 139 212.5 52q118 0 211-52.5t146-140.5zM209 399q0-151 81.5-239t217.5-88q100 0 191 54.5t145 135.5l104 475q-39 78-125.5 129.5t-201.5 51.5q-90 0-168.5-44.5t-131-117-82.5-166-30-191.5z" horiz-adv-x="1169" unicode="&#x64;"/><glyph d="M94 412q0 122 43 233t116 192 175 129 215 48q193 0 306.5-121t113.5-307q0-58-16-125h-836q-4-24-4-58 0-144 94-239.5t268-95.5q78 0 157.5 27t141.5 79l41-78q-70-54-160.5-87.5t-183.5-33.5q-219 0-345 120t-126 317zM221 545h737q3 15 3 45 0 149-87 240.5t-243 91.5q-147 0-265-111t-145-266z" horiz-adv-x="1161" unicode="&#x65;"/><glyph d="M596 895h-201l-198-895h-107l199 895h-164l20 94h164l19 90q68 307 307 307 92 0 156-43l-46-77q-38 28-108 28-82 0-129.5-54t-71.5-161l-20-90h200z" horiz-adv-x="542" unicode="&#x66;"/><glyph d="M6-233l78 75q100-151 348-151 130 0 223 76t131 243l31 148q-63-80-153.5-127t-196.5-47q-165 0-270 105t-105 306q0 119 36.5 230.5t101 198 163 138.5 213.5 52q104 0 204-55t155-138l39 168h108l-219-979q-24-111-69-191.5t-106-128-131-69.5-153-22q-148 0-251.5 37.5t-176.5 130.5zM840 256l108 479q-44 83-137.5 133t-200.5 50q-120 0-214.5-76.5t-142.5-191-48-240.5q0-154 81.5-243t219.5-89q91 0 182 51.5t152 126.5z" horiz-adv-x="1167" unicode="&#x67;"/><glyph d="M829 0h-106l147 672q13 58 13 71 0 88-60 131.5t-161 43.5q-86 0-174.5-50.5t-161.5-124.5l-164-743h-107l301 1366h107l-115-526q76 75 168.5 124.5t188.5 49.5q131 0 209.5-62t78.5-180q0-38-12-84z" horiz-adv-x="1105" unicode="&#x68;"/><glyph d="M297 1229q0 40 29 66t63 26q32 0 54-21t22-51q0-40-29-66t-63-26q-32 0-54 21t-22 51zM162 0h-107l219 989h107z" horiz-adv-x="438" unicode="&#x69;"/><glyph d="M373 1157q-32 0-54 21t-22 51q0 40 29 66t63 26q32 0 54-21t22-51q0-40-29-66t-63-26zM-276-377l30 88q38-18 88-18 142 0 185 180l247 1116h107l-248-1116q-31-139-99.5-206.5t-185.5-67.5q-72 0-124 24z" horiz-adv-x="438" unicode="&#x6a;"/><glyph d="M885 0h-131l-297 477-230-180-65-297h-107l301 1366h107l-207-934 700 557h150l-561-446z" horiz-adv-x="1034" unicode="&#x6b;"/><glyph d="M162 0h-107l301 1366h107z" horiz-adv-x="438" unicode="&#x6c;"/><glyph d="M1339 0h-106l151 688q9 36 9 60 0 79-52.5 124.5t-128.5 45.5q-74 0-154.5-50t-142.5-123l-163-745h-109l154 688q8 62 8 72-2 69-50 113.5t-134 44.5q-72 0-150.5-49.5t-144.5-123.5l-164-745h-107l219 989h107l-33-149q35 40 75 74.5t107.5 67 133.5 32.5q113 0 180-63t67-128v-6q67 84 155.5 140.5t186.5 56.5q105 0 177.5-64t72.5-178q0-26-12-84z" horiz-adv-x="1615" unicode="&#x6d;"/><glyph d="M829 0h-106l147 672q13 58 13 71 0 88-59 131.5t-156 43.5q-90 0-180-49.5t-162-123.5l-164-745h-107l219 989h107l-33-149q76 75 168.5 124.5t188.5 49.5q131 0 209.5-62t78.5-180q0-38-12-84z" horiz-adv-x="1105" unicode="&#x6e;"/><glyph d="M92 410q0 156 70 294.5t196.5 224 278.5 85.5q199 0 317.5-118.5t118.5-315.5q0-156-70-294.5t-196.5-224.5-278.5-86q-199 0-317.5 119t-118.5 316zM956 575q0 157-85 250t-236 93q-120 0-219-72.5t-153-188-54-243.5q0-157 85-249.5t236-92.5q120 0 219 72.5t153 187.5 54 243z" horiz-adv-x="1169" unicode="&#x6f;"/><glyph d="M199 168l-121-545h-107l303 1366h107l-33-149q62 81 149.5 127.5t190.5 46.5q172 0 278.5-109.5t106.5-298.5q0-98-23.5-192t-69.5-173-108-139-144-93.5-173-33.5q-119 0-211 52.5t-145 140.5zM956 588q0 151-81.5 240.5t-217.5 89.5q-99 0-189-54.5t-146-136.5l-105-475q39-78 126-129t202-51q91 0 169.5 44t130.5 116.5 81.5 165 29.5 190.5z" horiz-adv-x="1161" unicode="&#x70;"/><glyph d="M969 821l35 168h108l-303-1366h-109l119 527q-64-81-151-128t-189-47q-173 0-280 108.5t-107 297.5q0 125 38 240t104.5 202 165 139 212.5 52q118 0 211-52.5t146-140.5zM209 399q0-151 81.5-239t217.5-88q100 0 191 54.5t145 135.5l104 475q-39 78-125.5 129.5t-201.5 51.5q-90 0-168.5-44.5t-131-117-82.5-166-30-191.5z" horiz-adv-x="1161" unicode="&#x71;"/><glyph d="M162 0h-107l219 989h107l-37-160q81 95 165 138t210 43l-25-115q-36 6-71 6-85 0-167-53t-134-127z" horiz-adv-x="649" unicode="&#x72;"/><glyph d="M16 150l74 69q41-64 129.5-108.5t196.5-44.5q118 0 190 60.5t72 143.5q0 24-8 44.5t-27 39-36.5 32-51 30-54.5 25.5-61 26q-45 18-71 29t-65 30.5-62 38-46.5 43.5-34.5 55.5-11 65.5q0 119 97.5 202t262.5 83q122 0 219-46.5t141-115.5l-67-68q-33 58-119 99t-182 41q-110 0-177-51t-67-128q0-32 17-58.5t54-49.5 68.5-37.5 87.5-36.5q43-17 62.5-25t58.5-26.5 58.5-31.5 47-35.5 41-44 23.5-51 10-62.5q0-126-100.5-219t-271.5-93q-273 0-398 175z" horiz-adv-x="940" unicode="&#x73;"/><glyph d="M113 141q0 24 6 54l155 700h-163l20 94h164l59 271h109l-60-271h201l-22-94h-201l-152-686q-4-20-4-43 0-45 26-69.5t75-24.5q53 0 104 37l21-86q-61-48-142-48-196 0-196 166z" horiz-adv-x="563" unicode="&#x74;"/><glyph d="M274 989h107l-148-670q-12-60-12-73 0-88 59.5-131t159.5-43q87 0 176 50t160 124l166 743h107l-220-989h-106l33 150q-179-175-357-175-131 0-209.5 62t-78.5 180q0 38 12 84z" horiz-adv-x="1105" unicode="&#x75;"/><glyph d="M442 0h-120l-199 989h115l165-864 551 864h125z" horiz-adv-x="985" unicode="&#x76;"/><glyph d="M1006 0h-103l-90 846-465-846h-102l-103 989h109l76-839 467 839h90l92-839 450 839h119z" horiz-adv-x="1472" unicode="&#x77;"/><glyph d="M836 0h-121l-232 436-424-436h-135l502 508-260 481h121l215-407 395 407h135l-477-481z" horiz-adv-x="980" unicode="&#x78;"/><glyph d="M-94-381l41 102q36-18 96-18 42 0 77.5 24.5t78.5 88.5l116 178-192 995h115l165-864 551 864h125l-780-1206q-59-94-125.5-139t-150.5-45q-65 0-117 20z" horiz-adv-x="985" unicode="&#x79;"/><glyph d="M735 0h-731l16 88 760 807h-577l20 94h723l-18-86-764-809h590z" horiz-adv-x="960" unicode="&#x7a;"/><glyph d="M276-389h-100q-82 0-144.5 55.5t-62.5 143.5q0 32 6 53l103 450q4 24 4 35 0 47-22 79t-58 32l18 82q57 0 92 40.5t48 104.5l100 449q29 124 103.5 189t181.5 65h127l-21-89h-127q-67 0-112-43t-62-122l-104-465q-30-141-131-178 59-32 59-111 0-37-8-70l-98-446q-5-30-5-45 0-52 34-86.5t85-34.5h115z" horiz-adv-x="509" unicode="&#x7b;"/><glyph d="M299-41h-88v1448h88v-1448z" horiz-adv-x="425" unicode="&#x7c;"/><glyph d="M231 1389h101q82 0 143.5-55t61.5-144q0-34-7-55l-100-449q-4-24-4-37 0-46 22-77t58-31l-21-82q-56 0-90-41t-47-105l-100-448q-29-125-103-189.5t-182-64.5h-127l21 88h125q68 0 113 43t63 121l104 467q29 140 131 180-59 27-59 108 0 37 8 70l98 447q4 24 4 43 0 54-33.5 88t-84.5 34h-115z" horiz-adv-x="509" unicode="&#x7d;"/><glyph d="M973 930l88-8q-23-100-54-181.5t-74-151-102-108.5-129-39q-24 0-45 4.5t-37 11-29.5 20-22.5 23.5-18 30-13.5 31.5-10 36-7.5 36-7 37.5q-5 34-9 53.5t-13 45.5-20 39.5-30 23.5-45 10q-81 0-149.5-107t-114.5-299l-86 13q23 100 54.5 181t74.5 150 101 107.5 126 38.5q43 0 75.5-14.5t51-34 32.5-54.5 19.5-60 12.5-67q5-34 9-53.5t13-46 20-40 30.5-24 44.5-10.5q81 0 150 107t114 299z" horiz-adv-x="1021" unicode="&#x7e;"/><glyph d="M406 926q0-40-29.5-68.5t-69.5-28.5q-35 0-58.5 24t-23.5 58q0 41 29.5 70t69.5 29q35 0 58.5-24.5t23.5-59.5zM211 633h84l-197-1010h-139z" horiz-adv-x="448" unicode="&#xa1;"/><glyph d="M709 911l-187-837q83-6 159 27t132 98l61-74q-155-162-374-148l-41-182h-90l43 195q-145 33-231.5 144t-86.5 280q0 122 43 233t116 191.5 174.5 128 213.5 47.5l31 143h90l-33-149q183-29 268-174l-82-62q-66 116-206 139zM207 412q0-130 61-213.5t166-110.5l182 827q-123-7-218-80.5t-143-184.5-48-238z" horiz-adv-x="1011" unicode="&#xa2;"/><glyph d="M682 1386q136 0 250.5-65t144.5-166l-104-47q-20 75-101.5 125.5t-185.5 50.5q-147 0-252.5-94.5t-105.5-247.5q0-43 13.5-86.5t27-67.5 39.5-67q33-53 51-88h301l-19-86h-256q0-6 1-20t1-21q0-102-73-197.5t-166-154.5q56 16 98 16 33 0 69-8.5t53-15 58-23.5q95-43 162-43 109 0 197 84l33-96q-116-97-234-97-44 0-86.5 9t-65 17.5-63.5 25.5q-115 45-205 45-93 0-237-82l-25 98q158 62 265.5 176.5t107.5 231.5q0 28-6 55h-322l19 86h270q-3 6-43 72-31 48-45.5 74t-30.5 73-16 94q0 118 63.5 219t174.5 161 243 60z" horiz-adv-x="1034" unicode="&#xa3;"/><glyph d="M1135 748q0-113-43.5-216t-120.5-180l114-147-79-62-113 146q-131-88-287-88-202 0-321 116l-209-167-62 79 207 168q-57 94-57 217 0 115 44 218.5t122 179.5l-119 151 78 64 119-152q125 86 284 86 202 0 322-117l209 170 63-77-209-170q58-99 58-219zM279 625q0-139 86-230.5t247-91.5q115 0 209.5 61t146.5 160 52 211q0 138-87 231t-249 93q-87 0-163.5-36.5t-129-96.5-82.5-138.5-30-162.5z" horiz-adv-x="1204" unicode="&#xa4;"/><glyph d="M1280 1366h152l-637-696h465l-19-86h-524l-53-242h522l-19-84h-522l-57-258h-117l57 258h-538l18 84h539l53 242h-537l17 86h479l-332 696h131l316-672z" horiz-adv-x="1265" unicode="&#xa5;"/><glyph d="M299 760h-88v647h88v-647zM299-41h-88v647h88v-647z" horiz-adv-x="425" unicode="&#xa6;"/><glyph d="M604 356q84-45 117-94t33-117q0-59-25-114.5t-70.5-99.5-117-70.5-156.5-26.5q-279 0-418 164l78 68q47-69 138-108.5t200-39.5q114 0 187 61.5t73 153.5q0 30-14 55.5t-32 42.5-54 36.5-60.5 30-72.5 28.5q-47 19-71 29t-64.5 30-62.5 38.5-46 44.5-34.5 58-10.5 70q0 102 82 182t231 99q-203 73-203 223 0 113 96 199.5t257 86.5q129 0 228-40.5t159-112.5l-74-62q-49 66-132.5 99t-174.5 33q-107 0-179.5-55t-72.5-132q0-26 8-47.5t27.5-40 35.5-31 50.5-28 53-22.5 60.5-23q41-16 61-24t57-25 56.5-30 46-35 39.5-44 23-52.5 10-64.5q0-97-66-177.5t-196-115.5zM541 831q-155-21-233.5-81.5t-78.5-137.5q0-33 14-60t35-47 60.5-40.5 76-35 95.5-34.5q127 36 186.5 99.5t59.5 134.5q0 73-56 118.5t-159 83.5z" horiz-adv-x="944" unicode="&#xa7;"/><glyph d="M367 1163q-29 0-49.5 20t-20.5 48q0 35 26 60.5t60 25.5q29 0 48.5-20.5t19.5-49.5q0-34-25-59t-59-25zM784 1163q-29 0-48 20t-19 48q0 35 25 60.5t59 25.5q29 0 48-20t19-50q0-34-25-59t-59-25z" horiz-adv-x="837" unicode="&#xa8;"/><glyph d="M836-23q-191 0-353.5 95t-257 258-94.5 354q0 192 94.5 355t257 257.5 353.5 94.5q192 0 355-94.5t258-257.5 95-355q0-143-56-274t-151-226-226-151-275-56zM836 1333q-131 0-251-51.5t-207-138.5-138.5-207-51.5-252q0-175 87-324.5t236.5-237 324.5-87.5q176 0 326 87.5t237.5 237 87.5 324.5q0 176-87.5 325.5t-237.5 236.5-326 87zM1034 403l35-51q-129-106-272-106-181 0-287.5 109.5t-106.5 273.5q0 103 41.5 196t109 158 155 103 178.5 38q220 0 317-163l-55-41q-36 70-104.5 106.5t-157.5 36.5q-101 0-196-55t-157.5-156.5-62.5-222.5q0-134 91-228t235-94q64 0 128.5 27t108.5 69z" horiz-adv-x="1593" unicode="&#xa9;"/><glyph d="M797 1311h88l-144-643h-88l23 102q-96-119-232-119-108 0-183 72t-75 205q0 104 44.5 195.5t125.5 147.5 179 56q80 0 141.5-31t97.5-86zM279 934q0-100 52.5-155.5t139.5-55.5q119 0 221 117l70 311q-26 47-85 75.5t-130 28.5q-113 0-190.5-95t-77.5-226z" horiz-adv-x="837" unicode="&#xaa;"/><glyph d="M414 129h-109l-246 369 410 362h125l-418-373zM670 129h-109l-246 369 410 362h125l-418-373z" horiz-adv-x="823" unicode="&#xab;"/><glyph d="M1051 928l-107-486h-90l90 400h-809l19 86h897z" horiz-adv-x="1021" unicode="&#xac;"/><glyph d="M541 446h-492l21 99h491z" horiz-adv-x="614" unicode="&#xad;"/><glyph d="M604 518q-180 0-306 127t-126 307q0 181 127 307.5t307 126.5q119 0 219-57.5t157.5-157.5 57.5-219q0-180-127.5-307t-308.5-127zM604 1331q-157 0-267-110.5t-110-268.5q0-156 110.5-267.5t266.5-111.5q157 0 269 112t112 267q0 158-112 268.5t-269 110.5zM750 702h-74l-86 197h-98l-43-197h-62l109 498h186q58 0 99.5-35t41.5-96q0-71-51.5-119.5t-112.5-48.5zM672 1143h-127l-41-185h141q46 0 79.5 30t33.5 73q0 38-24.5 60t-61.5 22z" horiz-adv-x="1011" unicode="&#xae;"/><glyph d="M825 1182h-604l19 75h604z" horiz-adv-x="743" unicode="&#xaf;"/><glyph d="M430 911q-98 0-167.5 69t-69.5 167 69.5 168.5 167.5 70.5 169-70.5 71-168.5-70.5-167-169.5-69zM430 1307q-64 0-110-47t-46-113q0-65 45-110.5t109-45.5q65 0 113.5 46t48.5 110q0 66-47.5 113t-112.5 47z" horiz-adv-x="577" unicode="&#xb0;"/><glyph d="M991 662h-401l-101-447h-90l99 447h-404l19 83h403l96 435h90l-94-435h404zM846 0h-897l16 84h899z" horiz-adv-x="1015" unicode="&#xb1;"/><glyph d="M762 862h-576l19 80q70 42 111.5 67.5t101 63 94.5 62 80.5 58.5 72 58.5 55.5 55 44 57 25 55 10 56.5q0 69-55.5 105t-131.5 36q-144 0-231-96l-47 61q110 113 278 113 51 0 98.5-12t89.5-36 67.5-67 25.5-100q0-58-31.5-117.5t-78.5-109-126-108.5-146.5-102-168.5-102h436z" unicode="&#xb2;"/><glyph d="M524 848q-107 0-188.5 38.5t-122.5 108.5l66 52q77-121 243-121 91 0 146 52.5t55 131.5q0 60-59.5 97.5t-153.5 37.5q-45 0-57-2l16 80q62-4 121-4 92 0 148.5 42.5t56.5 115.5q0 64-59 101.5t-142 37.5q-120 0-223-90l-41 59q51 47 123 78t145 31q122 0 205.5-53t83.5-152q0-92-65-149.5t-165-65.5q64-11 112-59.5t48-116.5q0-98-81-174t-212-76z" unicode="&#xb3;"/><glyph d="M649 1434l-418-295h-94l381 295h131z" horiz-adv-x="442" unicode="&#xb4;"/><glyph d="M180 90l-104-467h-109l309 1366h109l-152-670q-29-126 26-188.5t159-62.5q90 0 190 49t166 119l166 753h109l-175-786q-14-61 3-96t67-35q27 0 43 4l-12-94q-28-7-66-7-169 0-149 177-80-77-180-127t-193-50q-153 0-207 115z" horiz-adv-x="1132" unicode="&#xb5;"/><glyph d="M596-205h-78l332 1495h-191l-331-1495h-78l192 867q-116 0-198 91t-82 228q0 97 50.5 185t143 144 203.5 56h385z" horiz-adv-x="919" unicode="&#xb6;"/><glyph d="M133 494q0 41 29 68.5t71 27.5q34 0 58-23.5t24-58.5q0-40-29-68t-69-28q-35 0-59.5 24t-24.5 58z" horiz-adv-x="448" unicode="&#xb7;"/><glyph d="M-182-311l47 61q66-69 170-69 66 0 100.5 29.5t34.5 74.5q0 31-22 49.5t-60 18.5q-48 0-76-35l-49 32 100 173h78l-84-140q32 25 70 25 53 0 86-31t33-86q0-79-59.5-128.5t-155.5-49.5q-133 0-213 76z" horiz-adv-x="405" unicode="&#xb8;"/><glyph d="M395 862h-94l152 690-158-135-45 62 244 202h81z" horiz-adv-x="438" unicode="&#xb9;"/><glyph d="M188 940q0 158 106.5 272.5t260.5 114.5q134 0 215.5-79.5t81.5-209.5q0-158-106.5-272.5t-260.5-114.5q-134 0-215.5 79.5t-81.5 209.5zM762 1038q0 93-58 152t-151 59q-121 0-196.5-91.5t-75.5-217.5q0-94 56-153.5t148-59.5q121 0 199 92.5t78 218.5z" horiz-adv-x="829" unicode="&#xba;"/><glyph d="M158 860h108l246-368-410-363h-125l418 373zM414 860h108l246-368-410-363h-125l418 373z" horiz-adv-x="823" unicode="&#xbb;"/><glyph d="M1333 1366l-1175-1366h-92l1173 1366h94zM326 547h-95l152 690-158-135-45 61 244 203h82zM1331 219h-123l-49-219h-90l47 219h-401l14 72 485 528h125l-116-524h123zM1133 295l96 432-402-432h306z" horiz-adv-x="1476" unicode="&#xbc;"/><glyph d="M1333 1366l-1175-1366h-92l1173 1366h94zM326 547h-95l152 690-158-135-45 61 244 203h82zM1364 0h-576l19 80q92 56 142 87t123.5 78.5 113.5 78 87.5 72 71 74 40 69.5 16.5 73q0 69-55.5 105.5t-131.5 36.5q-144 0-231-97l-47 62q109 112 278 112 51 0 98.5-12t89.5-36 67.5-67 25.5-100q0-42-16.5-84t-42.5-79.5-69-79-85.5-75.5-104-75-112.5-72-121-73h436z" horiz-adv-x="1579" unicode="&#xbd;"/><glyph d="M455 532q-107 0-189 39t-123 109l66 51q38-59 101.5-90t142.5-31q91 0 145.5 53t54.5 132q0 60-59.5 97.5t-153.5 37.5q-45 0-57-2l16 80q62-4 121-4 92 0 148.5 42t56.5 115q0 64-59 101.5t-142 37.5q-120 0-223-90l-41 60q51 46 122.5 77t145.5 31q123 0 206-52.5t83-151.5q0-93-64.5-150.5t-164.5-65.5q64-11 112-59.5t48-116.5q0-98-81-174t-212-76zM1593 1366l-1175-1366h-92l1173 1366h94zM1591 219h-123l-49-219h-90l47 219h-401l14 72 486 528h124l-116-524h123zM1393 295l96 432-402-432h306z" horiz-adv-x="1736" unicode="&#xbe;"/><glyph d="M676 926q0-40-28.5-68.5t-69.5-28.5q-34 0-58 24t-24 58q0 41 29 69t69 28q35 0 58.5-23.5t23.5-58.5zM446 578l95 49q53-64 53-146 0-31-8.5-59t-19.5-49-34.5-43.5-40.5-36.5-50.5-34.5-52-30-56.5-29.5q-36-19-55.5-29t-52-29.5-50.5-34.5-41-37.5-34.5-44.5-20-50.5-8.5-59.5q0-92 75.5-148.5t208.5-56.5q199 0 342 146l58-78q-174-174-410-174-180 0-291.5 82.5t-111.5 214.5q0 42 11 80.5t25.5 67 43 58 50 48 61.5 42.5 61.5 36 64.5 34q40 20 60 30.5t52.5 29.5 48.5 34 34.5 35 26 42.5 7.5 47.5q0 52-41 93z" horiz-adv-x="804" unicode="&#xbf;"/><glyph d="M926 1481h-90l-287 295h127zM1184 0h-125l-64 336h-727l-209-336h-139l860 1366h146zM981 442l-147 807-504-807h651z" horiz-adv-x="1325" unicode="&#xc0;"/><glyph d="M1346 1776l-418-295h-94l380 295h132zM1184 0h-125l-64 336h-727l-209-336h-139l860 1366h146zM981 442l-147 807-504-807h651z" horiz-adv-x="1325" unicode="&#xc1;"/><glyph d="M1141 1481h-78l-127 231-223-231h-84l264 295h111zM1184 0h-125l-64 336h-727l-209-336h-139l860 1366h146zM981 442l-147 807-504-807h651z" horiz-adv-x="1325" unicode="&#xc2;"/><glyph d="M885 1591q-15 31-25.5 48.5t-31 33-46.5 15.5q-94 0-141-199h-74q25 125 79.5 199.5t141.5 74.5q55 0 87.5-31t58.5-83q14-31 24.5-48t31-32 46.5-15q95 0 142 197h75q-59-274-223-274-55 0-87 30.5t-58 83.5zM1184 0h-125l-64 336h-727l-209-336h-139l860 1366h146zM981 442l-147 807-504-807h651z" horiz-adv-x="1325" unicode="&#xc3;"/><glyph d="M692 1505q-29 0-49 20t-20 48q0 35 26 60.5t60 25.5q29 0 48-20t19-50q0-34-25-59t-59-25zM1110 1505q-29 0-48.5 20t-19.5 48q0 35 25 60.5t59 25.5q29 0 48.5-20.5t19.5-49.5q0-34-25-59t-59-25zM1184 0h-125l-64 336h-727l-209-336h-139l860 1366h146zM981 442l-147 807-504-807h651z" horiz-adv-x="1325" unicode="&#xc4;"/><glyph d="M725 1642q0 86 64.5 151t150.5 65q78 0 128-50.5t50-128.5q0-88-63.5-151.5t-151.5-63.5q-78 0-128 50t-50 128zM1053 1673q0 53-31.5 86t-83.5 33q-59 0-102-42.5t-43-100.5q0-53 30.5-86t81.5-33q60 0 104 41.5t44 101.5zM1184 0h-125l-64 336h-727l-209-336h-139l860 1366h146zM981 442l-147 807-504-807h651z" horiz-adv-x="1325" unicode="&#xc5;"/><glyph d="M1690 0h-867l74 336h-557l-283-336h-139l1163 1366h910l-23-106h-747l-113-506h733l-24-107h-734l-118-541h747zM922 442l176 801-676-801h500z" horiz-adv-x="1923" unicode="&#xc6;"/><glyph d="M895 1389q180 0 319.5-76t217.5-217l-113-52q-68 122-180.5 180t-251.5 58q-117 0-228.5-50.5t-199.5-140.5-141.5-226-53.5-294q0-221 134-355t360-134q207 0 385 156l84-70q-101-97-224-145t-251-48q-38 0-56 2l-57-94q32 25 70 25 53 0 85.5-31t32.5-86q0-79-59.5-128.5t-155.5-49.5q-133 0-213 76l47 61q66-69 170-69 66 0 101 29.5t35 74.5q0 31-22 49.5t-60 18.5q-48 0-76-35l-49 32 80 136q-221 37-354.5 193t-133.5 388q0 181 64.5 337.5t171 261 242.5 164 280 59.5z" horiz-adv-x="1376" unicode="&#xc7;"/><glyph d="M874 1481h-90l-286 295h127zM926 0h-867l301 1366h867l-23-106h-749l-111-506h733l-24-107h-734l-120-541h747z" horiz-adv-x="1155" unicode="&#xc8;"/><glyph d="M1294 1776l-417-295h-95l381 295h131zM926 0h-867l301 1366h867l-23-106h-749l-111-506h733l-24-107h-734l-120-541h747z" horiz-adv-x="1155" unicode="&#xc9;"/><glyph d="M1090 1481h-78l-127 231-223-231h-84l264 295h110zM926 0h-867l301 1366h867l-23-106h-749l-111-506h733l-24-107h-734l-120-541h747z" horiz-adv-x="1155" unicode="&#xca;"/><glyph d="M641 1505q-29 0-49.5 20t-20.5 48q0 35 26 60.5t60 25.5q29 0 48.5-20.5t19.5-49.5q0-34-25-59t-59-25zM1059 1505q-29 0-48.5 20t-19.5 48q0 35 25 60.5t59 25.5q29 0 48.5-20.5t19.5-49.5q0-34-25-59t-59-25zM926 0h-867l301 1366h867l-23-106h-749l-111-506h733l-24-107h-734l-120-541h747z" horiz-adv-x="1155" unicode="&#xcb;"/><glyph d="M492 1481h-91l-286 295h127zM176 0h-117l301 1366h117z" horiz-adv-x="456" unicode="&#xcc;"/><glyph d="M909 1776l-417-295h-95l381 295h131zM176 0h-117l301 1366h117z" horiz-adv-x="456" unicode="&#xcd;"/><glyph d="M705 1481h-78l-127 231-224-231h-83l264 295h110zM176 0h-117l301 1366h117z" horiz-adv-x="456" unicode="&#xce;"/><glyph d="M258 1505q-29 0-49.5 20t-20.5 48q0 35 26 60.5t60 25.5q29 0 48.5-20.5t19.5-49.5q0-34-25-59t-59-25zM676 1505q-29 0-48.5 20t-19.5 48q0 35 25 60.5t59 25.5q29 0 48.5-20.5t19.5-49.5q0-34-25-59t-59-25zM176 0h-117l301 1366h117z" horiz-adv-x="456" unicode="&#xcf;"/><glyph d="M420 1366h426q113 0 215.5-44t177.5-120 119.5-185 44.5-233q0-115-32.5-226.5t-102-212.5-168-177.5-240-122-307.5-45.5h-434l139 633h-207l23 102h209zM260 106h313q158 0 292 54.5t223.5 147 139.5 214.5 50 258q0 207-129.5 343.5t-323.5 136.5h-309l-117-525h365l-23-102h-364z" horiz-adv-x="1476" unicode="&#xd0;"/><glyph d="M938 1591q-11 23-18.5 36.5t-20 29.5-28 23.5-35.5 7.5q-95 0-142-199h-73q25 125 79.5 199.5t141.5 74.5q55 0 87-30.5t58-83.5q14-30 25-47.5t31.5-32.5 46.5-15q94 0 141 197h76q-59-274-224-274-55 0-87 30.5t-58 83.5zM1151 0h-115l-594 1204-266-1204h-117l301 1366h119l592-1186 264 1186h117z" horiz-adv-x="1431" unicode="&#xd1;"/><glyph d="M1042 1481h-90l-286 295h127zM137 567q0 170 60 323t162 262 242 173 294 64q127 0 238-39.5t194.5-113 131.5-187 48-252.5q0-170-60-323t-161-262-240.5-173-293.5-64q-128 0-239.5 39.5t-195.5 113-132 187-48 252.5zM1380 793q0 116-39 210t-107 154.5-157.5 92.5-191.5 32q-123 0-236.5-53.5t-198.5-146-135.5-226-50.5-285.5q0-116 39-210t107-154.5 157-92.5 191-32q123 0 236.5 53.5t198.5 146 136 226.5 51 285z" horiz-adv-x="1564" unicode="&#xd2;"/><glyph d="M1462 1776l-418-295h-94l381 295h131zM137 567q0 170 60 323t162 262 242 173 294 64q127 0 238-39.5t194.5-113 131.5-187 48-252.5q0-170-60-323t-161-262-240.5-173-293.5-64q-128 0-239.5 39.5t-195.5 113-132 187-48 252.5zM1380 793q0 116-39 210t-107 154.5-157.5 92.5-191.5 32q-123 0-236.5-53.5t-198.5-146-135.5-226-50.5-285.5q0-116 39-210t107-154.5 157-92.5 191-32q123 0 236.5 53.5t198.5 146 136 226.5 51 285z" horiz-adv-x="1564" unicode="&#xd3;"/><glyph d="M1257 1481h-77l-127 231-224-231h-84l265 295h110zM137 567q0 170 60 323t162 262 242 173 294 64q127 0 238-39.5t194.5-113 131.5-187 48-252.5q0-170-60-323t-161-262-240.5-173-293.5-64q-128 0-239.5 39.5t-195.5 113-132 187-48 252.5zM1380 793q0 116-39 210t-107 154.5-157.5 92.5-191.5 32q-123 0-236.5-53.5t-198.5-146-135.5-226-50.5-285.5q0-116 39-210t107-154.5 157-92.5 191-32q123 0 236.5 53.5t198.5 146 136 226.5 51 285z" horiz-adv-x="1564" unicode="&#xd4;"/><glyph d="M1001 1591q-11 23-18.5 36.5t-20 29.5-28 23.5-35.5 7.5q-94 0-141-199h-74q25 125 79.5 199.5t141.5 74.5q55 0 87.5-31t58.5-83q14-31 24.5-48t31-32 46.5-15q94 0 141 197h76q-59-274-223-274-55 0-87.5 31t-58.5 83zM137 567q0 170 60 323t162 262 242 173 294 64q127 0 238-39.5t194.5-113 131.5-187 48-252.5q0-170-60-323t-161-262-240.5-173-293.5-64q-128 0-239.5 39.5t-195.5 113-132 187-48 252.5zM1380 793q0 116-39 210t-107 154.5-157.5 92.5-191.5 32q-123 0-236.5-53.5t-198.5-146-135.5-226-50.5-285.5q0-116 39-210t107-154.5 157-92.5 191-32q123 0 236.5 53.5t198.5 146 136 226.5 51 285z" horiz-adv-x="1564" unicode="&#xd5;"/><glyph d="M809 1505q-29 0-49.5 20t-20.5 48q0 35 26 60.5t60 25.5q29 0 48.5-20.5t19.5-49.5q0-34-25-59t-59-25zM1227 1505q-29 0-48.5 20t-19.5 48q0 35 25 60.5t59 25.5q29 0 48.5-20.5t19.5-49.5q0-34-25-59t-59-25zM137 567q0 170 60 323t162 262 242 173 294 64q127 0 238-39.5t194.5-113 131.5-187 48-252.5q0-170-60-323t-161-262-240.5-173-293.5-64q-128 0-239.5 39.5t-195.5 113-132 187-48 252.5zM1380 793q0 116-39 210t-107 154.5-157.5 92.5-191.5 32q-123 0-236.5-53.5t-198.5-146-135.5-226-50.5-285.5q0-116 39-210t107-154.5 157-92.5 191-32q123 0 236.5 53.5t198.5 146 136 226.5 51 285z" horiz-adv-x="1564" unicode="&#xd6;"/><glyph d="M780 317l-239 308-381-314-54 64 383 315-239 307 67 56 238-310 385 314 51-66-383-313 238-307z" horiz-adv-x="1015" unicode="&#xd7;"/><glyph d="M1518 1464l47-47-203-215q145-158 145-405 0-170-60-323t-161-262-240.5-173-293.5-64q-251 0-420 140l-201-213-47 45 201 213q-148 158-148 407 0 170 60 323t162 262 242 173 294 64q250 0 418-142zM264 571q0-194 105-321l862 911q-136 121-346 121-123 0-236.5-53.5t-198.5-146-135.5-226-50.5-285.5zM1380 793q0 193-104 319l-860-909q133-121 342-121 123 0 236.5 53.5t198.5 146 136 226.5 51 285z" horiz-adv-x="1564" unicode="&#xd8;"/><glyph d="M963 1481h-91l-286 295h127zM664-25q-230 0-364 120.5t-134 324.5q0 68 12 117l182 829h119l-182-827q-12-58-12-107 0-159 101.5-254.5t281.5-95.5q100 0 176.5 30t130 89.5 88.5 138 59 186.5l185 840h118l-184-842q-30-133-73-229t-110-170.5-165-112-229-37.5z" horiz-adv-x="1404" unicode="&#xd9;"/><glyph d="M1382 1776l-417-295h-95l381 295h131zM664-25q-230 0-364 120.5t-134 324.5q0 68 12 117l182 829h119l-182-827q-12-58-12-107 0-159 101.5-254.5t281.5-95.5q100 0 176.5 30t130 89.5 88.5 138 59 186.5l185 840h118l-184-842q-30-133-73-229t-110-170.5-165-112-229-37.5z" horiz-adv-x="1404" unicode="&#xda;"/><glyph d="M1178 1481h-78l-127 231-223-231h-84l264 295h110zM664-25q-230 0-364 120.5t-134 324.5q0 68 12 117l182 829h119l-182-827q-12-58-12-107 0-159 101.5-254.5t281.5-95.5q100 0 176.5 30t130 89.5 88.5 138 59 186.5l185 840h118l-184-842q-30-133-73-229t-110-170.5-165-112-229-37.5z" horiz-adv-x="1404" unicode="&#xdb;"/><glyph d="M729 1505q-29 0-49.5 20t-20.5 48q0 35 26 60.5t60 25.5q29 0 48.5-20.5t19.5-49.5q0-34-25-59t-59-25zM1147 1505q-29 0-48.5 20t-19.5 48q0 35 25 60.5t59 25.5q29 0 48.5-20.5t19.5-49.5q0-34-25-59t-59-25zM664-25q-230 0-364 120.5t-134 324.5q0 68 12 117l182 829h119l-182-827q-12-58-12-107 0-159 101.5-254.5t281.5-95.5q100 0 176.5 30t130 89.5 88.5 138 59 186.5l185 840h118l-184-842q-30-133-73-229t-110-170.5-165-112-229-37.5z" horiz-adv-x="1404" unicode="&#xdc;"/><glyph d="M1315 1776l-418-295h-94l381 295h131zM582 0h-119l129 584-371 782h131l314-672 608 672h151l-714-782z" horiz-adv-x="1265" unicode="&#xdd;"/><glyph d="M176 0h-117l301 1366h117l-55-254h371q146 0 247-99.5t101-242.5q0-65-17.5-128.5t-57.5-123.5-97-105-143.5-72.5-190.5-27.5h-389zM1016 762q0 102-74 173t-178 71h-365l-129-586h377q91 0 163.5 28.5t116 77.5 66.5 109 23 127z" horiz-adv-x="1169" unicode="&#xde;"/><glyph d="M997 1020q-23-102-108-177.5t-205-101.5q152-33 229-153.5t41-280.5q-32-148-153-240t-285-92q-86 0-156.5 25t-111.5 59l59 76q75-65 209-65 128 0 216.5 71t113.5 189q38 170-62.5 272t-322.5 92l18 88q173 0 278.5 73t129.5 181q13 60 0 109.5t-44.5 80.5-74.5 47.5-92 16.5q-119 0-207.5-77t-122.5-230l-219-983h-107l220 983q43 193 158 298t284 105q72 0 136.5-25t112-70 66.5-116 0-155z" horiz-adv-x="1105" unicode="&#xdf;"/><glyph d="M774 1139h-90l-287 295h127zM969 821l35 168h108l-219-989h-109l35 150q-64-81-151-128t-189-47q-173 0-280 108.5t-107 297.5q0 125 38 240t104.5 202 165 139 212.5 52q118 0 211-52.5t146-140.5zM209 399q0-151 81.5-239t217.5-88q100 0 191 54.5t145 135.5l104 475q-39 78-125.5 129.5t-201.5 51.5q-90 0-168.5-44.5t-131-117-82.5-166-30-191.5z" horiz-adv-x="1169" unicode="&#xe0;"/><glyph d="M1194 1434l-418-295h-94l381 295h131zM969 821l35 168h108l-219-989h-109l35 150q-64-81-151-128t-189-47q-173 0-280 108.5t-107 297.5q0 125 38 240t104.5 202 165 139 212.5 52q118 0 211-52.5t146-140.5zM209 399q0-151 81.5-239t217.5-88q100 0 191 54.5t145 135.5l104 475q-39 78-125.5 129.5t-201.5 51.5q-90 0-168.5-44.5t-131-117-82.5-166-30-191.5z" horiz-adv-x="1169" unicode="&#xe1;"/><glyph d="M989 1139h-78l-127 231-223-231h-84l264 295h111zM969 821l35 168h108l-219-989h-109l35 150q-64-81-151-128t-189-47q-173 0-280 108.5t-107 297.5q0 125 38 240t104.5 202 165 139 212.5 52q118 0 211-52.5t146-140.5zM209 399q0-151 81.5-239t217.5-88q100 0 191 54.5t145 135.5l104 475q-39 78-125.5 129.5t-201.5 51.5q-90 0-168.5-44.5t-131-117-82.5-166-30-191.5z" horiz-adv-x="1169" unicode="&#xe2;"/><glyph d="M733 1249q-11 23-18.5 36.5t-20 29.5-28 23.5-35.5 7.5q-95 0-142-199h-73q25 125 79.5 199.5t141.5 74.5q55 0 87-30.5t58-83.5q14-30 25-47.5t31.5-32.5 46.5-15q94 0 141 197h76q-59-274-223-274-55 0-87.5 31t-58.5 83zM969 821l35 168h108l-219-989h-109l35 150q-64-81-151-128t-189-47q-173 0-280 108.5t-107 297.5q0 125 38 240t104.5 202 165 139 212.5 52q118 0 211-52.5t146-140.5zM209 399q0-151 81.5-239t217.5-88q100 0 191 54.5t145 135.5l104 475q-39 78-125.5 129.5t-201.5 51.5q-90 0-168.5-44.5t-131-117-82.5-166-30-191.5z" horiz-adv-x="1169" unicode="&#xe3;"/><glyph d="M541 1163q-29 0-49.5 20t-20.5 48q0 35 26 60.5t60 25.5q29 0 48.5-20.5t19.5-49.5q0-34-25-59t-59-25zM958 1163q-29 0-48 20t-19 48q0 35 25 60.5t59 25.5q29 0 48-20t19-50q0-34-25-59t-59-25zM969 821l35 168h108l-219-989h-109l35 150q-64-81-151-128t-189-47q-173 0-280 108.5t-107 297.5q0 125 38 240t104.5 202 165 139 212.5 52q118 0 211-52.5t146-140.5zM209 399q0-151 81.5-239t217.5-88q100 0 191 54.5t145 135.5l104 475q-39 78-125.5 129.5t-201.5 51.5q-90 0-168.5-44.5t-131-117-82.5-166-30-191.5z" horiz-adv-x="1169" unicode="&#xe4;"/><glyph d="M573 1300q0 86 64.5 151t150.5 65q78 0 128.5-50.5t50.5-128.5q0-88-63.5-151.5t-151.5-63.5q-78 0-128.5 50t-50.5 128zM901 1331q0 53-31.5 86t-83.5 33q-59 0-102-42.5t-43-100.5q0-53 31-86t82-33q60 0 103.5 41.5t43.5 101.5zM969 821l35 168h108l-219-989h-109l35 150q-64-81-151-128t-189-47q-173 0-280 108.5t-107 297.5q0 125 38 240t104.5 202 165 139 212.5 52q118 0 211-52.5t146-140.5zM209 399q0-151 81.5-239t217.5-88q100 0 191 54.5t145 135.5l104 475q-39 78-125.5 129.5t-201.5 51.5q-90 0-168.5-44.5t-131-117-82.5-166-30-191.5z" horiz-adv-x="1169" unicode="&#xe5;"/><glyph d="M954 276l-61-276h-109l35 150q-64-81-151-128t-189-47q-173 0-280 108.5t-107 297.5q0 125 38 240t104.5 202 165 139 212.5 52q118 0 211-52.5t146-140.5l35 168h108l-41-188q63 88 164 150.5t219 62.5q187 0 288-117.5t101-306.5q0-71-14-129h-828q-4-28-4-58 0-144 95-239.5t268-95.5q160 0 289 108l43-80q-160-121-330-121-166 0-272.5 82t-135.5 219zM1012 545h727q2 10 2 45 0 150-82.5 241t-237.5 91q-147 0-264.5-111t-144.5-266zM209 399q0-151 81.5-239t217.5-88q100 0 191 54.5t145 135.5l104 475q-39 78-125.5 129.5t-201.5 51.5q-90 0-168.5-44.5t-131-117-82.5-166-30-191.5z" horiz-adv-x="1941" unicode="&#xe6;"/><glyph d="M647 918q-131 0-233.5-73t-154.5-187-52-246q0-163 94-251.5t244-88.5q81 0 150 34t118 93l61-74q-143-150-339-150h-33l-56-92q32 25 70 25 53 0 86-31t33-86q0-79-59.5-128.5t-155.5-49.5q-133 0-213 76l47 61q66-69 170-69 66 0 100.5 29.5t34.5 74.5q0 31-22 49.5t-60 18.5q-48 0-76-35l-49 32 78 136q-154 29-245 140t-91 288q0 161 72 299t199 219.5 278 81.5q248 0 354-180l-82-62q-41 73-112 109.5t-156 36.5z" horiz-adv-x="1011" unicode="&#xe7;"/><glyph d="M768 1139h-90l-287 295h127zM94 412q0 122 43 233t116 192 175 129 215 48q193 0 306.5-121t113.5-307q0-58-16-125h-836q-4-24-4-58 0-144 94-239.5t268-95.5q78 0 157.5 27t141.5 79l41-78q-70-54-160.5-87.5t-183.5-33.5q-219 0-345 120t-126 317zM221 545h737q3 15 3 45 0 149-87 240.5t-243 91.5q-147 0-265-111t-145-266z" horiz-adv-x="1161" unicode="&#xe8;"/><glyph d="M1188 1434l-418-295h-94l381 295h131zM94 412q0 122 43 233t116 192 175 129 215 48q193 0 306.5-121t113.5-307q0-58-16-125h-836q-4-24-4-58 0-144 94-239.5t268-95.5q78 0 157.5 27t141.5 79l41-78q-70-54-160.5-87.5t-183.5-33.5q-219 0-345 120t-126 317zM221 545h737q3 15 3 45 0 149-87 240.5t-243 91.5q-147 0-265-111t-145-266z" horiz-adv-x="1161" unicode="&#xe9;"/><glyph d="M983 1139h-78l-127 231-223-231h-84l264 295h111zM94 412q0 122 43 233t116 192 175 129 215 48q193 0 306.5-121t113.5-307q0-58-16-125h-836q-4-24-4-58 0-144 94-239.5t268-95.5q78 0 157.5 27t141.5 79l41-78q-70-54-160.5-87.5t-183.5-33.5q-219 0-345 120t-126 317zM221 545h737q3 15 3 45 0 149-87 240.5t-243 91.5q-147 0-265-111t-145-266z" horiz-adv-x="1161" unicode="&#xea;"/><glyph d="M535 1163q-29 0-49.5 20t-20.5 48q0 35 26 60.5t60 25.5q29 0 48-20t19-50q0-34-24.5-59t-58.5-25zM952 1163q-29 0-48 20t-19 48q0 35 25 60.5t59 25.5q29 0 48-20t19-50q0-34-25-59t-59-25zM94 412q0 122 43 233t116 192 175 129 215 48q193 0 306.5-121t113.5-307q0-58-16-125h-836q-4-24-4-58 0-144 94-239.5t268-95.5q78 0 157.5 27t141.5 79l41-78q-70-54-160.5-87.5t-183.5-33.5q-219 0-345 120t-126 317zM221 545h737q3 15 3 45 0 149-87 240.5t-243 91.5q-147 0-265-111t-145-266z" horiz-adv-x="1161" unicode="&#xeb;"/><glyph d="M406 1139h-91l-286 295h127zM162 0h-107l219 989h107z" horiz-adv-x="438" unicode="&#xec;"/><glyph d="M823 1434l-417-295h-95l381 295h131zM162 0h-107l219 989h107z" horiz-adv-x="438" unicode="&#xed;"/><glyph d="M618 1139h-77l-127 231-224-231h-84l265 295h110zM162 0h-107l219 989h107z" horiz-adv-x="438" unicode="&#xee;"/><glyph d="M172 1163q-29 0-49.5 20t-20.5 48q0 35 26 60.5t60 25.5q29 0 48.5-20.5t19.5-49.5q0-34-25-59t-59-25zM590 1163q-29 0-48.5 20t-19.5 48q0 35 25 60.5t59 25.5q29 0 48.5-20.5t19.5-49.5q0-34-25-59t-59-25zM162 0h-107l219 989h107z" horiz-adv-x="438" unicode="&#xef;"/><glyph d="M1032 1264l-205-62q246-282 246-586 0-176-68.5-322.5t-192.5-232.5-277-86q-195 0-318 119t-123 301q0 123 41 234.5t110.5 192 165.5 128 201 47.5 199.5-52.5 144.5-162.5q-78 208-249 385l-320-96-18 66 282 84q-69 63-145 118l80 82q104-75 190-164l238 72zM537 72q112 0 207.5 67.5t151.5 183 56 250.5q0 60-19.5 116.5t-57.5 105-103 77.5-149 29q-169 0-291.5-143t-122.5-348q0-150 87.5-244t240.5-94z" horiz-adv-x="1169" unicode="&#xf0;"/><glyph d="M700 1249q-11 23-18.5 36.5t-20 29.5-28 23.5-35.5 7.5q-94 0-141-199h-74q25 125 79.5 199.5t141.5 74.5q55 0 87.5-31t58.5-83q14-31 24.5-48t31-32 46.5-15q94 0 141 197h76q-59-274-223-274-55 0-87.5 31t-58.5 83zM829 0h-106l147 672q13 58 13 71 0 88-59 131.5t-156 43.5q-90 0-180-49.5t-162-123.5l-164-745h-107l219 989h107l-33-149q76 75 168.5 124.5t188.5 49.5q131 0 209.5-62t78.5-180q0-38-12-84z" horiz-adv-x="1105" unicode="&#xf1;"/><glyph d="M770 1139h-90l-287 295h127zM92 410q0 156 70 294.5t196.5 224 278.5 85.5q199 0 317.5-118.5t118.5-315.5q0-156-70-294.5t-196.5-224.5-278.5-86q-199 0-317.5 119t-118.5 316zM956 575q0 157-85 250t-236 93q-120 0-219-72.5t-153-188-54-243.5q0-157 85-249.5t236-92.5q120 0 219 72.5t153 187.5 54 243z" horiz-adv-x="1169" unicode="&#xf2;"/><glyph d="M1190 1434l-418-295h-94l381 295h131zM92 410q0 156 70 294.5t196.5 224 278.5 85.5q199 0 317.5-118.5t118.5-315.5q0-156-70-294.5t-196.5-224.5-278.5-86q-199 0-317.5 119t-118.5 316zM956 575q0 157-85 250t-236 93q-120 0-219-72.5t-153-188-54-243.5q0-157 85-249.5t236-92.5q120 0 219 72.5t153 187.5 54 243z" horiz-adv-x="1169" unicode="&#xf3;"/><glyph d="M985 1139h-78l-127 231-223-231h-84l264 295h111zM92 410q0 156 70 294.5t196.5 224 278.5 85.5q199 0 317.5-118.5t118.5-315.5q0-156-70-294.5t-196.5-224.5-278.5-86q-199 0-317.5 119t-118.5 316zM956 575q0 157-85 250t-236 93q-120 0-219-72.5t-153-188-54-243.5q0-157 85-249.5t236-92.5q120 0 219 72.5t153 187.5 54 243z" horiz-adv-x="1169" unicode="&#xf4;"/><glyph d="M729 1249q-11 23-18.5 36.5t-20 29.5-28 23.5-35.5 7.5q-95 0-142-199h-73q25 125 79.5 199.5t141.5 74.5q55 0 87-30.5t58-83.5q14-30 25-47.5t31.5-32.5 46.5-15q94 0 141 197h76q-59-274-224-274-55 0-87 30.5t-58 83.5zM92 410q0 156 70 294.5t196.5 224 278.5 85.5q199 0 317.5-118.5t118.5-315.5q0-156-70-294.5t-196.5-224.5-278.5-86q-199 0-317.5 119t-118.5 316zM956 575q0 157-85 250t-236 93q-120 0-219-72.5t-153-188-54-243.5q0-157 85-249.5t236-92.5q120 0 219 72.5t153 187.5 54 243z" horiz-adv-x="1169" unicode="&#xf5;"/><glyph d="M537 1163q-29 0-49.5 20t-20.5 48q0 35 26 60.5t60 25.5q29 0 48.5-20.5t19.5-49.5q0-34-25-59t-59-25zM954 1163q-29 0-48 20t-19 48q0 35 25 60.5t59 25.5q29 0 48-20t19-50q0-34-25-59t-59-25zM92 410q0 156 70 294.5t196.5 224 278.5 85.5q199 0 317.5-118.5t118.5-315.5q0-156-70-294.5t-196.5-224.5-278.5-86q-199 0-317.5 119t-118.5 316zM956 575q0 157-85 250t-236 93q-120 0-219-72.5t-153-188-54-243.5q0-157 85-249.5t236-92.5q120 0 219 72.5t153 187.5 54 243z" horiz-adv-x="1169" unicode="&#xf6;"/><glyph d="M571 1081q0 35 26.5 60.5t61.5 25.5q31 0 52.5-21t21.5-52q0-37-25.5-61.5t-62.5-24.5q-31 0-52.5 21t-21.5 52zM1020 647h-928l19 86h927zM395 279q0 35 25.5 60.5t62.5 25.5q31 0 52.5-21.5t21.5-52.5q0-36-26.5-61t-63.5-25q-31 0-51.5 21.5t-20.5 52.5z" horiz-adv-x="1046" unicode="&#xf7;"/><glyph d="M1079 1051l-125-154q119-119 119-317 0-156-70-294.5t-196.5-224.5-278.5-86q-154 0-264 74l-121-147-49 39 121 147q-123 123-123 322 0 156 70 294.5t196.5 224 278.5 85.5q159 0 272-80l125 153zM209 414q0-148 76-240l557 678q-81 66-207 66-120 0-219-72.5t-153-188-54-243.5zM530 72q120 0 219 72.5t153 187.5 54 243q0 148-73 236l-553-680q80-59 200-59z" horiz-adv-x="1169" unicode="&#xf8;"/><glyph d="M741 1139h-90l-286 295h127zM274 989h107l-148-670q-12-60-12-73 0-88 59.5-131t159.5-43q87 0 176 50t160 124l166 743h107l-220-989h-106l33 150q-179-175-357-175-131 0-209.5 62t-78.5 180q0 38 12 84z" horiz-adv-x="1105" unicode="&#xf9;"/><glyph d="M1159 1434l-418-295h-94l381 295h131zM274 989h107l-148-670q-12-60-12-73 0-88 59.5-131t159.5-43q87 0 176 50t160 124l166 743h107l-220-989h-106l33 150q-179-175-357-175-131 0-209.5 62t-78.5 180q0 38 12 84z" horiz-adv-x="1105" unicode="&#xfa;"/><glyph d="M954 1139h-77l-127 231-224-231h-84l265 295h110zM274 989h107l-148-670q-12-60-12-73 0-88 59.5-131t159.5-43q87 0 176 50t160 124l166 743h107l-220-989h-106l33 150q-179-175-357-175-131 0-209.5 62t-78.5 180q0 38 12 84z" horiz-adv-x="1105" unicode="&#xfb;"/><glyph d="M508 1163q-29 0-49.5 20t-20.5 48q0 35 26 60.5t60 25.5q29 0 48.5-20.5t19.5-49.5q0-34-25-59t-59-25zM926 1163q-29 0-48.5 20t-19.5 48q0 35 25 60.5t59 25.5q29 0 48.5-20.5t19.5-49.5q0-34-25-59t-59-25zM274 989h107l-148-670q-12-60-12-73 0-88 59.5-131t159.5-43q87 0 176 50t160 124l166 743h107l-220-989h-106l33 150q-179-175-357-175-131 0-209.5 62t-78.5 180q0 38 12 84z" horiz-adv-x="1105" unicode="&#xfc;"/><glyph d="M1100 1434l-418-295h-94l381 295h131zM-94-381l41 102q36-18 96-18 42 0 77.5 24.5t78.5 88.5l116 178-192 995h115l165-864 551 864h125l-780-1206q-59-94-125.5-139t-150.5-45q-65 0-117 20z" horiz-adv-x="985" unicode="&#xfd;"/><glyph d="M199 168l-121-545h-107l385 1743h107l-115-526q62 81 149.5 127.5t190.5 46.5q172 0 278.5-109.5t106.5-298.5q0-98-23.5-192t-69.5-173-108-139-144-93.5-173-33.5q-119 0-211 52.5t-145 140.5zM956 588q0 151-81.5 240.5t-217.5 89.5q-99 0-189-54.5t-146-136.5l-105-475q39-78 126-129t202-51q91 0 169.5 44t130.5 116.5 81.5 165 29.5 190.5z" horiz-adv-x="1161" unicode="&#xfe;"/><glyph d="M446 1163q-29 0-49 20t-20 48q0 35 26 60.5t60 25.5q29 0 48-20t19-50q0-34-25-59t-59-25zM864 1163q-29 0-48 20t-19 48q0 35 25 60.5t59 25.5q29 0 48-20t19-50q0-34-25-59t-59-25zM-94-381l41 102q36-18 96-18 42 0 77.5 24.5t78.5 88.5l116 178-192 995h115l165-864 551 864h125l-780-1206q-59-94-125.5-139t-150.5-45q-65 0-117 20z" horiz-adv-x="985" unicode="&#xff;"/><glyph d="M2050 0h-866l51 233q-89-122-221-190t-301-68q-257 0-416.5 165.5t-159.5 426.5q0 177 62 331t167 260 245.5 167 293.5 61q116 0 211.5-32t176.5-113 120-207l72 332h866l-22-106h-748l-113-506h734l-25-107h-733l-119-541h748zM1272 397l104 473q-28 195-155 302.5t-322 107.5q-128 0-244.5-54t-202.5-147-137-225.5-51-282.5q0-224 132.5-356.5t348.5-132.5q157 0 299.5 84t227.5 231z" horiz-adv-x="2283" unicode="&#x152;"/><glyph d="M1884 461h-827q-4-20-4-58 0-144 93.5-239.5t264.5-95.5q79 0 157.5 28t137.5 78l43-78q-70-56-159.5-88.5t-182.5-32.5q-78 0-147 20.5t-117.5 53-85.5 74-56.5 83-23.5 79.5q-20-33-33-53.5t-40-56.5-51-60-61-53-75-46-88-29-105-12q-193 0-312.5 117t-119.5 318q0 116 41 225.5t111 193 172 134.5 217 51q93 0 169.5-32t122.5-81.5 72-100 31-95.5q22 40 47.5 76t68 81 90 76.5 113.5 53.5 138 22q185 0 300.5-116t115.5-312q0-55-17-125zM1067 545h729q4 24 4 45 0 145-85.5 238.5t-239.5 93.5q-79 0-153-35.5t-126-91-86-121.5-43-129zM631 918q-116 0-214-70t-153-185.5-55-248.5q0-156 83.5-249t233.5-93q117 0 214.5 69.5t152.5 185 55 248.5q0 88-26 155.5t-71 107.5-101 60-119 20z" horiz-adv-x="1996" unicode="&#x153;"/><glyph d="M662 1505q-29 0-49.5 20t-20.5 48q0 35 26 60.5t60 25.5q29 0 48-20t19-50q0-34-24.5-59t-58.5-25zM1079 1505q-29 0-48 20t-19 48q0 35 25 60.5t59 25.5q29 0 48-20t19-50q0-34-25-59t-59-25zM582 0h-119l129 584-371 782h131l314-672 608 672h151l-714-782z" horiz-adv-x="1265" unicode="&#x178;"/><glyph d="M705 668h-89l95 424q4 20 4 41 0 59-38 89.5t-108 30.5q-99 0-213-110l-102-475h-88l196 888h89l-76-342q45 48 107.5 80.5t127.5 32.5q94 0 146.5-42t52.5-118q0-25-8-65z" horiz-adv-x="802" unicode="&#x2b0;"/><glyph d="M653 1139h-78l-126 231-224-231h-84l265 295h110z" horiz-adv-x="512" unicode="&#x2c6;"/><glyph d="M461 1249q-15 31-25.5 48.5t-31 33-46.5 15.5q-94 0-141-199h-74q25 125 80 199.5t142 74.5q55 0 87-30.5t58-83.5q14-31 24.5-48t31-32 46.5-15q95 0 142 197h75q-59-274-223-274-55 0-87 30.5t-58 83.5z" horiz-adv-x="628" unicode="&#x2dc;"/><glyph horiz-adv-x="929" unicode="&#x2000;"/><glyph horiz-adv-x="1858" unicode="&#x2001;"/><glyph horiz-adv-x="929" unicode="&#x2002;"/><glyph horiz-adv-x="1858" unicode="&#x2003;"/><glyph horiz-adv-x="619" unicode="&#x2004;"/><glyph horiz-adv-x="464" unicode="&#x2005;"/><glyph horiz-adv-x="309" unicode="&#x2006;"/><glyph horiz-adv-x="309" unicode="&#x2007;"/><glyph horiz-adv-x="232" unicode="&#x2008;"/><glyph horiz-adv-x="371" unicode="&#x2009;"/><glyph horiz-adv-x="103" unicode="&#x200a;"/><glyph d="M541 446h-492l21 99h491z" horiz-adv-x="614" unicode="&#x2010;"/><glyph d="M541 446h-492l21 99h491z" horiz-adv-x="614" unicode="&#x2011;"/><glyph d="M541 446h-492l21 99h491z" horiz-adv-x="614" unicode="&#x2012;"/><glyph d="M1141 446h-1092l21 99h1091z" horiz-adv-x="1214" unicode="&#x2013;"/><glyph d="M1632 446h-1583l21 99h1583z" horiz-adv-x="1705" unicode="&#x2014;"/><glyph d="M449 1386l49-53q-57-29-102-77t-58-95h14q28 0 49-22t21-54q0-39-28.5-67.5t-67.5-28.5-63.5 25-24.5 73q0 84 62.5 169t148.5 130z" horiz-adv-x="448" unicode="&#x2018;"/><glyph d="M285 989l-49 53q57 29 101.5 77t57.5 95h-14q-28 0-49 22t-21 52q0 41 29 69.5t68 28.5q38 0 63-26t25-72q0-84-62.5-169t-148.5-130z" horiz-adv-x="448" unicode="&#x2019;"/><glyph d="M12-240l-49 56q57 29 102 77t58 95h-14q-28 0-49 21.5t-21 51.5q0 41 28.5 70t67.5 29q38 0 63-26.5t25-72.5q0-85-63-170.5t-148-130.5z" horiz-adv-x="448" unicode="&#x201a;"/><glyph d="M467 1386l51-53q-57-29-102-77t-58-95h15q28 0 48.5-22t20.5-54q0-39-29.5-67.5t-68.5-28.5q-37 0-61.5 25.5t-24.5 72.5q0 85 62 169.5t147 129.5zM756 1386l49-53q-57-30-102-78t-58-94h14q30 0 51-22t21-54q0-39-29.5-67.5t-68.5-28.5q-38 0-62 25t-24 73q0 85 62 169.5t147 129.5z" horiz-adv-x="737" unicode="&#x201c;"/><glyph d="M285 989l-49 53q57 29 101.5 77t57.5 95h-14q-28 0-49 22t-21 52q0 41 29 69.5t68 28.5q38 0 63-26t25-72q0-84-62.5-169t-148.5-130zM573 989l-49 53q57 29 102 77t58 95h-14q-29 0-49.5 21.5t-20.5 52.5q0 41 28.5 69.5t67.5 28.5q38 0 62-26t24-72q0-85-62-169.5t-147-129.5z" horiz-adv-x="737" unicode="&#x201d;"/><glyph d="M12-240l-49 56q57 29 102 77t58 95h-14q-28 0-49 21.5t-21 51.5q0 41 28.5 70t67.5 29q38 0 63-26.5t25-72.5q0-85-63-170.5t-148-130.5zM301-240l-49 56q57 30 102 78t58 94h-15q-29 0-50 21t-21 52q0 41 29.5 70t68.5 29q38 0 62-26.5t24-72.5q0-85-62-171t-147-130z" horiz-adv-x="737" unicode="&#x201e;"/><glyph d="M342 287q-80 0-134 54.5t-54 133.5q0 93 70.5 162.5t164.5 69.5q82 0 136.5-54.5t54.5-136.5q0-93-71.5-161t-166.5-68z" horiz-adv-x="733" unicode="&#x2022;"/><glyph d="M39 63q0 40 28.5 68.5t69.5 28.5q34 0 58-24.5t24-59.5q0-40-29-68t-69-28q-35 0-58.5 24t-23.5 59zM487 63q0 40 29.5 68.5t69.5 28.5q35 0 58.5-24.5t23.5-59.5q0-39-29.5-67.5t-69.5-28.5q-35 0-58.5 24t-23.5 59zM936 63q0 40 29 68.5t69 28.5q35 0 58.5-24.5t23.5-59.5q0-40-29-68t-69-28q-35 0-58.5 24t-23.5 59z" horiz-adv-x="1345" unicode="&#x2026;"/><glyph horiz-adv-x="371" unicode="&#x202f;"/><glyph d="M170 864l-49 33q238 432 252 455 23 34 61 34 33 0 54.5-21t21.5-54q0-22-21-49z" horiz-adv-x="376" unicode="&#x2032;"/><glyph d="M170 864l-49 33q238 432 252 455 23 34 61 34 33 0 54.5-21t21.5-54q0-22-21-49zM457 864l-49 33q240 432 254 455 20 34 59 34 34 0 55-20.5t21-54.5q0-22-21-49z" horiz-adv-x="663" unicode="&#x2033;"/><glyph d="M414 129h-109l-246 369 410 362h125l-418-373z" horiz-adv-x="567" unicode="&#x2039;"/><glyph d="M158 860h108l246-368-410-363h-125l418 373z" horiz-adv-x="567" unicode="&#x203a;"/><glyph d="M807 1366l-1176-1366h-92l1174 1366h94z" horiz-adv-x="266" unicode="&#x2044;"/><glyph horiz-adv-x="464" unicode="&#x205f;"/><glyph d="M506 848q-134 0-206.5 86.5t-72.5 230.5q0 47 9 101t27.5 115 50.5 115.5 73 99.5 101 71.5 130 26.5q134 0 206.5-86t72.5-230q0-48-9-102.5t-27.5-115-50.5-115.5-73-99.5-101-71-130-26.5zM616 1616q-64 0-116-32t-84-81.5-54-112-31-119.5-9-108q0-237 186-237 64 0 116 32t84.5 81.5 54.5 111.5 31 119 9 108q0 238-187 238z" unicode="&#x2070;"/><glyph d="M831 1081h-122l-50-219h-90l47 219h-401l14 72 486 528h125l-117-524h123zM633 1157l96 432-401-432h305z" unicode="&#x2074;"/><glyph d="M510 848q-105 0-182 40t-113 109l68 52q73-123 227-123 98 0 160.5 61t62.5 154q0 78-54.5 120t-135.5 42q-110 0-193-80l-63 26 96 432h508l-17-77h-415l-66-297q76 67 185 67 102 0 175.5-60t73.5-161q0-131-90.5-218t-226.5-87z" unicode="&#x2075;"/><glyph d="M528 848q-143 0-216.5 80t-73.5 213q0 145 50.5 271.5t144 204 208.5 77.5q82 0 151-28t103-75l-59-63q-25 41-76.5 64.5t-120.5 23.5q-72 0-133-44.5t-96-106.5-54.5-119.5-19.5-92.5v-10q114 133 248 133 109 0 182.5-58t73.5-165q0-59-20.5-113t-59-97-98.5-69-134-26zM551 1300q-115 0-221-131-4-10-4-45 0-91 55-144.5t145-53.5q100 0 159.5 65t59.5 150q0 76-53 117.5t-141 41.5z" unicode="&#x2076;"/><glyph d="M891 1618l-522-756h-103l516 742h-467l17 77h573z" horiz-adv-x="735" unicode="&#x2077;"/><glyph d="M516 848q-129 0-215 57.5t-86 157.5q0 88 74.5 152.5t189.5 76.5q-160 59-160 176 0 107 86.5 166.5t200.5 59.5q71 0 135-20.5t109-67.5 45-111q0-86-61.5-145t-182.5-76q71-26 119.5-76.5t48.5-118.5q0-100-86-165.5t-217-65.5zM606 1618q-81 0-138.5-42t-57.5-112q0-32 19-60t47.5-45.5 53-28 45.5-15.5q37 2 74 12t73 28 58.5 49.5 22.5 72.5q0 69-56 105t-141 36zM559 1249q-115-7-183.5-56.5t-68.5-123.5q0-64 61.5-105.5t143.5-41.5q86 0 150.5 45.5t64.5 115.5q0 54-46 98t-122 68z" unicode="&#x2078;"/><glyph d="M600 1696q143 0 216-80t73-215q0-144-51-270t-144.5-203.5-206.5-77.5q-83 0-152 27.5t-104 74.5l62 64q25-41 75.5-64.5t118.5-23.5q58 0 110 29.5t86 73.5 59.5 95.5 37 94.5 11.5 71v8q-114-133-248-133-109 0-181.5 58t-72.5 166q0 79 34.5 147.5t107 113 169.5 44.5zM578 1243q113 0 219 131 4 10 4 45 0 92-55 145.5t-146 53.5q-100 0-159.5-65t-59.5-150q0-76 54-118t143-42z" unicode="&#x2079;"/><glyph d="M338 754l-57-25q-80 151-80 350 0 401 319 736l45-25q-135-187-204.5-364.5t-69.5-374.5q0-164 47-297z" horiz-adv-x="303" unicode="&#x207d;"/><glyph d="M334 1790l59 25q78-153 78-351 0-402-317-735l-48 25q135 188 205 365t70 376q0 165-47 295z" horiz-adv-x="303" unicode="&#x207e;"/><glyph d="M705 668h-89l95 424q6 30 6 47 0 54-37 84t-100 30q-108 0-224-112l-102-473h-88l141 643h88l-20-97q45 48 107.5 80.5t127.5 32.5q93 0 145-45t52-123q0-27-6-57z" horiz-adv-x="802" unicode="&#x207f;"/><glyph d="M250-313q-135 0-207 86t-72 231q0 57 12 123.5t42 139 73 131 112 96.5 152 38q135 0 207-85.5t72-229.5q0-48-9-102.5t-27.5-115-50.5-115.5-73-99.5-101-71-130-26.5zM360 455q-64 0-116-32t-84-81.5-54-112-31-119.5-9-108q0-238 186-238 64 0 116 32t84.5 81.5 54.5 112 31 119.5 9 108q0 238-187 238z" unicode="&#x2080;"/><glyph d="M139-299h-94l152 690-158-135-45 61 244 203h81z" horiz-adv-x="438" unicode="&#x2081;"/><glyph d="M506-299h-576l19 78q73 45 111.5 68.5t100.5 63 95 62.5 80.5 58 72.5 59 55 55 44.5 56.5 24.5 54.5 10 57q0 69-55.5 105.5t-131.5 36.5q-144 0-231-97l-47 62q109 112 278 112 51 0 98.5-12t89.5-36 67.5-67 25.5-100q0-42-16.5-84t-42.5-79.5-69-79-85.5-75.5-104-75-112.5-72-121-73h436z" unicode="&#x2082;"/><glyph d="M268-313q-107 0-188.5 38.5t-122.5 108.5l66 51q77-121 243-121 91 0 146 53t55 132q0 60-59.5 97.5t-153.5 37.5q-45 0-57-2l16 80q62-4 121-4 92 0 148.5 42t56.5 115q0 64-59 102t-142 38q-120 0-223-90l-41 59q51 46 122.5 77t145.5 31q123 0 206-52.5t83-151.5q0-92-65-149.5t-165-65.5q64-11 112-59.5t48-116.5q0-98-81-174t-212-76z" unicode="&#x2083;"/><glyph d="M575-80h-122l-50-219h-90l47 219h-401l14 72 486 528h125l-117-524h123zM377-4l96 432-401-432h305z" unicode="&#x2084;"/><glyph d="M254-313q-106 0-183 39.5t-114 109.5l70 51q71-123 227-123 98 0 160.5 61.5t62.5 154.5q0 78-54 119.5t-136 41.5q-110 0-193-80l-63 27 96 432h508l-17-78h-415l-66-297q77 68 185 68 102 0 175.5-60t73.5-161q0-131-90.5-218t-226.5-87z" unicode="&#x2085;"/><glyph d="M272-313q-143 0-216.5 80t-73.5 213q0 145 50.5 271t144 203.5 208.5 77.5q82 0 151-27.5t103-74.5l-59-63q-25 41-76.5 64.5t-120.5 23.5q-72 0-133-44.5t-96-106.5-54.5-119.5-19.5-92.5v-10q114 133 248 133 110 0 183-58t73-167q0-122-84-212.5t-228-90.5zM295 139q-115 0-221-131-4-12-4-45 0-91 55-145t145-54q100 0 159.5 65t59.5 151q0 76-53 117.5t-141 41.5z" unicode="&#x2086;"/><glyph d="M635 457l-522-756h-103l516 741h-467l17 78h573z" horiz-adv-x="735" unicode="&#x2087;"/><glyph d="M260-313q-129 0-215 57.5t-86 157.5q0 88 74.5 152.5t189.5 76.5q-160 59-160 176 0 72 43.5 125t107 76.5 136.5 23.5q71 0 135-20.5t109-67 45-110.5q0-86-61.5-145t-182.5-76q71-26 119.5-76.5t48.5-118.5q0-100-86-165.5t-217-65.5zM350 457q-81 0-138.5-42t-57.5-112q0-32 19-60t47.5-45.5 53-28 45.5-15.5q37 2 74 11.5t73 27.5 58.5 49.5 22.5 72.5q0 69-56 105.5t-141 36.5zM303 88q-115-7-183.5-56.5t-68.5-123.5q0-64 61.5-106t143.5-42q86 0 150.5 46t64.5 116q0 54-46 98t-122 68z" unicode="&#x2088;"/><glyph d="M344 535q143 0 216-80t73-215q0-144-51-270t-144.5-203.5-206.5-77.5q-83 0-152 27.5t-104 74.5l62 64q25-41 75.5-64.5t118.5-23.5q58 0 110 29.5t86 73.5 59.5 95.5 37 94.5 11.5 71v8q-114-133-248-133-109 0-181.5 58t-72.5 165q0 124 83.5 215t227.5 91zM322 82q113 0 219 131 4 10 4 45 0 92-55 145.5t-146 53.5q-100 0-159.5-65t-59.5-150q0-76 54-118t143-42z" unicode="&#x2089;"/><glyph d="M82-408l-57-24q-80 151-80 350 0 400 319 735l45-24q-135-187-204.5-365t-69.5-377q0-165 47-295z" horiz-adv-x="303" unicode="&#x208d;"/><glyph d="M78 629l59 24q78-153 78-350 0-402-317-735l-48 24q135 187 205 365t70 377q0 165-47 295z" horiz-adv-x="303" unicode="&#x208e;"/><glyph d="M797-25q-251 0-418.5 142t-190.5 379h-118l18 84h96q0 97 27 208h-76l19 84h82q57 158 167 276t248.5 179.5 288.5 61.5q182 0 321.5-76t215.5-217l-111-52q-67 122-180.5 180t-253.5 58q-176 0-332-110.5t-231-299.5h690l-21-84h-700q-26-103-29-208h684l-18-84h-658q22-190 152-302t336-112q207 0 385 156l84-70q-101-97-225-145t-252-48z" horiz-adv-x="1413" unicode="&#x20ac;"/><glyph d="M526 1313h-127l-88-398h-57l88 398h-127l10 53h312zM950 915h-57l82 373-236-373h-16l-72 373-82-373h-57l98 451h88l60-328 203 328h88z" horiz-adv-x="929" unicode="&#x2122;"/><glyph d="M0 993h993v-993h-993v993z" horiz-adv-x="993" unicode="&#x25fc;"/><glyph d="M1001 0h-133l-258 565h-309l-125-565h-117l301 1366h469q70 0 136-23.5t118.5-66 84.5-109 32-145.5q0-192-128.5-319t-338.5-134zM326 672h381q172 0 269 99t97 245q0 104-78 174t-180 70h-360zM1415 168l-121-545h-106l303 1366h106l-32-149q62 81 149.5 127.5t190.5 46.5q172 0 278.5-109.5t106.5-298.5q0-98-23.5-192t-69.5-173-108-139-144-93.5-173-33.5q-119 0-211.5 52.5t-145.5 140.5zM2173 588q0 151-81.5 240.5t-217.5 89.5q-99 0-189.5-54.5t-146.5-136.5l-104-475q39-78 125.5-129t201.5-51q120 0 216 75t146 192 50 249z" horiz-adv-x="2377" unicode="&#xf6dd;"/><glyph d="M539 305l-68-43q-36 70-113 86l-106-481h2q92 0 164 78l51-49q-93-97-217-97h-14l-25-108h-68l27 116q-94 22-147.5 90.5t-53.5 168.5q0 94 44.5 175.5t122 130.5 169.5 50l19 86h67l-20-92q112-17 166-111zM59 68q0-73 33-123.5t94-69.5l105 477q-99-9-165.5-93t-66.5-191z" horiz-adv-x="624" unicode="&#xf6df;"/><glyph d="M795 1466l-68-43q-36 70-113 86l-106-481h2q89 0 164 78l51-49q-92-96-217-96h-14l-25-109h-68l27 117q-94 22-147.5 90.5t-53.5 167.5q0 94 44.5 175.5t122 130.5 169.5 50l19 86h67l-20-92q112-17 166-111zM315 1229q0-73 33-123.5t94-69.5l105 477q-99-9-165.5-93t-66.5-191z" horiz-adv-x="624" unicode="&#xf6e0;"/><glyph d="M-113-453l-34 41q35 20 63.5 50.5t34.5 56.5q-4-2-8-2-19 0-34 15t-15 40q0 30 22 49t51 19q24 0 41-17t17-45q0-56-43-116.5t-95-90.5z" horiz-adv-x="268" unicode="&#xf6e1;"/><glyph d="M143 709l-32 41q33 20 62 50t36 56q-1 0-4.5-1t-5.5-1q-19 0-34 15t-15 40q0 30 22 50t51 20q24 0 41-18t17-46q0-56-42.5-116t-95.5-90z" horiz-adv-x="268" unicode="&#xf6e2;"/><glyph d="M406 451l-64-295q40-15 66.5-27.5t59-33 51.5-42 32.5-53.5 13.5-70q0-98-76.5-170.5t-226.5-72.5h-24l-25-109h-68l25 115q-173 27-248 143l70 58q67-103 194-127l70 319q-53 19-85 34t-69 40.5-55 61-18 81.5q0 92 83 160.5t214 68.5h30l25 113h68l-27-123q67-15 121-49t84-78l-66-51q-49 78-155 107zM127 311q0-46 37.5-74.5t111.5-56.5l64 281h-14q-84 0-141.5-42.5t-57.5-107.5zM262-240q94 0 149.5 45t55.5 117q0 51-37 81t-111 60l-65-303h8z" horiz-adv-x="745" unicode="&#xf6e3;"/><glyph d="M662 1612l-64-295q49-18 83-34.5t69-43 53-63 18-82.5-17.5-88.5-52.5-78.5-95.5-57.5-137.5-21.5h-24l-25-109h-68l25 115q-173 27-248 143l70 58q69-101 194-125l70 317q-53 19-85 34t-69 40.5-55 61-18 81.5q0 92 83 161t214 69h30l25 112h68l-27-123q67-15 121-49t84-78l-66-51q-49 78-155 107zM383 1473q0-46 38-75t111-57l64 281h-14q-84 0-141.5-42t-57.5-107zM518 922q94 0 149.5 44.5t55.5 116.5q0 51-37.5 82t-110.5 60l-65-303h8z" horiz-adv-x="745" unicode="&#xf6e4;"/><glyph d="M246 72h-305l16 73h303z" horiz-adv-x="376" unicode="&#xf6e5;"/><glyph d="M502 1235h-303l14 74h303z" horiz-adv-x="376" unicode="&#xf6e6;"/><glyph d="M-37-309q-25 0-41 16t-16 41q0 28 22.5 48t51.5 20q25 0 41-16t16-42-23-46.5-51-20.5z" horiz-adv-x="278" unicode="&#xf6e7;"/><glyph d="M219 852q-25 0-41 16t-16 41q0 27 23 48.5t51 21.5q25 0 41-16t16-41q0-27-23-48.5t-51-21.5z" horiz-adv-x="278" unicode="&#xf6e8;"/><glyph d="M850 1556h88l-197-888h-88l23 102q-96-119-232-119-108 0-183 72t-75 205q0 104 44.5 195.5t125.5 147.5 179 56q80 0 141.5-31t97.5-86zM279 934q0-100 52.5-155.5t139.5-55.5q119 0 221 117l70 311q-26 47-85 75.5t-130 28.5q-113 0-190.5-95t-77.5-226z" horiz-adv-x="837" unicode="&#xf6eb;"/><glyph d="M254 668h-88l141 643h88l-24-107q67 63 122.5 92t127.5 29l-21-88q-8 4-37 4-54 0-114.5-31.5t-92.5-76.5z" horiz-adv-x="477" unicode="&#xf6f1;"/><glyph d="M131 774l55 47q30-46 88-75t127-29q74 0 121 35t47 84q0 26-12.5 46t-39 36-48.5 25.5-61 23.5q-38 13-57.5 20.5t-50.5 24-46.5 32.5-28 41-12.5 56q0 72 68.5 129t179.5 57q165 0 250-110l-54-50q-32 43-84 69t-114 26q-72 0-115-33t-43-84q0-17 9-31.5t19-24 34.5-21 37.5-16 45-16.5q48-15 76-26.5t64-34 53.5-56 17.5-77.5q0-72-68.5-131.5t-187.5-59.5q-176 0-270 123z" horiz-adv-x="669" unicode="&#xf6f2;"/><glyph d="M197 762q0 19 4 39l96 442h-109l15 68h108l39 176h88l-39-176h133l-14-68h-133l-94-432q-4-20-4-33 0-55 63-55 35 0 68 25l14-64q-45-33-102-33-58 0-95.5 25.5t-37.5 85.5z" horiz-adv-x="395" unicode="&#xf6f3;"/><glyph d="M764 1386q208 0 317-140t109-382q0-120-26.5-244.5t-80.5-240-127.5-206-175.5-144.5-217-54q-208 0-319 141.5t-111 383.5q0 120 27 244.5t81.5 239 128.5 204.5 176.5 144 217.5 54zM752 1280q-89 0-169-49t-138.5-130-102-183.5-65-212.5-21.5-213q0-116 29-199l716 862q-82 125-249 125zM573 82q110 0 206 75t158 192 97 255 35 268q0 115-29 201l-716-864q78-127 249-127z" horiz-adv-x="1245"/><glyph d="M600 0h-612l22 106h246l242 1100-269-233-55 76 371 317h106l-276-1260h248z" horiz-adv-x="794"/><glyph d="M113 500q0 120 26.5 244.5t80.5 239 128 204.5 176 144 217 54q209 0 318.5-140t109.5-382q0-100-19-204t-54.5-203-90.5-186.5-122.5-153.5-155.5-104-184-38q-209 0-319.5 141.5t-110.5 383.5zM1047 872q0 89-17.5 161.5t-54 128.5-98.5 87-146 31q-89 0-170-49t-139.5-130-102-183.5-65-212.5-21.5-213q0-185 78.5-297.5t241.5-112.5q74 0 143 34.5t122 94 97 138 72.5 166.5 44 179.5 15.5 177.5z" horiz-adv-x="1204"/><glyph d="M623 0h-119l266 1206-418-364-57 78 522 446h107z" horiz-adv-x="1204"/><glyph d="M932 0h-901l28 123q137 87 225 144.5t201.5 136 184.5 136 147.5 128 119 128.5 70 122 27.5 124q0 111-87 174.5t-228 63.5q-214 0-354-137l-64 82q73 73 186 117t236 44q87 0 163.5-20.5t138.5-61 98-107 36-150.5q0-69-27.5-140.5t-71.5-136-116.5-137.5-144-133-174-134-187-130-200.5-130h716z" horiz-adv-x="1204"/><glyph d="M74 260l94 62q45-110 153.5-175t241.5-65q164 0 262.5 92t98.5 236q0 108-89.5 173.5t-236.5 65.5q-94 0-117-2l27 111q31-2 182-2 94 0 172.5 29.5t130 94.5 51.5 156q0 104-91 174t-240 70q-195 0-351-143l-57 82q77 77 188 122t226 45q197 0 320.5-89.5t123.5-249.5q0-78-33-144.5t-87-110-118.5-69.5-131.5-31q106-25 176.5-101t70.5-188q0-178-133.5-303t-343.5-125q-167 0-304.5 80t-184.5 205z" horiz-adv-x="1204"/><glyph d="M772 0h-119l82 373h-647l27 112 792 881h166l-196-887h198l-22-106h-199zM758 479l172 770-699-770h527z" horiz-adv-x="1204"/><glyph d="M90 252l96 67q101-237 383-237 157 0 268 108t111 265q0 137-93 213.5t-239 76.5q-157 0-297-104l-79 47 149 678h791l-23-106h-672l-112-506q49 39 127 66.5t166 27.5q109 0 199.5-42t148-131 57.5-210q0-131-64-242.5t-182-179.5-264-68q-175 0-290.5 69t-180.5 208z" horiz-adv-x="1204"/><glyph d="M139 467q0 92 16.5 192.5t49 204.5 86.5 197 123 166 164.5 116 205.5 43q138 0 239.5-55.5t154.5-156.5l-88-76q-38 87-119 134.5t-193 47.5q-85 0-159-35.5t-126.5-92.5-96-136-70.5-157.5-47-166.5q-9-27-9-39 63 72 177 131.5t233 59.5q181 0 293-95.5t112-259.5q0-135-65.5-253t-183.5-189.5-261-71.5q-211 0-323.5 128t-112.5 364zM963 473q0 124-87.5 196t-234.5 72q-107 0-205.5-52t-179.5-144q-4-36-4-109 0-160 85.5-257t242.5-97q108 0 197 55.5t137.5 145 48.5 190.5z" horiz-adv-x="1204"/><glyph d="M360 0h-137l850 1260h-749l22 106h893l-18-82z" horiz-adv-x="1204"/><glyph d="M92 317q0 156 117.5 261.5t310.5 140.5q-104 39-177 114t-73 179q0 74 27.5 137t73 106 105.5 73 124.5 44 130.5 14q117 0 216-38t161.5-114 62.5-177q0-149-110.5-244t-290.5-121q47-20 90-47t85.5-67 67.5-95 25-118q0-110-64.5-200t-173.5-140-239-50q-207 0-338 90t-131 252zM1047 1044q0 99-93.5 166.5t-226.5 67.5q-139 0-238.5-73.5t-99.5-198.5q0-61 44.5-116t103.5-88 120-48q175 14 282.5 88.5t107.5 201.5zM920 373q0 53-27.5 102t-71.5 83.5-91.5 58.5-94.5 36q-182-12-301-99t-119-218q0-120 100-187t248-67q89 0 169.5 33.5t134 101.5 53.5 156z" horiz-adv-x="1204"/><glyph d="M1145 897q0-79-11.5-164.5t-37-175.5-62.5-173.5-90.5-158-118-129.5-149-87-178.5-32q-138 0-239.5 56t-154.5 157l89 76q39-87 119-134.5t192-47.5q85 0 159 35.5t127 92.5 96.5 136 70.5 157.5 47 166.5q4 11 7 23t3 14q-67-72-180-130.5t-230-58.5q-183 0-295 95t-112 259q0 135 65.5 253t183.5 190 261 72q211 0 324.5-128t113.5-364zM317 891q0-123 89-195.5t235-72.5q212 0 387 196 2 18 2 109 0 160-85.5 257t-242.5 97q-163 0-274-117.5t-111-273.5z" horiz-adv-x="1204"/><glyph d="M582-25q-228 0-347.5 128t-119.5 352q0 85 22.5 178.5t70 186 113.5 166 161.5 119.5 205.5 46q228 0 347.5-128t119.5-351q0-86-22.5-179.5t-70-186-113.5-166.5-161.5-119.5-205.5-45.5zM688 1044q-88 0-164-39.5t-127.5-102.5-88-141.5-53.5-155-17-144.5q0-183 86.5-281t257.5-98q89 0 165 40t127 102.5 88 141 53.5 155.5 16.5 145q0 183-86 280.5t-258 97.5z" horiz-adv-x="1245"/><glyph d="M350 0h-117l211 967-268-234-55 76 371 317h106z" horiz-adv-x="630"/><glyph d="M870 0h-850l21 102q170 67 304 130t249 132 191 136.5 118.5 142 42.5 150.5q0 112-87 181.5t-220 69.5q-224 0-389-159l-62 80q186 186 459 186 117 0 211.5-38.5t152.5-117.5 58-186q0-88-44-174t-117.5-158-178-141-214.5-124-239-106h617z" horiz-adv-x="1179"/><glyph d="M-55 25l94 61q45-110 153.5-175t241.5-65q164 0 262.5 92t98.5 236q0 108-89.5 174t-236.5 66q-94 0-117-2l27 110q31-2 182-2 94 0 172.5 29.5t130 95 51.5 156.5q0 104-90.5 173.5t-238.5 69.5q-197 0-353-143l-57 82q79 77 189.5 122.5t226.5 45.5q195 0 318.5-90t123.5-250q0-78-33-144.5t-87-110-118.5-69-131.5-30.5q106-25 176.5-101t70.5-188q0-86-34.5-164t-95.5-136.5-151-93-194-34.5q-168 0-306 79.5t-185 205.5z" horiz-adv-x="1114"/><glyph d="M954 135h-198l-84-375h-117l82 375h-647l24 107 801 884h158l-195-884h199zM659 242l170 768-696-768h526z" horiz-adv-x="1107"/><glyph d="M33 12l94 68q104-238 385-238 155 0 266 108t111 265q0 137-92 214t-238 77q-158 0-299-105l-78 48 150 677h788l-22-106h-672l-113-506q51 40 128.5 67t164.5 27q109 0 199.5-42t148.5-131 58-210q0-98-38-187t-104-156-162-106.5-206-39.5q-340 0-469 276z" horiz-adv-x="1191"/><glyph d="M125 467q0 79 11.5 164t37 175 62.5 173.5 90.5 157.5 118 129.5 149 87.5 178.5 32q138 0 239-55.5t154-156.5l-88-76q-39 87-119 134.5t-192 47.5q-85 0-159-35.5t-127-92.5-96.5-136-70.5-157.5-47-166.5q-1-3-10-39 65 73 178.5 132t231.5 59q182 0 294.5-95.5t112.5-259.5q0-135-65.5-253t-183.5-189.5-261-71.5q-211 0-324.5 128t-113.5 364zM950 473q0 124-87.5 196t-233.5 72q-212 0-387-196-4-36-4-109 0-160 85.5-257t243.5-97q162 0 272.5 117.5t110.5 273.5z" horiz-adv-x="1196"/><glyph d="M219-240h-135l848 1260h-750l23 106h895l-19-82z" horiz-adv-x="1028"/><glyph d="M76 317q0 156 117.5 261.5t310.5 140.5q-104 39-177 114t-73 179q0 74 27.5 137t73 106 105.5 73 124.5 44 130.5 14q117 0 216-38t161.5-114 62.5-177q0-149-110.5-244t-290.5-121q47-20 90-47t85.5-67 67.5-95 25-118q0-110-64.5-200t-173.5-140-239-50q-207 0-338 90t-131 252zM1030 1044q0 99-93 166.5t-226 67.5q-139 0-238.5-73.5t-99.5-198.5q0-61 44.5-116t103.5-88 120-48q175 14 282 88.5t107 201.5zM903 373q0 53-27.5 102t-71.5 83.5-91.5 58.5-94.5 36q-182-12-300.5-99t-118.5-218q0-120 100-187t248-67q89 0 169 33.5t133.5 101.5 53.5 156z" horiz-adv-x="1169"/><glyph d="M1096 659q0-79-11.5-164.5t-37-175.5-62-173-90-157.5-118-129.5-149-87-179.5-32q-138 0-239 56t-153 157l86 76q39-87 120-135t194-48q85 0 158.5 35.5t126 92.5 96 136.5 71 157.5 47.5 166q2 7 4 15.5t3.5 13.5 1.5 8q-65-72-178.5-130t-231.5-58q-183 0-295.5 95.5t-112.5 258.5q0 135 66 253t184 189.5 260 71.5q212 0 325.5-128t113.5-364zM270 653q0-124 88-196t234-72q215 0 387 197 4 36 4 108 0 160-85.5 257t-244.5 97q-162 0-272.5-117.5t-110.5-273.5z" horiz-adv-x="1196"/><glyph d="M137 567q0 181 64.5 337t172.5 261 249.5 164.5 294.5 59.5q167 0 301-75t208-206l-104-53q-61 111-175 169t-249 58q-93 0-184.5-31.5t-172.5-93.5-143.5-146.5-98.5-198.5-36-241q0-224 132-356.5t349-132.5q115 0 213 38.5t169.5 107 122 155 81.5 190.5h-620l22 105h744q-68-332-258.5-517.5t-491.5-185.5q-260 0-425 163.5t-165 428.5z" horiz-adv-x="1531"/><glyph d="M799 0h-109l25 111q-72-69-145.5-102.5t-168.5-33.5q-66 0-125 17.5t-106 51.5-74.5 90.5-27.5 127.5q0 169 107.5 270t262.5 101q229 0 357-156l43 189q8 36 8 67 0 83-73.5 136t-190.5 53q-182 0-312-127l-45 77q167 142 369 142 155 0 257.5-69t102.5-200q0-42-12-88zM733 190l47 216q-40 70-124 106.5t-189 36.5q-125 0-205-79t-80-198q0-102 70.5-157.5t183.5-55.5q169 0 297 131z" horiz-adv-x="1067"/><glyph d="M90 127q0 31 6 66l260 1173h107l-256-1157q-6-30-6-51 0-41 28-63.5t74-22.5q54 0 105 37l20-86q-63-48-141-48-90 0-143.5 40t-53.5 112z" horiz-adv-x="524"/><glyph d="M-27-233l70 69q107-145 328-145 282 0 352 319l33 146q-87-79-173-124.5t-182-45.5q-125 0-205.5 58t-80.5 179q0 43 10 88l149 678h107l-148-661q-8-39-8-76 0-92 61-131t156-39q88 0 178 49.5t158 122.5l164 735h107l-215-975q-94-415-463-415-137 0-232.5 40t-165.5 128z" horiz-adv-x="1105"/><glyph d="M647 1126h131l238-1126h-123l-59 272h-613l-174-272h-133zM819 373l-127 637-411-637h538z" horiz-adv-x="1150"/><glyph d="M580 0h-525l248 1126h436q140 0 233-65t93-189q0-108-68-193.5t-188-107.5q70-26 116-92t46-141q0-149-104-243.5t-287-94.5zM303 629h402q111 0 175 68t64 161q0 84-63.5 126t-163.5 42h-322zM188 100h396q116 0 192 68t76 172q0 84-56 136t-155 52h-358z" horiz-adv-x="1107"/><glyph d="M109 485q0 133 54 256.5t144.5 213 213 143 253.5 53.5q139 0 255.5-62.5t178.5-168.5l-94-48q-51 81-145 130t-197 49q-105 0-204.5-43.5t-174.5-117.5-120.5-178.5-45.5-219.5q0-186 122.5-301t312.5-115q207 0 346 145l79-63q-189-183-428-183-242 0-396 139.5t-154 370.5z" horiz-adv-x="1189"/><glyph d="M459 0h-404l248 1126h340q154 0 275-67t185-177.5 64-242.5q0-93-27.5-183.5t-85-173-139.5-145.5-200-100-256-37zM479 100q134 0 244.5 46.5t180.5 123 107.5 171 37.5 194.5q0 171-116 281t-306 110h-234l-205-926h291z" horiz-adv-x="1251"/><glyph d="M809 0h-754l248 1126h754l-23-100h-639l-90-397h631l-23-101h-630l-95-428h641z" horiz-adv-x="1034"/><glyph d="M168 0h-113l248 1126h754l-23-100h-639l-90-397h631l-23-101h-630z" horiz-adv-x="991"/><glyph d="M109 477q0 131 51 253.5t138.5 215.5 212.5 149 265 56q137 0 256.5-61.5t190.5-161.5l-95-56q-50 75-148 127t-210 52q-150 0-276-80t-196.5-210-70.5-278q0-178 125.5-293.5t311.5-115.5q173 0 301 90l67 307h-381l21 96h493l-98-456q-176-136-405-136-154 0-279.5 61t-199.5 176.5-74 264.5z" horiz-adv-x="1290"/><glyph d="M1012 0h-111l117 530h-733l-117-530h-113l248 1126h113l-111-497h733l111 497h111z" horiz-adv-x="1288"/><glyph d="M168 0h-113l248 1126h113z" horiz-adv-x="442"/><glyph d="M-57 135l80 72q72-131 227-131 232 0 287 252l176 798h112l-176-802q-77-349-393-349-225 0-313 160z" horiz-adv-x="854"/><glyph d="M915 0h-139l-368 526-154-135-86-391h-113l248 1126h113l-131-596 684 596h147l-624-536z" horiz-adv-x="1067"/><glyph d="M735 0h-680l248 1126h113l-228-1026h568z" horiz-adv-x="929"/><glyph d="M1163 0h-112l215 967-633-967h-47l-203 967-215-967h-113l248 1126h154l194-919 600 919h160z" horiz-adv-x="1439"/><glyph d="M1004 0h-111l-512 977-213-977h-113l248 1126h113l512-962 211 962h112z" horiz-adv-x="1280"/><glyph d="M109 487q0 173 82 325t230.5 245.5 326.5 93.5q246 0 388-142.5t142-369.5q0-172-82-324t-230.5-246-326.5-94q-245 0-387.5 142.5t-142.5 369.5zM1161 635q0 182-111.5 299t-304.5 117q-113 0-211.5-47t-165-124.5-105-178.5-38.5-209q0-182 111.5-299t304.5-117q151 0 271.5 79.5t184.5 206.5 64 273z" horiz-adv-x="1363"/><glyph d="M168 0h-113l248 1126h399q156 0 249-78.5t93-205.5q0-159-111.5-271t-295.5-112h-369zM291 559h352q129 0 206 80t77 199q0 88-63 138t-177 50h-291z" horiz-adv-x="1042"/><glyph d="M1278 639q0-158-70-300t-192-235l69-100-84-59-73 102q-138-72-289-72-245 0-387.5 142.5t-142.5 369.5q0 173 82 325t230.5 245.5 326.5 93.5q246 0 388-142.5t142-369.5zM641 76q122 0 229 55l-145 203 86 61 145-209q97 79 151 198t54 251q0 182-111.5 299t-304.5 117q-113 0-211.5-47t-165-124.5-105-178.5-38.5-209q0-182 111.5-299t304.5-117z" horiz-adv-x="1363"/><glyph d="M881 0h-136l-221 459h-256l-100-459h-113l248 1126h406q151 0 244.5-81t93.5-207q0-56-14.5-108t-46-100-78-84-114.5-58.5-151-24.5zM291 559h344q137 0 215 78t78 194q0 88-65.5 141.5t-168.5 53.5h-299z" horiz-adv-x="1091"/><glyph d="M20 174l84 76q55-79 157.5-126.5t225.5-47.5q79 0 137.5 20.5t90.5 55 47.5 74 15.5 83.5q0 30-9 56t-31 47.5-41.5 37-57.5 33-61.5 27-69.5 27.5q-43 16-68.5 26t-64.5 28-62.5 33.5-51 39-43 47.5-26 56.5-10.5 68.5q0 130 121 222.5t283 92.5q132 0 240-50.5t167-131.5l-78-74q-46 72-138 114t-193 42q-116 0-198.5-61t-82.5-152q0-30 15-56.5t35-45 58-38 67.5-31.5 78.5-30q37-14 54.5-21t52.5-22 53.5-25 47.5-27.5 44.5-33 35.5-38 30-45 17-51.5 7-61q0-63-24-121.5t-72-108-130.5-79-189.5-29.5q-150 0-270.5 50t-192.5 149z" horiz-adv-x="1021"/><glyph d="M422 0h-113l226 1026h-361l23 100h835l-22-100h-363z" horiz-adv-x="952"/><glyph d="M582-25q-209 0-327 96t-118 265q0 28 13 104l153 686h113l-152-684q-10-48-10-96 0-130 89-200t243-70q156 0 246 89.5t129 268.5l153 692h113l-154-696q-49-228-163.5-341.5t-327.5-113.5z" horiz-adv-x="1255"/><glyph d="M530 0h-131l-237 1126h125l202-999 646 999h129z" horiz-adv-x="1150"/><glyph d="M1055 0h-119l-72 948-487-948h-119l-90 1126h121l65-964 498 964h100l70-966 494 966h124z" horiz-adv-x="1533"/><glyph d="M1008 0h-136l-297 500-514-500h-143l602 578-327 548h135l274-469 483 469h144l-570-546z" horiz-adv-x="1146"/><glyph d="M502 0h-113l107 481-334 645h131l276-544 510 544h138l-611-645z" horiz-adv-x="1103"/><glyph d="M856 0h-883l19 88 926 938h-717l20 100h869l-19-90-926-936h732z" horiz-adv-x="1050"/><glyph d="M909 1776l-417-295h-95l381 295h131zM1870 1776l-418-295h-94l381 295h131zM176 0h-117l301 1366h117zM418 156l78 82q84-156 274-156 136 0 221 84t117 229l213 971h119l-213-971q-46-210-162-315t-289-105q-119 0-213.5 46.5t-144.5 134.5z" horiz-adv-x="1419"/><glyph d="M1155 1434l-418-295h-94l381 295h131zM799 0h-109l25 111q-72-69-145.5-102.5t-168.5-33.5q-66 0-125 17.5t-106 51.5-74.5 90.5-27.5 127.5q0 169 107.5 270t262.5 101q229 0 357-156l43 189q8 36 8 67 0 83-73.5 136t-190.5 53q-182 0-312-127l-45 77q167 142 369 142 155 0 257.5-69t102.5-200q0-42-12-88zM733 190l47 216q-40 70-124 106.5t-189 36.5q-125 0-205-79t-80-198q0-102 70.5-157.5t183.5-55.5q169 0 297 131z" horiz-adv-x="1067"/><glyph d="M950 1139h-78l-127 231-223-231h-84l264 295h111zM799 0h-109l25 111q-72-69-145.5-102.5t-168.5-33.5q-66 0-125 17.5t-106 51.5-74.5 90.5-27.5 127.5q0 169 107.5 270t262.5 101q229 0 357-156l43 189q8 36 8 67 0 83-73.5 136t-190.5 53q-182 0-312-127l-45 77q167 142 369 142 155 0 257.5-69t102.5-200q0-42-12-88zM733 190l47 216q-40 70-124 106.5t-189 36.5q-125 0-205-79t-80-198q0-102 70.5-157.5t183.5-55.5q169 0 297 131z" horiz-adv-x="1067"/><glyph d="M502 1163q-29 0-49.5 20t-20.5 48q0 35 26 60.5t60 25.5q29 0 48.5-20.5t19.5-49.5q0-34-25-59t-59-25zM920 1163q-29 0-48.5 20t-19.5 48q0 35 25 60.5t59 25.5q29 0 48.5-20.5t19.5-49.5q0-34-25-59t-59-25zM799 0h-109l25 111q-72-69-145.5-102.5t-168.5-33.5q-66 0-125 17.5t-106 51.5-74.5 90.5-27.5 127.5q0 169 107.5 270t262.5 101q229 0 357-156l43 189q8 36 8 67 0 83-73.5 136t-190.5 53q-182 0-312-127l-45 77q167 142 369 142 155 0 257.5-69t102.5-200q0-42-12-88zM733 190l47 216q-40 70-124 106.5t-189 36.5q-125 0-205-79t-80-198q0-102 70.5-157.5t183.5-55.5q169 0 297 131z" horiz-adv-x="1067"/><glyph d="M735 1139h-90l-287 295h127zM799 0h-109l25 111q-72-69-145.5-102.5t-168.5-33.5q-66 0-125 17.5t-106 51.5-74.5 90.5-27.5 127.5q0 169 107.5 270t262.5 101q229 0 357-156l43 189q8 36 8 67 0 83-73.5 136t-190.5 53q-182 0-312-127l-45 77q167 142 369 142 155 0 257.5-69t102.5-200q0-42-12-88zM733 190l47 216q-40 70-124 106.5t-189 36.5q-125 0-205-79t-80-198q0-102 70.5-157.5t183.5-55.5q169 0 297 131z" horiz-adv-x="1067"/><glyph d="M535 1300q0 86 64.5 151t150.5 65q78 0 128-50.5t50-128.5q0-88-63.5-151.5t-151.5-63.5q-78 0-128 50t-50 128zM862 1331q0 53-31 86t-83 33q-59 0-102.5-42.5t-43.5-100.5q0-53 31-86t82-33q60 0 103.5 41.5t43.5 101.5zM799 0h-109l25 111q-72-69-145.5-102.5t-168.5-33.5q-66 0-125 17.5t-106 51.5-74.5 90.5-27.5 127.5q0 169 107.5 270t262.5 101q229 0 357-156l43 189q8 36 8 67 0 83-73.5 136t-190.5 53q-182 0-312-127l-45 77q167 142 369 142 155 0 257.5-69t102.5-200q0-42-12-88zM733 190l47 216q-40 70-124 106.5t-189 36.5q-125 0-205-79t-80-198q0-102 70.5-157.5t183.5-55.5q169 0 297 131z" horiz-adv-x="1067"/><glyph d="M694 1249q-11 23-18.5 36.5t-20 29.5-28 23.5-35.5 7.5q-94 0-141-199h-74q25 125 79.5 199.5t141.5 74.5q55 0 87-30.5t58-83.5q14-30 25-47.5t31.5-32.5 46.5-15q94 0 141 197h76q-59-274-223-274-55 0-87.5 31t-58.5 83zM799 0h-109l25 111q-72-69-145.5-102.5t-168.5-33.5q-66 0-125 17.5t-106 51.5-74.5 90.5-27.5 127.5q0 169 107.5 270t262.5 101q229 0 357-156l43 189q8 36 8 67 0 83-73.5 136t-190.5 53q-182 0-312-127l-45 77q167 142 369 142 155 0 257.5-69t102.5-200q0-42-12-88zM733 190l47 216q-40 70-124 106.5t-189 36.5q-125 0-205-79t-80-198q0-102 70.5-157.5t183.5-55.5q169 0 297 131z" horiz-adv-x="1067"/><glyph d="M1733 461h-789q-4-20-4-55 0-148 83.5-243t254.5-95q152 0 274 106l43-78q-148-121-317-121-159 0-265.5 70t-144.5 203q-56-125-171-199t-253-74q-74 0-140.5 17.5t-119.5 51.5-84.5 90.5-31.5 127.5q0 88 35 160.5t92 117 126.5 69 141.5 24.5q117 0 218.5-42t158.5-114l26 125q15 68 15 123 0 97-81 147t-204 50q-182 0-326-127l-45 77q80 71 181 106.5t204 35.5q153 0 249-61t102-191q57 112 164 182t235 70q181 0 284-115t103-313q0-69-14-125zM961 545h684q2 14 2 45 0 154-77.5 243t-226.5 89q-60 0-115.5-23t-97-60-76-87-57-101.5-36.5-105.5zM811 346l12 60q-35 66-131.5 104.5t-199.5 38.5q-127 0-218.5-79.5t-91.5-193.5q0-98 79-153t194-55q122 0 226 80t130 198z" horiz-adv-x="1845"/><glyph d="M596 895h-201l-198-895h-107l199 895h-164l20 94h164l19 90q68 307 307 307 92 0 156-43l-46-77q-38 28-108 28-82 0-129.5-54t-71.5-161l-20-90h200zM633 127q0 31 6 66l260 1173h107l-256-1157q-7-35-7-51 0-41 28.5-63.5t74.5-22.5q53 0 104 37l21-86q-63-48-142-48-89 0-142.5 40t-53.5 112z" horiz-adv-x="1064"/><glyph d="M596 895h-201l-198-895h-107l199 895h-164l20 94h164l19 90q68 307 307 307 92 0 156-43l-46-77q-38 28-108 28-82 0-129.5-54t-71.5-161l-20-90h200zM958 989h201l-20-94h-201l-199-895h-106l198 895h-163l20 94h164l18 90q68 307 308 307 91 0 155-43l-45-77q-38 28-108 28-82 0-129.5-54t-71.5-161zM1174 127q0 31 6 66l260 1173h106l-256-1157q-6-30-6-51 0-41 28-63.5t74-22.5q54 0 105 37l20-86q-63-48-141-48-89 0-142.5 40t-53.5 112z" horiz-adv-x="1607"/><glyph d="M297 1229q0 40 29 66t63 26q32 0 54-21t22-51q0-40-29-66t-63-26q-32 0-54 21t-22 51zM162 0h-107l219 989h107z" horiz-adv-x="438"/><glyph d="M823 1434l-417-295h-95l381 295h131zM1262 1434l-418-295h-94l380 295h132zM162 0h-107l219 989h107zM162-377l31 88q37-18 88-18 141 0 184 180l248 1116h106l-248-1116q-31-139-99-206.5t-185-67.5q-73 0-125 24z" horiz-adv-x="876"/><glyph d="M698-25q-139 0-233.5 43.5t-173.5 141.5l76 67q123-161 333-161 120 0 189 63t69 145q0 28-13.5 52.5t-31.5 41.5-53 34.5-60.5 28-70.5 26.5q-40 15-59.5 22.5t-56 23.5-55 28.5-44.5 32.5-38.5 40-22 47-9.5 58q0 25 5.5 48t11.5 41 21.5 37 25 31 32 28 33 23 38 22 36.5 19 39 19q37 18 54 26.5t45 25.5 41 31 23.5 35 10.5 44q0 67-68 109t-147 42q-103 0-182-67t-103-181l-231-1042h-106l229 1042q34 152 136.5 248t256.5 96q82 0 156-27t122-81 48-123q0-41-14-75.5t-33-57.5-53.5-46-60-35.5-67.5-31.5q-41-19-59-27.5t-49.5-28-45.5-35.5-26-41-12-54q0-27 13.5-50t30.5-38 53-33 58.5-27 69.5-26q41-15 61-22.5t56.5-24 56-29 45.5-33 39.5-41.5 23-49.5 9.5-60.5q0-59-23.5-114t-68-100.5-116.5-72.5-161-27z" horiz-adv-x="1148"/><glyph d="M1161 1434l-418-295h-94l381 295h131zM-27-233l70 69q107-145 328-145 282 0 352 319l33 146q-87-79-173-124.5t-182-45.5q-125 0-205.5 58t-80.5 179q0 43 10 88l149 678h107l-148-661q-8-39-8-76 0-92 61-131t156-39q88 0 178 49.5t158 122.5l164 735h107l-215-975q-94-415-463-415-137 0-232.5 40t-165.5 128z" horiz-adv-x="1105"/><glyph d="M508 1163q-29 0-49.5 20t-20.5 48q0 35 26 60.5t60 25.5q29 0 48.5-20.5t19.5-49.5q0-34-25-59t-59-25zM926 1163q-29 0-48.5 20t-19.5 48q0 35 25 60.5t59 25.5q29 0 48.5-20.5t19.5-49.5q0-34-25-59t-59-25zM-27-233l70 69q107-145 328-145 282 0 352 319l33 146q-87-79-173-124.5t-182-45.5q-125 0-205.5 58t-80.5 179q0 43 10 88l149 678h107l-148-661q-8-39-8-76 0-92 61-131t156-39q88 0 178 49.5t158 122.5l164 735h107l-215-975q-94-415-463-415-137 0-232.5 40t-165.5 128z" horiz-adv-x="1105"/><glyph d="M1204 1536l-418-295h-94l381 295h131zM647 1126h131l238-1126h-123l-59 272h-613l-174-272h-133zM819 373l-127 637-411-637h538z" horiz-adv-x="1150"/><glyph d="M999 1241h-77l-127 232-224-232h-84l265 295h110zM647 1126h131l238-1126h-123l-59 272h-613l-174-272h-133zM819 373l-127 637-411-637h538z" horiz-adv-x="1150"/><glyph d="M551 1266q-29 0-49.5 19.5t-20.5 47.5q0 35 26 60.5t60 25.5q29 0 48.5-20t19.5-49q0-34-25-59t-59-25zM969 1266q-29 0-48.5 19.5t-19.5 47.5q0 35 25 60.5t59 25.5q29 0 48.5-20t19.5-49q0-34-25-59t-59-25zM647 1126h131l238-1126h-123l-59 272h-613l-174-272h-133zM819 373l-127 637-411-637h538z" horiz-adv-x="1150"/><glyph d="M784 1241h-90l-286 295h127zM647 1126h131l238-1126h-123l-59 272h-613l-174-272h-133zM819 373l-127 637-411-637h538z" horiz-adv-x="1150"/><glyph d="M584 1403q0 86 64.5 150.5t150.5 64.5q78 0 128-50t50-128q0-88-63.5-151.5t-151.5-63.5q-78 0-128 50t-50 128zM911 1434q0 53-31 85.5t-83 32.5q-59 0-102.5-42.5t-43.5-100.5q0-53 31-86t82-33q60 0 103.5 42t43.5 102zM647 1126h131l238-1126h-123l-59 272h-613l-174-272h-133zM819 373l-127 637-411-637h538z" horiz-adv-x="1150"/><glyph d="M743 1352q-15 31-25 48t-30.5 32.5-46.5 15.5q-94 0-141-199h-74q25 125 79.5 200t141.5 75q55 0 87.5-31t58.5-84q14-30 24.5-47t31-32 46.5-15q94 0 141 196h76q-59-274-223-274-55 0-87.5 31t-58.5 84zM647 1126h131l238-1126h-123l-59 272h-613l-174-272h-133zM819 373l-127 637-411-637h538z" horiz-adv-x="1150"/><glyph d="M1436 0h-756l61 272h-462l-234-272h-131l975 1126h794l-20-100h-643l-88-397h629l-21-101h-631l-94-428h643zM762 373l141 637-545-637h404z" horiz-adv-x="1660"/><glyph d="M772 1051q-105 0-204.5-43.5t-174.5-117.5-120.5-178.5-45.5-219.5q0-186 122.5-301t312.5-115q207 0 346 145l79-63q-189-183-428-183h-38l-56-92q32 25 70 25 53 0 86-31t33-86q0-79-59.5-128.5t-155.5-49.5q-133 0-213 76l47 61q66-69 170-69 66 0 100.5 29.5t34.5 74.5q0 31-22 49.5t-60 18.5q-48 0-76-35l-49 32 78 134q-199 31-319.5 165t-120.5 336q0 133 54 256.5t144.5 213 213 143 253.5 53.5q139 0 255.5-62.5t178.5-168.5l-94-48q-51 81-145 130t-197 49z" horiz-adv-x="1189"/><glyph d="M1178 1536l-418-295h-94l381 295h131zM809 0h-754l248 1126h754l-23-100h-639l-90-397h631l-23-101h-630l-95-428h641z" horiz-adv-x="1034"/><glyph d="M973 1241h-78l-127 232-223-232h-84l264 295h111zM809 0h-754l248 1126h754l-23-100h-639l-90-397h631l-23-101h-630l-95-428h641z" horiz-adv-x="1034"/><glyph d="M526 1266q-29 0-49 19.5t-20 47.5q0 35 26 60.5t60 25.5q29 0 48-20t19-49q0-34-25-59t-59-25zM944 1266q-29 0-48 19.5t-19 47.5q0 35 25 60.5t59 25.5q29 0 48-20t19-49q0-34-25-59t-59-25zM809 0h-754l248 1126h754l-23-100h-639l-90-397h631l-23-101h-630l-95-428h641z" horiz-adv-x="1034"/><glyph d="M760 1241h-90l-287 295h127zM809 0h-754l248 1126h754l-23-100h-639l-90-397h631l-23-101h-630l-95-428h641z" horiz-adv-x="1034"/><glyph d="M850 1536l-418-295h-94l381 295h131zM168 0h-113l248 1126h113z" horiz-adv-x="442"/><glyph d="M430 1241h-90l-287 295h127zM168 0h-113l248 1126h113z" horiz-adv-x="442"/><glyph d="M645 1241h-78l-127 232-223-232h-84l264 295h111zM168 0h-113l248 1126h113z" horiz-adv-x="442"/><glyph d="M197 1266q-29 0-49.5 19.5t-20.5 47.5q0 35 26 60.5t60 25.5q29 0 48.5-20t19.5-49q0-34-25-59t-59-25zM614 1266q-29 0-48 19.5t-19 47.5q0 35 25 60.5t59 25.5q29 0 48-20t19-49q0-34-25-59t-59-25zM168 0h-113l248 1126h113z" horiz-adv-x="442"/><glyph d="M807 1352q-15 31-25 48t-30.5 32.5-46.5 15.5q-95 0-142-199h-74q25 125 80 200t142 75q55 0 87-31t58-84q14-30 24.5-47t31-32 46.5-15q95 0 142 196h76q-59-274-224-274-55 0-87 31t-58 84zM1004 0h-111l-512 977-213-977h-113l248 1126h113l512-962 211 962h112z" horiz-adv-x="1280"/><glyph d="M1309 1536l-418-295h-94l381 295h131zM109 487q0 173 82 325t230.5 245.5 326.5 93.5q246 0 388-142.5t142-369.5q0-172-82-324t-230.5-246-326.5-94q-245 0-387.5 142.5t-142.5 369.5zM1161 635q0 182-111.5 299t-304.5 117q-113 0-211.5-47t-165-124.5-105-178.5-38.5-209q0-182 111.5-299t304.5-117q151 0 271.5 79.5t184.5 206.5 64 273z" horiz-adv-x="1363"/><glyph d="M1104 1241h-78l-127 232-223-232h-84l264 295h111zM109 487q0 173 82 325t230.5 245.5 326.5 93.5q246 0 388-142.5t142-369.5q0-172-82-324t-230.5-246-326.5-94q-245 0-387.5 142.5t-142.5 369.5zM1161 635q0 182-111.5 299t-304.5 117q-113 0-211.5-47t-165-124.5-105-178.5-38.5-209q0-182 111.5-299t304.5-117q151 0 271.5 79.5t184.5 206.5 64 273z" horiz-adv-x="1363"/><glyph d="M655 1266q-29 0-49 19.5t-20 47.5q0 35 26 60.5t60 25.5q29 0 48-20t19-49q0-34-25-59t-59-25zM1073 1266q-29 0-48 19.5t-19 47.5q0 35 25 60.5t59 25.5q29 0 48-20t19-49q0-34-25-59t-59-25zM109 487q0 173 82 325t230.5 245.5 326.5 93.5q246 0 388-142.5t142-369.5q0-172-82-324t-230.5-246-326.5-94q-245 0-387.5 142.5t-142.5 369.5zM1161 635q0 182-111.5 299t-304.5 117q-113 0-211.5-47t-165-124.5-105-178.5-38.5-209q0-182 111.5-299t304.5-117q151 0 271.5 79.5t184.5 206.5 64 273z" horiz-adv-x="1363"/><glyph d="M889 1241h-90l-287 295h127zM109 487q0 173 82 325t230.5 245.5 326.5 93.5q246 0 388-142.5t142-369.5q0-172-82-324t-230.5-246-326.5-94q-245 0-387.5 142.5t-142.5 369.5zM1161 635q0 182-111.5 299t-304.5 117q-113 0-211.5-47t-165-124.5-105-178.5-38.5-209q0-182 111.5-299t304.5-117q151 0 271.5 79.5t184.5 206.5 64 273z" horiz-adv-x="1363"/><glyph d="M1247 1188l-131-162q78-68 120-167.5t42-219.5q0-172-82-324t-230.5-246-326.5-94q-180 0-313 84l-129-157-47 39 126 155q-81 67-124 168t-43 223q0 173 82 325t230.5 245.5 326.5 93.5q188 0 321-88l131 162zM225 492q0-193 123-310l649 795q-104 74-252 74-113 0-211.5-47t-165-124.5-105-178.5-38.5-209zM641 76q151 0 271.5 79.5t184.5 206.5 64 273q0 188-117 305l-649-797q103-67 246-67z" horiz-adv-x="1363"/><glyph d="M848 1352q-11 23-19 36.5t-20.5 29-28 23-35.5 7.5q-94 0-141-199h-74q25 125 80 200t142 75q55 0 87-31t58-84q14-30 24.5-47t31-32 46.5-15q95 0 142 196h76q-59-274-224-274-55 0-87 31t-58 84zM109 487q0 173 82 325t230.5 245.5 326.5 93.5q246 0 388-142.5t142-369.5q0-172-82-324t-230.5-246-326.5-94q-245 0-387.5 142.5t-142.5 369.5zM1161 635q0 182-111.5 299t-304.5 117q-113 0-211.5-47t-165-124.5-105-178.5-38.5-209q0-182 111.5-299t304.5-117q151 0 271.5 79.5t184.5 206.5 64 273z" horiz-adv-x="1363"/><glyph d="M1749 0h-756l43 197q-76-112-183-167t-230-55q-235 0-374.5 141t-139.5 371q0 128 48.5 248.5t131.5 212.5 203.5 147.5 255.5 55.5q151 0 268-71t168-218l57 264h756l-23-100h-641l-90-397h631l-23-101h-628l-95-428h641zM1077 389l78 346q-24 109-89.5 182.5t-145.5 103.5-172 30q-144 0-264.5-75.5t-189.5-204-69-279.5q0-190 116.5-303t299.5-113q144 0 259 81t177 232z" horiz-adv-x="1974"/><glyph d="M1253 1536l-417-295h-95l381 295h131zM582-25q-209 0-327 96t-118 265q0 28 13 104l153 686h113l-152-684q-10-48-10-96 0-130 89-200t243-70q156 0 246 89.5t129 268.5l153 692h113l-154-696q-49-228-163.5-341.5t-327.5-113.5z" horiz-adv-x="1255"/><glyph d="M1049 1241h-78l-127 232-223-232h-84l264 295h110zM582-25q-209 0-327 96t-118 265q0 28 13 104l153 686h113l-152-684q-10-48-10-96 0-130 89-200t243-70q156 0 246 89.5t129 268.5l153 692h113l-154-696q-49-228-163.5-341.5t-327.5-113.5z" horiz-adv-x="1255"/><glyph d="M600 1266q-29 0-49.5 19.5t-20.5 47.5q0 35 26 60.5t60 25.5q29 0 48.5-20t19.5-49q0-34-25-59t-59-25zM1018 1266q-29 0-48.5 19.5t-19.5 47.5q0 35 25 60.5t59 25.5q29 0 48.5-20t19.5-49q0-34-25-59t-59-25zM582-25q-209 0-327 96t-118 265q0 28 13 104l153 686h113l-152-684q-10-48-10-96 0-130 89-200t243-70q156 0 246 89.5t129 268.5l153 692h113l-154-696q-49-228-163.5-341.5t-327.5-113.5z" horiz-adv-x="1255"/><glyph d="M834 1241h-91l-286 295h127zM582-25q-209 0-327 96t-118 265q0 28 13 104l153 686h113l-152-684q-10-48-10-96 0-130 89-200t243-70q156 0 246 89.5t129 268.5l153 692h113l-154-696q-49-228-163.5-341.5t-327.5-113.5z" horiz-adv-x="1255"/><glyph d="M1178 1536l-418-295h-94l381 295h131zM502 0h-113l107 481-334 645h131l276-544 510 544h138l-611-645z" horiz-adv-x="1103"/><glyph d="M526 1266q-29 0-49 19.5t-20 47.5q0 35 26 60.5t60 25.5q29 0 48-20t19-49q0-34-25-59t-59-25zM944 1266q-29 0-48 19.5t-19 47.5q0 35 25 60.5t59 25.5q29 0 48-20t19-49q0-34-25-59t-59-25zM502 0h-113l107 481-334 645h131l276-544 510 544h138l-611-645z" horiz-adv-x="1103"/><glyph d="M303 1126h340q154 0 275-67t185-177.5 64-242.5q0-93-27.5-183.5t-85-173-139.5-145.5-200-100-256-37h-404l117 532h-139l20 84h137zM479 100q134 0 244.5 46.5t180.5 123 107.5 171 37.5 194.5q0 171-116 281t-306 110h-234l-90-410h289l-19-84h-288l-97-432h291z" horiz-adv-x="1251"/><glyph d="M168 0h-113l248 1126h113l-43-198h284q152 0 247-78t95-207q0-74-27.5-142.5t-77.5-122-128.5-86-173.5-32.5h-367zM598 360q128 0 205.5 79.5t77.5 197.5q0 92-66 141t-174 49h-293l-102-467h352z" horiz-adv-x="1042"/><glyph d="M928 543l82-45q-127-207-234-316 45-61 144-182h-136q-47 57-88 109-163-134-338-134-156 0-252 79.5t-96 221.5q0 62 19.5 115t49.5 89.5 78 69.5 92.5 54.5 104.5 44.5q-49 110-49 197 0 129 93.5 217t219.5 88q102 0 175-53t73-152q0-55-21-100.5t-53.5-76.5-82.5-59.5-97-48.5-108-43q-11-4-17-6 44-83 107-174 126-180 129-184 116 122 205 289zM410 846q0-65 43-162 50 18 81.5 30.5t72.5 31 65.5 37 48 42.5 34.5 53.5 11 63.5q0 62-38 94.5t-107 32.5q-90 0-150.5-63t-60.5-160zM369 61q130 0 274 117-106 147-137 195-67 102-119 202-61-26-103.5-50t-82.5-58.5-60-80-20-101.5q0-99 66.5-161.5t181.5-62.5z" horiz-adv-x="1130"/></font>
</defs>
</svg>
