<svg xmlns="http://www.w3.org/2000/svg"><defs><font horiz-adv-x="804"><font-face ascent="1618" descent="-430" units-per-em="2048"/><missing-glyph horiz-adv-x="526"/><glyph d="M1507 1153q-54 0-93.5 39t-39.5 94 39.5 94 93.5 39q55 0 94-38.5t39-94.5-39-94.5-94-38.5zM606 801h-200v-801h-216v801h-163v188h163v55q0 162 87 252t227 90q107 0 172-38l-47-158q-36 20-86 20-64 0-100.5-42t-36.5-124v-55h200v-188zM1036 989h201v-188h-201v-801h-215v801h-164v188h164v55q0 162 87 252t227 90q107 0 172-38l-47-160q-31 22-86 22-65 0-101.5-42.5t-36.5-123.5v-55zM1401 989h215v-1046q0-161-84-252.5t-244-91.5q-58 0-110 10l22 178q24-6 62-6 63 0 101 39.5t38 122.5v1046z" horiz-adv-x="1755" unicode="&#x66;&#x66;&#x6a;"/><glyph d="M877 1153q-54 0-94 39t-40 94 40 94 94 39q55 0 94-38.5t39-94.5-39-94.5-94-38.5zM606 801h-200v-801h-216v801h-163v188h163v55q0 162 87 252t227 90q107 0 172-38l-47-160q-31 22-86 22-64 0-100.5-42t-36.5-124v-55h200v-188zM770 989h215v-1046q0-161-84-252.5t-244-91.5q-58 0-110 10l22 178q24-6 62-6 63 0 101 39.5t38 122.5v1046z" horiz-adv-x="1124" unicode="&#x66;&#x6a;"/><glyph d="M406 0h-216v801h-163v188h163v55q0 162 87 252t227 90q107 0 172-38l-47-158q-36 20-86 20-64 0-100.5-42t-36.5-124v-55h200v-188h-200v-801zM1036 0h-215v801h-164v188h164v55q0 162 87 252t227 90q107 0 172-38l-47-158q-36 20-86 20-65 0-101.5-42.5t-36.5-123.5v-55h201v-188h-201v-801z" horiz-adv-x="1261" unicode="&#xfb00;"/><glyph d="M877 1153q-54 0-94 39t-40 94 40 94 94 39q55 0 94-38.5t39-94.5-39-94.5-94-38.5zM406 801v-801h-216v801h-163v188h163v55q0 162 87 252t227 90q107 0 172-38l-47-160q-31 22-86 22-64 0-100.5-42t-36.5-124v-55h200v-188h-200zM985 0h-215v989h215v-989z" horiz-adv-x="1124" unicode="&#xfb01;"/><glyph d="M606 801h-200v-801h-216v801h-163v188h163v55q0 162 87 252t227 90q107 0 172-38l-47-160q-31 22-86 22-64 0-100.5-42t-36.5-124v-55h200v-188zM985 0h-215v1366h215v-1366z" horiz-adv-x="1124" unicode="&#xfb02;"/><glyph d="M1507 1153q-54 0-93.5 39t-39.5 94 39.5 94 93.5 39q55 0 94-38.5t39-94.5-39-94.5-94-38.5zM406 801v-801h-216v801h-163v188h163v55q0 162 87 252t227 90q107 0 172-38l-47-158q-36 20-86 20-64 0-100.5-42t-36.5-124v-55h200v-188h-200zM1237 989v-188h-201v-801h-215v801h-164v188h164v55q0 162 87 252t227 90q107 0 172-38l-47-160q-31 22-86 22-65 0-101.5-42.5t-36.5-123.5v-55h201zM1616 0h-215v989h215v-989z" horiz-adv-x="1755" unicode="&#xfb03;"/><glyph d="M606 801h-200v-801h-216v801h-163v188h163v55q0 162 87 252t227 90q107 0 172-38l-47-158q-36 20-86 20-64 0-100.5-42t-36.5-124v-55h200v-188zM1036 989h201v-188h-201v-801h-215v801h-164v188h164v55q0 162 87 252t227 90q107 0 172-38l-47-160q-31 22-86 22-65 0-101.5-42.5t-36.5-123.5v-55zM1616 0h-215v1366h215v-1366z" horiz-adv-x="1755" unicode="&#xfb04;"/><glyph d="M406 0h-216v801h-163v188h163v55q0 162 87 252t227 90q107 0 172-38l-47-160q-31 22-86 22-64 0-100.5-42t-36.5-124v-55h200v-188h-200v-801zM985 0h-215v1366h215v-514q58 78 141 120t177 42q193 0 315.5-142t122.5-378q0-240-122.5-379.5t-315.5-139.5q-95 0-177.5 42.5t-140.5 117.5v-135zM985 688v-391q36-56 108-93.5t146-37.5q128 0 204.5 91t76.5 237-76.5 237.5-204.5 91.5q-74 0-146-39t-108-96z" horiz-adv-x="1820" unicode="&#x66;&#x62;"/><glyph d="M406 0h-216v801h-163v188h163v55q0 162 87 252t227 90q107 0 172-38l-47-160q-31 22-86 22-64 0-100.5-42t-36.5-124v-55h200v-188h-200v-801zM1655 0h-215v623q0 109-51.5 154.5t-149.5 45.5q-77 0-144.5-38.5t-109.5-94.5v-690h-215v1366h215v-512q56 66 148.5 113t201.5 47q159 0 239.5-80.5t80.5-233.5v-700z" horiz-adv-x="1794" unicode="&#x66;&#x68;"/><glyph d="M606 801h-200v-801h-216v801h-163v188h163v55q0 162 87 252t227 90q107 0 172-38l-47-160q-31 22-86 22-64 0-100.5-42t-36.5-124v-55h200v-188zM1696 0h-271l-303 408-137-142v-266h-215v1366h215v-854l436 477h267l-412-448z" horiz-adv-x="1708" unicode="&#x66;&#x6b;"/><glyph horiz-adv-x="0"/><glyph horiz-adv-x="682"/><glyph horiz-adv-x="0"/><glyph horiz-adv-x="0"/><glyph horiz-adv-x="0" unicode="&#xd;"/><glyph horiz-adv-x="526" unicode="&#x20;"/><glyph horiz-adv-x="526" unicode="&#x09;"/><glyph horiz-adv-x="526" unicode="&#xa0;"/><glyph d="M344 418h-186l-39 948h262zM109 121q0 59 41.5 101t99.5 42 100.5-42 42.5-101q0-57-42.5-99t-100.5-42-99.5 42-41.5 99z" horiz-adv-x="501" unicode="&#x21;"/><glyph d="M268 801h-98q-72 430-72 465 0 50 35 85t86 35q50 0 85.5-35.5t35.5-84.5q0-16-18-132t-36-224zM606 801h-96q-72 430-72 465 0 50 35 85t86 35q49 0 84-35t35-85q0-16-18-132t-36-224z" horiz-adv-x="776" unicode="&#x22;"/><glyph d="M659 0h-163l120 356h-208l-119-356h-164l119 356h-205l45 142h209l121 368h-209l43 140h215l119 360h163l-118-360h207l118 360h164l-121-360h207l-41-140h-213l-123-368h215l-43-142h-219zM662 498l122 368h-206l-121-368h205z" horiz-adv-x="1241" unicode="&#x23;"/><glyph d="M1155 397q0-167-111-281.5t-331-135.5v-185h-164v182q-293 22-477 216l133 184q143-151 344-182v395q-52 13-91 24.5t-86.5 30.5-82 39.5-69.5 51-56.5 66-35 82.5-13.5 103q0 158 119 269t315 128v189h164v-193q244-23 411-184l-137-178q-111 111-274 143v-352q63-17 108-32t100.5-39 93.5-54 72-70.5 51-95.5 17-121zM360 1004q0-56 49-91t140-61v319q-88-9-138.5-53.5t-50.5-113.5zM713 547v-352q99 14 148.5 65t49.5 115q0 65-50.5 103.5t-147.5 68.5z" horiz-adv-x="1239" unicode="&#x24;"/><glyph d="M57 1044q0 147 94 244.5t244 97.5q152 0 247-97.5t95-244.5q0-144-95-239.5t-247-95.5q-150 0-244 95t-94 240zM399 0h-135l873 1366h137zM578 1044q0 92-51.5 148.5t-131.5 56.5q-79 0-129.5-57t-50.5-148q0-87 51-143.5t129-56.5q80 0 131.5 56t51.5 144zM793 311q0 147 93.5 244.5t243.5 97.5 245-97.5 95-244.5q0-144-95-240t-245-96-243.5 95.5-93.5 240.5zM1313 311q0 92-51.5 148.5t-131.5 56.5-130-56.5-50-148.5q0-89 50-144.5t130-55.5 131.5 55.5 51.5 144.5z" horiz-adv-x="1527" unicode="&#x25;"/><glyph d="M1018 268q136-143 264-268h-281q-16 16-120 119-171-144-383-144-192 0-316.5 101.5t-124.5 288.5q0 76 23 138.5t68 110.5 92.5 81.5 113.5 68.5q-96 172-96 299 0 138 106 230.5t265 92.5q145 0 241.5-75.5t96.5-204.5q0-43-10.5-82t-26-68.5-44.5-59-53-49.5-65-44.5-68-38.5-73-37q59-83 133-168 56-69 135-158 83 124 135 285l176-80q-86-198-188-338zM475 1059q0-79 68-205 54 26 91.5 48.5t72 52 52 64.5 17.5 77q0 61-38.5 96t-98.5 35q-70 0-117-47.5t-47-120.5zM524 147q120 0 236 97-98 107-168 188-90 108-152 197-73-49-113-107t-40-139q0-108 69.5-172t167.5-64z" horiz-adv-x="1316" unicode="&#x26;"/><glyph d="M268 801h-98q-72 430-72 465 0 50 35 85t86 35q50 0 85.5-35.5t35.5-84.5q0-16-18-132t-36-224z" horiz-adv-x="438" unicode="&#x27;"/><glyph d="M528-305l-133-103q-145 177-227 418t-82 488 82 486.5 227 418.5l133-100q-107-201-158-387.5t-51-417.5 51-417 158-386z" horiz-adv-x="565" unicode="&#x28;"/><glyph d="M246 498q0 232-51.5 418t-159.5 387l133 100q146-179 228.5-418.5t82.5-486.5q0-248-82.5-488.5t-228.5-417.5l-133 103q108 199 159.5 385t51.5 418z" horiz-adv-x="565" unicode="&#x29;"/><glyph d="M412 770h-115l10 229-192-125-56 99 203 104-203 105 56 98 192-123-10 229h115l-13-229 193 123 57-98-203-105 203-104-57-99-193 125z" horiz-adv-x="708" unicode="&#x2a;"/><glyph d="M969 621h-379v-424h-152v424h-379v139h379v409h152v-409h379v-139z" horiz-adv-x="1028" unicode="&#x2b;"/><glyph d="M213-272l-96 79q50 30 93.5 85.5t53.5 107.5q-18-6-35-6-53 0-88 36t-35 93q0 58 41.5 99.5t98.5 41.5q66 0 113-50t47-136q0-103-53-195.5t-140-154.5z" horiz-adv-x="501" unicode="&#x2c;"/><glyph d="M553 403h-492v185h492v-185z" horiz-adv-x="614" unicode="&#x2d;"/><glyph d="M106 121q0 58 42.5 100.5t101.5 42.5q58 0 100.5-42t42.5-101-42.5-101.5-100.5-42.5-101 42.5-43 101.5z" horiz-adv-x="501" unicode="&#x2e;"/><glyph d="M160-41h-160l485 1448h160z" horiz-adv-x="645" unicode="&#x2f;"/><glyph d="M84 682q0 106 19.5 205.5t63 190.5 106 159 155 108.5 203.5 40.5 203.5-40.5 155-108.5 106-159 63-190.5 19.5-205.5-19.5-206-63-191.5-106-160-155-109-203.5-40.5-203.5 40.5-155 109-106 160-63 191.5-19.5 206zM934 682q0 102-16.5 187.5t-51 155.5-94.5 109.5-141 39.5-141-39.5-94.5-109.5-51-155.5-16.5-187.5 16.5-187.5 51-156 94.5-110.5 141-40 141 40 94.5 110.5 51 156 16.5 187.5z" horiz-adv-x="1261" unicode="&#x30;"/><glyph d="M633 0h-240v1055l-223-232-139 146 393 397h209v-1366z" horiz-adv-x="778" unicode="&#x31;"/><glyph d="M1092 0h-990v188q145 110 240 184t186 151 143 131 94 110 58.5 104 16.5 97q0 101-73 155t-175 54q-225 0-369-164l-139 157q88 106 222.5 162.5t281.5 56.5q135 0 245.5-47.5t180-145 69.5-228.5q0-92-40-183.5t-123-186-185-184-250-200.5h607v-211z" horiz-adv-x="1218" unicode="&#x32;"/><glyph d="M49 197l129 157q66-77 168-121.5t211-44.5q134 0 209.5 56.5t75.5 152.5q0 193-303 193-138 0-158-2v215q25-2 158-2 127 0 203.5 45t76.5 135q0 92-77.5 142.5t-198.5 50.5q-201 0-353-152l-122 149q83 98 209 156.5t288 58.5q224 0 359-99t135-269q0-65-26-121.5t-69.5-94.5-95-62.5-106.5-34.5q52-5 106-28t102-62.5 78.5-103 30.5-138.5q0-176-140.5-287t-373.5-111q-174 0-308 62t-208 160z" horiz-adv-x="1175" unicode="&#x33;"/><glyph d="M948 0h-239v309h-652v193l561 864h330v-846h182v-211h-182v-309zM709 520v631l-416-631h416z" horiz-adv-x="1187" unicode="&#x34;"/><glyph d="M115 186l137 164q143-162 369-162 126 0 203 69t77 171q0 111-74.5 177.5t-199.5 66.5q-174 0-299-119l-170 49v764h895v-211h-656v-395q52 52 134 85.5t176 33.5q116 0 214-51t160-153 62-237q0-211-144.5-337t-375.5-126q-329 0-508 211z" horiz-adv-x="1228" unicode="&#x35;"/><glyph d="M84 680q0 201 67 358.5t205 252.5 330 95q239 0 393-151l-112-182q-58 61-123 91t-158 30q-110 0-193-63t-125-164.5-42-223.5q0-27 2-39 50 76 151 133t215 57q93 0 175-28.5t145.5-82 100-138.5 36.5-191q0-195-140-327t-364-132q-117 0-212 37t-159.5 101.5-108.5 154.5-63.5 193-19.5 219zM909 426q0 120-79.5 182t-200.5 62q-87 0-166.5-44t-132.5-118q4-47 16.5-90t36.5-86 57.5-74 83.5-50.5 111-19.5q126 0 200 73t74 165z" horiz-adv-x="1230" unicode="&#x36;"/><glyph d="M510 0h-262l516 1155h-709v211h985v-166z" horiz-adv-x="1089" unicode="&#x37;"/><glyph d="M86 350q0 124 87 217.5t220 137.5q-127 40-205.5 120.5t-78.5 202.5q0 91 43.5 161.5t116 112.5 159.5 63 182 21q74 0 144.5-12.5t136-41 114-69.5 78-101.5 29.5-133.5q0-122-79.5-202t-207.5-121q133-44 220.5-137.5t87.5-217.5q0-118-73.5-204.5t-190.5-128.5-259-42q-144 0-260.5 41.5t-190 128-73.5 205.5zM868 991q0 84-73 133.5t-185 49.5q-115 0-187.5-49t-72.5-134q0-45 27.5-81.5t72-58.5 83-34 77.5-18q39 6 77 18.5t82 34 71.5 58 27.5 81.5zM891 381q0 50-31.5 91.5t-78.5 66-91 39-80 18.5q-28-3-62.5-12.5t-74-27.5-71-41-53-58.5-21.5-75.5q0-87 81-140t201-53q118 0 199.5 53t81.5 140z" horiz-adv-x="1218" unicode="&#x38;"/><glyph d="M152 129l110 180q58-59 123.5-89t157.5-30q90 0 160.5 38.5t113 103 64.5 143 22 164.5v41q-52-77-153-135t-213-58q-126 0-228.5 49t-166.5 151.5-64 242.5q0 126 61.5 230t177.5 166.5 265 62.5q117 0 212-37t159.5-102 108.5-155 63.5-193 19.5-220q0-118-24.5-224t-74-194-120.5-152-169-99.5-214-35.5q-239 0-391 152zM899 854q-5 59-24 113t-53.5 102.5-93.5 77.5-134 29q-125 0-198.5-74t-73.5-164q0-119 79.5-181.5t198.5-62.5q87 0 167.5 43t131.5 117z" horiz-adv-x="1230" unicode="&#x39;"/><glyph d="M106 860q0 58 43 101t101 43 100.5-42.5 42.5-101.5q0-58-42.5-100.5t-100.5-42.5q-59 0-101.5 42.5t-42.5 100.5zM106 121q0 58 42.5 100.5t101.5 42.5q58 0 100.5-42t42.5-101-42.5-101.5-100.5-42.5-101 42.5-43 101.5z" horiz-adv-x="501" unicode="&#x3a;"/><glyph d="M250 717q-58 0-101 43t-43 100q0 58 43 101t101 43 100.5-42.5 42.5-101.5q0-57-42.5-100t-100.5-43zM213-272l-96 79q50 30 93.5 85.5t53.5 107.5q-18-6-35-6-53 0-88 36t-35 93q0 58 41.5 99.5t98.5 41.5q66 0 113-50t47-136q0-103-53-195.5t-140-154.5z" horiz-adv-x="501" unicode="&#x3b;"/><glyph d="M969 184l-910 424v154l910 426v-166l-748-338 748-336v-164z" horiz-adv-x="1028" unicode="&#x3c;"/><glyph d="M969 809h-910v139h910v-139zM969 420h-910v137h910v-137z" horiz-adv-x="1028" unicode="&#x3d;"/><glyph d="M969 608l-910-424v164l746 336-746 338v166l910-426v-154z" horiz-adv-x="1028" unicode="&#x3e;"/><glyph d="M313 575q0 49 15 89.5t47.5 75.5 56 54.5 68.5 51.5q30 21 45 32t37.5 30.5 33 35 19 37.5 8.5 45q0 64-49.5 106t-144.5 42q-168 0-285-144l-137 154q79 96 194 149t252 53q190 0 303-90t113-231q0-49-14-93t-32-73.5-52-62-56-49.5-63-46q-32-23-39.5-29t-33-26-33-30.5-21.5-29-18.5-36-4.5-37.5q0-54 45-92l-180-60q-74 71-74 174zM317 121q0 58 42.5 100.5t101.5 42.5 101-42 42-101-42.5-101.5-100.5-42.5q-59 0-101.5 42.5t-42.5 101.5z" horiz-adv-x="937" unicode="&#x3f;"/><glyph d="M72 500q0 214 114 401t301.5 296.5 397.5 109.5q189 0 338-87t228-231.5 79-318.5q0-120-35-217.5t-91.5-156.5-123-90.5-133.5-31.5q-86 0-136.5 45.5t-58.5 112.5l-2 12q-55-77-137.5-123.5t-169.5-46.5q-144 0-229.5 94.5t-85.5 245.5q0 136 67.5 253.5t176 185 227.5 67.5q91 0 158.5-40.5t99.5-105.5l24 115h193l-111-522q-4-24-4-47 0-48 23.5-73t60.5-25q32 0 66 19.5t66 58.5 52.5 109.5 20.5 160.5q0 249-156.5 405t-414.5 156q-115 0-225.5-38.5t-200.5-107.5-159-159-107-199.5-38-222.5q0-161 75-292.5t208.5-206.5 298.5-75q198 0 377 113l41-57q-200-129-426-129-183 0-332 85t-233 232-84 326zM973 483l55 258q-21 49-68.5 87t-117.5 38q-131 0-223.5-103.5t-92.5-234.5q0-89 50.5-144.5t136.5-55.5q150 0 260 155z" horiz-adv-x="1603" unicode="&#x40;"/><glyph d="M1374 0h-262l-100 262h-647l-101-262h-262l537 1366h299zM944 473l-256 690-256-690h512z" horiz-adv-x="1378" unicode="&#x41;"/><glyph d="M836 0h-691v1366h672q182 0 285.5-99t103.5-249q0-124-68.5-208t-168.5-105q110-17 187-114t77-222q0-163-105-266t-292-103zM385 1155v-354h383q90 0 141.5 49t51.5 127q0 79-51.5 128.5t-141.5 49.5h-383zM385 590v-379h393q98 0 153.5 50.5t55.5 139.5q0 81-55 135t-154 54h-393z" horiz-adv-x="1327" unicode="&#x42;"/><glyph d="M791-25q-146 0-276 52t-225 143.5-150.5 224.5-55.5 287 55.5 287 150.5 224.5 225 143.5 276 52q367 0 559-308l-205-104q-52 88-146 143.5t-208 55.5q-196 0-328.5-140t-132.5-354 132.5-354 328.5-140q115 0 209 55t145 144l205-104q-195-308-559-308z" horiz-adv-x="1396" unicode="&#x43;"/><glyph d="M653 0h-508v1366h508q210 0 373-87t252.5-242.5 89.5-354.5-89.5-354-252.5-241.5-373-86.5zM385 1155v-944h268q144 0 252 64.5t162.5 170.5 54.5 236q0 206-124 339.5t-345 133.5h-268z" horiz-adv-x="1454" unicode="&#x44;"/><glyph d="M1081 0h-936v1366h936v-211h-696v-354h682v-211h-682v-379h696v-211z" horiz-adv-x="1181" unicode="&#x45;"/><glyph d="M385 0h-240v1366h936v-211h-696v-354h682v-211h-682v-590z" horiz-adv-x="1150" unicode="&#x46;"/><glyph d="M84 682q0 157 56.5 290.5t153.5 224 228.5 141.5 278.5 51q351 0 551-285l-197-111q-57 81-150 132t-204 51q-203 0-337-139.5t-134-354.5 134-355.5 337-140.5q96 0 183 37t140 86v213h-407v211h647v-512q-105-117-247.5-182.5t-315.5-65.5q-198 0-360.5 87t-259.5 250-97 372z" horiz-adv-x="1468" unicode="&#x47;"/><glyph d="M1335 0h-239v596h-711v-596h-240v1366h240v-559h711v559h239v-1366z" horiz-adv-x="1480" unicode="&#x48;"/><glyph d="M385 0h-240v1366h240v-1366z" horiz-adv-x="530" unicode="&#x49;"/><glyph d="M16 119l111 182q105-113 233-113 110 0 175 67.5t65 180.5v930h240v-934q0-225-127-341t-334-116q-227 0-363 144z" horiz-adv-x="985" unicode="&#x4a;"/><glyph d="M1257 0h-294l-459 575-119-139v-436h-240v1366h240v-651l535 651h297l-555-645z" horiz-adv-x="1271" unicode="&#x4b;"/><glyph d="M987 0h-842v1366h240v-1155h602v-211z" horiz-adv-x="1058" unicode="&#x4c;"/><glyph d="M1565 0h-240v1034l-420-1034h-102l-418 1034v-1034h-240v1366h338l371-920 373 920h338v-1366z" horiz-adv-x="1710" unicode="&#x4d;"/><glyph d="M1329 0h-231l-713 995v-995h-240v1366h246l699-969v969h239v-1366z" horiz-adv-x="1474" unicode="&#x4e;"/><glyph d="M84 682q0 202 88.5 363.5t248 252.5 361.5 91q151 0 281.5-53.5t222-147 143.5-224.5 52-282-52-282-143.5-224.5-222-147-281.5-53.5q-202 0-361.5 91t-248 252.5-88.5 363.5zM1235 682q0 215-125 354.5t-328 139.5q-204 0-328-139t-124-355q0-214 124-354t328-140q203 0 328 140t125 354z" horiz-adv-x="1566" unicode="&#x4f;"/><glyph d="M385 0h-240v1366h600q207 0 327-123.5t120-304.5-120.5-304.5-326.5-123.5h-360v-510zM946 938q0 97-65.5 157t-167.5 60h-328v-434h328q102 0 167.5 60t65.5 157z" horiz-adv-x="1245" unicode="&#x50;"/><glyph d="M1481 682q0-293-183-492l113-127-166-139-119 133q-152-82-344-82-202 0-361.5 91t-248 252.5-88.5 363.5 88.5 363.5 248 252.5 361.5 91q151 0 281.5-53.5t222-147 143.5-224.5 52-282zM782 188q108 0 195 41l-170 193 166 137 170-190q92 131 92 313 0 215-125 354.5t-328 139.5q-204 0-328-139t-124-355q0-214 124-354t328-140z" horiz-adv-x="1566" unicode="&#x51;"/><glyph d="M1202 0h-276l-303 510h-238v-510h-240v1366h600q201 0 324-119t123-309q0-88-27-161t-73.5-121.5-103-78.5-120.5-40zM946 938q0 97-65.5 157t-167.5 60h-328v-434h328q102 0 167.5 60t65.5 157z" horiz-adv-x="1286" unicode="&#x52;"/><glyph d="M57 193l133 184q78-83 189-136t244-53q137 0 205.5 55.5t68.5 131.5q0 26-9.5 48t-22 38-39.5 32-47 25.5-60 22-62.5 19-70.5 18.5q-64 16-98.5 25t-94 29.5-93.5 39-77.5 50.5-66.5 67.5-39.5 86.5-16.5 111q0 171 138.5 285t359.5 114q316 0 512-190l-137-178q-77 77-180.5 116.5t-214.5 39.5q-105 0-168.5-46.5t-63.5-123.5q0-22 9-41.5t21.5-34 38-28.5 45.5-23 57.5-20.5 61-18 68.5-17.5q44-11 69-18t68-19.5 69.5-23.5 64-27.5 61.5-34 52.5-40.5 46-49.5 33.5-58.5 23-70.5 7-82.5q0-87-31.5-162t-94-134-166-92.5-237.5-33.5q-351 0-555 218z" horiz-adv-x="1216" unicode="&#x53;"/><glyph d="M711 0h-240v1155h-414v211h1067v-211h-413v-1155z" horiz-adv-x="1181" unicode="&#x54;"/><glyph d="M145 539v827h242v-819q0-166 90.5-262.5t259.5-96.5q167 0 257.5 96.5t90.5 262.5v819h242v-825q0-262-150.5-414t-439.5-152q-290 0-441 152t-151 412z" horiz-adv-x="1472" unicode="&#x55;"/><glyph d="M838 0h-299l-537 1366h272l414-1106 414 1106h272z" horiz-adv-x="1378" unicode="&#x56;"/><glyph d="M1446 0h-256l-266 1008-265-1008h-256l-391 1366h269l266-1053 282 1053h191l283-1053 264 1053h268z" horiz-adv-x="1849" unicode="&#x57;"/><glyph d="M1346 0h-287l-383 535-383-535h-287l512 700-481 666h287l352-502 350 502h289l-479-664z" horiz-adv-x="1353" unicode="&#x58;"/><glyph d="M772 0h-240v567l-530 799h274l377-586 373 586h274l-528-799v-567z" horiz-adv-x="1304" unicode="&#x59;"/><glyph d="M1114 0h-1024v195l698 960h-698v211h1010v-195l-699-960h713v-211z" horiz-adv-x="1206" unicode="&#x5a;"/><glyph d="M506-389h-416v1778h416v-148h-258v-1483h258v-147z" horiz-adv-x="540" unicode="&#x5b;"/><glyph d="M485-41l-485 1448h160l485-1448h-160z" horiz-adv-x="645" unicode="&#x5c;"/><glyph d="M451-389h-416v147h258v1483h-258v148h416v-1778z" horiz-adv-x="540" unicode="&#x5d;"/><glyph d="M856 682h-164l-246 535-243-535h-164l330 684h159z" horiz-adv-x="894" unicode="&#x5e;"/><glyph d="M1161-229h-1167v147h1167v-147z" horiz-adv-x="1155" unicode="&#x5f;"/><glyph d="M492 1139h-154l-338 295h205z" horiz-adv-x="491" unicode="&#x60;"/><glyph d="M958 0h-215v106q-56-63-138.5-97t-180.5-34q-62 0-122 21t-110.5 60.5-81 103.5-30.5 143q0 82 30.5 145.5t81 101 110 56.5 122.5 19q210 0 319-127v147q0 85-63.5 134.5t-167.5 49.5q-166 0-293-124l-88 149q169 160 416 160 86 0 157.5-19.5t129.5-60 91-112 33-167.5v-655zM743 225v150q-36 49-99 75.5t-136 26.5q-92 0-151.5-48.5t-59.5-129.5q0-79 59.5-127.5t151.5-48.5q73 0 136 26.5t99 75.5z" horiz-adv-x="1097" unicode="&#x61;"/><glyph d="M354 0h-215v1366h215v-514q58 78 141 120t177 42q193 0 315.5-142t122.5-378q0-240-122.5-379.5t-315.5-139.5q-95 0-177.5 42.5t-140.5 117.5v-135zM354 688v-391q36-56 108-93.5t146-37.5q128 0 204.5 91t76.5 237-76.5 237.5-204.5 91.5q-74 0-146-39t-108-96z" horiz-adv-x="1189" unicode="&#x62;"/><glyph d="M78 496q0 225 143.5 371.5t368.5 146.5q248 0 379-176l-142-131q-82 116-227 116-134 0-216.5-91t-82.5-236q0-146 82.5-238t216.5-92q142 0 227 117l142-131q-132-177-379-177-225 0-368.5 147t-143.5 374z" horiz-adv-x="1017" unicode="&#x63;"/><glyph d="M1051 0h-215v135q-58-75-141-117.5t-177-42.5q-195 0-317.5 139.5t-122.5 379.5q0 236 122.5 378t317.5 142q92 0 175-42t143-120v514h215v-1366zM836 297v393q-38 57-109.5 95t-146.5 38q-126 0-202.5-91.5t-76.5-237.5q0-144 76.5-236t202.5-92q75 0 147 37.5t109 93.5z" horiz-adv-x="1189" unicode="&#x64;"/><glyph d="M78 496q0 142 63.5 260.5t179.5 188 259 69.5q220 0 353.5-151.5t133.5-387.5v-51h-764q13-117 96.5-194.5t218.5-77.5q75 0 152.5 28.5t128.5 79.5l98-141q-73-70-177-107t-224-37q-225 0-371.5 144.5t-146.5 376.5zM580 838q-66 0-119.5-23.5t-86-63-51-84-22.5-92.5h557q-2 46-18.5 90.5t-48.5 84.5-86.5 64-124.5 24z" horiz-adv-x="1140" unicode="&#x65;"/><glyph d="M606 801h-200v-801h-216v801h-163v188h163v55q0 162 87 252t227 90q107 0 172-38l-47-158q-36 20-86 20-64 0-100.5-42t-36.5-124v-55h200v-188z" horiz-adv-x="630" unicode="&#x66;"/><glyph d="M127-254l100 156q110-127 314-127 56 0 105.5 14t93 43.5 69 83.5 25.5 127v119q-59-76-141.5-120t-176.5-44q-194 0-316 134.5t-122 373.5q0 235 122 371.5t316 136.5q94 0 176-42t142-120v137h215v-938q0-103-30-183.5t-78.5-130-116-81.5-136.5-44.5-147-12.5q-131 0-228.5 33t-185.5 114zM834 322v368q-36 56-108 94.5t-146 38.5q-127 0-203-87t-76-230 76-230.5 203-87.5q74 0 146 39t108 95z" horiz-adv-x="1187" unicode="&#x67;"/><glyph d="M1024 0h-215v623q0 109-51.5 154.5t-149.5 45.5q-77 0-144.5-38.5t-109.5-94.5v-690h-215v1366h215v-512q56 66 149 113t202 47q159 0 239-80t80-234v-700z" horiz-adv-x="1163" unicode="&#x68;"/><glyph d="M246 1153q-54 0-93.5 39t-39.5 94 39.5 94 93.5 39q56 0 94.5-38.5t38.5-94.5-38.5-94.5-94.5-38.5zM354 0h-215v989h215v-989z" horiz-adv-x="493" unicode="&#x69;"/><glyph d="M246 1153q-54 0-93.5 39t-39.5 94 39.5 94 93.5 39q56 0 94.5-38.5t38.5-94.5-38.5-94.5-94.5-38.5zM139 989h215v-1046q0-161-83.5-252.5t-243.5-91.5q-59 0-111 10l23 178q24-6 61-6 63 0 101 39.5t38 122.5v1046z" horiz-adv-x="493" unicode="&#x6a;"/><glyph d="M1065 0h-270l-303 408-138-142v-266h-215v1366h215v-854l437 477h266l-412-448z" horiz-adv-x="1077" unicode="&#x6b;"/><glyph d="M354 0h-215v1366h215v-1366z" horiz-adv-x="493" unicode="&#x6c;"/><glyph d="M1567 0h-215v645q0 83-39.5 130.5t-122.5 47.5q-67 0-130-39.5t-99-91.5v-692h-216v645q0 178-163 178-66 0-128.5-39.5t-99.5-93.5v-690h-215v989h215v-135q37 56 128.5 108t193.5 52q107 0 175.5-49t94.5-134q47 74 139.5 128.5t196.5 54.5q138 0 211.5-75t73.5-224v-715z" horiz-adv-x="1705" unicode="&#x6d;"/><glyph d="M1022 0h-215v618q0 110-51.5 157.5t-147.5 47.5q-78 0-146-38.5t-108-94.5v-690h-215v989h215v-135q56 66 148 113t200 47q158 0 239-82t81-236v-696z" horiz-adv-x="1161" unicode="&#x6e;"/><glyph d="M586-25q-115 0-211 41.5t-160.5 112-100.5 165.5-36 202q0 106 36 200.5t100.5 165 160.5 111.5 211 41q154 0 271.5-71t178-187.5 60.5-259.5q0-144-60.5-261.5t-178-188.5-271.5-71zM586 166q133 0 209.5 95.5t76.5 234.5q0 137-76.5 232t-209.5 95q-131 0-208-95t-77-232q0-138 77-234t208-96z" horiz-adv-x="1173" unicode="&#x6f;"/><glyph d="M354 137v-514h-215v1366h215v-135q56 75 139.5 117.5t178.5 42.5q196 0 317-139t121-379q0-241-121.5-381t-316.5-140q-94 0-176 41.5t-142 120.5zM887 496q0 144-76.5 235.5t-202.5 91.5q-74 0-146-38.5t-108-94.5v-391q36-55 108.5-94t145.5-39q126 0 202.5 92t76.5 238z" horiz-adv-x="1187" unicode="&#x70;"/><glyph d="M1049 989v-1366h-215v514q-60-79-142-120.5t-176-41.5q-195 0-316.5 140t-121.5 381q0 240 121 379t317 139q95 0 178.5-42.5t139.5-117.5v135h215zM834 299v391q-36 56-108 94.5t-146 38.5q-126 0-202.5-91.5t-76.5-235.5q0-146 76.5-238t202.5-92q73 0 145.5 39t108.5 94z" horiz-adv-x="1187" unicode="&#x71;"/><glyph d="M354 0h-215v989h215v-145q59 74 144 121t178 47v-213q-27 6-68 6-68 0-145-39.5t-109-91.5v-674z" horiz-adv-x="710" unicode="&#x72;"/><glyph d="M53 129l99 156q56-57 149.5-98.5t185.5-41.5q95 0 145 32t50 89q0 31-17 54.5t-51.5 40-69 27-87.5 22.5q-49 11-75.5 17t-72 20.5-71.5 28-59.5 37-51.5 50.5-30.5 65.5-12.5 84.5q0 127 104 214t285 87q227 0 385-140l-90-151q-46 53-124.5 86t-168.5 33q-85 0-134.5-29.5t-49.5-81.5q0-27 15.5-47.5t50-36 65-24.5 84.5-21q48-10 76.5-17t74-21.5 73.5-29.5 61.5-39.5 52.5-53 32-69.5 13-89q0-135-109-221.5t-303-86.5q-127 0-237.5 40t-186.5 114z" horiz-adv-x="966" unicode="&#x73;"/><glyph d="M436-25q-124 0-189 65.5t-65 188.5v572h-164v188h164v271h215v-271h201v-188h-201v-518q0-52 25-84.5t70-32.5q29 0 56 10.5t40 24.5l51-162q-67-64-203-64z" horiz-adv-x="653" unicode="&#x74;"/><glyph d="M1022 0h-215v131q-60-67-150.5-111.5t-199.5-44.5q-158 0-238 80t-80 234v700h215v-622q0-110 51-155.5t148-45.5q77 0 145 37t109 92v694h215v-989z" horiz-adv-x="1161" unicode="&#x75;"/><glyph d="M631 0h-232l-403 989h229l289-741 289 741h231z" horiz-adv-x="1030" unicode="&#x76;"/><glyph d="M1227 0h-226l-229 725-229-725h-226l-307 989h223l209-719 236 719h188l236-719 209 719h223z" horiz-adv-x="1544" unicode="&#x77;"/><glyph d="M1006 0h-242l-256 365-258-365h-240l363 508-342 481h241l236-336 233 336h242l-342-481z" horiz-adv-x="1015" unicode="&#x78;"/><glyph d="M96-387l33 192q37-16 82-16 53 0 86.5 19t54.5 67l49 113-405 1001h229l289-741 289 741h231l-477-1167q-49-120-133-170.5t-207-52.5q-67 0-121 14z" horiz-adv-x="1030" unicode="&#x79;"/><glyph d="M879 0h-785v162l490 639h-490v188h776v-158l-493-645h502v-186z" horiz-adv-x="974" unicode="&#x7a;"/><glyph d="M530-389h-124q-118 0-204.5 83.5t-86.5 219.5v383q0 60-27.5 99.5t-79.5 39.5v127q52 0 79.5 39.5t27.5 99.5v381q0 136 86.5 221t204.5 85h124v-148h-124q-55 0-93.5-44.5t-38.5-113.5v-401q0-142-94-182 94-40 94-183v-401q0-68 38.5-113t93.5-45h124v-147z" horiz-adv-x="565" unicode="&#x7b;"/><glyph d="M293-41h-148v1448h148v-1448z" horiz-adv-x="438" unicode="&#x7c;"/><glyph d="M35-389v147h125q55 0 93 45t38 113v401q0 143 94 183-94 40-94 182v401q0 69-38 113.5t-93 44.5h-125v148h125q118 0 204.5-85t86.5-221v-381q0-60 27-99.5t79-39.5v-127q-52 0-79-39.5t-27-99.5v-383q0-136-86.5-219.5t-204.5-83.5h-125z" horiz-adv-x="565" unicode="&#x7d;"/><glyph d="M834 942l149-18q-7-82-17.5-147t-32-132.5-52.5-112.5-80.5-73.5-112.5-28.5q-32 0-59 8.5t-46.5 18.5-38 32.5-28.5 36.5-24 45.5-18.5 44-16.5 46.5q-13 37-20.5 55.5t-21 42-29.5 33.5-36 10q-111 0-145-375l-152 18q6 67 15 122.5t24 114.5 37 103 52.5 80 73 55 95.5 19q32 0 59-8t46.5-18.5 38-31.5 29.5-37 23.5-44.5 18.5-44.5 17-47q11-32 16-46t16-37.5 20-33.5 23-18.5 31-8.5q117 0 146 377z" horiz-adv-x="1038" unicode="&#x7e;"/><glyph d="M250 1010q58 0 100.5-42.5t42.5-99.5q0-58-42.5-100.5t-100.5-42.5-99.5 42-41.5 101q0 57 41.5 99.5t99.5 42.5zM121-377l37 946h186l39-946h-262z" horiz-adv-x="501" unicode="&#xa1;"/><glyph d="M664 817v-645q94 19 163 111l142-131q-107-148-305-172v-185h-160v187q-191 28-308.5 169t-117.5 345q0 202 117.5 343t308.5 169v149h160v-147q198-24 305-172l-142-131q-66 90-163 110zM301 496q0-117 54.5-201t148.5-115v629q-94-29-148.5-112.5t-54.5-200.5z" horiz-adv-x="1017" unicode="&#xa2;"/><glyph d="M979 264l96-190q-97-101-291-101-45 0-87 9t-64.5 17.5-59.5 25.5q-3 1-16 6.5t-17 7-15.5 6-17 6-16 5-18 4.5-17.5 3-20 2.5-20 .5q-91 0-240-80l-82 168q114 53 179 125t65 155q0 56-27 115h-268v143h170q-38 51-59 83t-40.5 86-19.5 110q0 119 69 215.5t178.5 148 233.5 51.5q158 0 273-60.5t176-178.5l-190-113q-27 67-90 111.5t-142 44.5q-104 0-176-61.5t-72-161.5q0-47 16-92t32.5-71 48.5-69l30-43h301v-143h-237q6-27 6-60 0-78-39.5-141t-103.5-104q50 16 104 16 59 0 152-39 76-35 131-35 61 0 110 23.5t74 54.5z" horiz-adv-x="1097" unicode="&#xa3;"/><glyph d="M1135 682q0-166-88-293l153-151-129-127-153 151q-125-80-291-80-164 0-293 82l-152-153-129 127 152 151q-86 131-86 293 0 166 88 293l-156 155 129 127 158-157q122 80 289 80 166 0 288-80l156 157 129-129-153-153q88-127 88-293zM627 375q135 0 213 89t78 218q0 128-78 215.5t-213 87.5q-134 0-212.5-88t-78.5-215q0-129 78.5-218t212.5-89z" horiz-adv-x="1253" unicode="&#xa4;"/><glyph d="M1026 1366h274l-438-661h398v-138h-488v-188h488v-137h-488v-242h-240v242h-485v137h485v188h-485v138h395l-440 661h274l377-586z" horiz-adv-x="1304" unicode="&#xa5;"/><glyph d="M293 760h-148v647h148v-647zM293-41h-148v647h148v-647z" horiz-adv-x="438" unicode="&#xa6;"/><glyph d="M711 395q178-74 178-250 0-145-114-228t-298-83q-249 0-420 160l95 137q56-60 142.5-102.5t182.5-42.5q93 0 149 37.5t56 105.5q0 23-8 41.5t-27 33.5-36.5 25.5-50.5 21-55.5 16.5-62.5 16q-153 40-215 72-143 76-143 229 0 98 63 164t152 94q-215 75-215 256 0 123 107 205.5t282 82.5q246 0 383-141l-88-129q-51 56-129 86.5t-158 30.5q-87 0-138.5-36t-51.5-97q0-20 7-36.5t26-30 32.5-21.5 49-18 51.5-14 61-15q47-10 75-17t72-21 71.5-28.5 59.5-38 50-51.5 30.5-67 12.5-85q0-86-45.5-153.5t-132.5-108.5zM481 786q-105-26-147.5-69t-42.5-105q0-26 8.5-46.5t29-36.5 38-27 53-22 55.5-16 62-15q71 30 106 71t35 101q0 37-16 65t-46.5 47-61.5 30.5-73 22.5z" horiz-adv-x="976" unicode="&#xa7;"/><glyph d="M215 1155q-51 0-86 35t-35 86q0 50 35 84.5t86 34.5q49 0 84-34.5t35-84.5q0-51-34.5-86t-84.5-35zM643 1155q-50 0-85.5 35t-35.5 86q0 49 35.5 84t85.5 35 85.5-35 35.5-84q0-51-35.5-86t-85.5-35z" horiz-adv-x="858" unicode="&#xa8;"/><glyph d="M797-25q-191 0-354 95t-258 258-95 354q0 192 95 355t258 257.5 354 94.5q144 0 275-56t225-150.5 150-225.5 56-275q0-143-56-274t-150-226-225-151-275-56zM797 1319q-129 0-247-50.5t-203.5-136-136-203.5-50.5-247 50.5-247 136-203.5 203.5-136 247-50.5 247 50.5 203.5 136 136 203.5 50.5 247-50.5 247-136 203.5-203.5 136-247 50.5zM1049 442l59-57q-118-137-303-137-178 0-302 125t-124 311 123.5 309 302.5 123q185 0 301-135l-59-57q-40 54-105 85t-137 31q-140 0-240-100t-100-256q0-154 100.5-257t239.5-103q73 0 138.5 32t105.5 86z" horiz-adv-x="1593" unicode="&#xa9;"/><glyph d="M670 668h-158v67q-77-84-213-84-91 0-159 56.5t-68 156.5q0 99 68 154t159 55q138 0 213-82v94q0 56-42 88.5t-108 32.5q-112 0-194-88l-64 103q115 106 283 106 58 0 106.5-12.5t89.5-40 64-76.5 23-115v-415zM512 819v90q-23 30-64 48t-86 18q-57 0-95-30.5t-38-80.5q0-52 37.5-82t95.5-30q45 0 86 17.5t64 49.5z" horiz-adv-x="782" unicode="&#xaa;"/><glyph d="M592 129h-203l-328 369 328 362h203l-328-362zM940 129h-203l-327 369 327 362h203l-328-362z" horiz-adv-x="1001" unicode="&#xab;"/><glyph d="M969 948v-528h-144v389h-766v139h910z" horiz-adv-x="1044" unicode="&#xac;"/><glyph d="M553 403h-492v185h492v-185z" horiz-adv-x="614" unicode="&#xad;"/><glyph d="M506 518q-180 0-307 127t-127 307q0 181 127 307.5t307 126.5q119 0 219-57.5t157.5-157.5 57.5-219q0-180-126.5-307t-307.5-127zM506 1323q-155 0-264-108t-109-263q0-154 109-263t264-109q154 0 262.5 109t108.5 263q0 155-108.5 263t-262.5 108zM709 702h-84l-129 197h-88v-197h-68v498h203q65 0 112-42t47-109q0-72-46-110t-81-38zM543 1141h-135v-180h135q34 0 62 25.5t28 62.5q0 39-28 65.5t-62 26.5z" horiz-adv-x="1011" unicode="&#xae;"/><glyph d="M702 1159h-661v127h661v-127z" horiz-adv-x="743" unicode="&#xaf;"/><glyph d="M307 856q-109 0-186.5 77t-77.5 187q0 109 77.5 187.5t186.5 78.5q110 0 188-78.5t78-187.5q0-110-78-187t-188-77zM307 1264q-58 0-98.5-42.5t-40.5-101.5 40.5-100 98.5-41q59 0 101.5 41.5t42.5 99.5-42.5 101-101.5 43z" horiz-adv-x="618" unicode="&#xb0;"/><glyph d="M969 666h-379v-426h-152v426h-379v137h379v411h152v-411h379v-137zM969 0h-910v137h910v-137z" horiz-adv-x="1028" unicode="&#xb1;"/><glyph d="M721 862h-623v121q263 186 358 278t95 171q0 63-44 96t-110 33q-69 0-130.5-31t-94.5-74l-88 105q56 66 141 99.5t176 33.5q136 0 225-65.5t89-184.5q0-105-91.5-208.5t-285.5-240.5h383v-133z" unicode="&#xb2;"/><glyph d="M399 848q-110 0-194 36t-131 95l84 106q43-50 106.5-77t128.5-27q79 0 123.5 31.5t44.5 85.5q0 116-194 116-76 0-88-2v134q24-3 86-3 182 0 182 109 0 52-46 80.5t-118 28.5q-127 0-219-95l-80 99q119 129 315 129 144 0 228-60.5t84-160.5q0-77-54.5-127t-128.5-62q72-5 134.5-57.5t62.5-139.5q0-107-89-173t-237-66z" unicode="&#xb3;"/><glyph d="M492 1434l-338-295h-154l287 295h205z" horiz-adv-x="491" unicode="&#xb4;"/><glyph d="M354 49v-426h-215v1366h215v-622q0-203 201-203 75 0 143 38t109 93v694h215v-721q0-47 23.5-74.5t64.5-27.5q19 0 39 4l14-182q-44-13-102-13-199 0-244 177-50-78-127.5-127.5t-165.5-49.5q-123 0-170 74z" horiz-adv-x="1189" unicode="&#xb5;"/><glyph d="M803-205h-113v1458h-170v-1458h-112v867q-146 0-249.5 103t-103.5 249 103.5 249 249.5 103h395v-1571z" horiz-adv-x="919" unicode="&#xb6;"/><glyph d="M250 358q-58 0-101 42.5t-43 99.5q0 58 42.5 100.5t101.5 42.5q58 0 100.5-42.5t42.5-100.5q0-57-42.5-99.5t-100.5-42.5z" horiz-adv-x="501" unicode="&#xb7;"/><glyph d="M0-334l45 94q73-59 166-59 48 0 81.5 20t33.5 58q0 57-68 57-42 0-70-31l-84 48 64 170h113l-54-132q33 23 74 23 59 0 98-38.5t39-98.5q0-79-63.5-126.5t-157.5-47.5q-67 0-125.5 18t-91.5 45z" horiz-adv-x="438" unicode="&#xb8;"/><glyph d="M418 862h-166v606l-137-141-95 100 254 254h144v-819z" horiz-adv-x="540" unicode="&#xb9;"/><glyph d="M70 989q0 142 95 240t249 98q157 0 251.5-97.5t94.5-240.5-94.5-240.5-251.5-97.5q-154 0-249 98t-95 240zM596 989q0 92-48.5 148.5t-133.5 56.5-133-56.5-48-148.5q0-94 48-151.5t133-57.5 133.5 57.5 48.5 151.5z" horiz-adv-x="829" unicode="&#xba;"/><glyph d="M592 498l-328-369h-203l328 369-328 362h203zM940 498l-328-369h-202l327 369-327 362h202z" horiz-adv-x="1001" unicode="&#xbb;"/><glyph d="M418 547h-166v606l-137-141-95 100 254 254h144v-819zM1251 1366l-874-1366h-137l872 1366h139zM1542 188h-112v-188h-164v188h-402v115l336 516h230v-500h112v-131zM1266 319v359l-238-359h238z" horiz-adv-x="1601" unicode="&#xbc;"/><glyph d="M418 547h-166v606l-137-141-95 100 254 254h144v-819zM1251 1366l-874-1366h-137l872 1366h139zM1620 0h-623v121q263 187 358 278t95 170q0 63-44 96t-110 33q-69 0-130.5-30.5t-94.5-73.5l-88 104q56 66 141 99.5t176 33.5q136 0 225-65t89-184q0-105-91.5-208.5t-285.5-240.5h383v-133z" horiz-adv-x="1703" unicode="&#xbd;"/><glyph d="M399 532q-110 0-194 36.5t-131 95.5l84 106q43-50 106.5-77t128.5-27q79 0 123.5 31t44.5 85q0 117-194 117-76 0-88-2v133q16-2 86-2 182 0 182 109 0 52-46 80t-118 28q-128 0-219-94l-80 98q119 129 315 129 144 0 228-60.5t84-160.5q0-77-54.5-126.5t-128.5-61.5q72-5 134.5-57.5t62.5-139.5q0-107-89-173.5t-237-66.5zM1464 1366l-874-1366h-137l872 1366h139zM1755 188h-113v-188h-163v188h-402v115l336 516h229v-500h113v-131zM1479 319v359l-238-359h238z" horiz-adv-x="1814" unicode="&#xbe;"/><glyph d="M621 866q0-57-43-99t-101-42-100.5 42-42.5 99q0 59 42.5 101.5t100.5 42.5q59 0 101.5-43t42.5-101zM625 410q0-39-12-75t-27.5-61-45-52.5-49.5-42.5-55-40q-36-26-54.5-41t-42-38.5-34-48-10.5-52.5q0-64 49.5-105.5t144.5-41.5q169 0 285 143l137-154q-79-96-194-149t-252-53q-190 0-303 90t-113 231q0 49 14 93t32 73.5 52 62 56 49.5 63 46q51 37 77 58t49.5 56.5 23.5 73.5q0 54-45 92l180 60q74-71 74-174z" horiz-adv-x="811" unicode="&#xbf;"/><glyph d="M764 1481h-154l-338 295h205zM1374 0h-262l-100 262h-647l-101-262h-262l537 1366h299zM944 473l-256 690-256-690h512z" horiz-adv-x="1378" unicode="&#xc0;"/><glyph d="M1096 1776l-338-295h-154l287 295h205zM1374 0h-262l-100 262h-647l-101-262h-262l537 1366h299zM944 473l-256 690-256-690h512z" horiz-adv-x="1378" unicode="&#xc1;"/><glyph d="M983 1481h-137l-158 196-153-196h-136l191 295h196zM1374 0h-262l-100 262h-647l-101-262h-262l537 1366h299zM944 473l-256 690-256-690h512z" horiz-adv-x="1378" unicode="&#xc2;"/><glyph d="M651 1571q-17 22-27 33.5t-27 21.5-34 10q-38 0-62-37t-24-110h-117q0 128 55 201t156 73q37 0 68.5-16t47-32 38.5-46q19-24 29-34t27-20.5 34-10.5q37 0 60.5 37t23.5 110h119q0-128-55-201t-156-73q-37 0-69 16t-48 32.5-39 45.5zM1374 0h-262l-100 262h-647l-101-262h-262l537 1366h299zM944 473l-256 690-256-690h512z" horiz-adv-x="1378" unicode="&#xc3;"/><glyph d="M475 1497q-51 0-86 35t-35 86q0 50 35 84.5t86 34.5q49 0 84-34.5t35-84.5q0-51-34.5-86t-84.5-35zM903 1497q-50 0-85.5 35t-35.5 86q0 49 35.5 84t85.5 35 85.5-35 35.5-84q0-51-35.5-86t-85.5-35zM1374 0h-262l-100 262h-647l-101-262h-262l537 1366h299zM944 473l-256 690-256-690h512z" horiz-adv-x="1378" unicode="&#xc4;"/><glyph d="M481 1649q0 86 61.5 148.5t147.5 62.5 146.5-62 60.5-149q0-86-60.5-147.5t-146.5-61.5-147.5 61.5-61.5 147.5zM795 1649q0 44-30.5 75t-74.5 31q-43 0-74.5-31t-31.5-75q0-43 31.5-75t74.5-32q44 0 74.5 32t30.5 75zM1374 0h-262l-100 262h-647l-101-262h-262l537 1366h299zM944 473l-256 690-256-690h512z" horiz-adv-x="1378" unicode="&#xc5;"/><glyph d="M1868 0h-936v262h-516l-158-262h-262l840 1366h1032v-211h-697v-354h682v-211h-682v-379h697v-211zM932 473v692l-402-692h402z" horiz-adv-x="1964" unicode="&#xc6;"/><glyph d="M791 188q115 0 209 55t145 144l205-104q-183-291-516-306l-35-86q33 23 73 23 59 0 98.5-38.5t39.5-98.5q0-79-64-126.5t-158-47.5q-67 0-125.5 18t-91.5 45l45 94q73-59 166-59 48 0 81.5 20t33.5 58q0 57-68 57-41 0-69-31l-84 48 47 124q-134 12-251.5 68.5t-203 147-135 217.5-49.5 272q0 154 55.5 287t150.5 224.5 225 143.5 276 52q367 0 559-308l-205-104q-52 88-146 143.5t-208 55.5q-196 0-328.5-140t-132.5-354 132.5-354 328.5-140z" horiz-adv-x="1396" unicode="&#xc7;"/><glyph d="M702 1481h-153l-338 295h205zM1081 0h-936v1366h936v-211h-696v-354h682v-211h-682v-379h696v-211z" horiz-adv-x="1181" unicode="&#xc8;"/><glyph d="M1034 1776l-338-295h-153l286 295h205zM1081 0h-936v1366h936v-211h-696v-354h682v-211h-682v-379h696v-211z" horiz-adv-x="1181" unicode="&#xc9;"/><glyph d="M922 1481h-138l-157 196-154-196h-135l190 295h197zM1081 0h-936v1366h936v-211h-696v-354h682v-211h-682v-379h696v-211z" horiz-adv-x="1181" unicode="&#xca;"/><glyph d="M414 1497q-51 0-86 35t-35 86q0 50 35 84.5t86 34.5q49 0 83.5-34.5t34.5-84.5q0-51-34-86t-84-35zM842 1497q-50 0-85.5 35t-35.5 86q0 49 35.5 84t85.5 35 85.5-35 35.5-84q0-51-35.5-86t-85.5-35zM1081 0h-936v1366h936v-211h-696v-354h682v-211h-682v-379h696v-211z" horiz-adv-x="1181" unicode="&#xcb;"/><glyph d="M342 1481h-154l-338 295h205zM385 0h-240v1366h240v-1366z" horiz-adv-x="530" unicode="&#xcc;"/><glyph d="M674 1776l-338-295h-154l287 295h205zM385 0h-240v1366h240v-1366z" horiz-adv-x="530" unicode="&#xcd;"/><glyph d="M561 1481h-137l-158 196-153-196h-136l191 295h197zM385 0h-240v1366h240v-1366z" horiz-adv-x="530" unicode="&#xce;"/><glyph d="M53 1497q-51 0-86 35t-35 86q0 50 35 84.5t86 34.5q49 0 84-34.5t35-84.5q0-51-34.5-86t-84.5-35zM481 1497q-50 0-85.5 35t-35.5 86q0 49 35.5 84t85.5 35 85.5-35 35.5-84q0-51-35.5-86t-85.5-35zM385 0h-240v1366h240v-1366z" horiz-adv-x="530" unicode="&#xcf;"/><glyph d="M199 1366h508q210 0 373-87t252-242.5 89-354.5q0-302-198-492t-516-190h-508v584h-181v176h181v606zM438 211h269q144 0 252 64.5t162.5 170.5 54.5 236q0 206-124 339.5t-345 133.5h-269v-395h324v-176h-324v-373z" horiz-adv-x="1507" unicode="&#xd0;"/><glyph d="M700 1571q-17 22-27 33.5t-27 21.5-34 10q-38 0-62-37t-24-110h-116q0 128 55 201t156 73q37 0 68.5-16t46-31.5 38.5-46.5q19-24 29-34t27-20.5 34-10.5q37 0 60.5 37t23.5 110h119q0-128-55-201t-156-73q-37 0-69 16t-48 32.5-39 45.5zM1329 0h-231l-713 995v-995h-240v1366h246l699-969v969h239v-1366z" horiz-adv-x="1474" unicode="&#xd1;"/><glyph d="M856 1481h-154l-337 295h204zM84 682q0 202 88.5 363.5t248 252.5 361.5 91q151 0 281.5-53.5t222-147 143.5-224.5 52-282-52-282-143.5-224.5-222-147-281.5-53.5q-202 0-361.5 91t-248 252.5-88.5 363.5zM1235 682q0 215-125 354.5t-328 139.5q-204 0-328-139t-124-355q0-214 124-354t328-140q203 0 328 140t125 354z" horiz-adv-x="1566" unicode="&#xd2;"/><glyph d="M1188 1776l-338-295h-154l287 295h205zM84 682q0 202 88.5 363.5t248 252.5 361.5 91q151 0 281.5-53.5t222-147 143.5-224.5 52-282-52-282-143.5-224.5-222-147-281.5-53.5q-202 0-361.5 91t-248 252.5-88.5 363.5zM1235 682q0 215-125 354.5t-328 139.5q-204 0-328-139t-124-355q0-214 124-354t328-140q203 0 328 140t125 354z" horiz-adv-x="1566" unicode="&#xd3;"/><glyph d="M1075 1481h-137l-158 196-153-196h-135l190 295h197zM84 682q0 202 88.5 363.5t248 252.5 361.5 91q151 0 281.5-53.5t222-147 143.5-224.5 52-282-52-282-143.5-224.5-222-147-281.5-53.5q-202 0-361.5 91t-248 252.5-88.5 363.5zM1235 682q0 215-125 354.5t-328 139.5q-204 0-328-139t-124-355q0-214 124-354t328-140q203 0 328 140t125 354z" horiz-adv-x="1566" unicode="&#xd4;"/><glyph d="M743 1571q-17 22-27 33.5t-27 21.5-34 10q-38 0-62-37t-24-110h-116q0 128 55 201t156 73q37 0 68.5-16t46-31.5 38.5-46.5q19-24 29-34t27-20.5 34-10.5q37 0 60.5 37t23.5 110h119q0-128-55-201t-156-73q-37 0-69 16t-48 32.5-39 45.5zM84 682q0 202 88.5 363.5t248 252.5 361.5 91q151 0 281.5-53.5t222-147 143.5-224.5 52-282-52-282-143.5-224.5-222-147-281.5-53.5q-202 0-361.5 91t-248 252.5-88.5 363.5zM1235 682q0 215-125 354.5t-328 139.5q-204 0-328-139t-124-355q0-214 124-354t328-140q203 0 328 140t125 354z" horiz-adv-x="1566" unicode="&#xd5;"/><glyph d="M567 1497q-51 0-86 35t-35 86q0 50 35 84.5t86 34.5q49 0 84-34.5t35-84.5q0-51-34.5-86t-84.5-35zM995 1497q-50 0-85.5 35t-35.5 86q0 49 35.5 84t85.5 35 85.5-35 35.5-84q0-51-35.5-86t-85.5-35zM84 682q0 202 88.5 363.5t248 252.5 361.5 91q151 0 281.5-53.5t222-147 143.5-224.5 52-282-52-282-143.5-224.5-222-147-281.5-53.5q-202 0-361.5 91t-248 252.5-88.5 363.5zM1235 682q0 215-125 354.5t-328 139.5q-204 0-328-139t-124-355q0-214 124-354t328-140q203 0 328 140t125 354z" horiz-adv-x="1566" unicode="&#xd6;"/><glyph d="M809 291l-295 295-295-295-98 96 295 297-295 295 98 98 295-297 295 297 98-98-295-295 295-297z" horiz-adv-x="1028" unicode="&#xd7;"/><glyph d="M1358 1395l-119-164q115-96 178.5-238t63.5-311q0-151-52-282t-143.5-224.5-222-147-281.5-53.5q-206 0-376 101l-127-174-95 69 127 174q-108 96-167.5 234.5t-59.5 302.5q0 202 88.5 363.5t248 252.5 361.5 91q200 0 361-93l121 168zM330 682q0-208 119-346l563 780q-102 60-230 60-204 0-328-139t-124-355zM782 188q203 0 328 140t125 354q0 223-131 360l-567-784q106-70 245-70z" horiz-adv-x="1566" unicode="&#xd8;"/><glyph d="M813 1481h-154l-337 295h204zM145 539v827h242v-819q0-166 90.5-262.5t259.5-96.5q167 0 257.5 96.5t90.5 262.5v819h242v-825q0-262-150.5-414t-439.5-152q-290 0-441 152t-151 412z" horiz-adv-x="1472" unicode="&#xd9;"/><glyph d="M1145 1776l-338-295h-154l287 295h205zM145 539v827h242v-819q0-166 90.5-262.5t259.5-96.5q167 0 257.5 96.5t90.5 262.5v819h242v-825q0-262-150.5-414t-439.5-152q-290 0-441 152t-151 412z" horiz-adv-x="1472" unicode="&#xda;"/><glyph d="M1032 1481h-137l-158 196-153-196h-135l190 295h197zM145 539v827h242v-819q0-166 90.5-262.5t259.5-96.5q167 0 257.5 96.5t90.5 262.5v819h242v-825q0-262-150.5-414t-439.5-152q-290 0-441 152t-151 412z" horiz-adv-x="1472" unicode="&#xdb;"/><glyph d="M524 1497q-51 0-86 35t-35 86q0 50 35 84.5t86 34.5q50 0 84.5-34.5t34.5-84.5q0-51-34.5-86t-84.5-35zM952 1497q-50 0-85.5 35t-35.5 86q0 49 35.5 84t85.5 35 85.5-35 35.5-84q0-51-35.5-86t-85.5-35zM145 539v827h242v-819q0-166 90.5-262.5t259.5-96.5q167 0 257.5 96.5t90.5 262.5v819h242v-825q0-262-150.5-414t-439.5-152q-290 0-441 152t-151 412z" horiz-adv-x="1472" unicode="&#xdc;"/><glyph d="M1059 1776l-338-295h-154l287 295h205zM772 0h-240v567l-530 799h274l377-586 373 586h274l-528-799v-567z" horiz-adv-x="1304" unicode="&#xdd;"/><glyph d="M385 0h-240v1366h240v-231h360q139 0 242-59.5t154-156 51-214.5q0-117-51.5-212t-154.5-153.5-241-58.5h-360v-281zM946 707q0 96-65.5 156.5t-167.5 60.5h-328v-432h328q103 0 168 59t65 156z" horiz-adv-x="1245" unicode="&#xde;"/><glyph d="M778 745q149-30 241.5-135.5t92.5-236.5q0-186-117.5-292t-292.5-106q-156 0-266 78l74 160q90-53 192-53 72 0 130.5 58t58.5 163q0 122-99.5 195.5t-293.5 66.5v170q139 0 210.5 59t71.5 146q0 84-58.5 131t-131.5 47q-109 0-172.5-73.5t-63.5-227.5v-895h-215v895q0 115 37.5 210t101 155 143 93 165.5 33q181 0 299.5-96.5t118.5-245.5q0-106-61-183.5t-165-115.5z" horiz-adv-x="1189" unicode="&#xdf;"/><glyph d="M625 1139h-154l-338 295h205zM958 0h-215v106q-56-63-138.5-97t-180.5-34q-62 0-122 21t-110.5 60.5-81 103.5-30.5 143q0 82 30.5 145.5t81 101 110 56.5 122.5 19q210 0 319-127v147q0 85-63.5 134.5t-167.5 49.5q-166 0-293-124l-88 149q169 160 416 160 86 0 157.5-19.5t129.5-60 91-112 33-167.5v-655zM743 225v150q-36 49-99 75.5t-136 26.5q-92 0-151.5-48.5t-59.5-129.5q0-79 59.5-127.5t151.5-48.5q73 0 136 26.5t99 75.5z" horiz-adv-x="1097" unicode="&#xe0;"/><glyph d="M956 1434l-338-295h-153l287 295h204zM958 0h-215v106q-56-63-138.5-97t-180.5-34q-62 0-122 21t-110.5 60.5-81 103.5-30.5 143q0 82 30.5 145.5t81 101 110 56.5 122.5 19q210 0 319-127v147q0 85-63.5 134.5t-167.5 49.5q-166 0-293-124l-88 149q169 160 416 160 86 0 157.5-19.5t129.5-60 91-112 33-167.5v-655zM743 225v150q-36 49-99 75.5t-136 26.5q-92 0-151.5-48.5t-59.5-129.5q0-79 59.5-127.5t151.5-48.5q73 0 136 26.5t99 75.5z" horiz-adv-x="1097" unicode="&#xe1;"/><glyph d="M844 1139h-137l-158 196-154-196h-135l191 295h196zM958 0h-215v106q-56-63-138.5-97t-180.5-34q-62 0-122 21t-110.5 60.5-81 103.5-30.5 143q0 82 30.5 145.5t81 101 110 56.5 122.5 19q210 0 319-127v147q0 85-63.5 134.5t-167.5 49.5q-166 0-293-124l-88 149q169 160 416 160 86 0 157.5-19.5t129.5-60 91-112 33-167.5v-655zM743 225v150q-36 49-99 75.5t-136 26.5q-92 0-151.5-48.5t-59.5-129.5q0-79 59.5-127.5t151.5-48.5q73 0 136 26.5t99 75.5z" horiz-adv-x="1097" unicode="&#xe2;"/><glyph d="M512 1229q-17 22-27 33.5t-27 21.5-34 10q-38 0-62-37t-24-110h-117q0 128 55 201t156 73q37 0 68.5-16t47-32 38.5-46q19-24 29-34t27-20.5 34-10.5q37 0 60.5 37t23.5 110h119q0-128-55-201t-156-73q-37 0-69 16t-48 32.5-39 45.5zM958 0h-215v106q-56-63-138.5-97t-180.5-34q-62 0-122 21t-110.5 60.5-81 103.5-30.5 143q0 82 30.5 145.5t81 101 110 56.5 122.5 19q210 0 319-127v147q0 85-63.5 134.5t-167.5 49.5q-166 0-293-124l-88 149q169 160 416 160 86 0 157.5-19.5t129.5-60 91-112 33-167.5v-655zM743 225v150q-36 49-99 75.5t-136 26.5q-92 0-151.5-48.5t-59.5-129.5q0-79 59.5-127.5t151.5-48.5q73 0 136 26.5t99 75.5z" horiz-adv-x="1097" unicode="&#xe3;"/><glyph d="M336 1155q-51 0-86 35t-35 86q0 50 35 84.5t86 34.5q50 0 84.5-34.5t34.5-84.5q0-51-34.5-86t-84.5-35zM764 1155q-50 0-85.5 35t-35.5 86q0 49 35.5 84t85.5 35 85.5-35 35.5-84q0-51-35.5-86t-85.5-35zM958 0h-215v106q-56-63-138.5-97t-180.5-34q-62 0-122 21t-110.5 60.5-81 103.5-30.5 143q0 82 30.5 145.5t81 101 110 56.5 122.5 19q210 0 319-127v147q0 85-63.5 134.5t-167.5 49.5q-166 0-293-124l-88 149q169 160 416 160 86 0 157.5-19.5t129.5-60 91-112 33-167.5v-655zM743 225v150q-36 49-99 75.5t-136 26.5q-92 0-151.5-48.5t-59.5-129.5q0-79 59.5-127.5t151.5-48.5q73 0 136 26.5t99 75.5z" horiz-adv-x="1097" unicode="&#xe4;"/><glyph d="M342 1307q0 86 61.5 148.5t147.5 62.5 146.5-62 60.5-149q0-86-60.5-147.5t-146.5-61.5-147.5 61.5-61.5 147.5zM655 1307q0 44-30 75t-74 31q-43 0-75-31t-32-75q0-43 32-75t75-32q44 0 74 32t30 75zM958 0h-215v106q-56-63-138.5-97t-180.5-34q-62 0-122 21t-110.5 60.5-81 103.5-30.5 143q0 82 30.5 145.5t81 101 110 56.5 122.5 19q210 0 319-127v147q0 85-63.5 134.5t-167.5 49.5q-166 0-293-124l-88 149q169 160 416 160 86 0 157.5-19.5t129.5-60 91-112 33-167.5v-655zM743 225v150q-36 49-99 75.5t-136 26.5q-92 0-151.5-48.5t-59.5-129.5q0-79 59.5-127.5t151.5-48.5q73 0 136 26.5t99 75.5z" horiz-adv-x="1097" unicode="&#xe5;"/><glyph d="M1724 424h-718q13-117 89-192.5t201-75.5q70 0 142 28.5t118 79.5l99-145q-71-68-171.5-106t-197.5-38q-270 0-389 201-60-90-172-145.5t-244-55.5q-79 0-150 20.5t-127.5 60-90 103-33.5 142.5q0 154 103.5 239t258.5 85q106 0 197.5-31.5t151.5-91.5v145q0 84-70 133t-182 49q-184 0-320-124l-88 149q172 160 426 160 135 0 227-49.5t129-141.5q40 58 84 97t116.5 66.5 162.5 27.5q204 0 326-151t122-388v-51zM1004 575h512q-2 46-17.5 90.5t-45 84.5-79.5 64-114 24q-60 0-109-24t-79.5-62.5-47.5-84-20-92.5zM791 358v15q-42 49-113 76.5t-150 27.5q-103 0-167-42.5t-64-119.5 63.5-118 167.5-41 183.5 64.5 79.5 137.5z" horiz-adv-x="1798" unicode="&#xe6;"/><glyph d="M600 166q142 0 227 117l142-131q-117-159-330-175l-35-86q33 23 74 23 59 0 98-38.5t39-98.5q0-79-63.5-126.5t-157.5-47.5q-67 0-125.5 18t-91.5 45l45 94q73-59 166-59 48 0 81 20t33 58q0 57-67 57-42 0-70-31l-84 48 47 127q-201 20-325.5 162.5t-124.5 353.5q0 225 143.5 371.5t368.5 146.5q248 0 379-176l-142-131q-82 116-227 116-134 0-216.5-91t-82.5-236q0-146 82.5-238t216.5-92z" horiz-adv-x="1017" unicode="&#xe7;"/><glyph d="M655 1139h-153l-338 295h205zM78 496q0 142 63.5 260.5t179.5 188 259 69.5q220 0 353.5-151.5t133.5-387.5v-51h-764q13-117 96.5-194.5t218.5-77.5q75 0 152.5 28.5t128.5 79.5l98-141q-73-70-177-107t-224-37q-225 0-371.5 144.5t-146.5 376.5zM580 838q-66 0-119.5-23.5t-86-63-51-84-22.5-92.5h557q-2 46-18.5 90.5t-48.5 84.5-86.5 64-124.5 24z" horiz-adv-x="1140" unicode="&#xe8;"/><glyph d="M987 1434l-338-295h-153l286 295h205zM78 496q0 142 63.5 260.5t179.5 188 259 69.5q220 0 353.5-151.5t133.5-387.5v-51h-764q13-117 96.5-194.5t218.5-77.5q75 0 152.5 28.5t128.5 79.5l98-141q-73-70-177-107t-224-37q-225 0-371.5 144.5t-146.5 376.5zM580 838q-66 0-119.5-23.5t-86-63-51-84-22.5-92.5h557q-2 46-18.5 90.5t-48.5 84.5-86.5 64-124.5 24z" horiz-adv-x="1140" unicode="&#xe9;"/><glyph d="M874 1139h-137l-157 196-154-196h-135l190 295h197zM78 496q0 142 63.5 260.5t179.5 188 259 69.5q220 0 353.5-151.5t133.5-387.5v-51h-764q13-117 96.5-194.5t218.5-77.5q75 0 152.5 28.5t128.5 79.5l98-141q-73-70-177-107t-224-37q-225 0-371.5 144.5t-146.5 376.5zM580 838q-66 0-119.5-23.5t-86-63-51-84-22.5-92.5h557q-2 46-18.5 90.5t-48.5 84.5-86.5 64-124.5 24z" horiz-adv-x="1140" unicode="&#xea;"/><glyph d="M367 1155q-51 0-86 35t-35 86q0 50 35 84.5t86 34.5q49 0 83.5-34.5t34.5-84.5q0-51-34-86t-84-35zM795 1155q-50 0-85.5 35t-35.5 86q0 49 35.5 84t85.5 35 85-35 35-84q0-51-35-86t-85-35zM78 496q0 142 63.5 260.5t179.5 188 259 69.5q220 0 353.5-151.5t133.5-387.5v-51h-764q13-117 96.5-194.5t218.5-77.5q75 0 152.5 28.5t128.5 79.5l98-141q-73-70-177-107t-224-37q-225 0-371.5 144.5t-146.5 376.5zM580 838q-66 0-119.5-23.5t-86-63-51-84-22.5-92.5h557q-2 46-18.5 90.5t-48.5 84.5-86.5 64-124.5 24z" horiz-adv-x="1140" unicode="&#xeb;"/><glyph d="M322 1139h-154l-338 295h205zM354 0h-215v989h215v-989z" horiz-adv-x="493" unicode="&#xec;"/><glyph d="M653 1434l-338-295h-153l287 295h204zM354 0h-215v989h215v-989z" horiz-adv-x="493" unicode="&#xed;"/><glyph d="M541 1139h-138l-157 196-154-196h-135l190 295h197zM354 0h-215v989h215v-989z" horiz-adv-x="493" unicode="&#xee;"/><glyph d="M33 1155q-51 0-86 35t-35 86q0 50 35 84.5t86 34.5q49 0 84-34.5t35-84.5q0-51-34.5-86t-84.5-35zM461 1155q-50 0-85.5 35t-35.5 86q0 49 35.5 84t85.5 35 85.5-35 35.5-84q0-51-35.5-86t-85.5-35zM354 0h-215v989h215v-989z" horiz-adv-x="493" unicode="&#xef;"/><glyph d="M893 1280l-160-72q363-315 363-696 0-239-138-388t-372-149q-227 0-367.5 139t-140.5 353q0 213 126 352t318 139q203 0 326-186-84 171-324 344l-297-131-45 107 230 100q-36 25-138 86l117 174q138-82 242-162l215 94zM586 166q133 0 209.5 87t76.5 214-76.5 214-209.5 87q-132 0-208.5-87t-76.5-214 76.5-214 208.5-87z" horiz-adv-x="1173" unicode="&#xf0;"/><glyph d="M545 1229q-17 22-27 33.5t-27 21.5-34 10q-38 0-62-37t-24-110h-117q0 128 55 201t156 73q37 0 68.5-16t46-31.5 38.5-46.5q19-23 29-33.5t27.5-21 34.5-10.5q37 0 60.5 37t23.5 110h118q0-128-55-201t-156-73q-37 0-68.5 16t-47.5 32-39 46zM1022 0h-215v618q0 110-51.5 157.5t-147.5 47.5q-78 0-146-38.5t-108-94.5v-690h-215v989h215v-135q56 66 148 113t200 47q158 0 239-82t81-236v-696z" horiz-adv-x="1161" unicode="&#xf1;"/><glyph d="M662 1139h-154l-338 295h205zM586-25q-115 0-211 41.5t-160.5 112-100.5 165.5-36 202q0 106 36 200.5t100.5 165 160.5 111.5 211 41q154 0 271.5-71t178-187.5 60.5-259.5q0-144-60.5-261.5t-178-188.5-271.5-71zM586 166q133 0 209.5 95.5t76.5 234.5q0 137-76.5 232t-209.5 95q-131 0-208-95t-77-232q0-138 77-234t208-96z" horiz-adv-x="1173" unicode="&#xf2;"/><glyph d="M993 1434l-338-295h-153l286 295h205zM586-25q-115 0-211 41.5t-160.5 112-100.5 165.5-36 202q0 106 36 200.5t100.5 165 160.5 111.5 211 41q154 0 271.5-71t178-187.5 60.5-259.5q0-144-60.5-261.5t-178-188.5-271.5-71zM586 166q133 0 209.5 95.5t76.5 234.5q0 137-76.5 232t-209.5 95q-131 0-208-95t-77-232q0-138 77-234t208-96z" horiz-adv-x="1173" unicode="&#xf3;"/><glyph d="M881 1139h-138l-157 196-154-196h-135l190 295h197zM586-25q-115 0-211 41.5t-160.5 112-100.5 165.5-36 202q0 106 36 200.5t100.5 165 160.5 111.5 211 41q154 0 271.5-71t178-187.5 60.5-259.5q0-144-60.5-261.5t-178-188.5-271.5-71zM586 166q133 0 209.5 95.5t76.5 234.5q0 137-76.5 232t-209.5 95q-131 0-208-95t-77-232q0-138 77-234t208-96z" horiz-adv-x="1173" unicode="&#xf4;"/><glyph d="M549 1229q-17 22-27 33.5t-27 21.5-34 10q-38 0-62-37t-24-110h-117q0 128 55 201t156 73q37 0 68.5-16t47-32 38.5-46q19-24 29-34t27-20.5 34-10.5q37 0 60.5 37t23.5 110h118q0-128-54.5-201t-155.5-73q-37 0-69 16t-48 32.5-39 45.5zM586-25q-115 0-211 41.5t-160.5 112-100.5 165.5-36 202q0 106 36 200.5t100.5 165 160.5 111.5 211 41q154 0 271.5-71t178-187.5 60.5-259.5q0-144-60.5-261.5t-178-188.5-271.5-71zM586 166q133 0 209.5 95.5t76.5 234.5q0 137-76.5 232t-209.5 95q-131 0-208-95t-77-232q0-138 77-234t208-96z" horiz-adv-x="1173" unicode="&#xf5;"/><glyph d="M373 1155q-51 0-86 35t-35 86q0 50 35 84.5t86 34.5q49 0 84-34.5t35-84.5q0-51-34.5-86t-84.5-35zM801 1155q-50 0-85.5 35t-35.5 86q0 49 35.5 84t85.5 35 85.5-35 35.5-84q0-51-35.5-86t-85.5-35zM586-25q-115 0-211 41.5t-160.5 112-100.5 165.5-36 202q0 106 36 200.5t100.5 165 160.5 111.5 211 41q154 0 271.5-71t178-187.5 60.5-259.5q0-144-60.5-261.5t-178-188.5-271.5-71zM586 166q133 0 209.5 95.5t76.5 234.5q0 137-76.5 232t-209.5 95q-131 0-208-95t-77-232q0-138 77-234t208-96z" horiz-adv-x="1173" unicode="&#xf6;"/><glyph d="M522 952q-45 0-77.5 33.5t-32.5 79.5 32 78.5 78 32.5 79.5-32.5 33.5-78.5-33.5-79.5-79.5-33.5zM987 621h-928v139h928v-139zM522 199q-46 0-78 32t-32 78 32.5 79.5 77.5 33.5q46 0 79.5-33.5t33.5-79.5q0-45-33.5-77.5t-79.5-32.5z" horiz-adv-x="1046" unicode="&#xf7;"/><glyph d="M1040 1030l-104-145q77-72 118.5-173t41.5-216q0-144-60.5-261.5t-178-188.5-271.5-71q-147 0-258 66l-101-139-82 57 101 139q-81 72-124.5 175.5t-43.5 222.5q0 106 36 200.5t100.5 165 160.5 111.5 211 41q150 0 270-70l105 143zM301 496q0-134 70-226l366 510q-65 43-151 43-131 0-208-95t-77-232zM586 166q133 0 209.5 95.5t76.5 234.5q0 124-63 215l-365-508q63-37 142-37z" horiz-adv-x="1173" unicode="&#xf8;"/><glyph d="M655 1139h-153l-338 295h205zM1022 0h-215v131q-60-67-150.5-111.5t-199.5-44.5q-158 0-238 80t-80 234v700h215v-622q0-110 51-155.5t148-45.5q77 0 145 37t109 92v694h215v-989z" horiz-adv-x="1161" unicode="&#xf9;"/><glyph d="M987 1434l-338-295h-153l286 295h205zM1022 0h-215v131q-60-67-150.5-111.5t-199.5-44.5q-158 0-238 80t-80 234v700h215v-622q0-110 51-155.5t148-45.5q77 0 145 37t109 92v694h215v-989z" horiz-adv-x="1161" unicode="&#xfa;"/><glyph d="M874 1139h-137l-157 196-154-196h-135l190 295h197zM1022 0h-215v131q-60-67-150.5-111.5t-199.5-44.5q-158 0-238 80t-80 234v700h215v-622q0-110 51-155.5t148-45.5q77 0 145 37t109 92v694h215v-989z" horiz-adv-x="1161" unicode="&#xfb;"/><glyph d="M367 1155q-51 0-86 35t-35 86q0 50 35 84.5t86 34.5q49 0 83.5-34.5t34.5-84.5q0-51-34-86t-84-35zM795 1155q-50 0-85.5 35t-35.5 86q0 49 35.5 84t85.5 35 85-35 35-84q0-51-35-86t-85-35zM1022 0h-215v131q-60-67-150.5-111.5t-199.5-44.5q-158 0-238 80t-80 234v700h215v-622q0-110 51-155.5t148-45.5q77 0 145 37t109 92v694h215v-989z" horiz-adv-x="1161" unicode="&#xfc;"/><glyph d="M922 1434l-338-295h-154l287 295h205zM96-387l33 192q37-16 82-16 53 0 86.5 19t54.5 67l49 113-405 1001h229l289-741 289 741h231l-477-1167q-49-120-133-170.5t-207-52.5q-67 0-121 14z" horiz-adv-x="1030" unicode="&#xfd;"/><glyph d="M354 137v-514h-215v1743h215v-512q56 75 139.5 117.5t178.5 42.5q196 0 317-139t121-379q0-241-121.5-381t-316.5-140q-94 0-176 41.5t-142 120.5zM887 496q0 144-76.5 235.5t-202.5 91.5q-74 0-146-38.5t-108-94.5v-391q36-55 108.5-94t145.5-39q126 0 202.5 92t76.5 238z" horiz-adv-x="1187" unicode="&#xfe;"/><glyph d="M301 1155q-51 0-86 35t-35 86q0 50 35 84.5t86 34.5q49 0 84-34.5t35-84.5q0-51-34.5-86t-84.5-35zM729 1155q-50 0-85.5 35t-35.5 86q0 49 35.5 84t85.5 35 85.5-35 35.5-84q0-51-35.5-86t-85.5-35zM96-387l33 192q37-16 82-16 53 0 86.5 19t54.5 67l49 113-405 1001h229l289-741 289 741h231l-477-1167q-49-120-133-170.5t-207-52.5q-67 0-121 14z" horiz-adv-x="1030" unicode="&#xff;"/><glyph d="M2140 0h-936v197q-69-106-190.5-164t-253.5-58q-196 0-350.5 91t-240 252-85.5 364 85.5 363.5 240 250.5 350.5 90q132 0 253.5-57t190.5-162v199h936v-211h-696v-354h682v-211h-682v-379h696v-211zM1204 465v434q-53 134-162 204.5t-251 70.5q-210 0-335.5-138t-125.5-354 125.5-355 335.5-139q141 0 250.5 72t162.5 205z" horiz-adv-x="2238" unicode="&#x152;"/><glyph d="M1860 424h-762q13-118 96-195t217-77q76 0 153.5 28.5t129.5 79.5l98-141q-74-70-178.5-107t-222.5-37q-266 0-410 246-140-246-395-246-115 0-211 41.5t-160.5 112-100.5 165.5-36 202q0 106 36 200.5t100.5 165 160.5 111.5 211 41q253 0 397-248 24 44 55 82t78.5 78.5 114 64 143.5 23.5q146 0 257-70t170-192 59-277v-51zM1096 575h557q-2 46-19.5 90.5t-49.5 84.5-87 64-125 24q-65 0-118-24t-85.5-62.5-51-84-21.5-92.5zM586 823q-128 0-206.5-93t-78.5-234q0-143 78.5-237.5t206.5-94.5q130 0 208 94.5t78 237.5q0 142-77.5 234.5t-208.5 92.5z" horiz-adv-x="1933" unicode="&#x153;"/><glyph d="M438 1497q-51 0-86 35t-35 86q0 50 35 84.5t86 34.5q50 0 84.5-34.5t34.5-84.5q0-51-34.5-86t-84.5-35zM866 1497q-50 0-85.5 35t-35.5 86q0 49 35.5 84t85.5 35 85.5-35 35.5-84q0-51-35.5-86t-85.5-35zM772 0h-240v567l-530 799h274l377-586 373 586h274l-528-799v-567z" horiz-adv-x="1304" unicode="&#x178;"/><glyph d="M719 668h-160v397q0 70-33 99.5t-96 29.5q-49 0-91.5-23.5t-70.5-56.5v-446h-157v888h157v-331q37 42 99 72t135 30q108 0 162.5-55.5t54.5-159.5v-444z" horiz-adv-x="829" unicode="&#x2b0;"/><glyph d="M584 1139h-138l-157 196-154-196h-135l190 295h197z" horiz-adv-x="583" unicode="&#x2c6;"/><glyph d="M291 1229q-17 22-27 33.5t-27 21.5-34 10q-38 0-62-37t-24-110h-117q0 128 55 201t156 73q37 0 68.5-16t47-32 38.5-46q19-24 29-34t27-20.5 34-10.5q37 0 60.5 37t23.5 110h118q0-128-55-201t-156-73q-37 0-68.5 16t-47.5 32-39 46z" horiz-adv-x="657" unicode="&#x2dc;"/><glyph horiz-adv-x="930" unicode="&#x2000;"/><glyph horiz-adv-x="1860" unicode="&#x2001;"/><glyph horiz-adv-x="930" unicode="&#x2002;"/><glyph horiz-adv-x="1860" unicode="&#x2003;"/><glyph horiz-adv-x="620" unicode="&#x2004;"/><glyph horiz-adv-x="465" unicode="&#x2005;"/><glyph horiz-adv-x="310" unicode="&#x2006;"/><glyph horiz-adv-x="310" unicode="&#x2007;"/><glyph horiz-adv-x="232" unicode="&#x2008;"/><glyph horiz-adv-x="372" unicode="&#x2009;"/><glyph horiz-adv-x="103" unicode="&#x200a;"/><glyph d="M553 403h-492v185h492v-185z" horiz-adv-x="614" unicode="&#x2010;"/><glyph d="M553 403h-492v185h492v-185z" horiz-adv-x="614" unicode="&#x2011;"/><glyph d="M553 403h-492v185h492v-185z" horiz-adv-x="614" unicode="&#x2012;"/><glyph d="M1153 403h-1092v185h1092v-185z" horiz-adv-x="1214" unicode="&#x2013;"/><glyph d="M1645 403h-1584v185h1584v-185z" horiz-adv-x="1705" unicode="&#x2014;"/><glyph d="M279 1386l96-77q-51-30-94.5-86t-53.5-107q12 4 35 4 53 0 88-36t35-93-41-98-98-41q-66 0-113 50t-47 136q0 103 52.5 194.5t140.5 153.5z" horiz-adv-x="499" unicode="&#x2018;"/><glyph d="M213 850l-96 80q51 30 94 85.5t53 106.5q-18-6-35-6-53 0-88 36t-35 93q0 58 41.5 99.5t98.5 41.5q66 0 113-50t47-136q0-103-53-195.5t-140-154.5z" horiz-adv-x="499" unicode="&#x2019;"/><glyph d="M213-272l-96 79q50 30 93.5 85.5t53.5 107.5q-18-6-35-6-53 0-88 36t-35 93q0 58 41.5 99.5t98.5 41.5q66 0 113-50t47-136q0-103-53-195.5t-140-154.5z" horiz-adv-x="501" unicode="&#x201a;"/><glyph d="M285 1386l98-77q-51-30-94.5-86t-52.5-107q8 4 34 4 52 0 86.5-36.5t34.5-92.5q0-57-40.5-98t-98.5-41q-66 0-112 50t-46 136q0 103 52 194.5t139 153.5zM664 1386l98-77q-51-30-95-86t-53-107q8 4 35 4 52 0 86.5-36.5t34.5-92.5q0-57-40.5-98t-98.5-41q-66 0-112 50t-46 136q0 103 52 194.5t139 153.5z" horiz-adv-x="878" unicode="&#x201c;"/><glyph d="M213 850l-96 80q51 30 94 85.5t53 106.5q-18-6-35-6-53 0-88 36t-35 93q0 58 41.5 99.5t98.5 41.5q66 0 113-50t47-136q0-103-53-195.5t-140-154.5zM592 850l-96 80q51 30 94 85.5t53 106.5q-18-6-35-6-53 0-88 36t-35 93q0 58 41.5 99.5t98.5 41.5q66 0 112.5-50t46.5-136q0-103-52.5-195.5t-139.5-154.5z" horiz-adv-x="878" unicode="&#x201d;"/><glyph d="M213-272l-96 79q50 30 93.5 85.5t53.5 107.5q-18-6-35-6-53 0-88 36t-35 93q0 58 41.5 99.5t98.5 41.5q66 0 113-50t47-136q0-103-53-195.5t-140-154.5zM592-272l-96 79q50 30 93.5 85.5t53.5 107.5q-18-6-35-6-53 0-88 36t-35 93q0 58 41.5 99.5t98.5 41.5q66 0 112.5-50t46.5-136q0-103-52.5-195.5t-139.5-154.5z" horiz-adv-x="880" unicode="&#x201e;"/><glyph d="M369 264q-97 0-165.5 68.5t-68.5 163.5q0 97 68.5 165t165.5 68 165-68 68-165q0-96-68-164t-165-68z" horiz-adv-x="733" unicode="&#x2022;"/><glyph d="M248-20q-58 0-100 42t-42 99q0 59 42 101t100 42 100.5-42 42.5-101q0-57-42.5-99t-100.5-42zM750-20q-58 0-100 42t-42 99q0 59 42 101t100 42 100.5-42 42.5-101q0-57-42.5-99t-100.5-42zM1251-20q-58 0-99.5 42t-41.5 99q0 59 41.5 101t99.5 42q59 0 101.5-42.5t42.5-100.5q0-57-43-99t-101-42z" horiz-adv-x="1503" unicode="&#x2026;"/><glyph horiz-adv-x="372" unicode="&#x202f;"/><glyph d="M166 782l-90 37q107 459 121 494 13 33 44.5 53t67.5 20q52 0 86.5-35t34.5-85q0-26-8-45-6-14-70-123.5t-125-212.5z" horiz-adv-x="466" unicode="&#x2032;"/><glyph d="M166 782l-90 37q107 459 121 494 13 33 44.5 53t67.5 20q52 0 86.5-35t34.5-85q0-26-8-45-6-14-70-123.5t-125-212.5zM526 782l-90 37q107 459 121 494 13 33 45 53t68 20q52 0 86.5-35t34.5-85q0-24-9-45-6-14-70-123.5t-125-212.5z" horiz-adv-x="827" unicode="&#x2033;"/><glyph d="M592 129h-203l-328 369 328 362h203l-328-362z" horiz-adv-x="653" unicode="&#x2039;"/><glyph d="M592 498l-328-369h-203l328 369-328 362h203z" horiz-adv-x="653" unicode="&#x203a;"/><glyph d="M659 1366l-874-1366h-137l872 1366h139z" horiz-adv-x="307" unicode="&#x2044;"/><glyph horiz-adv-x="465" unicode="&#x205f;"/><glyph d="M403 848q-87 0-155 36.5t-108 97.5-60.5 135-20.5 155 20.5 154.5 60.5 134.5 108 97 155 36q69 0 126.5-24t97-64.5 66.5-95 39.5-114.5 12.5-124q0-81-20.5-155t-60.5-135-107.5-97.5-153.5-36.5zM403 1561q-92 0-135-79t-43-210q0-132 43-211.5t135-79.5q90 0 132.5 79.5t42.5 211.5q0 131-42.5 210t-132.5 79z" unicode="&#x2070;"/><glyph d="M745 1051h-112v-189h-164v189h-401v114l335 516h230v-499h112v-131zM469 1182v358l-238-358h238z" unicode="&#x2074;"/><glyph d="M397 848q-214 0-319 131l92 108q83-106 227-106 75 0 120.5 40.5t45.5 100.5q0 64-44 104t-118 40q-108 0-182-80l-117 39v456h570v-133h-404v-231q73 69 191 69 113 0 190.5-68t77.5-192-91-201-239-77z" unicode="&#x2075;"/><glyph d="M424 848q-92 0-162.5 33t-112.5 92-62.5 133.5-20.5 163.5q0 190 101.5 307t283.5 117q142 0 245-86l-73-117q-37 36-76.5 53t-95.5 17q-102 0-161-74t-59-178v-25q36 46 96 79.5t126 33.5q121 0 203.5-72.5t82.5-198.5q0-120-88-199t-227-79zM408 1266q-50 0-96.5-24t-78.5-66q7-81 52-138t131-57q71 0 114 42.5t43 96.5q0 71-47.5 108.5t-117.5 37.5z" unicode="&#x2076;"/><glyph d="M682 1567l-320-705h-182l322 686h-443v133h623v-114z" horiz-adv-x="751" unicode="&#x2077;"/><glyph d="M401 848q-90 0-162 22t-120.5 74.5-48.5 128.5q0 74 57 132t143 79q-82 20-134 70t-52 123q0 74 49 125t118 71.5 150 20.5q60 0 115-12.5t102-37 75-68 28-99.5q0-73-52-123t-132-70q85-21 141.5-79t56.5-132q0-111-96.5-168t-237.5-57zM401 1565q-68 0-110.5-29t-42.5-82q0-29 18-52t46-36 49-19.5 40-9.5q20 3 41.5 9.5t50 19.5 46.5 36 18 52q0 53-43 82t-113 29zM401 1225q-18-2-43-10t-55-23-50-42-20-60q0-54 47.5-84.5t120.5-30.5 121.5 30.5 48.5 84.5q0 43-35.5 75t-71.5 44.5-63 15.5z" unicode="&#x2078;"/><glyph d="M383 1694q92 0 161.5-33.5t111.5-92.5 62.5-134 20.5-164q0-188-101.5-305t-281.5-117q-149 0-245 86l73 117q67-70 172-70 99 0 158 72.5t59 179.5v24q-35-46-94.5-79t-124.5-33q-122 0-205 71.5t-83 198.5q0 119 88.5 199t228.5 80zM397 1274q50 0 97 24t77 68q-3 50-20.5 92t-58.5 72.5-99 30.5q-73 0-117.5-43t-44.5-97q0-72 48-109.5t118-37.5z" unicode="&#x2079;"/><glyph d="M346 770l-98-41q-92 98-145.5 245.5t-53.5 297.5q0 148 53.5 295t145.5 248l98-41q-67-125-97-241t-30-261q0-146 30.5-262.5t96.5-239.5z" horiz-adv-x="366" unicode="&#x207d;"/><glyph d="M135 729l-96 41q66 125 96.5 241.5t30.5 260.5-30.5 260.5-96.5 241.5l96 41q92-101 145.5-248t53.5-295q0-150-53.5-297t-145.5-246z" horiz-adv-x="366" unicode="&#x207e;"/><glyph d="M719 668h-158v393q0 133-129 133-50 0-93-23.5t-69-56.5v-446h-159v643h159v-86q37 42 98 72t134 30q217 0 217-215v-444z" horiz-adv-x="831" unicode="&#x207f;"/><glyph d="M403-313q-87 0-155 36.5t-108 97.5-60.5 135-20.5 155 20.5 154.5 60.5 134 108 96.5 155 36q86 0 153.5-36t107.5-96.5 60.5-134 20.5-154.5-20.5-155-60.5-135-107.5-97.5-153.5-36.5zM403 399q-92 0-135-78.5t-43-209.5q0-132 43-211.5t135-79.5q90 0 132.5 79.5t42.5 211.5q0 131-42.5 209.5t-132.5 78.5z" unicode="&#x2080;"/><glyph d="M418-299h-166v606l-137-141-95 100 254 254h144v-819z" horiz-adv-x="540" unicode="&#x2081;"/><glyph d="M721-299h-623v121q263 187 358 278t95 170q0 63-44 96t-110 33q-69 0-130.5-30.5t-94.5-73.5l-88 104q56 66 141 99.5t176 33.5q136 0 225-65t89-184q0-105-91.5-208.5t-285.5-240.5h383v-133z" unicode="&#x2082;"/><glyph d="M399-313q-110 0-194 36t-131 95l84 106q43-50 106.5-77t128.5-27q79 0 123.5 31.5t44.5 85.5q0 116-194 116-76 0-88-2v133q16-2 86-2 182 0 182 109 0 52-46 80t-118 28q-128 0-219-94l-80 98q119 129 315 129 144 0 228-60.5t84-160.5q0-77-54.5-126.5t-128.5-61.5q72-5 134.5-57.5t62.5-139.5q0-107-89-173t-237-66z" unicode="&#x2083;"/><glyph d="M745-111h-112v-188h-164v188h-401v115l335 516h230v-500h112v-131zM469 20v359l-238-359h238z" unicode="&#x2084;"/><glyph d="M397-313q-214 0-319 131l92 108q83-106 227-106 75 0 120.5 40.5t45.5 100.5q0 64-44 103.5t-118 39.5q-109 0-182-79l-117 38v457h570v-133h-404v-231q73 69 191 69 113 0 190.5-68t77.5-192-91-201-239-77z" unicode="&#x2085;"/><glyph d="M424-313q-92 0-162.5 33t-112.5 92-62.5 133.5-20.5 163.5q0 189 101.5 306t283.5 117q142 0 245-86l-73-116q-37 36-76.5 52.5t-95.5 16.5q-102 0-161-74t-59-178v-24q36 46 96 79.5t126 33.5q121 0 203.5-72.5t82.5-198.5q0-120-88-199t-227-79zM408 104q-50 0-96.5-24t-78.5-66q7-81 52-137.5t131-56.5q71 0 114 42.5t43 96.5q0 71-47.5 108t-117.5 37z" unicode="&#x2086;"/><glyph d="M682 406l-320-705h-182l322 686h-443v133h623v-114z" horiz-adv-x="751" unicode="&#x2087;"/><glyph d="M401-313q-90 0-162 22t-120.5 74.5-48.5 128.5q0 74 57 132t143 79q-82 20-134 69.5t-52 122.5q0 74 49 125t118 71.5 150 20.5q60 0 115-12.5t102-37 75-68 28-99.5q0-73-52-122.5t-132-69.5q85-21 141.5-79t56.5-132q0-111-96.5-168t-237.5-57zM401 403q-68 0-110.5-29t-42.5-81q0-29 18-52t46-36 49-19.5 40-9.5q20 3 41.5 9.5t50 19.5 46.5 36 18 52q0 53-43 81.5t-113 28.5zM401 63q-18-2-43-10t-55-23-50-42-20-60q0-54 47.5-84t120.5-30q74 0 122 30t48 84q0 43-35.5 75t-71.5 44.5-63 15.5z" unicode="&#x2088;"/><glyph d="M383 532q92 0 161.5-33t111.5-92 62.5-134 20.5-164q0-188-101.5-305t-281.5-117q-149 0-245 86l73 116q66-69 172-69 99 0 158 72.5t59 179.5v24q-35-46-94.5-79t-124.5-33q-122 0-205 71.5t-83 198.5q0 119 88.5 198.5t228.5 79.5zM397 113q50 0 97 24t77 68q-5 79-49 136.5t-129 57.5q-74 0-118-42.5t-44-96.5q0-72 48-109.5t118-37.5z" unicode="&#x2089;"/><glyph d="M346-391l-98-41q-92 98-145.5 245.5t-53.5 297.5q0 148 53.5 294.5t145.5 247.5l98-41q-67-126-97-241t-30-260q0-146 30.5-262.5t96.5-239.5z" horiz-adv-x="366" unicode="&#x208d;"/><glyph d="M135-432l-96 41q66 125 96.5 241.5t30.5 260.5-30.5 260-96.5 241l96 41q92-101 145.5-247.5t53.5-294.5q0-150-53.5-297t-145.5-246z" horiz-adv-x="366" unicode="&#x208e;"/><glyph d="M846 188q108 0 200.5 55t143.5 144l205-104q-195-308-549-308-249 0-436 135t-252 361h-107v137h82q-4 50-4 74 0 28 4 78h-82v137h109q64 224 251 358t435 134q357 0 549-308l-205-104q-51 88-144 143.5t-200 55.5q-146 0-259.5-75t-168.5-204h553v-137h-592q-4-50-4-78 0-24 4-74h592v-137h-555q55-131 168.5-207t261.5-76z" horiz-adv-x="1439" unicode="&#x20ac;"/><glyph d="M346 1313h-127v-398h-57v398h-127v53h311v-53zM858 915h-57v373l-154-373h-16l-154 373v-373h-57v451h88l131-328 131 328h88v-451z" horiz-adv-x="929" unicode="&#x2122;"/><glyph d="M0 993h993v-993h-993v993z" horiz-adv-x="993" unicode="&#x25fc;"/><glyph d="M1202 0h-276l-303 510h-238v-510h-240v1366h600q201 0 324-119t123-309q0-88-27-161t-73.5-121.5-103-78.5-120.5-40zM946 938q0 97-65.5 157t-167.5 60h-328v-434h328q102 0 167.5 60t65.5 157zM1640 137v-514h-215v1366h215v-135q56 75 139.5 117.5t178.5 42.5q196 0 317-139t121-379q0-241-121.5-381t-316.5-140q-94 0-176 41.5t-142 120.5zM2173 496q0 144-76.5 235.5t-202.5 91.5q-74 0-146-38.5t-108-94.5v-391q36-55 108.5-94t145.5-39q126 0 202.5 92t76.5 238z" horiz-adv-x="2473" unicode="&#xf6dd;"/><glyph d="M424 295v-371q52 15 84 68l102-82q-69-92-186-107v-112h-109v112q-118 17-192 101.5t-74 206.5q0 121 74 205.5t192 101.5v90h109v-90q117-18 186-109l-102-82q-30 53-84 68zM201 111q0-68 30.5-117t83.5-68v365q-53-17-83.5-65t-30.5-115z" horiz-adv-x="634" unicode="&#xf6df;"/><glyph d="M424 1456v-371q52 15 84 68l102-82q-68-91-186-106v-113h-109v113q-118 17-192 101t-74 206q0 121 74 205.5t192 101.5v90h109v-90q117-18 186-109l-102-81q-29 51-84 67zM201 1272q0-68 30.5-117t83.5-68v365q-53-17-83.5-65t-30.5-115z" horiz-adv-x="634" unicode="&#xf6e0;"/><glyph d="M125-463l-66 53q29 15 59.5 48.5t33.5 60.5l-9-2q-35 0-62.5 26.5t-27.5 63.5q0 39 27.5 66.5t66.5 27.5q42 0 69.5-31t27.5-81q0-71-31-131.5t-88-100.5z" horiz-adv-x="305" unicode="&#xf6e1;"/><glyph d="M125 698l-66 54q30 15 60 48t33 60l-9-2q-35 0-62.5 26.5t-27.5 63.5q0 39 27.5 66.5t66.5 27.5q42 0 69.5-31t27.5-81q0-71-31-131.5t-88-100.5z" horiz-adv-x="305" unicode="&#xf6e2;"/><glyph d="M731-59q0-106-71.5-172t-206.5-78v-113h-111v111q-191 11-301 131l94 106q91-91 207-110v233q-51 12-83 21t-74.5 28.5-67 43-42.5 62.5-18 89q0 93 79 161.5t206 75.5v115h111v-117q166-20 249-116l-92-97q-65 65-157 86v-213q49-12 82-22.5t73.5-30.5 64.5-44 41-62.5 17-87.5zM227 307q0-61 115-92v193q-53-9-84-36t-31-65zM453 20v-202q52 10 80 37.5t28 64.5q0 39-28 62t-80 38z" horiz-adv-x="772" unicode="&#xf6e3;"/><glyph d="M731 1102q0-106-71.5-172t-206.5-78v-113h-111v111q-191 11-301 131l94 106q91-91 207-110v233q-51 12-83 21t-74.5 28.5-67 43-42.5 62.5-18 89q0 93 79 162t206 76v114h111v-116q165-20 249-117l-92-96q-65 65-157 86v-213q48-12 81.5-22.5t74-30.5 64.5-44.5 41-63 17-87.5zM227 1468q0-61 115-92v193q-53-9-84-36t-31-65zM453 1182v-203q52 10 80 37.5t28 64.5q0 70-108 101z" horiz-adv-x="772" unicode="&#xf6e4;"/><glyph d="M338 45h-301v125h301v-125z" horiz-adv-x="374" unicode="&#xf6e5;"/><glyph d="M338 1206h-301v125h301v-125z" horiz-adv-x="374" unicode="&#xf6e6;"/><glyph d="M156-307q-39 0-68 28t-29 66 29 66 68 28q38 0 66-28t28-66-28-66-66-28z" horiz-adv-x="309" unicode="&#xf6e7;"/><glyph d="M156 854q-39 0-68 28t-29 66 29 66 68 28q38 0 66-28t28-66-28-66-66-28z" horiz-adv-x="309" unicode="&#xf6e8;"/><glyph d="M731 668h-158v84q-82-101-208-101-128 0-211.5 90.5t-83.5 247.5q0 154 83 246t212 92q127 0 206-102v331h160v-888zM573 850v276q-24 31-69.5 52.5t-91.5 21.5q-80 0-129.5-58.5t-49.5-152.5q0-95 49.5-154t129.5-59q47 0 92.5 21t68.5 53z" horiz-adv-x="843" unicode="&#xf6eb;"/><glyph d="M270 668h-159v643h159v-90q39 46 96 76t117 30v-143l-47 2q-45 0-95.5-23t-70.5-55v-440z" horiz-adv-x="512" unicode="&#xf6f1;"/><glyph d="M45 760l68 98q37-40 98.5-68t122.5-28q60 0 93.5 22.5t33.5 59.5q0 21-11.5 36.5t-37.5 26.5-46.5 16.5-60.5 14.5q-45 10-69.5 16.5t-63 22.5-58.5 34.5-35.5 50.5-15.5 73q0 79 71.5 135.5t193.5 56.5q168 0 260-92l-64-94q-30 33-81.5 54.5t-108.5 21.5q-55 0-87-22t-32-58q0-14 8-25.5t20-19 33-14 38.5-10.5 45.5-9q33-7 50-10.5t48.5-13 49-18.5 40.5-24.5 35-33.5 20.5-44 8.5-57q0-91-74-149t-206-58q-169 0-287 109z" horiz-adv-x="681" unicode="&#xf6f2;"/><glyph d="M125 825v371h-109v115h109v176h160v-176h133v-115h-133v-344q0-33 16-53.5t45-20.5q41 0 62 21l34-105q-43-43-137-43-88 0-134 44.5t-46 129.5z" horiz-adv-x="454" unicode="&#xf6f3;"/><glyph d="M631 1386q111 0 203.5-40.5t155-108.5 106-159 63-190.5 19.5-205.5-19.5-206-63-191.5-106-160-155-109-203.5-40.5-203.5 40.5-155 109-106 160-63 191.5-19.5 206 19.5 205.5 63 190.5 106 159 155 108.5 203.5 40.5zM631 1174q-81 0-141-39.5t-94.5-109.5-51-155.5-16.5-187.5q0-158 39-274l444 694q-72 72-180 72zM631 188q81 0 141 40t94.5 110.5 51 156 16.5 187.5q0 161-39 279l-446-697q73-76 182-76z" horiz-adv-x="1261"/><glyph d="M899 0h-772v211h266v844l-223-232-139 146 393 397h209v-1155h266v-211z" horiz-adv-x="970"/><glyph d="M80 682q0 106 19.5 205.5t63 190.5 106 159 155 108.5 203.5 40.5 203.5-40.5 155-108.5 106-159 63-190.5 19.5-205.5-19.5-206-63-191.5-106-160-155-109-203.5-40.5-203.5 40.5-155 109-106 160-63 191.5-19.5 206zM930 682q0 102-16.5 187.5t-51 155.5-94.5 109.5-141 39.5-141-39.5-94.5-109.5-51-155.5-16.5-187.5 16.5-187.5 51-156 94.5-110.5 141-40 141 40 94.5 110.5 51 156 16.5 187.5z" horiz-adv-x="1253"/><glyph d="M819 0h-239v1055l-224-232-139 146 393 397h209v-1366z" horiz-adv-x="1253"/><glyph d="M1128 0h-989v188q145 110 240 184t186 151 143 131 94 110 58.5 104 16.5 97q0 101-73 155t-175 54q-225 0-369-164l-139 157q88 106 222.5 162.5t281.5 56.5q135 0 245.5-47.5t180-145 69.5-228.5q0-92-40-183.5t-123-186-185-184-250-200.5h606v-211z" horiz-adv-x="1253"/><glyph d="M106 197l130 157q66-77 167.5-121.5t210.5-44.5q134 0 209.5 56.5t75.5 152.5q0 193-303 193-138 0-158-2v215q25-2 158-2 127 0 204 45t77 135q0 92-78 142.5t-199 50.5q-200 0-352-152l-123 149q83 98 209.5 156.5t288.5 58.5q223 0 358-99t135-269q0-65-26-121.5t-69.5-94.5-95-62.5-106.5-34.5q52-5 106-28t102.5-62.5 79-103 30.5-138.5q0-176-140.5-287t-373.5-111q-174 0-309 62t-208 160z" horiz-adv-x="1253"/><glyph d="M977 0h-240v309h-651v193l561 864h330v-846h182v-211h-182v-309zM737 520v631l-415-631h415z" horiz-adv-x="1253"/><glyph d="M123 186l137 164q143-162 369-162 126 0 203 69t77 171q0 111-74.5 177.5t-199.5 66.5q-174 0-299-119l-170 49v764h895v-211h-655v-395q53 53 134 86t175 33q116 0 214-51t160-153 62-237q0-211-144.5-337t-375.5-126q-329 0-508 211z" horiz-adv-x="1253"/><glyph d="M102 680q0 149 39.5 277t113.5 224 189.5 150.5 260.5 54.5q239 0 393-151l-113-182q-58 61-122.5 91t-157.5 30q-110 0-193.5-63t-125.5-164.5-42-223.5q0-27 2-39 50 76 151.5 133t215.5 57q93 0 175-28.5t145-82 99.5-138.5 36.5-191q0-195-139.5-327t-363.5-132q-117 0-212 37t-160 101.5-108.5 154.5-63.5 193-20 219zM928 426q0 120-80 182t-201 62q-87 0-166.5-44t-132.5-118q4-47 16.5-90t36.5-86 57.5-74 83.5-50.5 111-19.5q65 0 118.5 21.5t87 56 51.5 76 18 84.5z" horiz-adv-x="1253"/><glyph d="M590 0h-262l516 1155h-709v211h985v-166z" horiz-adv-x="1253"/><glyph d="M102 350q0 124 87.5 217.5t220.5 137.5q-127 41-206 121t-79 202q0 73 29 133.5t77.5 101.5 113.5 69 136 41 146 13q74 0 144.5-12.5t135.5-41 114-69.5 78-101.5 29-133.5q0-122-79-202t-207-121q133-44 220-137.5t87-217.5q0-118-73-204.5t-190-128.5-259-42q-144 0-261 41.5t-190.5 128-73.5 205.5zM885 991q0 84-73 133.5t-185 49.5q-115 0-187.5-49t-72.5-134q0-45 27.5-81.5t72-58.5 83-34 77.5-18q39 6 77 18.5t82 34 71.5 58 27.5 81.5zM907 381q0 40-21 75.5t-53 58.5-71.5 41-73 27.5-61.5 12.5q-37-4-81.5-18.5t-91.5-39-78.5-66-31.5-91.5q0-87 81.5-140t201.5-53q118 0 199 53t81 140z" horiz-adv-x="1253"/><glyph d="M160 129l110 180q58-59 123.5-89t157.5-30q90 0 160.5 38.5t113 103 64.5 143 22 164.5v41q-52-77-153-135t-213-58q-126 0-228.5 49t-166.5 151.5-64 242.5q0 126 61.5 230t177.5 166.5 265 62.5q117 0 212-37t159.5-102 108.5-155 63.5-193 19.5-220q0-118-24.5-224t-74-194-120.5-152-169-99.5-214-35.5q-239 0-391 152zM907 854q-5 59-24 113t-53.5 102.5-93.5 77.5-134 29q-125 0-198.5-74t-73.5-164q0-119 79.5-181.5t198.5-62.5q87 0 167.5 43t131.5 117z" horiz-adv-x="1253"/><glyph d="M631-25q-110 0-201.5 32.5t-154.5 88-106.5 130.5-64 160-20.5 177q0 117 33.5 220.5t98 186.5 171.5 132 244 49 244-49 171.5-132 98-186.5 33.5-220.5q0-92-20.5-177t-64-160-106.5-130.5-154.5-88-201.5-32.5zM631 938q-100 0-170.5-53.5t-101.5-136.5-31-185q0-76 18.5-142.5t54.5-119 95-83 135-30.5 135 30.5 95 83 54.5 119 18.5 142.5q0 102-31 185t-101.5 136.5-170.5 53.5z" horiz-adv-x="1261"/><glyph d="M633 0h-240v815l-223-231-139 145 393 397h209v-1126z" horiz-adv-x="778"/><glyph d="M1038 0h-927v190q187 68 326.5 141.5t221 144 121 136.5 39.5 129q0 87-68 142t-169 55q-226 0-371-164l-139 158q88 105 227 162t287 57q213 0 344-102t131-271q0-164-148-319.5t-368-247.5h493v-211z" horiz-adv-x="1187"/><glyph d="M37-39l129 158q66-77 168-121.5t211-44.5q134 0 209 56.5t75 152.5q0 192-303 192-137 0-157-2v215q25-2 157-2 127 0 204 45t77 135q0 92-78 142.5t-199 50.5q-200 0-352-152l-123 150q83 98 209.5 156.5t288.5 58.5q223 0 358.5-99.5t135.5-269.5q0-65-26-121.5t-69.5-94.5-95-62.5-106.5-34.5q52-5 106-28t102-62.5 78.5-103 30.5-138.5q0-175-140.5-286t-373.5-111q-175 0-309 61.5t-207 159.5z" horiz-adv-x="1175"/><glyph d="M1130 80h-182v-320h-239v320h-652v192l561 854h330v-835h182v-211zM709 291v620l-416-620h416z" horiz-adv-x="1187"/><glyph d="M115-53l137 164q143-162 369-162 126 0 203 68.5t77 170.5q0 111-74.5 177.5t-199.5 66.5q-174 0-299-119l-170 49v764h895v-211h-656v-395q52 52 134 85.5t176 33.5q116 0 214-50.5t160-152.5 62-237q0-211-144.5-337t-375.5-126q-329 0-508 211z" horiz-adv-x="1228"/><glyph d="M84 680q0 201 67 358.5t205 252.5 330 95q239 0 393-151l-112-182q-58 61-123 91t-158 30q-110 0-193-63t-125-164.5-42-223.5q0-27 2-39 50 76 151 133t215 57q93 0 175-28.5t145.5-82 100-138.5 36.5-191q0-195-140-327t-364-132q-117 0-212 37t-159.5 101.5-108.5 154.5-63.5 193-19.5 219zM909 426q0 120-79.5 182t-200.5 62q-87 0-166.5-44t-132.5-118q4-47 16.5-90t36.5-86 57.5-74 83.5-50.5 111-19.5q126 0 200 73t74 165z" horiz-adv-x="1230"/><glyph d="M510-240h-262l516 1155h-709v211h985v-165z" horiz-adv-x="1089"/><glyph d="M86 350q0 124 87 217.5t220 137.5q-127 40-205.5 120.5t-78.5 202.5q0 91 43.5 161.5t116 112.5 159.5 63 182 21q74 0 144.5-12.5t136-41 114-69.5 78-101.5 29.5-133.5q0-122-79.5-202t-207.5-121q133-44 220.5-137.5t87.5-217.5q0-118-73.5-204.5t-190.5-128.5-259-42q-144 0-260.5 41.5t-190 128-73.5 205.5zM868 991q0 84-73 133.5t-185 49.5q-115 0-187.5-49t-72.5-134q0-45 27.5-81.5t72-58.5 83-34 77.5-18q39 6 77 18.5t82 34 71.5 58 27.5 81.5zM891 381q0 50-31.5 91.5t-78.5 66-91 39-80 18.5q-28-3-62.5-12.5t-74-27.5-71-41-53-58.5-21.5-75.5q0-87 81-140t201-53q118 0 199.5 53t81.5 140z" horiz-adv-x="1218"/><glyph d="M152-109l110 181q58-59 123.5-89t157.5-30q72 0 132.5 25t102 68 70 101 42 122 13.5 132v41q-52-76-153-134t-213-58q-93 0-175.5 28.5t-146 82.5-100.5 139.5-37 191.5q0 126 61.5 230t177.5 166.5 265 62.5q117 0 212-37t159.5-102 108.5-155 63.5-193 19.5-220q0-149-39-276t-113-223-190-150.5-260-54.5q-240 0-391 151zM899 616q-5 59-24 113t-53.5 102.5-93.5 77.5-134 29q-125 0-198.5-74t-73.5-164q0-119 79.5-181t198.5-62q88 0 168 42.5t131 116.5z" horiz-adv-x="1230"/><glyph d="M84 682q0 157 56.5 290.5t153.5 224 228.5 141.5 278.5 51q351 0 551-285l-197-111q-57 81-150 132t-204 51q-203 0-337-139.5t-134-354.5 134-355.5 337-140.5q84 0 154 27t118.5 74.5 80.5 106.5 46 128h-483v211h745q0-349-181-554.5t-501-205.5q-140 0-267 51.5t-222 142-151 224.5-56 291z" horiz-adv-x="1525"/><glyph d="M1051 0h-215v135q-58-75-141-117.5t-177-42.5q-195 0-317.5 139.5t-122.5 379.5q0 236 122.5 378t317.5 142q93 0 176.5-42t141.5-120v137h215v-989zM836 297v391q-38 57-109.5 95t-146.5 38q-127 0-203-90.5t-76-236.5q0-144 76.5-236t202.5-92q75 0 147 37.5t109 93.5z" horiz-adv-x="1189"/><glyph d="M393-25q-125 0-189.5 65t-64.5 189v1137h215v-1083q0-52 25-84.5t70-32.5q63 0 94 35l51-162q-67-64-201-64z" horiz-adv-x="583"/><glyph d="M127-254l100 156q53-64 132-95.5t167-31.5q133 0 207 71.5t74 202.5v115q-60-67-150.5-111.5t-199.5-44.5q-158 0-238 80t-80 234v667h215v-590q0-110 51-155t148-45q77 0 145 37t109 92v661h215v-940q0-216-137-333t-359-117q-239 0-399 147z" horiz-adv-x="1161"/><glyph d="M465 1126h270l465-1126h-250l-86 211h-528l-84-211h-252zM799 406l-199 512-199-512h398z" horiz-adv-x="1200"/><glyph d="M741 0h-602v1126h586q160 0 251-81.5t91-206.5q0-97-55-165t-138-91q93-22 155.5-100t62.5-177q0-134-93.5-219.5t-257.5-85.5zM840 801q0 59-40 95t-108 36h-330v-260h330q69 0 108.5 36t39.5 93zM862 334q0 60-43 101.5t-117 41.5h-340v-282h340q74 0 117 37.5t43 101.5z" horiz-adv-x="1171"/><glyph d="M78 563q0 128 46.5 238t127.5 186.5 193.5 120 240.5 43.5q160 0 279-72.5t192-191.5l-184-92q-44 72-120.5 115.5t-166.5 43.5q-163 0-272-111t-109-280q0-168 109-279.5t272-111.5q91 0 168.5 44t118.5 114l184-90q-72-121-191.5-193t-279.5-72q-172 0-310.5 74t-218 209-79.5 305z" horiz-adv-x="1196"/><glyph d="M586 0h-447v1126h445q277 0 443.5-157t166.5-408q0-250-166-405.5t-442-155.5zM965 561q0 162-97.5 266.5t-281.5 104.5h-224v-737h222q180 0 280.5 104t100.5 262z" horiz-adv-x="1271"/><glyph d="M961 0h-822v1126h822v-194h-599v-260h586v-195h-586v-282h599v-195z" horiz-adv-x="1054"/><glyph d="M362 0h-223v1126h822v-194h-599v-260h586v-195h-586v-477z" horiz-adv-x="1026"/><glyph d="M78 563q0 173 81 308t220 207.5 311 72.5q149 0 267-62.5t194-164.5l-178-109q-47 62-121.5 99.5t-161.5 37.5q-166 0-274.5-109.5t-108.5-279.5q0-169 109-281t274-112q79 0 145 28t109 68v162h-301v186h524v-432q-91-97-213-152t-264-55q-128 0-240.5 43t-194.5 119-129.5 186.5-47.5 239.5z" horiz-adv-x="1269"/><glyph d="M1180 0h-224v479h-594v-479h-223v1126h223v-452h594v452h224v-1126z" horiz-adv-x="1318"/><glyph d="M362 0h-223v1126h223v-1126z" horiz-adv-x="501"/><glyph d="M12 104l94 166q84-98 199-98 95 0 151 55t56 146v753h225v-772q0-188-112-283.5t-303-95.5q-193 0-310 129z" horiz-adv-x="876"/><glyph d="M1118 0h-272l-389 465-95-105v-360h-223v1126h223v-514l447 514h272l-481-532z" horiz-adv-x="1130"/><glyph d="M881 0h-742v1126h223v-931h519v-195z" horiz-adv-x="950"/><glyph d="M1376 0h-223v784l-344-784h-100l-347 784v-784h-223v1126h299l320-727 317 727h301v-1126z" horiz-adv-x="1515"/><glyph d="M1174 0h-228l-584 799v-799h-223v1126h238l573-778v778h224v-1126z" horiz-adv-x="1312"/><glyph d="M78 563q0 167 74 300.5t210.5 210.5 311.5 77q173 0 309-76.5t210.5-210.5 74.5-301-74.5-301-210.5-210.5-309-76.5q-175 0-311.5 77t-210.5 210.5-74 300.5zM1040 563q0 170-101 280.5t-265 110.5q-166 0-267.5-110.5t-101.5-280.5q0-169 101.5-280t267.5-111q163 0 264.5 111.5t101.5 279.5z" horiz-adv-x="1347"/><glyph d="M362 0h-223v1126h533q180 0 282.5-103t102.5-255q0-100-42-180t-130.5-130-212.5-50h-310v-408zM827 768q0 73-47.5 118.5t-132.5 45.5h-285v-330h285q87 0 133.5 45.5t46.5 120.5z" horiz-adv-x="1105"/><glyph d="M1268 563q0-122-41-228t-117-185l92-105-135-111-98 111q-131-70-295-70-175 0-311.5 77t-210.5 210.5-74 300.5 74 300.5 210.5 210.5 311.5 77q173 0 309-76.5t210.5-210.5 74.5-301zM674 172q77 0 155 33l-131 147 136 113 131-150q75 104 75 248 0 170-101 280.5t-265 110.5q-166 0-267.5-110.5t-101.5-280.5q0-169 101.5-280t267.5-111z" horiz-adv-x="1347"/><glyph d="M1069 0h-258l-254 408h-195v-408h-223v1126h533q178 0 281.5-102t103.5-256q0-144-80-234t-199-106zM829 768q0 73-48.5 118.5t-133.5 45.5h-285v-330h285q87 0 134.5 46t47.5 120z" horiz-adv-x="1148"/><glyph d="M49 147l107 172q63-65 162-109t208-44q117 0 175.5 42.5t58.5 108.5q0 23-8.5 42t-29 34.5-39 26-55 21.5-60 17-68.5 17q-169 40-241 75-169 90-173 263 0 143 121.5 240.5t310.5 97.5q273 0 445-162l-109-160q-63 61-155 95t-183 34-147-38.5-56-100.5q0-15 4.5-27.5t15.5-23.5 21.5-19.5 31-16.5 35-14 42.5-13 44.5-11l49.5-12q56-13 85.5-20.5t83-24.5 83-33 68.5-44 59.5-59 35.5-75.5 15-97.5q0-160-120.5-256.5t-346.5-96.5q-150 0-272.5 47.5t-198.5 124.5z" horiz-adv-x="1046"/><glyph d="M602 0h-223v932h-332v194h889v-194h-334v-932z" horiz-adv-x="983"/><glyph d="M139 440v686h226v-667q0-133 74.5-210t211.5-77q136 0 211.5 77.5t75.5 209.5v667h225v-684q0-217-131-342t-381-125q-251 0-381.5 125.5t-130.5 339.5z" horiz-adv-x="1302"/><glyph d="M735 0h-270l-465 1126h254l346-882 350 882h250z" horiz-adv-x="1200"/><glyph d="M1255 0h-233l-221 797-221-797h-234l-338 1126h248l219-829 238 829h178l235-831 222 831h247z" horiz-adv-x="1603"/><glyph d="M1178 0h-265l-323 428-324-428h-264l442 578-415 548h264l297-399 297 399h264l-416-546z" horiz-adv-x="1181"/><glyph d="M684 0h-221v469l-463 657h254l319-469 314 469h254l-457-657v-469z" horiz-adv-x="1140"/><glyph d="M989 0h-913v164l594 766h-594v196h899v-163l-592-766h606v-197z" horiz-adv-x="1064"/><glyph d="M674 1776l-338-295h-154l287 295h205zM1663 1776l-338-295h-154l287 295h205zM385 0h-240v1366h240v-1366zM547 119l110 182q105-113 234-113 110 0 174.5 67.5t64.5 180.5v930h240v-934q0-225-127-341t-334-116q-226 0-362 144z" horiz-adv-x="1515"/><glyph d="M1008 1434l-338-295h-154l287 295h205zM1051 0h-215v135q-58-75-141-117.5t-177-42.5q-195 0-317.5 139.5t-122.5 379.5q0 236 122.5 378t317.5 142q93 0 176.5-42t141.5-120v137h215v-989zM836 297v391q-38 57-109.5 95t-146.5 38q-127 0-203-90.5t-76-236.5q0-144 76.5-236t202.5-92q75 0 147 37.5t109 93.5z" horiz-adv-x="1189"/><glyph d="M895 1139h-137l-158 196-154-196h-135l191 295h196zM1051 0h-215v135q-58-75-141-117.5t-177-42.5q-195 0-317.5 139.5t-122.5 379.5q0 236 122.5 378t317.5 142q93 0 176.5-42t141.5-120v137h215v-989zM836 297v391q-38 57-109.5 95t-146.5 38q-127 0-203-90.5t-76-236.5q0-144 76.5-236t202.5-92q75 0 147 37.5t109 93.5z" horiz-adv-x="1189"/><glyph d="M387 1155q-51 0-86 35t-35 86q0 50 35 84.5t86 34.5q49 0 84-34.5t35-84.5q0-51-34.5-86t-84.5-35zM815 1155q-50 0-85.5 35t-35.5 86q0 49 35.5 84t85.5 35 85.5-35 35.5-84q0-51-35.5-86t-85.5-35zM1051 0h-215v135q-58-75-141-117.5t-177-42.5q-195 0-317.5 139.5t-122.5 379.5q0 236 122.5 378t317.5 142q93 0 176.5-42t141.5-120v137h215v-989zM836 297v391q-38 57-109.5 95t-146.5 38q-127 0-203-90.5t-76-236.5q0-144 76.5-236t202.5-92q75 0 147 37.5t109 93.5z" horiz-adv-x="1189"/><glyph d="M676 1139h-154l-338 295h205zM1051 0h-215v135q-58-75-141-117.5t-177-42.5q-195 0-317.5 139.5t-122.5 379.5q0 236 122.5 378t317.5 142q93 0 176.5-42t141.5-120v137h215v-989zM836 297v391q-38 57-109.5 95t-146.5 38q-127 0-203-90.5t-76-236.5q0-144 76.5-236t202.5-92q75 0 147 37.5t109 93.5z" horiz-adv-x="1189"/><glyph d="M393 1307q0 86 61.5 148.5t147.5 62.5 146.5-62 60.5-149q0-86-60.5-147.5t-146.5-61.5-147.5 61.5-61.5 147.5zM707 1307q0 44-30.5 75t-74.5 31q-43 0-74.5-31t-31.5-75q0-43 31.5-75t74.5-32q44 0 74.5 32t30.5 75zM1051 0h-215v135q-58-75-141-117.5t-177-42.5q-195 0-317.5 139.5t-122.5 379.5q0 236 122.5 378t317.5 142q93 0 176.5-42t141.5-120v137h215v-989zM836 297v391q-38 57-109.5 95t-146.5 38q-127 0-203-90.5t-76-236.5q0-144 76.5-236t202.5-92q75 0 147 37.5t109 93.5z" horiz-adv-x="1189"/><glyph d="M563 1229q-17 22-27 33.5t-27 21.5-34 10q-38 0-62-37t-24-110h-117q0 128 55 201t156 73q37 0 68.5-16t47-32 38.5-46q19-24 29-34t27-20.5 34-10.5q37 0 60.5 37t23.5 110h119q0-128-55-201t-156-73q-37 0-69 16t-48 32.5-39 45.5zM1051 0h-215v135q-58-75-141-117.5t-177-42.5q-195 0-317.5 139.5t-122.5 379.5q0 236 122.5 378t317.5 142q93 0 176.5-42t141.5-120v137h215v-989zM836 297v391q-38 57-109.5 95t-146.5 38q-127 0-203-90.5t-76-236.5q0-144 76.5-236t202.5-92q75 0 147 37.5t109 93.5z" horiz-adv-x="1189"/><glyph d="M1051 168v-168h-215v135q-58-75-141-117.5t-177-42.5q-195 0-317.5 139.5t-122.5 379.5q0 236 122.5 378t317.5 142q93 0 175.5-42t140.5-120v137h217v-170q115 195 335 195 194 0 311.5-151t117.5-388v-51h-764q13-117 95.5-192.5t217.5-75.5q76 0 153.5 28.5t129.5 79.5l96-145q-61-65-150.5-104.5t-189.5-39.5q-239 0-352 193zM1327 838q-65 0-118-24t-85.5-62.5-51-84-21.5-92.5h557q-2 46-19.5 90.5t-49.5 84.5-87 64-125 24zM836 297v391q-38 57-109.5 95t-146.5 38q-127 0-203-90.5t-76-236.5q0-144 76.5-236t202.5-92q75 0 147 37.5t109 93.5z" horiz-adv-x="1888"/><glyph d="M606 801h-200v-801h-216v801h-163v188h163v55q0 162 87 252t227 90q107 0 172-38l-47-160q-31 22-86 22-64 0-100.5-42t-36.5-124v-55h200v-188zM1024-25q-125 0-189.5 65t-64.5 189v1137h215v-1083q0-52 24.5-84.5t69.5-32.5q29 0 55.5 10.5t39.5 24.5l51-162q-67-64-201-64z" horiz-adv-x="1214"/><glyph d="M606 801h-200v-801h-216v801h-163v188h163v55q0 162 87 252t227 90q107 0 172-38l-47-158q-36 20-86 20-64 0-100.5-42t-36.5-124v-55h200v-188zM1036 989h201v-188h-201v-801h-215v801h-164v188h164v55q0 162 87 252t227 90q107 0 172-38l-47-160q-31 22-86 22-65 0-101.5-42.5t-36.5-123.5v-55zM1655-25q-125 0-189.5 65t-64.5 189v1137h215v-1083q0-52 24.5-84.5t69.5-32.5q63 0 94 35l51-162q-67-64-200-64z" horiz-adv-x="1845"/><glyph d="M246 1153q-54 0-93.5 39t-39.5 94 39.5 94 93.5 39q56 0 94.5-38.5t38.5-94.5-38.5-94.5-94.5-38.5zM354 0h-215v989h215v-989z" horiz-adv-x="493"/><glyph d="M653 1434l-338-295h-153l287 295h204zM1147 1434l-338-295h-154l287 295h205zM354 0h-215v989h215v-989zM410-391l22 178q24-6 62-6 63 0 101 39.5t38 122.5v1046h215v-1046q0-161-84-252.5t-244-91.5q-58 0-110 10z" horiz-adv-x="987"/><glyph d="M842-25q-136 0-224 41t-169 119l96 150q45-59 125.5-98.5t171.5-39.5q92 0 142 39t50 95q0 19-7 35.5t-23.5 29-32 22-44.5 19-48.5 15-55.5 14.5q-35 9-54 14t-53 15-53.5 18.5-48 23-45.5 29-37 36-30.5 44.5-17.5 53.5-7 65.5q0 45 14 83t43 69 52 49.5 61 44.5q30 21 41 29.5t29.5 25 25.5 31 7 30.5q0 55-54.5 87t-124.5 32q-93 0-155-55t-62-148v-993h-215v993q0 167 119 280t317 113q104 0 193-33t145-98 56-149q0-37-11-69.5t-25-54.5-40-47-43.5-37.5-48.5-33.5q-41-29-60-44t-38-42.5-19-56.5q0-54 82-84 31-11 115-31 47-11 71.5-17t69-21 69.5-29 57.5-39 50-53.5 30-69.5 12.5-90q0-135-107-223.5t-292-88.5z" horiz-adv-x="1275"/><glyph d="M989 1434l-338-295h-153l286 295h205zM127-254l100 156q53-64 132-95.5t167-31.5q133 0 207 71.5t74 202.5v115q-60-67-150.5-111.5t-199.5-44.5q-158 0-238 80t-80 234v667h215v-590q0-110 51-155t148-45q77 0 145 37t109 92v661h215v-940q0-216-137-333t-359-117q-239 0-399 147z" horiz-adv-x="1161"/><glyph d="M369 1155q-51 0-86 35t-35 86q0 50 35 84.5t86 34.5q49 0 83.5-34.5t34.5-84.5q0-51-34-86t-84-35zM797 1155q-50 0-85.5 35t-35.5 86q0 49 35.5 84t85.5 35 85.5-35 35.5-84q0-51-35.5-86t-85.5-35zM127-254l100 156q53-64 132-95.5t167-31.5q133 0 207 71.5t74 202.5v115q-60-67-150.5-111.5t-199.5-44.5q-158 0-238 80t-80 234v667h215v-590q0-110 51-155t148-45q77 0 145 37t109 92v661h215v-940q0-216-137-333t-359-117q-239 0-399 147z" horiz-adv-x="1161"/><glyph d="M1008 1536l-338-295h-154l287 295h205zM465 1126h270l465-1126h-250l-86 211h-528l-84-211h-252zM799 406l-199 512-199-512h398z" horiz-adv-x="1200"/><glyph d="M895 1241h-137l-158 197-154-197h-135l191 295h196zM465 1126h270l465-1126h-250l-86 211h-528l-84-211h-252zM799 406l-199 512-199-512h398z" horiz-adv-x="1200"/><glyph d="M387 1257q-51 0-86 35t-35 86q0 50 35 84.5t86 34.5q49 0 84-34.5t35-84.5q0-51-34.5-86t-84.5-35zM815 1257q-50 0-85.5 35t-35.5 86q0 49 35.5 84t85.5 35 85.5-35 35.5-84q0-51-35.5-86t-85.5-35zM465 1126h270l465-1126h-250l-86 211h-528l-84-211h-252zM799 406l-199 512-199-512h398z" horiz-adv-x="1200"/><glyph d="M676 1241h-154l-338 295h205zM465 1126h270l465-1126h-250l-86 211h-528l-84-211h-252zM799 406l-199 512-199-512h398z" horiz-adv-x="1200"/><glyph d="M393 1409q0 86 61.5 148.5t147.5 62.5 146.5-62 60.5-149q0-86-60.5-147.5t-146.5-61.5-147.5 61.5-61.5 147.5zM707 1409q0 44-30.5 75.5t-74.5 31.5q-43 0-74.5-31.5t-31.5-75.5q0-43 31.5-74.5t74.5-31.5q44 0 74.5 31.5t30.5 74.5zM465 1126h270l465-1126h-250l-86 211h-528l-84-211h-252zM799 406l-199 512-199-512h398z" horiz-adv-x="1200"/><glyph d="M563 1331q-18 23-27.5 34t-26.5 21.5-34 10.5q-38 0-62-37.5t-24-110.5h-117q0 128 55 201.5t156 73.5q37 0 68.5-16t47-32 38.5-46q20-25 29-34.5t26.5-20.5 34.5-11q37 0 60.5 37t23.5 110h119q0-128-55-201t-156-73q-37 0-69 16t-48 32.5-39 45.5zM465 1126h270l465-1126h-250l-86 211h-528l-84-211h-252zM799 406l-199 512-199-512h398z" horiz-adv-x="1200"/><glyph d="M1616 0h-823v211h-412l-131-211h-252l709 1126h909v-194h-600v-260h586v-195h-586v-282h600v-195zM793 406v512l-306-512h306z" horiz-adv-x="1710"/><glyph d="M686 172q91 0 168.5 44t118.5 114l184-90q-66-110-171.5-181t-246.5-82l-34-86q33 23 73 23 59 0 98-38.5t39-98.5q0-79-63.5-126.5t-157.5-47.5q-67 0-125.5 18t-91.5 45l45 94q73-59 166-59 48 0 81.5 20t33.5 58q0 57-68 57-41 0-69-31l-84 48 47 124q-240 19-395.5 181.5t-155.5 404.5q0 128 46.5 238t127.5 186.5 193.5 120 240.5 43.5q160 0 279-72.5t192-191.5l-184-92q-44 72-120.5 115.5t-166.5 43.5q-163 0-272-111t-109-280q0-168 109-279.5t272-111.5z" horiz-adv-x="1196"/><glyph d="M967 1536l-338-295h-154l287 295h205zM961 0h-822v1126h822v-194h-599v-260h586v-195h-586v-282h599v-195z" horiz-adv-x="1054"/><glyph d="M854 1241h-137l-158 197-153-197h-136l191 295h196zM961 0h-822v1126h822v-194h-599v-260h586v-195h-586v-282h599v-195z" horiz-adv-x="1054"/><glyph d="M346 1257q-51 0-86 35t-35 86q0 50 35 84.5t86 34.5q50 0 84.5-34.5t34.5-84.5q0-51-34.5-86t-84.5-35zM774 1257q-50 0-85.5 35t-35.5 86q0 49 35.5 84t85.5 35 85.5-35 35.5-84q0-51-35.5-86t-85.5-35zM961 0h-822v1126h822v-194h-599v-260h586v-195h-586v-282h599v-195z" horiz-adv-x="1054"/><glyph d="M635 1241h-154l-338 295h205zM961 0h-822v1126h822v-194h-599v-260h586v-195h-586v-282h599v-195z" horiz-adv-x="1054"/><glyph d="M659 1536l-337-295h-154l287 295h204zM362 0h-223v1126h223v-1126z" horiz-adv-x="501"/><glyph d="M328 1241h-154l-338 295h205zM362 0h-223v1126h223v-1126z" horiz-adv-x="501"/><glyph d="M547 1241h-137l-158 197-154-197h-135l191 295h196zM362 0h-223v1126h223v-1126z" horiz-adv-x="501"/><glyph d="M39 1257q-51 0-86 35t-35 86q0 50 35 84.5t86 34.5q49 0 84-34.5t35-84.5q0-51-34.5-86t-84.5-35zM467 1257q-50 0-85.5 35t-35.5 86q0 49 35.5 84t85.5 35 85.5-35 35.5-84q0-51-35.5-86t-85.5-35zM362 0h-223v1126h223v-1126z" horiz-adv-x="501"/><glyph d="M618 1331q-18 23-27.5 34t-26.5 21.5-34 10.5q-38 0-62-37.5t-24-110.5h-116q0 128 55 201.5t156 73.5q37 0 68.5-16t46-31.5 38.5-46.5q20-25 29-34.5t26.5-20.5 34.5-11q37 0 60.5 37t23.5 110h119q0-128-55-201t-156-73q-37 0-69 16t-48 32.5-39 45.5zM1174 0h-228l-584 799v-799h-223v1126h238l573-778v778h224v-1126z" horiz-adv-x="1312"/><glyph d="M1081 1536l-338-295h-153l287 295h204zM78 563q0 167 74 300.5t210.5 210.5 311.5 77q173 0 309-76.5t210.5-210.5 74.5-301-74.5-301-210.5-210.5-309-76.5q-175 0-311.5 77t-210.5 210.5-74 300.5zM1040 563q0 170-101 280.5t-265 110.5q-166 0-267.5-110.5t-101.5-280.5q0-169 101.5-280t267.5-111q163 0 264.5 111.5t101.5 279.5z" horiz-adv-x="1347"/><glyph d="M969 1241h-138l-157 197-154-197h-135l190 295h197zM78 563q0 167 74 300.5t210.5 210.5 311.5 77q173 0 309-76.5t210.5-210.5 74.5-301-74.5-301-210.5-210.5-309-76.5q-175 0-311.5 77t-210.5 210.5-74 300.5zM1040 563q0 170-101 280.5t-265 110.5q-166 0-267.5-110.5t-101.5-280.5q0-169 101.5-280t267.5-111q163 0 264.5 111.5t101.5 279.5z" horiz-adv-x="1347"/><glyph d="M461 1257q-51 0-86 35t-35 86q0 50 35 84.5t86 34.5q49 0 84-34.5t35-84.5q0-51-34.5-86t-84.5-35zM889 1257q-50 0-85.5 35t-35.5 86q0 49 35.5 84t85.5 35 85.5-35 35.5-84q0-51-35.5-86t-85.5-35zM78 563q0 167 74 300.5t210.5 210.5 311.5 77q173 0 309-76.5t210.5-210.5 74.5-301-74.5-301-210.5-210.5-309-76.5q-175 0-311.5 77t-210.5 210.5-74 300.5zM1040 563q0 170-101 280.5t-265 110.5q-166 0-267.5-110.5t-101.5-280.5q0-169 101.5-280t267.5-111q163 0 264.5 111.5t101.5 279.5z" horiz-adv-x="1347"/><glyph d="M750 1241h-154l-338 295h205zM78 563q0 167 74 300.5t210.5 210.5 311.5 77q173 0 309-76.5t210.5-210.5 74.5-301-74.5-301-210.5-210.5-309-76.5q-175 0-311.5 77t-210.5 210.5-74 300.5zM1040 563q0 170-101 280.5t-265 110.5q-166 0-267.5-110.5t-101.5-280.5q0-169 101.5-280t267.5-111q163 0 264.5 111.5t101.5 279.5z" horiz-adv-x="1347"/><glyph d="M1171 1167l-106-149q96-79 149.5-197t53.5-258q0-167-74.5-301t-210.5-210.5-309-76.5-309 76l-107-149-82 57 107 147q-98 80-151.5 198.5t-53.5 258.5q0 167 74 300.5t210.5 210.5 311.5 77q174 0 309-78l109 152zM305 563q0-174 105-282l450 624q-76 49-186 49-166 0-267.5-110.5t-101.5-280.5zM674 172q163 0 264.5 111.5t101.5 279.5q0 173-102 281l-451-625q80-47 187-47z" horiz-adv-x="1347"/><glyph d="M637 1331q-18 23-27.5 34t-26.5 21.5-34 10.5q-38 0-62-37.5t-24-110.5h-117q0 128 55 201.5t156 73.5q37 0 68.5-16t47-32 38.5-46q20-25 29-34.5t26.5-20.5 34.5-11q37 0 60.5 37t23.5 110h119q0-128-55-201t-156-73q-37 0-69 16t-48 32.5-39 45.5zM78 563q0 167 74 300.5t210.5 210.5 311.5 77q173 0 309-76.5t210.5-210.5 74.5-301-74.5-301-210.5-210.5-309-76.5q-175 0-311.5 77t-210.5 210.5-74 300.5zM1040 563q0 170-101 280.5t-265 110.5q-166 0-267.5-110.5t-101.5-280.5q0-169 101.5-280t267.5-111q163 0 264.5 111.5t101.5 279.5z" horiz-adv-x="1347"/><glyph d="M1829 0h-821v166q-127-191-373-191-163 0-290.5 76.5t-197 210-69.5 301.5q0 167 69.5 301t197 210.5 290.5 76.5q246 0 373-190v165h821v-194h-598v-260h586v-195h-586v-282h598v-195zM1008 403v322q-42 115-131 172t-201 57q-168 0-269.5-110.5t-101.5-280.5q0-169 102-280t269-111q114 0 201.5 57.5t130.5 173.5z" horiz-adv-x="1923"/><glyph d="M1059 1536l-338-295h-154l287 295h205zM139 440v686h226v-667q0-133 74.5-210t211.5-77q136 0 211.5 77.5t75.5 209.5v667h225v-684q0-217-131-342t-381-125q-251 0-381.5 125.5t-130.5 339.5z" horiz-adv-x="1302"/><glyph d="M946 1241h-137l-158 197-153-197h-136l191 295h197zM139 440v686h226v-667q0-133 74.5-210t211.5-77q136 0 211.5 77.5t75.5 209.5v667h225v-684q0-217-131-342t-381-125q-251 0-381.5 125.5t-130.5 339.5z" horiz-adv-x="1302"/><glyph d="M438 1257q-51 0-86 35t-35 86q0 50 35 84.5t86 34.5q50 0 84.5-34.5t34.5-84.5q0-51-34.5-86t-84.5-35zM866 1257q-50 0-85.5 35t-35.5 86q0 49 35.5 84t85.5 35 85.5-35 35.5-84q0-51-35.5-86t-85.5-35zM139 440v686h226v-667q0-133 74.5-210t211.5-77q136 0 211.5 77.5t75.5 209.5v667h225v-684q0-217-131-342t-381-125q-251 0-381.5 125.5t-130.5 339.5z" horiz-adv-x="1302"/><glyph d="M727 1241h-154l-337 295h204zM139 440v686h226v-667q0-133 74.5-210t211.5-77q136 0 211.5 77.5t75.5 209.5v667h225v-684q0-217-131-342t-381-125q-251 0-381.5 125.5t-130.5 339.5z" horiz-adv-x="1302"/><glyph d="M977 1536l-338-295h-154l287 295h205zM684 0h-221v469l-463 657h254l319-469 314 469h254l-457-657v-469z" horiz-adv-x="1140"/><glyph d="M356 1257q-51 0-85.5 35t-34.5 86q0 50 34.5 84.5t85.5 34.5q50 0 84.5-34.5t34.5-84.5q0-51-34.5-86t-84.5-35zM784 1257q-50 0-85 35t-35 86q0 49 35 84t85 35 85.5-35 35.5-84q0-51-35.5-86t-85.5-35zM684 0h-221v469l-463 657h254l319-469 314 469h254l-457-657v-469z" horiz-adv-x="1140"/><glyph d="M160 1126h444q277 0 443.5-157t166.5-408q0-250-166-405.5t-442-155.5h-446v489h-119v148h119v489zM383 195h221q180 0 280.5 104t100.5 262q0 162-97.5 266.5t-281.5 104.5h-223v-295h250v-148h-250v-294z" horiz-adv-x="1292"/><glyph d="M362 0h-223v1126h223v-176h310q180 0 282.5-104t102.5-256q0-153-100.5-256t-284.5-103h-310v-231zM827 590q0 73-47 119.5t-133 46.5h-285v-330h285q86 0 133 45.5t47 118.5z" horiz-adv-x="1105"/><glyph d="M1126 0h-256q-87 81-104 98-150-121-334-121-170 0-277.5 87t-107.5 241q0 63 20 115t58 91.5 79 67.5 97 56q-80 137-80 242 0 118 93.5 196t230.5 78q127 0 212-63.5t85-174.5q0-50-17.5-93t-42-72.5-68-59.5-76.5-47.5-87-42.5q58-71 113-129 92-102 114-125 74 108 113 234l160-70q-72-167-160-281 107-107 235-227zM414 872q0-68 57-161 98 43 148.5 86t50.5 106q0 50-32.5 78.5t-84.5 28.5q-61 0-100-40t-39-98zM254 319q0-83 57.5-136.5t145.5-53.5q104 0 198 78-68 65-141 149-76 89-131 158-129-82-129-195z" horiz-adv-x="1150"/><glyph d="M1001 815l-36-121h-170l-86-256h172l-39-123h-174l-107-315h-149l106 315h-168l-104-315h-150l105 315h-162l37 123h168l86 256h-168l37 121h172l104 311h150l-107-311h168l107 311h149l-106-311h165zM643 694h-164l-88-256h168z" horiz-adv-x="1040"/><glyph d="M324 588q-121 0-197 80t-76 200q0 121 76 202t197 81 197.5-81 76.5-202q0-120-76.5-200t-197.5-80zM1075 1126l-786-1126h-129l784 1126h131zM324 1034q-60 0-99-47t-39-119 39-117.5 99-45.5q61 0 100 45.5t39 117.5-39 119-100 47zM911-23q-120 0-196 80.5t-76 200.5q0 122 76 202.5t196 80.5q122 0 198.5-80.5t76.5-202.5q0-120-77-200.5t-198-80.5zM911 424q-62 0-100.5-46.5t-38.5-119.5q0-72 39-118t100-46q62 0 101 46.5t39 117.5q0 74-38.5 120t-101.5 46z" horiz-adv-x="1236"/><glyph d="M528-121l-133-102q-145 177-227 417.5t-82 487.5 82 486.5 227 418.5l133-100q-107-201-158-387.5t-51-417.5 51-417 158-386z" horiz-adv-x="565"/><glyph d="M246 682q0 232-51.5 418t-159.5 387l133 100q146-179 228.5-418.5t82.5-486.5q0-248-82.5-488t-228.5-417l-133 102q108 199 159.5 385t51.5 418z" horiz-adv-x="565"/><glyph d="M506-205h-416v1778h416v-148h-258v-1482h258v-148z" horiz-adv-x="540"/><glyph d="M451-205h-416v148h258v1482h-258v148h416v-1778z" horiz-adv-x="540"/><glyph d="M530-205h-124q-118 0-204.5 83.5t-86.5 219.5v383q0 60-27.5 100t-79.5 40v127q52 0 79.5 39.5t27.5 99.5v381q0 136 86.5 220.5t204.5 84.5h124v-148h-124q-55 0-93.5-44t-38.5-113v-402q0-142-94-182 94-40 94-182v-402q0-68 38.5-112.5t93.5-44.5h124v-148z" horiz-adv-x="565"/><glyph d="M35-205v148h125q55 0 93 44.5t38 112.5v402q0 142 94 182-94 40-94 182v402q0 69-38 113t-93 44h-125v148h125q118 0 204.5-84.5t86.5-220.5v-381q0-60 27-99.5t79-39.5v-127q-52 0-79-39.5t-27-100.5v-383q0-136-86.5-219.5t-204.5-83.5h-125z" horiz-adv-x="565"/><glyph d="M250 1386q58 0 100.5-42t42.5-99q0-59-42.5-101t-100.5-42-99.5 42-41.5 101q0 57 41.5 99t99.5 42zM121 0l37 946h186l39-946h-262z" horiz-adv-x="501"/><glyph d="M371 1126l-33-741h-172l-35 741h240zM252-23q-58 0-100.5 42.5t-42.5 101.5q0 57 42.5 99t100.5 42 99.5-42 41.5-99q0-59-41.5-101.5t-99.5-42.5z" horiz-adv-x="501"/><glyph d="M250 1149q58 0 100.5-42.5t42.5-100.5q0-57-42.5-99.5t-100.5-42.5-99.5 42.5-41.5 99.5q0 59 41.5 101t99.5 42zM131 0l33 741h172l35-741h-240z" horiz-adv-x="501"/><glyph d="M621 1243q0-57-43-99t-101-42-100.5 42-42.5 99q0 59 42 101t101 42 101.5-42.5 42.5-100.5zM625 786q0-49-15-89.5t-47.5-75-57-54-69.5-51.5q-36-26-54.5-41t-42-38.5-34-48-10.5-52.5q0-64 49.5-106t144.5-42q168 0 285 144l137-154q-79-96-194.5-149.5t-251.5-53.5q-190 0-303 90.5t-113 231.5q0 49 14 93t32 73.5 52 62 56 49.5 63 46q51 37 77 58t49.5 56.5 23.5 73.5q0 54-45 92l180 60q74-71 74-175z" horiz-adv-x="937"/><glyph d="M578 627q-42-27-63-43t-39.5-41-18.5-51q0-44 45-76l-170-54q-62 54-62 134 0 38 13 69.5t41 58.5 49 42.5 59 40.5q40 26 61 42t40.5 42.5 19.5 54.5q0 53-43 85t-123 32q-163 0-264-123l-109 135q69 84 171 129t223 45q165 0 264.5-74t99.5-184q0-49-16-90t-49-74.5-58.5-52.5-70.5-47zM397-23q-58 0-100.5 42.5t-42.5 101.5 42 101 101 42 101.5-42.5 42.5-100.5q0-59-42.5-101.5t-101.5-42.5z" horiz-adv-x="811"/><glyph d="M414 1149q58 0 100.5-42.5t42.5-100.5q0-59-42.5-101.5t-100.5-42.5-101 43-43 101 42.5 100.5 101.5 42.5zM231 500q43 28 63.5 43t40 40.5 19.5 51.5q0 44-45 76l170 53q62-54 62-133 0-37-13-68.5t-40.5-58.5-48.5-43-60-41q-40-26-61-42t-40.5-42.5-19.5-54.5q0-53 43-85t123-32q163 0 264 123l109-135q-69-84-171-129.5t-223-45.5q-165 0-264.5 74.5t-99.5 184.5q0 40 12.5 76t28.5 60 46.5 51 50 40.5 54.5 36.5z" horiz-adv-x="811"/><glyph d="M592 332h-203l-328 368 328 363h203l-328-363zM940 332h-203l-327 368 327 363h203l-328-363z" horiz-adv-x="1001"/><glyph d="M592 700l-328-368h-203l328 368-328 363h203zM940 700l-328-368h-202l327 368-327 363h202z" horiz-adv-x="1001"/><glyph d="M592 332h-203l-328 368 328 363h203l-328-363z" horiz-adv-x="653"/><glyph d="M592 700l-328-368h-203l328 368-328 363h203z" horiz-adv-x="653"/><glyph d="M553 606h-492v185h492v-185z" horiz-adv-x="614"/><glyph d="M1153 606h-1092v185h1092v-185z" horiz-adv-x="1214"/><glyph d="M1645 606h-1584v185h1584v-185z" horiz-adv-x="1705"/><glyph d="M250 559q-58 0-101 42t-43 99q0 58 43 101t101 43 100.5-42.5 42.5-101.5q0-57-42.5-99t-100.5-42z" horiz-adv-x="501"/><glyph d="M369 467q-97 0-165.5 68t-68.5 163q0 97 68.5 165.5t165.5 68.5 165-68.5 68-165.5q0-95-68-163t-165-68z" horiz-adv-x="733"/></font>
</defs>
</svg>
