<svg xmlns="http://www.w3.org/2000/svg"><defs><font horiz-adv-x="833"><font-face ascent="1618" descent="-430" units-per-em="2048"/><missing-glyph horiz-adv-x="522"/><glyph d="M1958 1092q-80 0-133 51.5t-53 124.5 37 129 89.5 82 106.5 26q80 0 133-51.5t53-124.5-37-129-89.5-82-106.5-26zM784 670h-200l-148-670h-368l147 670h-164l72 319h162l12 51q37 152 147.5 249t272.5 97q156 0 252-57l-121-239q-27 24-80 24-44 0-69.5-21.5t-32.5-52.5l-13-51h203zM1413 989h203l-72-319h-201l-147-670h-369l148 670h-164l72 319h161l13 51q37 152 147.5 249t272.5 97q156 0 252-57l-121-239q-27 24-80 24-44 0-70-21.5t-33-52.5zM1268-385l65 297q24-6 53-6 104 0 134 137l211 946h368l-211-946q-22-100-56-177t-86-139-129.5-95-176.5-33q-107 0-172 16z" horiz-adv-x="2093" unicode="&#x66;&#x66;&#x6a;"/><glyph d="M1198 1092q-80 0-133 51.5t-53 124.5 37 129 89.5 82 106.5 26q81 0 134-51.5t53-124.5-37.5-129-90-82-106.5-26zM784 670h-200l-148-670h-368l147 670h-164l72 319h162l12 51q37 152 147.5 249t272.5 97q156 0 252-57l-121-239q-27 24-80 24-44 0-69.5-21.5t-32.5-52.5l-13-51h203zM508-385l65 297q24-6 54-6 103 0 133 137l211 946h368l-211-946q-22-100-56-177t-86-139-129.5-95-176.5-33q-107 0-172 16z" horiz-adv-x="1333" unicode="&#x66;&#x6a;"/><glyph d="M436 0h-368l147 670h-164l72 319h162l12 51q37 152 147.5 249t272.5 97q156 0 252-57l-121-239q-27 24-80 24-44 0-69.5-21.5t-32.5-52.5l-13-51h203l-72-319h-200zM1196 0h-369l148 670h-164l72 319h161l13 51q37 152 147.5 249t272.5 97q156 0 252-57l-121-239q-27 24-80 24-44 0-70-21.5t-33-52.5l-12-51h203l-72-319h-201z" horiz-adv-x="1519" unicode="&#xfb00;"/><glyph d="M1012 1268q0 73 37 129t89.5 82 106.5 26q81 0 134-51.5t53-124.5-37.5-129-90-82-106.5-26q-80 0-133 51.5t-53 124.5zM584 670l-148-670h-368l147 670h-164l72 319h162l12 51q37 152 147.5 249t272.5 97q156 0 252-57l-121-239q-27 24-80 24-44 0-69.5-21.5t-32.5-52.5l-13-51h203l-72-319h-200zM1120 0h-368l219 989h368z" horiz-adv-x="1333" unicode="&#xfb01;"/><glyph d="M784 670h-200l-148-670h-368l147 670h-164l72 319h162l12 51q37 152 147.5 249t272.5 97q156 0 252-57l-121-239q-27 24-80 24-44 0-69.5-21.5t-32.5-52.5l-13-51h203zM1120 0h-368l301 1366h368z" horiz-adv-x="1333" unicode="&#xfb02;"/><glyph d="M1772 1268q0 73 37 129t89.5 82 106.5 26q80 0 133-51.5t53-124.5-37-129-89.5-82-106.5-26q-80 0-133 51.5t-53 124.5zM584 670l-148-670h-368l147 670h-164l72 319h162l12 51q37 152 147.5 249t272.5 97q156 0 252-57l-121-239q-27 24-80 24-44 0-69.5-21.5t-32.5-52.5l-13-51h203l-72-319h-200zM1616 989l-72-319h-201l-147-670h-369l148 670h-164l72 319h161l13 51q37 152 147.5 249t272.5 97q156 0 252-57l-121-239q-27 24-80 24-44 0-70-21.5t-33-52.5l-12-51h203zM1880 0h-369l220 989h368z" horiz-adv-x="2093" unicode="&#xfb03;"/><glyph d="M784 670h-200l-148-670h-368l147 670h-164l72 319h162l12 51q37 152 147.5 249t272.5 97q156 0 252-57l-121-239q-27 24-80 24-44 0-69.5-21.5t-32.5-52.5l-13-51h203zM1413 989h203l-72-319h-201l-147-670h-369l148 670h-164l72 319h161l13 51q37 152 147.5 249t272.5 97q156 0 252-57l-121-239q-27 24-80 24-44 0-70-21.5t-33-52.5zM1880 0h-369l301 1366h369z" horiz-adv-x="2093" unicode="&#xfb04;"/><glyph d="M436 0h-368l147 670h-164l72 319h162l12 51q37 152 147.5 249t272.5 97q156 0 252-57l-121-239q-27 24-80 24-44 0-69.5-21.5t-32.5-52.5l-13-51h203l-72-319h-200zM1143 104l-23-104h-368l301 1366h368l-106-481q63 69 126.5 99t141.5 30q169 0 269-108t100-304q0-84-20-170.5t-63-168.5-103-146-147-103-189-39q-89 0-165 32.5t-122 96.5zM1571 524q0 72-48 118t-116 46q-83 0-150-67l-57-252q62-68 164-68 88 0 147.5 64t59.5 159z" horiz-adv-x="1980" unicode="&#x66;&#x62;"/><glyph d="M436 0h-368l147 670h-164l72 319h162l12 51q37 152 147.5 249t272.5 97q156 0 252-57l-121-239q-27 24-80 24-44 0-69.5-21.5t-32.5-52.5l-13-51h203l-72-319h-200zM1792 0h-369l115 530q10 45 10 66 0 47-33 69.5t-77 22.5q-98 0-183-76l-133-612h-368l301 1366h368l-110-489q45 41 80.5 66.5t98 48 132.5 22.5q151 0 238.5-73t87.5-187q0-30-11-80z" horiz-adv-x="2004" unicode="&#x66;&#x68;"/><glyph d="M784 670h-200l-148-670h-368l147 670h-164l72 319h162l12 51q37 152 147.5 249t272.5 97q156 0 252-57l-121-239q-27 24-80 24-44 0-69.5-21.5t-32.5-52.5l-13-51h203zM1815 0h-443l-104 326-99-103-49-223h-368l301 1366h368l-157-709 290 332h457l-440-450z" horiz-adv-x="1900" unicode="&#x66;&#x6b;"/><glyph horiz-adv-x="0"/><glyph horiz-adv-x="682"/><glyph horiz-adv-x="0"/><glyph horiz-adv-x="0"/><glyph horiz-adv-x="0" unicode="&#xd;"/><glyph horiz-adv-x="522" unicode="&#x20;"/><glyph horiz-adv-x="522" unicode="&#x09;"/><glyph horiz-adv-x="522" unicode="&#xa0;"/><glyph d="M455 508h-332l135 858h438zM2 176q0 97 71.5 167.5t168.5 70.5q83 0 140.5-59.5t57.5-143.5q0-97-71-167.5t-168-70.5q-83 0-141 59.5t-58 143.5z" horiz-adv-x="579" unicode="&#x21;"/><glyph d="M377 694h-152l-6 475q-1 91 63 154t154 63q67 0 116.5-48.5t49.5-120.5q0-35-18-76zM823 694h-151l-6 475q-1 91 63 154t154 63q67 0 116.5-48.5t49.5-120.5q0-33-19-76z" horiz-adv-x="960" unicode="&#x22;"/><glyph d="M662 0h-261l181 324h-162l-178-324h-260l180 324h-176l120 223h181l147 270h-178l119 221h184l180 328h260l-180-328h160l180 328h260l-182-328h180l-117-221h-186l-149-270h186l-119-223h-192zM705 547l149 270h-160l-147-270h158z" horiz-adv-x="1323" unicode="&#x23;"/><glyph d="M774 866q72-23 126-43t124-58 115.5-80.5 77.5-106 32-138.5q0-95-40-179.5t-112-147.5-180-100-237-38l-39-180h-262l45 207q-287 68-430 240l239 286q74-91 205.5-147.5t266.5-56.5q59 0 86.5 19t27.5 48q0 34-42 60t-130 55q-52 16-88 29t-89 36-90 46-78.5 58-66.5 74-42 91-17 112q0 70 35 143t101 138 176 107.5 245 45.5l41 187h262l-47-217q218-56 359-197l-242-280q-72 78-186.5 121.5t-212.5 43.5q-54 0-80.5-19.5t-26.5-49.5q0-31 43.5-56t130.5-53z" horiz-adv-x="1300" unicode="&#x24;"/><glyph d="M156 989q0 175 114.5 286t278.5 111q93 0 171.5-33t128.5-100 50-157q0-174-115-286t-278-112q-144 0-247 79.5t-103 211.5zM356 0h-198l1173 1366h201zM649 1073q0 42-29.5 69t-78.5 27q-59 0-97-42t-38-115q0-42 29.5-69.5t78.5-27.5q59 0 97 42.5t38 115.5zM786 266q0 116 54 208t143.5 141 196.5 49q93 0 171.5-33t128.5-100.5 50-157.5q0-174-115-286t-278-112q-144 0-247.5 79.5t-103.5 211.5zM1280 350q0 42-30 69t-79 27q-59 0-97-42t-38-115q0-42 30-69t79-27q59 0 97 42t38 115z" horiz-adv-x="1605" unicode="&#x25;"/><glyph d="M1059 692l254-164q-128-165-256-282 56-92 162-246h-424q-6 7-17.5 23.5t-15.5 21.5q-156-70-301-70-103 0-186.5 21t-149 64.5-101.5 118-36 175.5q0 76 21.5 140.5t56 110 86 84 104 64 117.5 48.5q-27 111-27 190 0 171 129.5 283t325.5 112q108 0 199-33t150.5-105 59.5-171q0-50-12.5-93.5t-32-75.5-52.5-61-64.5-49-77.5-39.5-82-32-88-28.5q8-17 23.5-46.5t21.5-41.5q8-15 30-55.5t35-62.5q98 109 148 200zM711 993q0-45 12-92 82 28 125 60t43 81q0 43-20.5 65.5t-55.5 22.5q-44 0-74-35.5t-30-101.5zM526 258q34 0 84 16-49 73-78 129l-73 152q-72-62-72-158 0-67 39-103t100-36z" horiz-adv-x="1335" unicode="&#x26;"/><glyph d="M377 694h-152l-6 475q-1 91 63 154t154 63q67 0 116.5-48.5t49.5-120.5q0-35-18-76z" horiz-adv-x="516" unicode="&#x27;"/><glyph d="M512-252l-270-156q-96 116-146.5 293.5t-50.5 366.5q0 321 163.5 636.5t428.5 514.5l194-199q-188-205-294.5-479t-106.5-559q0-212 82-418z" horiz-adv-x="708" unicode="&#x28;"/><glyph d="M195 1247l270 156q96-116 146.5-293.5t50.5-366.5q0-321-163.5-636.5t-428.5-514.5l-195 199q188 205 294.5 479t106.5 559q0 215-81 418z" horiz-adv-x="710" unicode="&#x29;"/><glyph d="M500 702h-170l59 226-207-92-47 149 209 76-168 117 115 131 153-131 39 208h168l-61-225 207 94 49-151-207-76 166-117-117-131-153 131z" horiz-adv-x="743" unicode="&#x2a;"/><glyph d="M1004 584h-345l-88-396h-237l88 396h-344l47 215h344l84 379h238l-84-379h344z" horiz-adv-x="1044" unicode="&#x2b;"/><glyph d="M86-289l-123 127q66 27 133.5 73t96.5 99q-6-2-27-2-71 0-118.5 44.5t-47.5 129.5q0 93 74.5 162.5t167.5 69.5q85 0 147-57.5t62-157.5q0-138-102.5-275.5t-262.5-212.5z" horiz-adv-x="579" unicode="&#x2c;"/><glyph d="M518 342h-491l67 307h492z" horiz-adv-x="614" unicode="&#x2d;"/><glyph d="M2 176q0 97 71.5 167.5t168.5 70.5q83 0 140.5-59.5t57.5-143.5q0-97-71-167.5t-168-70.5q-83 0-141 59.5t-58 143.5z" horiz-adv-x="579" unicode="&#x2e;"/><glyph d="M141-41h-266l805 1448h268z" horiz-adv-x="741" unicode="&#x2f;"/><glyph d="M57 545q0 234 93 426.5t257 303.5 365 111q116 0 212.5-36t169-105 113-178 40.5-248q0-234-92.5-427t-256.5-305-364-112q-116 0-213 36.5t-169.5 106-113.5 179-41 248.5zM891 838q0 88-39.5 136t-120.5 48q-62 0-113-47.5t-82-122-48-159.5-17-167q0-87 40.5-136.5t121.5-49.5q61 0 112 47.5t82 122.5 47.5 160.5 16.5 167.5z" horiz-adv-x="1286" unicode="&#x30;"/><glyph d="M768 0h-414l185 840-281-230-180 244 635 512h356z" horiz-adv-x="989" unicode="&#x31;"/><glyph d="M1090 0h-1117l80 375q469 244 596 321 164 101 199 170 14 26 14 54 0 49-55 77.5t-141 28.5q-173 0-332-113l-164 299q102 82 243 128t285 46q162 0 295.5-50.5t216-151 82.5-234.5q0-176-142-318.5t-466-271.5h485z" horiz-adv-x="1255" unicode="&#x32;"/><glyph d="M-45 260l252 244q71-86 192.5-133t223.5-47q80 0 119.5 31.5t39.5 72.5q0 14-2.5 23.5t-13.5 22.5-31 21-57.5 13.5-89.5 5.5q-159 0-199-4l78 350q25-2 197-2 108 0 157 18t49 64q0 44-59.5 72t-165.5 28q-168 0-321-98l-140 281q94 72 231.5 117.5t272.5 45.5q284 0 447-97.5t163-270.5q0-115-113-209t-255-117q260-65 260-305 0-121-79-216.5t-207-145.5-277-50q-213 0-396 73t-276 212z" horiz-adv-x="1263" unicode="&#x33;"/><glyph d="M997 0h-413l47 219h-658l80 352 649 795h596l-174-786h158l-80-361h-158zM711 580l96 430-354-430h258z" horiz-adv-x="1302" unicode="&#x34;"/><glyph d="M4 229l268 248q60-67 158-110t209-43q88 0 132 39t44 90q0 52-55 86t-148 34q-123 0-219-75l-264 96 168 772h1044l-75-344h-652l-45-209q104 76 269 76 182 0 296.5-100.5t114.5-280.5q0-109-44-206.5t-122-170-192.5-114.5-249.5-42q-210 0-373 67t-264 187z" horiz-adv-x="1282" unicode="&#x35;"/><glyph d="M49 530q0 186 56.5 344.5t158.5 271.5 251.5 176.5 328.5 63.5q292 0 502-165l-234-285q-53 49-132.5 75.5t-158.5 26.5q-100 0-184-50.5t-121-123.5q-19-35-27-73 53 53 138 82.5t180 29.5q124 0 226-45t164.5-134 62.5-206q0-148-84-273.5t-223.5-197.5-299.5-72q-281 0-442.5 147.5t-161.5 407.5zM827 455q0 61-64.5 99t-154.5 38q-88 0-151-37-4-16-4-51 0-79 60.5-129.5t143.5-50.5q70 0 120 35.5t50 95.5z" horiz-adv-x="1280" unicode="&#x36;"/><glyph d="M592 0h-473l649 1006h-621l80 360h1116l-63-287z" horiz-adv-x="1177" unicode="&#x37;"/><glyph d="M-2 358q0 122 87 227t257 158q-79 41-127.5 111.5t-48.5 151.5q0 98 52 174t138.5 119.5 188 65 211.5 21.5 212.5-20.5 191-62.5 141.5-114.5 53-166.5q0-124-87-221t-235-133q100-59 149.5-137t49.5-160q0-95-53-172.5t-141-125-197.5-73-227.5-25.5q-94 0-180.5 13t-166.5 42.5-138.5 73-93.5 109-35 145.5zM911 950q0 44-50.5 72.5t-127.5 28.5q-63 0-107-26.5t-44-66.5q0-38 38.5-69t100.5-43q90 3 140 33.5t50 70.5zM811 412q0 43-39 77t-121 50q-95-3-156-37.5t-61-89.5q0-47 50-74t143-27q83 0 133.5 28.5t50.5 72.5z" horiz-adv-x="1290" unicode="&#x38;"/><glyph d="M1309 834q0-249-96.5-443t-278.5-304-420-110q-291 0-502 166l234 285q53-49 132.5-75.5t158.5-26.5q100 0 184 50.5t121 123.5q18 32 26 73-53-53-137.5-82.5t-179.5-29.5q-124 0-226 45t-164.5 134-62.5 206q0 148 84 273.5t223.5 197.5 299.5 72q281 0 442.5-147.5t161.5-407.5zM530 909q0-61 65-99t155-38q88 0 151 37 4 16 4 51 0 79-61 129.5t-144 50.5q-70 0-120-35.5t-50-95.5z" horiz-adv-x="1280" unicode="&#x39;"/><glyph d="M131 768q0 97 71.5 167.5t168.5 70.5q83 0 140.5-59.5t57.5-143.5q0-97-71-167.5t-168-70.5q-83 0-141 59.5t-58 143.5zM2 176q0 97 71.5 167.5t168.5 70.5q83 0 140.5-59.5t57.5-143.5q0-97-71-167.5t-168-70.5q-83 0-141 59.5t-58 143.5z" horiz-adv-x="579" unicode="&#x3a;"/><glyph d="M131 768q0 97 71.5 167.5t168.5 70.5q83 0 140.5-59.5t57.5-143.5q0-97-71-167.5t-168-70.5q-83 0-141 59.5t-58 143.5zM86-289l-123 127q66 27 133.5 73t96.5 99q-6-2-27-2-71 0-118.5 44.5t-47.5 129.5q0 93 74.5 162.5t167.5 69.5q85 0 147-57.5t62-157.5q0-138-102.5-275.5t-262.5-212.5z" horiz-adv-x="579" unicode="&#x3b;"/><glyph d="M913 184l-843 369 59 266 1008 369-60-266-737-248 629-244z" horiz-adv-x="1044" unicode="&#x3c;"/><glyph d="M1042 764h-925l47 215h926zM961 389h-926l47 215h926z" horiz-adv-x="1044" unicode="&#x3d;"/><glyph d="M995 553l-1007-369 59 267 739 243-630 248 55 246 844-369z" horiz-adv-x="1044" unicode="&#x3e;"/><glyph d="M643 532l-340-73q-20 62-20 141 0 58 16.5 107t37 80 57 60 59 42 59.5 31q6 3 18 10t17.5 10 14.5 8 13 9l8.5 8.5t6.5 9.5 2 10q0 41-86 41-43 0-93-16t-89-47l-170 284q185 139 419 139 121 0 222.5-33.5t167-104 65.5-167.5q0-60-15.5-110.5t-36.5-83.5-58.5-64.5-63.5-48-70-39.5q-32-19-47.5-28.5t-39.5-27.5-35-32.5-20-35.5-9-44q0-20 10-35zM180 176q0 97 71.5 167.5t168.5 70.5q83 0 140.5-59.5t57.5-143.5q0-97-71-167.5t-168-70.5q-83 0-141 59.5t-58 143.5z" horiz-adv-x="921" unicode="&#x3f;"/><glyph d="M113 500q0 158 67.5 307.5t178.5 258.5 260.5 175 306.5 66q145 0 267.5-49t204.5-132 127.5-193 45.5-231q0-106-30-195.5t-78-149.5-109-102.5-122-61.5-118-19q-91 0-142.5 38t-68.5 97l-4 15q-52-74-122.5-112t-141.5-38q-151 0-236.5 100.5t-85.5 255.5q0 95 37 185.5t98 156.5 142.5 106 167.5 40q84 0 149-30.5t101-84.5l18 90h324l-95-444q-6-30-6-55 0-78 58-78 65 0 113 77t48 209q0 236-147.5 375.5t-402.5 139.5q-140 0-271.5-58t-228-154-155-227.5-58.5-271.5q0-157 72.5-285t203-202 291.5-74q193 0 367 110l49-69q-200-129-426-129-183 0-332 85t-233 232-84 326zM926 512l39 195q-38 57-119 57-90 0-145.5-61.5t-55.5-143.5q0-60 35-95.5t94-35.5q85 0 152 84z" horiz-adv-x="1603" unicode="&#x40;"/><glyph d="M1380 0h-428l-16 176h-522l-92-176h-469l804 1366h521zM907 520l-47 502-264-502h311z" horiz-adv-x="1454" unicode="&#x41;"/><glyph d="M858 0h-858l301 1366h760q80 0 146.5-19.5t112-52.5 76.5-77.5 45.5-92.5 14.5-98q0-130-92.5-233.5t-214.5-114.5q95-26 144.5-101.5t49.5-168.5q0-57-15.5-112t-52-109.5-90.5-95-138.5-66-188.5-25.5zM1016 956q0 31-20 52.5t-60 21.5h-295l-39-172h307q57 0 82 29.5t25 68.5zM932 438q0 35-23 59.5t-61 24.5h-320l-41-186h320q56 0 90.5 29t34.5 73z" horiz-adv-x="1427" unicode="&#x42;"/><glyph d="M57 602q0 174 64.5 322t175.5 249.5 261.5 158.5 320.5 57q116 0 215-26.5t170-69.5 127-103 89.5-122.5 53.5-131.5l-397-125q-19 96-94.5 154.5t-182.5 58.5q-161 0-268-117.5t-107-275.5q0-121 85.5-206t222.5-85q80 0 160.5 46t115.5 112l324-209q-61-88-141.5-152t-165.5-98-162.5-49-153.5-15q-196 0-357.5 75.5t-258.5 220-97 331.5z" horiz-adv-x="1427" unicode="&#x43;"/><glyph d="M301 1366h600q114 0 224.5-42t198.5-116.5 142-187.5 54-244q0-77-14-152t-46-153-80.5-146-122.5-128.5-165.5-103.5-215.5-68-268-25h-608zM494 360h190q187 0 297.5 111t110.5 274q0 111-74.5 186t-192.5 75h-190z" horiz-adv-x="1507" unicode="&#x44;"/><glyph d="M1036 0h-1036l301 1366h1036l-75-344h-623l-35-160h608l-75-344h-609l-39-174h623z" horiz-adv-x="1220" unicode="&#x45;"/><glyph d="M414 0h-414l301 1366h1036l-75-344h-623l-35-160h608l-75-344h-609z" horiz-adv-x="1212" unicode="&#x46;"/><glyph d="M57 602q0 167 62.5 312t174 250 273.5 165 353 60q114 0 213.5-30.5t171-82.5 122-114 80.5-132l-381-156q-22 64-97.5 107t-168.5 43q-156 0-265.5-115t-109.5-278q0-116 83.5-203.5t224.5-87.5q113 0 196 61l12 62h-264l78 340h666l-123-551q-98-131-251-204t-337-73q-142 0-270 42.5t-227 120.5-157.5 198.5-58.5 265.5z" horiz-adv-x="1486" unicode="&#x47;"/><glyph d="M1317 0h-414l115 522h-490l-114-522h-414l301 1366h414l-107-483h490l106 483h414z" horiz-adv-x="1538" unicode="&#x48;"/><glyph d="M414 0h-414l301 1366h414z" horiz-adv-x="634" unicode="&#x49;"/><glyph d="M-74 111l213 313q29-35 79-59.5t101-24.5q70 0 115 40.5t60 113.5l192 872h414l-195-879q-59-266-189.5-389t-365.5-123q-120 0-235.5 34.5t-188.5 101.5z" horiz-adv-x="1019" unicode="&#x4a;"/><glyph d="M1300 0h-483l-211 494-108-115-84-379h-414l301 1366h414l-107-483 445 483h526l-655-635z" horiz-adv-x="1374" unicode="&#x4b;"/><glyph d="M932 0h-932l301 1366h414l-221-1006h518z" horiz-adv-x="1097" unicode="&#x4c;"/><glyph d="M1622 0h-414l181 821-486-821h-184l-125 821-180-821h-414l301 1366h557l94-655 385 655h586z" horiz-adv-x="1843" unicode="&#x4d;"/><glyph d="M1315 0h-397l-336 770-168-770h-414l301 1366h426l315-725 160 725h414z" horiz-adv-x="1536" unicode="&#x4e;"/><glyph d="M57 602q0 162 62 307t170 250.5 261.5 167.5 328.5 62q200 0 362-78t255-221 93-324q0-162-62-307.5t-169-252-260-169-328-62.5q-202 0-364 78.5t-255.5 222.5-93.5 326zM1161 733q0 127-85 209t-222 82q-159 0-264-116t-105-277q0-127 85.5-209t222.5-82q159 0 263.5 116t104.5 277z" horiz-adv-x="1568" unicode="&#x4f;"/><glyph d="M414 0h-414l301 1366h686q194 0 315-116t121-287q0-53-12.5-109.5t-39-119-74.5-117-112-99-159-70.5-209-26h-311zM586 782h243q77 0 121.5 38t44.5 100q0 48-32 75t-93 27h-231z" horiz-adv-x="1355" unicode="&#x50;"/><glyph d="M1589 766q0-187-80-349t-223-272l57-98-329-149-56 96q-93-19-188-19-202 0-364 78.5t-255.5 222.5-93.5 326q0 162 62 307t170 250.5 261.5 167.5 328.5 62q200 0 362-78t255-221 93-324zM664 508l329 149 94-163q74 107 74 239 0 127-85 209t-222 82q-159 0-264-116t-105-277q0-119 75.5-199t199.5-90z" horiz-adv-x="1568" unicode="&#x51;"/><glyph d="M1223 0h-455l-92 438h-166l-96-438h-414l301 1366h664q124 0 228-50t167-146 63-218q0-174-97.5-307.5t-238.5-183.5zM586 782h241q77 0 122.5 33.5t45.5 95.5q0 51-32.5 81t-88.5 30h-235z" horiz-adv-x="1388" unicode="&#x52;"/><glyph d="M-37 242l240 286q74-92 205-148t266-56q59 0 86.5 19t27.5 48q0 34-42 60t-130 55q-52 16-88 29t-89 36-90 46-78.5 58-66.5 74-42 91-17 112q0 56 22 115t69.5 116.5 113.5 102.5 162.5 72.5 208.5 27.5q171 0 328.5-58.5t267.5-168.5l-242-280q-72 78-186.5 121.5t-212.5 43.5q-54 0-80.5-19.5t-26.5-49.5q0-31 43.5-56t130.5-53q50-16 88.5-29.5t90.5-36 91-46 79.5-57 67-70 43-85 16.5-102.5q0-196-157.5-330.5t-414.5-134.5q-216 0-399 72t-285 195z" horiz-adv-x="1255" unicode="&#x53;"/><glyph d="M707 0h-414l221 1006h-367l80 360h1145l-80-360h-364z" horiz-adv-x="1218" unicode="&#x54;"/><glyph d="M731-25q-302 0-458 136t-156 364q0 58 22 160l162 731h420l-168-758q-10-45-10-86 2-78 55.5-132t159.5-54q108 0 172 64.5t88 170.5l176 795h420l-178-803q-23-104-57.5-188.5t-92-160.5-133-127.5-183-81.5-239.5-30z" horiz-adv-x="1533" unicode="&#x55;"/><glyph d="M877 0h-521l-202 1366h448l92-920 498 920h489z" horiz-adv-x="1454" unicode="&#x56;"/><glyph d="M1477 0h-435l-6 774-346-774h-434l-90 1366h452l-8-836 391 836h312l22-836 359 836h475z" horiz-adv-x="1953" unicode="&#x57;"/><glyph d="M1327 0h-467l-176 393-324-393h-507l628 725-297 641h465l154-365 284 365h510l-589-688z" horiz-adv-x="1400" unicode="&#x58;"/><glyph d="M778 0h-413l118 543-329 823h444l152-461 352 461h485l-690-823z" horiz-adv-x="1359" unicode="&#x59;"/><glyph d="M1044 0h-1081l72 328 649 678h-500l80 360h1067l-71-326-652-680h516z" horiz-adv-x="1228" unicode="&#x5a;"/><glyph d="M414-389h-502l395 1778h502l-51-234h-246l-291-1311h246z" horiz-adv-x="649" unicode="&#x5b;"/><glyph d="M365-41l-164 1448h256l164-1448h-256z" horiz-adv-x="741" unicode="&#x5c;"/><glyph d="M340-389h-500l51 233h246l291 1311h-246l51 234h502z" horiz-adv-x="649" unicode="&#x5d;"/><glyph d="M922 682h-246l-66 440-260-440h-272l444 684h264z" horiz-adv-x="921" unicode="&#x5e;"/><glyph d="M979-315h-1165l53 233h1165z" horiz-adv-x="1155" unicode="&#x5f;"/><glyph d="M705 1139h-246l-252 295h317z" horiz-adv-x="563" unicode="&#x60;"/><glyph d="M836 885l22 104h369l-219-989h-369l25 104q-63-69-127-99t-142-30q-169 0-268.5 108t-99.5 304q0 84 20 170.5t63 168.5 103 146 147 103 189 39q89 0 165-32.5t122-96.5zM408 465q0-72 47.5-118t115.5-46q82 0 150 68l57 252q-61 67-164 67-88 0-147-64t-59-159z" horiz-adv-x="1220" unicode="&#x61;"/><glyph d="M383 104l-23-104h-368l301 1366h369l-107-481q63 69 126.5 99t141.5 30q169 0 269-108t100-304q0-84-20-170.5t-63-168.5-103-146-147-103-189-39q-89 0-165 32.5t-122 96.5zM811 524q0 72-48 118t-116 46q-82 0-149-67l-58-252q62-68 164-68 88 0 147.5 64t59.5 159z" horiz-adv-x="1220" unicode="&#x62;"/><glyph d="M31 434q0 161 78.5 294t215.5 209.5 302 76.5q159 0 268.5-57t165.5-148l-275-211q-23 40-65.5 65t-97.5 25q-95 0-157.5-64.5t-62.5-164.5q0-70 53.5-114t129.5-44q97 0 166 80l196-244q-59-65-163-113.5t-236-48.5q-238 0-378 129t-140 330z" horiz-adv-x="1028" unicode="&#x63;"/><glyph d="M836 885l106 481h369l-303-1366h-369l25 104q-63-69-127-99t-142-30q-169 0-268.5 108t-99.5 304q0 84 20 170.5t63 168.5 103 146 147 103 189 39q89 0 165-32.5t122-96.5zM408 465q0-72 47.5-118t115.5-46q82 0 150 68l57 252q-61 67-164 67-88 0-147-64t-59-159z" horiz-adv-x="1220" unicode="&#x64;"/><glyph d="M31 426q0 157 73.5 291t209.5 215.5 304 81.5q94 0 176.5-28.5t147-83.5 102-142.5 37.5-196.5q0-101-22-182h-664v-2q0-5 7-18t23.5-31 39-34.5 58-28 75.5-11.5q61 0 121.5 13.5t93.5 35.5l113-239q-72-45-166.5-68t-188.5-23q-245 0-392.5 118.5t-147.5 332.5zM430 614h326v7q0 13-8 30t-24 36.5-47.5 32.5-72.5 13q-66 0-114.5-39.5t-59.5-79.5z" horiz-adv-x="1112" unicode="&#x65;"/><glyph d="M784 670h-200l-148-670h-368l147 670h-164l72 319h162l12 51q37 152 147.5 249t272.5 97q156 0 252-57l-121-239q-27 24-80 24-44 0-69.5-21.5t-32.5-52.5l-13-51h203z" horiz-adv-x="759" unicode="&#x66;"/><glyph d="M-80-225l207 243q42-54 129-86t172-32q83 0 143 45t88 164l13 51q-54-64-124-98.5t-147-34.5q-75 0-139 21t-117.5 65.5-84.5 123-31 183.5q0 88 21.5 173.5t65 161.5 104 133.5 143.5 91.5 178 34q81 0 159.5-33.5t130.5-95.5l25 104h369l-197-880q-28-123-79-216.5t-110-148-132.5-88.5-138-45.5-134.5-11.5q-330 0-514 176zM729 422l41 186q-56 80-174 80-80 0-133-49t-53-143q0-62 48.5-103t123.5-41q84 0 147 70z" horiz-adv-x="1218" unicode="&#x67;"/><glyph d="M1032 0h-368l114 530q10 45 10 66 0 47-33 69.5t-77 22.5q-97 0-182-76l-134-612h-368l301 1366h369l-111-489q45 41 80.5 66.5t98 48 132.5 22.5q151 0 238.5-73t87.5-187q0-35-10-80z" horiz-adv-x="1245" unicode="&#x68;"/><glyph d="M252 1268q0 73 37 129t89.5 82 106.5 26q81 0 134-51.5t53-124.5-37.5-129-90-82-106.5-26q-80 0-133 51.5t-53 124.5zM360 0h-368l219 989h369z" horiz-adv-x="573" unicode="&#x69;"/><glyph d="M438 1092q-80 0-133 51.5t-53 124.5 37 129 89.5 82 106.5 26q81 0 134-51.5t53-124.5-37.5-129-90-82-106.5-26zM-252-385l66 297q24-6 53-6 103 0 133 137l211 946h369l-211-946q-22-100-56-177.5t-86.5-139-130-94.5-176.5-33q-107 0-172 16z" horiz-adv-x="573" unicode="&#x6a;"/><glyph d="M1055 0h-443l-104 326-98-103-50-223h-368l301 1366h369l-158-709 291 332h456l-440-450z" horiz-adv-x="1140" unicode="&#x6b;"/><glyph d="M360 0h-368l301 1366h369z" horiz-adv-x="573" unicode="&#x6c;"/><glyph d="M1624 0h-369l115 520q12 54 12 76 0 44-32 68t-82 24q-74 0-142-76l-135-612h-368l114 520q15 68 15 76 0 43-31 67.5t-86 24.5q-72 0-139-76l-136-612h-368l219 989h369l-27-112q37 37 69 62t93.5 50 128.5 25q61 0 113.5-16.5t85-40.5 56.5-51.5 34-48 10-30.5v-6q35 42 64 71t71 59.5 92 46.5 107 16q127 0 217-69.5t90-190.5q0-40-10-80z" horiz-adv-x="1837" unicode="&#x6d;"/><glyph d="M1030 0h-368l114 520q12 54 12 76 0 47-34 69.5t-84 22.5q-89 0-174-76l-136-612h-368l219 989h369l-27-112q45 41 80.5 66.5t98 48 132.5 22.5q151 0 238.5-73t87.5-187q0-35-10-80z" horiz-adv-x="1243" unicode="&#x6e;"/><glyph d="M29 436q0 152 74 283.5t211 213 307 81.5q128 0 229.5-36t166-99 98.5-146 34-180q0-152-74-283.5t-211-213-307-81.5q-128 0-229.5 36t-166 99-98.5 146-34 180zM772 535q0 73-44.5 113t-121.5 40q-89 0-144.5-68.5t-55.5-164.5q0-73 44-113.5t121-40.5q89 0 145 69t56 165z" horiz-adv-x="1181" unicode="&#x6f;"/><glyph d="M383 104l-107-481h-368l303 1366h369l-25-104q63 69 126.5 99t141.5 30q169 0 269-108t100-304q0-84-20-170.5t-63-168.5-103-146-147-103-189-39q-89 0-165 32.5t-122 96.5zM811 524q0 72-48 118t-116 46q-82 0-149-67l-58-252q62-68 164-68 88 0 147.5 64t59.5 159z" horiz-adv-x="1218" unicode="&#x70;"/><glyph d="M836 885l22 104h369l-303-1366h-369l109 481q-63-69-127-99t-142-30q-169 0-268.5 108t-99.5 304q0 84 20 170.5t63 168.5 103 146 147 103 189 39q89 0 165-32.5t122-96.5zM408 465q0-72 47.5-118t115.5-46q82 0 150 68l57 252q-61 67-164 67-88 0-147-64t-59-159z" horiz-adv-x="1218" unicode="&#x71;"/><glyph d="M360 0h-368l219 989h369l-27-112q61 62 146.5 99.5t187.5 37.5l-80-361q-51 17-111 17-125 0-207-76z" horiz-adv-x="798" unicode="&#x72;"/><glyph d="M-41 158l182 225q53-51 162-98t205-47q63 0 63 43t-145 86q-51 14-90 27.5t-88 38.5-81 53.5-54.5 71.5-22.5 93q0 69 29 133.5t82.5 116 139 82.5 189.5 31q127 0 249.5-41.5t211.5-118.5l-168-219q-43 43-125.5 79t-162.5 36q-76 0-76-43 0-42 125-72 46-12 77-21.5t78-27 78-39 61.5-50.5 46-68.5 15.5-86.5q0-159-126-263t-341-104q-140 0-279 48t-235 135z" horiz-adv-x="1003" unicode="&#x73;"/><glyph d="M127 225q0 39 8 78l80 367h-164l72 319h164l59 271h369l-60-271h201l-72-319h-200l-54-242q-6-27-6-47 0-37 23-58.5t69-21.5q37 0 52 10v-295q-59-41-176-41-167 0-266 63t-99 187z" horiz-adv-x="782" unicode="&#x74;"/><glyph d="M209 989h369l-121-547q-6-27-6-47 0-48 35-71t89-23q81 0 168 78l136 610h368l-219-989h-369l27 113q-33-30-59.5-50t-65.5-42.5-85.5-34-100.5-11.5q-151 0-238.5 73.5t-87.5 187.5q0 34 10 79z" horiz-adv-x="1241" unicode="&#x75;"/><glyph d="M633 0h-391l-164 989h379l61-565 318 565h399z" horiz-adv-x="1095" unicode="&#x76;"/><glyph d="M1276 0h-402l-40 553-281-553h-401l-68 989h369l10-545 295 545h329l52-545 252 545h391z" horiz-adv-x="1648" unicode="&#x77;"/><glyph d="M981 0h-393l-96 262-216-262h-411l434 508-195 481h394l82-231 184 231h414l-412-481z" horiz-adv-x="1067" unicode="&#x78;"/><glyph d="M-100-375l116 314q37-15 105-15 74 0 100 39l21 33-164 993h379l61-565 318 565h399l-678-1112q-94-156-198.5-217t-258.5-61q-118 0-200 26z" horiz-adv-x="1095" unicode="&#x79;"/><glyph d="M817 0h-860l59 270 426 400h-338l72 319h852l-57-258-439-412h355z" horiz-adv-x="995" unicode="&#x7a;"/><glyph d="M414-389h-88q-140 0-239 87.5t-99 219.5q0 37 8 70l63 284q4 24 4 37 0 43-21.5 68.5t-59.5 25.5l43 193q107 0 135 131l63 283q43 192 162.5 285.5t300.5 93.5h123l-51-234h-123q-122 0-156-143l-78-353q-37-160-135-186 60-35 60-117 0-32-9-69l-65-297q-4-24-4-35 0-50 31-80.5t79-30.5h109z" horiz-adv-x="647" unicode="&#x7b;"/><glyph d="M385-41h-233v1448h233v-1448z" horiz-adv-x="454" unicode="&#x7c;"/><glyph d="M231 1389h88q140 0 239-88t99-220q0-36-8-69l-63-285q-4-24-4-37 0-43 22-68.5t60-25.5l-43-193q-108 0-136-131l-63-282q-43-192-162.5-285.5t-300.5-93.5h-123l51 233h123q122 0 156 144l78 352q37 160 135 186-60 35-60 117 0 33 9 70l65 297q4 24 4 34 0 50-31 80.5t-79 30.5h-109z" horiz-adv-x="647" unicode="&#x7d;"/><glyph d="M874 956l232-28q-17-81-37.5-147.5t-54.5-137.5-76-119.5-104-80-136-31.5q-42 0-76 8.5t-56 21-39 34-26 39.5-15.5 46-8.5 45-4 45q-3 32-5.5 48t-10.5 30-23 14q-44 0-92.5-108t-67.5-223l-235 26q101 518 410 518 42 0 76-9t56-21.5 39-34 26-39.5 15.5-46.5 8.5-45.5 4-45q2-33 5-49t11-29.5 23-13.5q44 0 94 112t67 221z" horiz-adv-x="1060" unicode="&#x7e;"/><glyph d="M569 813q0-97-71-167.5t-168-70.5q-83 0-141 59.5t-58 143.5q0 97 71.5 167.5t168.5 70.5q83 0 140.5-59.5t57.5-143.5zM117 481h332l-136-858h-438z" horiz-adv-x="579" unicode="&#xa1;"/><glyph d="M586 301q97 0 166 80l196-244q-50-55-138.5-100.5t-199.5-56.5l-41-185h-258l47 207q-155 45-241 160.5t-86 271.5q0 153 72 282t198.5 207.5 280.5 88.5l32 145h258l-38-174q154-52 227-174l-275-211q-23 40-65.5 65t-97.5 25q-95 0-157.5-64.5t-62.5-164.5q0-70 53.5-114t129.5-44z" horiz-adv-x="1028" unicode="&#xa2;"/><glyph d="M842 340q81 0 145 68l84-326q-85-107-264-107-104 0-307 54-117 32-164 32-102 0-221-75l-76 270q101 49 163 127t62 168v2h-201l52 223h96q-33 93-33 164 0 127 79.5 230t211 159.5 285.5 56.5q206 0 350-77t192-226l-370-151q-10 62-51 92.5t-101 30.5q-66 0-106.5-48t-40.5-118q0-38 14-96l4-17h275l-52-223h-231q-21-61-61-109.5t-80-66.5q43 14 86 14 50 0 135-26 81-25 125-25z" horiz-adv-x="1189" unicode="&#xa3;"/><glyph d="M1399 1063l-174-141q39-86 39-187 0-205-136-360l113-142-240-192-129 162q-100-35-206-35-158 0-279 59l-203-166-186 234 174 141q-39 89-39 189 0 207 133 362l-112 148 241 192 127-166q96 35 209 35 165 0 291-66l190 156zM506 649q0-72 46-116t132-44q91 0 150 63.5t59 156.5q0 73-46 118t-136 45q-92 0-148.5-64t-56.5-159z" horiz-adv-x="1327" unicode="&#xa4;"/><glyph d="M1102 1366h485l-510-608h293l-49-215h-424l-25-109h424l-47-215h-424l-47-219h-413l47 219h-424l47 215h424l24 109h-424l50 215h288l-243 608h444l152-461z" horiz-adv-x="1359" unicode="&#xa5;"/><glyph d="M385 760h-233v647h233v-647zM385-41h-233v647h233v-647z" horiz-adv-x="454" unicode="&#xa6;"/><glyph d="M799 393q51-30 78.5-83t27.5-113q0-160-128.5-261.5t-325.5-101.5q-160 0-303 46t-236 130l192 217q63-64 158.5-103.5t188.5-39.5q42 0 66 16.5t24 38.5q0 12-5 22t-18 19.5-23.5 16-34 15.5-36.5 13.5-43 14.5q-135 44-190 78-125 77-125 214 0 209 225 299-53 30-83 86t-30 123q0 106 60 185.5t160 120 225 40.5q304 0 471-147l-181-201q-44 43-120 71t-156 28q-96 0-96-60 0-10 4.5-18.5t16.5-16.5 22.5-14 31.5-13 35-11.5 41-12.5q34-11 48.5-15.5t48-16.5 50.5-20 45.5-23 44-28.5 35.5-34 29.5-41.5 17-48.5 7.5-58.5q0-103-63.5-189t-155.5-123zM547 717q-55-9-83-39.5t-28-73.5q0-35 30.5-61t76.5-37q44 10 69 42.5t25 69.5q0 38-27 64.5t-63 34.5z" horiz-adv-x="1024" unicode="&#xa7;"/><glyph d="M373 1092q-69 0-115.5 46t-46.5 115q0 79 63.5 141t143.5 62q69 0 115.5-46.5t46.5-115.5q0-79-63.5-140.5t-143.5-61.5zM815 1092q-69 0-115.5 46t-46.5 115q0 79 63.5 141t143.5 62q69 0 115.5-46.5t46.5-115.5q0-79-63.5-140.5t-143.5-61.5z" horiz-adv-x="886" unicode="&#xa8;"/><glyph d="M836-23q-191 0-353.5 95t-257 258-94.5 354q0 192 94.5 355t257 257.5 353.5 94.5q192 0 355-94.5t258-257.5 95-355q0-143-56-274t-151-226-226-151-275-56zM836 1305q-167 0-310-83.5t-226-226.5-83-311q0-125 49.5-240t132.5-198.5 197.5-133 239.5-49.5q126 0 241 49.5t198.5 133 133 198.5 49.5 240q0 168-83.5 311t-227 226.5-311.5 83.5zM1040 453l62-82q-59-50-137-82.5t-156-32.5q-175 0-283 105t-108 268q0 102 39 193t104 154 151.5 99.5 178.5 36.5q107 0 195-42.5t139-123.5l-92-65q-75 135-248 135-136 0-245.5-111t-109.5-272q0-116 76-198.5t205-82.5q124 0 229 101z" horiz-adv-x="1593" unicode="&#xa9;"/><glyph d="M690 1311h260l-141-643h-262l12 63q-72-80-168-80-107 0-179.5 71t-72.5 198q0 175 100.5 291t241.5 116q133 0 195-80zM408 954q0-50 28-74t74-24q50 0 88 35l45 207q-36 26-88 26-63 0-105-50.5t-42-119.5z" horiz-adv-x="854" unicode="&#xaa;"/><glyph d="M625 129h-320l-246 369 410 362h336l-418-373zM1106 129h-320l-245 369 409 362h336l-418-373z" horiz-adv-x="1259" unicode="&#xab;"/><glyph d="M1090 979l-129-590h-222l82 375h-704l47 215h926z" horiz-adv-x="1079" unicode="&#xac;"/><glyph d="M518 342h-491l67 307h492z" horiz-adv-x="614" unicode="&#xad;"/><glyph d="M604 518q-180 0-306 127t-126 307q0 181 127 307.5t307 126.5q119 0 219-57.5t157.5-157.5 57.5-219q0-180-127.5-307t-308.5-127zM604 1315q-151 0-255.5-105.5t-104.5-257.5q0-150 105-256t255-106q151 0 258 106.5t107 255.5q0 152-107 257.5t-258 105.5zM760 702h-88l-86 197h-84l-43-197h-76l109 498h192q69 0 109.5-38.5t40.5-92.5q0-68-50-118t-114-50zM666 1137h-111l-39-172h127q52 0 81.5 29t29.5 71q0 72-88 72z" horiz-adv-x="1011" unicode="&#xae;"/><glyph d="M883 1128h-744l49 199h744z" horiz-adv-x="743" unicode="&#xaf;"/><glyph d="M467 778q-126 0-214.5 88.5t-88.5 214.5 88.5 215.5 214.5 89.5 215.5-89.5 89.5-215.5-89.5-214.5-215.5-88.5zM467 1202q-49 0-83-35.5t-34-85.5 33-83 82-33q50 0 86.5 33.5t36.5 82.5-36 85-85 36z" horiz-adv-x="677" unicode="&#xb0;"/><glyph d="M1022 672h-344l-88-396h-238l88 396h-344l47 215h344l86 379h238l-86-379h344zM874 0h-925l47 215h926z" horiz-adv-x="1044" unicode="&#xb1;"/><glyph d="M858 862h-692l45 203q227 128 330 193.5t130 94 27 60.5q0 31-27 49.5t-77 18.5q-63 0-126-25t-101-59l-107 180q65 55 161.5 86t184.5 31q168 0 269.5-71t101.5-183q0-92-83-174.5t-288-190.5h299z" unicode="&#xb2;"/><glyph d="M573 848q-134 0-244 41.5t-161 109.5l162 168q41-53 104-79.5t125-26.5q92 0 92 57 0 53-162 53-63 0-75-2l45 209q18-2 141-2 58 0 82.5 12.5t24.5 38.5q0 27-39 40.5t-97 13.5q-124 0-204-64l-84 168q60 52 145.5 80.5t171.5 28.5q180 0 281.5-61.5t101.5-166.5q0-73-57-133t-168-67q160-43 160-179 0-94-94-166.5t-251-72.5z" unicode="&#xb3;"/><glyph d="M770 1434l-383-295h-250l312 295h321z" horiz-adv-x="563" unicode="&#xb4;"/><glyph d="M358-10l-84-367h-368l311 1366h369l-125-549q-15-67 15-103t95-36q38 0 73.5 13.5t55.5 28 45 36.5l134 610h368l-137-624q-7-31 9-47.5t46-16.5q23 0 41 6l-47-311q-79-21-166-21-249 0-278 179-53-82-126-130.5t-155-48.5q-19 0-43.5 5t-32.5 10z" horiz-adv-x="1269" unicode="&#xb5;"/><glyph d="M717-205h-164l313 1407h-139l-313-1407h-164l192 867q-116 0-198 91t-82 228q0 97 50.5 185t143 144 203.5 56h506z" horiz-adv-x="919" unicode="&#xb6;"/><glyph d="M70 485q0 97 71 167.5t168 70.5q83 0 141-59.5t58-143.5q0-96-71.5-166.5t-168.5-70.5q-83 0-140.5 59t-57.5 143z" horiz-adv-x="579" unicode="&#xb7;"/><glyph d="M-182-319l88 122q87-73 176-73 78 0 78 49 0 15-11.5 25t-33.5 10q-28 0-49-25l-107 70 98 164h164l-78-119q26 18 60 18 52 0 87.5-36.5t35.5-96.5q0-91-70-145t-172-54q-84 0-156 26.5t-110 64.5z" horiz-adv-x="485" unicode="&#xb8;"/><glyph d="M645 862h-270l102 469-170-135-119 162 406 323h231z" horiz-adv-x="688" unicode="&#xb9;"/><glyph d="M143 956q0 107 58.5 193.5t150.5 132 195 45.5q164 0 260-85.5t96-219.5q0-107-58-193t-150-132-195-46q-164 0-260.5 85.5t-96.5 219.5zM637 1026q0 92-96 92-46 0-77-28.5t-42.5-65-11.5-76.5q0-92 96-92 46 0 77 28.5t42.5 65 11.5 76.5z" horiz-adv-x="829" unicode="&#xba;"/><glyph d="M158 860h319l246-368-410-363h-336l418 373zM639 860h319l246-368-409-363h-336l418 373z" horiz-adv-x="1259" unicode="&#xbb;"/><glyph d="M575 547h-270l103 469-170-135-119 161 405 324h232zM1599 1366l-1175-1366h-199l1174 1366h200zM1681 145h-96l-31-145h-268l31 145h-404l41 179 402 495h379l-103-465h97zM1364 354l51 234-188-234h137z" horiz-adv-x="1787" unicode="&#xbc;"/><glyph d="M575 547h-270l103 469-170-135-119 161 405 324h232zM1599 1366l-1175-1366h-199l1174 1366h200zM1724 0h-692l45 203q227 128 330.5 193.5t130.5 94 27 60.5q0 31-27.5 49t-77.5 18q-63 0-126.5-24.5t-100.5-58.5l-107 180q65 55 162 85.5t185 30.5q168 0 269-70.5t101-182.5q0-92-83-175t-287-190h299z" horiz-adv-x="1890" unicode="&#xbd;"/><glyph d="M504 532q-134 0-244 42t-162 110l162 168q41-53 104.5-80t124.5-27q49 0 71 16.5t22 41.5q0 53-162 53-64 0-76-2l45 209q18-2 141-2 58 0 82.5 12.5t24.5 38.5q0 27-38.5 40t-96.5 13q-126 0-205-63l-84 168q60 51 145 79.5t172 28.5q180 0 281.5-61t101.5-166q0-74-57-134t-168-67q160-43 160-178 0-95-93.5-167.5t-250.5-72.5zM1745 1366l-1176-1366h-198l1173 1366h201zM1827 145h-96l-31-145h-268l30 145h-403l41 179 401 495h379l-102-465h96zM1509 354l52 234-189-234h137z" horiz-adv-x="1933" unicode="&#xbe;"/><glyph d="M739 811q0-97-71-167.5t-168-70.5q-83 0-141 59.5t-58 143.5q0 97 71.5 167.5t168.5 70.5q83 0 140.5-59.5t57.5-143.5zM276 455l340 73q21-65 21-141 0-58-16.5-107t-37-79.5-57-59.5-59-41.5-59.5-31.5q-5-3-14.5-8t-14-7.5-12-7-11.5-7-9.5-6.5-8-7.5-5.5-7-4-7.5-1-8q0-41 86-41 42 0 92.5 16.5t89.5 47.5l170-285q-185-139-420-139-121 0-222.5 33.5t-167 104-65.5 167.5q0 60 16 111t36.5 83 59 65 63 48 69.5 41q38 21 59.5 34.5t46 34.5 35.5 44.5 11 52.5q0 18-11 35z" horiz-adv-x="821" unicode="&#xbf;"/><glyph d="M1071 1481h-246l-252 295h318zM1380 0h-428l-16 176h-522l-92-176h-469l804 1366h521zM907 520l-47 502-264-502h311z" horiz-adv-x="1454" unicode="&#xc0;"/><glyph d="M1446 1776l-383-295h-250l311 295h322zM1380 0h-428l-16 176h-522l-92-176h-469l804 1366h521zM907 520l-47 502-264-502h311z" horiz-adv-x="1454" unicode="&#xc1;"/><glyph d="M1290 1481h-211l-98 149-158-149h-219l246 295h319zM1380 0h-428l-16 176h-522l-92-176h-469l804 1366h521zM907 520l-47 502-264-502h311z" horiz-adv-x="1454" unicode="&#xc2;"/><glyph d="M924 1530q-2 1-9.5 5.5t-9.5 6-8.5 5.5-9.5 5-9 4-10 4-9 2.5-10.5 2-10.5.5q-43 0-58-76h-184q29 145 87 209.5t173 64.5q83 0 166-53 4-2 13-7.5t12.5-7.5 11.5-6 12.5-6 11.5-4 13.5-3 13.5-1q39 0 57 76h185q-32-146-89.5-210t-172.5-64q-37 0-71 9t-50.5 18-44.5 26zM1380 0h-428l-16 176h-522l-92-176h-469l804 1366h521zM907 520l-47 502-264-502h311z" horiz-adv-x="1454" unicode="&#xc3;"/><glyph d="M737 1434q-69 0-115.5 46t-46.5 115q0 79 63.5 141t143.5 62q69 0 115.5-46.5t46.5-115.5q0-79-63.5-140.5t-143.5-61.5zM1180 1434q-69 0-115.5 46t-46.5 115q0 79 63.5 141t143.5 62q69 0 115-46.5t46-115.5q0-79-63-140.5t-143-61.5zM1380 0h-428l-16 176h-522l-92-176h-469l804 1366h521zM907 520l-47 502-264-502h311z" horiz-adv-x="1454" unicode="&#xc4;"/><glyph d="M750 1614q0 101 74 175.5t175 74.5q94 0 151.5-57.5t57.5-151.5q0-101-74.5-175.5t-175.5-74.5q-94 0-151 57.5t-57 151.5zM1049 1638q0 29-18.5 47.5t-47.5 18.5-51.5-22.5-22.5-51.5 18.5-47 47.5-18 51.5 22 22.5 51zM1380 0h-428l-16 176h-522l-92-176h-469l804 1366h521zM907 520l-47 502-264-502h311z" horiz-adv-x="1454" unicode="&#xc5;"/><glyph d="M1853 0h-1036l39 176h-426l-131-176h-461l1110 1366h1206l-75-344h-623l-35-160h609l-76-344h-608l-39-174h622zM932 520l108 504-350-504h242z" horiz-adv-x="2025" unicode="&#xc6;"/><glyph d="M793 340q80 0 160.5 46t115.5 112l324-209q-61-88-141.5-152t-165.5-98-162.5-49-153.5-15q-37 0-57 2l-47-73q26 18 59 18 52 0 87.5-36.5t35.5-96.5q0-91-70-145t-172-54q-84 0-156 26.5t-110 64.5l88 122q87-73 176-73 78 0 78 49 0 15-11.5 25t-33.5 10q-28 0-49-25l-107 70 84 139q-227 54-367.5 214t-140.5 390q0 174 64.5 322t175.5 249.5 261.5 158.5 320.5 57q116 0 215-26.5t170-69.5 127-103 89.5-122.5 53.5-131.5l-397-125q-19 96-94.5 154.5t-182.5 58.5q-161 0-268-117.5t-107-275.5q0-121 85.5-206t222.5-85z" horiz-adv-x="1427" unicode="&#xc7;"/><glyph d="M987 1481h-246l-252 295h318zM1036 0h-1036l301 1366h1036l-75-344h-623l-35-160h608l-75-344h-609l-39-174h623z" horiz-adv-x="1220" unicode="&#xc8;"/><glyph d="M1362 1776l-383-295h-250l311 295h322zM1036 0h-1036l301 1366h1036l-75-344h-623l-35-160h608l-75-344h-609l-39-174h623z" horiz-adv-x="1220" unicode="&#xc9;"/><glyph d="M1206 1481h-211l-98 149-158-149h-219l246 295h319zM1036 0h-1036l301 1366h1036l-75-344h-623l-35-160h608l-75-344h-609l-39-174h623z" horiz-adv-x="1220" unicode="&#xca;"/><glyph d="M653 1434q-69 0-115 46t-46 115q0 79 63 141t143 62q69 0 115.5-46.5t46.5-115.5q0-79-63.5-140.5t-143.5-61.5zM1096 1434q-69 0-115.5 46t-46.5 115q0 79 63.5 141t143.5 62q69 0 115.5-46.5t46.5-115.5q0-79-63.5-140.5t-143.5-61.5zM1036 0h-1036l301 1366h1036l-75-344h-623l-35-160h608l-75-344h-609l-39-174h623z" horiz-adv-x="1220" unicode="&#xcb;"/><glyph d="M662 1481h-246l-252 295h317zM414 0h-414l301 1366h414z" horiz-adv-x="634" unicode="&#xcc;"/><glyph d="M1036 1776l-383-295h-250l312 295h321zM414 0h-414l301 1366h414z" horiz-adv-x="634" unicode="&#xcd;"/><glyph d="M881 1481h-211l-99 149-157-149h-219l245 295h320zM414 0h-414l301 1366h414z" horiz-adv-x="634" unicode="&#xce;"/><glyph d="M328 1434q-69 0-115.5 46t-46.5 115q0 79 63.5 141t143.5 62q69 0 115.5-46.5t46.5-115.5q0-79-63.5-140.5t-143.5-61.5zM770 1434q-69 0-115.5 46t-46.5 115q0 79 63.5 141t143.5 62q69 0 115.5-46.5t46.5-115.5q0-79-63.5-140.5t-143.5-61.5zM414 0h-414l301 1366h414z" horiz-adv-x="634" unicode="&#xcf;"/><glyph d="M344 1366h600q114 0 224.5-42t198.5-116.5 142-187.5 54-244q0-77-14-152t-46-153-80.5-146-122.5-128.5-165.5-103.5-215.5-68-268-25h-608l115 520h-140l72 326h139zM537 360h190q187 0 297.5 111t110.5 274q0 111-74.5 186t-192.5 75h-190l-35-160h262l-71-326h-263z" horiz-adv-x="1550" unicode="&#xd0;"/><glyph d="M965 1530q-2 1-9.5 5.5t-9.5 6-8.5 5.5-9.5 5-9 4-10 4-9 2.5-10.5 2-10.5.5q-43 0-58-76h-184q29 145 87 209.5t173 64.5q83 0 166-53 4-2 13-7.5t12.5-7.5 11.5-6 12.5-6 11.5-4 13.5-3 13.5-1q39 0 57 76h185q-32-146-90-210t-173-64q-37 0-70.5 9.5t-49.5 17.5-45 26zM1315 0h-397l-336 770-168-770h-414l301 1366h426l315-725 160 725h414z" horiz-adv-x="1536" unicode="&#xd1;"/><glyph d="M1128 1481h-245l-252 295h317zM57 602q0 162 62 307t170 250.5 261.5 167.5 328.5 62q200 0 362-78t255-221 93-324q0-162-62-307.5t-169-252-260-169-328-62.5q-202 0-364 78.5t-255.5 222.5-93.5 326zM1161 733q0 127-85 209t-222 82q-159 0-264-116t-105-277q0-127 85.5-209t222.5-82q159 0 263.5 116t104.5 277z" horiz-adv-x="1568" unicode="&#xd2;"/><glyph d="M1503 1776l-383-295h-250l312 295h321zM57 602q0 162 62 307t170 250.5 261.5 167.5 328.5 62q200 0 362-78t255-221 93-324q0-162-62-307.5t-169-252-260-169-328-62.5q-202 0-364 78.5t-255.5 222.5-93.5 326zM1161 733q0 127-85 209t-222 82q-159 0-264-116t-105-277q0-127 85.5-209t222.5-82q159 0 263.5 116t104.5 277z" horiz-adv-x="1568" unicode="&#xd3;"/><glyph d="M1348 1481h-211l-99 149-157-149h-219l245 295h320zM57 602q0 162 62 307t170 250.5 261.5 167.5 328.5 62q200 0 362-78t255-221 93-324q0-162-62-307.5t-169-252-260-169-328-62.5q-202 0-364 78.5t-255.5 222.5-93.5 326zM1161 733q0 127-85 209t-222 82q-159 0-264-116t-105-277q0-127 85.5-209t222.5-82q159 0 263.5 116t104.5 277z" horiz-adv-x="1568" unicode="&#xd4;"/><glyph d="M981 1530q-2 1-9.5 5.5t-9.5 6-8.5 5.5-9.5 5-9 4-10 4-9 2.5-10.5 2-10.5.5q-42 0-57-76h-185q29 145 87 209.5t173 64.5q83 0 166-53 4-2 13-7.5t12.5-7.5 11.5-6 12.5-6 11.5-4 13.5-3 13.5-1q40 0 58 76h184q-32-146-89.5-210t-172.5-64q-37 0-71 9t-50.5 18-44.5 26zM57 602q0 162 62 307t170 250.5 261.5 167.5 328.5 62q200 0 362-78t255-221 93-324q0-162-62-307.5t-169-252-260-169-328-62.5q-202 0-364 78.5t-255.5 222.5-93.5 326zM1161 733q0 127-85 209t-222 82q-159 0-264-116t-105-277q0-127 85.5-209t222.5-82q159 0 263.5 116t104.5 277z" horiz-adv-x="1568" unicode="&#xd5;"/><glyph d="M795 1434q-69 0-115.5 46t-46.5 115q0 79 63.5 141t143.5 62q69 0 115-46.5t46-115.5q0-79-63-140.5t-143-61.5zM1237 1434q-69 0-115.5 46t-46.5 115q0 79 63.5 141t143.5 62q69 0 115.5-46.5t46.5-115.5q0-79-63.5-140.5t-143.5-61.5zM57 602q0 162 62 307t170 250.5 261.5 167.5 328.5 62q200 0 362-78t255-221 93-324q0-162-62-307.5t-169-252-260-169-328-62.5q-202 0-364 78.5t-255.5 222.5-93.5 326zM1161 733q0 127-85 209t-222 82q-159 0-264-116t-105-277q0-127 85.5-209t222.5-82q159 0 263.5 116t104.5 277z" horiz-adv-x="1568" unicode="&#xd6;"/><glyph d="M750 264l-207 266-340-278-135 164 346 282-209 267 172 139 205-266 342 278 133-164-342-282 205-267z" horiz-adv-x="1044" unicode="&#xd7;"/><glyph d="M1573 1337l-150-157q166-169 166-414 0-162-62-307.5t-169-252-260-169-328-62.5q-217 0-393 95l-158-168-135 127 143 153q-170 170-170 420 0 162 62 307t170 250.5 261.5 167.5 328.5 62q217 0 397-97l162 172zM485 631q0-74 33-142l477 506q-66 29-141 29-159 0-264-116t-105-277zM793 340q159 0 263.5 116t104.5 277q0 75-31 135l-473-501q59-27 136-27z" horiz-adv-x="1568" unicode="&#xd8;"/><glyph d="M1110 1481h-246l-252 295h318zM731-25q-302 0-458 136t-156 364q0 58 22 160l162 731h420l-168-758q-10-45-10-86 2-78 55.5-132t159.5-54q108 0 172 64.5t88 170.5l176 795h420l-178-803q-23-104-57.5-188.5t-92-160.5-133-127.5-183-81.5-239.5-30z" horiz-adv-x="1533" unicode="&#xd9;"/><glyph d="M1485 1776l-383-295h-250l311 295h322zM731-25q-302 0-458 136t-156 364q0 58 22 160l162 731h420l-168-758q-10-45-10-86 2-78 55.5-132t159.5-54q108 0 172 64.5t88 170.5l176 795h420l-178-803q-23-104-57.5-188.5t-92-160.5-133-127.5-183-81.5-239.5-30z" horiz-adv-x="1533" unicode="&#xda;"/><glyph d="M1329 1481h-211l-98 149-158-149h-219l246 295h319zM731-25q-302 0-458 136t-156 364q0 58 22 160l162 731h420l-168-758q-10-45-10-86 2-78 55.5-132t159.5-54q108 0 172 64.5t88 170.5l176 795h420l-178-803q-23-104-57.5-188.5t-92-160.5-133-127.5-183-81.5-239.5-30z" horiz-adv-x="1533" unicode="&#xdb;"/><glyph d="M776 1434q-69 0-115.5 46t-46.5 115q0 79 63.5 141t143.5 62q69 0 115.5-46.5t46.5-115.5q0-79-63.5-140.5t-143.5-61.5zM1219 1434q-69 0-115.5 46t-46.5 115q0 79 63.5 141t143.5 62q69 0 115-46.5t46-115.5q0-79-63-140.5t-143-61.5zM731-25q-302 0-458 136t-156 364q0 58 22 160l162 731h420l-168-758q-10-45-10-86 2-78 55.5-132t159.5-54q108 0 172 64.5t88 170.5l176 795h420l-178-803q-23-104-57.5-188.5t-92-160.5-133-127.5-183-81.5-239.5-30z" horiz-adv-x="1533" unicode="&#xdc;"/><glyph d="M1401 1776l-383-295h-250l311 295h322zM778 0h-413l118 543-329 823h444l152-461 352 461h485l-690-823z" horiz-adv-x="1359" unicode="&#xdd;"/><glyph d="M414 0h-414l301 1366h414l-43-197h266q104 0 189.5-33t140-89 83.5-128 29-153q0-73-19.5-145t-65.5-143-113.5-124.5-172-87-231.5-33.5h-313zM952 719q0 47-31 76.5t-90 29.5h-235l-55-247h252q71 0 115 39.5t44 101.5z" horiz-adv-x="1355" unicode="&#xde;"/><glyph d="M1178 944q-19-84-78-149.5t-146-102.5q106-43 154-149t18-242q-33-149-154.5-237.5t-281.5-88.5q-77 0-145 19t-109 45l113 264q41-18 90-18 45 0 82 26.5t47 73.5q18 76-27 121.5t-153 44.5l61 280q76 0 114.5 28.5t51.5 82.5q11 50-17 84.5t-79 34.5q-57 0-97.5-39t-54.5-107l-205-915h-368l205 924q22 99 67 182t113 146 163.5 98.5 209.5 35.5q97 0 183.5-33t148-90 88.5-141 6-178z" horiz-adv-x="1216" unicode="&#xdf;"/><glyph d="M885 1139h-246l-252 295h318zM836 885l22 104h369l-219-989h-369l25 104q-63-69-127-99t-142-30q-169 0-268.5 108t-99.5 304q0 84 20 170.5t63 168.5 103 146 147 103 189 39q89 0 165-32.5t122-96.5zM408 465q0-72 47.5-118t115.5-46q82 0 150 68l57 252q-61 67-164 67-88 0-147-64t-59-159z" horiz-adv-x="1220" unicode="&#xe0;"/><glyph d="M1260 1434l-383-295h-250l311 295h322zM836 885l22 104h369l-219-989h-369l25 104q-63-69-127-99t-142-30q-169 0-268.5 108t-99.5 304q0 84 20 170.5t63 168.5 103 146 147 103 189 39q89 0 165-32.5t122-96.5zM408 465q0-72 47.5-118t115.5-46q82 0 150 68l57 252q-61 67-164 67-88 0-147-64t-59-159z" horiz-adv-x="1220" unicode="&#xe1;"/><glyph d="M1104 1139h-211l-98 149-158-149h-219l246 295h319zM836 885l22 104h369l-219-989h-369l25 104q-63-69-127-99t-142-30q-169 0-268.5 108t-99.5 304q0 84 20 170.5t63 168.5 103 146 147 103 189 39q89 0 165-32.5t122-96.5zM408 465q0-72 47.5-118t115.5-46q82 0 150 68l57 252q-61 67-164 67-88 0-147-64t-59-159z" horiz-adv-x="1220" unicode="&#xe2;"/><glyph d="M737 1188q-2 1-9.5 5.5t-9.5 6-8.5 5.5-9.5 5-9 4-10 4-9 2.5-10.5 2-10.5.5q-42 0-57-76h-184q29 145 87 209.5t173 64.5q83 0 166-53 4-2 13-7.5t12.5-7.5 11.5-6 12.5-6 11.5-4 13.5-3 13.5-1q39 0 57 76h184q-32-146-89.5-210t-172.5-64q-37 0-71 9t-50.5 18-44.5 26zM836 885l22 104h369l-219-989h-369l25 104q-63-69-127-99t-142-30q-169 0-268.5 108t-99.5 304q0 84 20 170.5t63 168.5 103 146 147 103 189 39q89 0 165-32.5t122-96.5zM408 465q0-72 47.5-118t115.5-46q82 0 150 68l57 252q-61 67-164 67-88 0-147-64t-59-159z" horiz-adv-x="1220" unicode="&#xe3;"/><glyph d="M551 1092q-69 0-115.5 46t-46.5 115q0 79 63.5 141t143.5 62q69 0 115.5-46.5t46.5-115.5q0-79-63.5-140.5t-143.5-61.5zM993 1092q-69 0-115.5 46t-46.5 115q0 79 63.5 141t143.5 62q69 0 115.5-46.5t46.5-115.5q0-79-63.5-140.5t-143.5-61.5zM836 885l22 104h369l-219-989h-369l25 104q-63-69-127-99t-142-30q-169 0-268.5 108t-99.5 304q0 84 20 170.5t63 168.5 103 146 147 103 189 39q89 0 165-32.5t122-96.5zM408 465q0-72 47.5-118t115.5-46q82 0 150 68l57 252q-61 67-164 67-88 0-147-64t-59-159z" horiz-adv-x="1220" unicode="&#xe4;"/><glyph d="M563 1272q0 101 74.5 175.5t175.5 74.5q94 0 151.5-57.5t57.5-151.5q0-101-74.5-175.5t-175.5-74.5q-94 0-151.5 57.5t-57.5 151.5zM862 1296q0 29-18 47.5t-47 18.5-51.5-22.5-22.5-51.5 18-47 47-18 51.5 22 22.5 51zM836 885l22 104h369l-219-989h-369l25 104q-63-69-127-99t-142-30q-169 0-268.5 108t-99.5 304q0 84 20 170.5t63 168.5 103 146 147 103 189 39q89 0 165-32.5t122-96.5zM408 465q0-72 47.5-118t115.5-46q82 0 150 68l57 252q-61 67-164 67-88 0-147-64t-59-159z" horiz-adv-x="1220" unicode="&#xe5;"/><glyph d="M1030 102l-22-102h-369l25 104q-63-69-127-99t-142-30q-169 0-268.5 108t-99.5 304q0 84 20 170.5t63 168.5 103 146 147 103 189 39q89 0 165-32.5t122-96.5l22 104h369l-17-69q112 94 242 94 340 0 340-422 0-118-25-211h-663v-2q0-5 8.5-17.5t27-29 44-32 64.5-26 83-10.5q124 0 195 49l110-247q-71-45-152.5-68t-146.5-23q-110 0-189 35t-118 92zM1145 614h323v2q0 37-38 77t-115 40q-66 0-112.5-39.5t-57.5-79.5zM408 465q0-72 47.5-118t115.5-46q82 0 150 68l57 252q-61 67-164 67-88 0-147-64t-59-159z" horiz-adv-x="1822" unicode="&#xe6;"/><glyph d="M586 301q97 0 166 80l196-244q-59-65-163-113.5t-236-48.5h-17l-47-71q26 18 60 18 52 0 87.5-36.5t35.5-96.5q0-91-70-145t-172-54q-84 0-156 26.5t-110 64.5l88 122q87-73 176-73 78 0 78 49 0 15-11.5 25t-33.5 10q-28 0-49-25l-107 70 82 135q-166 42-259 160.5t-93 279.5 78.5 294 215.5 209.5 302 76.5q159 0 268.5-57t165.5-148l-275-211q-23 40-65.5 65t-97.5 25q-95 0-157.5-64.5t-62.5-164.5q0-70 53.5-114t129.5-44z" horiz-adv-x="1028" unicode="&#xe7;"/><glyph d="M844 1139h-246l-252 295h318zM31 426q0 157 73.5 291t209.5 215.5 304 81.5q94 0 176.5-28.5t147-83.5 102-142.5 37.5-196.5q0-101-22-182h-664v-2q0-5 7-18t23.5-31 39-34.5 58-28 75.5-11.5q61 0 121.5 13.5t93.5 35.5l113-239q-72-45-166.5-68t-188.5-23q-245 0-392.5 118.5t-147.5 332.5zM430 614h326v7q0 13-8 30t-24 36.5-47.5 32.5-72.5 13q-66 0-114.5-39.5t-59.5-79.5z" horiz-adv-x="1112" unicode="&#xe8;"/><glyph d="M1219 1434l-383-295h-250l311 295h322zM31 426q0 157 73.5 291t209.5 215.5 304 81.5q94 0 176.5-28.5t147-83.5 102-142.5 37.5-196.5q0-101-22-182h-664v-2q0-5 7-18t23.5-31 39-34.5 58-28 75.5-11.5q61 0 121.5 13.5t93.5 35.5l113-239q-72-45-166.5-68t-188.5-23q-245 0-392.5 118.5t-147.5 332.5zM430 614h326v7q0 13-8 30t-24 36.5-47.5 32.5-72.5 13q-66 0-114.5-39.5t-59.5-79.5z" horiz-adv-x="1112" unicode="&#xe9;"/><glyph d="M1063 1139h-211l-98 149-158-149h-219l246 295h319zM31 426q0 157 73.5 291t209.5 215.5 304 81.5q94 0 176.5-28.5t147-83.5 102-142.5 37.5-196.5q0-101-22-182h-664v-2q0-5 7-18t23.5-31 39-34.5 58-28 75.5-11.5q61 0 121.5 13.5t93.5 35.5l113-239q-72-45-166.5-68t-188.5-23q-245 0-392.5 118.5t-147.5 332.5zM430 614h326v7q0 13-8 30t-24 36.5-47.5 32.5-72.5 13q-66 0-114.5-39.5t-59.5-79.5z" horiz-adv-x="1112" unicode="&#xea;"/><glyph d="M510 1092q-69 0-115.5 46t-46.5 115q0 79 63.5 141t143.5 62q69 0 115.5-46.5t46.5-115.5q0-79-63.5-140.5t-143.5-61.5zM952 1092q-69 0-115 46t-46 115q0 79 63 141t143 62q69 0 115.5-46.5t46.5-115.5q0-79-63.5-140.5t-143.5-61.5zM31 426q0 157 73.5 291t209.5 215.5 304 81.5q94 0 176.5-28.5t147-83.5 102-142.5 37.5-196.5q0-101-22-182h-664v-2q0-5 7-18t23.5-31 39-34.5 58-28 75.5-11.5q61 0 121.5 13.5t93.5 35.5l113-239q-72-45-166.5-68t-188.5-23q-245 0-392.5 118.5t-147.5 332.5zM430 614h326v7q0 13-8 30t-24 36.5-47.5 32.5-72.5 13q-66 0-114.5-39.5t-59.5-79.5z" horiz-adv-x="1112" unicode="&#xeb;"/><glyph d="M555 1139h-246l-252 295h318zM360 0h-368l219 989h369z" horiz-adv-x="573" unicode="&#xec;"/><glyph d="M930 1434l-383-295h-250l311 295h322zM360 0h-368l219 989h369z" horiz-adv-x="573" unicode="&#xed;"/><glyph d="M774 1139h-211l-98 149-158-149h-219l246 295h319zM360 0h-368l219 989h369z" horiz-adv-x="573" unicode="&#xee;"/><glyph d="M221 1092q-69 0-115.5 46t-46.5 115q0 79 63.5 141t143.5 62q69 0 115.5-46.5t46.5-115.5q0-79-63.5-140.5t-143.5-61.5zM664 1092q-69 0-115.5 46t-46.5 115q0 79 63.5 141t143.5 62q69 0 115-46.5t46-115.5q0-79-63-140.5t-143-61.5zM360 0h-368l219 989h369z" horiz-adv-x="573" unicode="&#xef;"/><glyph d="M1116 1192l-135-41q188-247 188-518 0-132-40.5-250.5t-115.5-209.5-191.5-144.5-258.5-53.5q-248 0-395.5 118t-147.5 321q0 206 139 347.5t345 141.5q245 0 332-227-13 146-236 362l-338-100-33 160 228 67q-65 51-86 66l256 266q134-105 239-213l215 64zM569 301q86 0 136.5 42.5t50.5 111.5q0 56-48 90.5t-133 34.5q-82 0-130-45t-48-109q0-125 172-125z" horiz-adv-x="1181" unicode="&#xf0;"/><glyph d="M743 1188q-2 1-9.5 5.5t-9.5 6-8.5 5.5-9.5 5-9 4-10 4-9 2.5-10.5 2-10.5.5q-42 0-57-76h-184q29 145 87 209.5t173 64.5q83 0 166-53 4-2 13-7.5t12.5-7.5 11.5-6 12.5-6 11.5-4 13.5-3 13.5-1q39 0 57 76h184q-32-146-89.5-210t-172.5-64q-37 0-71 9t-50.5 18-44.5 26zM1030 0h-368l114 520q12 54 12 76 0 47-34 69.5t-84 22.5q-89 0-174-76l-136-612h-368l219 989h369l-27-112q45 41 80.5 66.5t98 48 132.5 22.5q151 0 238.5-73t87.5-187q0-35-10-80z" horiz-adv-x="1243" unicode="&#xf1;"/><glyph d="M858 1139h-246l-252 295h318zM29 436q0 152 74 283.5t211 213 307 81.5q128 0 229.5-36t166-99 98.5-146 34-180q0-152-74-283.5t-211-213-307-81.5q-128 0-229.5 36t-166 99-98.5 146-34 180zM772 535q0 73-44.5 113t-121.5 40q-89 0-144.5-68.5t-55.5-164.5q0-73 44-113.5t121-40.5q89 0 145 69t56 165z" horiz-adv-x="1181" unicode="&#xf2;"/><glyph d="M1233 1434l-383-295h-250l311 295h322zM29 436q0 152 74 283.5t211 213 307 81.5q128 0 229.5-36t166-99 98.5-146 34-180q0-152-74-283.5t-211-213-307-81.5q-128 0-229.5 36t-166 99-98.5 146-34 180zM772 535q0 73-44.5 113t-121.5 40q-89 0-144.5-68.5t-55.5-164.5q0-73 44-113.5t121-40.5q89 0 145 69t56 165z" horiz-adv-x="1181" unicode="&#xf3;"/><glyph d="M1077 1139h-211l-98 149-158-149h-219l246 295h319zM29 436q0 152 74 283.5t211 213 307 81.5q128 0 229.5-36t166-99 98.5-146 34-180q0-152-74-283.5t-211-213-307-81.5q-128 0-229.5 36t-166 99-98.5 146-34 180zM772 535q0 73-44.5 113t-121.5 40q-89 0-144.5-68.5t-55.5-164.5q0-73 44-113.5t121-40.5q89 0 145 69t56 165z" horiz-adv-x="1181" unicode="&#xf4;"/><glyph d="M711 1188q-2 1-9.5 5.5t-9.5 6-8.5 5.5-9.5 5-9 4-10 4-9 2.5-10.5 2-10.5.5q-43 0-58-76h-184q29 145 87 209.5t173 64.5q83 0 166-53 4-2 13-7.5t12.5-7.5 11.5-6 12.5-6 11.5-4 13.5-3 13.5-1q39 0 57 76h185q-32-146-89.5-210t-172.5-64q-37 0-71 9t-50.5 18-44.5 26zM29 436q0 152 74 283.5t211 213 307 81.5q128 0 229.5-36t166-99 98.5-146 34-180q0-152-74-283.5t-211-213-307-81.5q-128 0-229.5 36t-166 99-98.5 146-34 180zM772 535q0 73-44.5 113t-121.5 40q-89 0-144.5-68.5t-55.5-164.5q0-73 44-113.5t121-40.5q89 0 145 69t56 165z" horiz-adv-x="1181" unicode="&#xf5;"/><glyph d="M524 1092q-69 0-115.5 46t-46.5 115q0 79 63.5 141t143.5 62q69 0 115.5-46.5t46.5-115.5q0-79-63.5-140.5t-143.5-61.5zM967 1092q-69 0-115.5 46t-46.5 115q0 79 63.5 141t143.5 62q69 0 115.5-46.5t46.5-115.5q0-79-63.5-140.5t-143.5-61.5zM29 436q0 152 74 283.5t211 213 307 81.5q128 0 229.5-36t166-99 98.5-146 34-180q0-152-74-283.5t-211-213-307-81.5q-128 0-229.5 36t-166 99-98.5 146-34 180zM772 535q0 73-44.5 113t-121.5 40q-89 0-144.5-68.5t-55.5-164.5q0-73 44-113.5t121-40.5q89 0 145 69t56 165z" horiz-adv-x="1181" unicode="&#xf6;"/><glyph d="M483 1020q0 68 50.5 118t119.5 50q58 0 100-42.5t42-101.5q0-68-51-117.5t-119-49.5q-58 0-100 42t-42 101zM1006 584h-928l47 215h928zM332 336q0 68 50.5 118t119.5 50q58 0 99.5-42.5t41.5-101.5q0-68-51-117.5t-119-49.5q-58 0-99.5 42t-41.5 101z" horiz-adv-x="1046" unicode="&#xf7;"/><glyph d="M1094 1004l-93-113q148-127 148-338 0-152-74-283.5t-211-213-307-81.5q-146 0-262 50l-100-123-107 86 88 108q-147 126-147 340 0 152 74 283.5t211 213 307 81.5q154 0 268-51l102 124zM406 455q0-39 12-66l241 293q-24 6-53 6-89 0-144.5-68.5t-55.5-164.5zM571 301q89 0 145 69t56 165q0 34-10 61l-238-291q28-4 47-4z" horiz-adv-x="1181" unicode="&#xf8;"/><glyph d="M887 1139h-246l-252 295h318zM209 989h369l-121-547q-6-27-6-47 0-48 35-71t89-23q81 0 168 78l136 610h368l-219-989h-369l27 113q-33-30-59.5-50t-65.5-42.5-85.5-34-100.5-11.5q-151 0-238.5 73.5t-87.5 187.5q0 34 10 79z" horiz-adv-x="1241" unicode="&#xf9;"/><glyph d="M1262 1434l-383-295h-250l311 295h322zM209 989h369l-121-547q-6-27-6-47 0-48 35-71t89-23q81 0 168 78l136 610h368l-219-989h-369l27 113q-33-30-59.5-50t-65.5-42.5-85.5-34-100.5-11.5q-151 0-238.5 73.5t-87.5 187.5q0 34 10 79z" horiz-adv-x="1241" unicode="&#xfa;"/><glyph d="M1106 1139h-211l-98 149-158-149h-219l246 295h319zM209 989h369l-121-547q-6-27-6-47 0-48 35-71t89-23q81 0 168 78l136 610h368l-219-989h-369l27 113q-33-30-59.5-50t-65.5-42.5-85.5-34-100.5-11.5q-151 0-238.5 73.5t-87.5 187.5q0 34 10 79z" horiz-adv-x="1241" unicode="&#xfb;"/><glyph d="M553 1092q-69 0-115.5 46t-46.5 115q0 79 63.5 141t143.5 62q69 0 115.5-46.5t46.5-115.5q0-79-63.5-140.5t-143.5-61.5zM995 1092q-69 0-115 46t-46 115q0 79 63 141t143 62q69 0 115.5-46.5t46.5-115.5q0-79-63.5-140.5t-143.5-61.5zM209 989h369l-121-547q-6-27-6-47 0-48 35-71t89-23q81 0 168 78l136 610h368l-219-989h-369l27 113q-33-30-59.5-50t-65.5-42.5-85.5-34-100.5-11.5q-151 0-238.5 73.5t-87.5 187.5q0 34 10 79z" horiz-adv-x="1241" unicode="&#xfc;"/><glyph d="M1192 1434l-383-295h-250l311 295h322zM-100-375l116 314q37-15 105-15 74 0 100 39l21 33-164 993h379l61-565 318 565h399l-678-1112q-94-156-198.5-217t-258.5-61q-118 0-200 26z" horiz-adv-x="1095" unicode="&#xfd;"/><glyph d="M383 104l-107-481h-368l385 1743h369l-107-481q63 69 126.5 99t141.5 30q169 0 269-108t100-304q0-84-20-170.5t-63-168.5-103-146-147-103-189-39q-89 0-165 32.5t-122 96.5zM811 524q0 72-48 118t-116 46q-82 0-149-67l-58-252q62-68 164-68 88 0 147.5 64t59.5 159z" horiz-adv-x="1218" unicode="&#xfe;"/><glyph d="M483 1092q-69 0-115 46t-46 115q0 79 63 141t143 62q69 0 115.5-46.5t46.5-115.5q0-79-63.5-140.5t-143.5-61.5zM926 1092q-69 0-115.5 46t-46.5 115q0 79 63.5 141t143.5 62q69 0 115.5-46.5t46.5-115.5q0-79-63.5-140.5t-143.5-61.5zM-100-375l116 314q37-15 105-15 74 0 100 39l21 33-164 993h379l61-565 318 565h399l-678-1112q-94-156-198.5-217t-258.5-61q-118 0-200 26z" horiz-adv-x="1095" unicode="&#xff;"/><glyph d="M2003 0h-1036l20 100q-135-125-358-125-113 0-217 46.5t-182.5 128-125.5 199.5-47 253q0 173 63.5 321.5t170 249 248.5 157 297 56.5q255 0 403-151l29 131h1036l-76-344h-622l-35-160h608l-76-344h-608l-39-174h623zM1073 485l82 367q-38 81-113.5 125.5t-171.5 44.5q-117 0-206.5-56.5t-134-144.5-44.5-190q0-129 83-210t208-81q90 0 166.5 38.5t130.5 106.5z" horiz-adv-x="2174" unicode="&#x152;"/><glyph d="M1796 381h-655v-2q0-30 57-76.5t143-46.5q58 0 118.5 13.5t92.5 35.5l111-239q-143-91-350-91-127 0-229 45t-158 111q-92-76-175.5-116t-197.5-40q-237 0-380.5 122.5t-143.5 338.5q0 86 25.5 169.5t76.5 157 120.5 130 164 89 200.5 32.5q119 0 218.5-45.5t156.5-112.5q89 76 172 117t197 41q71 0 137-17t125-53 102.5-88.5 69-127.5 25.5-165q0-83-23-182zM1176 614h317v2q0 40-35.5 78.5t-111.5 38.5q-63 0-111.5-39t-58.5-80zM602 688q-83 0-139.5-65t-56.5-168q0-74 43-114t118-40q87 0 142 68t55 166q0 75-44 114t-118 39z" horiz-adv-x="1845" unicode="&#x153;"/><glyph d="M692 1434q-69 0-115.5 46t-46.5 115q0 79 63.5 141t143.5 62q69 0 115.5-46.5t46.5-115.5q0-79-63.5-140.5t-143.5-61.5zM1135 1434q-69 0-115.5 46t-46.5 115q0 79 63.5 141t143.5 62q69 0 115-46.5t46-115.5q0-79-63-140.5t-143-61.5zM778 0h-413l118 543-329 823h444l152-461 352 461h485l-690-823z" horiz-adv-x="1359" unicode="&#x178;"/><glyph d="M825 668h-260l78 352q4 24 4 33 0 55-78 55-49 0-104-51l-86-389h-260l196 888h260l-69-315q90 86 201 86 103 0 162-46.5t59-129.5q0-20-8-59z" horiz-adv-x="868" unicode="&#x2b0;"/><glyph d="M827 1139h-211l-98 149-158-149h-219l246 295h320z" horiz-adv-x="686" unicode="&#x2c6;"/><glyph d="M471 1188q-2 1-9.5 5.5t-9.5 6-8.5 5.5-9.5 5-9 4-10 4-9 2.5-10.5 2-10.5.5q-42 0-57-76h-185q29 145 87 209.5t173 64.5q83 0 166-53 4-2 13-7.5t12.5-7.5 11.5-6 12.5-6 11.5-4 13.5-3 13.5-1q40 0 58 76h184q-32-146-89.5-210t-172.5-64q-37 0-71 9t-50.5 18-44.5 26z" horiz-adv-x="698" unicode="&#x2dc;"/><glyph horiz-adv-x="932" unicode="&#x2000;"/><glyph horiz-adv-x="1864" unicode="&#x2001;"/><glyph horiz-adv-x="932" unicode="&#x2002;"/><glyph horiz-adv-x="1864" unicode="&#x2003;"/><glyph horiz-adv-x="621" unicode="&#x2004;"/><glyph horiz-adv-x="466" unicode="&#x2005;"/><glyph horiz-adv-x="310" unicode="&#x2006;"/><glyph horiz-adv-x="310" unicode="&#x2007;"/><glyph horiz-adv-x="233" unicode="&#x2008;"/><glyph horiz-adv-x="372" unicode="&#x2009;"/><glyph horiz-adv-x="103" unicode="&#x200a;"/><glyph d="M518 342h-491l67 307h492z" horiz-adv-x="614" unicode="&#x2010;"/><glyph d="M518 342h-491l67 307h492z" horiz-adv-x="614" unicode="&#x2011;"/><glyph d="M518 342h-491l67 307h492z" horiz-adv-x="614" unicode="&#x2012;"/><glyph d="M1118 342h-1091l67 307h1092z" horiz-adv-x="1214" unicode="&#x2013;"/><glyph d="M1610 342h-1583l67 307h1583z" horiz-adv-x="1705" unicode="&#x2014;"/><glyph d="M514 1389l123-127q-66-27-133-73t-96-99q8 2 26 2 71 0 118.5-44.5t47.5-129.5q0-93-74.5-162.5t-167.5-69.5q-85 0-146.5 57.5t-61.5 157.5q0 138 102.5 275.5t261.5 212.5z" horiz-adv-x="575" unicode="&#x2018;"/><glyph d="M301 684l-123 127q66 27 133.5 73t96.5 99q-8-2-27-2-71 0-118.5 44.5t-47.5 129.5q0 93 74.5 162t167.5 69q85 0 147-57.5t62-157.5q0-138-102.5-275t-262.5-212z" horiz-adv-x="575" unicode="&#x2019;"/><glyph d="M86-289l-123 127q66 27 133.5 73t96.5 99q-6-2-27-2-71 0-118.5 44.5t-47.5 129.5q0 93 74.5 162.5t167.5 69.5q85 0 147-57.5t62-157.5q0-138-102.5-275.5t-262.5-212.5z" horiz-adv-x="575" unicode="&#x201a;"/><glyph d="M506 1389l123-127q-66-27-133.5-73t-96.5-99q8 2 27 2 71 0 118.5-44.5t47.5-129.5q0-93-74.5-162.5t-167.5-69.5q-85 0-147 57.5t-62 157.5q0 138 102.5 275.5t262.5 212.5zM1012 1389l123-127q-66-27-133.5-73t-96.5-99q8 2 27 2 71 0 118.5-44.5t47.5-129.5q0-93-74.5-162.5t-167.5-69.5q-85 0-147 57.5t-62 157.5q0 138 102.5 275.5t262.5 212.5z" horiz-adv-x="1081" unicode="&#x201c;"/><glyph d="M301 684l-123 127q66 27 133.5 73t96.5 99q-8-2-27-2-71 0-118.5 44.5t-47.5 129.5q0 93 74.5 162t167.5 69q85 0 147-57.5t62-157.5q0-138-102.5-275t-262.5-212zM807 684l-123 127q66 27 133 73t96 99q-8-2-26-2-71 0-118.5 44.5t-47.5 129.5q0 93 74.5 162t167.5 69q85 0 146.5-57.5t61.5-157.5q0-138-102-275t-262-212z" horiz-adv-x="1081" unicode="&#x201d;"/><glyph d="M86-289l-123 127q66 27 133.5 73t96.5 99q-6-2-27-2-71 0-118.5 44.5t-47.5 129.5q0 93 74.5 162.5t167.5 69.5q85 0 147-57.5t62-157.5q0-138-102.5-275.5t-262.5-212.5zM592-289l-123 127q66 27 133 73t96 99q-6-2-26-2-71 0-118.5 44.5t-47.5 129.5q0 93 74.5 162.5t167.5 69.5q85 0 146.5-57.5t61.5-157.5q0-138-102.5-275.5t-261.5-212.5z" horiz-adv-x="1081" unicode="&#x201e;"/><glyph d="M338 231q-103 0-171.5 68.5t-68.5 171.5q0 119 88 205t209 86q103 0 171.5-68.5t68.5-171.5q0-119-88-205t-209-86z" horiz-adv-x="733" unicode="&#x2022;"/><glyph d="M2 176q0 97 71.5 167.5t168.5 70.5q83 0 140.5-59.5t57.5-143.5q0-97-71-167.5t-168-70.5q-83 0-141 59.5t-58 143.5zM580 176q0 97 71 167.5t168 70.5q83 0 141-59.5t58-143.5q0-97-71.5-167.5t-168.5-70.5q-83 0-140.5 59.5t-57.5 143.5zM1157 176q0 97 71.5 167.5t168.5 70.5q83 0 140.5-59.5t57.5-143.5q0-97-71-167.5t-168-70.5q-83 0-141 59.5t-58 143.5z" horiz-adv-x="1732" unicode="&#x2026;"/><glyph horiz-adv-x="372" unicode="&#x202f;"/><glyph d="M207 666l-123 86q194 491 221 532 29 45 72.5 63.5t85.5 18.5q75 0 130.5-54t55.5-132q0-56-33-107-11-17-113.5-119t-198.5-195z" horiz-adv-x="536" unicode="&#x2032;"/><glyph d="M207 666l-123 86q194 491 221 532 29 45 72.5 63.5t85.5 18.5q75 0 130.5-54t55.5-132q0-56-33-107-11-17-113.5-119t-198.5-195zM696 666l-123 86q195 491 222 532 53 82 157 82 75 0 131-54t56-132q0-56-33-107-11-17-113.5-119t-199.5-195z" horiz-adv-x="995" unicode="&#x2033;"/><glyph d="M625 129h-320l-246 369 410 362h336l-418-373z" horiz-adv-x="778" unicode="&#x2039;"/><glyph d="M158 860h319l246-368-410-363h-336l418 373z" horiz-adv-x="778" unicode="&#x203a;"/><glyph d="M911 1366l-1175-1366h-199l1174 1366h200z" horiz-adv-x="368" unicode="&#x2044;"/><glyph horiz-adv-x="466" unicode="&#x205f;"/><glyph d="M543 848q-161 0-253.5 94.5t-92.5 239.5q0 52 11 108t32.5 114 57.5 109.5 82 92 110.5 64.5 138.5 24q161 0 253.5-94.5t92.5-239.5q0-52-11-108t-32.5-114-57.5-109.5-82-92-110.5-64.5-138.5-24zM618 1481q-37 0-67.5-34t-48.5-84.5-27.5-102-9.5-91.5q0-108 88-108 37 0 67.5 34t48.5 84.5 28 101.5 10 91q0 109-89 109z" unicode="&#x2070;"/><glyph d="M918 1008h-97l-30-146h-269l31 146h-403l40 178 402 495h379l-103-464h97zM600 1217l51 233-188-233h137z" unicode="&#x2074;"/><glyph d="M537 848q-228 0-373 125l155 160q92-72 218-72 62 0 91 23t29 55q0 73-114 73-87 0-140-53l-172 55 105 467h653l-47-213h-383l-24-116q67 53 151 53 106 0 176-62.5t70-160.5q0-68-25.5-127.5t-73.5-106-124.5-73.5-171.5-27z" unicode="&#x2075;"/><glyph d="M571 848q-174 0-275 88.5t-101 245.5q0 141 66.5 259.5t178 185.5 242.5 67q182 0 305-92l-145-179q-67 58-168 58-86 0-142.5-47t-56.5-95v-6q38 43 89.5 67.5t103.5 24.5q113 0 193.5-71.5t80.5-182.5q0-138-102.5-230.5t-268.5-92.5zM547 1219q-53 0-86-33-4-8-4-31 0-40 29-67t81-27q39 0 69 22.5t30 55.5q0 37-33.5 58.5t-85.5 21.5z" unicode="&#x2076;"/><glyph d="M954 1495l-405-633h-301l407 606h-401l47 213h694z" horiz-adv-x="776" unicode="&#x2077;"/><glyph d="M565 848q-86 0-156.5 12t-128.5 37.5-90 70.5-32 107q0 82 64 149.5t167 80.5q-127 50-127 168 0 74 50 125t124.5 73.5 165.5 22.5q70 0 137-13t127-39 96.5-71.5 36.5-104.5q0-74-57.5-133t-155.5-71q58-22 99-73t41-114q0-100-87.5-163.5t-273.5-63.5zM612 1491q-41 0-65.5-15.5t-24.5-43.5q0-30 28-46.5t56-21.5q113 12 113 68 0 25-30.5 42t-76.5 17zM567 1190q-49-2-91-21t-42-53q0-30 32-47.5t87-17.5q54 0 82.5 18t28.5 45q0 30-34.5 52t-62.5 24z" unicode="&#x2078;"/><glyph d="M606 1696q175 0 276-88.5t101-245.5q0-141-66.5-259.5t-178-185.5-242.5-67q-183 0-306 92l146 178q66-57 168-57 86 0 142 46.5t56 94.5v6q-39-43-89.5-67.5t-102.5-24.5q-113 0-193.5 71.5t-80.5 182.5q0 138 102.5 231t267.5 93zM631 1325q53 0 86 33 4 8 4 31 0 40-29.5 67t-81.5 27q-39 0-68.5-22.5t-29.5-55.5q0-37 33.5-58.5t85.5-21.5z" unicode="&#x2079;"/><glyph d="M500 793l-178-64q-62 72-94.5 186.5t-32.5 227.5q0 190 106.5 379.5t259.5 292.5l150-64q-128-161-192-351.5t-64-367.5q0-137 45-239z" horiz-adv-x="456" unicode="&#x207d;"/><glyph d="M295 1751l178 64q62-72 94.5-186.5t32.5-227.5q0-189-107-379t-260-293l-149 64q128 161 192 351t64 367q0 138-45 240z" horiz-adv-x="456" unicode="&#x207e;"/><glyph d="M825 668h-260l78 352q4 24 4 33 0 55-78 55-49 0-104-51l-86-389h-260l141 643h260l-14-70q90 86 201 86 103 0 162-46.5t59-129.5q0-20-8-59z" horiz-adv-x="870" unicode="&#x207f;"/><glyph d="M287-313q-161 0-253.5 94.5t-92.5 238.5q0 52 11 108t32.5 114 57.5 109.5 82 92 110.5 64.5 138.5 24q161 0 253.5-94.5t92.5-238.5q0-52-11-108t-32.5-114-57.5-109.5-82-92-110.5-64.5-138.5-24zM362 319q-48 0-85-58.5t-52.5-127.5-15.5-125q0-108 88-108 37 0 67.5 34t48.5 84.5 28 101.5 10 91q0 108-89 108z" unicode="&#x2080;"/><glyph d="M389-299h-270l102 469-170-135-119 162 406 323h231z" horiz-adv-x="688" unicode="&#x2081;"/><glyph d="M602-299h-692l45 203q227 128 330 193.5t130 94 27 60.5q0 31-27 49t-77 18q-63 0-126.5-24.5t-100.5-58.5l-107 180q65 55 161.5 85.5t184.5 30.5q168 0 269.5-70.5t101.5-182.5q0-92-83-174.5t-288-190.5h299z" unicode="&#x2082;"/><glyph d="M317-313q-134 0-244 41.5t-161 109.5l162 168q41-53 104-79.5t125-26.5q92 0 92 57 0 53-162 53-63 0-75-2l45 209q18-2 141-2 58 0 82.5 12.5t24.5 38.5q0 27-39 40t-97 13q-125 0-204-63l-84 168q60 51 145 79.5t172 28.5q180 0 281.5-61t101.5-166q0-74-57-134t-168-67q160-43 160-178 0-94-94-166.5t-251-72.5z" unicode="&#x2083;"/><glyph d="M662-154h-97l-30-145h-269l31 145h-403l40 179 402 495h379l-103-465h97zM344 55l51 234-188-234h137z" unicode="&#x2084;"/><glyph d="M281-313q-228 0-373 125l155 159q90-71 218-71 62 0 91 22.5t29 54.5q0 74-114 74-87 0-140-53l-172 55 105 467h653l-47-213h-383l-24-117q69 54 151 54 106 0 176-63t70-161q0-142-103.5-237.5t-291.5-95.5z" unicode="&#x2085;"/><glyph d="M315-313q-175 0-275.5 88t-100.5 245q0 141 66.5 259.5t178 185.5 242.5 67q182 0 305-92l-145-178q-66 57-168 57-86 0-142.5-46.5t-56.5-94.5v-6q38 43 89.5 67.5t103.5 24.5q113 0 193.5-71.5t80.5-182.5q0-138-102.5-230.5t-268.5-92.5zM291 57q-54 0-86-32-4-8-4-31 0-40 29-67t81-27q39 0 69 22t30 55q0 37-33.5 58.5t-85.5 21.5z" unicode="&#x2086;"/><glyph d="M698 334l-405-633h-301l407 606h-401l47 213h694z" horiz-adv-x="776" unicode="&#x2087;"/><glyph d="M309-313q-86 0-156.5 12t-128.5 37.5-90 70.5-32 107q0 82 64 149t167 80q-127 50-127 168 0 74 50 125t124.5 73.5 165.5 22.5q70 0 137-13t127-38.5 96.5-71 36.5-104.5q0-75-57.5-134.5t-155.5-70.5q58-22 99-72.5t41-113.5q0-100-87.5-163.5t-273.5-63.5zM356 330q-41 0-65.5-15.5t-24.5-44.5 27.5-45.5 56.5-21.5q113 12 113 67 0 25-31 42.5t-76 17.5zM311 29q-49-2-91-21t-42-53q0-31 32.5-48.5t86.5-17.5 82.5 18.5 28.5 45.5q0 30-34.5 52t-62.5 24z" unicode="&#x2088;"/><glyph d="M350 535q175 0 276-88.5t101-245.5q0-141-66.5-259.5t-178-185.5-242.5-67q-183 0-306 92l146 178q66-57 168-57 86 0 142 46.5t56 94.5v6q-39-43-89.5-67.5t-102.5-24.5q-113 0-193.5 71.5t-80.5 182.5q0 138 102.5 231t267.5 93zM375 164q53 0 86 33 4 8 4 30 0 40-29.5 67.5t-81.5 27.5q-39 0-68.5-22.5t-29.5-55.5q0-37 33.5-58.5t85.5-21.5z" unicode="&#x2089;"/><glyph d="M244-369l-178-63q-62 72-94.5 186.5t-32.5 227.5q0 190 106.5 379t259.5 292l150-63q-128-161-192-351.5t-64-367.5q0-138 45-240z" horiz-adv-x="456" unicode="&#x208d;"/><glyph d="M39 590l178 63q62-72 94.5-186t32.5-227q0-189-107-379t-260-293l-149 63q128 161 192 351.5t64 367.5q0 138-45 240z" horiz-adv-x="456" unicode="&#x208e;"/><glyph d="M834-25q-253 0-443 124.5t-248 336.5h-133l47 215h66q0 33 6 68h-57l49 215h67q95 212 297.5 333.5t456.5 121.5q116 0 215-26.5t170-69.5 127-103 89.5-122.5 53.5-131.5l-397-125q-19 96-94 154.5t-182 58.5q-137 0-240-90h375l-49-215h-451q-6-23-10-68h446l-47-215h-325q86-96 233-96 80 0 161 46t116 112l323-209q-61-88-141.5-152t-165-98-162-49-153.5-15z" horiz-adv-x="1478" unicode="&#x20ac;"/><glyph d="M526 1313h-127l-88-398h-57l88 398h-127l10 53h312zM950 915h-57l82 373-236-373h-16l-72 373-82-373h-57l98 451h88l60-328 203 328h88z" horiz-adv-x="929" unicode="&#x2122;"/><glyph d="M0 993h993v-993h-993v993z" horiz-adv-x="993" unicode="&#x25fc;"/><glyph d="M1223 0h-455l-92 438h-166l-96-438h-414l301 1366h664q124 0 228-50t167-146 63-218q0-174-97.5-307.5t-238.5-183.5zM586 782h241q77 0 122.5 33.5t45.5 95.5q0 51-32.5 81t-88.5 30h-235zM1772 104l-107-481h-369l303 1366h369l-24-104q63 69 126.5 99t141.5 30q169 0 268.5-108t99.5-304q0-84-20-170.5t-63-168.5-103-146-147-103-189-39q-88 0-164 32.5t-122 96.5zM2200 524q0 72-48 118t-116 46q-83 0-150-67l-57-252q62-68 164-68 88 0 147.5 64t59.5 159z" horiz-adv-x="2607" unicode="&#xf6dd;"/><glyph d="M279-12q54 0 96 57l143-137q-72-89-209-107l-24-110h-168l28 125q-95 27-154 95.5t-59 164.5q0 136 98 236t249 110l18 86h168l-25-109q99-35 135-106l-182-123q-21 59-88 59-53 0-89-39.5t-36-101.5q0-100 99-100z" horiz-adv-x="649" unicode="&#xf6df;"/><glyph d="M535 1149q54 0 96 57l143-137q-71-88-209-106l-24-111h-168l28 125q-95 27-154 95.5t-59 164.5q0 136 97.5 236t246.5 110l21 86h168l-25-108q49-18 84-47t51-60l-182-123q-22 60-88 60-53 0-89-40t-36-102q0-100 99-100z" horiz-adv-x="649" unicode="&#xf6e0;"/><glyph d="M-55-475l-74 86q29 7 74 37t59 59q-8-2-12-2-39 0-71 33t-32 86q0 63 46.5 107t109.5 44q50 0 86.5-34.5t36.5-94.5q0-34-12.5-74t-37-84.5-70-88-103.5-74.5z" horiz-adv-x="358" unicode="&#xf6e1;"/><glyph d="M201 686l-74 86q29 7 74 37t59 59q-8-2-12-2-39 0-71 33t-32 86q0 63 46.5 107.5t109.5 44.5q50 0 86.5-34.5t36.5-94.5q0-34-12.5-74t-37-84.5-70-88.5-103.5-75z" horiz-adv-x="358" unicode="&#xf6e2;"/><glyph d="M262 301q0-22 30.5-39.5t76.5-30 99-33 99-44.5 76.5-68.5 30.5-101.5q0-129-91-211t-264-86l-24-109h-168l27 123q-91 17-160.5 53.5t-102.5 85.5l172 164q41-53 108.5-86t133.5-33q80 0 80 39 0 20-30.5 36.5t-76.5 28.5-99 32.5-99 46-76.5 72.5-30.5 108q0 52 24 102t68.5 91 115 66 155.5 25h2l24 113h168l-28-133q137-39 215-117l-176-149q-36 37-92 64.5t-113 27.5q-74 0-74-37z" horiz-adv-x="811" unicode="&#xf6e3;"/><glyph d="M518 1462q0-22 30.5-39.5t76.5-30 99-33 99-44.5 76.5-68.5 30.5-101.5q0-129-90-211t-265-86l-24-109h-168l29 123q-92 17-162 53.5t-103 85.5l172 164q41-52 108.5-85t133.5-33q80 0 80 38 0 20-30.5 36.5t-76.5 28.5-99 32.5-99 46-76.5 72.5-30.5 108q0 52 24 102.5t68.5 91.5 115 66 155.5 25h2l24 112h168l-28-133q137-39 215-117l-176-149q-36 37-92 64.5t-113 27.5q-74 0-74-37z" horiz-adv-x="811" unicode="&#xf6e4;"/><glyph d="M227 8h-301l45 199h301z" horiz-adv-x="374" unicode="&#xf6e5;"/><glyph d="M483 1169h-301l45 199h301z" horiz-adv-x="374" unicode="&#xf6e6;"/><glyph d="M14-307q-56 0-91.5 35.5t-35.5 91.5q0 63 47.5 109t110.5 46q55 0 91-35.5t36-91.5q0-63-47.5-109t-110.5-46z" horiz-adv-x="356" unicode="&#xf6e7;"/><glyph d="M270 854q-56 0-91.5 36t-35.5 91q0 63 47.5 109.5t110.5 46.5q55 0 91-35.5t36-91.5q0-63-47.5-109.5t-110.5-46.5z" horiz-adv-x="356" unicode="&#xf6e8;"/><glyph d="M745 1556h261l-197-888h-262l12 63q-72-80-168-80-107 0-179.5 71t-72.5 198q0 175 100.5 291t241.5 116q133 0 195-80zM408 954q0-50 28-74t74-24q50 0 88 35l45 207q-36 26-88 26-63 0-105-50.5t-42-119.5z" horiz-adv-x="854" unicode="&#xf6eb;"/><glyph d="M379 668h-260l141 643h260l-14-66q100 86 221 86l-51-227q-24 6-55 6-42 0-86-12t-68-33z" horiz-adv-x="563" unicode="&#xf6f1;"/><glyph d="M86 782l131 148q37-40 100.5-72.5t124.5-32.5q45 0 45 23 0 17-23.5 28.5t-72.5 26.5q-32 11-49 17t-47 19.5-47 27-36 32.5-27.5 44-8.5 55q0 99 76.5 164t218.5 65q92 0 178.5-29t130.5-75l-123-140q-37 30-87.5 50t-98.5 20q-45 0-45-27 0-17 22.5-26.5t71.5-20.5q35-9 50.5-14t48.5-16.5 50-24 37.5-31.5 29.5-44.5 9-57.5q0-104-83-172t-228-68q-120 0-201 34t-147 97z" horiz-adv-x="700" unicode="&#xf6f2;"/><glyph d="M199 817q0 26 6 53l57 260h-110l38 181h111l39 176h260l-39-176h135l-39-181h-135l-47-208q-4-16-4-25 0-41 53-41 29 0 39 10l8-178q-50-37-139-37-63 0-113 14.5t-85 53.5-35 98z" horiz-adv-x="540" unicode="&#xf6f3;"/><glyph d="M772 1386q116 0 212.5-36t169-105 113-178 40.5-248q0-234-92.5-427t-256.5-305-364-112q-116 0-213 36.5t-169.5 106-113.5 179-41 248.5q0 234 93 426.5t257 303.5 365 111zM731 1022q-55 0-101.5-37t-77.5-97.5-50.5-132-26.5-147.5l352 387q-42 27-96 27zM633 340q72 0 128.5 64.5t86 155.5 39.5 196l-352-387q40-29 98-29z" horiz-adv-x="1286"/><glyph d="M1075 0h-1028l80 360h307l105 480-281-230-180 244 635 512h356l-221-1006h307z" horiz-adv-x="1241"/><glyph d="M78 545q0 234 93 426.5t257 303.5 365 111q116 0 212.5-36t168.5-105 112.5-178 40.5-248q0-234-92.5-427t-256.5-305-364-112q-116 0-213 36.5t-169.5 106-113 179-40.5 248.5zM911 838q0 184-159 184-62 0-113-47.5t-82-122-48-159.5-17-167q0-88 40-137t121-49q61 0 112 47.5t82 122.5 47.5 160.5 16.5 167.5z" horiz-adv-x="1327"/><glyph d="M928 0h-414l184 840-280-230-180 244 634 512h357z" horiz-adv-x="1327"/><glyph d="M1141 0h-1116l79 375q469 244 596 321 164 101 199 170 14 26 14 54 0 49-55 77.5t-141 28.5q-173 0-332-113l-164 299q101 82 243 128t286 46q162 0 295-50.5t215.5-151 82.5-234.5q0-176-142-318.5t-466-271.5h486z" horiz-adv-x="1327"/><glyph d="M-6 260l252 244q71-86 192.5-133t223.5-47q80 0 119.5 31.5t39.5 72.5q0 14-2.5 23.5t-13.5 22.5-31 21-57.5 13.5-89.5 5.5q-159 0-199-4l78 350q25-2 196-2 108 0 157.5 18t49.5 64q0 44-59.5 72t-165.5 28q-169 0-322-98l-139 281q94 72 231.5 117.5t272.5 45.5q284 0 447-97.5t163-270.5q0-115-113-209t-255-117q260-65 260-305 0-121-79-216.5t-207-145.5-277-50q-213 0-396 73t-276 212z" horiz-adv-x="1327"/><glyph d="M1001 0h-413l47 219h-658l80 352 650 795h596l-175-786h158l-80-361h-157zM715 580l96 430-354-430h258z" horiz-adv-x="1327"/><glyph d="M18 229l269 248q60-68 157.5-110.5t208.5-42.5q88 0 132 39t44 90q0 52-54.5 86t-147.5 34q-123 0-219-75l-265 96 168 772h1045l-76-344h-651l-45-209q104 76 268 76 183 0 297.5-100.5t114.5-280.5q0-109-44-206.5t-122.5-170-193-114.5-249.5-42q-210 0-373 67t-264 187z" horiz-adv-x="1327"/><glyph d="M76 530q0 249 96.5 443t278 303.5 419.5 109.5q292 0 502-165l-233-285q-53 49-132.5 75.5t-158.5 26.5q-100 0-184-50.5t-121-123.5q-19-35-27-73 53 53 138 82.5t180 29.5q124 0 226-45t164-134 62-206q0-148-83.5-273.5t-223-197.5-299.5-72q-281 0-442.5 147.5t-161.5 407.5zM854 455q0 61-64.5 99t-154.5 38q-89 0-152-37-4-16-4-51 0-79 61-129.5t144-50.5q70 0 120 35.5t50 95.5z" horiz-adv-x="1327"/><glyph d="M664 0h-474l650 1006h-621l80 360h1116l-63-287z" horiz-adv-x="1327"/><glyph d="M16 358q0 122 87 227t257 158q-79 41-127.5 111.5t-48.5 151.5q0 98 52 174t138.5 119.5 188 65 211.5 21.5 212.5-20.5 191-62.5 141.5-114.5 53-166.5q0-124-86.5-221t-234.5-133q100-59 149-137t49-160q0-95-52.5-172.5t-141-125-197.5-73-227-25.5q-94 0-180.5 13t-166.5 42.5-139 73-94 109-35 145.5zM930 950q0 44-50.5 72.5t-127.5 28.5q-63 0-107.5-26.5t-44.5-66.5q0-38 38.5-69t100.5-43q90 3 140.5 33.5t50.5 70.5zM829 412q0 43-38.5 77t-120.5 50q-95-3-156-37.5t-61-89.5q0-47 49.5-74t142.5-27q83 0 133.5 28.5t50.5 72.5z" horiz-adv-x="1327"/><glyph d="M1337 834q0-249-96.5-443t-278-304-419.5-110q-291 0-502 166l233 285q53-49 132.5-75.5t158.5-26.5q100 0 184 50.5t121 123.5q19 35 27 73-53-53-137.5-82.5t-179.5-29.5q-124 0-226 45t-164.5 134-62.5 206q0 148 83.5 273.5t223 197.5 299.5 72q281 0 442.5-147.5t161.5-407.5zM559 909q0-61 64.5-99t154.5-38q89 0 152 37 4 16 4 51 0 79-61 129.5t-144 50.5q-70 0-120-35.5t-50-95.5z" horiz-adv-x="1327"/><glyph d="M627-25q-276 0-433 133t-157 373q0 99 26.5 195t81 182 130.5 151 181.5 103.5 227.5 38.5q276 0 433-133t157-373q0-99-26.5-195t-81-182-130.5-151-181.5-103.5-227.5-38.5zM680 786q-102 0-161.5-81.5t-59.5-190.5q0-88 47-131t125-43q102 0 161.5 81.5t59.5 190.5q0 88-47 131t-125 43z" horiz-adv-x="1286"/><glyph d="M768 0h-414l131 600-280-229-180 243 634 512h357z" horiz-adv-x="989"/><glyph d="M1012 0h-1039l74 344q360 80 541.5 178t181.5 178q0 43-42.5 64.5t-117.5 21.5q-184 0-342-114l-166 293q108 89 254.5 137.5t302.5 48.5q160 0 284.5-40t196.5-118.5 72-185.5q0-69-29-133.5t-73.5-112.5-102.5-89.5-112-68-107-43.5h304z" horiz-adv-x="1202"/><glyph d="M-123 25l252 243q71-86 192.5-133t223.5-47q80 0 120 32t40 73q0 17-5.5 29.5t-23 27-59.5 22-107 7.5q-149 0-199-5l78 351q25-2 197-2 108 0 157.5 18t49.5 64q0 44-60 72t-166 28q-168 0-321-98l-140 280q95 72 232 118t272 46q284 0 447.5-98t163.5-271q0-77-55-148t-139-116.5-175-60.5q260-65 260-305 0-121-79-216.5t-207-145.5-277-50q-213 0-396 73t-276 212z" horiz-adv-x="1263"/><glyph d="M1155 0h-158l-53-240h-414l54 240h-658l70 317 676 809h573l-168-766h158zM664 360l90 410-348-410h258z" horiz-adv-x="1302"/><glyph d="M-49-10l268 248q60-68 158-111t209-43q88 0 132 39t44 90q0 52-55 86.5t-148 34.5q-121 0-219-76l-264 96 168 772h1044l-76-344h-651l-45-209q104 76 268 76 183 0 297.5-100.5t114.5-280.5q0-109-44-206.5t-122-169.5-192.5-114-249.5-42q-210 0-373 67t-264 187z" horiz-adv-x="1282"/><glyph d="M49 530q0 186 56.5 344.5t158.5 271.5 251.5 176.5 328.5 63.5q292 0 502-165l-234-285q-53 49-132.5 75.5t-158.5 26.5q-100 0-184-50.5t-121-123.5q-19-35-27-73 53 53 138 82.5t180 29.5q124 0 226-45t164.5-134 62.5-206q0-148-84-273.5t-223.5-197.5-299.5-72q-281 0-442.5 147.5t-161.5 407.5zM827 455q0 61-64.5 99t-154.5 38q-88 0-151-37-4-16-4-51 0-79 60.5-129.5t143.5-50.5q70 0 120 35.5t50 95.5z" horiz-adv-x="1280"/><glyph d="M539-240h-473l649 1006h-621l80 360h1116l-63-286z" horiz-adv-x="1177"/><glyph d="M-2 358q0 122 87 227t257 158q-79 41-127.5 111.5t-48.5 151.5q0 98 52 174t138.5 119.5 188 65 211.5 21.5 212.5-20.5 191-62.5 141.5-114.5 53-166.5q0-124-87-221t-235-133q100-59 149.5-137t49.5-160q0-95-53-172.5t-141-125-197.5-73-227.5-25.5q-94 0-180.5 13t-166.5 42.5-138.5 73-93.5 109-35 145.5zM911 950q0 44-50.5 72.5t-127.5 28.5q-63 0-107-26.5t-44-66.5q0-38 38.5-69t100.5-43q90 3 140 33.5t50 70.5zM811 412q0 43-39 77t-121 50q-95-3-156-37.5t-61-89.5q0-47 50-74t143-27q83 0 133.5 28.5t50.5 72.5z" horiz-adv-x="1290"/><glyph d="M1255 596q0-249-96.5-443t-278-303.5-419.5-109.5q-291 0-502 166l234 284q53-49 132-75.5t158-26.5q100 0 184 50.5t121 123.5q19 34 27 74-54-54-138-83.5t-179-29.5q-124 0-226 45t-164.5 134-62.5 206q0 148 83.5 273.5t223 197.5 299.5 72q281 0 442.5-147.5t161.5-407.5zM477 672q0-61 64.5-99t154.5-38q91 0 152 36 4 16 4 52 0 79-61 129.5t-144 50.5q-70 0-120-35.5t-50-95.5z" horiz-adv-x="1280"/><glyph d="M57 602q0 167 62.5 312t174 250 273.5 165 353 60q114 0 213.5-30.5t171-82.5 122-114 80.5-132l-381-156q-22 64-97.5 107t-168.5 43q-156 0-265.5-115t-109.5-278q0-116 83.5-203.5t224.5-87.5q87 0 147.5 32.5t87.5 90.5h-291l78 340h725q-59-425-257.5-626.5t-543.5-201.5q-104 0-203 26.5t-185.5 80-152 127-103.5 175.5-38 218z" horiz-adv-x="1517"/><glyph d="M956 0h-368l20 94q-104-119-282-119-85 0-156.5 31t-117.5 98-46 158q0 161 105 257.5t258 96.5q197 0 327-116l15 59q6 24 6 47 0 54-57 86.5t-144 32.5q-137 0-256-70l-78 252q177 107 416 107 100 0 185-18.5t156.5-58 112-108.5 40.5-161q0-42-15-119zM645 264l12 53q-21 26-63 43t-94 17q-58 0-89.5-23t-31.5-63q0-36 31.5-56t91.5-20q98 0 143 49z" horiz-adv-x="1144"/><glyph d="M51 227q0 40 8 76l234 1063h369l-211-956q-5-20-5-37 0-30 26.5-51t68.5-21q13 0 30.5 3.5t20.5 6.5v-295q-22-16-70-28.5t-106-12.5q-175 0-270 67t-95 185z" horiz-adv-x="671"/><glyph d="M-57-225l207 243q42-56 131.5-87t169.5-31q103 0 153.5 51t77.5 158l16 67q-36-32-59-49t-63-40.5-86-34.5-101-11q-147 0-236.5 69.5t-89.5 192.5q0 24 11 78l137 608h369l-109-483q-6-30-6-45 0-94 133-94 76 0 160 75l121 547h368l-188-844q-21-93-52.5-171t-81.5-149-114.5-120-155-77.5-198.5-28.5q-332 0-514 176z" horiz-adv-x="1241"/><glyph d="M541 1126h467l188-1126h-401l-23 145h-430l-76-145h-411zM739 455l-32 354-195-354h227z" horiz-adv-x="1271"/><glyph d="M784 0h-792l248 1126h667q169 0 266-74t97-188q0-106-71.5-194.5t-182.5-100.5q79-27 121.5-86t42.5-129q0-153-107-253.5t-289-100.5zM535 713h247q38 0 58 20.5t20 44.5q0 22-15 40t-46 18h-240zM440 291h271q39 0 62.5 21.5t23.5 49.5q0 26-18.5 45t-51.5 19h-258z" horiz-adv-x="1265"/><glyph d="M35 492q0 132 52 253t141.5 210.5 217.5 142.5 273 53q206 0 343-104.5t177-270.5l-348-114q-14 68-65.5 111.5t-123.5 43.5q-112 0-194-88t-82-207q0-98 60-155.5t157-57.5q70 0 127 39.5t94 106.5l291-166q-71-131-211.5-222.5t-320.5-91.5q-134 0-245.5 40t-186 110-115.5 164.5-41 202.5z" horiz-adv-x="1204"/><glyph d="M563 0h-571l248 1126h458q95 0 182.5-18t164-56.5 132.5-94 88.5-134.5 32.5-174q0-61-10-121t-34.5-125.5-61.5-122.5-95.5-109-133-89.5-177-59.5-223.5-22zM635 330q74 0 129.5 27t85.5 70.5 44.5 91 14.5 97.5q0 89-65 135t-187 46h-108l-100-467h186z" horiz-adv-x="1304"/><glyph d="M909 0h-917l248 1126h917l-70-307h-532l-20-96h522l-70-307h-522l-23-109h535z" horiz-adv-x="1085"/><glyph d="M375 0h-383l248 1126h917l-67-307h-535l-23-102h523l-68-307h-522z" horiz-adv-x="1077"/><glyph d="M35 487q0 131 51 251.5t139.5 212 218.5 146 279 54.5q179 0 308-75.5t192-207.5l-344-143q-34 48-75.5 69t-111.5 21q-117 0-190.5-85.5t-73.5-205.5q0-97 65.5-156t163.5-59q82 0 123 23l15 65h-199l61 275h570l-117-531q-222-166-473-166-168 0-304 60.5t-217 178.5-81 273z" horiz-adv-x="1241"/><glyph d="M1151 0h-381l90 410h-395l-90-410h-383l248 1126h383l-84-387h395l84 387h381z" horiz-adv-x="1363"/><glyph d="M375 0h-383l248 1126h383z" horiz-adv-x="587"/><glyph d="M-86 109l205 272q24-31 64-51.5t81-20.5q121 0 146 127l151 690h383l-160-727q-51-230-166.5-327t-316.5-97q-120 0-221 34t-166 100z" horiz-adv-x="909"/><glyph d="M1139 0h-453l-174 383-68-68-69-315h-383l248 1126h383l-84-383 366 383h463l-561-524z" horiz-adv-x="1224"/><glyph d="M819 0h-827l248 1126h383l-177-796h445z" horiz-adv-x="980"/><glyph d="M1413 0h-381l144 655-383-655h-179l-96 655-143-655h-383l248 1126h501l80-583 334 583h506z" horiz-adv-x="1626"/><glyph d="M1149 0h-393l-244 637-139-637h-381l248 1126h415l228-604 133 604h381z" horiz-adv-x="1361"/><glyph d="M35 498q0 175 88.5 325t245.5 239 346 89q263 0 431.5-145.5t168.5-376.5q0-175-88.5-325t-245.5-239.5-346-89.5q-263 0-431.5 146t-168.5 377zM924 600q0 92-60 154.5t-159 62.5q-120 0-199.5-88.5t-79.5-202.5q0-92 60-154.5t159-62.5q120 0 199.5 88.5t79.5 202.5z" horiz-adv-x="1325"/><glyph d="M375 0h-383l248 1126h573q196 0 311-97.5t115-254.5q0-111-53-207.5t-158-158.5-240-62h-337zM520 653h211q57 0 86 27t29 65q0 31-21.5 52.5t-62.5 21.5h-207z" horiz-adv-x="1198"/><glyph d="M1315 629q0-144-62-273t-172-221l35-57-262-158-45 76q-96-21-174-21-263 0-431.5 146t-168.5 377q0 175 88.5 325t245.5 239 346 89q263 0 431.5-145.5t168.5-376.5zM561 414l258 157 68-112q37 64 37 141 0 92-60 154.5t-159 62.5q-120 0-199.5-88.5t-79.5-202.5q0-87 53.5-148.5t143.5-68.5z" horiz-adv-x="1325"/><glyph d="M1071 0h-424l-82 344h-114l-76-344h-383l248 1126h571q205 0 318.5-95t113.5-247q0-153-88-266.5t-215-152.5zM520 653h211q57 0 86 27t29 65q0 31-21.5 52.5t-62.5 21.5h-207z" horiz-adv-x="1232"/><glyph d="M-59 170l196 268q61-69 175.5-111t238.5-42q42 0 62 15t20 36q0 12-9 21.5t-35.5 20-42 15.5-59.5 19q-48 13-73.5 21t-73.5 26-76 34.5-64.5 44-56.5 58-34.5 73.5-14.5 93q0 67 34 135t95 125 158 93 211 36q160 0 303.5-54.5t232.5-142.5l-200-243q-69 61-164.5 97t-188.5 36q-40 0-58.5-16t-18.5-33q0-22 34-37t111-37q48-14 73-22t73.5-26.5 76.5-35 64.5-45 56.5-59.5 34.5-74.5 14.5-93.5q0-75-33.5-144t-95-124.5-159.5-88.5-218-33q-186 0-341 51t-248 144z" horiz-adv-x="1081"/><glyph d="M594 0h-381l174 797h-293l74 329h965l-74-329h-291z" horiz-adv-x="1026"/><glyph d="M623-25q-248 0-389.5 114.5t-141.5 285.5q0 81 17 153l131 598h385l-136-612q-8-44-8-74 0-59 48-95t135-36q89 0 143 50t74 137l139 630h385l-148-665q-26-118-73-205.5t-122-151.5-185-96.5-254-32.5z" horiz-adv-x="1370"/><glyph d="M760 0h-467l-191 1126h428l82-716 402 716h430z" horiz-adv-x="1271"/><glyph d="M1276 0h-397l-11 584-266-584h-397l-92 1126h426l-2-634 305 634h288l27-634 279 634h428z" horiz-adv-x="1701"/><glyph d="M1155 0h-440l-135 326-277-326h-448l524 578-248 548h438l113-299 244 299h448l-489-546z" horiz-adv-x="1230"/><glyph d="M676 0h-377l98 451-295 675h422l131-358 283 358h428l-592-675z" horiz-adv-x="1193"/><glyph d="M911 0h-956l59 272 521 521h-406l74 333h944l-60-270-520-522h418z" horiz-adv-x="1087"/><glyph d="M1036 1776l-383-295h-250l312 295h321zM2058 1776l-383-295h-250l312 295h321zM414 0h-414l301 1366h414zM561 111l213 313q29-35 79-59.5t101-24.5q69 0 114 40.5t60 113.5l193 872h414l-195-879q-59-266-189.5-389t-365.5-123q-120 0-235.5 34.5t-188.5 101.5z" horiz-adv-x="1654"/><glyph d="M1235 1434l-383-295h-250l311 295h322zM956 0h-368l20 94q-104-119-282-119-85 0-156.5 31t-117.5 98-46 158q0 161 105 257.5t258 96.5q197 0 327-116l15 59q6 24 6 47 0 54-57 86.5t-144 32.5q-137 0-256-70l-78 252q177 107 416 107 100 0 185-18.5t156.5-58 112-108.5 40.5-161q0-42-15-119zM645 264l12 53q-21 26-63 43t-94 17q-58 0-89.5-23t-31.5-63q0-36 31.5-56t91.5-20q98 0 143 49z" horiz-adv-x="1144"/><glyph d="M1079 1139h-211l-98 149-158-149h-219l246 295h319zM956 0h-368l20 94q-104-119-282-119-85 0-156.5 31t-117.5 98-46 158q0 161 105 257.5t258 96.5q197 0 327-116l15 59q6 24 6 47 0 54-57 86.5t-144 32.5q-137 0-256-70l-78 252q177 107 416 107 100 0 185-18.5t156.5-58 112-108.5 40.5-161q0-42-15-119zM645 264l12 53q-21 26-63 43t-94 17q-58 0-89.5-23t-31.5-63q0-36 31.5-56t91.5-20q98 0 143 49z" horiz-adv-x="1144"/><glyph d="M526 1092q-69 0-115 46t-46 115q0 79 63 141t143 62q69 0 115.5-46.5t46.5-115.5q0-79-63.5-140.5t-143.5-61.5zM969 1092q-69 0-115.5 46t-46.5 115q0 79 63.5 141t143.5 62q69 0 115.5-46.5t46.5-115.5q0-79-63.5-140.5t-143.5-61.5zM956 0h-368l20 94q-104-119-282-119-85 0-156.5 31t-117.5 98-46 158q0 161 105 257.5t258 96.5q197 0 327-116l15 59q6 24 6 47 0 54-57 86.5t-144 32.5q-137 0-256-70l-78 252q177 107 416 107 100 0 185-18.5t156.5-58 112-108.5 40.5-161q0-42-15-119zM645 264l12 53q-21 26-63 43t-94 17q-58 0-89.5-23t-31.5-63q0-36 31.5-56t91.5-20q98 0 143 49z" horiz-adv-x="1144"/><glyph d="M860 1139h-246l-252 295h318zM956 0h-368l20 94q-104-119-282-119-85 0-156.5 31t-117.5 98-46 158q0 161 105 257.5t258 96.5q197 0 327-116l15 59q6 24 6 47 0 54-57 86.5t-144 32.5q-137 0-256-70l-78 252q177 107 416 107 100 0 185-18.5t156.5-58 112-108.5 40.5-161q0-42-15-119zM645 264l12 53q-21 26-63 43t-94 17q-58 0-89.5-23t-31.5-63q0-36 31.5-56t91.5-20q98 0 143 49z" horiz-adv-x="1144"/><glyph d="M539 1272q0 101 74 175.5t175 74.5q94 0 151.5-57.5t57.5-151.5q0-101-74-175.5t-175-74.5q-94 0-151.5 57.5t-57.5 151.5zM838 1296q0 29-18.5 47.5t-47.5 18.5-51.5-22.5-22.5-51.5 18.5-47 47.5-18 51.5 22 22.5 51zM956 0h-368l20 94q-104-119-282-119-85 0-156.5 31t-117.5 98-46 158q0 161 105 257.5t258 96.5q197 0 327-116l15 59q6 24 6 47 0 54-57 86.5t-144 32.5q-137 0-256-70l-78 252q177 107 416 107 100 0 185-18.5t156.5-58 112-108.5 40.5-161q0-42-15-119zM645 264l12 53q-21 26-63 43t-94 17q-58 0-89.5-23t-31.5-63q0-36 31.5-56t91.5-20q98 0 143 49z" horiz-adv-x="1144"/><glyph d="M713 1188q-2 1-9.5 5.5t-9.5 6-8.5 5.5-9.5 5-9 4-10 4-9 2.5-10.5 2-10.5.5q-43 0-58-76h-184q29 145 87 209.5t173 64.5q83 0 166-53 4-2 13-7.5t12.5-7.5 11.5-6 12.5-6 11.5-4 13.5-3 13.5-1q39 0 57 76h185q-32-146-89.5-210t-172.5-64q-37 0-71 9t-50.5 18-44.5 26zM956 0h-368l20 94q-104-119-282-119-85 0-156.5 31t-117.5 98-46 158q0 161 105 257.5t258 96.5q197 0 327-116l15 59q6 24 6 47 0 54-57 86.5t-144 32.5q-137 0-256-70l-78 252q177 107 416 107 100 0 185-18.5t156.5-58 112-108.5 40.5-161q0-42-15-119zM645 264l12 53q-21 26-63 43t-94 17q-58 0-89.5-23t-31.5-63q0-36 31.5-56t91.5-20q98 0 143 49z" horiz-adv-x="1144"/><glyph d="M1718 381h-655v-4q0-12 22-39t72-54.5 109-27.5q137 0 209 49l110-239q-131-91-311-91-277 0-430 156-93-82-198-119t-243-37q-171 0-284 73.5t-113 213.5q0 109 52.5 191.5t134 122.5 176.5 40q100 0 192-31.5t146-84.5l16 71q4 16 4 35 0 54-55.5 86.5t-143.5 32.5q-146 0-268-70l-78 252q175 107 422 107 254 0 336-160 160 160 379 160 83 0 157-27t134-80.5 95.5-142 35.5-201.5q0-71-23-182zM1100 612h315v4q0 35-41 76t-100 41q-73 0-115-36t-59-85zM666 309l2 8q-21 27-69 43.5t-93 16.5q-51 0-89-19.5t-38-56.5q0-30 36-47.5t93-17.5q48 0 99.5 21t58.5 52z" horiz-adv-x="1771"/><glyph d="M784 670h-200l-148-670h-368l147 670h-164l72 319h162l12 51q37 152 147.5 249t272.5 97q156 0 252-57l-121-239q-27 24-80 24-44 0-69.5-21.5t-32.5-52.5l-13-51h203zM811 227q0 40 8 76l234 1063h368l-211-956q-4-16-4-37 0-30 26-51t68-21q13 0 31 3.5t21 6.5v-295q-22-16-70-28.5t-106-12.5q-175 0-270 67t-95 185z" horiz-adv-x="1431"/><glyph d="M784 670h-200l-148-670h-368l147 670h-164l72 319h162l12 51q37 152 147.5 249t272.5 97q156 0 252-57l-121-239q-27 24-80 24-44 0-69.5-21.5t-32.5-52.5l-13-51h203zM1413 989h203l-72-319h-201l-147-670h-369l148 670h-164l72 319h161l13 51q37 152 147.5 249t272.5 97q156 0 252-57l-121-239q-27 24-80 24-44 0-70-21.5t-33-52.5zM1571 227q0 40 8 76l233 1063h369l-211-956q-4-16-4-37 0-30 26-51t68-21q13 0 30.5 3.5t20.5 6.5v-295q-22-16-70-28.5t-106-12.5q-175 0-269.5 67t-94.5 185z" horiz-adv-x="2191"/><glyph d="M252 1268q0 73 37 129t89.5 82 106.5 26q81 0 134-51.5t53-124.5-37.5-129-90-82-106.5-26q-80 0-133 51.5t-53 124.5zM360 0h-368l219 989h369z" horiz-adv-x="573"/><glyph d="M930 1434l-383-295h-250l311 295h322zM1503 1434l-383-295h-250l312 295h321zM360 0h-368l219 989h369zM322-385l65 297q24-6 53-6 103 0 133 137l211 946h369l-211-946q-22-100-56-177t-86-139-129.5-95-176.5-33q-107 0-172 16z" horiz-adv-x="1146"/><glyph d="M905-25q-290 0-459 172l187 228q115-125 278-125 30 0 53 12t23 29q0 22-29.5 36.5t-91.5 30.5q-36 10-53 15t-52.5 18.5-54 24.5-45 31-40 42-23.5 53-10 68q0 52 13.5 97.5t31 75.5 48 59 51.5 44 54 36q31 19 45.5 30t27.5 27 13 33q0 34-34 57t-86 23q-147 0-185-168l-202-924h-369l203 924q17 77 47 143.5t79.5 126 114 101.5 155.5 66.5 200 24.5q126 0 232.5-39t172.5-114 66-170q0-38-8.5-72.5t-19.5-59.5-33.5-51.5-37.5-41.5-44.5-35.5-42-28.5-42.5-26q-31-18-45.5-27.5t-27.5-23.5-13-27q0-17 84-39 4-1 6-2 35-9 55.5-15t58-19.5 61-27 53-36 46-48.5 28.5-62.5 12-78.5q0-100-59.5-184.5t-163.5-133.5-228-49z" horiz-adv-x="1411"/><glyph d="M1266 1434l-383-295h-250l311 295h322zM-57-225l207 243q42-56 131.5-87t169.5-31q103 0 153.5 51t77.5 158l16 67q-36-32-59-49t-63-40.5-86-34.5-101-11q-147 0-236.5 69.5t-89.5 192.5q0 24 11 78l137 608h369l-109-483q-6-30-6-45 0-94 133-94 76 0 160 75l121 547h368l-188-844q-21-93-52.5-171t-81.5-149-114.5-120-155-77.5-198.5-28.5q-332 0-514 176z" horiz-adv-x="1241"/><glyph d="M557 1092q-69 0-115.5 46t-46.5 115q0 79 63.5 141t143.5 62q69 0 115.5-46.5t46.5-115.5q0-79-63.5-140.5t-143.5-61.5zM999 1092q-69 0-115 46t-46 115q0 79 63 141t143 62q69 0 115.5-46.5t46.5-115.5q0-79-63.5-140.5t-143.5-61.5zM-57-225l207 243q42-56 131.5-87t169.5-31q103 0 153.5 51t77.5 158l16 67q-36-32-59-49t-63-40.5-86-34.5-101-11q-147 0-236.5 69.5t-89.5 192.5q0 24 11 78l137 608h369l-109-483q-6-30-6-45 0-94 133-94 76 0 160 75l121 547h368l-188-844q-21-93-52.5-171t-81.5-149-114.5-120-155-77.5-198.5-28.5q-332 0-514 176z" horiz-adv-x="1241"/><glyph d="M1303 1536l-383-295h-250l311 295h322zM541 1126h467l188-1126h-401l-23 145h-430l-76-145h-411zM739 455l-32 354-195-354h227z" horiz-adv-x="1271"/><glyph d="M1147 1241h-211l-98 150-158-150h-219l246 295h319zM541 1126h467l188-1126h-401l-23 145h-430l-76-145h-411zM739 455l-32 354-195-354h227z" horiz-adv-x="1271"/><glyph d="M594 1194q-69 0-115.5 46.5t-46.5 115.5q0 79 63.5 141t143.5 62q69 0 115.5-46.5t46.5-115.5q0-79-63.5-141t-143.5-62zM1036 1194q-69 0-115.5 46.5t-46.5 115.5q0 79 63.5 141t143.5 62q69 0 115.5-46.5t46.5-115.5q0-79-63.5-141t-143.5-62zM541 1126h467l188-1126h-401l-23 145h-430l-76-145h-411zM739 455l-32 354-195-354h227z" horiz-adv-x="1271"/><glyph d="M928 1241h-246l-252 295h318zM541 1126h467l188-1126h-401l-23 145h-430l-76-145h-411zM739 455l-32 354-195-354h227z" horiz-adv-x="1271"/><glyph d="M606 1374q0 101 74.5 175.5t175.5 74.5q94 0 151.5-57.5t57.5-151.5q0-101-74.5-175.5t-175.5-74.5q-94 0-151.5 57.5t-57.5 151.5zM905 1399q0 29-18 47t-47 18-51.5-22-22.5-51 18-47.5 47-18.5 51.5 22.5 22.5 51.5zM541 1126h467l188-1126h-401l-23 145h-430l-76-145h-411zM739 455l-32 354-195-354h227z" horiz-adv-x="1271"/><glyph d="M780 1290q-2 1-9.5 5.5t-9.5 6-8.5 5.5-9.5 5-9 4-10 4-9 2.5-10.5 2-10.5.5q-42 0-57-76h-184q29 146 87 210.5t173 64.5q37 0 71-9.5t51.5-18.5 43.5-26q2-1 9.5-5.5t10.5-6 9.5-5 9.5-5 9-4 10-3.5 9-2.5 10.5-2 10.5-.5q39 0 57 75h184q-32-146-89.5-210t-172.5-64q-37 0-71 9t-50.5 18-44.5 26zM541 1126h467l188-1126h-401l-23 145h-430l-76-145h-411zM739 455l-32 354-195-354h227z" horiz-adv-x="1271"/><glyph d="M1604 0h-918l31 145h-346l-107-145h-411l929 1126h1069l-67-307h-539l-20-98h522l-68-305h-522l-24-109h538zM784 455l78 354-258-354h180z" horiz-adv-x="1779"/><glyph d="M643 309q70 0 127 39.5t94 106.5l291-166q-71-131-211.5-222.5t-320.5-91.5h-17l-47-71q26 18 59 18 52 0 87.5-36.5t35.5-96.5q0-91-69.5-145t-171.5-54q-85 0-157 26.5t-110 64.5l89 122q87-73 176-73 77 0 77 49 0 15-11.5 25t-33.5 10q-28 0-49-25l-106 70 80 135q-195 42-307.5 178t-112.5 320q0 132 52 253t141.5 210.5 217.5 142.5 273 53q206 0 343-104.5t177-270.5l-348-114q-14 68-65.5 111.5t-123.5 43.5q-112 0-194-88t-82-207q0-98 60-155.5t157-57.5z" horiz-adv-x="1204"/><glyph d="M1225 1536l-383-295h-250l311 295h322zM909 0h-917l248 1126h917l-70-307h-532l-20-96h522l-70-307h-522l-23-109h535z" horiz-adv-x="1085"/><glyph d="M1069 1241h-211l-98 150-158-150h-219l246 295h319zM909 0h-917l248 1126h917l-70-307h-532l-20-96h522l-70-307h-522l-23-109h535z" horiz-adv-x="1085"/><glyph d="M516 1194q-69 0-115.5 46.5t-46.5 115.5q0 79 63.5 141t143.5 62q69 0 115.5-46.5t46.5-115.5q0-79-63.5-141t-143.5-62zM958 1194q-69 0-115 46.5t-46 115.5q0 79 63.5 141t143.5 62q69 0 115-46.5t46-115.5q0-79-63.5-141t-143.5-62zM909 0h-917l248 1126h917l-70-307h-532l-20-96h522l-70-307h-522l-23-109h535z" horiz-adv-x="1085"/><glyph d="M850 1241h-246l-252 295h318zM909 0h-917l248 1126h917l-70-307h-532l-20-96h522l-70-307h-522l-23-109h535z" horiz-adv-x="1085"/><glyph d="M958 1536l-383-295h-249l311 295h321zM375 0h-383l248 1126h383z" horiz-adv-x="587"/><glyph d="M584 1241h-246l-252 295h317zM375 0h-383l248 1126h383z" horiz-adv-x="587"/><glyph d="M803 1241h-211l-98 150-158-150h-219l245 295h320zM375 0h-383l248 1126h383z" horiz-adv-x="587"/><glyph d="M250 1194q-69 0-115.5 46.5t-46.5 115.5q0 79 63.5 141t143.5 62q69 0 115.5-46.5t46.5-115.5q0-79-63.5-141t-143.5-62zM692 1194q-69 0-115.5 46.5t-46.5 115.5q0 79 63.5 141t143.5 62q69 0 115.5-46.5t46.5-115.5q0-79-63.5-141t-143.5-62zM375 0h-383l248 1126h383z" horiz-adv-x="587"/><glyph d="M825 1290q-2 1-9.5 5.5t-9.5 6-8.5 5.5-9.5 5-9 4-10 4-9 2.5-10.5 2-10.5.5q-42 0-57-76h-184q29 146 87 210.5t173 64.5q37 0 71-9.5t51.5-18.5 43.5-26q2-1 9.5-5.5t10.5-6 9.5-5 9.5-5 9-4 10-3.5 9-2.5 10.5-2 10.5-.5q39 0 57 75h184q-32-146-89.5-210t-172.5-64q-37 0-71 9t-50.5 18-44.5 26zM1149 0h-393l-244 637-139-637h-381l248 1126h415l228-604 133 604h381z" horiz-adv-x="1361"/><glyph d="M1325 1536l-383-295h-250l312 295h321zM35 498q0 175 88.5 325t245.5 239 346 89q263 0 431.5-145.5t168.5-376.5q0-175-88.5-325t-245.5-239.5-346-89.5q-263 0-431.5 146t-168.5 377zM924 600q0 92-60 154.5t-159 62.5q-120 0-199.5-88.5t-79.5-202.5q0-92 60-154.5t159-62.5q120 0 199.5 88.5t79.5 202.5z" horiz-adv-x="1325"/><glyph d="M1169 1241h-211l-98 150-158-150h-219l246 295h320zM35 498q0 175 88.5 325t245.5 239 346 89q263 0 431.5-145.5t168.5-376.5q0-175-88.5-325t-245.5-239.5-346-89.5q-263 0-431.5 146t-168.5 377zM924 600q0 92-60 154.5t-159 62.5q-120 0-199.5-88.5t-79.5-202.5q0-92 60-154.5t159-62.5q120 0 199.5 88.5t79.5 202.5z" horiz-adv-x="1325"/><glyph d="M616 1194q-69 0-115 46.5t-46 115.5q0 79 63.5 141t143.5 62q69 0 115-46.5t46-115.5q0-79-63.5-141t-143.5-62zM1059 1194q-69 0-115.5 46.5t-46.5 115.5q0 79 63.5 141t143.5 62q69 0 115.5-46.5t46.5-115.5q0-79-63.5-141t-143.5-62zM35 498q0 175 88.5 325t245.5 239 346 89q263 0 431.5-145.5t168.5-376.5q0-175-88.5-325t-245.5-239.5-346-89.5q-263 0-431.5 146t-168.5 377zM924 600q0 92-60 154.5t-159 62.5q-120 0-199.5-88.5t-79.5-202.5q0-92 60-154.5t159-62.5q120 0 199.5 88.5t79.5 202.5z" horiz-adv-x="1325"/><glyph d="M950 1241h-245l-252 295h317zM35 498q0 175 88.5 325t245.5 239 346 89q263 0 431.5-145.5t168.5-376.5q0-175-88.5-325t-245.5-239.5-346-89.5q-263 0-431.5 146t-168.5 377zM924 600q0 92-60 154.5t-159 62.5q-120 0-199.5-88.5t-79.5-202.5q0-92 60-154.5t159-62.5q120 0 199.5 88.5t79.5 202.5z" horiz-adv-x="1325"/><glyph d="M1237 1141l-102-125q86-70 133-169.5t47-217.5q0-175-88.5-325t-245.5-239.5-346-89.5q-162 0-299 62l-111-135-106 86 98 121q-182 146-182 389 0 175 88.5 325t245.5 239 346 89q170 0 307-64l113 138zM426 526q0-70 35-123l327 400q-35 14-83 14-120 0-199.5-88.5t-79.5-202.5zM645 309q120 0 199.5 88.5t79.5 202.5q0 69-33 119l-324-397q41-13 78-13z" horiz-adv-x="1325"/><glyph d="M803 1290q-2 1-9.5 5.5t-9.5 6-8.5 5.5-9.5 5-9 4-10 4-9 2.5-10.5 2-10.5.5q-43 0-58-76h-184q29 146 87 210.5t173 64.5q37 0 71-9.5t51.5-18.5 43.5-26q2-1 9.5-5.5t10.5-6 9.5-5 9.5-5 9-4 10-3.5 9-2.5 10.5-2 10.5-.5q40 0 58 75h184q-32-146-89.5-210t-172.5-64q-37 0-71 9t-50.5 18-44.5 26zM35 498q0 175 88.5 325t245.5 239 346 89q263 0 431.5-145.5t168.5-376.5q0-175-88.5-325t-245.5-239.5-346-89.5q-263 0-431.5 146t-168.5 377zM924 600q0 92-60 154.5t-159 62.5q-120 0-199.5-88.5t-79.5-202.5q0-92 60-154.5t159-62.5q120 0 199.5 88.5t79.5 202.5z" horiz-adv-x="1325"/><glyph d="M1677 0h-917l14 74q-32-43-104.5-71t-149.5-28q-210 0-347.5 148t-137.5 375q0 130 51.5 249.5t141 208.5 218 142 273.5 53q78 0 154.5-27.5t117.5-70.5l17 73h917l-70-307h-534l-21-98h523l-66-305h-522l-23-109h535zM848 401l63 289q-21 59-77 93t-125 34q-123 0-203-86.5t-80-204.5q0-95 61-156t158-61q123 0 203 92z" horiz-adv-x="1853"/><glyph d="M1350 1536l-383-295h-250l311 295h322zM623-25q-248 0-389.5 114.5t-141.5 285.5q0 81 17 153l131 598h385l-136-612q-8-44-8-74 0-59 48-95t135-36q89 0 143 50t74 137l139 630h385l-148-665q-26-118-73-205.5t-122-151.5-185-96.5-254-32.5z" horiz-adv-x="1370"/><glyph d="M1194 1241h-211l-98 150-158-150h-219l246 295h319zM623-25q-248 0-389.5 114.5t-141.5 285.5q0 81 17 153l131 598h385l-136-612q-8-44-8-74 0-59 48-95t135-36q89 0 143 50t74 137l139 630h385l-148-665q-26-118-73-205.5t-122-151.5-185-96.5-254-32.5z" horiz-adv-x="1370"/><glyph d="M641 1194q-69 0-115.5 46.5t-46.5 115.5q0 79 63.5 141t143.5 62q69 0 115.5-46.5t46.5-115.5q0-79-63.5-141t-143.5-62zM1083 1194q-69 0-115 46.5t-46 115.5q0 79 63 141t143 62q69 0 115.5-46.5t46.5-115.5q0-79-63.5-141t-143.5-62zM623-25q-248 0-389.5 114.5t-141.5 285.5q0 81 17 153l131 598h385l-136-612q-8-44-8-74 0-59 48-95t135-36q89 0 143 50t74 137l139 630h385l-148-665q-26-118-73-205.5t-122-151.5-185-96.5-254-32.5z" horiz-adv-x="1370"/><glyph d="M975 1241h-246l-252 295h318zM623-25q-248 0-389.5 114.5t-141.5 285.5q0 81 17 153l131 598h385l-136-612q-8-44-8-74 0-59 48-95t135-36q89 0 143 50t74 137l139 630h385l-148-665q-26-118-73-205.5t-122-151.5-185-96.5-254-32.5z" horiz-adv-x="1370"/><glyph d="M1262 1536l-383-295h-250l311 295h322zM676 0h-377l98 451-295 675h422l131-358 283 358h428l-592-675z" horiz-adv-x="1193"/><glyph d="M553 1194q-69 0-115.5 46.5t-46.5 115.5q0 79 63.5 141t143.5 62q69 0 115.5-46.5t46.5-115.5q0-79-63.5-141t-143.5-62zM995 1194q-69 0-115 46.5t-46 115.5q0 79 63 141t143 62q69 0 115.5-46.5t46.5-115.5q0-79-63.5-141t-143.5-62zM676 0h-377l98 451-295 675h422l131-358 283 358h428l-592-675z" horiz-adv-x="1193"/><glyph d="M240 1126h458q95 0 182.5-18t164-56.5 132.5-94 88.5-134.5 32.5-174q0-61-10-121t-34.5-125.5-61.5-122.5-95.5-109-133-89.5-177-59.5-223.5-22h-571l96 434h-92l57 258h90zM635 330q74 0 129.5 27t85.5 70.5 44.5 91 14.5 97.5q0 89-65 135t-187 46h-108l-23-105h189l-58-258h-186l-22-104h186z" horiz-adv-x="1304"/><glyph d="M375 0h-383l248 1126h383l-31-145h188q189 0 307.5-95t118.5-257q0-82-31.5-160.5t-88.5-140.5-143.5-100-188.5-38h-338zM727 520q37 0 61.5 23t24.5 53q0 55-72 55h-223l-29-131h238z" horiz-adv-x="1198"/><glyph d="M915 610l234-137q-108-155-236-266 7-11 140-207h-387q-18 22-25 33-121-53-248-53-117 0-208.5 34.5t-147 106.5-55.5 172q0 82 26 147t74 108.5 101.5 71.5 123.5 50q-24 82-24 157 0 136 110 230t277 94q148 0 256-72t108-180q0-61-20-110t-49.5-81-77.5-59.5-90.5-43-102.5-32.5q5-10 17-31t18-32l51-90q84 93 135 190zM604 827q0-31 12-75 64 21 98 47.5t34 68.5q0 25-19 41.5t-43 16.5q-37 0-59.5-25.5t-22.5-73.5zM455 225q28 0 55 8-36 55-57 101-7 14-28.5 56.5t-31.5 64.5q-55-46-55-117 0-53 32-83t85-30z" horiz-adv-x="1183"/><glyph d="M1149 840l-96-185h-146l-100-178h147l-100-186h-149l-162-291h-232l160 291h-125l-160-291h-231l160 291h-138l99 186h145l98 178h-145l98 185h150l162 286h231l-162-286h125l162 286h231l-161-286h139zM674 655h-125l-98-178h124z" horiz-adv-x="1099"/><glyph d="M387 580q-120 0-193 66t-73 185q0 129 89.5 224.5t225.5 95.5q120 0 195.5-67.5t75.5-186.5q0-128-92-222.5t-228-94.5zM1272 1126l-1034-1126h-185l1032 1126h187zM426 971q-37 0-65.5-39t-28.5-92q0-38 18-58t49-20q38 0 68.5 37.5t30.5 89.5q0 37-20.5 59.5t-51.5 22.5zM887-18q-120 0-193 66t-73 185q0 129 89.5 224.5t225.5 95.5q120 0 195-67.5t75-186.5q0-128-91.5-222.5t-227.5-94.5zM926 373q-37 0-66-39t-29-92q0-38 18.5-58t49.5-20q38 0 68 37t30 90q0 38-20 60t-51 22z" horiz-adv-x="1300"/><glyph d="M553-68l-270-155q-96 116-146.5 293.5t-50.5 365.5q0 321 163.5 636.5t428.5 514.5l194-198q-188-205-294.5-479.5t-106.5-559.5q0-212 82-418z" horiz-adv-x="708"/><glyph d="M236 1432l270 155q96-115 146-292.5t50-366.5q0-321-163-636.5t-428-514.5l-195 198q188 205 294.5 479.5t106.5 559.5q0 215-81 418z" horiz-adv-x="710"/><glyph d="M455-205h-502l395 1778h502l-51-234h-246l-291-1310h246z" horiz-adv-x="649"/><glyph d="M381-205h-500l51 234h246l291 1310h-246l51 234h502z" horiz-adv-x="649"/><glyph d="M455-205h-88q-140 0-239 87.5t-99 219.5q0 37 8 70l63 285q4 24 4 37 0 43-21.5 68.5t-59.5 25.5l43 192q107 0 135 131l63 283q43 192 162.5 285.5t300.5 93.5h123l-51-234h-123q-122 0-156-143l-78-352q-37-161-135-187 60-35 60-116 0-33-9-70l-65-297q-4-24-4-35 0-50 31-80t79-30h109z" horiz-adv-x="647"/><glyph d="M272 1573h88q140 0 239-87.5t99-219.5q0-37-8-70l-63-285q-4-24-4-37 0-43 22-68.5t60-25.5l-43-192q-108 0-136-131l-63-283q-43-192-162.5-285.5t-300.5-93.5h-123l51 234h123q122 0 156 143l78 352q37 161 135 187-60 35-60 116 0 33 9 70l65 297q4 24 4 35 0 50-31 80t-79 30h-109z" horiz-adv-x="647"/><glyph d="M651 1190q0-97-71-167.5t-168-70.5q-83 0-141 59.5t-58 143.5q0 97 71.5 167.5t168.5 70.5q83 0 140.5-59.5t57.5-143.5zM199 858h331l-135-858h-438z" horiz-adv-x="579"/></font>
</defs>
</svg>
