<svg xmlns="http://www.w3.org/2000/svg"><defs><font horiz-adv-x="778"><font-face ascent="1618" descent="-430" units-per-em="2048"/><missing-glyph horiz-adv-x="532"/><glyph d="M467 934h-201v-934h-61v934h-164v55h164v105q0 138 65.5 215t182.5 77q71 0 116-26l-26-53q-43 24-90 24-93 0-140-61.5t-47-175.5v-105h201v-55zM770 989h201v-55h-201v-934h-61v934h-164v55h164v105q0 138 65 215t182 77q72 0 117-26l-26-53q-43 24-91 24-92 0-139-61.5t-47-175.5v-105zM1214 1159q-24 0-41.5 17.5t-17.5 42.5q0 24 17.5 41.5t41.5 17.5q25 0 42.5-17t17.5-42-17.5-42.5-42.5-17.5zM1184 989h61v-1145q0-123-62.5-184t-172.5-61q-63 0-113 20l21 55q40-18 92-18 174 0 174 188v1145z" horiz-adv-x="1421" unicode="&#x66;&#x66;&#x6a;"/><glyph d="M467 934h-201v-934h-61v934h-164v55h164v105q0 138 65.5 215t182.5 77q71 0 116-26l-26-53q-43 24-90 24-93 0-140-61.5t-47-175.5v-105h201v-55zM711 1159q-24 0-42 18t-18 42 18 41.5 42 17.5q25 0 42-17t17-42-17-42.5-42-17.5zM680 989h61v-1145q0-123-62.5-184t-172.5-61q-63 0-113 20l21 55q40-18 92-18 174 0 174 188v1145z" horiz-adv-x="917" unicode="&#x66;&#x6a;"/><glyph d="M266 0h-61v934h-164v55h164v105q0 138 65.5 215t182.5 77q71 0 116-26l-26-53q-43 24-90 24-93 0-140-61.5t-47-175.5v-105h201v-55h-201v-934zM770 0h-61v934h-164v55h164v105q0 138 65 215t182 77q72 0 117-26l-26-53q-43 24-91 24-92 0-139-61.5t-47-175.5v-105h201v-55h-201v-934z" horiz-adv-x="1007" unicode="&#xfb00;"/><glyph d="M266 934v-934h-61v934h-164v55h164v105q0 138 65.5 215t182.5 77q71 0 116-26l-26-53q-43 24-90 24-93 0-140-61.5t-47-175.5v-105h201v-55h-201zM711 1159q-24 0-42 18t-18 42 18 41.5 42 17.5q25 0 42-17t17-42-17-42.5-42-17.5zM741 0h-61v989h61v-989z" horiz-adv-x="917" unicode="&#xfb01;"/><glyph d="M467 934h-201v-934h-61v934h-164v55h164v105q0 138 65.5 215t182.5 77q71 0 116-26l-26-53q-43 24-90 24-93 0-140-61.5t-47-175.5v-105h201v-55zM741 0h-61v1366h61v-1366z" horiz-adv-x="917" unicode="&#xfb02;"/><glyph d="M266 934v-934h-61v934h-164v55h164v105q0 138 65.5 215t182.5 77q71 0 116-26l-26-53q-43 24-90 24-93 0-140-61.5t-47-175.5v-105h201v-55h-201zM971 989v-55h-201v-934h-61v934h-164v55h164v105q0 138 65 215t182 77q72 0 117-26l-26-53q-43 24-91 24-92 0-139-61.5t-47-175.5v-105h201zM1214 1159q-24 0-41.5 17.5t-17.5 42.5q0 24 17.5 41.5t41.5 17.5q25 0 42.5-17t17.5-42-17.5-42.5-42.5-17.5zM1245 0h-61v989h61v-989z" horiz-adv-x="1421" unicode="&#xfb03;"/><glyph d="M467 934h-201v-934h-61v934h-164v55h164v105q0 138 65.5 215t182.5 77q71 0 116-26l-26-53q-43 24-90 24-93 0-140-61.5t-47-175.5v-105h201v-55zM770 989h201v-55h-201v-934h-61v934h-164v55h164v105q0 138 65 215t182 77q72 0 117-26l-26-53q-43 24-91 24-92 0-139-61.5t-47-175.5v-105zM1245 0h-61v1366h61v-1366z" horiz-adv-x="1421" unicode="&#xfb04;"/><glyph d="M266 0h-61v934h-164v55h164v105q0 138 65.5 215t182.5 77q71 0 116-26l-26-53q-43 24-90 24-93 0-140-61.5t-47-175.5v-105h201v-55h-201v-934zM741 0h-61v1366h61v-547q61 90 155 142.5t202 52.5q199 0 320.5-143t121.5-377q0-235-121-377t-321-142q-111 0-206.5 54.5t-150.5 136.5v-166zM741 758v-531q48-82 147-139t210-57q176 0 275.5 130.5t99.5 332.5-99.5 333-275.5 131q-111 0-210-58.5t-147-141.5z" horiz-adv-x="1662" unicode="&#x66;&#x62;"/><glyph d="M266 0h-61v934h-164v55h164v105q0 138 65.5 215t182.5 77q71 0 116-26l-26-53q-43 24-90 24-93 0-140-61.5t-47-175.5v-105h201v-55h-201v-934zM1409 0h-61v694q0 147-65.5 205.5t-190.5 58.5q-98 0-197-54.5t-154-131.5v-772h-61v1366h61v-532q60 72 161 126t198 54q153 0 231-75.5t78-244.5v-694z" horiz-adv-x="1585" unicode="&#x66;&#x68;"/><glyph d="M467 934h-201v-934h-61v934h-164v55h164v105q0 138 65.5 215t182.5 77q71 0 116-26l-26-53q-43 24-90 24-93 0-140-61.5t-47-175.5v-105h201v-55zM1468 0h-88l-434 498-205-189v-309h-61v1366h61v-979l645 602h89l-482-446z" horiz-adv-x="1519" unicode="&#x66;&#x6b;"/><glyph horiz-adv-x="0"/><glyph horiz-adv-x="682"/><glyph horiz-adv-x="0"/><glyph horiz-adv-x="0"/><glyph horiz-adv-x="0" unicode="&#xd;"/><glyph horiz-adv-x="532" unicode="&#x20;"/><glyph horiz-adv-x="532" unicode="&#x09;"/><glyph horiz-adv-x="532" unicode="&#xa0;"/><glyph d="M233 330h-40l-23 1036h86zM145 49q0 26 20 46t48 20 48-20 20-46q0-28-20-47.5t-48-19.5-48 19.5-20 47.5z" horiz-adv-x="425" unicode="&#x21;"/><glyph d="M203 907h-45q-31 403-31 426 0 22 15 37.5t38 15.5 38-15.5 15-37.5zM436 907h-45q-31 403-31 426 0 22 15.5 37.5t38.5 15.5 38-15.5 15-37.5z" horiz-adv-x="593" unicode="&#x22;"/><glyph d="M547 0h-68l133 391h-256l-131-391h-67l131 391h-236l19 60h237l156 464h-240l17 60h243l129 391h68l-129-391h254l129 391h68l-132-391h236l-14-60h-240l-158-464h246l-18-60h-246zM629 451l157 464h-254l-155-464h252z" horiz-adv-x="1161" unicode="&#x23;"/><glyph d="M1053 346q0-47-11.5-93.5t-42-95.5-76.5-86.5-122-63.5-172-30v-182h-66v180q-146 4-263 63t-191 155l53 47q68-83 170.5-140t230.5-63v651q-57 16-88.5 26t-81.5 29-79 36-64 44-53.5 57-31.5 71-13 89q0 155 119.5 249.5t291.5 99.5v184h66v-187q251-14 393-190l-51-47q-122 160-342 176v-584q54-16 90.5-27.5t85-31.5 80.5-40 66.5-50.5 55-64.5 33.5-80.5 13-100.5zM223 1040q0-50 19.5-90.5t47-67 77.5-51 90-38.5 106-33v567q-145-5-242.5-85.5t-97.5-201.5zM629 670v-631q81 4 144 25.5t101.5 52.5 63 72 34 79 9.5 78q0 59-20 106.5t-50 79.5-79.5 59.5-94 44-108.5 34.5z" horiz-adv-x="1177" unicode="&#x24;"/><glyph d="M74 1051q0 145 88.5 240t224.5 95q137 0 225-95t88-240q0-143-88-237.5t-225-94.5q-136 0-224.5 94.5t-88.5 237.5zM334 0h-74l873 1366h75zM633 1051q0 117-69 198.5t-177 81.5q-107 0-176.5-82t-69.5-198q0-113 70-195t176-82q107 0 176.5 81.5t69.5 195.5zM752 307q0 145 88.5 240.5t224.5 95.5 224.5-95.5 88.5-240.5q0-143-88.5-237.5t-224.5-94.5-224.5 94.5-88.5 237.5zM1311 307q0 117-69 199t-177 82-177-82-69-199q0-113 69-194.5t177-81.5 177 81.5 69 194.5z" horiz-adv-x="1452" unicode="&#x25;"/><glyph d="M1210 0h-108q-86 73-197 184-165-209-407-209-173 0-287.5 96.5t-114.5 270.5q0 79 24.5 144t72 116 95.5 86.5 118 75.5q-119 180-119 315 0 133 89 220t216 87q124 0 195-64.5t71-184.5q0-41-10.5-78t-26.5-66.5-43.5-59-53-50.5-64-46-67.5-42-73-41q-13-7-20-11 76-106 192-235 108-120 205-217 106 161 162 350l65-25q-91-248-176-374 95-95 262-242zM358 1079q0-117 107-282 49 26 70.5 38t63.5 37.5 62 42 49 44.5 42 52.5 23.5 57 10.5 68.5q0 91-53.5 139.5t-140.5 48.5q-97 0-165.5-69.5t-68.5-176.5zM498 37q200 0 358 196-147 151-217 230-134 155-199 248-62-36-105-69.5t-84-78-62-100-21-121.5q0-74 27-133t73.5-96 105-56.5 124.5-19.5z" horiz-adv-x="1304" unicode="&#x26;"/><glyph d="M203 907h-45q-31 403-31 426 0 22 15 37.5t38 15.5 38-15.5 15-37.5z" horiz-adv-x="360" unicode="&#x27;"/><glyph d="M387-383l-33-25q-258 423-258 906 0 482 258 905l33-23q-110-232-164.5-429t-54.5-453q0-255 54.5-453.5t164.5-427.5z" horiz-adv-x="421" unicode="&#x28;"/><glyph d="M254 498q0 256-54.5 453t-164.5 429l33 23q258-423 258-905 0-483-258-906l-33 25q110 229 164.5 427.5t54.5 453.5z" horiz-adv-x="421" unicode="&#x29;"/><glyph d="M369 838h-62l12 243-204-133-31 53 217 111-217 111 31 53 204-133-12 243h62l-13-243 205 133 31-53-217-111 217-111-31-53-205 133z" horiz-adv-x="675" unicode="&#x2a;"/><glyph d="M952 659h-413v-454h-66v454h-414v62h414v442h66v-442h413v-62z" horiz-adv-x="1011" unicode="&#x2b;"/><glyph d="M164-242l-45 37q49 36 78.5 89t29.5 100l-16-2q-29 0-47.5 19.5t-18.5 47.5q0 27 18.5 46.5t47.5 19.5q34 0 57-29t23-80q0-73-37.5-142t-89.5-106z" horiz-adv-x="425" unicode="&#x2c;"/><glyph d="M553 465h-492v61h492v-61z" horiz-adv-x="614" unicode="&#x2d;"/><glyph d="M145 49q0 26 20 46t48 20 48-20 20-46q0-28-20-47.5t-48-19.5-48 19.5-20 47.5z" horiz-adv-x="425" unicode="&#x2e;"/><glyph d="M63-41h-63l485 1448h64z" horiz-adv-x="548" unicode="&#x2f;"/><glyph d="M133 682q0 99 15.5 195t53 189.5 92 163.5 139 113 188.5 43q87 0 160-30t125-82.5 91.5-120.5 62.5-148 34.5-160.5 11.5-162.5-11.5-162-34.5-161-62.5-149-91.5-121.5-125-83.5-160-30q-104 0-188.5 43.5t-139 114-92 164.5-53 190-15.5 195zM1034 682q0 92-12.5 179t-42.5 172.5-76 149-118.5 103-163.5 39.5-164-39.5-119-103-77-149-43.5-172.5-12.5-179q0-75 9-148.5t28.5-147 52.5-135.5 77.5-110.5 108.5-76 140-27.5 139 27.5 107.5 76 77.5 110.5 52 136 28 147 9 148z" horiz-adv-x="1239" unicode="&#x30;"/><glyph d="M387 0h-65v1272l-216-236-45 47 265 283h61v-1366z" horiz-adv-x="567" unicode="&#x31;"/><glyph d="M983 0h-862v57q88 73 143 119.5t132 113 125 112.5 108.5 106.5 97.5 107 76.5 101.5 61 102 35 98 13.5 99q0 79-30 140.5t-80 97-108.5 53.5-121.5 18q-127 0-224.5-49.5t-151.5-134.5l-54 39q64 96 177 151t255 55q69 0 137-20.5t129.5-62.5 99.5-116.5 38-170.5q0-93-44.5-193t-102-180-176-195-199.5-185-240-202h766v-61z" horiz-adv-x="1181" unicode="&#x32;"/><glyph d="M74 205l57 33q56-91 154-146t231-55q170 0 270.5 87t100.5 238q0 81-32 143t-87.5 98.5-125 54.5-150.5 18q-95 0-115-2v65q20-2 115-2 100 0 182 29t137 97 55 167q0 136-102 215.5t-248 79.5q-119 0-206.5-45t-166.5-139l-51 41q72 92 181 148t243 56q109 0 202-39.5t153.5-122.5 60.5-194q0-63-20.5-116.5t-51-88-71.5-60.5-77-39-71-19q36-3 76-17t82.5-42 76-66.5 55-95.5 21.5-124q0-171-116-279t-320-108q-153 0-268.5 65t-173.5 165z" horiz-adv-x="1087" unicode="&#x33;"/><glyph d="M788 0h-65v399h-645v68l624 899h86v-905h207v-62h-207v-399zM723 461v831l-573-831h573z" horiz-adv-x="1073" unicode="&#x34;"/><glyph d="M166 205l53 39q69-104 161.5-155.5t227.5-51.5q157 0 263 105.5t106 263.5q0 170-104.5 271t-264.5 101q-194 0-344-141l-55 33v696h745v-61h-680v-596q57 56 144.5 93.5t189.5 37.5q86 0 163.5-28t138.5-81 96.5-137 35.5-188q0-97-36-179t-96-136.5-138.5-85-163.5-30.5q-161 0-266 59.5t-176 170.5z" horiz-adv-x="1175" unicode="&#x35;"/><glyph d="M133 682q0 104 15 201t51.5 190 91 161.5 139.5 110 191 41.5q128 0 212-47.5t146-136.5l-49-43q-56 80-127 123t-182 43q-93 0-167-39.5t-121-103.5-78-152-43.5-178.5-12.5-189.5q0-49 2-74 22 38 61 78t92 78 122.5 62.5 139.5 24.5q193 0 313-110t120-320q0-80-29-155t-83-136-139.5-98-189.5-37q-103 0-185 39.5t-135.5 105.5-89 158-50.5 192-15 212zM983 401q0 180-101 274.5t-268 94.5q-121 0-231.5-74t-173.5-192q6-65 21.5-127t47.5-125 75.5-109.5 109-76 145.5-29.5q92 0 166 33.5t118 88 67.5 117 23.5 125.5z" horiz-adv-x="1181" unicode="&#x36;"/><glyph d="M324 0h-74l600 1305h-776v61h854v-45z" horiz-adv-x="1001" unicode="&#x37;"/><glyph d="M135 338q0 72 30 134.5t81.5 107.5 112.5 76 130 49q-65 15-121.5 42.5t-105 67.5-76.5 97-28 124q0 86 36 154.5t96 110 133 63.5 152 22q78 0 150.5-22t133.5-63.5 97.5-110 36.5-154.5q0-67-28-124t-76.5-97-105-67.5-121.5-42.5q69-18 130-49t111.5-76 80.5-107.5 30-134.5q0-158-124-260.5t-315-102.5q-194 0-317 101.5t-123 261.5zM928 1036q0 132-102.5 210.5t-250.5 78.5q-150 0-251-78.5t-101-210.5q0-52 19.5-96.5t54-75.5 71-54.5 80.5-38.5 71.5-23 55.5-13q35 7 70 16.5t89.5 33.5 94.5 55 69.5 82.5 29.5 113.5zM948 338q0 56-21.5 106t-57 84.5-77 62.5-85 45.5-76.5 27-56 12.5q-30-4-71.5-16t-96-39.5-99.5-64-76-94-31-124.5q0-91 53-160.5t137.5-105 183.5-35.5q150 0 261.5 83t111.5 218z" horiz-adv-x="1148" unicode="&#x38;"/><glyph d="M203 162l49 43q56-80 127-123t182-43q93 0 167 39.5t121 103.5 78 152 43.5 178.5 12.5 189.5q0 49-2 74-31-52-87.5-105t-146.5-96-182-43q-193 0-312.5 110.5t-119.5 320.5q0 80 29 155t82.5 136 139 98 189.5 37q103 0 185-39.5t135.5-105.5 89.5-158 51-192 15-212q0-104-15-201t-51.5-190-91-161.5-139.5-110.5-191-42q-128 0-212 47.5t-146 137.5zM973 860q-6 65-22 127t-47.5 125-75 109.5-109.5 76-146 29.5q-74 0-137-22.5t-105.5-59-73-84.5-44.5-98-14-100q0-180 100.5-274.5t267.5-94.5q121 0 232 74.5t174 191.5z" horiz-adv-x="1181" unicode="&#x39;"/><glyph d="M145 936q0 28 20 48t48 20 48-20 20-48q0-26-20-46t-48-20-48 20-20 46zM145 49q0 26 20 46t48 20 48-20 20-46q0-28-20-47.5t-48-19.5-48 19.5-20 47.5z" horiz-adv-x="425" unicode="&#x3a;"/><glyph d="M213 870q-28 0-48 20t-20 46q0 28 20 48t48 20 48-20 20-48q0-26-20-46t-48-20zM164-242l-45 37q49 36 78.5 89t29.5 100l-16-2q-29 0-47.5 19.5t-18.5 47.5q0 27 18.5 46.5t47.5 19.5q34 0 57-29t23-80q0-73-37.5-142t-89.5-106z" horiz-adv-x="425" unicode="&#x3b;"/><glyph d="M952 184l-893 480v43l893 481v-74l-809-430 809-426v-74z" horiz-adv-x="1011" unicode="&#x3c;"/><glyph d="M952 856h-893v62h893v-62zM952 451h-893v61h893v-61z" horiz-adv-x="1011" unicode="&#x3d;"/><glyph d="M952 664l-893-480v74l809 426-809 430v74l893-481v-43z" horiz-adv-x="1011" unicode="&#x3e;"/><glyph d="M371 500q0 40 13.5 76t29 60 51.5 55.5 54.5 45 64.5 45.5q43 29 65.5 45.5t56.5 47 51 56.5 30.5 63.5 13.5 78.5q0 107-82 179.5t-227 72.5q-140 0-231-51t-161-150l-47 43q153 219 439 219 173 0 276.5-91.5t103.5-221.5q0-50-15.5-94.5t-36-75.5-58.5-66-64-54-73-50q-42-29-60-41.5t-50-39-45.5-46-25.5-48-12-58.5q0-25 18-56t50-53l-39-47q-90 67-90 156zM387 49q0 26 20 46t48 20q27 0 47-19.5t20-46.5q0-28-19.5-47.5t-47.5-19.5-48 19.5-20 47.5z" horiz-adv-x="956" unicode="&#x3f;"/><glyph d="M72 500q0 163 67.5 313.5t179 258 260.5 171.5 306 64q141 0 262-52t204.5-142 131-213.5 47.5-262.5q0-216-89-339.5t-220-123.5q-79 0-128 53t-49 127v13q-59-82-152.5-137.5t-197.5-55.5q-139 0-225 88t-86 236q0 108 43.5 207t113.5 168 160 110 181 41q100 0 169-50.5t99-127.5l29 141h61l-127-602q-2-12-2-37 0-54 32.5-86.5t78.5-32.5q27 0 57 11t65 40.5 62.5 73.5 46 118.5 18.5 166.5q0 171-74 309t-209.5 217.5-307.5 79.5q-148 0-286-62.5t-238.5-164.5-161-238-60.5-278q0-164 76-298t213-211 307-77q199 0 385 117l33-47q-200-129-426-129-183 0-332 85t-233 232-84 326zM1063 457l70 321q-23 73-87.5 132t-164.5 59q-115 0-215.5-68t-157.5-176.5-57-226.5q0-119 64.5-194t178.5-75q115 0 210 67t159 161z" horiz-adv-x="1603" unicode="&#x40;"/><glyph d="M1260 0h-76l-152 367h-762l-151-367h-76l569 1366h78zM1008 428l-357 862-356-862h713z" horiz-adv-x="1302" unicode="&#x41;"/><glyph d="M702 0h-522v1366h514q168 0 270.5-91.5t102.5-256.5q0-122-72-207.5t-170-105.5q109-17 189-117t80-219q0-173-105.5-271t-286.5-98zM246 1305v-572h448q145 0 223 80t78 205q0 124-78.5 205.5t-222.5 81.5h-448zM246 672v-611h456q150 0 235 82.5t85 223.5q0 126-84.5 215.5t-235.5 89.5h-456z" horiz-adv-x="1228" unicode="&#x42;"/><glyph d="M815-25q-141 0-266.5 52t-217 143.5-145 224.5-53.5 287 53.5 287 145 224.5 217 143.5 266.5 52q288 0 475-215l-51-46q-73 92-185.5 145.5t-238.5 53.5q-127 0-239.5-47t-194-130.5-129-204.5-47.5-263q0-140 47.5-261t129-205 194-131.5 239.5-47.5q126 0 238.5 53.5t185.5 145.5l53-43q-194-218-477-218z" horiz-adv-x="1366" unicode="&#x43;"/><glyph d="M586 0h-406v1366h406q155 0 284.5-55.5t215-149.5 133-218 47.5-261q0-139-47.5-262.5t-133-217-215-148-284.5-54.5zM246 1305v-1244h340q142 0 258 48.5t192 132.5 117 197 41 243q0 103-25.5 196t-77 171-124 135-170 89-211.5 32h-340z" horiz-adv-x="1400" unicode="&#x44;"/><glyph d="M1016 0h-836v1366h836v-61h-770v-572h755v-61h-755v-611h770v-61z" horiz-adv-x="1142" unicode="&#x45;"/><glyph d="M246 0h-66v1366h836v-61h-770v-572h755v-61h-755v-672z" horiz-adv-x="1091" unicode="&#x46;"/><glyph d="M133 682q0 154 53.5 287t145 224.5 217 143.5 266.5 52q295 0 500-211l-43-45q-80 91-200.5 142.5t-256.5 51.5q-127 0-239.5-47t-194-130.5-129-204.5-47.5-263q0-140 47.5-261.5t129-205.5 194-132 239.5-48q137 0 250 54.5t184 129.5v375h-563v61h629v-462q-91-102-221-161t-279-59q-141 0-266.5 52.5t-217 144-145 225-53.5 287.5z" horiz-adv-x="1449" unicode="&#x47;"/><glyph d="M1243 0h-65v672h-932v-672h-66v1366h66v-633h932v633h65v-1366z" horiz-adv-x="1423" unicode="&#x48;"/><glyph d="M246 0h-66v1366h66v-1366z" horiz-adv-x="425" unicode="&#x49;"/><glyph d="M33 154l55 49q116-166 291-166 150 0 239 94.5t89 247.5v987h65v-987q0-99-31.5-177.5t-86-127-125-74-150.5-25.5q-112 0-196 43.5t-150 135.5z" horiz-adv-x="952" unicode="&#x4a;"/><glyph d="M1106 0h-88l-608 672-164-178v-494h-66v1366h66v-788l710 788h88l-593-653z" horiz-adv-x="1169" unicode="&#x4b;"/><glyph d="M932 0h-752v1366h66v-1305h686v-61z" horiz-adv-x="1021" unicode="&#x4c;"/><glyph d="M1397 0h-66v1288l-532-1288h-21l-532 1288v-1288h-66v1366h105l503-1223 504 1223h105v-1366z" horiz-adv-x="1576" unicode="&#x4d;"/><glyph d="M1233 0h-66l-921 1260v-1260h-66v1366h66l921-1247v1247h66v-1366z" horiz-adv-x="1413" unicode="&#x4e;"/><glyph d="M133 682q0 198 78.5 358t227.5 254.5 343 94.5q193 0 342.5-94.5t228.5-255 79-357.5-79-357.5-228.5-255-342.5-94.5q-194 0-343 94.5t-227.5 254.5-78.5 358zM1360 682q0 187-71 333t-203 229-304 83q-174 0-306-83t-201.5-229-69.5-333q0-185 69.5-331t201.5-230 306-84q172 0 304 84t203 230 71 331z" horiz-adv-x="1564" unicode="&#x4f;"/><glyph d="M246 0h-66v1366h473q184 0 292-112t108-275q0-106-47-193t-139.5-140.5-213.5-53.5h-407v-592zM981 979q0 143-90.5 234.5t-239.5 91.5h-405v-652h405q149 0 239.5 91.5t90.5 234.5z" horiz-adv-x="1136" unicode="&#x50;"/><glyph d="M1432 682q0-157-51.5-293t-147.5-233l156-156-46-47-159 160q-170-138-402-138-194 0-343 94.5t-227.5 254.5-78.5 358 78.5 358 227.5 254.5 343 94.5q193 0 342.5-94.5t228.5-255 79-357.5zM782 37q207 0 357 121l-228 227 47 47 228-229q84 88 129 211t45 268q0 187-71 333t-203 229-304 83q-174 0-306-83t-201.5-229-69.5-333q0-185 69.5-331t201.5-230 306-84z" horiz-adv-x="1564" unicode="&#x51;"/><glyph d="M1073 0h-84l-416 590h-327v-590h-66v1366h471q173 0 288.5-103t115.5-284-115.5-285-288.5-104zM983 979q0 143-91.5 234.5t-240.5 91.5h-405v-654h405q149 0 240.5 92.5t91.5 235.5z" horiz-adv-x="1185" unicode="&#x52;"/><glyph d="M109 193l53 47q72-87 180-145t244-58q112 0 193.5 29.5t123 77.5 60 98 18.5 104q0 46-12.5 85.5t-30.5 68-51.5 54.5-62.5 42.5-77 34.5-80 28-87 25q-179 50-252 87-156 80-173 226-3 21-3 43 0 107 60.5 188t157 121 210.5 40q286 0 442-193l-51-47q-137 178-391 178-151 0-254-81t-103-206q0-30 7.5-56.5t17.5-47.5 31-41 37.5-33.5 48-28.5 51.5-24 60-21.5 61-19 65-18.5q46-13 73.5-21.5t71-23.5 70.5-28 62.5-32.5 58-39.5 46.5-48 37.5-58.5 22.5-69.5 9-83q0-50-12.5-98t-46-98.5-84.5-88.5-134.5-62-189.5-24q-153 0-276 59.5t-201 158.5z" horiz-adv-x="1177" unicode="&#x53;"/><glyph d="M604 0h-65v1305h-461v61h989v-61h-463v-1305z" horiz-adv-x="1144" unicode="&#x54;"/><glyph d="M180 518v848h66v-848q0-229 114-355t328-126 328 126 114 355v848h66v-848q0-257-131-400t-377-143-377 143.5-131 399.5z" horiz-adv-x="1376" unicode="&#x55;"/><glyph d="M690 0h-78l-569 1366h76l532-1290 533 1290h76z" horiz-adv-x="1302" unicode="&#x56;"/><glyph d="M1305 0h-78l-355 1243-354-1243h-78l-389 1366h72l356-1268 359 1268h69l359-1268 356 1268h72z" horiz-adv-x="1744" unicode="&#x57;"/><glyph d="M1255 0h-86l-516 651-516-651h-86l565 700-534 666h88l483-612 484 612h88l-535-664z" horiz-adv-x="1306" unicode="&#x58;"/><glyph d="M657 0h-65v592l-549 774h84l498-709 497 709h84l-549-774v-592z" horiz-adv-x="1249" unicode="&#x59;"/><glyph d="M1075 0h-966v61l874 1244h-874v61h952v-61l-877-1244h891v-61z" horiz-adv-x="1183" unicode="&#x5a;"/><glyph d="M399-389h-329v1778h329v-62h-268v-1655h268v-61z" horiz-adv-x="434" unicode="&#x5b;"/><glyph d="M485-41l-485 1448h63l486-1448h-64z" horiz-adv-x="548" unicode="&#x5c;"/><glyph d="M365-389h-330v61h268v1655h-268v62h330v-1778z" horiz-adv-x="434" unicode="&#x5d;"/><glyph d="M829 682h-69l-326 629-325-629h-70l369 684h53z" horiz-adv-x="868" unicode="&#x5e;"/><glyph d="M1161-143h-1167v61h1167v-61z" horiz-adv-x="1155" unicode="&#x5f;"/><glyph d="M420 1139h-62l-358 295h92z" horiz-adv-x="419" unicode="&#x60;"/><glyph d="M877 0h-62v121q-134-146-342-146-89 0-166.5 37.5t-128.5 114.5-51 178q0 151 103 240.5t243 89.5q208 0 342-146v224q0 116-79.5 180.5t-198.5 64.5q-98 0-174-36.5t-144-118.5l-47 41q75 88 159.5 129t205.5 41q153 0 246.5-76.5t93.5-222.5v-715zM815 182v246q-56 74-141.5 113t-184.5 39q-132 0-213-78.5t-81-196.5 81-196 213-78q99 0 184.5 38.5t141.5 112.5z" horiz-adv-x="1052" unicode="&#x61;"/><glyph d="M238 0h-62v1366h62v-547q61 90 154.5 142.5t201.5 52.5q199 0 320.5-143t121.5-377q0-235-121-377t-321-142q-111 0-206 54.5t-150 136.5v-166zM238 758v-531q48-82 146.5-139t209.5-57q176 0 275.5 130.5t99.5 332.5-99.5 333-275.5 131q-110 0-209-58.5t-147-141.5z" horiz-adv-x="1159" unicode="&#x62;"/><glyph d="M123 496q0 143 56 260t163.5 187.5 247.5 70.5q115 0 192.5-41t145.5-125l-45-37q-58 79-128.5 113t-160.5 34q-124 0-216.5-62t-140-166-47.5-234q0-200 109.5-332.5t294.5-132.5q180 0 289 149l45-39q-68-84-145.5-125t-192.5-41q-140 0-247.5 71t-163.5 189-56 261z" horiz-adv-x="1009" unicode="&#x63;"/><glyph d="M983 0h-61v166q-54-82-150-136.5t-207-54.5q-200 0-321 142t-121 377q0 234 121.5 377t320.5 143q108 0 202-52.5t155-142.5v547h61v-1366zM922 227v531q-48 83-147 141.5t-210 58.5q-176 0-275.5-131t-99.5-333 99.5-332.5 275.5-130.5q111 0 210 57t147 139z" horiz-adv-x="1159" unicode="&#x64;"/><glyph d="M123 496q0 142 60 260.5t167.5 188 237.5 69.5q110 0 199-42t145-114.5 85.5-165 29.5-196.5v-21h-854q3-122 53-222t145-161 217-61q204 0 344 149l37-39q-79-82-170-124t-211-42q-214 0-349.5 147t-135.5 374zM586 958q-74 0-137.5-26t-109-68.5-78.5-98.5-49.5-115.5-18.5-119.5h788q0 58-15 117.5t-47 115.5-77 99-111.5 69.5-144.5 26.5z" horiz-adv-x="1169" unicode="&#x65;"/><glyph d="M467 934h-201v-934h-61v934h-164v55h164v105q0 138 65.5 215t182.5 77q71 0 116-26l-26-53q-43 24-90 24-93 0-140-61.5t-47-175.5v-105h201v-55z" horiz-adv-x="503" unicode="&#x66;"/><glyph d="M186-252l45 51q64-79 140.5-112t193.5-33q158 0 257.5 84.5t99.5 255.5v172q-55-83-150.5-139t-206.5-56q-199 0-320.5 143t-121.5 378q0 234 121.5 378t320.5 144q108 0 202-52.5t155-142.5v170h61v-995q0-202-113-298.5t-305-96.5q-130 0-213 30.5t-166 118.5zM922 227v531q-48 83-147 141.5t-210 58.5q-118 0-204-63t-128.5-167-42.5-236q0-202 99.5-333.5t275.5-131.5q111 0 210 58.5t147 141.5z" horiz-adv-x="1159" unicode="&#x67;"/><glyph d="M905 0h-61v694q0 147-65.5 205.5t-190.5 58.5q-98 0-196.5-54.5t-153.5-131.5v-772h-62v1366h62v-532q60 73 160.5 126.5t197.5 53.5q153 0 231-75.5t78-244.5v-694z" horiz-adv-x="1081" unicode="&#x68;"/><glyph d="M207 1159q-24 0-42 18t-18 42 18 41.5 42 17.5q25 0 42-17t17-42-17-42.5-42-17.5zM238 0h-62v989h62v-989z" horiz-adv-x="413" unicode="&#x69;"/><glyph d="M207 1159q-24 0-42 18t-18 42 18 41.5 42 17.5q25 0 42-17t17-42-17-42.5-42-17.5zM176 989h62v-1145q0-123-63-184t-173-61q-63 0-113 20l21 55q40-18 92-18 174 0 174 188v1145z" horiz-adv-x="413" unicode="&#x6a;"/><glyph d="M965 0h-88l-435 498-204-189v-309h-62v1366h62v-979l645 602h88l-482-446z" horiz-adv-x="1015" unicode="&#x6b;"/><glyph d="M238 0h-62v1366h62v-1366z" horiz-adv-x="413" unicode="&#x6c;"/><glyph d="M1401 0h-62v713q0 245-213 245-82 0-171.5-54t-135.5-130v-774h-61v713q0 245-213 245-81 0-168.5-54.5t-138.5-131.5v-772h-62v989h62v-155q38 60 129.5 120t187.5 60q109 0 174-55.5t82-133.5q45 74 137 131.5t189 57.5q264 0 264-301v-713z" horiz-adv-x="1576" unicode="&#x6d;"/><glyph d="M905 0h-61v690q0 147-66 207.5t-190 60.5q-98 0-196.5-54.5t-153.5-131.5v-772h-62v989h62v-155q60 73 160.5 126.5t197.5 53.5q153 0 231-77t78-247v-690z" horiz-adv-x="1081" unicode="&#x6e;"/><glyph d="M584-25q-136 0-242 69.5t-162.5 188-56.5 263.5 56.5 262.5 162.5 186.5 242 69q137 0 243-69t161.5-186 55.5-263-55.5-264-161.5-187.5-243-69.5zM584 31q92 0 168 38.5t124.5 103.5 74.5 148 26 175q0 91-26 173.5t-74.5 147-124.5 103-168 38.5q-121 0-212.5-66t-136.5-170-45-226q0-123 45-227.5t136.5-171 212.5-66.5z" horiz-adv-x="1167" unicode="&#x6f;"/><glyph d="M238 170v-547h-62v1366h62v-166q55 82 150 136.5t206 54.5q200 0 321-141.5t121-376.5q0-234-121.5-377.5t-320.5-143.5q-108 0-201.5 52.5t-154.5 142.5zM969 496q0 202-99.5 332t-275.5 130q-111 0-209.5-57t-146.5-139v-531q48-83 147-141.5t209-58.5q176 0 275.5 131.5t99.5 333.5z" horiz-adv-x="1159" unicode="&#x70;"/><glyph d="M983 989v-1366h-61v547q-61-90-155-142.5t-202-52.5q-199 0-320.5 143.5t-121.5 377.5q0 235 121 376.5t321 141.5q111 0 207-54.5t150-136.5v166h61zM922 231v531q-48 82-147 139t-210 57q-176 0-275.5-130t-99.5-332 99.5-333.5 275.5-131.5q111 0 210 58.5t147 141.5z" horiz-adv-x="1159" unicode="&#x71;"/><glyph d="M238 0h-62v989h62v-180q150 199 340 199v-74q-18 2-50 2-76 0-165.5-62t-124.5-133v-741z" horiz-adv-x="622" unicode="&#x72;"/><glyph d="M90 133l49 45q49-66 130-106.5t184-40.5q134 0 213 64.5t79 164.5q0 27-6 49.5t-20 41-27.5 33-39.5 28-44 22-52 19.5-52.5 16.5-57.5 15.5q-37 10-55 15t-52.5 15.5-52.5 18-46.5 21-43.5 26.5-34 31.5-28.5 38.5-16 46-6.5 55q0 113 90 187.5t245 74.5q225 0 340-150l-45-41q-44 63-120.5 99t-174.5 36q-126 0-200-58t-74-148q0-59 45-100t86.5-56 138.5-41q4-2 7-2.5t6-1.5q48-12 74-19t69-22 67.5-28.5 55.5-36 47-47.5 27.5-60.5 11.5-77.5q0-123-91-204t-263-81q-118 0-204 37t-159 121z" horiz-adv-x="929" unicode="&#x73;"/><glyph d="M356-25q-84 0-126 52t-42 147v760h-163v55h163v271h62v-271h201v-55h-201v-760q0-66 26.5-104.5t79.5-38.5q71 0 117 53l37-47q-65-62-154-62z" horiz-adv-x="524" unicode="&#x74;"/><glyph d="M905 0h-61v152q-68-76-164.5-126.5t-194.5-50.5q-153 0-231 75.5t-78 244.5v694h62v-694q0-147 65.5-205.5t190.5-58.5q99 0 197.5 52t152.5 128v778h61v-989z" horiz-adv-x="1081" unicode="&#x75;"/><glyph d="M518 0h-72l-423 989h71l389-917 387 917h72z" horiz-adv-x="964" unicode="&#x76;"/><glyph d="M1069 0h-49l-299 897-299-897h-49l-328 989h68l286-893 297 893h49l297-893 287 893h68z" horiz-adv-x="1441" unicode="&#x77;"/><glyph d="M922 0h-80l-359 467-358-467h-80l404 508-381 481h79l336-438 336 438h80l-381-481z" horiz-adv-x="966" unicode="&#x78;"/><glyph d="M102-387l13 57q37-16 86-16 52 0 87 29t68 106l90 205-423 995h71l389-917 387 917h72l-524-1222q-74-168-217-168-55 0-99 14z" horiz-adv-x="964" unicode="&#x79;"/><glyph d="M831 0h-708v55l629 879h-629v55h700v-55l-633-879h641v-55z" horiz-adv-x="954" unicode="&#x7a;"/><glyph d="M451-389h-127q-79 0-141 65.5t-62 165.5v480q0 61-28 104t-79 43v61q51 0 79 43.5t28 104.5v479q0 100 62 166t141 66h127v-62h-127q-58 0-100-49t-42-121v-479q0-139-92-178 92-39 92-178v-480q0-71 42-120.5t100-49.5h127v-61z" horiz-adv-x="485" unicode="&#x7b;"/><glyph d="M242-41h-62v1448h62v-1448z" horiz-adv-x="421" unicode="&#x7c;"/><glyph d="M35-389v61h127q58 0 99.5 49.5t41.5 120.5v480q0 139 92 178-92 39-92 178v479q0 72-41.5 121t-99.5 49h-127v62h127q79 0 141-66t62-166v-479q0-62 27.5-105t78.5-43v-61q-51 0-78.5-42.5t-27.5-104.5v-480q0-100-62-165.5t-141-65.5h-127z" horiz-adv-x="485" unicode="&#x7d;"/><glyph d="M897 926l61-6q-10-103-27-181t-46.5-148-77.5-107.5-113-37.5q-38 0-70 14.5t-51.5 33-40 55.5-29.5 59-26 68q-17 48-27.5 71.5t-29.5 54.5-42.5 44.5-55.5 13.5q-86 0-134-104t-69-314l-62 11q10 102 27.5 180t47 146.5 78 105.5 112.5 37q38 0 70-14.5t51.5-33 40-55.5 29.5-60 26-69q15-39 21.5-56.5t22-47.5 29-43.5 35.5-25 47-11.5q86 0 134 104t69 316z" horiz-adv-x="1015" unicode="&#x7e;"/><glyph d="M213 1008q28 0 48-20t20-48q0-26-20-46t-48-20-48 20-20 46q0 28 20 48t48 20zM170-377l23 1036h40l23-1036h-86z" horiz-adv-x="425" unicode="&#xa1;"/><glyph d="M598 958v-927q173 0 285 149l45-39q-66-82-142-123.5t-188-42.5v-180h-61v182q-125 14-220 87.5t-144.5 186-49.5 245.5q0 204 113 349.5t301 166.5v145h61v-143q112-1 188-42.5t142-123.5l-45-37q-111 147-285 147zM190 496q0-183 93-311.5t254-149.5v919q-161-21-254-148t-93-310z" horiz-adv-x="1009" unicode="&#xa2;"/><glyph d="M950 121l37-55q-98-95-254-95-44 0-81 8t-57 16.5-48 24.5q-31 17-47.5 25t-52.5 16.5-78 8.5q-80 0-244-84l-29 67q155 66 233.5 160.5t78.5 202.5q0 66-35 131h-338v61h293q-36 40-58 62-41 42-61.5 66t-49.5 67-42 91.5-13 106.5q0 74 31 143.5t85.5 123 135.5 86 174 32.5q114 0 213-58.5t146-153.5l-53-37q-31 73-115 130.5t-191 57.5q-148 0-253-87.5t-105-236.5q0-52 12-97t39.5-86.5 46-64 58.5-65.5q54-59 69-80h312v-61h-271q31-67 31-131 0-102-46-171.5t-130-133.5q58 20 113 20 34 0 69-9t53-17 54-25q88-47 155-47 65 0 126.5 28t86.5 60z" horiz-adv-x="1005" unicode="&#xa3;"/><glyph d="M1051 682q0-182-103-313l166-166-43-43-164 164q-127-121-317-121-191 0-318 121l-163-164-43 43 165 166q-102 130-102 313 0 187 104 315l-170 170 43 43 168-168q130 117 316 117 189 0 315-117l166 166 43-43-168-168q105-130 105-315zM590 264q122 0 213.5 60t135.5 153.5 44 204.5q0 110-44 203t-135.5 153-213.5 60q-121 0-212.5-60t-136-153-44.5-203q0-111 44.5-204.5t136-153.5 212.5-60z" horiz-adv-x="1181" unicode="&#xa4;"/><glyph d="M1122 1366h84l-506-713h506v-61h-549v-266h549v-62h-549v-264h-65v264h-549v62h549v266h-549v61h506l-506 713h84l498-709z" horiz-adv-x="1249" unicode="&#xa5;"/><glyph d="M242 760h-62v647h62v-647zM242-41h-62v647h62v-647z" horiz-adv-x="421" unicode="&#xa6;"/><glyph d="M602 367q102-38 153.5-95.5t51.5-152.5q0-133-96.5-209t-257.5-76q-71 0-128 12t-100 36-72.5 49-62.5 61l49 45q111-148 314-148 129 0 210.5 63t81.5 167q0 42-18 75.5t-41.5 54-70 40-78.5 29-91 24.5q-150 41-207 71-127 68-128 197 0 107 72.5 173.5t193.5 93.5q-131 36-198.5 91t-67.5 156q0 110 87.5 186t247.5 76q117 0 203-42t137-107l-45-41q-50 69-128 102t-167 33q-120 0-197-58.5t-77-152.5q0-37 15.5-65.5t39-47.5 61.5-35 73-26 83-22q3-1 5-1.5t4-.5q41-10 64.5-16t61.5-18 61-23 53-28 47.5-37 34.5-45 24.5-57.5 7.5-70.5q0-181-205-260zM463 854q-161-42-226-102.5t-65-145.5q0-38 19-68t42-49 73.5-38 82.5-27.5 99-25.5q29-7 44-11 105 46 159 103.5t54 142.5q0 41-18 74.5t-42 54.5-67.5 40.5-73.5 28.5-81 23z" horiz-adv-x="929" unicode="&#xa7;"/><glyph d="M207 1167q-23 0-40 17.5t-17 40.5 17 40 40 17 40-17 17-40-17-40.5-40-17.5zM621 1167q-23 0-40.5 17.5t-17.5 40.5 17.5 40 40.5 17 40-17 17-40-17-40.5-40-17.5z" horiz-adv-x="827" unicode="&#xa8;"/><glyph d="M797-25q-191 0-354 95t-258 258-95 354q0 192 95 355t258 257.5 354 94.5q144 0 275-56t225-150.5 150-225.5 56-275q0-143-56-274t-150-226-225-151-275-56zM797 1335q-132 0-253-52t-209-139.5-140-208.5-52-253q0-106 33.5-205.5t94-179.5 141-141 180-94 205.5-33q177 0 327.5 88t238 238.5 87.5 326.5q0 133-52 253.5t-139.5 208-208 139.5-253.5 52zM1051 416l41-41q-114-133-295-133-178 0-302 128.5t-124 315.5q0 186 124 312t302 126q183 0 295-131l-41-41q-39 53-110 85t-144 32q-148 0-257.5-108t-109.5-277q0-82 30.5-155t81.5-123.5 117.5-79.5 137.5-29q74 0 144.5 32.5t109.5 86.5z" horiz-adv-x="1593" unicode="&#xa9;"/><glyph d="M621 668h-56v77q-91-94-231-94-93 0-162.5 59t-69.5 156q0 99 69 156t163 57q140 0 231-94v139q0 71-55 111.5t-129 40.5q-132 0-211-102l-37 38q51 59 110 87t140 28q105 0 171.5-51.5t66.5-151.5v-456zM565 791v149q-36 45-92.5 69.5t-120.5 24.5q-85 0-137.5-48t-52.5-120q0-74 52.5-122t137.5-48q64 0 120.5 25t92.5 70z" horiz-adv-x="761" unicode="&#xaa;"/><glyph d="M469 129h-80l-328 369 328 362h80l-328-362zM684 129h-80l-328 369 328 362h80l-328-362z" horiz-adv-x="745" unicode="&#xab;"/><glyph d="M952 918v-467h-65v405h-828v62h893z" horiz-adv-x="1011" unicode="&#xac;"/><glyph d="M553 465h-492v61h492v-61z" horiz-adv-x="614" unicode="&#xad;"/><glyph d="M506 518q-180 0-307 127t-127 307q0 181 127 307.5t307 126.5q119 0 219-57.5t157.5-157.5 57.5-219q0-180-126.5-307t-307.5-127zM506 1333q-159 0-270-111t-111-270q0-157 111.5-269t269.5-112 269.5 112 111.5 269q0 159-111 270t-270 111zM702 702h-75l-129 197h-97v-197h-59v498h203q67 0 109-41.5t42-109.5q0-72-46-110t-81-38zM545 1145h-144v-189h144q43 0 66.5 26.5t23.5 66.5q0 43-23.5 69.5t-66.5 26.5z" horiz-adv-x="1011" unicode="&#xae;"/><glyph d="M662 1190h-580v55h580v-55z" horiz-adv-x="743" unicode="&#xaf;"/><glyph d="M279 934q-94 0-160 65.5t-66 159.5 66 160.5 160 66.5 160.5-66.5 66.5-160.5-66.5-159.5-160.5-65.5zM279 1325q-67 0-115.5-49t-48.5-117q0-67 48.5-115.5t115.5-48.5q68 0 116.5 48.5t48.5 115.5q0 68-49 117t-116 49z" horiz-adv-x="559" unicode="&#xb0;"/><glyph d="M952 659h-413v-454h-66v454h-414v62h414v442h66v-442h413v-62zM952 0h-893v61h893v-61z" horiz-adv-x="1011" unicode="&#xb1;"/><glyph d="M666 862h-555v49q117 85 196.5 149.5t151.5 136.5 107.5 137.5 35.5 127.5q0 90-61 134t-144 44q-77 0-138.5-29.5t-94.5-78.5l-41 37q41 58 114.5 91.5t161.5 33.5q37 0 72.5-7.5t70.5-25 61.5-43.5 42.5-66 16-88q0-56-25.5-114.5t-64.5-109.5-103.5-110.5-123.5-106-144-108.5h465v-53z" unicode="&#xb2;"/><glyph d="M385 848q-98 0-172.5 38t-110.5 97l41 35q37-53 99.5-85t142.5-32q102 0 161.5 48t59.5 132q0 90-67 134.5t-172 44.5q-56 0-74-3v56q12-2 74-2 98 0 162.5 41t64.5 125q0 75-61 119t-150 44q-74 0-128.5-25.5t-102.5-80.5l-39 37q103 123 272 123 112 0 190-58t78-157q0-47-18.5-84.5t-47.5-59-58-33.5-58-16q29-2 61.5-15.5t63.5-37 51.5-63.5 20.5-89q0-103-76-168t-207-65z" unicode="&#xb3;"/><glyph d="M420 1434l-359-295h-61l328 295h92z" horiz-adv-x="419" unicode="&#xb4;"/><glyph d="M238 109v-486h-62v1366h62v-694q0-268 260-268 95 0 193.5 54t152.5 130v778h61v-815q0-66 26.5-104.5t80.5-38.5q25 0 41 4l6-55q-30-5-47-5-154 0-168 177-66-76-159-126.5t-187-50.5q-195 0-260 134z" horiz-adv-x="1110" unicode="&#xb5;"/><glyph d="M731-205h-61v1510h-201v-1510h-61v867q-146 0-249.5 103t-103.5 249 103.5 249 249.5 103h323v-1571z" horiz-adv-x="919" unicode="&#xb6;"/><glyph d="M213 434q-28 0-48 20t-20 48q0 26 20 45.5t48 19.5 48-19.5 20-45.5q0-28-20-48t-48-20z" horiz-adv-x="425" unicode="&#xb7;"/><glyph d="M0-326l29 56q66-58 161-58 60 0 101 28.5t41 78.5q0 37-23 59.5t-67 22.5q-57 0-88-39l-45 26 63 175h61l-53-142q31 25 78 25 60 0 96.5-35t36.5-92q0-72-57.5-117t-143.5-45q-56 0-107.5 16.5t-82.5 40.5z" horiz-adv-x="391" unicode="&#xb8;"/><glyph d="M270 862h-61v737l-129-141-39 41 174 182h55v-819z" horiz-adv-x="393" unicode="&#xb9;"/><glyph d="M98 989q0 144 88.5 241t227.5 97q142 0 229.5-96.5t87.5-241.5q0-144-87.5-241t-229.5-97q-139 0-227.5 97.5t-88.5 240.5zM672 989q0 119-69.5 201t-188.5 82q-117 0-185.5-82t-68.5-201 68.5-201.5 185.5-82.5q119 0 188.5 82.5t69.5 201.5z" horiz-adv-x="829" unicode="&#xba;"/><glyph d="M469 498l-328-369h-80l328 369-328 362h80zM684 498l-328-369h-80l328 369-328 362h80z" horiz-adv-x="745" unicode="&#xbb;"/><glyph d="M270 547h-61v737l-129-141-39 41 174 182h55v-819zM1094 1366l-875-1366h-74l873 1366h76zM1325 231h-127v-231h-59v231h-402v54l381 534h80v-534h127v-54zM1139 285v475l-338-475h338z" horiz-adv-x="1419" unicode="&#xbc;"/><glyph d="M270 547h-61v737l-129-141-39 41 174 182h55v-819zM1094 1366l-875-1366h-74l873 1366h76zM1409 0h-555v49q118 86 197 150t151.5 136 108 137.5 35.5 127.5q0 90-61 134t-144 44q-77 0-139-29.5t-95-78.5l-41 37q41 58 115 91t162 33q47 0 91-12.5t83.5-38.5 63.5-72 24-106q0-56-25.5-114.5t-64.5-109.5-103.5-110.5-123.5-106-144-108.5h465v-53z" horiz-adv-x="1521" unicode="&#xbd;"/><glyph d="M385 532q-98 0-172.5 38.5t-110.5 97.5l41 34q37-53 99.5-84.5t142.5-31.5q102 0 161.5 48t59.5 132q0 90-67 134t-172 44q-62 0-74-2v55q12-2 74-2 98 0 162.5 41t64.5 125q0 75-61 119.5t-150 44.5q-74 0-128.5-25.5t-102.5-80.5l-39 36q103 123 272 123 112 0 190-58t78-157q0-47-18.5-84t-48-58.5-58-33.5-57.5-16q29-2 61.5-15.5t63.5-37 51.5-63.5 20.5-89q0-103-76-168.5t-207-65.5zM1376 1366l-874-1366h-74l872 1366h76zM1608 231h-127v-231h-60v231h-401v54l381 534h80v-534h127v-54zM1421 285v475l-338-475h338z" horiz-adv-x="1701" unicode="&#xbe;"/><glyph d="M569 940q0-26-19.5-46t-47.5-20-48 20-20 46q0 28 20 48t48 20 47.5-20 19.5-48zM586 483q0-40-13.5-76t-29-60-51.5-55.5-54.5-45-64.5-45.5q-43-29-65.5-45.5t-56.5-47-51-56.5-30.5-63.5-13.5-78.5q0-107 82-179.5t227-72.5q140 0 230.5 51t160.5 150l47-43q-153-219-438-219-174 0-277.5 91.5t-103.5 221.5q0 50 15.5 94.5t36 75.5 59 66 64.5 53.5 73 50.5q41 28 59.5 41t50 39.5 45.5 46 25.5 48 11.5 58.5q0 25-17.5 56t-49.5 53l39 47q90-67 90-156z" horiz-adv-x="800" unicode="&#xbf;"/><glyph d="M682 1481h-61l-359 295h92zM1260 0h-76l-152 367h-762l-151-367h-76l569 1366h78zM1008 428l-357 862-356-862h713z" horiz-adv-x="1302" unicode="&#xc0;"/><glyph d="M1038 1776l-358-295h-62l328 295h92zM1260 0h-76l-152 367h-762l-151-367h-76l569 1366h78zM1008 428l-357 862-356-862h713z" horiz-adv-x="1302" unicode="&#xc1;"/><glyph d="M895 1481h-57l-187 245-180-245h-57l200 295h74zM1260 0h-76l-152 367h-762l-151-367h-76l569 1366h78zM1008 428l-357 862-356-862h713z" horiz-adv-x="1302" unicode="&#xc2;"/><glyph d="M627 1606q-19 35-30 52t-32.5 33.5-46.5 16.5q-54 0-87.5-54.5t-33.5-164.5h-53q0 116 48 195t132 79q30 0 54-10.5t43-32.5 29.5-38.5 27.5-47.5q15-27 22.5-39.5t21.5-30 29.5-25 34.5-7.5q54 0 87.5 54.5t33.5 164.5h54q0-116-48.5-195t-132.5-79q-31 0-54.5 10t-43 33.5-28.5 38-27 47.5zM1260 0h-76l-152 367h-762l-151-367h-76l569 1366h78zM1008 428l-357 862-356-862h713z" horiz-adv-x="1302" unicode="&#xc3;"/><glyph d="M444 1509q-23 0-40 17.5t-17 40.5 17 40 40 17 40.5-17 17.5-40-17.5-40.5-40.5-17.5zM858 1509q-23 0-40 17.5t-17 40.5 17 40 40 17 40-17 17-40-17-40.5-40-17.5zM1260 0h-76l-152 367h-762l-151-367h-76l569 1366h78zM1008 428l-357 862-356-862h713z" horiz-adv-x="1302" unicode="&#xc4;"/><glyph d="M461 1665q0 78 56 134t134 56 133.5-56 55.5-134-55.5-134-133.5-56-134 56-56 134zM791 1665q0 59-41 100t-99 41q-59 0-100-41t-41-100 41-100 100-41q58 0 99 41t41 100zM1260 0h-76l-152 367h-762l-151-367h-76l569 1366h78zM1008 428l-357 862-356-862h713z" horiz-adv-x="1302" unicode="&#xc5;"/><glyph d="M1772 0h-836v367h-586l-231-367h-76l870 1366h859v-61h-771v-572h756v-61h-756v-611h771v-61zM936 428v862l-551-862h551z" horiz-adv-x="1904" unicode="&#xc6;"/><glyph d="M1239 236l53-43q-191-212-465-218l-34-94q31 25 77 25 60 0 97-35t37-92q0-72-57.5-117t-143.5-45q-56 0-108 16.5t-83 40.5l29 56q66-58 162-58 60 0 100.5 28.5t40.5 78.5q0 37-23 59.5t-67 22.5q-57 0-88-39l-45 26 47 129q-133 9-249.5 64t-201.5 146-134.5 219.5-49.5 275.5q0 154 53.5 287t145 224.5 217 143.5 266.5 52q288 0 475-215l-51-46q-73 92-185.5 145.5t-238.5 53.5q-127 0-239.5-47t-194-130.5-129-204.5-47.5-263q0-140 47.5-261t129-205 194-131.5 239.5-47.5q126 0 238.5 53.5t185.5 145.5z" horiz-adv-x="1366" unicode="&#xc7;"/><glyph d="M637 1481h-62l-358 295h92zM1016 0h-836v1366h836v-61h-770v-572h755v-61h-755v-611h770v-61z" horiz-adv-x="1142" unicode="&#xc8;"/><glyph d="M993 1776l-358-295h-62l328 295h92zM1016 0h-836v1366h836v-61h-770v-572h755v-61h-755v-611h770v-61z" horiz-adv-x="1142" unicode="&#xc9;"/><glyph d="M850 1481h-57l-187 245-180-245h-57l200 295h74zM1016 0h-836v1366h836v-61h-770v-572h755v-61h-755v-611h770v-61z" horiz-adv-x="1142" unicode="&#xca;"/><glyph d="M399 1509q-23 0-40 17.5t-17 40.5 17 40 40 17 40.5-17 17.5-40-17.5-40.5-40.5-17.5zM813 1509q-23 0-40 17.5t-17 40.5 17 40 40 17 40-17 17-40-17-40.5-40-17.5zM1016 0h-836v1366h836v-61h-770v-572h755v-61h-755v-611h770v-61z" horiz-adv-x="1142" unicode="&#xcb;"/><glyph d="M244 1481h-62l-358 295h92zM246 0h-66v1366h66v-1366z" horiz-adv-x="425" unicode="&#xcc;"/><glyph d="M600 1776l-358-295h-62l328 295h92zM246 0h-66v1366h66v-1366z" horiz-adv-x="425" unicode="&#xcd;"/><glyph d="M457 1481h-58l-186 245-180-245h-58l201 295h74zM246 0h-66v1366h66v-1366z" horiz-adv-x="425" unicode="&#xce;"/><glyph d="M6 1509q-23 0-40 17.5t-17 40.5 17 40 40 17 40-17 17-40-17-40.5-40-17.5zM420 1509q-23 0-40.5 17.5t-17.5 40.5 17.5 40 40.5 17 40-17 17-40-17-40.5-40-17.5zM246 0h-66v1366h66v-1366z" horiz-adv-x="425" unicode="&#xcf;"/><glyph d="M244 1366h405q155 0 284.5-55.5t215-149.5 133-218 47.5-261q0-139-47.5-262.5t-133-217-215-148-284.5-54.5h-405v649h-219v62h219v655zM309 61h340q142 0 258 48.5t192 132.5 117 197 41 243q0 103-25.5 196t-77 171-124 135-170 89-211.5 32h-340v-594h385v-62h-385v-588z" horiz-adv-x="1464" unicode="&#xd0;"/><glyph d="M682 1606q-19 35-30 52t-32.5 33.5-46.5 16.5q-54 0-87-54.5t-33-164.5h-54q0 116 48.5 195t132.5 79q30 0 53.5-10t43-33 29.5-38.5 27-47.5q19-35 30-52t32.5-33.5 46.5-16.5q54 0 87.5 54.5t33.5 164.5h53q0-116-48-195t-132-79q-25 0-46.5 8.5t-35 18.5-29 31.5-22.5 33-21 37.5zM1233 0h-66l-921 1260v-1260h-66v1366h66l921-1247v1247h66v-1366z" horiz-adv-x="1413" unicode="&#xd1;"/><glyph d="M813 1481h-61l-359 295h92zM133 682q0 198 78.5 358t227.5 254.5 343 94.5q193 0 342.5-94.5t228.5-255 79-357.5-79-357.5-228.5-255-342.5-94.5q-194 0-343 94.5t-227.5 254.5-78.5 358zM1360 682q0 187-71 333t-203 229-304 83q-174 0-306-83t-201.5-229-69.5-333q0-185 69.5-331t201.5-230 306-84q172 0 304 84t203 230 71 331z" horiz-adv-x="1564" unicode="&#xd2;"/><glyph d="M1169 1776l-358-295h-61l327 295h92zM133 682q0 198 78.5 358t227.5 254.5 343 94.5q193 0 342.5-94.5t228.5-255 79-357.5-79-357.5-228.5-255-342.5-94.5q-194 0-343 94.5t-227.5 254.5-78.5 358zM1360 682q0 187-71 333t-203 229-304 83q-174 0-306-83t-201.5-229-69.5-333q0-185 69.5-331t201.5-230 306-84q172 0 304 84t203 230 71 331z" horiz-adv-x="1564" unicode="&#xd3;"/><glyph d="M1026 1481h-57l-187 245-180-245h-57l200 295h74zM133 682q0 198 78.5 358t227.5 254.5 343 94.5q193 0 342.5-94.5t228.5-255 79-357.5-79-357.5-228.5-255-342.5-94.5q-194 0-343 94.5t-227.5 254.5-78.5 358zM1360 682q0 187-71 333t-203 229-304 83q-174 0-306-83t-201.5-229-69.5-333q0-185 69.5-331t201.5-230 306-84q172 0 304 84t203 230 71 331z" horiz-adv-x="1564" unicode="&#xd4;"/><glyph d="M758 1606q-19 35-30 52t-32.5 33.5-46.5 16.5q-54 0-87.5-54.5t-33.5-164.5h-53q0 116 48 195t132 79q30 0 54-10.5t43-32.5 29.5-38.5 27.5-47.5q19-35 30-52t32.5-33.5 46.5-16.5q54 0 87 54.5t33 164.5h54q0-116-48.5-195t-132.5-79q-31 0-54.5 10t-43 33.5-28.5 38-27 47.5zM133 682q0 198 78.5 358t227.5 254.5 343 94.5q193 0 342.5-94.5t228.5-255 79-357.5-79-357.5-228.5-255-342.5-94.5q-194 0-343 94.5t-227.5 254.5-78.5 358zM1360 682q0 187-71 333t-203 229-304 83q-174 0-306-83t-201.5-229-69.5-333q0-185 69.5-331t201.5-230 306-84q172 0 304 84t203 230 71 331z" horiz-adv-x="1564" unicode="&#xd5;"/><glyph d="M575 1509q-23 0-40 17.5t-17 40.5 17 40 40 17 40.5-17 17.5-40-17.5-40.5-40.5-17.5zM989 1509q-23 0-40 17.5t-17 40.5 17 40 40 17 40.5-17 17.5-40-17.5-40.5-40.5-17.5zM133 682q0 198 78.5 358t227.5 254.5 343 94.5q193 0 342.5-94.5t228.5-255 79-357.5-79-357.5-228.5-255-342.5-94.5q-194 0-343 94.5t-227.5 254.5-78.5 358zM1360 682q0 187-71 333t-203 229-304 83q-174 0-306-83t-201.5-229-69.5-333q0-185 69.5-331t201.5-230 306-84q172 0 304 84t203 230 71 331z" horiz-adv-x="1564" unicode="&#xd6;"/><glyph d="M823 324l-317 317-318-317-43 43 318 317-318 317 43 43 318-317 317 317 43-43-317-317 317-317z" horiz-adv-x="1011" unicode="&#xd7;"/><glyph d="M1356 1430l-146-201q106-97 164-239t58-308q0-197-79-357.5t-228.5-255-342.5-94.5q-222 0-389 125l-143-198-45 32 145 203q-103 97-160 238.5t-57 306.5q0 198 78.5 358t227.5 254.5 343 94.5q221 0 385-123l144 198zM205 682q0-152 47.5-279t136.5-213l741 1024q-148 113-348 113-174 0-306-83t-201.5-229-69.5-333zM782 37q172 0 304 84t203 230 71 331q0 153-48 280t-138 214l-742-1022q145-117 350-117z" horiz-adv-x="1564" unicode="&#xd8;"/><glyph d="M719 1481h-62l-358 295h92zM180 518v848h66v-848q0-229 114-355t328-126 328 126 114 355v848h66v-848q0-257-131-400t-377-143-377 143.5-131 399.5z" horiz-adv-x="1376" unicode="&#xd9;"/><glyph d="M1075 1776l-358-295h-62l328 295h92zM180 518v848h66v-848q0-229 114-355t328-126 328 126 114 355v848h66v-848q0-257-131-400t-377-143-377 143.5-131 399.5z" horiz-adv-x="1376" unicode="&#xda;"/><glyph d="M932 1481h-58l-186 245-180-245h-57l200 295h74zM180 518v848h66v-848q0-229 114-355t328-126 328 126 114 355v848h66v-848q0-257-131-400t-377-143-377 143.5-131 399.5z" horiz-adv-x="1376" unicode="&#xdb;"/><glyph d="M481 1509q-23 0-40 17.5t-17 40.5 17 40 40 17 40.5-17 17.5-40-17.5-40.5-40.5-17.5zM895 1509q-23 0-40 17.5t-17 40.5 17 40 40 17 40-17 17-40-17-40.5-40-17.5zM180 518v848h66v-848q0-229 114-355t328-126 328 126 114 355v848h66v-848q0-257-131-400t-377-143-377 143.5-131 399.5z" horiz-adv-x="1376" unicode="&#xdc;"/><glyph d="M1012 1776l-359-295h-61l328 295h92zM657 0h-65v592l-549 774h84l498-709 497 709h84l-549-774v-592z" horiz-adv-x="1249" unicode="&#xdd;"/><glyph d="M246 0h-66v1366h66v-264h407q123 0 215.5-54t138.5-141.5 46-193.5q0-162-109-273.5t-291-111.5h-407v-328zM981 713q0 143-90.5 235t-239.5 92h-405v-651h405q149 0 239.5 90.5t90.5 233.5z" horiz-adv-x="1136" unicode="&#xde;"/><glyph d="M555 750q179-19 285-126t106-264q0-174-108-279.5t-285-105.5q-146 0-252 78l31 49q46-34 105-52.5t114-18.5q154 0 241 89t87 240q0 78-30.5 143.5t-89.5 116-156.5 76.5-221.5 21v53q186 0 282.5 86t96.5 215q0 64-24.5 115.5t-64.5 82-87.5 46.5-96.5 16q-138 0-218.5-79t-80.5-230v-1022h-61v1022q0 169 95 266.5t267 97.5q61 0 120.5-21t108.5-59.5 79-101 30-137.5q0-115-76-202t-196-115z" horiz-adv-x="1069" unicode="&#xdf;"/><glyph d="M569 1139h-61l-358 295h92zM877 0h-62v121q-134-146-342-146-89 0-166.5 37.5t-128.5 114.5-51 178q0 151 103 240.5t243 89.5q208 0 342-146v224q0 116-79.5 180.5t-198.5 64.5q-98 0-174-36.5t-144-118.5l-47 41q75 88 159.5 129t205.5 41q153 0 246.5-76.5t93.5-222.5v-715zM815 182v246q-56 74-141.5 113t-184.5 39q-132 0-213-78.5t-81-196.5 81-196 213-78q99 0 184.5 38.5t141.5 112.5z" horiz-adv-x="1052" unicode="&#xe0;"/><glyph d="M926 1434l-359-295h-61l328 295h92zM877 0h-62v121q-134-146-342-146-89 0-166.5 37.5t-128.5 114.5-51 178q0 151 103 240.5t243 89.5q208 0 342-146v224q0 116-79.5 180.5t-198.5 64.5q-98 0-174-36.5t-144-118.5l-47 41q75 88 159.5 129t205.5 41q153 0 246.5-76.5t93.5-222.5v-715zM815 182v246q-56 74-141.5 113t-184.5 39q-132 0-213-78.5t-81-196.5 81-196 213-78q99 0 184.5 38.5t141.5 112.5z" horiz-adv-x="1052" unicode="&#xe1;"/><glyph d="M782 1139h-57l-186 245-181-245h-57l201 295h73zM877 0h-62v121q-134-146-342-146-89 0-166.5 37.5t-128.5 114.5-51 178q0 151 103 240.5t243 89.5q208 0 342-146v224q0 116-79.5 180.5t-198.5 64.5q-98 0-174-36.5t-144-118.5l-47 41q75 88 159.5 129t205.5 41q153 0 246.5-76.5t93.5-222.5v-715zM815 182v246q-56 74-141.5 113t-184.5 39q-132 0-213-78.5t-81-196.5 81-196 213-78q99 0 184.5 38.5t141.5 112.5z" horiz-adv-x="1052" unicode="&#xe2;"/><glyph d="M514 1264q-15 27-22.5 39.5t-21.5 30-29.5 25-34.5 7.5q-54 0-87.5-54.5t-33.5-164.5h-54q0 116 48.5 195t132.5 79q30 0 53.5-10t43-33 29.5-38.5 27-47.5q19-35 30-52t32.5-33.5 46.5-16.5q54 0 87.5 54.5t33.5 164.5h53q0-116-48-195t-132-79q-25 0-46.5 8.5t-35 18.5-29 31.5-22.5 33-21 37.5zM877 0h-62v121q-134-146-342-146-89 0-166.5 37.5t-128.5 114.5-51 178q0 151 103 240.5t243 89.5q208 0 342-146v224q0 116-79.5 180.5t-198.5 64.5q-98 0-174-36.5t-144-118.5l-47 41q75 88 159.5 129t205.5 41q153 0 246.5-76.5t93.5-222.5v-715zM815 182v246q-56 74-141.5 113t-184.5 39q-132 0-213-78.5t-81-196.5 81-196 213-78q99 0 184.5 38.5t141.5 112.5z" horiz-adv-x="1052" unicode="&#xe3;"/><glyph d="M332 1167q-23 0-40.5 17.5t-17.5 40.5 17.5 40 40.5 17 40-17 17-40-17-40.5-40-17.5zM745 1167q-23 0-40 17.5t-17 40.5 17 40 40 17 40.5-17 17.5-40-17.5-40.5-40.5-17.5zM877 0h-62v121q-134-146-342-146-89 0-166.5 37.5t-128.5 114.5-51 178q0 151 103 240.5t243 89.5q208 0 342-146v224q0 116-79.5 180.5t-198.5 64.5q-98 0-174-36.5t-144-118.5l-47 41q75 88 159.5 129t205.5 41q153 0 246.5-76.5t93.5-222.5v-715zM815 182v246q-56 74-141.5 113t-184.5 39q-132 0-213-78.5t-81-196.5 81-196 213-78q99 0 184.5 38.5t141.5 112.5z" horiz-adv-x="1052" unicode="&#xe4;"/><glyph d="M348 1323q0 78 56.5 134t134.5 56 133-56 55-134-55-134-133-56-134.5 56-56.5 134zM678 1323q0 59-40.5 100t-98.5 41q-59 0-100.5-41.5t-41.5-99.5 41.5-99.5 100.5-41.5q58 0 98.5 41t40.5 100zM877 0h-62v121q-134-146-342-146-89 0-166.5 37.5t-128.5 114.5-51 178q0 151 103 240.5t243 89.5q208 0 342-146v224q0 116-79.5 180.5t-198.5 64.5q-98 0-174-36.5t-144-118.5l-47 41q75 88 159.5 129t205.5 41q153 0 246.5-76.5t93.5-222.5v-715zM815 182v246q-56 74-141.5 113t-184.5 39q-132 0-213-78.5t-81-196.5 81-196 213-78q99 0 184.5 38.5t141.5 112.5z" horiz-adv-x="1052" unicode="&#xe5;"/><glyph d="M1731 475h-801q6-188 111-316t274-128q190 0 321 149l37-39q-73-83-157-124.5t-199-41.5q-140 0-247 75.5t-159 215.5q-43-134-148.5-212.5t-244.5-78.5q-172 0-281.5 89t-109.5 243q0 102 52.5 178t135 113 181.5 37q228 0 372-141v219q0 117-82.5 181t-220.5 64q-107 0-189.5-36.5t-156.5-118.5l-47 41q144 170 410 170 56 0 109.5-12.5t105.5-40 87-79.5 42-122q47 110 148 182t222 72q85 0 156.5-27.5t122.5-76 86.5-114 52.5-141.5 17-159v-21zM930 530h735q0 59-13 117.5t-42 115-70.5 99.5-104.5 69.5-139 26.5q-68 0-127.5-26t-101.5-68.5-73-98.5-46.5-115.5-17.5-119.5zM868 385v39q-61 75-153.5 115.5t-198.5 40.5q-145 0-233-78.5t-88-196.5 88-196 233-78q160 0 256 104t96 250z" horiz-adv-x="1853" unicode="&#xe6;"/><glyph d="M594 31q180 0 289 149l45-39q-65-79-137.5-120.5t-176.5-45.5l-34-94q31 25 77 25 60 0 97-35t37-92q0-72-57.5-117t-143.5-45q-56 0-108 16.5t-83 40.5l29 56q66-58 162-58 60 0 100.5 28.5t40.5 78.5q0 37-23 59.5t-67 22.5q-57 0-88-39l-45 26 47 129q-130 9-229.5 81.5t-151 187-51.5 250.5q0 143 56 260t163.5 187.5 247.5 70.5q115 0 192.5-41t145.5-125l-45-37q-58 79-128.5 113t-160.5 34q-124 0-216.5-62t-140-166-47.5-234q0-200 109.5-332.5t294.5-132.5z" horiz-adv-x="1009" unicode="&#xe7;"/><glyph d="M616 1139h-61l-358 295h92zM123 496q0 142 60 260.5t167.5 188 237.5 69.5q110 0 199-42t145-114.5 85.5-165 29.5-196.5v-21h-854q3-122 53-222t145-161 217-61q204 0 344 149l37-39q-79-82-170-124t-211-42q-214 0-349.5 147t-135.5 374zM586 958q-74 0-137.5-26t-109-68.5-78.5-98.5-49.5-115.5-18.5-119.5h788q0 58-15 117.5t-47 115.5-77 99-111.5 69.5-144.5 26.5z" horiz-adv-x="1169" unicode="&#xe8;"/><glyph d="M973 1434l-359-295h-61l328 295h92zM123 496q0 142 60 260.5t167.5 188 237.5 69.5q110 0 199-42t145-114.5 85.5-165 29.5-196.5v-21h-854q3-122 53-222t145-161 217-61q204 0 344 149l37-39q-79-82-170-124t-211-42q-214 0-349.5 147t-135.5 374zM586 958q-74 0-137.5-26t-109-68.5-78.5-98.5-49.5-115.5-18.5-119.5h788q0 58-15 117.5t-47 115.5-77 99-111.5 69.5-144.5 26.5z" horiz-adv-x="1169" unicode="&#xe9;"/><glyph d="M829 1139h-57l-186 245-180-245h-58l201 295h74zM123 496q0 142 60 260.5t167.5 188 237.5 69.5q110 0 199-42t145-114.5 85.5-165 29.5-196.5v-21h-854q3-122 53-222t145-161 217-61q204 0 344 149l37-39q-79-82-170-124t-211-42q-214 0-349.5 147t-135.5 374zM586 958q-74 0-137.5-26t-109-68.5-78.5-98.5-49.5-115.5-18.5-119.5h788q0 58-15 117.5t-47 115.5-77 99-111.5 69.5-144.5 26.5z" horiz-adv-x="1169" unicode="&#xea;"/><glyph d="M379 1167q-23 0-40 17.5t-17 40.5 17 40 40 17 40-17 17-40-17-40.5-40-17.5zM793 1167q-23 0-40.5 17.5t-17.5 40.5 17.5 40 40.5 17 40-17 17-40-17-40.5-40-17.5zM123 496q0 142 60 260.5t167.5 188 237.5 69.5q110 0 199-42t145-114.5 85.5-165 29.5-196.5v-21h-854q3-122 53-222t145-161 217-61q204 0 344 149l37-39q-79-82-170-124t-211-42q-214 0-349.5 147t-135.5 374zM586 958q-74 0-137.5-26t-109-68.5-78.5-98.5-49.5-115.5-18.5-119.5h788q0 58-15 117.5t-47 115.5-77 99-111.5 69.5-144.5 26.5z" horiz-adv-x="1169" unicode="&#xeb;"/><glyph d="M238 1139h-62l-358 295h92zM238 0h-62v989h62v-989z" horiz-adv-x="413" unicode="&#xec;"/><glyph d="M594 1434l-358-295h-62l328 295h92zM238 0h-62v989h62v-989z" horiz-adv-x="413" unicode="&#xed;"/><glyph d="M451 1139h-58l-186 245-180-245h-58l201 295h74zM238 0h-62v989h62v-989z" horiz-adv-x="413" unicode="&#xee;"/><glyph d="M0 1167q-23 0-40 17.5t-17 40.5 17 40 40 17 40-17 17-40-17-40.5-40-17.5zM414 1167q-23 0-40.5 17.5t-17.5 40.5 17.5 40 40.5 17 40-17 17-40-17-40.5-40-17.5zM238 0h-62v989h62v-989z" horiz-adv-x="413" unicode="&#xef;"/><glyph d="M838 1315l-199-88q405-330 405-731 0-146-55.5-264t-161.5-187.5-243-69.5q-136 0-242 69.5t-162.5 188-56.5 263.5 56.5 262.5 162.5 186.5 242 69q94 0 172.5-39.5t146.5-134.5q-127 202-332 356l-288-127-23 53 258 115q-76 54-178 117l37 55q109-64 211-141l227 100zM584 31q92 0 168 38.5t124.5 103.5 74.5 148 26 175q0 91-26 173.5t-74.5 147-124.5 103-168 38.5q-121 0-212.5-66t-136.5-170-45-226q0-123 45-227.5t136.5-171 212.5-66.5z" horiz-adv-x="1167" unicode="&#xf0;"/><glyph d="M516 1264q-15 27-22.5 39.5t-21.5 30-29.5 25-34.5 7.5q-54 0-87.5-54.5t-33.5-164.5h-54q0 116 48.5 195t132.5 79q30 0 53.5-10t43-33 29.5-38.5 27-47.5q19-35 30-52t32.5-33.5 46.5-16.5q54 0 87.5 54.5t33.5 164.5h53q0-116-48-195t-132-79q-25 0-46.5 8.5t-35 18.5-29 31.5-22.5 33-21 37.5zM905 0h-61v690q0 147-66 207.5t-190 60.5q-98 0-196.5-54.5t-153.5-131.5v-772h-62v989h62v-155q60 73 160.5 126.5t197.5 53.5q153 0 231-77t78-247v-690z" horiz-adv-x="1081" unicode="&#xf1;"/><glyph d="M614 1139h-61l-358 295h92zM584-25q-136 0-242 69.5t-162.5 188-56.5 263.5 56.5 262.5 162.5 186.5 242 69q137 0 243-69t161.5-186 55.5-263-55.5-264-161.5-187.5-243-69.5zM584 31q92 0 168 38.5t124.5 103.5 74.5 148 26 175q0 91-26 173.5t-74.5 147-124.5 103-168 38.5q-121 0-212.5-66t-136.5-170-45-226q0-123 45-227.5t136.5-171 212.5-66.5z" horiz-adv-x="1167" unicode="&#xf2;"/><glyph d="M971 1434l-359-295h-61l328 295h92zM584-25q-136 0-242 69.5t-162.5 188-56.5 263.5 56.5 262.5 162.5 186.5 242 69q137 0 243-69t161.5-186 55.5-263-55.5-264-161.5-187.5-243-69.5zM584 31q92 0 168 38.5t124.5 103.5 74.5 148 26 175q0 91-26 173.5t-74.5 147-124.5 103-168 38.5q-121 0-212.5-66t-136.5-170-45-226q0-123 45-227.5t136.5-171 212.5-66.5z" horiz-adv-x="1167" unicode="&#xf3;"/><glyph d="M827 1139h-57l-186 245-181-245h-57l201 295h74zM584-25q-136 0-242 69.5t-162.5 188-56.5 263.5 56.5 262.5 162.5 186.5 242 69q137 0 243-69t161.5-186 55.5-263-55.5-264-161.5-187.5-243-69.5zM584 31q92 0 168 38.5t124.5 103.5 74.5 148 26 175q0 91-26 173.5t-74.5 147-124.5 103-168 38.5q-121 0-212.5-66t-136.5-170-45-226q0-123 45-227.5t136.5-171 212.5-66.5z" horiz-adv-x="1167" unicode="&#xf4;"/><glyph d="M559 1264q-15 27-22.5 39.5t-21.5 30-29.5 25-34.5 7.5q-54 0-87.5-54.5t-33.5-164.5h-54q0 116 48.5 195t132.5 79q30 0 53.5-10t43-33 29.5-38.5 27-47.5q19-35 30-52t32.5-33.5 46.5-16.5q54 0 87.5 54.5t33.5 164.5h53q0-116-48-195t-132-79q-25 0-46.5 8.5t-35 18.5-29 31.5-22.5 33-21 37.5zM584-25q-136 0-242 69.5t-162.5 188-56.5 263.5 56.5 262.5 162.5 186.5 242 69q137 0 243-69t161.5-186 55.5-263-55.5-264-161.5-187.5-243-69.5zM584 31q92 0 168 38.5t124.5 103.5 74.5 148 26 175q0 91-26 173.5t-74.5 147-124.5 103-168 38.5q-121 0-212.5-66t-136.5-170-45-226q0-123 45-227.5t136.5-171 212.5-66.5z" horiz-adv-x="1167" unicode="&#xf5;"/><glyph d="M377 1167q-23 0-40.5 17.5t-17.5 40.5 17.5 40 40.5 17 40-17 17-40-17-40.5-40-17.5zM791 1167q-23 0-40.5 17.5t-17.5 40.5 17.5 40 40.5 17 40-17 17-40-17-40.5-40-17.5zM584-25q-136 0-242 69.5t-162.5 188-56.5 263.5 56.5 262.5 162.5 186.5 242 69q137 0 243-69t161.5-186 55.5-263-55.5-264-161.5-187.5-243-69.5zM584 31q92 0 168 38.5t124.5 103.5 74.5 148 26 175q0 91-26 173.5t-74.5 147-124.5 103-168 38.5q-121 0-212.5-66t-136.5-170-45-226q0-123 45-227.5t136.5-171 212.5-66.5z" horiz-adv-x="1167" unicode="&#xf6;"/><glyph d="M524 1028q-27 0-47 21t-20 49 19.5 46.5 47.5 18.5 48-19 20-46q0-28-20-49t-48-21zM987 659h-928v62h928v-62zM524 205q-28 0-47.5 19.5t-19.5 47.5 19.5 48 47.5 20 48-20 20-48-20-47.5-48-19.5z" horiz-adv-x="1046" unicode="&#xf7;"/><glyph d="M1024 1057l-125-172q145-148 145-389 0-146-55.5-264t-161.5-187.5-243-69.5q-154 0-275 93l-119-166-45 32 123 170q-69 71-107 172.5t-38 219.5q0 145 56.5 262.5t162.5 186.5 242 69q157 0 276-92l121 165zM190 496q0-203 115-340l518 714q-98 88-239 88-121 0-212.5-66t-136.5-170-45-226zM584 31q92 0 168 38.5t124.5 103.5 74.5 148 26 175q0 205-115 338l-516-717q99-86 238-86z" horiz-adv-x="1167" unicode="&#xf8;"/><glyph d="M571 1139h-61l-358 295h92zM905 0h-61v152q-68-76-164.5-126.5t-194.5-50.5q-153 0-231 75.5t-78 244.5v694h62v-694q0-147 65.5-205.5t190.5-58.5q99 0 197.5 52t152.5 128v778h61v-989z" horiz-adv-x="1081" unicode="&#xf9;"/><glyph d="M928 1434l-359-295h-61l328 295h92zM905 0h-61v152q-68-76-164.5-126.5t-194.5-50.5q-153 0-231 75.5t-78 244.5v694h62v-694q0-147 65.5-205.5t190.5-58.5q99 0 197.5 52t152.5 128v778h61v-989z" horiz-adv-x="1081" unicode="&#xfa;"/><glyph d="M784 1139h-57l-186 245-181-245h-57l201 295h74zM905 0h-61v152q-68-76-164.5-126.5t-194.5-50.5q-153 0-231 75.5t-78 244.5v694h62v-694q0-147 65.5-205.5t190.5-58.5q99 0 197.5 52t152.5 128v778h61v-989z" horiz-adv-x="1081" unicode="&#xfb;"/><glyph d="M334 1167q-23 0-40.5 17.5t-17.5 40.5 17.5 40 40.5 17 40-17 17-40-17-40.5-40-17.5zM748 1167q-23 0-40.5 17.5t-17.5 40.5 17.5 40 40.5 17 40-17 17-40-17-40.5-40-17.5zM905 0h-61v152q-68-76-164.5-126.5t-194.5-50.5q-153 0-231 75.5t-78 244.5v694h62v-694q0-147 65.5-205.5t190.5-58.5q99 0 197.5 52t152.5 128v778h61v-989z" horiz-adv-x="1081" unicode="&#xfc;"/><glyph d="M870 1434l-358-295h-61l327 295h92zM102-387l13 57q37-16 86-16 52 0 87 29t68 106l90 205-423 995h71l389-917 387 917h72l-524-1222q-74-168-217-168-55 0-99 14z" horiz-adv-x="964" unicode="&#xfd;"/><glyph d="M238 170v-547h-62v1743h62v-543q55 82 150 136.5t206 54.5q200 0 321-141.5t121-376.5q0-234-121.5-377.5t-320.5-143.5q-108 0-201.5 52.5t-154.5 142.5zM969 496q0 202-99.5 332t-275.5 130q-111 0-209.5-57t-146.5-139v-531q48-83 147-141.5t209-58.5q176 0 275.5 131.5t99.5 333.5z" horiz-adv-x="1159" unicode="&#xfe;"/><glyph d="M276 1167q-23 0-40 17.5t-17 40.5 17 40 40 17 40.5-17 17.5-40-17.5-40.5-40.5-17.5zM690 1167q-23 0-40 17.5t-17 40.5 17 40 40 17 40.5-17 17.5-40-17.5-40.5-40.5-17.5zM102-387l13 57q37-16 86-16 52 0 87 29t68 106l90 205-423 995h71l389-917 387 917h72l-524-1222q-74-168-217-168-55 0-99 14z" horiz-adv-x="964" unicode="&#xff;"/><glyph d="M2169 0h-836v322q-80-166-228-256.5t-323-90.5q-194 0-343 94.5t-227.5 254.5-78.5 358q0 147 46 276.5t129 224 205.5 149 268.5 54.5q175 0 323-88.5t228-253.5v322h836v-61h-770v-572h755v-61h-755v-611h770v-61zM1333 446v474q-69 200-214 302.5t-337 102.5q-262 0-419.5-179t-157.5-464q0-186 69.5-332t201.5-229.5 306-83.5q191 0 336.5 104t214.5 305z" horiz-adv-x="2301" unicode="&#x152;"/><glyph d="M1901 475h-854q3-122 53-222t145-161 217-61q204 0 344 149l37-39q-79-82-170-124t-211-42q-82 0-153 23t-119.5 58-86.5 81.5-59 89-32 84.5q-12-41-30.5-81t-54.5-88-81-83.5-113.5-59.5-148.5-24q-136 0-242 69.5t-162.5 188-56.5 263.5 56.5 262.5 162.5 186.5 242 69q67 0 127-16.5t103.5-45 78.5-63 59-73.5 38.5-73 21.5-65q11 39 31.5 81t57.5 88.5 83.5 82.5 114 60 143.5 24q110 0 199-42t145-114.5 85.5-165 29.5-196.5v-21zM584 958q-121 0-212.5-66t-136.5-170-45-226q0-124 45-228.5t136.5-171.5 212.5-67q92 0 168 39t124.5 104 74.5 148.5 26 175.5q0 91-26 173.5t-74.5 147-124.5 103-168 38.5zM1047 530h788q0 58-15 117.5t-47 115.5-77 99-111.5 69.5-144.5 26.5q-74 0-137.5-26t-109-68.5-78.5-98.5-49.5-115.5-18.5-119.5z" horiz-adv-x="2023" unicode="&#x153;"/><glyph d="M418 1509q-23 0-40.5 17.5t-17.5 40.5 17.5 40 40.5 17 40-17 17-40-17-40.5-40-17.5zM831 1509q-23 0-40 17.5t-17 40.5 17 40 40 17 40.5-17 17.5-40-17.5-40.5-40.5-17.5zM657 0h-65v592l-549 774h84l498-709 497 709h84l-549-774v-592z" horiz-adv-x="1249" unicode="&#x178;"/><glyph d="M651 668h-57v438q0 96-43.5 135t-124.5 39q-64 0-127.5-35t-99.5-82v-495h-58v888h58v-346q40 47 107.5 82t133.5 35q105 0 158-52t53-171v-436z" horiz-adv-x="792" unicode="&#x2b0;"/><glyph d="M481 1139h-57l-186 245-181-245h-57l201 295h73z" horiz-adv-x="481" unicode="&#x2c6;"/><glyph d="M283 1264q-19 35-30 52t-32.5 33.5-46.5 16.5q-54 0-87.5-54.5t-33.5-164.5h-53q0 116 48 195t132 79q30 0 54-10.5t43-32.5 29.5-38.5 27.5-47.5q15-27 22.5-39.5t21.5-30 29.5-25 34.5-7.5q54 0 87.5 54.5t33.5 164.5h53q0-116-48-195t-132-79q-31 0-54.5 10t-43 33.5-28.5 38-27 47.5z" horiz-adv-x="616" unicode="&#x2dc;"/><glyph horiz-adv-x="927" unicode="&#x2000;"/><glyph horiz-adv-x="1855" unicode="&#x2001;"/><glyph horiz-adv-x="927" unicode="&#x2002;"/><glyph horiz-adv-x="1855" unicode="&#x2003;"/><glyph horiz-adv-x="618" unicode="&#x2004;"/><glyph horiz-adv-x="463" unicode="&#x2005;"/><glyph horiz-adv-x="309" unicode="&#x2006;"/><glyph horiz-adv-x="309" unicode="&#x2007;"/><glyph horiz-adv-x="231" unicode="&#x2008;"/><glyph horiz-adv-x="371" unicode="&#x2009;"/><glyph horiz-adv-x="103" unicode="&#x200a;"/><glyph d="M553 465h-492v61h492v-61z" horiz-adv-x="614" unicode="&#x2010;"/><glyph d="M553 465h-492v61h492v-61z" horiz-adv-x="614" unicode="&#x2011;"/><glyph d="M553 465h-492v61h492v-61z" horiz-adv-x="614" unicode="&#x2012;"/><glyph d="M1153 465h-1092v61h1092v-61z" horiz-adv-x="1214" unicode="&#x2013;"/><glyph d="M1645 465h-1584v61h1584v-61z" horiz-adv-x="1705" unicode="&#x2014;"/><glyph d="M240 1386l45-36q-49-36-79-89t-30-100l17 2q29 0 47-19.5t18-47.5q0-27-18.5-46.5t-46.5-19.5q-34 0-57 29t-23 80q0 73 37 141.5t90 105.5z" horiz-adv-x="425" unicode="&#x2018;"/><glyph d="M164 1030l-45 37q49 36 78.5 88.5t29.5 99.5l-16-2q-29 0-47.5 20t-18.5 48q0 27 18.5 46t47.5 19q34 0 57-29t23-79q0-73-37.5-142t-89.5-106z" horiz-adv-x="425" unicode="&#x2019;"/><glyph d="M164-242l-45 37q49 36 78.5 89t29.5 100l-16-2q-29 0-47.5 19.5t-18.5 47.5q0 27 18.5 46.5t47.5 19.5q34 0 57-29t23-80q0-73-37.5-142t-89.5-106z" horiz-adv-x="425" unicode="&#x201a;"/><glyph d="M262 1386l45-36q-49-36-78.5-89t-29.5-100l16 2q29 0 47.5-19.5t18.5-47.5q0-27-18.5-46.5t-47.5-19.5q-34 0-57 29t-23 80q0 73 37 141.5t90 105.5zM514 1386l45-36q-49-36-78.5-89t-29.5-100l16 2q29 0 47-19.5t18-47.5q0-27-18.5-46.5t-46.5-19.5q-34 0-57 29t-23 80q0 73 37 141.5t90 105.5z" horiz-adv-x="677" unicode="&#x201c;"/><glyph d="M164 1030l-45 37q49 36 78.5 88.5t29.5 99.5l-16-2q-29 0-47.5 20t-18.5 48q0 27 18.5 46t47.5 19q34 0 57-29t23-79q0-73-37.5-142t-89.5-106zM416 1030l-45 37q49 36 78.5 88.5t29.5 99.5l-16-2q-29 0-47.5 20t-18.5 48q0 27 18.5 46t47.5 19q34 0 57-29t23-79q0-73-37.5-142t-89.5-106z" horiz-adv-x="677" unicode="&#x201d;"/><glyph d="M164-242l-45 37q49 36 78.5 89t29.5 100l-16-2q-29 0-47.5 19.5t-18.5 47.5q0 27 18.5 46.5t47.5 19.5q34 0 57-29t23-80q0-73-37.5-142t-89.5-106zM416-242l-45 37q49 36 78.5 89t29.5 100l-16-2q-29 0-47.5 19.5t-18.5 47.5q0 27 18.5 46.5t47.5 19.5q34 0 57-29t23-80q0-73-37.5-142t-89.5-106z" horiz-adv-x="677" unicode="&#x201e;"/><glyph d="M369 297q-83 0-142 58.5t-59 140.5q0 83 59 141.5t142 58.5 141.5-58.5 58.5-141.5q0-82-58.5-140.5t-141.5-58.5z" horiz-adv-x="733" unicode="&#x2022;"/><glyph d="M213-18q-28 0-48 19.5t-20 47.5q0 26 20 46t48 20 48-20 20-46q0-28-20-47.5t-48-19.5zM639-18q-28 0-48 19.5t-20 47.5q0 26 20 46t48 20 48-20 20-46q0-28-20-47.5t-48-19.5zM1065-18q-28 0-48 19.5t-20 47.5q0 26 20 46t48 20 48-20 20-46q0-28-20-47.5t-48-19.5z" horiz-adv-x="1277" unicode="&#x2026;"/><glyph horiz-adv-x="371" unicode="&#x202f;"/><glyph d="M102 899l-41 16q136 416 144 439 13 32 49 32 23 0 38-15.5t15-37.5q0-8-4-20z" horiz-adv-x="337" unicode="&#x2032;"/><glyph d="M102 899l-41 16q136 416 144 439 13 32 49 32 23 0 38-15.5t15-37.5q0-8-4-20zM358 899l-41 16q136 416 144 439 13 32 49 32 23 0 38-15.5t15-37.5q0-8-4-20z" horiz-adv-x="593" unicode="&#x2033;"/><glyph d="M469 129h-80l-328 369 328 362h80l-328-362z" horiz-adv-x="530" unicode="&#x2039;"/><glyph d="M469 498l-328-369h-80l328 369-328 362h80z" horiz-adv-x="530" unicode="&#x203a;"/><glyph d="M598 1366l-874-1366h-74l872 1366h76z" horiz-adv-x="247" unicode="&#x2044;"/><glyph horiz-adv-x="463" unicode="&#x205f;"/><glyph d="M389 848q-81 0-143.5 38.5t-97.5 102-52.5 135.5-17.5 148q0 77 17.5 149t52.5 134.5 97.5 100.5 143.5 38 143-38 97.5-100.5 53-134.5 17.5-149q0-76-17.5-148t-53-135.5-97.5-102-143-38.5zM389 1640q-67 0-117-32.5t-77.5-87-40.5-117-13-131.5 13.5-132 41-118 77.5-88 116-33 115.5 33 77 88 40.5 118 13 132-13 131.5-40.5 117-77 87-115.5 32.5z" unicode="&#x2070;"/><glyph d="M684 1094h-127v-232h-59v232h-402v53l381 534h80v-534h127v-53zM498 1147v475l-338-475h338z" unicode="&#x2074;"/><glyph d="M389 848q-192 0-283 135l41 39q85-121 242-121 95 0 158 59t63 148q0 95-62 153t-159 58q-118 0-211-84l-47 22v424h483v-53h-421v-338q34 34 88 57t118 23q113 0 192-68.5t79-191.5q0-119-82-190.5t-199-71.5z" unicode="&#x2075;"/><glyph d="M401 848q-81 0-142 34.5t-96 95-52 134.5-17 160q0 64 10.5 123.5t35 114.5 60.5 95.5 90.5 64.5 121.5 24q79 0 131.5-27t95.5-78l-37-43q-36 46-79.5 70t-110.5 24q-68 0-119.5-32t-80.5-86-43-116.5-15-133.5q0-33 2-47 33 51 103.5 97t152.5 46q121 0 196.5-67.5t75.5-194.5q0-104-77.5-181t-205.5-77zM401 1315q-70 0-136-41.5t-105-106.5q5-49 20-93t42-84.5 73.5-64.5 105.5-24q104 0 163 64t59 141q0 101-61 155t-161 54z" unicode="&#x2076;"/><glyph d="M629 1640l-371-778h-68l369 766h-481v53h551v-41z" horiz-adv-x="727" unicode="&#x2077;"/><glyph d="M389 848q-123 0-204 60.5t-81 158.5q0 82 63.5 138.5t156.5 78.5q-88 21-146.5 70.5t-58.5 126.5q0 70 41 120t100.5 71.5 128.5 21.5q68 0 127.5-21.5t101-71.5 41.5-120q0-77-57.5-126.5t-144.5-70.5q92-22 154.5-78.5t62.5-138.5q0-97-81.5-158t-203.5-61zM389 1640q-90 0-150.5-43t-60.5-118q0-127 211-170 23 4 42.5 9t53 19 56.5 31 41 46.5 18 64.5q0 75-60.5 118t-150.5 43zM389 1260q-24-3-57.5-14t-73.5-32.5-67-59.5-27-85q0-77 66.5-123.5t158.5-46.5q91 0 157 47t66 123q0 47-27 85t-66.5 59.5-72.5 32.5-57 14z" unicode="&#x2078;"/><glyph d="M377 1694q81 0 142-34.5t96-95 52-134.5 17-160q0-81-18-154t-54-134-99.5-97.5-145.5-36.5q-79 0-132.5 27t-95.5 77l37 43q70-94 191-94 54 0 98 21.5t73 57 48 84.5 27.5 100.5 9.5 107.5v45q-35-51-105-97t-149-46q-121 0-198 67.5t-77 194.5q0 104 77 181t206 77zM375 1227q71 0 137.5 41t105.5 108q-5 48-20 92t-42 84-73.5 64-105.5 24q-104 0-163.5-64t-59.5-140q0-101 61-155t160-54z" unicode="&#x2079;"/><glyph d="M256 748l-33-19q-166 244-166 543 0 296 166 543l33-19q-68-139-101.5-255.5t-33.5-268.5q0-151 33.5-270t101.5-254z" horiz-adv-x="276" unicode="&#x207d;"/><glyph d="M90 729l-33 19q68 136 102 254.5t34 269.5-33.5 267.5-102.5 256.5l33 19q166-247 166-543t-166-543z" horiz-adv-x="276" unicode="&#x207e;"/><glyph d="M651 668h-57v436q0 95-44 135.5t-124 40.5q-64 0-127.5-35t-99.5-82v-495h-58v643h58v-101q40 47 107 82t132 35q121 0 167-55.5t46-167.5v-436z" horiz-adv-x="792" unicode="&#x207f;"/><glyph d="M389-313q-81 0-143.5 38.5t-97.5 102-52.5 135.5-17.5 148q0 77 17.5 148.5t52.5 134.5 97.5 100.5 143.5 37.5q65 0 118.5-25t88.5-66.5 59-97 34.5-113.5 10.5-119q0-76-17.5-148t-53-135.5-97.5-102-143-38.5zM389 479q-67 0-117-32.5t-77.5-87-40.5-117-13-131.5 13.5-132 41-118 77.5-88 116-33 115.5 33 77 88 40.5 118 13 132-13 131.5-40.5 117-77 87-115.5 32.5z" unicode="&#x2080;"/><glyph d="M270-299h-61v737l-129-141-39 41 174 182h55v-819z" horiz-adv-x="393" unicode="&#x2081;"/><glyph d="M666-299h-555v49q117 85 196.5 149.5t151.5 136.5 107.5 137.5 35.5 127.5q0 90-61 134t-144 44q-77 0-138.5-29.5t-94.5-78.5l-41 37q41 58 114.5 91t161.5 33q47 0 91-12.5t84-38.5 64-72 24-106q0-56-25.5-114.5t-64.5-109.5-103.5-110.5-123.5-106-144-108.5h465v-53z" unicode="&#x2082;"/><glyph d="M385-313q-98 0-172.5 38t-110.5 97l41 35q37-53 99.5-85t142.5-32q102 0 161.5 48t59.5 132q0 90-67 134t-172 44q-62 0-74-2v56q12-2 74-2 98 0 162.5 40.5t64.5 124.5q0 75-61 119.5t-150 44.5q-74 0-128.5-25.5t-102.5-80.5l-39 37q102 122 272 122 112 0 190-58t78-157q0-47-18.5-84t-48-58.5-58-33.5-57.5-16q29-2 61.5-15.5t63.5-37 51.5-63.5 20.5-89q0-103-76-168t-207-65z" unicode="&#x2083;"/><glyph d="M684-68h-127v-231h-59v231h-402v54l381 534h80v-534h127v-54zM498-14v475l-338-475h338z" unicode="&#x2084;"/><glyph d="M389-313q-192 0-283 135l41 39q85-121 242-121 95 0 158 59t63 148q0 95-62 153t-159 58q-118 0-211-84l-47 22v424h483v-53h-421v-338q34 34 88 57t118 23q113 0 192-68.5t79-191.5q0-119-82-190.5t-199-71.5z" unicode="&#x2085;"/><glyph d="M401-313q-81 0-142 34.5t-96 95-52 134.5-17 160q0 81 18 153.5t54 134 99.5 97.5 146.5 36q79 0 132-26.5t95-77.5l-37-43q-36 46-79.5 70t-110.5 24q-68 0-119.5-32t-80.5-86-43-116.5-15-133.5q0-34 2-48 33 51 103.5 97.5t152.5 46.5q121 0 196.5-67.5t75.5-194.5q0-104-77.5-181t-205.5-77zM401 154q-70 0-136-41.5t-105-106.5q5-49 20-93t42-84.5 73.5-64.5 105.5-24q104 0 163 64t59 141q0 101-61 155t-161 54z" unicode="&#x2086;"/><glyph d="M629 479l-371-778h-68l369 766h-481v53h551v-41z" horiz-adv-x="727" unicode="&#x2087;"/><glyph d="M389-313q-123 0-204 60.5t-81 158.5q0 82 63.5 138.5t156.5 78.5q-88 21-146.5 70t-58.5 126q0 70 41 120t100.5 71.5 128.5 21.5q68 0 127.5-21.5t101-71.5 41.5-120q0-77-57-126t-145-70q92-22 154.5-78.5t62.5-138.5q0-97-81.5-158t-203.5-61zM389 479q-90 0-150.5-43.5t-60.5-118.5q0-127 211-170 23 4 42.5 9t53 19 56.5 31 41 46.5 18 64.5q0 75-60.5 118.5t-150.5 43.5zM389 98q-24-3-57.5-14t-73.5-32-67-59-27-85q0-77 66.5-123.5t158.5-46.5q91 0 157 47t66 123q0 47-27 85t-66.5 59-72.5 32-57 14z" unicode="&#x2088;"/><glyph d="M377 532q81 0 142-34.5t96-95 52-134 17-159.5q0-81-18-154t-54-134-99.5-97.5-145.5-36.5q-79 0-132.5 27t-95.5 77l37 43q70-94 191-94 54 0 98 21.5t73 57 48 84.5 27.5 100.5 9.5 107.5v45q-35-52-105-98t-149-46q-121 0-198 67.5t-77 194.5q0 104 77 181t206 77zM375 66q71 0 137.5 41t105.5 108q-5 48-20 92t-42 84-73.5 64-105.5 24q-104 0-163.5-64t-59.5-141q0-101 61-154.5t160-53.5z" unicode="&#x2089;"/><glyph d="M256-414l-33-18q-166 244-166 543 0 295 166 542l33-18q-68-139-101.5-255.5t-33.5-268.5q0-151 33.5-270.5t101.5-254.5z" horiz-adv-x="276" unicode="&#x208d;"/><glyph d="M90-432l-33 18q68 136 102 255t34 270-33.5 267.5-102.5 256.5l33 18q166-247 166-542 0-296-166-543z" horiz-adv-x="276" unicode="&#x208e;"/><glyph d="M856 37q126 0 238.5 53.5t185.5 145.5l53-43q-194-218-477-218-244 0-426.5 145.5t-236.5 385.5h-113v61h102q-8 49-8 115 0 67 8 119h-102v61h115q54 238 236 382.5t425 144.5q288 0 475-215l-51-46q-73 92-185.5 145.5t-238.5 53.5q-215 0-376.5-126t-213.5-339h713v-61h-725q-8-52-8-119 0-66 8-115h725v-61h-713q52-213 213-341t377-128z" horiz-adv-x="1400" unicode="&#x20ac;"/><glyph d="M346 1313h-127v-398h-57v398h-127v53h311v-53zM858 915h-57v373l-154-373h-16l-154 373v-373h-57v451h88l131-328 131 328h88v-451z" horiz-adv-x="929" unicode="&#x2122;"/><glyph d="M0 993h993v-993h-993v993z" horiz-adv-x="993" unicode="&#x25fc;"/><glyph d="M1073 0h-84l-416 590h-327v-590h-66v1366h471q173 0 288.5-103t115.5-284-115.5-285-288.5-104zM983 979q0 143-91.5 234.5t-240.5 91.5h-405v-654h405q149 0 240.5 92.5t91.5 235.5zM1423 170v-547h-61v1366h61v-166q55 82 150.5 136.5t206.5 54.5q200 0 321-141.5t121-376.5q0-234-121.5-377.5t-320.5-143.5q-108 0-202 52.5t-155 142.5zM2154 496q0 202-99 332t-275 130q-111 0-210-57t-147-139v-531q48-83 147-141.5t210-58.5q118 0 204 62.5t128 166.5 42 236z" horiz-adv-x="2344" unicode="&#xf6dd;"/><glyph d="M381 375v-529q97 3 164 91l41-33q-42-50-89-76t-116-29v-108h-49v110q-117 12-188.5 100t-71.5 210 71.5 209.5 188.5 99.5v88h49v-86q69-3 116.5-29.5t88.5-77.5l-41-30q-64 87-164 90zM131 111q0-103 54.5-176.5t146.5-86.5v525q-92-13-146.5-86t-54.5-176z" horiz-adv-x="620" unicode="&#xf6df;"/><glyph d="M381 1536v-528q98 3 164 90l41-33q-41-50-88.5-75.5t-116.5-28.5v-109h-49v111q-117 12-188.5 99.5t-71.5 209.5 71.5 209.5 188.5 99.5v88h49v-86q70-3 117-29t88-77l-41-31q-64 87-164 90zM131 1272q0-103 54.5-176t146.5-86v524q-92-13-146.5-86t-54.5-176z" horiz-adv-x="620" unicode="&#xf6e0;"/><glyph d="M88-449l-35 29q29 20 49.5 52.5t20.5 60.5q-4-2-6-2-18 0-33.5 14.5t-15.5 34.5q0 19 15 34t36 15q23 0 37-18.5t14-46.5q0-54-24.5-102t-57.5-71z" horiz-adv-x="251" unicode="&#xf6e1;"/><glyph d="M88 713l-35 28q29 20 49.5 52.5t20.5 60.5q-4-2-6-2-18 0-33.5 14.5t-15.5 34.5q0 19 15 34t36 15q23 0 37-18.5t14-46.5q0-54-24.5-101t-57.5-71z" horiz-adv-x="251" unicode="&#xf6e2;"/><glyph d="M672-80q0-102-68.5-164t-200.5-69v-109h-51v109q-93 4-168 40.5t-121 94.5l43 41q105-118 246-125v364q-43 10-67 16.5t-60.5 19-57.5 27.5-42.5 36-31 50.5-9.5 65.5q0 96 77 154.5t191 60.5v113h51v-115q161-15 244-118l-39-37q-74 91-205 104v-325q50-13 80.5-22.5t70.5-29 62.5-42 39-58.5 16.5-82zM147 319q0-34 15.5-60t47.5-43 62.5-27.5 79.5-22.5v315q-89-3-147-48.5t-58-113.5zM403 90v-352q103 7 154 56t51 124q0 39-15.5 68t-47.5 48.5-62.5 31-79.5 24.5z" horiz-adv-x="735" unicode="&#xf6e3;"/><glyph d="M672 1081q0-102-68.5-164t-200.5-69v-109h-51v109q-93 4-168 40.5t-121 94.5l43 41q105-118 246-125v365q-43 10-67 16.5t-60.5 19-57.5 27.5-42.5 36-31 50.5-9.5 65.5q0 96 77 154.5t191 60.5v112h51v-114q160-15 244-119l-39-37q-74 91-205 104v-325q50-13 80.5-22.5t70.5-29 62.5-42 39-58.5 16.5-82zM147 1481q0-28 11.5-50.5t28.5-37.5 46.5-28 55-20.5 63.5-17.5v315q-89-3-147-48t-58-113zM403 1251v-352q103 7 154 56t51 124q0 39-15.5 68t-47.5 48.5-62.5 31-79.5 24.5z" horiz-adv-x="735" unicode="&#xf6e4;"/><glyph d="M340 84h-303v51h303v-51z" horiz-adv-x="376" unicode="&#xf6e5;"/><glyph d="M340 1247h-303v51h303v-51z" horiz-adv-x="376" unicode="&#xf6e6;"/><glyph d="M133-309q-20 0-35.5 14.5t-15.5 34.5 15.5 34.5 35.5 14.5 34.5-14.5 14.5-34.5-14.5-34.5-34.5-14.5z" horiz-adv-x="264" unicode="&#xf6e7;"/><glyph d="M133 852q-20 0-35.5 14.5t-15.5 34.5 15.5 34.5 35.5 14.5 34.5-14.5 14.5-34.5-14.5-34.5-34.5-14.5z" horiz-adv-x="264" unicode="&#xf6e8;"/><glyph d="M692 668h-55v106q-38-53-102-88t-138-35q-133 0-216 92t-83 246q0 153 83 245.5t216 92.5q72 0 135-33.5t103-91.5v354h57v-888zM637 819v338q-33 50-97.5 85.5t-136.5 35.5q-114 0-178.5-81t-64.5-208q0-128 64.5-208.5t178.5-80.5q72 0 137 34.5t97 84.5z" horiz-adv-x="833" unicode="&#xf6eb;"/><glyph d="M199 668h-58v643h58v-113q99 125 225 125v-59h-35q-50 0-109-37.5t-81-81.5v-477z" horiz-adv-x="460" unicode="&#xf6f1;"/><glyph d="M72 758l37 37q33-43 89-70t124-27q88 0 138 40.5t50 103.5q0 31-14 53t-43.5 36.5-56.5 23-70 19.5q-9 2-13 3-45 10-68 16t-59.5 20.5-54.5 30.5-32.5 44-14.5 63q0 75 62 125.5t171 50.5q154 0 234-98l-33-37q-30 41-82.5 64.5t-118.5 23.5q-81 0-128.5-37.5t-47.5-93.5q0-23 11-41.5t25.5-29.5 43-21 48-14.5 57.5-12.5q33-7 50.5-11t47-13 46.5-18 38-23.5 32-31 19-40 8-51.5q0-82-63-136.5t-182-54.5q-155 0-250 107z" horiz-adv-x="665" unicode="&#xf6f2;"/><glyph d="M129 788v476h-109v47h109v176h57v-176h133v-47h-133v-473q0-41 18-66t52-25q50 0 76 33l26-41q-44-41-106-41-60 0-91.5 36.5t-31.5 100.5z" horiz-adv-x="370" unicode="&#xf6f3;"/><glyph d="M621 1386q87 0 160-30t125-82.5 91.5-120.5 62.5-148 34.5-160.5 11.5-162.5-11.5-162-34.5-161-62.5-149-91.5-121.5-125-83.5-160-30q-104 0-188.5 43.5t-139 114-92 164.5-53 190-15.5 195 15.5 195 53 189.5 92 163.5 139 113 188.5 43zM621 1325q-91 0-164-39.5t-119-103-77-149-43.5-172.5-12.5-179q0-283 104-457l582 973q-103 127-270 127zM621 37q76 0 139 27.5t107.5 76 77.5 110.5 52 136 28 147 9 148q0 287-104 461l-582-975q103-131 273-131z" horiz-adv-x="1239"/><glyph d="M625 0h-541v61h238v1211l-216-236-45 47 265 283h61v-1305h238v-61z" horiz-adv-x="714"/><glyph d="M104 682q0 99 15.5 195t53 189.5 92 163.5 139 113 188.5 43q87 0 160-30t125-82.5 91.5-120.5 62.5-148 34.5-160.5 11.5-162.5-11.5-162-34.5-161-62.5-149-91.5-121.5-125-83.5-160-30q-104 0-188.5 43.5t-139 114-92 164.5-53 190-15.5 195zM1006 682q0 92-12.5 179t-43 172.5-76.5 149-118.5 103-163.5 39.5-164-39.5-119-103-77-149-43.5-172.5-12.5-179q0-75 9-148.5t28.5-147 52.5-135.5 77.5-110.5 108.5-76 140-27.5q90 0 162.5 39.5t118.5 103.5 77 150 43.5 173.5 12.5 178.5z" horiz-adv-x="1181"/><glyph d="M733 0h-65v1272l-365-398-45 48 414 444h61v-1366z" horiz-adv-x="1181"/><glyph d="M1006 0h-863v57q88 73 143 119t132 113.5 125 113 109 106.5 98 106.5 76.5 101 60.5 102.5 35 98 14 99q0 79-30 140.5t-80 97-108.5 53.5-121.5 18q-127 0-225-49.5t-152-134.5l-53 39q64 96 177 151t255 55q69 0 137-20.5t129-62.5 99-116.5 38-170.5q0-78-25-155.5t-85-161.5-115.5-151-161-163-174.5-155.5-200-168.5h766v-61z" horiz-adv-x="1181"/><glyph d="M152 205l57 33q56-91 154-146t231-55q170 0 270.5 87t100.5 238q0 107-56.5 179.5t-143 103.5-196.5 31q-94 0-114-2v65q20-2 114-2 74 0 139.5 17t119 51.5 85 92 31.5 132.5q0 136-102 215.5t-248 79.5q-119 0-206.5-45t-166.5-139l-51 41q72 92 181 148t243 56q109 0 202-39.5t153.5-122.5 60.5-194q0-63-20.5-116.5t-51-88-71.5-60.5-77-39-71-19q36-3 76-17t82.5-42 76-66.5 55-95.5 21.5-124q0-171-116-279t-320-108q-153 0-268.5 65t-173.5 165z" horiz-adv-x="1181"/><glyph d="M842 0h-66v399h-645v68l625 899h86v-905h207v-62h-207v-399zM776 461v831l-573-831h573z" horiz-adv-x="1181"/><glyph d="M170 205l53 39q69-104 161.5-155.5t227.5-51.5q157 0 263 105.5t106 263.5q0 170-104.5 271t-264.5 101q-194 0-344-141l-55 33v696h745v-61h-679v-596q57 56 144 93.5t189 37.5q86 0 163.5-28t138.5-81 97-137 36-188q0-128-62-228.5t-160-151.5-213-51q-161 0-266 59.5t-176 170.5z" horiz-adv-x="1181"/><glyph d="M143 682q0 104 15 201t51.5 190 91 161.5 139.5 110 191 41.5q128 0 212-47.5t146-136.5l-49-43q-56 80-127 123t-182 43q-93 0-167-39.5t-121-103.5-78-152-43.5-178.5-12.5-189.5q0-49 2-74 31 52 87.5 105t146.5 95.5 182 42.5q193 0 312.5-110t119.5-320q0-80-29-155t-83-136-139.5-98-189.5-37q-103 0-185 39.5t-135.5 105.5-89 158-50.5 192-15 212zM993 401q0 180-100.5 274.5t-267.5 94.5q-121 0-232-74.5t-174-191.5q6-65 21.5-127t47.5-125 75.5-109.5 109-76 145.5-29.5q92 0 166 33.5t118 88 67.5 117 23.5 125.5z" horiz-adv-x="1181"/><glyph d="M414 0h-74l600 1305h-776v61h854v-45z" horiz-adv-x="1181"/><glyph d="M152 338q0 72 30 134.5t81.5 107.5 112.5 76 130 49q-65 15-122 42.5t-105 67.5-76.5 97-28.5 124q0 86 36 154.5t96.5 110 133.5 63.5 152 22q78 0 150.5-22t133.5-63.5 97.5-110 36.5-154.5q0-67-28.5-124t-76.5-97-105-67.5-122-42.5q69-18 130-49t111.5-76 80.5-107.5 30-134.5q0-158-123.5-260.5t-314.5-102.5q-194 0-317 101.5t-123 261.5zM944 1036q0 132-102 210.5t-250 78.5q-150 0-251-78.5t-101-210.5q0-52 19.5-96.5t54-75.5 71-54.5 80.5-38.5 71.5-23 55.5-13q35 7 70 16.5t89.5 33.5 94 55 69 82.5 29.5 113.5zM965 338q0 56-21.5 106t-57 84.5-77 62.5-85 45.5-76.5 27-56 12.5q-30-4-71.5-16t-96.5-39.5-99.5-64-76-94-31.5-124.5q0-91 53.5-160.5t138-105 183.5-35.5q150 0 261.5 83t111.5 218z" horiz-adv-x="1181"/><glyph d="M193 162l49 43q56-80 127-123t182-43q93 0 167 39.5t121 103.5 78 152 43.5 178.5 12.5 189.5q0 49-2 74-31-52-87.5-105t-146.5-96-182-43q-193 0-312.5 110.5t-119.5 320.5q0 80 29 155t82.5 136 139 98 189.5 37q103 0 185-39.5t135.5-105.5 89-158 50.5-192 15-212q0-104-15-201t-51-190-90.5-161.5-139.5-110.5-191-42q-128 0-212 47.5t-146 137.5zM963 860q-6 65-22 127t-47.5 125-75 109.5-109.5 76-146 29.5q-92 0-166-33.5t-118-88-67.5-117-23.5-125.5q0-180 101-274.5t268-94.5q121 0 232 74.5t174 191.5z" horiz-adv-x="1181"/><glyph d="M621-25q-100 0-183 34.5t-138.5 91.5-94 133.5-55.5 159-17 169.5 17 170 55.5 159.5 94 133.5 138.5 91 183 34q124 0 220-51.5t152-137 84.5-187.5 28.5-212q0-87-17-169.5t-55-159-93-133.5-137.5-91.5-182.5-34.5zM621 1090q-88 0-159.5-30.5t-118.5-81.5-78.5-120-45.5-142.5-14-152.5 14-152.5 45.5-142 78.5-119.5 118.5-81.5 159.5-30.5q87 0 158 30.5t117.5 81.5 78.5 119.5 45.5 142 13.5 152.5q0 100-22.5 190t-69.5 167.5-129.5 123.5-191.5 46z" horiz-adv-x="1239"/><glyph d="M387 0h-65v1032l-216-235-45 47 265 282h61v-1126z" horiz-adv-x="567"/><glyph d="M956 0h-817v59q378 177 575 360t197 367q0 131-99 217.5t-241 86.5q-129 0-236.5-51t-160.5-134l-53 39q63 94 185.5 150.5t266.5 56.5q107 0 198-43.5t148.5-128 57.5-193.5q0-200-193.5-391.5t-511.5-333.5h684v-61z" horiz-adv-x="1175"/><glyph d="M74-35l57 33q56-91 154-146t231-55q170 0 270.5 87.5t100.5 238.5q0 81-32 142.5t-87.5 98-125 54.5-150.5 18q-95 0-115-2v66q20-2 115-2 100 0 182 29t137 97 55 167q0 136-102 215t-248 79q-119 0-206.5-45t-166.5-139l-51 41q72 92 181 148.5t243 56.5q109 0 202-39.5t153.5-122.5 60.5-194q0-63-20.5-116.5t-51.5-88-71.5-61-76.5-39.5-71-19q36-3 76-17t82.5-42 76-66 55-95 21.5-124q0-171-116-279t-320-108q-153 0-268.5 65t-173.5 164z" horiz-adv-x="1087"/><glyph d="M995 160h-207v-400h-65v400h-645v67l624 899h86v-905h207v-61zM723 221v832l-573-832h573z" horiz-adv-x="1073"/><glyph d="M166-35l53 39q69-104 161.5-155.5t227.5-51.5q157 0 263 105.5t106 263.5q0 170-104.5 271.5t-264.5 101.5q-193 0-344-142l-55 33v696h745v-61h-680v-596q57 56 144.5 93.5t189.5 37.5q86 0 163.5-28t138.5-81 96.5-137 35.5-188q0-129-61.5-228.5t-159.5-150.5-213-51q-161 0-266.5 59t-175.5 170z" horiz-adv-x="1175"/><glyph d="M133 682q0 104 15 201t51.5 190 91 161.5 139.5 110 191 41.5q128 0 212-47.5t146-136.5l-49-43q-56 80-127 123t-182 43q-93 0-167-39.5t-121-103.5-78-152-43.5-178.5-12.5-189.5q0-49 2-74 22 38 61 78t92 78 122.5 62.5 139.5 24.5q193 0 313-110t120-320q0-80-29-155t-83-136-139.5-98-189.5-37q-103 0-185 39.5t-135.5 105.5-89 158-50.5 192-15 212zM983 401q0 180-101 274.5t-268 94.5q-121 0-231.5-74t-173.5-192q6-65 21.5-127t47.5-125 75.5-109.5 109-76 145.5-29.5q92 0 166 33.5t118 88 67.5 117 23.5 125.5z" horiz-adv-x="1181"/><glyph d="M324-240h-74l600 1305h-776v61h854v-45z" horiz-adv-x="1001"/><glyph d="M135 338q0 72 30 134.5t81.5 107.5 112.5 76 130 49q-65 15-121.5 42.5t-105 67.5-76.5 97-28 124q0 86 36 154.5t96 110 133 63.5 152 22q78 0 150.5-22t133.5-63.5 97.5-110 36.5-154.5q0-67-28-124t-76.5-97-105-67.5-121.5-42.5q69-18 130-49t111.5-76 80.5-107.5 30-134.5q0-158-124-260.5t-315-102.5q-194 0-317 101.5t-123 261.5zM928 1036q0 132-102.5 210.5t-250.5 78.5q-150 0-251-78.5t-101-210.5q0-52 19.5-96.5t54-75.5 71-54.5 80.5-38.5 71.5-23 55.5-13q35 7 70 16.5t89.5 33.5 94.5 55 69.5 82.5 29.5 113.5zM948 338q0 56-21.5 106t-57 84.5-77 62.5-85 45.5-76.5 27-56 12.5q-30-4-71.5-16t-96-39.5-99.5-64-76-94-31-124.5q0-91 53-160.5t137.5-105 183.5-35.5q150 0 261.5 83t111.5 218z" horiz-adv-x="1148"/><glyph d="M203-78l49 43q56-80 127-123t182-43q93 0 167 39.5t121 103.5 78 152.5 43.5 179 12.5 189.5q0 49-2 74-31-52-87.5-105t-146.5-96-182-43q-193 0-312.5 110t-119.5 320q0 80 29 155t82.5 136 139 98 189.5 37q103 0 185-39.5t135.5-105.5 89.5-158 51-192 15-212q0-104-15-201t-51.5-190-91-161.5-139.5-110-191-41.5q-128 0-212 47.5t-146 136.5zM973 621q-6 65-22 127t-47.5 124.5-75 109-109.5 76-146 29.5q-74 0-137-22.5t-105.5-59-73-84.5-44.5-98-14-100q0-180 100.5-274.5t267.5-94.5q121 0 232 74.5t174 192.5z" horiz-adv-x="1181"/><glyph d="M133 682q0 154 53.5 287t145 224.5 217 143.5 266.5 52q295 0 500-211l-43-45q-80 91-200.5 142.5t-256.5 51.5q-127 0-239.5-47t-194-130.5-129-204.5-47.5-263q0-140 47.5-261.5t129-205.5 194-132 239.5-48q128 0 230.5 45.5t168 124 103 177 47.5 212.5h-678v61h746q0-114-24.5-216t-75.5-187.5-123.5-147.5-173-96.5-220.5-34.5q-141 0-266.5 52.5t-217 144-145 225-53.5 287.5z" horiz-adv-x="1533"/><glyph d="M983 0h-61v166q-54-82-150-136.5t-207-54.5q-200 0-321 142t-121 377q0 234 121.5 377t320.5 143q108 0 202-52.5t155-142.5v170h61v-989zM922 227v531q-48 83-147 141.5t-210 58.5q-176 0-275.5-131t-99.5-333 99.5-332.5 275.5-130.5q111 0 210 57t147 139z" horiz-adv-x="1159"/><glyph d="M344-25q-84 0-126 52t-42 147v1192h62v-1192q0-66 26.5-104.5t79.5-38.5q71 0 117 53l37-47q-65-62-154-62z" horiz-adv-x="497"/><glyph d="M166-252l45 51q112-145 303-145 155 0 242.5 89t87.5 249v160q-68-76-164.5-126.5t-194.5-50.5q-153 0-231 75.5t-78 244.5v694h62v-694q0-147 65.5-205.5t190.5-58.5q99 0 197.5 52t152.5 128v778h61v-997q0-105-34.5-184t-92.5-123-124.5-65-139.5-21q-118 0-198.5 36.5t-149.5 112.5z" horiz-adv-x="1081"/><glyph d="M528 1126h72l494-1126h-74l-131 299h-649l-129-299h-76zM864 358l-299 691-301-691h600z" horiz-adv-x="1128"/><glyph d="M629 0h-453v1126h447q146 0 234.5-75.5t88.5-212.5q0-96-56.5-165t-135.5-91q90-23 153.5-103.5t63.5-173.5q0-144-92-224.5t-250-80.5zM877 838q0 105-66.5 167t-187.5 62h-381v-457h381q121 0 187.5 64t66.5 164zM899 303q0 102-71 175t-199 73h-387v-492h387q127 0 198.5 65.5t71.5 178.5z" horiz-adv-x="1079"/><glyph d="M123 565q0 169 78.5 304t213 208.5 298.5 73.5q249 0 415-184l-47-41q-62 79-160 122.5t-208 43.5q-221 0-370.5-148.5t-149.5-378.5q0-152 69-273.5t188-189 263-67.5q109 0 209.5 45t158.5 121l49-41q-170-185-417-185-164 0-298.5 74t-213 210-78.5 306z" horiz-adv-x="1187"/><glyph d="M528 0h-352v1126h352q134 0 246.5-46t187-123.5 115.5-180 41-215.5q0-114-41-215.5t-115.5-178.5-187-122-246.5-45zM1047 561q0 141-60 254.5t-179.5 182.5-279.5 69h-286v-1008h286q161 0 280 67.5t179 180 60 254.5z" horiz-adv-x="1241"/><glyph d="M901 0h-725v1126h725v-59h-659v-457h649v-59h-649v-492h659v-59z" horiz-adv-x="1024"/><glyph d="M242 0h-66v1126h725v-59h-659v-457h649v-59h-649v-551z" horiz-adv-x="974"/><glyph d="M123 563q0 170 78.5 305t213 209 298.5 74q255 0 436-178l-43-47q-72 77-175 121.5t-218 44.5q-108 0-204-39.5t-165.5-108-110-168-40.5-213.5q0-152 69-273.5t188-189 263-67.5q115 0 210 44t158 105v305h-415v60h481v-389q-79-84-192-133.5t-242-49.5q-164 0-298.5 74t-213 209-78.5 305z" horiz-adv-x="1298"/><glyph d="M1098 0h-64v551h-792v-551h-66v1126h66v-516h792v516h64v-1126z" horiz-adv-x="1273"/><glyph d="M242 0h-66v1126h66v-1126z" horiz-adv-x="417"/><glyph d="M25 129l49 43q99-137 250-137 128 0 203 75.5t75 198.5v817h66v-817q0-161-98-247.5t-246-86.5q-187 0-299 154z" horiz-adv-x="843"/><glyph d="M987 0h-88l-522 549-135-143v-406h-66v1126h66v-639l604 639h88l-516-538z" horiz-adv-x="1038"/><glyph d="M831 0h-655v1126h66v-1067h589v-59z" horiz-adv-x="919"/><glyph d="M1231 0h-66v1036l-450-1036h-23l-450 1036v-1036h-66v1126h96l430-993 431 993h98v-1126z" horiz-adv-x="1406"/><glyph d="M1090 0h-62l-786 1024v-1024h-66v1126h62l786-1013v1013h66v-1126z" horiz-adv-x="1265"/><glyph d="M123 563q0 122 40 229.5t111.5 187 178 125.5 233.5 46q167 0 296-79t197-212.5 68-296.5-68-296.5-197-212.5-296-79q-127 0-233.5 46t-178 125.5-111.5 187-40 229.5zM1178 563q0 231-136 380t-356 149q-224 0-358.5-148.5t-134.5-380.5q0-230 135-379t358-149q220 0 356 149.5t136 378.5z" horiz-adv-x="1370"/><glyph d="M242 0h-66v1126h410q86 0 153.5-26t109.5-70.5 63.5-101.5 21.5-123q0-139-90.5-231.5t-257.5-92.5h-344v-481zM864 805q0 118-72 190t-206 72h-344v-526h344q136 0 207 72.5t71 191.5z" horiz-adv-x="1015"/><glyph d="M1247 563q0-130-45.5-244t-128.5-194l123-131-45-45-127 133q-142-107-338-107-127 0-233.5 46t-178 125.5-111.5 187-40 229.5 40 229.5 111.5 187 178 125.5 233.5 46q167 0 296-79t197-212.5 68-296.5zM686 35q169 0 293 94l-188 197 47 47 190-203q150 150 150 393 0 231-136 380t-356 149q-224 0-358.5-148.5t-134.5-380.5q0-230 135-379t358-149z" horiz-adv-x="1370"/><glyph d="M956 0h-86l-354 481h-274v-481h-66v1126h410q164 0 257-89.5t93-231.5q0-143-91.5-233t-250.5-91zM866 805q0 119-73.5 190.5t-206.5 71.5h-344v-526h344q137 0 208.5 72t71.5 192z" horiz-adv-x="1067"/><glyph d="M92 158l53 43q61-71 154.5-118.5t208.5-47.5q173 0 255.5 74t82.5 182q0 38-11 70t-26.5 55.5-45 44-53.5 33.5-67 27.5-69.5 21.5-75.5 20q-52 13-79.5 20t-73.5 22-71.5 29-57.5 36.5-48.5 47.5-28.5 60.5-12 77.5q0 133 108.5 214t262.5 81q245 0 387-162l-47-43q-118 146-340 146-127 0-214-67.5t-87-168.5q0-30 10-56t23.5-45 41-37 48-28.5 61.5-24.5 64-20.5 71-19.5q54-14 84-22.5t78.5-26 76.5-33 62.5-41.5 53-54.5 31.5-69 13-87.5q0-64-23.5-119.5t-70.5-100.5-127.5-70.5-185.5-25.5q-133 0-240.5 50t-175.5 133z" horiz-adv-x="1011"/><glyph d="M502 0h-66v1067h-373v59h814v-59h-375v-1067z" horiz-adv-x="940"/><glyph d="M176 424v702h66v-702q0-185 96.5-287t277.5-102q182 0 279.5 102.5t97.5 286.5v702h66v-702q0-212-114.5-330.5t-328.5-118.5q-213 0-326.5 119t-113.5 330z" horiz-adv-x="1234"/><glyph d="M600 0h-72l-493 1126h76l454-1048 457 1048h72z" horiz-adv-x="1128"/><glyph d="M1126 0h-69l-305 1012-303-1012h-72l-336 1126h70l301-1024 307 1024h67l306-1026 303 1026h69z" horiz-adv-x="1505"/><glyph d="M1092 0h-84l-443 530-440-530h-84l487 578-462 548h86l413-499 416 499h84l-461-546z" horiz-adv-x="1132"/><glyph d="M582 0h-66v487l-481 639h84l430-577 422 577h82l-471-639v-487z" horiz-adv-x="1087"/><glyph d="M956 0h-868v55l776 1012h-776v59h854v-57l-776-1010h790v-59z" horiz-adv-x="1044"/><glyph d="M600 1776l-358-295h-62l328 295h92zM1552 1776l-358-295h-61l327 295h92zM246 0h-66v1366h66v-1366zM459 154l55 49q116-166 291-166 150 0 239 94.5t89 247.5v987h65v-987q0-99-31.5-177.5t-86-127-125-74-150.5-25.5q-112 0-196 43.5t-150 135.5z" horiz-adv-x="1378"/><glyph d="M971 1434l-359-295h-61l328 295h92zM983 0h-61v166q-54-82-150-136.5t-207-54.5q-200 0-321 142t-121 377q0 234 121.5 377t320.5 143q108 0 202-52.5t155-142.5v170h61v-989zM922 227v531q-48 83-147 141.5t-210 58.5q-176 0-275.5-131t-99.5-333 99.5-332.5 275.5-130.5q111 0 210 57t147 139z" horiz-adv-x="1159"/><glyph d="M827 1139h-57l-186 245-181-245h-57l201 295h74zM983 0h-61v166q-54-82-150-136.5t-207-54.5q-200 0-321 142t-121 377q0 234 121.5 377t320.5 143q108 0 202-52.5t155-142.5v170h61v-989zM922 227v531q-48 83-147 141.5t-210 58.5q-176 0-275.5-131t-99.5-333 99.5-332.5 275.5-130.5q111 0 210 57t147 139z" horiz-adv-x="1159"/><glyph d="M377 1167q-23 0-40.5 17.5t-17.5 40.5 17.5 40 40.5 17 40-17 17-40-17-40.5-40-17.5zM791 1167q-23 0-40.5 17.5t-17.5 40.5 17.5 40 40.5 17 40-17 17-40-17-40.5-40-17.5zM983 0h-61v166q-54-82-150-136.5t-207-54.5q-200 0-321 142t-121 377q0 234 121.5 377t320.5 143q108 0 202-52.5t155-142.5v170h61v-989zM922 227v531q-48 83-147 141.5t-210 58.5q-176 0-275.5-131t-99.5-333 99.5-332.5 275.5-130.5q111 0 210 57t147 139z" horiz-adv-x="1159"/><glyph d="M614 1139h-61l-358 295h92zM983 0h-61v166q-54-82-150-136.5t-207-54.5q-200 0-321 142t-121 377q0 234 121.5 377t320.5 143q108 0 202-52.5t155-142.5v170h61v-989zM922 227v531q-48 83-147 141.5t-210 58.5q-176 0-275.5-131t-99.5-333 99.5-332.5 275.5-130.5q111 0 210 57t147 139z" horiz-adv-x="1159"/><glyph d="M393 1323q0 78 56.5 134t134.5 56 133-56 55-134-55-134-133-56-134.5 56-56.5 134zM723 1323q0 59-40.5 100t-98.5 41q-59 0-100.5-41.5t-41.5-99.5 41.5-99.5 100.5-41.5q58 0 98.5 41t40.5 100zM983 0h-61v166q-54-82-150-136.5t-207-54.5q-200 0-321 142t-121 377q0 234 121.5 377t320.5 143q108 0 202-52.5t155-142.5v170h61v-989zM922 227v531q-48 83-147 141.5t-210 58.5q-176 0-275.5-131t-99.5-333 99.5-332.5 275.5-130.5q111 0 210 57t147 139z" horiz-adv-x="1159"/><glyph d="M559 1264q-15 27-22.5 39.5t-21.5 30-29.5 25-34.5 7.5q-54 0-87.5-54.5t-33.5-164.5h-54q0 116 48.5 195t132.5 79q30 0 53.5-10t43-33 29.5-38.5 27-47.5q19-35 30-52t32.5-33.5 46.5-16.5q54 0 87.5 54.5t33.5 164.5h53q0-116-48-195t-132-79q-25 0-46.5 8.5t-35 18.5-29 31.5-22.5 33-21 37.5zM983 0h-61v166q-54-82-150-136.5t-207-54.5q-200 0-321 142t-121 377q0 234 121.5 377t320.5 143q108 0 202-52.5t155-142.5v170h61v-989zM922 227v531q-48 83-147 141.5t-210 58.5q-176 0-275.5-131t-99.5-333 99.5-332.5 275.5-130.5q111 0 210 57t147 139z" horiz-adv-x="1159"/><glyph d="M983 244v-244h-61v166q-54-82-150-136.5t-207-54.5q-200 0-321 142t-121 377q0 234 121.5 377t320.5 143q108 0 202-52.5t155-142.5v170h61v-248q55 124 156.5 198.5t238.5 74.5q110 0 199-42t145-114.5 85.5-165 29.5-196.5v-21h-854q3-122 53.5-222t145.5-161 217-61q204 0 344 149l37-39q-79-82-170-124t-211-42q-152 0-256.5 73.5t-159.5 195.5zM922 227v531q-48 83-147 141.5t-210 58.5q-176 0-275.5-131t-99.5-333 99.5-332.5 275.5-130.5q111 0 210 57t147 139zM1376 958q-74 0-137.5-26t-109-68.5-78.5-98.5-49.5-115.5-18.5-119.5h789q0 58-15 117.5t-47 115.5-77.5 99-112 69.5-144.5 26.5z" horiz-adv-x="1959"/><glyph d="M467 934h-201v-934h-61v934h-164v55h164v105q0 138 65.5 215t182.5 77q71 0 116-26l-26-53q-43 24-90 24-93 0-140-61.5t-47-175.5v-105h201v-55zM848-25q-84 0-126 52t-42 147v1192h61v-1192q0-66 26.5-104.5t80.5-38.5q71 0 117 53l36-47q-33-31-67-46.5t-86-15.5z" horiz-adv-x="1001"/><glyph d="M467 934h-201v-934h-61v934h-164v55h164v105q0 138 65.5 215t182.5 77q71 0 116-26l-26-53q-43 24-90 24-93 0-140-61.5t-47-175.5v-105h201v-55zM770 989h201v-55h-201v-934h-61v934h-164v55h164v105q0 138 65 215t182 77q72 0 117-26l-26-53q-43 24-91 24-92 0-139-61.5t-47-175.5v-105zM1352-25q-84 0-126 52t-42 147v1192h61v-1192q0-66 26.5-104.5t80.5-38.5q70 0 116 53l37-47q-33-31-67-46.5t-86-15.5z" horiz-adv-x="1505"/><glyph d="M207 1159q-24 0-42 18t-18 42 18 41.5 42 17.5q25 0 42-17t17-42-17-42.5-42-17.5zM238 0h-62v989h62v-989z" horiz-adv-x="413"/><glyph d="M594 1434l-358-295h-62l328 295h92zM1008 1434l-359-295h-61l327 295h93zM238 0h-62v989h62v-989zM303-381l21 55q40-18 92-18 174 0 174 188v1145h61v-1145q0-123-62.5-184t-172.5-61q-63 0-113 20z" horiz-adv-x="827"/><glyph d="M694-25q-71 0-128 12t-100 36-72 49-62 61l49 45q112-147 313-147 141 0 217 67t76 162q0 30-9.5 56t-22.5 44.5-39 36-46 28-58 23.5-60 19l-66 18q-46 12-71 19t-66 21.5-64 27-52 33-44 43.5-26 54.5-11 68.5q0 44 15 80t47.5 66.5 57 47.5 69.5 45q30 18 46.5 28.5t39.5 28.5 35 33 21 36 9 44q0 78-74.5 124t-166.5 46q-110 0-186.5-73.5t-76.5-194.5v-1063h-61v1063q0 138 90.5 230.5t233.5 92.5q126 0 214.5-62t88.5-163q0-40-13.5-72.5t-43.5-59.5-52.5-42.5-66.5-40.5q-41-25-62-39t-49-39.5-40.5-54.5-12.5-65q0-21 5.5-39.5t12.5-33 23-28 28-23 35.5-20 38.5-16 45-14.5 45-13 49-12q47-11 74-18.5t69.5-21.5 67.5-27.5 55.5-36 47-47.5 28-60.5 11.5-77.5q0-54-20-103.5t-60.5-91-111.5-66-163-24.5z" horiz-adv-x="1093"/><glyph d="M928 1434l-359-295h-61l328 295h92zM166-252l45 51q112-145 303-145 155 0 242.5 89t87.5 249v160q-68-76-164.5-126.5t-194.5-50.5q-153 0-231 75.5t-78 244.5v694h62v-694q0-147 65.5-205.5t190.5-58.5q99 0 197.5 52t152.5 128v778h61v-997q0-105-34.5-184t-92.5-123-124.5-65-139.5-21q-118 0-198.5 36.5t-149.5 112.5z" horiz-adv-x="1081"/><glyph d="M334 1167q-23 0-40.5 17.5t-17.5 40.5 17.5 40 40.5 17 40-17 17-40-17-40.5-40-17.5zM748 1167q-23 0-40.5 17.5t-17.5 40.5 17.5 40 40.5 17 40-17 17-40-17-40.5-40-17.5zM166-252l45 51q112-145 303-145 155 0 242.5 89t87.5 249v160q-68-76-164.5-126.5t-194.5-50.5q-153 0-231 75.5t-78 244.5v694h62v-694q0-147 65.5-205.5t190.5-58.5q99 0 197.5 52t152.5 128v778h61v-997q0-105-34.5-184t-92.5-123-124.5-65-139.5-21q-118 0-198.5 36.5t-149.5 112.5z" horiz-adv-x="1081"/><glyph d="M952 1536l-358-295h-62l328 295h92zM528 1126h72l494-1126h-74l-131 299h-649l-129-299h-76zM864 358l-299 691-301-691h600z" horiz-adv-x="1128"/><glyph d="M809 1241h-57l-187 246-180-246h-57l200 295h74zM528 1126h72l494-1126h-74l-131 299h-649l-129-299h-76zM864 358l-299 691-301-691h600z" horiz-adv-x="1128"/><glyph d="M358 1270q-23 0-40 17t-17 40 17 40 40 17 40.5-17 17.5-40-17.5-40-40.5-17zM772 1270q-23 0-40 17t-17 40 17 40 40 17 40-17 17-40-17-40-40-17zM528 1126h72l494-1126h-74l-131 299h-649l-129-299h-76zM864 358l-299 691-301-691h600z" horiz-adv-x="1128"/><glyph d="M596 1241h-61l-359 295h92zM528 1126h72l494-1126h-74l-131 299h-649l-129-299h-76zM864 358l-299 691-301-691h600z" horiz-adv-x="1128"/><glyph d="M375 1425q0 78 56 134.5t134 56.5 133.5-56.5 55.5-134.5-55.5-134-133.5-56-134 56-56 134zM705 1425q0 59-41 100.5t-99 41.5-99.5-41.5-41.5-100.5 41-100 100-41q58 0 99 41t41 100zM528 1126h72l494-1126h-74l-131 299h-649l-129-299h-76zM864 358l-299 691-301-691h600z" horiz-adv-x="1128"/><glyph d="M541 1366q-19 35-30 52t-32.5 33.5-46.5 16.5q-54 0-87.5-54.5t-33.5-164.5h-53q0 116 48 195.5t132 79.5q30 0 54-10.5t43-32.5 29.5-38.5 27.5-47.5q20-36 30-52.5t31.5-33.5 46.5-17q54 0 87.5 54.5t33.5 164.5h53q0-116-48-195t-132-79q-31 0-54.5 10t-43 33.5-28.5 38-27 47.5zM528 1126h72l494-1126h-74l-131 299h-649l-129-299h-76zM864 358l-299 691-301-691h600z" horiz-adv-x="1128"/><glyph d="M1518 0h-727v299h-488l-192-299h-76l735 1126h748v-59h-662v-457h649v-59h-649v-492h662v-59zM791 358v691l-451-691h451z" horiz-adv-x="1640"/><glyph d="M1081 201l49-41q-160-173-389-185l-34-94q31 25 77 25 60 0 97-35t37-92q0-72-57.5-117t-143.5-45q-56 0-108 16.5t-83 40.5l29 56q66-58 162-58 60 0 100.5 28.5t40.5 78.5q0 37-23 59.5t-67 22.5q-57 0-88-39l-45 26 47 127q-117 6-220 52t-178 122-118 184-43 232q0 169 78.5 304t213 208.5 298.5 73.5q249 0 415-184l-47-41q-62 79-160 122.5t-208 43.5q-221 0-370.5-148.5t-149.5-378.5q0-152 69-273.5t188-189 263-67.5q109 0 209.5 45t158.5 121z" horiz-adv-x="1187"/><glyph d="M934 1536l-359-295h-61l328 295h92zM901 0h-725v1126h725v-59h-659v-457h649v-59h-649v-492h659v-59z" horiz-adv-x="1024"/><glyph d="M791 1241h-58l-186 246-180-246h-58l201 295h74zM901 0h-725v1126h725v-59h-659v-457h649v-59h-649v-492h659v-59z" horiz-adv-x="1024"/><glyph d="M340 1270q-23 0-40 17t-17 40 17 40 40 17 40-17 17-40-17-40-40-17zM754 1270q-23 0-40.5 17t-17.5 40 17.5 40 40.5 17 40-17 17-40-17-40-40-17zM901 0h-725v1126h725v-59h-659v-457h649v-59h-649v-492h659v-59z" horiz-adv-x="1024"/><glyph d="M578 1241h-62l-358 295h92zM901 0h-725v1126h725v-59h-659v-457h649v-59h-649v-492h659v-59z" horiz-adv-x="1024"/><glyph d="M596 1536l-358-295h-62l328 295h92zM242 0h-66v1126h66v-1126z" horiz-adv-x="417"/><glyph d="M240 1241h-62l-358 295h92zM242 0h-66v1126h66v-1126z" horiz-adv-x="417"/><glyph d="M453 1241h-58l-186 246-180-246h-58l201 295h74zM242 0h-66v1126h66v-1126z" horiz-adv-x="417"/><glyph d="M2 1270q-23 0-40 17t-17 40 17 40 40 17 40-17 17-40-17-40-40-17zM416 1270q-23 0-40.5 17t-17.5 40 17.5 40 40.5 17 40-17 17-40-17-40-40-17zM242 0h-66v1126h66v-1126z" horiz-adv-x="417"/><glyph d="M608 1366q-15 27-22.5 39.5t-21.5 30-29.5 25-34.5 7.5q-54 0-87.5-54.5t-33.5-164.5h-53q0 116 48 195.5t132 79.5q30 0 53.5-10t43-33 29.5-38.5 27-47.5q15-27 23-40t22-30.5 29.5-25 34.5-7.5q54 0 87.5 54.5t33.5 164.5h53q0-116-48-195t-132-79q-25 0-46.5 8.5t-35 18.5-29 31.5-22.5 33-21 37.5zM1090 0h-62l-786 1024v-1024h-66v1126h62l786-1013v1013h66v-1126z" horiz-adv-x="1265"/><glyph d="M1073 1536l-358-295h-62l328 295h92zM123 563q0 122 40 229.5t111.5 187 178 125.5 233.5 46q167 0 296-79t197-212.5 68-296.5-68-296.5-197-212.5-296-79q-127 0-233.5 46t-178 125.5-111.5 187-40 229.5zM1178 563q0 231-136 380t-356 149q-224 0-358.5-148.5t-134.5-380.5q0-230 135-379t358-149q220 0 356 149.5t136 378.5z" horiz-adv-x="1370"/><glyph d="M930 1241h-58l-186 246-180-246h-57l200 295h74zM123 563q0 122 40 229.5t111.5 187 178 125.5 233.5 46q167 0 296-79t197-212.5 68-296.5-68-296.5-197-212.5-296-79q-127 0-233.5 46t-178 125.5-111.5 187-40 229.5zM1178 563q0 231-136 380t-356 149q-224 0-358.5-148.5t-134.5-380.5q0-230 135-379t358-149q220 0 356 149.5t136 378.5z" horiz-adv-x="1370"/><glyph d="M479 1270q-23 0-40 17t-17 40 17 40 40 17 40.5-17 17.5-40-17.5-40-40.5-17zM893 1270q-23 0-40 17t-17 40 17 40 40 17 40-17 17-40-17-40-40-17zM123 563q0 122 40 229.5t111.5 187 178 125.5 233.5 46q167 0 296-79t197-212.5 68-296.5-68-296.5-197-212.5-296-79q-127 0-233.5 46t-178 125.5-111.5 187-40 229.5zM1178 563q0 231-136 380t-356 149q-224 0-358.5-148.5t-134.5-380.5q0-230 135-379t358-149q220 0 356 149.5t136 378.5z" horiz-adv-x="1370"/><glyph d="M717 1241h-62l-358 295h92zM123 563q0 122 40 229.5t111.5 187 178 125.5 233.5 46q167 0 296-79t197-212.5 68-296.5-68-296.5-197-212.5-296-79q-127 0-233.5 46t-178 125.5-111.5 187-40 229.5zM1178 563q0 231-136 380t-356 149q-224 0-358.5-148.5t-134.5-380.5q0-230 135-379t358-149q220 0 356 149.5t136 378.5z" horiz-adv-x="1370"/><glyph d="M1176 1194l-125-172q94-82 145-201t51-258q0-163-68-296.5t-197-212.5-296-79q-182 0-324 95l-122-170-45 32 124 172q-94 79-145 199t-51 260q0 122 40 229.5t111.5 187 178 125.5 233.5 46q186 0 324-96l123 170zM193 563q0-126 42.5-231t120.5-176l617 848q-120 88-287 88-224 0-358.5-148.5t-134.5-380.5zM686 35q220 0 356 149.5t136 378.5q0 127-42.5 232t-121.5 176l-615-850q122-86 287-86z" horiz-adv-x="1370"/><glyph d="M662 1366q-19 35-30 52t-32.5 33.5-46.5 16.5q-54 0-87.5-54.5t-33.5-164.5h-53q0 116 48 195.5t132 79.5q30 0 54-10.5t43-32.5 29.5-38.5 27.5-47.5q20-36 30-52.5t31.5-33.5 46.5-17q54 0 87.5 54.5t33.5 164.5h53q0-116-48-195t-132-79q-31 0-54.5 10t-43 33.5-28.5 38-27 47.5zM123 563q0 122 40 229.5t111.5 187 178 125.5 233.5 46q167 0 296-79t197-212.5 68-296.5-68-296.5-197-212.5-296-79q-127 0-233.5 46t-178 125.5-111.5 187-40 229.5zM1178 563q0 231-136 380t-356 149q-224 0-358.5-148.5t-134.5-380.5q0-230 135-379t358-149q220 0 356 149.5t136 378.5z" horiz-adv-x="1370"/><glyph d="M1872 0h-727v258q-68-139-186.5-211t-272.5-72q-127 0-233.5 46t-178 125.5-111.5 187-40 229.5 40 229.5 111.5 187 178 125.5 233.5 46q154 0 272.5-71.5t186.5-209.5v256h727v-59h-662v-457h650v-59h-650v-492h662v-59zM1145 387v356q-35 120-109.5 200.5t-162 114.5-187.5 34q-224 0-358.5-148.5t-134.5-380.5q0-230 135-379t358-149q104 0 192 35t159.5 115.5 107.5 201.5z" horiz-adv-x="1994"/><glyph d="M1004 1536l-359-295h-61l327 295h93zM176 424v702h66v-702q0-185 96.5-287t277.5-102q182 0 279.5 102.5t97.5 286.5v702h66v-702q0-212-114.5-330.5t-328.5-118.5q-213 0-326.5 119t-113.5 330z" horiz-adv-x="1234"/><glyph d="M860 1241h-57l-187 246-180-246h-57l201 295h73zM176 424v702h66v-702q0-185 96.5-287t277.5-102q182 0 279.5 102.5t97.5 286.5v702h66v-702q0-212-114.5-330.5t-328.5-118.5q-213 0-326.5 119t-113.5 330z" horiz-adv-x="1234"/><glyph d="M410 1270q-23 0-40.5 17t-17.5 40 17.5 40 40.5 17 40-17 17-40-17-40-40-17zM823 1270q-23 0-40 17t-17 40 17 40 40 17 40.5-17 17.5-40-17.5-40-40.5-17zM176 424v702h66v-702q0-185 96.5-287t277.5-102q182 0 279.5 102.5t97.5 286.5v702h66v-702q0-212-114.5-330.5t-328.5-118.5q-213 0-326.5 119t-113.5 330z" horiz-adv-x="1234"/><glyph d="M647 1241h-61l-359 295h92zM176 424v702h66v-702q0-185 96.5-287t277.5-102q182 0 279.5 102.5t97.5 286.5v702h66v-702q0-212-114.5-330.5t-328.5-118.5q-213 0-326.5 119t-113.5 330z" horiz-adv-x="1234"/><glyph d="M930 1536l-359-295h-61l328 295h92zM582 0h-66v487l-481 639h84l430-577 422 577h82l-471-639v-487z" horiz-adv-x="1087"/><glyph d="M336 1270q-23 0-40 17t-17 40 17 40 40 17 40-17 17-40-17-40-40-17zM750 1270q-23 0-40.5 17t-17.5 40 17.5 40 40.5 17 40-17 17-40-17-40-40-17zM582 0h-66v487l-481 639h84l430-577 422 577h82l-471-639v-487z" horiz-adv-x="1087"/><glyph d="M201 1126h352q134 0 246.5-46t187-123.5 115.5-180 41-215.5q0-114-41-215.5t-115.5-178.5-187-122-246.5-45h-352v549h-146v55h146v522zM266 59h287q161 0 280 67.5t178.5 180 59.5 254.5q0 141-59.5 254.5t-179 182.5-279.5 69h-287v-463h309v-55h-309v-490z" horiz-adv-x="1265"/><glyph d="M242 0h-66v1126h66v-208h344q168 0 258-92t90-230q0-139-90.5-231.5t-257.5-92.5h-344v-272zM864 596q0 118-71 190t-207 72h-344v-526h344q136 0 207 72.5t71 191.5z" horiz-adv-x="1015"/><glyph d="M1053 0h-101q-77 66-174 156-150-181-358-181-155 0-253.5 85.5t-98.5 226.5q0 52 15 98t38 79.5 59.5 65.5 70.5 54 81 47q-101 147-101 260 0 112 79 186t190 74q103 0 170-54t67-159q0-28-6.5-54t-14.5-46-26.5-42.5-30.5-36.5-40.5-34-42.5-29.5-49.5-29-48.5-26-52-26.5q70-90 166-186 87-91 178-176 82 122 135 287l64-23q-70-186-152-309 133-119 236-207zM295 891q0-94 96-229 137 69 184 105 96 75 97 171 0 75-47 115.5t-125 40.5q-88 0-146.5-58.5t-58.5-144.5zM420 33q170 0 311 168-97 89-184 180-113 120-178 203-113-62-174.5-129.5t-61.5-167.5q0-110 80.5-182t206.5-72z" horiz-adv-x="1120"/><glyph d="M928 793l-17-58h-194l-113-336h199l-19-59h-200l-113-340h-68l115 340h-211l-112-340h-68l115 340h-189l19 59h190l113 336h-193l17 58h194l113 333h67l-114-333h209l114 333h68l-115-333h193zM647 735h-205l-114-336h209z" horiz-adv-x="980"/><glyph d="M315 596q-113 0-186.5 78.5t-73.5 197.5 73.5 199 186.5 80q115 0 189-80t74-199-74-197.5-189-78.5zM1018 1126l-787-1126h-73l782 1126h78zM315 1100q-87 0-142.5-66.5t-55.5-161.5q0-94 55.5-159.5t142.5-65.5q89 0 144 65t55 160-55.5 161.5-143.5 66.5zM858-25q-113 0-186.5 79t-73.5 198q0 120 73 199t187 79 187-79 73-199q0-119-73.5-198t-186.5-79zM858 479q-89 0-144-65.5t-55-161.5q0-94 55.5-159.5t143.5-65.5 143.5 65.5 55.5 159.5q0 96-55 161.5t-144 65.5z" horiz-adv-x="1173"/><glyph d="M387-199l-33-24q-258 423-258 905t258 905l33-22q-110-232-164.5-429.5t-54.5-453.5q0-255 54.5-453.5t164.5-427.5z" horiz-adv-x="421"/><glyph d="M254 682q0 256-54.5 453.5t-164.5 429.5l33 22q258-423 258-905t-258-905l-33 24q110 229 164.5 427.5t54.5 453.5z" horiz-adv-x="421"/><glyph d="M399-205h-329v1778h329v-62h-268v-1654h268v-62z" horiz-adv-x="434"/><glyph d="M365-205h-330v62h268v1654h-268v62h330v-1778z" horiz-adv-x="434"/><glyph d="M451-205h-127q-79 0-141 66t-62 166v479q0 61-28 104t-79 43v62q51 0 79 43t28 104v479q0 100 62 166t141 66h127v-62h-127q-58 0-100-49t-42-121v-479q0-139-92-178 92-39 92-178v-479q0-71 42-120.5t100-49.5h127v-62z" horiz-adv-x="485"/><glyph d="M35-205v62h127q58 0 99.5 49.5t41.5 120.5v479q0 139 92 178-92 39-92 178v479q0 72-41.5 121t-99.5 49h-127v62h127q79 0 141-66t62-166v-479q0-62 27.5-104.5t78.5-42.5v-62q-51 0-78.5-42.5t-27.5-104.5v-479q0-100-62-166t-141-66h-127z" horiz-adv-x="485"/><glyph d="M213 1384q28 0 48-19.5t20-47.5q0-26-20-46t-48-20-48 20-20 46q0 28 20 47.5t48 19.5zM170 0l23 1036h40l23-1036h-86z" horiz-adv-x="425"/></font>
</defs>
</svg>
