<svg xmlns="http://www.w3.org/2000/svg"><defs><font horiz-adv-x="798"><font-face ascent="1618" descent="-430" units-per-em="2048"/><missing-glyph horiz-adv-x="528"/><glyph d="M1606 1155q-47 0-78 29.5t-31 72.5q0 59 42 96.5t91 37.5q45 0 77-30.5t32-72.5q0-59-42-96t-91-37zM651 827h-200l-185-827h-184l184 827h-164l35 162h164l14 66q74 331 338 331 116 0 191-51l-70-129q-39 29-102 29-69 0-110-44.5t-62-135.5l-15-66h201zM1092 989h200l-35-162h-200l-185-827h-184l184 827h-163l34 162h164l15 66q74 331 338 331 115 0 190-51l-70-129q-39 29-102 29-69 0-110-44.5t-62-135.5zM940-377l45 148q35-15 76-15 128 0 168 166l237 1067h185l-238-1067q-37-159-116.5-241t-217.5-82q-78 0-139 24z" horiz-adv-x="1687" unicode="&#x66;&#x66;&#x6a;"/><glyph d="M1001 1155q-47 0-77.5 29.5t-30.5 72.5q0 59 42 96.5t91 37.5q45 0 77-30.5t32-72.5q0-59-42.5-96t-91.5-37zM651 827h-200l-185-827h-184l184 827h-164l35 162h164l14 66q74 331 338 331 116 0 191-51l-70-129q-39 29-102 29-69 0-110-44.5t-62-135.5l-15-66h201zM336-377l45 148q35-15 76-15 128 0 168 166l237 1067h185l-238-1067q-37-159-116.5-241t-217.5-82q-77 0-139 24z" horiz-adv-x="1083" unicode="&#x66;&#x6a;"/><glyph d="M266 0h-184l184 827h-164l35 162h164l14 66q74 331 338 331 116 0 191-51l-70-129q-39 29-102 29-69 0-110-44.5t-62-135.5l-15-66h201l-35-162h-200zM872 0h-184l184 827h-163l34 162h164l15 66q74 331 338 331 115 0 190-51l-70-129q-39 29-102 29-69 0-110-44.5t-62-135.5l-14-66h200l-35-162h-200z" horiz-adv-x="1210" unicode="&#xfb00;"/><glyph d="M893 1257q0 59 42 96.5t91 37.5q45 0 77-30.5t32-72.5q0-59-42.5-96t-91.5-37q-47 0-77.5 29.5t-30.5 72.5zM451 827l-185-827h-184l184 827h-164l35 162h164l14 66q74 331 338 331 116 0 191-51l-70-129q-39 29-102 29-69 0-110-44.5t-62-135.5l-15-66h201l-35-162h-200zM827 0h-184l219 989h185z" horiz-adv-x="1083" unicode="&#xfb01;"/><glyph d="M651 827h-200l-185-827h-184l184 827h-164l35 162h164l14 66q74 331 338 331 116 0 191-51l-70-129q-39 29-102 29-69 0-110-44.5t-62-135.5l-15-66h201zM827 0h-184l301 1366h184z" horiz-adv-x="1083" unicode="&#xfb02;"/><glyph d="M1497 1257q0 59 42 96.5t91 37.5q45 0 77-30.5t32-72.5q0-59-42-96t-91-37q-47 0-78 29.5t-31 72.5zM451 827l-185-827h-184l184 827h-164l35 162h164l14 66q74 331 338 331 116 0 191-51l-70-129q-39 29-102 29-69 0-110-44.5t-62-135.5l-15-66h201l-35-162h-200zM1292 989l-35-162h-200l-185-827h-184l184 827h-163l34 162h164l15 66q74 331 338 331 115 0 190-51l-70-129q-39 29-102 29-69 0-110-44.5t-62-135.5l-14-66h200zM1432 0h-185l219 989h185z" horiz-adv-x="1687" unicode="&#xfb03;"/><glyph d="M651 827h-200l-185-827h-184l184 827h-164l35 162h164l14 66q74 331 338 331 116 0 191-51l-70-129q-39 29-102 29-69 0-110-44.5t-62-135.5l-15-66h201zM1092 989h200l-35-162h-200l-185-827h-184l184 827h-163l34 162h164l15 66q74 331 338 331 115 0 190-51l-70-129q-39 29-102 29-69 0-110-44.5t-62-135.5zM1432 0h-185l301 1366h185z" horiz-adv-x="1687" unicode="&#xfb04;"/><glyph d="M266 0h-184l184 827h-164l35 162h164l14 66q74 331 338 331 116 0 191-51l-70-129q-39 29-102 29-69 0-110-44.5t-62-135.5l-15-66h201l-35-162h-200zM858 150l-31-150h-184l301 1366h184l-114-514q133 162 319 162 172 0 276.5-109t104.5-301q0-118-36.5-230.5t-101.5-201.5-165-143-217-54q-108 0-196 47t-140 128zM1520 569q0 128-71.5 204.5t-186.5 76.5q-84 0-159.5-44t-123.5-112l-90-409q37-65 110.5-105.5t169.5-40.5q101 0 182.5 61.5t125 159.5 43.5 209z" horiz-adv-x="1789" unicode="&#x66;&#x62;"/><glyph d="M266 0h-184l184 827h-164l35 162h164l14 66q74 331 338 331 116 0 191-51l-70-129q-39 29-102 29-69 0-110-44.5t-62-135.5l-15-66h201l-35-162h-200zM1495 0h-184l139 635q10 40 10 65 0 76-53 113t-141 37q-74 0-149.5-41.5t-135.5-103.5l-154-705h-184l301 1366h184l-114-516q172 164 344 164 137 0 218-65.5t81-182.5q0-32-10-82z" horiz-adv-x="1753" unicode="&#x66;&#x68;"/><glyph d="M651 827h-200l-185-827h-184l184 827h-164l35 162h164l14 66q74 331 338 331 116 0 191-51l-70-129q-39 29-102 29-69 0-110-44.5t-62-135.5l-15-66h201zM1540 0h-223l-240 432-190-158-60-274h-184l301 1366h184l-192-868 577 491h242l-526-448z" horiz-adv-x="1671" unicode="&#x66;&#x6b;"/><glyph horiz-adv-x="0"/><glyph horiz-adv-x="682"/><glyph horiz-adv-x="0"/><glyph horiz-adv-x="0"/><glyph horiz-adv-x="0" unicode="&#xd;"/><glyph horiz-adv-x="528" unicode="&#x20;"/><glyph horiz-adv-x="528" unicode="&#x09;"/><glyph horiz-adv-x="528" unicode="&#xa0;"/><glyph d="M297 399h-156l178 967h228zM27 96q0 57 41 97t100 40q48 0 81.5-34t33.5-84q0-56-41.5-97t-98.5-41q-49 0-82.5 34.5t-33.5 84.5z" horiz-adv-x="487" unicode="&#x21;"/><glyph d="M324 821h-88l34 436q5 56 39 92.5t86 36.5q39 0 66.5-28t27.5-70q0-21-12-51zM643 821h-86l35 436q5 56 39 92.5t86 36.5q39 0 66.5-28t27.5-70q0-21-12-51z" horiz-adv-x="739" unicode="&#x22;"/><glyph d="M526 0h-145l203 362h-217l-201-362h-146l203 362h-213l68 125h215l215 390h-215l65 122h220l200 367h146l-203-367h217l201 367h145l-205-367h215l-63-122h-217l-219-390h223l-66-125h-225zM651 487l217 390h-215l-217-390h215z" horiz-adv-x="1224" unicode="&#x23;"/><glyph d="M846 1184l-88-402q62-25 106-45.5t95-53.5 82.5-68.5 53-86.5 21.5-110q0-198-154.5-325.5t-381.5-117.5l-41-180h-146l43 197q-132 25-238 86t-163 145l133 150q111-152 311-199l96 444q-63 26-104 45t-93 52-82 67-51.5 84-21.5 109q0 125 76 223t195.5 146.5 253.5 41.5l40 187h146l-45-205q220-45 340-199l-135-145q-89 119-248 160zM625 836l84 370q-105 5-187-53t-82-145q0-55 48-95t137-77zM709 567l-88-409q72 0 127.5 20.5t86.5 54.5 46.5 72 15.5 78q0 60-48 101t-140 83z" horiz-adv-x="1226" unicode="&#x24;"/><glyph d="M176 989q0 174 108.5 285.5t260.5 111.5q131 0 221-77t90-201q0-174-109-285.5t-260-111.5q-131 0-221 77t-90 201zM276 0h-122l1173 1366h125zM715 1096q0 72-50 121t-126 49q-92 0-158-75.5t-66-189.5q0-74 50.5-123t126.5-49q91 0 157 76t66 191zM735 254q0 174 109 285.5t260 111.5q131 0 222-77t91-201q0-87-30.5-162.5t-81-126.5-117.5-80-139-29q-131 0-222.5 77.5t-91.5 201.5zM1276 360q0 72-50 121t-126 49q-92 0-157.5-75t-65.5-189q0-74 50-123t126-49q91 0 157 75.5t66 190.5z" horiz-adv-x="1513" unicode="&#x25;"/><glyph d="M1077 637l137-84q-137-207-262-330 61-90 166-223h-227q-11 13-78 104-180-129-367-129-186 0-302.5 89.5t-116.5 257.5q0 77 22.5 141.5t57.5 110.5 89.5 86.5 106.5 67.5 121 54q-43 124-43 230 0 156 115 265t274 109q137 0 227-66.5t90-186.5q0-50-13.5-94t-33.5-77-56.5-64-67.5-51.5-83-44.5-86.5-37.5-93.5-35.5q39-83 97-180 75-132 118-199 131 142 209 287zM571 1014q0-72 33-166 74 27 122 48.5t95.5 53.5 70.5 72.5 23 91.5q0 63-39.5 98t-99.5 35q-78 0-141.5-62.5t-63.5-170.5zM473 125q118 0 254 100-104 156-137 213-70 125-115 219-117-56-181.5-128t-64.5-183q0-107 70-164t174-57z" horiz-adv-x="1316" unicode="&#x26;"/><glyph d="M324 821h-88l34 436q5 56 39 92.5t86 36.5q39 0 66.5-28t27.5-70q0-21-12-51z" horiz-adv-x="421" unicode="&#x27;"/><glyph d="M319-334l-131-74q-139 250-139 603 0 318 140.5 632.5t396.5 575.5l96-96q-438-560-438-1172 0-207 75-469z" horiz-adv-x="536" unicode="&#x28;"/><glyph d="M215 1329l129 74q141-254 141-602 0-319-141-633.5t-397-575.5l-94 97q438 557 438 1171 0 204-76 469z" horiz-adv-x="536" unicode="&#x29;"/><glyph d="M465 784h-107l66 238-223-102-31 92 229 82-182 125 72 81 166-143 39 229h106l-65-237 223 102 28-94-225-82 180-125-71-82-166 144z" horiz-adv-x="702" unicode="&#x2a;"/><glyph d="M993 629h-385l-96-430h-133l94 430h-385l27 123h387l90 415h135l-92-415h387z" horiz-adv-x="1024" unicode="&#x2b;"/><glyph d="M35-254l-72 76q58 27 109 75t71 97h-18q-40 0-69 28t-29 74q0 56 42 96.5t97 40.5q54 0 88.5-34.5t34.5-98.5q0-99-73.5-199.5t-180.5-154.5z" horiz-adv-x="487" unicode="&#x2c;"/><glyph d="M532 416h-491l37 159h491z" horiz-adv-x="614" unicode="&#x2d;"/><glyph d="M27 96q0 57 41 97t100 40q48 0 81.5-34t33.5-84q0-56-41.5-97t-98.5-41q-49 0-82.5 34.5t-33.5 84.5z" horiz-adv-x="487" unicode="&#x2e;"/><glyph d="M23-41h-146l805 1448h147z" horiz-adv-x="626" unicode="&#x2f;"/><glyph d="M111 512q0 158 47 313.5t129.5 280.5 208 202.5 270.5 77.5q216 0 336.5-142t120.5-392q0-127-29-253t-85.5-238-134-198.5-182-137-221.5-50.5q-216 0-338 143t-122 394zM1016 862q0 157-66 249.5t-205 92.5q-77 0-146.5-44t-119.5-116-87-163.5-55-189-18-189.5q0-157 67-250.5t206-93.5q95 0 177.5 67t135 171.5 82 227 29.5 238.5z" horiz-adv-x="1257" unicode="&#x30;"/><glyph d="M473 0h-205l242 1098-272-232-93 125 449 375h180z" horiz-adv-x="735" unicode="&#x31;"/><glyph d="M958 0h-962l43 197q136 82 228 138.5t197.5 125.5 173.5 120.5 135.5 110.5 105 108.5 61 102.5 23.5 103q0 92-77 146t-202 54q-207 0-348-131l-92 146q83 76 203 120.5t249 44.5q130 0 237.5-39.5t177-125 69.5-203.5q0-87-43-177t-114-170-180-167.5-222.5-162.5-260.5-161h637z" horiz-adv-x="1210" unicode="&#x32;"/><glyph d="M-12 260l143 119q56-103 166-162t233-59q141 0 221 72t80 186q0 86-74 138t-212 52q-121 0-144-2l43 187q37-3 187-3 136 0 223.5 55.5t87.5 164.5q0 86-81.5 141t-217.5 55q-195 0-342-127l-80 140q81 78 197.5 123.5t240.5 45.5q222 0 357-92.5t135-255.5q0-72-32.5-136t-86-107-118.5-70-132-33q109-27 179.5-102t70.5-193q0-179-143-300.5t-359-121.5q-180 0-330.5 77.5t-211.5 207.5z" horiz-adv-x="1157" unicode="&#x33;"/><glyph d="M805 0h-205l72 328h-649l40 182 750 856h293l-191-858h189l-39-180h-188zM711 508l149 672-596-672h447z" horiz-adv-x="1165" unicode="&#x34;"/><glyph d="M61 244l152 127q109-213 375-213 136 0 226.5 86t90.5 211q0 113-81 175t-214 62q-80 0-144-22.5t-130-71.5l-133 61 155 707h865l-39-180h-662l-90-414q116 90 283 90 171 0 287-102.5t116-282.5q0-101-39.5-193t-109-160-171-108.5-218.5-40.5q-367 0-519 269z" horiz-adv-x="1218" unicode="&#x35;"/><glyph d="M102 485q0 122 27 247t83.5 242.5 136.5 209 195 147 249 55.5q285 0 426-200l-134-139q-44 75-124 116t-181 41q-88 0-163.5-40.5t-128.5-109.5-89-146.5-59-166.5q-9-20-14-45 63 66 167.5 116t215.5 50q184 0 300.5-98.5t116.5-265.5q0-140-70.5-260t-194.5-191.5-271-71.5q-232 0-360 133.5t-128 376.5zM913 471q0 103-80.5 163t-211.5 60q-174 0-316-149-4-32-4-90 0-134 78-215.5t213-81.5q136 0 228.5 92.5t92.5 220.5z" horiz-adv-x="1220" unicode="&#x36;"/><glyph d="M367 0h-236l791 1186h-713l41 180h958l-30-141z" horiz-adv-x="1071" unicode="&#x37;"/><glyph d="M53 330q0 145 108.5 250t293.5 147q-96 37-162 111.5t-66 171.5q0 93 44.5 167.5t117.5 118.5 159.5 67 178.5 23q94 0 180-22t155.5-63.5 110.5-107 41-146.5q0-141-104-237t-274-126q105-50 176-130t71-187q0-115-72.5-206t-190.5-138.5-257-47.5q-142 0-255 37.5t-184 119.5-71 198zM993 1012q0 81-81 135.5t-197 54.5-199.5-58-83.5-155q0-70 74-126.5t160-76.5q148 11 237.5 69.5t89.5 156.5zM877 385q0 56-41 105.5t-95 78.5-114 45q-155-9-257-77.5t-102-171.5q0-99 85.5-153t217.5-54q121 0 213.5 63t92.5 164z" horiz-adv-x="1204" unicode="&#x38;"/><glyph d="M1196 879q0-123-26.5-248t-83-243-136.5-209-195.5-146.5-250.5-55.5q-142 0-250 52.5t-172 146.5l133 141q41-76 120-116.5t183-40.5q71 0 134.5 27t111 71.5 87 106 65.5 124.5 45 132q2 10 6.5 25t5.5 20q-62-66-167.5-116t-215.5-50q-184 0-302 99.5t-118 266.5q0 104 42.5 200t114 167 172 113.5 210.5 42.5q232 0 359.5-133.5t127.5-376.5zM383 893q0-103 82-164t211-61q175 0 317 149 4 36 4 90 0 135-78 217t-212 82q-137 0-230.5-93t-93.5-220z" horiz-adv-x="1220" unicode="&#x39;"/><glyph d="M197 866q0 57 41.5 97.5t97.5 40.5q50 0 84.5-34.5t34.5-82.5q0-58-42-98.5t-100-40.5q-49 0-82.5 34t-33.5 84zM27 96q0 57 41 97t100 40q48 0 81.5-34t33.5-84q0-56-41.5-97t-98.5-41q-49 0-82.5 34.5t-33.5 84.5z" horiz-adv-x="487" unicode="&#x3a;"/><glyph d="M197 866q0 57 41.5 97.5t97.5 40.5q50 0 84.5-34.5t34.5-82.5q0-58-42-98.5t-100-40.5q-49 0-82.5 34t-33.5 84zM35-254l-72 76q58 27 109 75t71 97h-18q-40 0-69 28t-29 74q0 56 42 96.5t97 40.5q54 0 88.5-34.5t34.5-98.5q0-99-73.5-199.5t-180.5-154.5z" horiz-adv-x="487" unicode="&#x3b;"/><glyph d="M893 184l-809 434 31 134 1001 436-35-154-837-358 680-352z" horiz-adv-x="1024" unicode="&#x3c;"/><glyph d="M1034 819h-905l27 123h907zM948 426h-905l27 123h905z" horiz-adv-x="1024" unicode="&#x3d;"/><glyph d="M991 618l-1003-434 35 154 837 352-680 359 31 139 809-436z" horiz-adv-x="1024" unicode="&#x3e;"/><glyph d="M543 446l-166-57q-45 67-45 146 0 29 5 54.5t18 49 24 40.5 34.5 37 36.5 31 44 29.5 43.5 25 46.5 25.5q53 27 81 44t62.5 45 50 60 15.5 71q0 73-59.5 116t-166.5 43q-169 0-295-123l-92 140q180 163 414 163 182 0 300-82.5t118-218.5q0-42-10-80t-23.5-66.5-40.5-57.5-47-47-57.5-41.5-57.5-34.5-61-33q-50-25-79.5-42.5t-62-43.5-48-55.5-15.5-63.5q0-41 33-74zM244 96q0 57 41 97t98 40q50 0 83.5-33.5t33.5-84.5q0-56-41.5-97t-98.5-41q-49 0-82.5 34.5t-33.5 84.5z" horiz-adv-x="942" unicode="&#x3f;"/><glyph d="M113 500q0 215 114 402t301.5 296 397.5 109q189 0 337.5-87.5t228-233.5 79.5-322q0-118-33-214t-87-154.5-118.5-90-130.5-31.5q-84 0-134 47t-56 115l-2 12q-56-78-140.5-126t-175.5-48q-144 0-229.5 93t-85.5 243q0 103 40.5 198.5t107 163 153 108 176.5 40.5q92 0 159.5-42.5t100.5-109.5l25 121h168l-115-538q-4-24-4-45 0-49 25.5-76t64.5-27q33 0 67.5 19.5t68.5 59.5 55.5 113.5 21.5 168.5q0 251-158 410t-417 159q-144 0-279.5-60.5t-234.5-160-158.5-233.5-59.5-275q0-162 75-294t209-207 300-75q200 0 379 113l39-55q-200-129-426-129-183 0-332 85t-233 232-84 326zM1032 477l58 273q-21 53-72 95t-127 42q-141 0-239.5-111.5t-98.5-253.5q0-96 52.5-155.5t144.5-59.5q162 0 282 170z" horiz-adv-x="1603" unicode="&#x40;"/><glyph d="M1241 0h-215l-49 283h-670l-172-283h-235l843 1366h256zM958 465l-116 717-434-717h550z" horiz-adv-x="1363" unicode="&#x41;"/><glyph d="M707 0h-666l301 1366h596q157 0 255.5-90t98.5-227q0-141-93-246t-222-117q89-24 144-104t55-176q0-77-28-147.5t-82.5-129.5-147.5-94-211-35zM1073 1016q0 72-55 121t-133 49h-377l-88-400h407q65 0 114.5 20t77 54.5 41 73.5 13.5 82zM969 422q0 81-54 132.5t-147 51.5h-389l-94-426h413q126 0 198.5 71t72.5 171z" horiz-adv-x="1306" unicode="&#x42;"/><glyph d="M115 578q0 178 64.5 332t171.5 257.5 247 162.5 291 59q208 0 354-92.5t217-247.5l-194-74q-54 115-156 173t-231 58q-107 0-206.5-45.5t-176-124.5-122.5-195.5-46-250.5q0-192 120-312t320-120q95 0 187 40.5t165 114.5l156-110q-106-117-243-172.5t-277-55.5q-183 0-328.5 74t-229 212-83.5 317z" horiz-adv-x="1390" unicode="&#x43;"/><glyph d="M342 1366h477q114 0 218.5-43.5t184-119 126.5-185.5 47-236q0-114-31.5-223.5t-100-211-168-178.5-246.5-123-323-46h-485zM285 180h278q185 0 327.5 82t216 215 73.5 293q0 179-113 297.5t-285 118.5h-274z" horiz-adv-x="1443" unicode="&#x44;"/><glyph d="M958 0h-917l301 1366h918l-41-180h-711l-88-400h696l-41-180h-696l-94-426h710z" horiz-adv-x="1173" unicode="&#x45;"/><glyph d="M246 0h-205l301 1366h918l-41-180h-711l-88-400h696l-41-180h-696z" horiz-adv-x="1138" unicode="&#x46;"/><glyph d="M115 578q0 173 61.5 324t167.5 257.5 251.5 168 309.5 61.5q191 0 332-86t213-224l-186-84q-47 97-151.5 154t-233.5 57q-107 0-207.5-47t-176.5-127-121.5-196-45.5-246q0-192 120-312t320-120q186 0 334 133l55 246h-438l39 180h643l-113-508q-105-112-240.5-173t-291.5-61q-281 0-461 167.5t-180 435.5z" horiz-adv-x="1464" unicode="&#x47;"/><glyph d="M1206 0h-205l136 610h-756l-135-610h-205l301 1366h205l-125-573h754l127 573h204z" horiz-adv-x="1468" unicode="&#x48;"/><glyph d="M246 0h-205l301 1366h205z" horiz-adv-x="509" unicode="&#x49;"/><glyph d="M-49 143l117 148q38-63 101-98t146-35q116 0 189 70.5t100 195.5l207 942h205l-207-944q-100-447-481-447-120 0-220 43t-157 125z" horiz-adv-x="978" unicode="&#x4a;"/><glyph d="M1116 0h-239l-363 604-168-155-100-449h-205l301 1366h205l-146-659 703 659h268l-704-647z" horiz-adv-x="1251" unicode="&#x4b;"/><glyph d="M866 0h-825l301 1366h205l-262-1186h618z" horiz-adv-x="1058" unicode="&#x4c;"/><glyph d="M1421 0h-204l243 1118-686-1118h-86l-196 1118-246-1118h-205l301 1366h283l174-1014 622 1014h301z" horiz-adv-x="1683" unicode="&#x4d;"/><glyph d="M1200 0h-199l-514 1096-241-1096h-205l301 1366h211l506-1071 237 1071h205z" horiz-adv-x="1462" unicode="&#x4e;"/><glyph d="M115 578q0 168 60.5 318.5t163.5 258.5 246.5 171 303.5 63q180 0 324.5-70.5t230.5-208.5 86-322q0-169-60.5-319.5t-163.5-259-246.5-171.5-303.5-63q-180 0-324.5 70.5t-230.5 209-86 323.5zM1317 774q0 133-59.5 232.5t-158.5 149.5-222 50q-111 0-212-47t-175-128.5-118-196.5-44-244q0-201 124.5-316.5t315.5-115.5q110 0 211 47t175.5 128.5 118.5 196.5 44 244z" horiz-adv-x="1566" unicode="&#x4f;"/><glyph d="M246 0h-205l301 1366h530q180 0 286-104t106-256q0-65-17-129.5t-58-128.5-100.5-112.5-152.5-79-207-30.5h-367zM401 707h344q141 0 223.5 80.5t82.5 199.5q0 83-60 141t-151 58h-332z" horiz-adv-x="1222" unicode="&#x50;"/><glyph d="M1530 788q0-199-83-370.5t-226-282.5l82-119-166-86-74 109q-147-64-307-64-180 0-324.5 70.5t-230.5 209-86 323.5q0 168 60.5 318.5t163.5 258.5 246.5 171 303.5 63q180 0 324.5-70.5t230.5-208.5 86-322zM768 158q101 0 188 37l-149 219 164 86 141-207q96 85 150.5 210t54.5 271q0 133-59.5 232.5t-158.5 149.5-222 50q-111 0-212-47t-175-128.5-118-196.5-44-244q0-201 124.5-316.5t315.5-115.5z" horiz-adv-x="1566" unicode="&#x51;"/><glyph d="M1065 0h-225l-211 526h-269l-114-526h-205l301 1366h526q104 0 194-43t147-128 57-194q0-188-119-316t-309-148zM401 707h344q142 0 224 78t82 198q0 87-65.5 145t-151.5 58h-326z" horiz-adv-x="1265" unicode="&#x52;"/><glyph d="M23 223l135 150q71-99 191-157t261-58q70 0 125 20.5t86.5 54 47.5 72 16 78.5q0 20-5 38.5t-18.5 35-25 29-36 27.5-39.5 23.5-48.5 23-49 21-53.5 21.5q-42 16-63.5 24.5t-61.5 26-62 29.5-55.5 32.5-52 38.5-41.5 43.5-35 51.5-20 58.5-8 68.5q0 81 36.5 155.5t100.5 131 158.5 90.5 202.5 34q160 0 296-58t212-159l-136-145q-66 89-174.5 135.5t-224.5 46.5q-105 0-178.5-59.5t-73.5-138.5q0-28 15.5-54t36.5-44.5 61.5-40 70.5-34 84-34.5q51-20 82.5-32.5t79.5-35.5 77.5-43 65-50 55-61.5 33-73 13.5-87.5q0-86-34-165t-97-141.5-161.5-99.5-217.5-37q-185 0-339.5 69t-231.5 179z" horiz-adv-x="1208" unicode="&#x53;"/><glyph d="M580 0h-205l260 1186h-424l41 180h1051l-39-180h-424z" horiz-adv-x="1173" unicode="&#x54;"/><glyph d="M682-25q-249 0-388.5 124.5t-139.5 336.5q0 74 12 129l176 801h207l-174-795q-15-70-15-116 0-135 87.5-217t244.5-82q176 0 272.5 98.5t137.5 284.5l182 827h207l-182-829q-29-133-74.5-231t-118.5-175-181.5-116.5-252.5-39.5z" horiz-adv-x="1454" unicode="&#x55;"/><glyph d="M698 0h-256l-241 1366h223l184-1143 690 1143h244z" horiz-adv-x="1363" unicode="&#x56;"/><glyph d="M1307 0h-220l-51 1055-516-1055h-219l-90 1366h223l41-1096 541 1096h166l55-1096 526 1096h234z" horiz-adv-x="1828" unicode="&#x57;"/><glyph d="M1217 0h-232l-297 551-522-551h-262l682 713-350 653h233l272-516 484 516h262l-641-678z" horiz-adv-x="1343" unicode="&#x58;"/><glyph d="M639 0h-205l125 571-358 795h223l266-610 533 610h250l-709-795z" horiz-adv-x="1294" unicode="&#x59;"/><glyph d="M995 0h-1011l36 168 945 1018h-719l39 180h997l-35-168-948-1018h737z" horiz-adv-x="1202" unicode="&#x5a;"/><glyph d="M287-389h-400l396 1778h399l-31-132h-260l-334-1515h258z" horiz-adv-x="520" unicode="&#x5b;"/><glyph d="M365-41l-164 1448h141l164-1448h-141z" horiz-adv-x="626" unicode="&#x5c;"/><glyph d="M236-389h-398l29 131h258l338 1515h-260l28 132h400z" horiz-adv-x="520" unicode="&#x5d;"/><glyph d="M889 682h-137l-140 553-383-553h-151l489 684h138z" horiz-adv-x="888" unicode="&#x5e;"/><glyph d="M1001-213h-1165l31 131h1165z" horiz-adv-x="1155" unicode="&#x5f;"/><glyph d="M618 1139h-135l-276 295h182z" horiz-adv-x="477" unicode="&#x60;"/><glyph d="M930 840l31 149h184l-219-989h-185l31 137q-130-162-317-162-172 0-276.5 108t-104.5 300q0 119 36 231.5t101 202 165 143.5 218 54q108 0 196-46.5t140-127.5zM268 418q0-128 71-203.5t187-75.5q83 0 158.5 44t122.5 110l92 409q-37 65-111 106.5t-170 41.5q-101 0-182.5-61.5t-124.5-160-43-210.5z" horiz-adv-x="1183" unicode="&#x61;"/><glyph d="M252 150l-31-150h-184l301 1366h184l-114-514q133 162 319 162 172 0 276.5-109t104.5-301q0-118-36.5-230.5t-101.5-201.5-165-143-217-54q-108 0-196 47t-140 128zM913 569q0 128-71.5 204.5t-186.5 76.5q-84 0-158.5-44t-123.5-112l-90-409q37-65 110.5-105.5t169.5-40.5q101 0 182.5 61.5t124.5 159.5 43 209z" horiz-adv-x="1183" unicode="&#x62;"/><glyph d="M76 420q0 161 74 297.5t203 216.5 284 80q267 0 379-189l-139-104q-35 62-98.5 95.5t-139.5 33.5q-166 0-270.5-125.5t-104.5-300.5q0-135 82-210t211-75q70 0 131.5 30.5t106.5 82.5l102-125q-145-152-358-152-208 0-335.5 120.5t-127.5 324.5z" horiz-adv-x="1015" unicode="&#x63;"/><glyph d="M930 840l114 526h185l-303-1366h-185l31 137q-130-162-317-162-172 0-276.5 108t-104.5 300q0 119 36 231.5t101 202 165 143.5 218 54q108 0 196-46.5t140-127.5zM268 418q0-128 71-203.5t187-75.5q83 0 158.5 44t122.5 110l92 409q-37 65-111 106.5t-170 41.5q-101 0-182.5-61.5t-124.5-160-43-210.5z" horiz-adv-x="1183" unicode="&#x64;"/><glyph d="M76 416q0 161 73 298.5t202 218.5 284 81q195 0 313.5-120.5t118.5-315.5q0-79-18-144h-785q-4-16-4-41 0-108 84.5-187t235.5-79q72 0 146 23.5t128 66.5l59-129q-68-52-160.5-82.5t-185.5-30.5q-228 0-359.5 119.5t-131.5 321.5zM283 567h616q2 6 2 33 0 114-73.5 188t-206.5 74q-124 0-220-87t-118-208z" horiz-adv-x="1146" unicode="&#x65;"/><glyph d="M651 827h-200l-185-827h-184l184 827h-164l35 162h164l14 66q74 331 338 331 116 0 191-51l-70-129q-39 29-102 29-69 0-110-44.5t-62-135.5l-15-66h201z" horiz-adv-x="606" unicode="&#x66;"/><glyph d="M-18-231l114 122q48-70 135.5-105.5t198.5-35.5q256 0 318 289l26 119q-60-76-144-119t-181-43q-79 0-145.5 24t-118.5 72-81.5 127.5-29.5 183.5q0 116 35.5 225t100 195.5 163 138.5 215.5 52q96 0 190-48.5t148-125.5l35 149h184l-213-950q-21-99-59-176t-85.5-126-107-80.5-119.5-44.5-127-13q-151 0-262.5 39t-189.5 131zM807 305l88 391q-39 71-117.5 112.5t-171.5 41.5q-100 0-179.5-60t-121-154.5-41.5-201.5q0-127 72-201.5t192-74.5q76 0 151.5 41.5t127.5 105.5z" horiz-adv-x="1181" unicode="&#x67;"/><glyph d="M889 0h-184l139 635q10 40 10 65 0 76-53.5 113t-141.5 37q-74 0-149-41.5t-135-103.5l-154-705h-184l301 1366h184l-114-516q172 164 344 164 137 0 218-65.5t81-182.5q0-27-11-82z" horiz-adv-x="1146" unicode="&#x68;"/><glyph d="M287 1257q0 59 42 96.5t91 37.5q45 0 76.5-30.5t31.5-72.5q0-59-42-96t-91-37q-47 0-77.5 29.5t-30.5 72.5zM221 0h-184l219 989h184z" horiz-adv-x="477" unicode="&#x69;"/><glyph d="M395 1155q-47 0-77.5 29.5t-30.5 72.5q0 59 42 96.5t91 37.5q45 0 76.5-30.5t31.5-72.5q0-59-42-96t-91-37zM-270-377l45 148q34-15 75-15 128 0 168 166l238 1067h184l-237-1067q-37-159-116.5-241t-217.5-82q-77 0-139 24z" horiz-adv-x="477" unicode="&#x6a;"/><glyph d="M934 0h-223l-240 432-190-158-60-274h-184l301 1366h184l-192-868 577 491h242l-526-448z" horiz-adv-x="1064" unicode="&#x6b;"/><glyph d="M221 0h-184l301 1366h184z" horiz-adv-x="477" unicode="&#x6c;"/><glyph d="M1423 0h-184l143 647q9 45 9 62 0 64-47.5 102.5t-114.5 38.5q-65 0-132.5-41t-119.5-102l-156-707h-184l143 647q8 50 8 72-2 57-44.5 94t-118.5 37q-62 0-128-41t-122-102l-154-707h-184l219 989h184l-32-139q148 164 309 164 63 0 115.5-20.5t82-50.5 45-58.5 15.5-48.5v-7q66 81 154 133t190 52q112 0 189-66t77-182q0-24-10-82z" horiz-adv-x="1679" unicode="&#x6d;"/><glyph d="M889 0h-184l139 635q10 45 10 65 0 75-50.5 112.5t-127.5 37.5q-158 0-301-143l-154-707h-184l219 989h184l-32-139q172 164 344 164 137 0 218-65.5t81-182.5q0-27-11-82z" horiz-adv-x="1144" unicode="&#x6e;"/><glyph d="M74 418q0 115 42 223.5t114.5 190.5 177.5 132 223 50q215 0 340-122.5t125-320.5q0-116-42.5-224.5t-115-190.5-178-131.5-223.5-49.5q-215 0-339 122t-124 321zM903 563q0 133-73.5 210t-202.5 77q-102 0-186-61.5t-129.5-158-45.5-204.5q0-133 73.5-210t203.5-77q102 0 186 61t129 157.5 45 205.5z" horiz-adv-x="1171" unicode="&#x6f;"/><glyph d="M252 150l-115-527h-184l303 1366h184l-32-137q133 162 319 162 172 0 276.5-109t104.5-301q0-118-36.5-230.5t-101.5-201.5-165-143-217-54q-108 0-196 47t-140 128zM913 569q0 128-71.5 204.5t-186.5 76.5q-84 0-158.5-44t-123.5-112l-90-409q37-65 110.5-105.5t169.5-40.5q101 0 182.5 61.5t124.5 159.5 43 209z" horiz-adv-x="1177" unicode="&#x70;"/><glyph d="M930 840l31 149h184l-303-1366h-185l115 514q-130-162-317-162-172 0-276.5 108t-104.5 300q0 119 36 231.5t101 202 165 143.5 218 54q108 0 196-46.5t140-127.5zM268 418q0-128 71-203.5t187-75.5q83 0 158.5 44t122.5 110l92 409q-37 65-111 106.5t-170 41.5q-101 0-182.5-61.5t-124.5-160-43-210.5z" horiz-adv-x="1177" unicode="&#x71;"/><glyph d="M221 0h-184l219 989h184l-34-145q75 85 159 126.5t203 41.5l-41-187q-54 9-82 9-77 0-150.5-43t-123.5-107z" horiz-adv-x="692" unicode="&#x72;"/><glyph d="M-2 152l113 127q43-62 136-109t197-47q92 0 147.5 45t55.5 108q0 22-12 41.5t-28 33-48.5 29.5-55 25-65.5 25q-42 16-62.5 24t-59.5 25.5-59 30.5-48.5 35-42.5 43.5-24.5 51-10.5 62.5q0 130 103.5 221t281.5 91q122 0 227-45.5t162-116.5l-100-121q-37 54-120.5 93.5t-174.5 39.5q-90 0-142.5-37.5t-52.5-95.5q0-23 12-42t48-38.5 53.5-27.5 75.5-30q8-3 12-5 42-15 64-23.5t61-26 60.5-31.5 50-36.5 43.5-45.5 25.5-54 10.5-66q0-137-108-233.5t-291-96.5q-136 0-248.5 45.5t-185.5 131.5z" horiz-adv-x="958" unicode="&#x73;"/><glyph d="M117 166q0 26 6 61l133 602h-164l37 160h164l59 271h185l-60-271h201l-37-160h-201l-123-561q-4-20-4-39 0-90 99-90 51 0 88 29l14-148q-57-45-152-45-116 0-180.5 47.5t-64.5 143.5z" horiz-adv-x="626" unicode="&#x74;"/><glyph d="M256 989h184l-141-633q-10-45-10-67 0-76 53-113t141-37q73 0 148 42t137 104l156 704h184l-219-989h-184l30 139q-172-164-344-164-136 0-217.5 65.5t-81.5 182.5q0 42 12 82z" horiz-adv-x="1144" unicode="&#x75;"/><glyph d="M498 0h-199l-188 989h190l135-776 484 776h204z" horiz-adv-x="1017" unicode="&#x76;"/><glyph d="M1085 0h-190l-76 760-411-760h-191l-92 989h186l56-753 415 753h162l80-753 391 753h201z" horiz-adv-x="1523" unicode="&#x77;"/><glyph d="M879 0h-203l-191 385-362-385h-217l481 508-240 481h201l176-356 334 356h217l-459-481z" horiz-adv-x="1005" unicode="&#x78;"/><glyph d="M-96-379l63 164q41-18 99-18 41 0 73 20.5t66 71.5l88 135-182 995h190l135-776 484 776h204l-749-1177q-71-113-148.5-163t-181.5-50q-80 0-141 22z" horiz-adv-x="1017" unicode="&#x79;"/><glyph d="M758 0h-768l28 141 662 686h-506l35 162h760l-29-137-668-692h521z" horiz-adv-x="970" unicode="&#x7a;"/><glyph d="M315-389h-96q-99 0-171.5 65t-72.5 166q0 26 7 58l90 401q4 24 4 35 0 46-22 76t-58 30l27 115q56 0 90 39t47 102l88 400q33 145 121 218t217 73h125l-29-132h-125q-132 0-168-159l-98-430q-31-149-133-183 59-32 59-112 0-37-8-70l-88-401q-4-24-4-43 0-52 33-84.5t83-32.5h113z" horiz-adv-x="548" unicode="&#x7b;"/><glyph d="M324-41h-131v1448h131v-1448z" horiz-adv-x="434" unicode="&#x7c;"/><glyph d="M231 1389h97q99 0 171-65.5t72-166.5q0-35-6-59l-90-400q-4-24-4-36 0-45 22-75t58-30l-27-115q-56 0-90-39t-47-102l-88-399q-33-146-121-218.5t-217-72.5h-125l29 131h125q65 0 109 41t61 117l96 432q31 147 133 182-59 32-59 113 0 36 8 69l88 402q4 24 4 41 0 52-33 85t-84 33h-112z" horiz-adv-x="548" unicode="&#x7d;"/><glyph d="M944 938l129-14q-109-490-373-490-46 0-80.5 14t-54 36-33 53.5-20 61.5-12.5 64v1.5 1.5q-5 30-8 47t-10 39.5-16 34-23.5 20-34.5 8.5q-70 0-133-107.5t-101-277.5l-131 19q22 100 53 182.5t75 153.5 106 111 137 40q47 0 81.5-15t54-34.5 34-56 20-59.5 12.5-66q5-31 8-47t10-40 16-35.5 24.5-20.5 36.5-9q69 0 132 108t101 277z" horiz-adv-x="1034" unicode="&#x7e;"/><glyph d="M455 893q0-57-42.5-97t-99.5-40q-49 0-82.5 33t-33.5 83q0 57 41.5 98.5t97.5 41.5q51 0 85-34.5t34-84.5zM182 588h158l-178-965h-228z" horiz-adv-x="487" unicode="&#xa1;"/><glyph d="M723 838l-156-697q135 3 228 111l102-125q-145-152-365-152l-40-180h-142l45 197q-148 37-233.5 150t-85.5 278q0 119 42.5 227.5t115 188 174 127.5 215.5 51l30 143h142l-37-156q179-39 258-176l-139-104q-52 88-154 117zM264 424q0-98 45-165.5t123-96.5l152 684q-145-21-232.5-142t-87.5-280z" horiz-adv-x="1015" unicode="&#xa2;"/><glyph d="M733 156q100 0 180 80l50-164q-106-99-244-99-92 0-238 52-129 41-196 41-99 0-234-80l-39 147q141 59 235.5 163.5t94.5 213.5q0 27-2 39h-289l29 127h213q-1 3-23 41-25 45-38 70.5t-26 70-13 86.5q0 118 67.5 220t185 162 256.5 60q103 0 194-30t156.5-88 88.5-135l-185-78q-17 72-85 117t-160 45q-123 0-209-81t-86-210q0-73 59-185 24-41 35-65h297l-29-127h-241q0-97-67-190t-148-140q49 14 94 14 77 0 166-40 101-37 151-37z" horiz-adv-x="1079" unicode="&#xa3;"/><glyph d="M1319 1114l-199-160q54-94 54-213 0-110-41.5-209t-116.5-176l114-143-126-100-115 145q-123-68-264-68-187 0-314 97l-202-164-101 125 199 160q-51 91-51 208 0 113 40 213.5t113 174.5l-116 151 126 100 119-151q122 67 267 67 185 0 315-100l201 164zM344 631q0-118 75-196.5t214-78.5q99 0 180 52.5t125.5 137.5 44.5 181q0 118-75 197.5t-216 79.5q-100 0-181-53t-124-138-43-182z" horiz-adv-x="1239" unicode="&#xa4;"/><glyph d="M1227 1366h250l-598-672h413l-28-123h-494l-45-202h494l-29-123h-492l-55-246h-205l56 246h-506l28 123h504l45 202h-504l27 123h422l-305 672h223l268-610z" horiz-adv-x="1294" unicode="&#xa5;"/><glyph d="M324 760h-131v647h131v-647zM324-41h-131v647h131v-647z" horiz-adv-x="434" unicode="&#xa6;"/><glyph d="M662 369q73-41 104-92t31-117q0-134-108.5-230t-285.5-96q-146 0-261.5 43.5t-190.5 122.5l112 113q51-67 143-106.5t195-39.5q94 0 152.5 48t58.5 120q0 25-12.5 46.5t-28.5 36-49 31-55 25.5-66 25q-39 15-61 24t-58 25.5-57 31-47 36.5-40 44.5-24 53-10 64.5q0 102 74.5 178.5t212.5 103.5q-176 73-176 221 0 126 105 215.5t276 89.5q272 0 410-151l-105-102q-47 59-129 89.5t-170 30.5q-92 0-148.5-43t-56.5-106q0-25 12.5-46.5t28.5-35.5 49.5-30 56-24.5 66.5-23.5q39-14 61.5-22.5t58.5-25 57.5-30.5 47.5-36 40-44.5 24-53.5 10-66q0-100-64-180.5t-183-116.5zM543 795q-126-16-190-67t-64-118q0-34 15.5-61t49.5-48.5 69.5-37 94.5-35.5q103 29 153 83.5t50 115.5q0 62-47.5 100.5t-130.5 67.5z" horiz-adv-x="966" unicode="&#xa7;"/><glyph d="M371 1157q-40 0-68.5 28t-28.5 68q0 47 37.5 83t83.5 36q41 0 69-27.5t28-68.5q0-46-37-82.5t-84-36.5zM797 1157q-40 0-68.5 28t-28.5 68q0 47 37 83t84 36q41 0 69-27.5t28-68.5q0-46-37-82.5t-84-36.5z" horiz-adv-x="851" unicode="&#xa8;"/><glyph d="M836-23q-191 0-353.5 95t-257 258-94.5 354q0 192 94.5 355t257 257.5 353.5 94.5q192 0 355-94.5t258-257.5 95-355q0-143-56-274t-151-226-226-151-275-56zM836 1325q-130 0-248-51t-204-137-136.5-204.5-50.5-248.5 50.5-248.5 136.5-204.5 204-137 248-51 249 51 205 137 137.5 204.5 51.5 248.5-51.5 248.5-137.5 204.5-205 137-249 51zM1036 418l41-62q-131-108-278-108-177 0-284 108.5t-107 272.5q0 102 40.5 194.5t107.5 157 154.5 102 178.5 37.5q221 0 321-164l-67-49q-74 142-258 142-96 0-186.5-53t-150-151-59.5-214q0-131 86-221.5t226-90.5q63 0 126.5 28t108.5 71z" horiz-adv-x="1593" unicode="&#xa9;"/><glyph d="M764 1311h139l-143-643h-139l20 90q-91-107-213-107-108 0-182 72t-74 203q0 165 100 283t246 118q156 0 227-106zM317 940q0-86 45.5-132t120.5-46q100 0 181 92l63 281q-24 38-73 60t-105 22q-97 0-164.5-82.5t-67.5-194.5z" horiz-adv-x="841" unicode="&#xaa;"/><glyph d="M475 129h-170l-246 369 410 362h186l-417-373zM797 129h-170l-246 369 410 362h186l-418-373z" horiz-adv-x="950" unicode="&#xab;"/><glyph d="M1063 942l-115-516h-127l86 393h-778l27 123h907z" horiz-adv-x="1038" unicode="&#xac;"/><glyph d="M532 416h-491l37 159h491z" horiz-adv-x="614" unicode="&#xad;"/><glyph d="M604 518q-180 0-306 127t-126 307q0 181 127 307.5t307 126.5q119 0 219-57.5t157.5-157.5 57.5-219q0-180-127.5-307t-308.5-127zM604 1325q-156 0-264.5-108.5t-108.5-264.5q0-154 109-264t264-110 265 110 110 264q0 156-109.5 264.5t-265.5 108.5zM752 702h-78l-86 197h-94l-43-197h-66l109 498h188q61 0 102-36t41-95q0-71-50.5-119.5t-112.5-48.5zM670 1141h-123l-41-180h137q49 0 81 29.5t32 72.5q0 36-23.5 57t-62.5 21z" horiz-adv-x="1011" unicode="&#xae;"/><glyph d="M844 1165h-645l26 113h645z" horiz-adv-x="743" unicode="&#xaf;"/><glyph d="M440 872q-106 0-181 74.5t-75 181.5q0 106 75 182t181 76q107 0 182.5-76t75.5-182q0-107-75.5-181.5t-182.5-74.5zM440 1276q-60 0-101.5-44t-41.5-104 40.5-102.5 100.5-42.5 105 42.5 45 102.5-44 104-104 44z" horiz-adv-x="606" unicode="&#xb0;"/><glyph d="M999 664h-385l-96-431h-133l94 431h-385l27 122h387l92 418h135l-94-418h387zM854 0h-905l24 123h908z" horiz-adv-x="1024" unicode="&#xb1;"/><glyph d="M791 862h-611l27 115q129 76 205 123t153.5 100.5 116.5 92.5 63.5 80.5 24.5 82.5q0 58-47.5 89.5t-116.5 31.5q-67 0-128.5-26t-100.5-68l-66 96q57 55 135.5 85t163.5 30q129 0 218.5-59t89.5-169q0-51-26-102.5t-67.5-96.5-109-96.5-134.5-94-161-97.5h395z" unicode="&#xb2;"/><glyph d="M539 848q-117 0-206 39.5t-132 109.5l92 84q82-116 239-116 79 0 123.5 41.5t44.5 105.5q0 51-53.5 81t-142.5 30q-52 0-64-2l27 118q50-4 125-4 83 0 129.5 33.5t46.5 93.5q0 53-53 84t-129 31q-117 0-217-84l-54 92q56 47 131.5 78t151.5 31q139 0 228-56t89-157q0-87-62.5-144.5t-166.5-64.5q68-14 114-61t46-115q0-99-84-173.5t-223-74.5z" unicode="&#xb3;"/><glyph d="M684 1434l-408-295h-139l361 295h186z" horiz-adv-x="477" unicode="&#xb4;"/><glyph d="M229 61l-98-438h-184l309 1366h184l-143-635q-25-108 22.5-162.5t141.5-54.5q79 0 162 41.5t139 100.5l158 710h184l-164-739q-11-52 6.5-81.5t61.5-29.5q21 0 41 4l-23-157q-46-11-94-11-99 0-145 45.5t-44 131.5q-72-78-163-127.5t-181-49.5q-126 0-170 86z" horiz-adv-x="1171" unicode="&#xb5;"/><glyph d="M631-205h-103l326 1469h-176l-326-1469h-102l192 867q-116 0-198 91t-82 228q0 97 50.5 185t143 144 203.5 56h420z" horiz-adv-x="919" unicode="&#xb6;"/><glyph d="M115 492q0 57 41 97t100 40q48 0 81.5-34t33.5-85q0-56-41.5-96.5t-98.5-40.5q-49 0-82.5 34.5t-33.5 84.5z" horiz-adv-x="487" unicode="&#xb7;"/><glyph d="M-182-313l59 80q33-34 78.5-53t91.5-19q57 0 89 24.5t32 63.5q0 26-19 41.5t-53 15.5q-42 0-69-30l-66 43 100 170h103l-82-134q33 23 68 23 53 0 85.5-32.5t32.5-90.5q0-83-62-133.5t-161-50.5q-71 0-131 23t-96 59z" horiz-adv-x="428" unicode="&#xb8;"/><glyph d="M469 862h-145l137 625-164-135-66 90 291 239h127z" horiz-adv-x="512" unicode="&#xb9;"/><glyph d="M170 944q0 159 110.5 271t266.5 112q143 0 229-81.5t86-213.5q0-158-111.5-269.5t-267.5-111.5q-141 0-227 81.5t-86 211.5zM719 1034q0 78-48 127t-126 49q-104 0-168-80.5t-64-187.5q0-80 47.5-128t126.5-48q104 0 168 80.5t64 187.5z" horiz-adv-x="829" unicode="&#xba;"/><glyph d="M158 860h170l245-368-409-363h-187l418 373zM479 860h170l246-368-410-363h-186l418 373z" horiz-adv-x="950" unicode="&#xbb;"/><glyph d="M1411 1366l-1175-1366h-125l1173 1366h127zM399 547h-145l137 624-164-135-65 90 291 240h127zM1432 197h-115l-43-197h-144l44 197h-402l21 102 460 520h201l-113-506h115zM1198 313l84 373-340-373h256z" horiz-adv-x="1566" unicode="&#xbc;"/><glyph d="M1411 1366l-1175-1366h-125l1173 1366h127zM399 547h-145l137 624-164-135-65 90 291 240h127zM1468 0h-610l27 115q129 76 205 123t153.5 100.5 116.5 92.5 63.5 80.5 24.5 82.5q0 58-47.5 89.5t-116.5 31.5q-67 0-128.5-26t-100.5-68l-66 96q56 55 134.5 84.5t164.5 29.5q129 0 218-58.5t89-168.5q0-51-26-102.5t-67-96.5-108.5-96.5-134.5-94-161-97.5h395z" horiz-adv-x="1669" unicode="&#xbd;"/><glyph d="M469 532q-117 0-206 39.5t-132 110.5l92 84q40-57 103-87t137-30q79 0 123.5 42t44.5 106q0 51-53.5 80.5t-143.5 29.5q-51 0-63-2l26 119q50-4 125-4 83 0 129.5 33.5t46.5 93.5q0 53-53 84t-129 31q-117 0-217-84l-53 92q56 47 131 77.5t151 30.5q139 0 228.5-56t89.5-157q0-86-63-144t-167-65q68-14 114-61t46-115q0-99-84-173.5t-223-74.5zM1636 1366l-1175-1366h-125l1173 1366h127zM1657 197h-115l-43-197h-143l43 197h-402l21 102 461 520h200l-112-506h114zM1423 313l84 373-340-373h256z" horiz-adv-x="1792" unicode="&#xbe;"/><glyph d="M694 893q0-58-41-98.5t-98-40.5q-49 0-83 34t-34 84q0 57 41.5 97.5t98.5 40.5q49 0 82.5-34.5t33.5-82.5zM397 541l166 57q43-64 43-145 0-33-8.5-63t-19.5-52-34-46-39-38-49-35-49-30-53-29q-49-26-79-44t-64-45.5-50-59.5-16-70q0-72 60-115t168-43q171 0 295 121l88-140q-177-163-412-163-182 0-300 82.5t-118 218.5q0 42 10 80.5t23.5 66.5 40.5 57 46.5 46.5 57.5 41.5 57 35 60 33q45 23 65 34.5t53.5 33.5 48.5 39.5 27.5 43.5 12.5 54q0 40-31 74z" horiz-adv-x="808" unicode="&#xbf;"/><glyph d="M965 1481h-136l-276 295h182zM1241 0h-215l-49 283h-670l-172-283h-235l843 1366h256zM958 465l-116 717-434-717h550z" horiz-adv-x="1363" unicode="&#xc0;"/><glyph d="M1372 1776l-407-295h-140l361 295h186zM1241 0h-215l-49 283h-670l-172-283h-235l843 1366h256zM958 465l-116 717-434-717h550z" horiz-adv-x="1363" unicode="&#xc1;"/><glyph d="M1184 1481h-117l-119 207-205-207h-122l258 295h172zM1241 0h-215l-49 283h-670l-172-283h-235l843 1366h256zM958 465l-116 717-434-717h550z" horiz-adv-x="1363" unicode="&#xc2;"/><glyph d="M897 1573q-16 26-26.5 39.5t-29.5 26-42 12.5q-81 0-117-162h-107q55 274 236 274 37 0 67.5-16.5t44.5-33 35-46.5q16-25 26.5-39.5t30-26.5 42.5-12q78 0 117 162h108q-58-274-238-274-37 0-67.5 16.5t-44.5 33-35 46.5zM1241 0h-215l-49 283h-670l-172-283h-235l843 1366h256zM958 465l-116 717-434-717h550z" horiz-adv-x="1363" unicode="&#xc3;"/><glyph d="M707 1499q-40 0-68.5 28t-28.5 68q0 47 37.5 83t83.5 36q41 0 68.5-27.5t27.5-68.5q0-46-36.5-82.5t-83.5-36.5zM1133 1499q-40 0-68.5 28t-28.5 68q0 47 37 83t84 36q41 0 68.5-27.5t27.5-68.5q0-46-36.5-82.5t-83.5-36.5zM1241 0h-215l-49 283h-670l-172-283h-235l843 1366h256zM958 465l-116 717-434-717h550z" horiz-adv-x="1363" unicode="&#xc4;"/><glyph d="M731 1634q0 91 67 158.5t158 67.5q83 0 136-53t53-136q0-91-67-158t-158-67q-83 0-136 52.5t-53 135.5zM1051 1663q0 46-27.5 74t-73.5 28q-50 0-87.5-37t-37.5-86q0-46 28.5-74t72.5-28q51 0 88 36t37 87zM1241 0h-215l-49 283h-670l-172-283h-235l843 1366h256zM958 465l-116 717-434-717h550z" horiz-adv-x="1363" unicode="&#xc5;"/><glyph d="M1739 0h-918l64 283h-523l-235-283h-231l1146 1366h998l-41-180h-711l-88-400h696l-41-180h-696l-94-426h711zM924 465l155 715-577-715h422z" horiz-adv-x="1951" unicode="&#xc6;"/><glyph d="M768 158q95 0 187 40.5t165 114.5l156-110q-106-117-243-172.5t-277-55.5q-40 0-58 2l-53-88q33 23 68 23 53 0 85.5-32.5t32.5-90.5q0-83-62-133.5t-161-50.5q-71 0-131 23t-96 59l59 80q33-34 78.5-53t91.5-19q57 0 89 24.5t32 63.5q0 26-19 41.5t-53 15.5q-42 0-69-30l-66 43 80 137q-219 42-354 199.5t-135 388.5q0 178 64.5 332t171.5 257.5 247 162.5 291 59q208 0 354-92.5t217-247.5l-194-74q-54 115-156 173t-231 58q-107 0-206.5-45.5t-176-124.5-122.5-195.5-46-250.5q0-192 120-312t320-120z" horiz-adv-x="1390" unicode="&#xc7;"/><glyph d="M907 1481h-135l-276 295h182zM958 0h-917l301 1366h918l-41-180h-711l-88-400h696l-41-180h-696l-94-426h710z" horiz-adv-x="1173" unicode="&#xc8;"/><glyph d="M1313 1776l-408-295h-139l360 295h187zM958 0h-917l301 1366h918l-41-180h-711l-88-400h696l-41-180h-696l-94-426h710z" horiz-adv-x="1173" unicode="&#xc9;"/><glyph d="M1124 1481h-116l-119 207-205-207h-123l258 295h172zM958 0h-917l301 1366h918l-41-180h-711l-88-400h696l-41-180h-696l-94-426h710z" horiz-adv-x="1173" unicode="&#xca;"/><glyph d="M647 1499q-40 0-68 28t-28 68q0 47 37.5 83t83.5 36q41 0 68.5-27.5t27.5-68.5q0-46-37-82.5t-84-36.5zM1073 1499q-40 0-68 28t-28 68q0 47 37 83t84 36q41 0 68.5-27.5t27.5-68.5q0-46-37-82.5t-84-36.5zM958 0h-917l301 1366h918l-41-180h-711l-88-400h696l-41-180h-696l-94-426h710z" horiz-adv-x="1173" unicode="&#xcb;"/><glyph d="M539 1481h-136l-276 295h182zM246 0h-205l301 1366h205z" horiz-adv-x="509" unicode="&#xcc;"/><glyph d="M946 1776l-407-295h-140l361 295h186zM246 0h-205l301 1366h205z" horiz-adv-x="509" unicode="&#xcd;"/><glyph d="M758 1481h-117l-119 207-205-207h-122l258 295h172zM246 0h-205l301 1366h205z" horiz-adv-x="509" unicode="&#xce;"/><glyph d="M281 1499q-40 0-68.5 28t-28.5 68q0 47 37.5 83t83.5 36q41 0 68.5-27.5t27.5-68.5q0-46-36.5-82.5t-83.5-36.5zM707 1499q-40 0-68.5 28t-28.5 68q0 47 37 83t84 36q41 0 68.5-27.5t27.5-68.5q0-46-36.5-82.5t-83.5-36.5zM246 0h-205l301 1366h205z" horiz-adv-x="509" unicode="&#xcf;"/><glyph d="M397 1366h477q114 0 218.5-43.5t184-119 126.5-185.5 47-236q0-114-31-223.5t-100-211-168-178.5-246-123-323-46h-486l133 600h-188l37 168h188zM340 180h278q185 0 327.5 82t216 215 73.5 293q0 179-113 297.5t-284 118.5h-275l-92-418h334l-37-168h-336z" horiz-adv-x="1499" unicode="&#xd0;"/><glyph d="M946 1573q-16 26-26.5 39.5t-29.5 26-42 12.5q-81 0-117-162h-106q55 274 235 274 37 0 67.5-16.5t45.5-33 35-46.5q16-26 26.5-39.5t29.5-26 42-12.5q78 0 117 162h108q-58-274-237-274-37 0-67.5 16.5t-45.5 33-35 46.5zM1200 0h-199l-514 1096-241-1096h-205l301 1366h211l506-1071 237 1071h205z" horiz-adv-x="1462" unicode="&#xd1;"/><glyph d="M1063 1481h-135l-277 295h183zM115 578q0 168 60.5 318.5t163.5 258.5 246.5 171 303.5 63q180 0 324.5-70.5t230.5-208.5 86-322q0-169-60.5-319.5t-163.5-259-246.5-171.5-303.5-63q-180 0-324.5 70.5t-230.5 209-86 323.5zM1317 774q0 133-59.5 232.5t-158.5 149.5-222 50q-111 0-212-47t-175-128.5-118-196.5-44-244q0-201 124.5-316.5t315.5-115.5q110 0 211 47t175.5 128.5 118.5 196.5 44 244z" horiz-adv-x="1566" unicode="&#xd2;"/><glyph d="M1468 1776l-407-295h-139l360 295h186zM115 578q0 168 60.5 318.5t163.5 258.5 246.5 171 303.5 63q180 0 324.5-70.5t230.5-208.5 86-322q0-169-60.5-319.5t-163.5-259-246.5-171.5-303.5-63q-180 0-324.5 70.5t-230.5 209-86 323.5zM1317 774q0 133-59.5 232.5t-158.5 149.5-222 50q-111 0-212-47t-175-128.5-118-196.5-44-244q0-201 124.5-316.5t315.5-115.5q110 0 211 47t175.5 128.5 118.5 196.5 44 244z" horiz-adv-x="1566" unicode="&#xd3;"/><glyph d="M1280 1481h-117l-119 207-204-207h-123l258 295h172zM115 578q0 168 60.5 318.5t163.5 258.5 246.5 171 303.5 63q180 0 324.5-70.5t230.5-208.5 86-322q0-169-60.5-319.5t-163.5-259-246.5-171.5-303.5-63q-180 0-324.5 70.5t-230.5 209-86 323.5zM1317 774q0 133-59.5 232.5t-158.5 149.5-222 50q-111 0-212-47t-175-128.5-118-196.5-44-244q0-201 124.5-316.5t315.5-115.5q110 0 211 47t175.5 128.5 118.5 196.5 44 244z" horiz-adv-x="1566" unicode="&#xd4;"/><glyph d="M993 1573q-16 26-26.5 39.5t-29.5 26-42 12.5q-81 0-117-162h-106q55 274 235 274 37 0 67.5-16.5t45.5-33 35-46.5q16-26 26.5-39.5t29.5-26 42-12.5q78 0 117 162h108q-58-274-237-274-37 0-67.5 16.5t-45.5 33-35 46.5zM115 578q0 168 60.5 318.5t163.5 258.5 246.5 171 303.5 63q180 0 324.5-70.5t230.5-208.5 86-322q0-169-60.5-319.5t-163.5-259-246.5-171.5-303.5-63q-180 0-324.5 70.5t-230.5 209-86 323.5zM1317 774q0 133-59.5 232.5t-158.5 149.5-222 50q-111 0-212-47t-175-128.5-118-196.5-44-244q0-201 124.5-316.5t315.5-115.5q110 0 211 47t175.5 128.5 118.5 196.5 44 244z" horiz-adv-x="1566" unicode="&#xd5;"/><glyph d="M805 1499q-40 0-68 28t-28 68q0 47 37 83t83 36q41 0 69-27.5t28-68.5q0-46-37-82.5t-84-36.5zM1231 1499q-40 0-68 28t-28 68q0 47 36.5 83t83.5 36q41 0 69-27.5t28-68.5q0-46-37-82.5t-84-36.5zM115 578q0 168 60.5 318.5t163.5 258.5 246.5 171 303.5 63q180 0 324.5-70.5t230.5-208.5 86-322q0-169-60.5-319.5t-163.5-259-246.5-171.5-303.5-63q-180 0-324.5 70.5t-230.5 209-86 323.5zM1317 774q0 133-59.5 232.5t-158.5 149.5-222 50q-111 0-212-47t-175-128.5-118-196.5-44-244q0-201 124.5-316.5t315.5-115.5q110 0 211 47t175.5 128.5 118.5 196.5 44 244z" horiz-adv-x="1566" unicode="&#xd6;"/><glyph d="M772 301l-231 295-369-303-78 94 373 305-229 295 98 80 227-295 371 303 76-96-371-303 229-297z" horiz-adv-x="1024" unicode="&#xd7;"/><glyph d="M1499 1464l68-65-191-201q154-160 154-410 0-169-60.5-319.5t-163.5-259-246.5-171.5-303.5-63q-241 0-416 127l-188-200-68 63 186 199q-155 161-155 414 0 168 60.5 318.5t163.5 258.5 246.5 171 303.5 63q244 0 418-129zM328 590q0-161 86-275l753 797q-120 94-290 94-111 0-212-47t-175-128.5-118-196.5-44-244zM1317 774q0 159-84 270l-754-794q118-92 289-92 110 0 211 47t175.5 128.5 118.5 196.5 44 244z" horiz-adv-x="1566" unicode="&#xd8;"/><glyph d="M1010 1481h-136l-276 295h182zM682-25q-249 0-388.5 124.5t-139.5 336.5q0 74 12 129l176 801h207l-174-795q-15-70-15-116 0-135 87.5-217t244.5-82q176 0 272.5 98.5t137.5 284.5l182 827h207l-182-829q-29-133-74.5-231t-118.5-175-181.5-116.5-252.5-39.5z" horiz-adv-x="1454" unicode="&#xd9;"/><glyph d="M1415 1776l-407-295h-140l361 295h186zM682-25q-249 0-388.5 124.5t-139.5 336.5q0 74 12 129l176 801h207l-174-795q-15-70-15-116 0-135 87.5-217t244.5-82q176 0 272.5 98.5t137.5 284.5l182 827h207l-182-829q-29-133-74.5-231t-118.5-175-181.5-116.5-252.5-39.5z" horiz-adv-x="1454" unicode="&#xda;"/><glyph d="M1227 1481h-117l-119 207-205-207h-122l258 295h172zM682-25q-249 0-388.5 124.5t-139.5 336.5q0 74 12 129l176 801h207l-174-795q-15-70-15-116 0-135 87.5-217t244.5-82q176 0 272.5 98.5t137.5 284.5l182 827h207l-182-829q-29-133-74.5-231t-118.5-175-181.5-116.5-252.5-39.5z" horiz-adv-x="1454" unicode="&#xdb;"/><glyph d="M752 1499q-40 0-68.5 28t-28.5 68q0 47 37.5 83t83.5 36q41 0 68.5-27.5t27.5-68.5q0-46-36.5-82.5t-83.5-36.5zM1178 1499q-40 0-68.5 28t-28.5 68q0 47 37 83t84 36q41 0 68.5-27.5t27.5-68.5q0-46-36.5-82.5t-83.5-36.5zM682-25q-249 0-388.5 124.5t-139.5 336.5q0 74 12 129l176 801h207l-174-795q-15-70-15-116 0-135 87.5-217t244.5-82q176 0 272.5 98.5t137.5 284.5l182 827h207l-182-829q-29-133-74.5-231t-118.5-175-181.5-116.5-252.5-39.5z" horiz-adv-x="1454" unicode="&#xdc;"/><glyph d="M1337 1776l-407-295h-139l360 295h186zM639 0h-205l125 571-358 795h223l266-610 533 610h250l-709-795z" horiz-adv-x="1294" unicode="&#xdd;"/><glyph d="M246 0h-205l301 1366h205l-51-238h350q155 0 259.5-105.5t104.5-254.5q0-68-18-133.5t-59.5-128-101.5-110-151-76.5-202-29h-369zM997 750q0 84-61 140t-150 56h-331l-105-475h340q146 0 226.5 82t80.5 197z" horiz-adv-x="1222" unicode="&#xde;"/><glyph d="M1081 997q-22-93-97-166.5t-183-103.5q135-40 202-157t35-263q-35-154-157-243t-285-89q-93 0-165 25.5t-114 60.5l91 129q74-57 188-57 96 0 167 57.5t93 155.5q32 145-57.5 232.5t-288.5 78.5l33 148q151 0 240 56.5t110 152.5q19 95-36.5 152t-145.5 57q-108 0-184.5-74t-110.5-229l-205-920h-184l204 920q51 231 181 348.5t315 117.5q83 0 156-27.5t124-76.5 72-123.5 2-161.5z" horiz-adv-x="1165" unicode="&#xdf;"/><glyph d="M805 1139h-135l-277 295h182zM930 840l31 149h184l-219-989h-185l31 137q-130-162-317-162-172 0-276.5 108t-104.5 300q0 119 36 231.5t101 202 165 143.5 218 54q108 0 196-46.5t140-127.5zM268 418q0-128 71-203.5t187-75.5q83 0 158.5 44t122.5 110l92 409q-37 65-111 106.5t-170 41.5q-101 0-182.5-61.5t-124.5-160-43-210.5z" horiz-adv-x="1183" unicode="&#xe0;"/><glyph d="M1210 1434l-407-295h-139l360 295h186zM930 840l31 149h184l-219-989h-185l31 137q-130-162-317-162-172 0-276.5 108t-104.5 300q0 119 36 231.5t101 202 165 143.5 218 54q108 0 196-46.5t140-127.5zM268 418q0-128 71-203.5t187-75.5q83 0 158.5 44t122.5 110l92 409q-37 65-111 106.5t-170 41.5q-101 0-182.5-61.5t-124.5-160-43-210.5z" horiz-adv-x="1183" unicode="&#xe1;"/><glyph d="M1022 1139h-117l-119 207-204-207h-123l258 295h172zM930 840l31 149h184l-219-989h-185l31 137q-130-162-317-162-172 0-276.5 108t-104.5 300q0 119 36 231.5t101 202 165 143.5 218 54q108 0 196-46.5t140-127.5zM268 418q0-128 71-203.5t187-75.5q83 0 158.5 44t122.5 110l92 409q-37 65-111 106.5t-170 41.5q-101 0-182.5-61.5t-124.5-160-43-210.5z" horiz-adv-x="1183" unicode="&#xe2;"/><glyph d="M735 1231q-16 26-26.5 39.5t-29.5 26-42 12.5q-81 0-117-162h-106q55 274 235 274 37 0 67.5-16.5t45.5-33 35-46.5q16-26 26.5-39.5t29.5-26 42-12.5q78 0 117 162h108q-58-274-237-274-37 0-67.5 16.5t-45.5 33-35 46.5zM930 840l31 149h184l-219-989h-185l31 137q-130-162-317-162-172 0-276.5 108t-104.5 300q0 119 36 231.5t101 202 165 143.5 218 54q108 0 196-46.5t140-127.5zM268 418q0-128 71-203.5t187-75.5q83 0 158.5 44t122.5 110l92 409q-37 65-111 106.5t-170 41.5q-101 0-182.5-61.5t-124.5-160-43-210.5z" horiz-adv-x="1183" unicode="&#xe3;"/><glyph d="M547 1157q-40 0-68 28t-28 68q0 47 37 83t83 36q41 0 69-27.5t28-68.5q0-46-37-82.5t-84-36.5zM973 1157q-40 0-68 28t-28 68q0 47 36.5 83t83.5 36q41 0 69-27.5t28-68.5q0-46-37-82.5t-84-36.5zM930 840l31 149h184l-219-989h-185l31 137q-130-162-317-162-172 0-276.5 108t-104.5 300q0 119 36 231.5t101 202 165 143.5 218 54q108 0 196-46.5t140-127.5zM268 418q0-128 71-203.5t187-75.5q83 0 158.5 44t122.5 110l92 409q-37 65-111 106.5t-170 41.5q-101 0-182.5-61.5t-124.5-160-43-210.5z" horiz-adv-x="1183" unicode="&#xe4;"/><glyph d="M571 1292q0 91 67.5 158.5t158.5 67.5q83 0 135.5-53t52.5-136q0-91-67-158t-158-67q-83 0-136 52.5t-53 135.5zM891 1321q0 46-27 74t-73 28q-50 0-87.5-37t-37.5-86q0-46 28-74t72-28q51 0 88 36t37 87zM930 840l31 149h184l-219-989h-185l31 137q-130-162-317-162-172 0-276.5 108t-104.5 300q0 119 36 231.5t101 202 165 143.5 218 54q108 0 196-46.5t140-127.5zM268 418q0-128 71-203.5t187-75.5q83 0 158.5 44t122.5 110l92 409q-37 65-111 106.5t-170 41.5q-101 0-182.5-61.5t-124.5-160-43-210.5z" horiz-adv-x="1183" unicode="&#xe5;"/><glyph d="M975 217l-49-217h-185l31 137q-130-162-317-162-172 0-276.5 108t-104.5 300q0 119 36 231.5t101 202 165 143.5 218 54q108 0 196-46.5t140-127.5l31 149h184l-33-155q61 76 150.5 128t193.5 52q180 0 277.5-113t97.5-311q0-87-19-156h-780q-2-14-2-41 0-108 83.5-185t234.5-77q153 0 266 90l61-133q-70-52-156-82.5t-165-30.5q-152 0-247.5 66t-131.5 176zM1051 567h608q2 6 2 33 0 115-70 188.5t-202 73.5q-123 0-219.5-87.5t-118.5-207.5zM268 418q0-128 71-203.5t187-75.5q83 0 158.5 44t122.5 110l92 409q-37 65-111 106.5t-170 41.5q-101 0-182.5-61.5t-124.5-160-43-210.5z" horiz-adv-x="1906" unicode="&#xe6;"/><glyph d="M557 139q70 0 131.5 30.5t106.5 82.5l102-125q-145-152-358-152h-21l-53-86q33 23 67 23 54 0 86.5-33t32.5-90q0-83-62-133.5t-161-50.5q-71 0-131 23t-96 59l59 80q33-34 78.5-53t91.5-19q57 0 89 24.5t32 63.5q0 26-19 41.5t-53 15.5q-42 0-69-30l-66 43 80 133q-161 33-254.5 147.5t-93.5 286.5q0 161 74 297.5t203 216.5 284 80q267 0 379-189l-139-104q-35 62-98.5 95.5t-139.5 33.5q-166 0-270.5-125.5t-104.5-300.5q0-135 82-210t211-75z" horiz-adv-x="1015" unicode="&#xe7;"/><glyph d="M791 1139h-136l-276 295h182zM76 416q0 161 73 298.5t202 218.5 284 81q195 0 313.5-120.5t118.5-315.5q0-79-18-144h-785q-4-16-4-41 0-108 84.5-187t235.5-79q72 0 146 23.5t128 66.5l59-129q-68-52-160.5-82.5t-185.5-30.5q-228 0-359.5 119.5t-131.5 321.5zM283 567h616q2 6 2 33 0 114-73.5 188t-206.5 74q-124 0-220-87t-118-208z" horiz-adv-x="1146" unicode="&#xe8;"/><glyph d="M1196 1434l-408-295h-139l361 295h186zM76 416q0 161 73 298.5t202 218.5 284 81q195 0 313.5-120.5t118.5-315.5q0-79-18-144h-785q-4-16-4-41 0-108 84.5-187t235.5-79q72 0 146 23.5t128 66.5l59-129q-68-52-160.5-82.5t-185.5-30.5q-228 0-359.5 119.5t-131.5 321.5zM283 567h616q2 6 2 33 0 114-73.5 188t-206.5 74q-124 0-220-87t-118-208z" horiz-adv-x="1146" unicode="&#xe9;"/><glyph d="M1008 1139h-117l-119 207-205-207h-123l258 295h172zM76 416q0 161 73 298.5t202 218.5 284 81q195 0 313.5-120.5t118.5-315.5q0-79-18-144h-785q-4-16-4-41 0-108 84.5-187t235.5-79q72 0 146 23.5t128 66.5l59-129q-68-52-160.5-82.5t-185.5-30.5q-228 0-359.5 119.5t-131.5 321.5zM283 567h616q2 6 2 33 0 114-73.5 188t-206.5 74q-124 0-220-87t-118-208z" horiz-adv-x="1146" unicode="&#xea;"/><glyph d="M530 1157q-40 0-68 28t-28 68q0 47 37.5 83t83.5 36q41 0 68.5-27.5t27.5-68.5q0-46-37-82.5t-84-36.5zM956 1157q-40 0-68 28t-28 68q0 47 37 83t84 36q41 0 68.5-27.5t27.5-68.5q0-46-37-82.5t-84-36.5zM76 416q0 161 73 298.5t202 218.5 284 81q195 0 313.5-120.5t118.5-315.5q0-79-18-144h-785q-4-16-4-41 0-108 84.5-187t235.5-79q72 0 146 23.5t128 66.5l59-129q-68-52-160.5-82.5t-185.5-30.5q-228 0-359.5 119.5t-131.5 321.5zM283 567h616q2 6 2 33 0 114-73.5 188t-206.5 74q-124 0-220-87t-118-208z" horiz-adv-x="1146" unicode="&#xeb;"/><glyph d="M446 1139h-135l-276 295h182zM221 0h-184l219 989h184z" horiz-adv-x="477" unicode="&#xec;"/><glyph d="M852 1434l-408-295h-139l361 295h186zM221 0h-184l219 989h184z" horiz-adv-x="477" unicode="&#xed;"/><glyph d="M664 1139h-117l-119 207-205-207h-123l258 295h172zM221 0h-184l219 989h184z" horiz-adv-x="477" unicode="&#xee;"/><glyph d="M188 1157q-40 0-68 28t-28 68q0 47 37.5 83t83.5 36q41 0 68.5-27.5t27.5-68.5q0-46-37-82.5t-84-36.5zM614 1157q-40 0-68 28t-28 68q0 47 37 83t84 36q41 0 68.5-27.5t27.5-68.5q0-46-37-82.5t-84-36.5zM221 0h-184l219 989h184z" horiz-adv-x="477" unicode="&#xef;"/><glyph d="M1057 1241l-185-55q230-272 230-565 0-131-40.5-249t-112.5-206-177.5-139.5-228.5-51.5q-211 0-341 118.5t-130 305.5q0 156 68 287t185 207 255 76q111 0 202-54.5t138-164.5q-55 187-246 378l-324-96-26 92 270 80q-41 37-127 103l131 137q112-84 203-178l229 67zM545 139q147 0 247.5 116.5t100.5 283.5q0 50-17 96.5t-50.5 85.5-89.5 62.5-128 23.5q-143 0-243.5-114.5t-100.5-278.5q0-124 75-199.5t206-75.5z" horiz-adv-x="1171" unicode="&#xf0;"/><glyph d="M715 1231q-16 25-26.5 39.5t-30 26.5-42.5 12q-80 0-116-162h-107q55 274 236 274 37 0 67.5-16.5t44.5-33 35-46.5q16-26 26.5-39.5t29.5-26 42-12.5q78 0 117 162h109q-58-274-238-274-37 0-67.5 16.5t-44.5 33-35 46.5zM889 0h-184l139 635q10 45 10 65 0 75-50.5 112.5t-127.5 37.5q-158 0-301-143l-154-707h-184l219 989h184l-32-139q172 164 344 164 137 0 218-65.5t81-182.5q0-27-11-82z" horiz-adv-x="1144" unicode="&#xf1;"/><glyph d="M793 1139h-136l-276 295h182zM74 418q0 115 42 223.5t114.5 190.5 177.5 132 223 50q215 0 340-122.5t125-320.5q0-116-42.5-224.5t-115-190.5-178-131.5-223.5-49.5q-215 0-339 122t-124 321zM903 563q0 133-73.5 210t-202.5 77q-102 0-186-61.5t-129.5-158-45.5-204.5q0-133 73.5-210t203.5-77q102 0 186 61t129 157.5 45 205.5z" horiz-adv-x="1171" unicode="&#xf2;"/><glyph d="M1200 1434l-407-295h-140l361 295h186zM74 418q0 115 42 223.5t114.5 190.5 177.5 132 223 50q215 0 340-122.5t125-320.5q0-116-42.5-224.5t-115-190.5-178-131.5-223.5-49.5q-215 0-339 122t-124 321zM903 563q0 133-73.5 210t-202.5 77q-102 0-186-61.5t-129.5-158-45.5-204.5q0-133 73.5-210t203.5-77q102 0 186 61t129 157.5 45 205.5z" horiz-adv-x="1171" unicode="&#xf3;"/><glyph d="M1012 1139h-117l-119 207-205-207h-122l258 295h172zM74 418q0 115 42 223.5t114.5 190.5 177.5 132 223 50q215 0 340-122.5t125-320.5q0-116-42.5-224.5t-115-190.5-178-131.5-223.5-49.5q-215 0-339 122t-124 321zM903 563q0 133-73.5 210t-202.5 77q-102 0-186-61.5t-129.5-158-45.5-204.5q0-133 73.5-210t203.5-77q102 0 186 61t129 157.5 45 205.5z" horiz-adv-x="1171" unicode="&#xf4;"/><glyph d="M725 1231q-16 26-26.5 39.5t-29.5 26-42 12.5q-81 0-117-162h-107q55 274 236 274 37 0 67.5-16.5t44.5-33 35-46.5q16-25 26.5-39.5t30-26.5 42.5-12q77 0 116 162h109q-58-274-238-274-37 0-67.5 16.5t-44.5 33-35 46.5zM74 418q0 115 42 223.5t114.5 190.5 177.5 132 223 50q215 0 340-122.5t125-320.5q0-116-42.5-224.5t-115-190.5-178-131.5-223.5-49.5q-215 0-339 122t-124 321zM903 563q0 133-73.5 210t-202.5 77q-102 0-186-61.5t-129.5-158-45.5-204.5q0-133 73.5-210t203.5-77q102 0 186 61t129 157.5 45 205.5z" horiz-adv-x="1171" unicode="&#xf5;"/><glyph d="M535 1157q-40 0-68.5 28t-28.5 68q0 47 37.5 83t83.5 36q41 0 68.5-27.5t27.5-68.5q0-46-36.5-82.5t-83.5-36.5zM961 1157q-40 0-68.5 28t-28.5 68q0 47 37 83t84 36q41 0 68.5-27.5t27.5-68.5q0-46-36.5-82.5t-83.5-36.5zM74 418q0 115 42 223.5t114.5 190.5 177.5 132 223 50q215 0 340-122.5t125-320.5q0-116-42.5-224.5t-115-190.5-178-131.5-223.5-49.5q-215 0-339 122t-124 321zM903 563q0 133-73.5 210t-202.5 77q-102 0-186-61.5t-129.5-158-45.5-204.5q0-133 73.5-210t203.5-77q102 0 186 61t129 157.5 45 205.5z" horiz-adv-x="1171" unicode="&#xf6;"/><glyph d="M545 1063q0 45 33.5 78t78.5 33q38 0 66.5-28.5t28.5-66.5q0-47-33.5-78.5t-79.5-31.5q-39 0-66.5 27.5t-27.5 66.5zM1016 629h-928l27 123h927zM377 295q0 45 32.5 78t77.5 33q39 0 67-28t28-67q0-45-34-77.5t-79-32.5q-38 0-65 28t-27 66z" horiz-adv-x="1046" unicode="&#xf7;"/><glyph d="M1083 1038l-116-143q129-120 129-324 0-116-42.5-224.5t-115-190.5-178-131.5-223.5-49.5q-156 0-267 66l-112-139-64 51 111 137q-131 122-131 328 0 115 42 223.5t114.5 190.5 177.5 132 223 50q160 0 272-70l119 143zM266 426q0-116 58-193l467 572q-67 45-164 45-102 0-186-61.5t-129.5-158-45.5-204.5zM543 139q102 0 186 61t129 157.5 45 205.5q0 117-55 187l-463-570q62-41 158-41z" horiz-adv-x="1171" unicode="&#xf8;"/><glyph d="M782 1139h-135l-276 295h182zM256 989h184l-141-633q-10-45-10-67 0-76 53-113t141-37q73 0 148 42t137 104l156 704h184l-219-989h-184l30 139q-172-164-344-164-136 0-217.5 65.5t-81.5 182.5q0 42 12 82z" horiz-adv-x="1144" unicode="&#xf9;"/><glyph d="M1188 1434l-408-295h-139l360 295h187zM256 989h184l-141-633q-10-45-10-67 0-76 53-113t141-37q73 0 148 42t137 104l156 704h184l-219-989h-184l30 139q-172-164-344-164-136 0-217.5 65.5t-81.5 182.5q0 42 12 82z" horiz-adv-x="1144" unicode="&#xfa;"/><glyph d="M999 1139h-116l-119 207-205-207h-123l258 295h172zM256 989h184l-141-633q-10-45-10-67 0-76 53-113t141-37q73 0 148 42t137 104l156 704h184l-219-989h-184l30 139q-172-164-344-164-136 0-217.5 65.5t-81.5 182.5q0 42 12 82z" horiz-adv-x="1144" unicode="&#xfb;"/><glyph d="M524 1157q-40 0-68 28t-28 68q0 47 37.5 83t83.5 36q41 0 68.5-27.5t27.5-68.5q0-46-37-82.5t-84-36.5zM950 1157q-40 0-68 28t-28 68q0 47 37 83t84 36q41 0 68.5-27.5t27.5-68.5q0-46-37-82.5t-84-36.5zM256 989h184l-141-633q-10-45-10-67 0-76 53-113t141-37q73 0 148 42t137 104l156 704h184l-219-989h-184l30 139q-172-164-344-164-136 0-217.5 65.5t-81.5 182.5q0 42 12 82z" horiz-adv-x="1144" unicode="&#xfc;"/><glyph d="M1124 1434l-407-295h-139l360 295h186zM-96-379l63 164q41-18 99-18 41 0 73 20.5t66 71.5l88 135-182 995h190l135-776 484 776h204l-749-1177q-71-113-148.5-163t-181.5-50q-80 0-141 22z" horiz-adv-x="1017" unicode="&#xfd;"/><glyph d="M252 150l-115-527h-184l385 1743h184l-114-514q133 162 319 162 172 0 276.5-109t104.5-301q0-118-36.5-230.5t-101.5-201.5-165-143-217-54q-108 0-196 47t-140 128zM913 569q0 128-71.5 204.5t-186.5 76.5q-84 0-158.5-44t-123.5-112l-90-409q37-65 110.5-105.5t169.5-40.5q101 0 182.5 61.5t124.5 159.5 43 209z" horiz-adv-x="1177" unicode="&#xfe;"/><glyph d="M459 1157q-40 0-68.5 28t-28.5 68q0 47 37.5 83t83.5 36q41 0 69-27.5t28-68.5q0-46-37-82.5t-84-36.5zM885 1157q-40 0-68.5 28t-28.5 68q0 47 37 83t84 36q41 0 69-27.5t28-68.5q0-46-37-82.5t-84-36.5zM-96-379l63 164q41-18 99-18 41 0 73 20.5t66 71.5l88 135-182 995h190l135-776 484 776h204l-749-1177q-71-113-148.5-163t-181.5-50q-80 0-141 22z" horiz-adv-x="1017" unicode="&#xff;"/><glyph d="M2036 0h-916l41 195q-80-104-200-162t-273-58q-164 0-295 76.5t-204.5 214.5-73.5 312q0 176 62 328.5t167.5 256.5 246 163.5 294.5 59.5q108 0 197-27.5t163.5-94.5 116.5-170l59 272h916l-39-180h-711l-88-400h696l-41-180h-696l-94-426h711zM1212 422l99 442q-30 161-142 250.5t-278 89.5q-116 0-220-47.5t-179-129-119.5-196-44.5-241.5q0-197 118-314.5t308-117.5q137 0 260 70.5t198 193.5z" horiz-adv-x="2250" unicode="&#x152;"/><glyph d="M1858 434h-779q0-2-1-17t-1-24q0-110 84-188t232-78q72 0 144.5 24.5t125.5 65.5l59-129q-67-51-157-82t-187-31q-87 0-163 25.5t-126.5 66-83 85-44.5 88.5q-32-44-52-69t-63.5-68-83.5-66.5-101.5-42.5-128.5-19q-206 0-332 118.5t-126 324.5q0 113 41 221t112 191 176 133.5 224 50.5q84 0 155.5-26.5t117.5-68.5 75-85.5 41-85.5q27 39 51.5 68.5t67 69 85 65.5 103 44.5 125.5 18.5q187 0 307.5-116t120.5-320q0-61-18-144zM1100 567h606q4 16 4 33 0 113-71.5 187.5t-202.5 74.5q-66 0-127-27.5t-103.5-71-70.5-95-35-101.5zM623 850q-149 0-253-125.5t-104-298.5q0-132 72.5-209.5t200.5-77.5q151 0 253.5 125.5t102.5 298.5q0 142-78 214.5t-194 72.5z" horiz-adv-x="1951" unicode="&#x153;"/><glyph d="M674 1499q-40 0-68 28t-28 68q0 47 37 83t83 36q41 0 69-27.5t28-68.5q0-46-37-82.5t-84-36.5zM1100 1499q-40 0-68 28t-28 68q0 47 36.5 83t83.5 36q41 0 69-27.5t28-68.5q0-46-37-82.5t-84-36.5zM639 0h-205l125 571-358 795h223l266-610 533 610h250l-709-795z" horiz-adv-x="1294" unicode="&#x178;"/><glyph d="M733 668h-139l88 401q4 24 4 41 0 49-33 74.5t-92 25.5q-86 0-180-94l-98-448h-140l197 888h139l-73-333q104 104 225 104 97 0 152-43.5t55-122.5q0-16-9-61z" horiz-adv-x="821" unicode="&#x2b0;"/><glyph d="M705 1139h-117l-119 207-205-207h-123l258 295h172z" horiz-adv-x="563" unicode="&#x2c6;"/><glyph d="M465 1231q-16 26-26.5 39.5t-29.5 26-42 12.5q-81 0-117-162h-107q55 274 236 274 37 0 67.5-16.5t44.5-33 35-46.5q16-25 26.5-39.5t30-26.5 42.5-12q77 0 116 162h109q-58-274-238-274-37 0-67.5 16.5t-44.5 33-35 46.5z" horiz-adv-x="649" unicode="&#x2dc;"/><glyph horiz-adv-x="930" unicode="&#x2000;"/><glyph horiz-adv-x="1860" unicode="&#x2001;"/><glyph horiz-adv-x="930" unicode="&#x2002;"/><glyph horiz-adv-x="1860" unicode="&#x2003;"/><glyph horiz-adv-x="620" unicode="&#x2004;"/><glyph horiz-adv-x="465" unicode="&#x2005;"/><glyph horiz-adv-x="310" unicode="&#x2006;"/><glyph horiz-adv-x="310" unicode="&#x2007;"/><glyph horiz-adv-x="232" unicode="&#x2008;"/><glyph horiz-adv-x="372" unicode="&#x2009;"/><glyph horiz-adv-x="103" unicode="&#x200a;"/><glyph d="M532 416h-491l37 159h491z" horiz-adv-x="614" unicode="&#x2010;"/><glyph d="M532 416h-491l37 159h491z" horiz-adv-x="614" unicode="&#x2011;"/><glyph d="M532 416h-491l37 159h491z" horiz-adv-x="614" unicode="&#x2012;"/><glyph d="M1133 416h-1092l37 159h1091z" horiz-adv-x="1214" unicode="&#x2013;"/><glyph d="M1624 416h-1583l37 159h1583z" horiz-adv-x="1705" unicode="&#x2014;"/><glyph d="M467 1386l72-75q-58-28-110-75.5t-71-96.5q4 2 17 2 41 0 70.5-29.5t29.5-75.5q0-56-43-96.5t-98-40.5q-52 0-87.5 35t-35.5 98q0 100 74.5 200t181.5 154z" horiz-adv-x="485" unicode="&#x2018;"/><glyph d="M289 899l-72 74q60 29 111 76t69 96h-16q-41 0-69.5 28t-28.5 76q0 56 42 96.5t97 40.5q52 0 87.5-35.5t35.5-97.5q0-99-74.5-199.5t-181.5-154.5z" horiz-adv-x="485" unicode="&#x2019;"/><glyph d="M35-254l-72 76q58 27 109 75t71 97h-18q-40 0-69 28t-29 74q0 56 42 96.5t97 40.5q54 0 88.5-34.5t34.5-98.5q0-99-73.5-199.5t-180.5-154.5z" horiz-adv-x="487" unicode="&#x201a;"/><glyph d="M479 1386l72-75q-59-27-110.5-75t-69.5-97q2 2 16 2 41 0 69.5-29.5t28.5-75.5q0-56-42-96.5t-97-40.5q-52 0-87.5 35t-35.5 98q0 100 74.5 200t181.5 154zM829 1386l72-75q-58-27-109-75t-71-97q4 2 18 2 41 0 70-29.5t29-75.5q0-56-42.5-96.5t-97.5-40.5q-52 0-87.5 35t-35.5 98q0 100 73.5 200t180.5 154z" horiz-adv-x="837" unicode="&#x201c;"/><glyph d="M289 899l-72 74q60 29 111 76t69 96h-16q-41 0-69.5 28t-28.5 76q0 56 42 96.5t97 40.5q52 0 87.5-35.5t35.5-97.5q0-99-74.5-199.5t-181.5-154.5zM643 899l-72 74q59 30 110.5 76.5t70.5 95.5h-19q-41 0-69.5 28t-28.5 76q0 56 42 96.5t97 40.5q52 0 87.5-35.5t35.5-97.5q0-99-73.5-199.5t-180.5-154.5z" horiz-adv-x="837" unicode="&#x201d;"/><glyph d="M35-254l-72 76q58 27 109 75t71 97h-18q-40 0-69 28t-29 74q0 56 42 96.5t97 40.5q54 0 88.5-34.5t34.5-98.5q0-99-73.5-199.5t-180.5-154.5zM385-254l-70 76q58 28 110 75.5t71 96.5h-19q-41 0-69.5 28t-28.5 74q0 56 42 96.5t97 40.5q52 0 87.5-35t35.5-98q0-99-74.5-199.5t-181.5-154.5z" horiz-adv-x="837" unicode="&#x201e;"/><glyph d="M340 270q-86 0-144.5 58.5t-58.5 144.5q0 101 76 175.5t178 74.5q88 0 146.5-58.5t58.5-146.5q0-101-77-174.5t-179-73.5z" horiz-adv-x="733" unicode="&#x2022;"/><glyph d="M27 96q0 57 41 97t100 40q48 0 81.5-34t33.5-84q0-56-41.5-97t-98.5-41q-49 0-82.5 34.5t-33.5 84.5zM514 96q0 57 41 97t100 40q48 0 81.5-34t33.5-84q0-56-41-97t-98-41q-49 0-83 34.5t-34 84.5zM999 96q0 57 42.5 97t99.5 40q50 0 83-33.5t33-84.5q0-55-41.5-96.5t-97.5-41.5q-51 0-85 34.5t-34 84.5z" horiz-adv-x="1460" unicode="&#x2026;"/><glyph horiz-adv-x="372" unicode="&#x202f;"/><glyph d="M188 805l-71 49q230 456 250 485 32 47 88 47 46 0 77-31t31-77q0-38-31-74z" horiz-adv-x="440" unicode="&#x2032;"/><glyph d="M188 805l-71 49q230 456 250 485 32 47 88 47 46 0 77-31t31-77q0-38-31-74zM526 805l-69 49q230 456 250 485 32 47 88 47 46 0 77-31t31-77q0-38-31-74z" horiz-adv-x="780" unicode="&#x2033;"/><glyph d="M475 129h-170l-246 369 410 362h186l-417-373z" horiz-adv-x="628" unicode="&#x2039;"/><glyph d="M158 860h170l245-368-409-363h-187l418 373z" horiz-adv-x="628" unicode="&#x203a;"/><glyph d="M838 1366l-1176-1366h-125l1174 1366h127z" horiz-adv-x="294" unicode="&#x2044;"/><glyph horiz-adv-x="465" unicode="&#x205f;"/><glyph d="M516 848q-142 0-219.5 88.5t-77.5 232.5q0 59 13 126t44 139 75.5 129 115 94 154.5 37q142 0 220.5-89t78.5-233q0-59-13-126t-44.5-138.5-76.5-128.5-115.5-94-154.5-37zM616 1577q-66 0-117.5-44t-79-111-41-133-13.5-124q0-200 155-200 66 0 118 43.5t80 110 42 133 14 124.5q0 201-158 201z" unicode="&#x2070;"/><glyph d="M856 1059h-115l-43-197h-143l43 197h-401l20 102 461 520h201l-113-505h115zM623 1176l84 372-340-372h256z" unicode="&#x2074;"/><glyph d="M524 848q-110 0-196.5 38.5t-128.5 108.5l100 86q71-116 221-116 86 0 138.5 50t52.5 124q0 66-47 101.5t-121 35.5q-101 0-178-74l-95 35 99 444h551l-27-116h-406l-53-246q72 63 176 63 102 0 175-61t73-160q0-133-93.5-223t-240.5-90z" unicode="&#x2075;"/><glyph d="M541 848q-152 0-234 82.5t-82 222.5q0 145 55 268.5t154 198 219 74.5q80 0 153-26.5t116-74.5l-84-96q-63 80-189 80-64 0-118.5-35.5t-86.5-85.5-49.5-98-17.5-80v-8q108 121 231 121 111 0 185.5-62t74.5-172q0-127-88.5-218t-238.5-91zM549 1276q-95 0-180-102-4-10-4-41 0-77 47.5-122.5t126.5-45.5q82 0 133 52.5t51 121.5q0 66-48 101.5t-126 35.5z" unicode="&#x2076;"/><glyph d="M909 1581l-487-719h-162l483 703h-446l27 116h608z" horiz-adv-x="747" unicode="&#x2077;"/><glyph d="M535 848q-140 0-239 57t-99 160q0 87 72 152t184 77q-152 59-152 176 0 107 90 165.5t213 58.5q78 0 149-21t122-69.5 51-116.5q0-82-60.5-142.5t-175.5-74.5q67-24 113.5-75t46.5-118q0-99-85.5-164t-229.5-65zM608 1579q-70 0-118-33.5t-48-91.5q0-36 29-65t58-42 55-18q46 3 86.5 16t74 44 33.5 75q0 55-48.5 85t-121.5 30zM561 1231q-95-6-156-47t-61-103q0-52 54.5-86t125.5-34q78 0 131.5 36.5t53.5 94.5q0 46-43.5 84.5t-104.5 54.5z" unicode="&#x2078;"/><glyph d="M602 1696q152 0 234-83t82-224q0-143-55.5-267t-155-198-218.5-74q-82 0-154 25.5t-116 74.5l86 97q57-80 187-80 64 0 118.5 35.5t86.5 85.5 49.5 98 17.5 80v8q-43-50-103-85.5t-129-35.5q-110 0-185 61.5t-75 169.5q0 128 89 220t241 92zM592 1266q93 0 182 102 4 10 4 43 0 75-48.5 121.5t-127.5 46.5q-82 0-132-53t-50-123q0-65 47.5-101t124.5-36z" unicode="&#x2079;"/><glyph d="M385 766l-92-37q-94 149-94 369 0 201 88.5 386t244.5 331l76-37q-268-357-268-734 0-154 45-278z" horiz-adv-x="348" unicode="&#x207d;"/><glyph d="M322 1778l94 37q45-75 69.5-173t24.5-196q0-201-89-386t-245-331l-78 37q271 361 271 733 0 158-47 279z" horiz-adv-x="348" unicode="&#x207e;"/><glyph d="M733 668h-139l88 401q6 36 6 41 0 48-33 74t-90 26q-90 0-184-94l-98-448h-140l142 643h139l-18-88q104 104 225 104 97 0 151-44.5t54-123.5q0-24-7-59z" horiz-adv-x="821" unicode="&#x207f;"/><glyph d="M260-313q-142 0-219.5 88.5t-77.5 232.5q0 59 13 126t44 138.5 75.5 128.5 115 94 154.5 37q142 0 220.5-88.5t78.5-232.5q0-59-13-126t-44.5-138.5-76.5-128.5-115.5-94-154.5-37zM360 416q-66 0-117.5-44t-79-111-41-133-13.5-124q0-201 155-201 66 0 118 43.5t80 110.5 42 133.5 14 124.5q0 201-158 201z" unicode="&#x2080;"/><glyph d="M213-299h-145l137 625-164-136-66 91 291 239h127z" horiz-adv-x="512" unicode="&#x2081;"/><glyph d="M535-299h-611l27 115q129 76 205 123t153.5 100.5 116.5 92.5 63.5 80.5 24.5 82.5q0 58-47.5 89.5t-116.5 31.5q-67 0-128.5-26t-100.5-68l-66 96q56 55 134.5 84.5t164.5 29.5q129 0 218.5-58.5t89.5-168.5q0-51-26-102.5t-67.5-96.5-109-96.5-134.5-94-161-97.5h395z" unicode="&#x2082;"/><glyph d="M283-313q-117 0-206 39.5t-132 109.5l92 84q83-117 239-117 79 0 123.5 42t44.5 106q0 51-53 80.5t-143 29.5q-52 0-64-2l27 119q50-4 125-4 83 0 129.5 33.5t46.5 93.5q0 53-53 84t-129 31q-117 0-217-84l-54 92q56 47 131.5 77.5t151.5 30.5q139 0 228-56t89-157q0-86-62.5-143.5t-166.5-64.5q67-14 113.5-61.5t46.5-115.5q0-98-84-172.5t-223-74.5z" unicode="&#x2083;"/><glyph d="M600-102h-115l-43-197h-143l43 197h-401l20 102 461 520h201l-113-506h115zM367 14l84 373-340-373h256z" unicode="&#x2084;"/><glyph d="M268-313q-110 0-196.5 38.5t-128.5 108.5l100 86q71-117 221-117 86 0 138.5 50t52.5 124q0 66-47 102t-121 36q-101 0-178-74l-95 35 99 444h551l-27-117h-406l-53-245q72 63 176 63 102 0 175-61t73-160q0-133-93.5-223t-240.5-90z" unicode="&#x2085;"/><glyph d="M285-313q-152 0-234 82.5t-82 222.5q0 144 55 268t154 198 219 74q81 0 153.5-26t115.5-74l-84-96q-63 80-189 80-64 0-118.5-35.5t-86.5-85.5-49.5-98-17.5-80v-8q107 120 231 120 111 0 185.5-61.5t74.5-171.5q0-127-88.5-218t-238.5-91zM293 115q-94 0-180-103-4-10-4-41 0-77 47.5-122.5t126.5-45.5q82 0 133 52.5t51 121.5q0 66-48.5 102t-125.5 36z" unicode="&#x2086;"/><glyph d="M653 420l-487-719h-162l483 702h-446l27 117h608z" horiz-adv-x="747" unicode="&#x2087;"/><glyph d="M279-313q-140 0-239 57t-99 160q0 87 72 152t184 77q-152 59-152 176 0 72 45.5 124.5t112.5 75.5 145 23 149-20.5 122-69 51-116.5q0-82-60.5-142.5t-175.5-74.5q67-24 113.5-75t46.5-118q0-99-85.5-164t-229.5-65zM352 418q-70 0-118-33.5t-48-91.5q0-36 29-65t58-42 55-18q46 3 86.5 16t74 44 33.5 75q0 55-48.5 85t-121.5 30zM305 70q-95-6-156-47t-61-103q0-52 54.5-86.5t125.5-34.5q78 0 131.5 36.5t53.5 94.5q0 46-43.5 85t-104.5 55z" unicode="&#x2088;"/><glyph d="M346 535q152 0 234-83.5t82-224.5q0-143-55.5-266.5t-155-197.5-218.5-74q-82 0-154 25.5t-116 74.5l86 96q57-80 187-80 64 0 118.5 35.5t86.5 85.5 49.5 98 17.5 80v9q-43-50-103-85.5t-129-35.5q-110 0-185 61.5t-75 169.5q0 128 89 220t241 92zM336 104q93 0 182 103 4 10 4 43 0 75-48.5 121.5t-127.5 46.5q-82 0-132-53t-50-123q0-65 47.5-101.5t124.5-36.5z" unicode="&#x2089;"/><glyph d="M129-395l-92-37q-94 149-94 369 0 201 88.5 385.5t244.5 330.5l76-37q-268-357-268-733 0-154 45-278z" horiz-adv-x="348" unicode="&#x208d;"/><glyph d="M66 616l94 37q94-157 94-368 0-201-89-386t-245-331l-78 37q271 361 271 733 0 157-47 278z" horiz-adv-x="348" unicode="&#x208e;"/><glyph d="M807-25q-251 0-426.5 137t-208.5 365h-121l29 123h86q0 80 20 168h-69l26 123h78q88 229 285.5 363.5t433.5 134.5q208 0 354-92.5t217-247.5l-194-74q-54 115-156 173t-231 58q-149 0-279.5-84.5t-201.5-230.5h610l-29-123h-629q-19-81-22-168h614l-26-123h-574q33-147 145.5-233t280.5-86q95 0 187 40.5t165 114.5l156-110q-106-117-243-172.5t-277-55.5z" horiz-adv-x="1431" unicode="&#x20ac;"/><glyph d="M526 1313h-127l-88-398h-57l88 398h-127l10 53h312zM950 915h-57l82 373-236-373h-16l-72 373-82-373h-57l98 451h88l60-328 203 328h88z" horiz-adv-x="929" unicode="&#x2122;"/><glyph d="M0 993h993v-993h-993v993z" horiz-adv-x="993" unicode="&#x25fc;"/><glyph d="M1065 0h-225l-211 526h-269l-114-526h-205l301 1366h526q104 0 194-43t147-128 57-194q0-188-119-316t-309-148zM401 707h344q142 0 224 78t82 198q0 87-65.5 145t-151.5 58h-326zM1518 150l-115-527h-184l303 1366h184l-33-137q133 162 320 162 172 0 276.5-109t104.5-301q0-118-36.5-230.5t-102-201.5-165.5-143-217-54q-108 0-195.5 47t-139.5 128zM2179 569q0 128-71.5 204.5t-186.5 76.5q-84 0-159.5-44t-123.5-112l-90-409q37-65 111-105.5t170-40.5q101 0 182.5 61.5t124.5 159.5 43 209z" horiz-adv-x="2443" unicode="&#xf6dd;"/><glyph d="M369 305l-88-403q65 8 125 71l77-75q-95-99-225-99l-25-108h-96l27 119q-94 24-149.5 92t-55.5 166q0 143 98.5 247t241.5 107l18 86h97l-21-96q107-25 156-111l-100-68q-26 53-80 72zM94 74q0-121 92-158l88 397q-78-13-129-82t-51-157z" horiz-adv-x="632" unicode="&#xf6df;"/><glyph d="M625 1466l-88-403q64 8 125 72l77-76q-94-98-225-98l-25-109h-96l27 119q-94 24-149.5 92t-55.5 166q0 143 98.5 247t241.5 107l18 86h97l-21-96q107-25 156-111l-100-67q-25 52-80 71zM350 1235q0-121 92-158l88 398q-78-13-129-82.5t-51-157.5z" horiz-adv-x="632" unicode="&#xf6e0;"/><glyph d="M-96-461l-45 55q33 17 66.5 47t41.5 56q-2 0-5-1t-5-1q-24 0-45 21.5t-21 54.5q0 39 30 65.5t69 26.5q32 0 55-22.5t23-59.5q0-61-47.5-132t-116.5-110z" horiz-adv-x="294" unicode="&#xf6e1;"/><glyph d="M160 700l-45 56q33 17 66.5 46.5t41.5 55.5q-2 0-5-1t-5-1q-24 0-45 21.5t-21 54.5q0 39 30 65.5t69 26.5q32 0 55-22.5t23-59.5q0-61-47.5-132t-116.5-110z" horiz-adv-x="294" unicode="&#xf6e2;"/><glyph d="M420 410l-53-238q41-15 68.5-26.5t61-32 53.5-42 34-54 14-70.5q0-109-82.5-184.5t-241.5-75.5h-14l-24-109h-97l27 117q-88 15-153.5 52.5t-98.5 90.5l98 88q64-92 178-119l56 256q-53 19-86 34.5t-71.5 42-57.5 63.5-19 84q0 98 87.5 171.5t228.5 73.5h22l25 113h96l-27-127q66-15 121-48t88-75l-98-80q-48 67-135 95zM166 309q0-34 29-57t84-47l47 219q-67 0-113.5-32.5t-46.5-82.5zM336 31l-51-234q74 3 115.5 37t41.5 88q0 36-27.5 61t-78.5 48z" horiz-adv-x="763" unicode="&#xf6e3;"/><glyph d="M676 1571l-53-238q41-15 68.5-26.5t61-32 53.5-42 34-54 14-70.5q0-109-82.5-184.5t-241.5-75.5h-14l-24-109h-97l27 117q-88 15-153.5 52.5t-98.5 90.5l98 88q63-91 178-118l56 256q-54 19-86.5 34.5t-71 41.5-57.5 63-19 84q0 98 87.5 172t228.5 74h22l25 112h96l-27-127q66-15 121-48t88-75l-98-79q-47 66-135 94zM422 1470q0-34 29-57t84-47l47 219q-67 0-113.5-32.5t-46.5-82.5zM592 1192l-51-234q74 3 115.5 37t41.5 88q0 36-27.5 61t-78.5 48z" horiz-adv-x="763" unicode="&#xf6e4;"/><glyph d="M240 53h-303l24 111h301z" horiz-adv-x="374" unicode="&#xf6e5;"/><glyph d="M496 1214h-303l24 111h301z" horiz-adv-x="374" unicode="&#xf6e6;"/><glyph d="M-23-309q-34 0-55.5 22t-21.5 56q0 38 29.5 66t68.5 28q34 0 56-21.5t22-56.5q0-37-30.5-65.5t-68.5-28.5z" horiz-adv-x="301" unicode="&#xf6e7;"/><glyph d="M233 852q-34 0-55.5 22t-21.5 56q0 38 29.5 66t68.5 28q34 0 56-21.5t22-56.5q0-37-30.5-65.5t-68.5-28.5z" horiz-adv-x="301" unicode="&#xf6e8;"/><glyph d="M819 1556h137l-196-888h-139l20 90q-91-107-213-107-108 0-182 72t-74 203q0 165 100 283t246 118q156 0 227-106zM317 940q0-86 45.5-132t120.5-46q100 0 181 92l63 281q-24 38-73 60t-105 22q-97 0-164.5-82.5t-67.5-194.5z" horiz-adv-x="841" unicode="&#xf6eb;"/><glyph d="M283 668h-140l142 643h139l-21-94q60 55 116 82.5t124 27.5l-29-129q-10 4-43 4-50 0-104.5-26t-85.5-64z" horiz-adv-x="501" unicode="&#xf6f1;"/><glyph d="M113 776l77 78q30-44 91-74t129-30q58 0 94.5 26t36.5 62q0 20-11 36.5t-35 30.5-44 22-56 21q-38 13-57.5 21t-51.5 24.5-47.5 33-28.5 43-13 58.5q0 80 71 139.5t191 59.5q86 0 157-30t109-78l-74-76q-33 39-84 62.5t-110 23.5q-56 0-89.5-25t-33.5-65q0-16 9.5-29.5t30.5-24.5 40-18 51-18q50-16 77-27t64-33.5 54.5-55.5 17.5-77q0-81-73-143t-199-62q-99 0-169 31t-124 94z" horiz-adv-x="677" unicode="&#xf6f2;"/><glyph d="M188 778q0 13 5 43l86 389h-109l20 101h109l39 176h139l-39-176h133l-20-101h-133l-82-366q-4-20-4-31 0-51 61-51 38 0 58 20l14-96q-44-35-113-35-71 0-117.5 29.5t-46.5 97.5z" horiz-adv-x="438" unicode="&#xf6f3;"/><glyph d="M766 1386q216 0 336.5-142t120.5-392q0-127-29-253t-85.5-238-134-198.5-182-137-221.5-50.5q-216 0-338 143t-122 394q0 158 47 313.5t129.5 280.5 208 202.5 270.5 77.5zM745 1204q-77 0-146.5-44t-119.5-116-87-163.5-55-189-18-189.5q0-61 13-121l620 729q-69 94-207 94zM592 158q95 0 177.5 67t135 171.5 82 227 29.5 238.5q0 68-12 123l-621-729q69-98 209-98z" horiz-adv-x="1257"/><glyph d="M741 0h-733l41 180h260l201 918-272-232-93 125 449 375h180l-260-1186h266z" horiz-adv-x="925"/><glyph d="M102 512q0 126 29 252t86.5 237.5 135.5 197.5 182.5 136.5 220.5 50.5q217 0 337.5-142t120.5-392q0-127-29-253t-86-238-134-198.5-181.5-137-220.5-50.5q-217 0-339 143t-122 394zM1008 862q0 157-66 249.5t-205 92.5q-96 0-179-66.5t-136-171-83-226.5-30-238q0-157 67-250.5t206-93.5q77 0 146.5 44t119.5 116.5 87 164.5 55 189.5 18 189.5z" horiz-adv-x="1239"/><glyph d="M688 0h-205l242 1098-365-310-94 125 543 453h180z" horiz-adv-x="1239"/><glyph d="M993 0h-964l43 197q119 71 201 121.5t177.5 111.5 160 107.5 132 99.5 109.5 97 77.5 91.5 51.5 92 16 88.5q0 92-77.5 146t-202.5 54q-205 0-346-131l-92 146q80 76 201.5 120.5t250.5 44.5q96 0 181.5-23.5t153-68 107-116 39.5-160.5q0-87-43-177t-113.5-170-179.5-167.5-222-162.5-259-161h637z" horiz-adv-x="1239"/><glyph d="M49 260l144 119q56-103 166-162t233-59q141 0 221 72t80 186q0 86-74 138t-213 52q-120 0-143-2l43 187q38-3 186-3 136 0 224 55.5t88 164.5q0 86-81.5 141t-217.5 55q-196 0-343-127l-79 140q81 78 197.5 123.5t240.5 45.5q222 0 356.5-92.5t134.5-255.5q0-73-32.5-136.5t-85.5-106.5-118-70-132-33q109-27 179.5-102t70.5-193q0-179-143-300.5t-359-121.5q-180 0-331 77.5t-212 207.5z" horiz-adv-x="1239"/><glyph d="M840 0h-205l72 328h-652l41 182 752 856h293l-191-858h187l-39-180h-187zM745 508l150 672-598-672h448z" horiz-adv-x="1239"/><glyph d="M68 244l151 127q109-213 375-213 137 0 228 86t91 211q0 112-81.5 174.5t-213.5 62.5q-81 0-144-22.5t-130-71.5l-133 61 156 707h864l-41-180h-660l-90-414q116 90 283 90 171 0 287-102.5t116-282.5q0-101-39.5-193t-109-160-171-108.5-218.5-40.5q-365 0-520 269z" horiz-adv-x="1239"/><glyph d="M121 485q0 122 26.5 247t83 242.5 135.5 209 194 147 249 55.5q285 0 426-200l-133-139q-44 75-124 116t-181 41q-71 0-134.5-27t-110.5-72-86.5-106-65.5-124.5-44-133.5q-12-27-12-45 61 66 165.5 116t215.5 50q185 0 302.5-98.5t117.5-265.5q0-140-71.5-260t-196-191.5-271.5-71.5q-232 0-358.5 133.5t-126.5 376.5zM930 471q0 103-80.5 163t-210.5 60q-175 0-317-149-5-40-5-90 0-133 78.5-215t212.5-82q137 0 229.5 92.5t92.5 220.5z" horiz-adv-x="1239"/><glyph d="M449 0h-236l791 1186h-713l41 180h958l-30-141z" horiz-adv-x="1239"/><glyph d="M70 330q0 145 108 250t293 147q-95 37-161 111.5t-66 171.5q0 93 44.5 167.5t117.5 118.5 159 67 178 23q94 0 180.5-22t155.5-63.5 110.5-107 41.5-146.5q0-141-104-237t-275-126q106-50 177-130t71-187q0-115-72.5-206t-190.5-138.5-257-47.5q-142 0-255 37.5t-184 119.5-71 198zM1010 1012q0 81-81 135.5t-198 54.5q-116 0-199-58t-83-155q0-70 73.5-126.5t159.5-76.5q148 11 238 69.5t90 156.5zM893 385q0 56-41 105.5t-95 78.5-114 45q-155-9-256.5-77.5t-101.5-171.5q0-99 85.5-153t217.5-54q121 0 213 63t92 164z" horiz-adv-x="1239"/><glyph d="M1200 879q0-123-26.5-248t-83-243-136-209-195-146.5-249.5-55.5q-143 0-250.5 52t-173.5 147l133 141q42-76 121.5-116.5t181.5-40.5q72 0 135.5 27.5t110.5 71.5 86.5 105.5 65.5 124 45 132.5q7 23 12 45-62-66-167-116t-214-50q-185 0-303.5 99.5t-118.5 266.5q0 139 71.5 259t196.5 192 273 72q230 0 357.5-133.5t127.5-376.5zM387 893q0-102 82.5-163.5t210.5-61.5q173 0 319 149 2 18 2 90 0 135-78 217t-212 82q-137 0-230.5-93t-93.5-220z" horiz-adv-x="1239"/><glyph d="M594-25q-242 0-372 129.5t-130 358.5q0 89 23.5 183t73.5 184.5 118.5 162 167 115 211.5 43.5q243 0 373.5-129t130.5-358q0-90-24-184.5t-74-185-119-161.5-167.5-114.5-211.5-43.5zM686 969q-93 0-169-49t-121.5-125-70-159.5-24.5-160.5q0-154 75.5-235.5t219.5-81.5q75 0 139.5 32.5t108 84.5 75 117 46 131 14.5 126q0 156-74.5 238t-218.5 82z" horiz-adv-x="1257"/><glyph d="M473 0h-205l189 858-273-231-92 125 449 374h180z" horiz-adv-x="735"/><glyph d="M911 0h-905l37 172q850 296 850 592 0 94-73.5 149.5t-188.5 55.5q-209 0-377-148l-92 144q201 186 487 186 131 0 234.5-39t166-118.5 62.5-186.5q0-82-39.5-161.5t-104.5-144-155.5-125.5-184.5-107.5-200-88.5h524z" horiz-adv-x="1185"/><glyph d="M-76 25l144 118q56-103 166-162t233-59q141 0 221 72t80 186q0 87-73.5 139t-213.5 52q-118 0-141-2l41 186q27-2 188-2 135 0 222.5 55t87.5 164q0 86-81.5 141.5t-217.5 55.5q-192 0-342-127l-80 139q81 78 197.5 124t240.5 46q222 0 356.5-92.5t134.5-255.5q0-73-32.5-136.5t-85.5-106.5-118-70-132-33q110-27 181-102t71-193q0-178-143.5-300t-358.5-122q-181 0-332.5 77.5t-212.5 207.5z" horiz-adv-x="1157"/><glyph d="M1014 96h-189l-73-336h-205l74 336h-650l37 168 764 862h281l-187-850h187zM662 276l145 664-594-664h449z" horiz-adv-x="1165"/><glyph d="M8 4l152 127q109-213 375-213 136 0 226.5 86t90.5 211q0 113-81.5 175.5t-213.5 62.5q-79 0-143-23t-131-72l-133 62 155 706h864l-39-180h-661l-90-414q118 91 283 91 171 0 287-102.5t116-282.5q0-136-67.5-250t-192-183-279.5-69q-367 0-518 268z" horiz-adv-x="1218"/><glyph d="M102 485q0 122 27 247t83.5 242.5 136.5 209 195 147 249 55.5q285 0 426-200l-134-139q-44 75-124 116t-181 41q-88 0-163.5-40.5t-128.5-109.5-89-146.5-59-166.5q-9-20-14-45 63 66 167.5 116t215.5 50q184 0 300.5-98.5t116.5-265.5q0-140-70.5-260t-194.5-191.5-271-71.5q-232 0-360 133.5t-128 376.5zM913 471q0 103-80.5 163t-211.5 60q-174 0-316-149-4-32-4-90 0-134 78-215.5t213-81.5q136 0 228.5 92.5t92.5 220.5z" horiz-adv-x="1220"/><glyph d="M313-240h-235l790 1186h-712l41 180h958l-31-141z" horiz-adv-x="1071"/><glyph d="M53 330q0 145 108.5 250t293.5 147q-96 37-162 111.5t-66 171.5q0 93 44.5 167.5t117.5 118.5 159.5 67 178.5 23q94 0 180-22t155.5-63.5 110.5-107 41-146.5q0-141-104-237t-274-126q105-50 176-130t71-187q0-115-72.5-206t-190.5-138.5-257-47.5q-142 0-255 37.5t-184 119.5-71 198zM993 1012q0 81-81 135.5t-197 54.5-199.5-58-83.5-155q0-70 74-126.5t160-76.5q148 11 237.5 69.5t89.5 156.5zM877 385q0 56-41 105.5t-95 78.5-114 45q-155-9-257-77.5t-102-171.5q0-99 85.5-153t217.5-54q121 0 213.5 63t92.5 164z" horiz-adv-x="1204"/><glyph d="M1143 641q0-102-19-206t-56-205.5-96-189.5-133.5-155.5-174.5-106-213-38.5q-142 0-250 52.5t-172 146.5l133 141q41-76 120.5-117t182.5-41q71 0 134.5 27.5t110.5 71.5 86.5 105.5 65.5 124.5 45 132q2 10 7 25.5t6 19.5q-62-66-167.5-116t-215.5-50q-184 0-302 100t-118 267q0 139 71 259t195.5 191.5 271.5 71.5q232 0 360-133.5t128-376.5zM330 655q0-103 82-164t211-61q174 0 317 150 4 36 4 90 0 135-78.5 217t-212.5 82q-137 0-230-93.5t-93-220.5z" horiz-adv-x="1220"/><glyph d="M115 578q0 179 65 332.5t174.5 257.5 256 162.5 307.5 58.5q182 0 323-87.5t209-222.5l-186-84q-46 98-149 154.5t-224 56.5q-108 0-210-45.5t-180-125-125.5-196-47.5-249.5q0-194 118-313t308-119q182 0 306.5 105.5t180.5 273.5h-522l39 180h737q-63-357-261-549.5t-507-192.5q-174 0-313 74.5t-219 212.5-80 316z" horiz-adv-x="1527"/><glyph d="M844 0h-185l23 104q-129-129-303-129-138 0-234 74.5t-96 212.5q0 166 107 265.5t262 99.5q219 0 348-144l33 150q8 24 8 57 0 75-70 122.5t-180 47.5q-161 0-291-110l-53 133q168 131 379 131 82 0 153-17t127-51 88.5-91.5 32.5-131.5q0-44-12-98zM707 213l36 166q-35 57-106 88t-162 31q-105 0-170-63t-65-159q0-82 59-127t156-45q151 0 252 109z" horiz-adv-x="1089"/><glyph d="M78 156q0 32 6 69l254 1141h184l-243-1098q-7-35-7-47 0-38 28-60t73-22q51 0 88 29l16-148q-59-45-151-45-116 0-182 47.5t-66 133.5z" horiz-adv-x="567"/><glyph d="M-49-231l115 120q48-68 135.5-103.5t191.5-35.5q255 0 318 289l26 123q-80-74-161-117t-179-43q-132 0-215.5 61.5t-83.5 182.5q0 27 11 86l147 657h184l-137-608q-8-39-8-68 0-147 192-147 76 0 151.5 41t133.5 102l152 680h184l-209-936q-103-454-504-454-150 0-258.5 41t-185.5 129z" horiz-adv-x="1144"/><glyph d="M614 1126h232l223-1126h-211l-47 229h-551l-143-229h-221zM791 395l-97 549-340-549h437z" horiz-adv-x="1185"/><glyph d="M639 0h-602l248 1126h503q148 0 242-67.5t94-188.5q0-108-69-195t-187-106q73-26 118.5-89.5t45.5-137.5q0-150-105-246t-288-96zM373 659h364q83 0 133 51.5t50 120.5q0 63-47.5 95t-122.5 32h-310zM264 168h369q87 0 145 51t58 129q0 63-43 103.5t-119 40.5h-338z" horiz-adv-x="1153"/><glyph d="M86 487q0 177 90.5 330t245.5 243.5 336 90.5q158 0 281-75t178-199l-168-68q-40 77-122 124.5t-175 47.5q-90 0-175.5-38t-149-101.5-102-153.5-38.5-188q0-160 103-257.5t265-97.5q186 0 310 146l141-94q-188-222-459-222-249 0-405 142t-156 370z" horiz-adv-x="1193"/><glyph d="M489 0h-452l248 1126h374q156 0 281-62t195.5-173 70.5-250q0-91-25-180t-81.5-173-138-147.5-203.5-102-269-38.5zM524 168q117 0 211.5 40.5t152.5 107.5 89 147.5 31 165.5q0 148-101.5 238.5t-271.5 90.5h-197l-174-790h260z" horiz-adv-x="1265"/><glyph d="M838 0h-801l248 1126h800l-36-168h-609l-67-299h598l-37-167h-598l-72-324h608z" horiz-adv-x="1048"/><glyph d="M227 0h-190l248 1126h800l-36-168h-609l-67-299h598l-37-167h-598z" horiz-adv-x="1015"/><glyph d="M86 479q0 131 51 253.5t139.5 215 215 148 268.5 55.5q150 0 274-68.5t187-177.5l-166-82q-42 67-125 112.5t-182 45.5q-128 0-235-68t-166.5-179.5-59.5-237.5q0-155 107.5-254t267.5-99q141 0 245 70l51 229h-325l37 158h514l-105-481q-191-144-426-144-118 0-221.5 35.5t-180 100-121 160-44.5 208.5z" horiz-adv-x="1275"/><glyph d="M1053 0h-191l109 494h-633l-111-494h-190l248 1126h190l-100-464h633l102 464h190z" horiz-adv-x="1310"/><glyph d="M227 0h-190l248 1126h190z" horiz-adv-x="485"/><glyph d="M-66 127l117 131q66-113 203-113 198 0 246 215l170 766h190l-172-780q-42-193-146-282t-274-89q-113 0-198.5 39.5t-135.5 112.5z" horiz-adv-x="870"/><glyph d="M981 0h-231l-312 483-129-114-82-369h-190l248 1126h190l-117-532 592 532h240l-606-534z" horiz-adv-x="1112"/><glyph d="M760 0h-723l248 1126h190l-211-958h531z" horiz-adv-x="944"/><glyph d="M1237 0h-193l189 852-553-852h-86l-176 852-191-852h-190l248 1126h256l164-796 518 796h262z" horiz-adv-x="1492"/><glyph d="M1047 0h-195l-432 883-193-883h-190l248 1126h200l428-862 189 862h192z" horiz-adv-x="1302"/><glyph d="M86 489q0 174 84 325.5t234.5 244 332.5 92.5q250 0 400.5-143.5t150.5-370.5q0-174-84-325.5t-234.5-244-332.5-92.5q-251 0-401 143t-150 371zM1092 625q0 155-96.5 255.5t-262.5 100.5q-98 0-183-40.5t-142-107-90-153-33-178.5q0-157 96-257t262-100q129 0 233 68.5t160 178 56 233.5z" horiz-adv-x="1351"/><glyph d="M227 0h-190l248 1126h450q167 0 267-84.5t100-220.5q0-105-50-195t-148-147-224-57h-358zM358 590h318q103 0 165 63t62 156q0 69-50.5 109t-139.5 40h-273z" horiz-adv-x="1087"/><glyph d="M1288 637q0-154-67-291.5t-185-230.5l58-88-136-90-63 92q-120-54-258-54-251 0-401 143t-150 371q0 174 84 325.5t234.5 244 332.5 92.5q250 0 400.5-143.5t150.5-370.5zM643 145q80 0 156 29l-117 172 137 92 119-176q72 68 113 163.5t41 199.5q0 155-96.5 255.5t-262.5 100.5q-98 0-183-40.5t-142-107-90-153-33-178.5q0-157 96-257t262-100z" horiz-adv-x="1351"/><glyph d="M936 0h-219l-180 422h-215l-95-422h-190l248 1126h452q167 0 267-86t100-219q0-98-41-181t-128-140-206-66zM358 590h312q109 0 171 61.5t62 153.5q0 69-50.5 111t-133.5 42h-279z" horiz-adv-x="1132"/><glyph d="M-2 172l125 141q56-77 159-122.5t226-45.5q119 0 173 51.5t54 125.5q0 26-13.5 49t-31.5 38.5-54 33.5-61 28-73 27q-45 16-70.5 25.5t-67.5 28-66.5 34.5-55 41-47 51-28 60.5-11.5 74.5q0 135 126 236.5t306 101.5q140 0 258.5-51.5t185.5-134.5l-121-134q-50 67-143.5 108.5t-187.5 41.5-158-46.5-64-115.5q0-23 13-43t30.5-34.5 52-30.5 59.5-26 71-26q154-54 219-96 134-89 135-235 0-67-26.5-128t-78.5-112.5-139-82-198-30.5q-160 0-290.5 50.5t-207.5 146.5z" horiz-adv-x="1040"/><glyph d="M471 0h-190l211 958h-340l36 168h873l-37-168h-342z" horiz-adv-x="974"/><glyph d="M600-25q-225 0-350 101t-125 272q0 54 12 121l148 657h192l-143-655q-12-50-12-104 0-103 78-162.5t210-59.5q135 0 214 77.5t114 230.5l147 673h195l-154-688q-24-114-63.5-197.5t-102-144.5-152-91-208.5-30z" horiz-adv-x="1288"/><glyph d="M598 0h-231l-224 1126h215l166-915 574 915h219z" horiz-adv-x="1185"/><glyph d="M1118 0h-200l-52 840-424-840h-200l-90 1126h210l46-868 442 868h156l55-870 432 870h213z" horiz-adv-x="1583"/><glyph d="M1051 0h-226l-247 449-447-449h-231l577 578-303 548h223l228-419 413 419h234l-547-546z" horiz-adv-x="1171"/><glyph d="M553 0h-191l105 473-324 653h217l234-491 442 491h224l-605-653z" horiz-adv-x="1130"/><glyph d="M872 0h-905l31 141 807 815h-627l37 170h891l-31-143-805-813h639z" horiz-adv-x="1060"/><glyph d="M946 1776l-407-295h-140l361 295h186zM1925 1776l-407-295h-140l361 295h186zM246 0h-205l301 1366h205zM461 143l117 148q38-63 101-98t146-35q116 0 189 70.5t100 195.5l207 942h205l-207-944q-100-447-481-447-120 0-220 43t-157 125z" horiz-adv-x="1488"/><glyph d="M1174 1434l-408-295h-139l360 295h187zM844 0h-185l23 104q-129-129-303-129-138 0-234 74.5t-96 212.5q0 166 107 265.5t262 99.5q219 0 348-144l33 150q8 24 8 57 0 75-70 122.5t-180 47.5q-161 0-291-110l-53 133q168 131 379 131 82 0 153-17t127-51 88.5-91.5 32.5-131.5q0-44-12-98zM707 213l36 166q-35 57-106 88t-162 31q-105 0-170-63t-65-159q0-82 59-127t156-45q151 0 252 109z" horiz-adv-x="1089"/><glyph d="M985 1139h-117l-118 207-205-207h-123l258 295h172zM844 0h-185l23 104q-129-129-303-129-138 0-234 74.5t-96 212.5q0 166 107 265.5t262 99.5q219 0 348-144l33 150q8 24 8 57 0 75-70 122.5t-180 47.5q-161 0-291-110l-53 133q168 131 379 131 82 0 153-17t127-51 88.5-91.5 32.5-131.5q0-44-12-98zM707 213l36 166q-35 57-106 88t-162 31q-105 0-170-63t-65-159q0-82 59-127t156-45q151 0 252 109z" horiz-adv-x="1089"/><glyph d="M508 1157q-40 0-68 28t-28 68q0 47 37 83t83 36q41 0 69-27.5t28-68.5q0-46-37-82.5t-84-36.5zM934 1157q-40 0-68 28t-28 68q0 47 36.5 83t83.5 36q41 0 69-27.5t28-68.5q0-46-37-82.5t-84-36.5zM844 0h-185l23 104q-129-129-303-129-138 0-234 74.5t-96 212.5q0 166 107 265.5t262 99.5q219 0 348-144l33 150q8 24 8 57 0 75-70 122.5t-180 47.5q-161 0-291-110l-53 133q168 131 379 131 82 0 153-17t127-51 88.5-91.5 32.5-131.5q0-44-12-98zM707 213l36 166q-35 57-106 88t-162 31q-105 0-170-63t-65-159q0-82 59-127t156-45q151 0 252 109z" horiz-adv-x="1089"/><glyph d="M768 1139h-135l-277 295h183zM844 0h-185l23 104q-129-129-303-129-138 0-234 74.5t-96 212.5q0 166 107 265.5t262 99.5q219 0 348-144l33 150q8 24 8 57 0 75-70 122.5t-180 47.5q-161 0-291-110l-53 133q168 131 379 131 82 0 153-17t127-51 88.5-91.5 32.5-131.5q0-44-12-98zM707 213l36 166q-35 57-106 88t-162 31q-105 0-170-63t-65-159q0-82 59-127t156-45q151 0 252 109z" horiz-adv-x="1089"/><glyph d="M535 1292q0 91 67 158.5t158 67.5q83 0 135.5-53t52.5-136q0-91-67-158t-158-67q-83 0-135.5 52.5t-52.5 135.5zM854 1321q0 46-27 74t-73 28q-50 0-87.5-37t-37.5-86q0-46 28-74t72-28q51 0 88 36t37 87zM844 0h-185l23 104q-129-129-303-129-138 0-234 74.5t-96 212.5q0 166 107 265.5t262 99.5q219 0 348-144l33 150q8 24 8 57 0 75-70 122.5t-180 47.5q-161 0-291-110l-53 133q168 131 379 131 82 0 153-17t127-51 88.5-91.5 32.5-131.5q0-44-12-98zM707 213l36 166q-35 57-106 88t-162 31q-105 0-170-63t-65-159q0-82 59-127t156-45q151 0 252 109z" horiz-adv-x="1089"/><glyph d="M698 1231q-16 26-26.5 39.5t-29.5 26-42 12.5q-81 0-117-162h-106q55 274 235 274 37 0 67.5-16.5t45.5-33 35-46.5q16-26 26.5-39.5t29.5-26 42-12.5q78 0 117 162h108q-58-274-237-274-37 0-67.5 16.5t-45.5 33-35 46.5zM844 0h-185l23 104q-129-129-303-129-138 0-234 74.5t-96 212.5q0 166 107 265.5t262 99.5q219 0 348-144l33 150q8 24 8 57 0 75-70 122.5t-180 47.5q-161 0-291-110l-53 133q168 131 379 131 82 0 153-17t127-51 88.5-91.5 32.5-131.5q0-44-12-98zM707 213l36 166q-35 57-106 88t-162 31q-105 0-170-63t-65-159q0-82 59-127t156-45q151 0 252 109z" horiz-adv-x="1089"/><glyph d="M1726 434h-743q-4-24-4-41 0-109 78.5-187.5t224.5-78.5q138 0 248 90l63-129q-142-113-309-113-153 0-260 57.5t-162 166.5q-64-104-176-164t-237-60q-109 0-197 29.5t-145.5 96.5-57.5 161q0 86 35 157t92 115.5 126.5 68.5 141.5 24q233 0 359-144l22 99q13 63 13 106 0 80-74 126t-184 46q-85 0-167.5-29t-146.5-81l-53 133q82 65 187.5 98t213.5 33q143 0 234.5-55t109.5-171q59 101 162 163.5t234 62.5q180 0 285.5-115t105.5-321q0-32-7.5-80t-11.5-64zM1006 567h571q2 10 2 33 0 119-64.5 190.5t-187.5 71.5q-64 0-120-26.5t-95-70.5-65-93.5-41-104.5zM772 342l8 37q-33 55-110 87t-168 32q-104 0-183-61t-79-148q0-76 64-119t159-43q108 0 198.5 61.5t110.5 153.5z" horiz-adv-x="1822"/><glyph d="M651 827h-200l-185-827h-184l184 827h-164l35 162h164l14 66q74 331 338 331 116 0 191-51l-70-129q-39 29-102 29-69 0-110-44.5t-62-135.5l-15-66h201zM684 156q0 32 6 69l254 1141h184l-243-1098q-6-30-6-47 0-38 27.5-60t72.5-22q51 0 88 29l16-148q-59-45-151-45-116 0-182 47.5t-66 133.5z" horiz-adv-x="1171"/><glyph d="M651 827h-200l-185-827h-184l184 827h-164l35 162h164l14 66q74 331 338 331 116 0 191-51l-70-129q-39 29-102 29-69 0-110-44.5t-62-135.5l-15-66h201zM1092 989h200l-35-162h-200l-185-827h-184l184 827h-163l34 162h164l15 66q74 331 338 331 115 0 190-51l-70-129q-39 29-102 29-69 0-110-44.5t-62-135.5zM1288 156q0 32 6 69l254 1141h185l-244-1098q-6-30-6-47 0-38 27.5-60t72.5-22q51 0 88 29l17-148q-59-45-152-45-116 0-182 47.5t-66 133.5z" horiz-adv-x="1777"/><glyph d="M287 1257q0 59 42 96.5t91 37.5q45 0 76.5-30.5t31.5-72.5q0-59-42-96t-91-37q-47 0-77.5 29.5t-30.5 72.5zM221 0h-184l219 989h184z" horiz-adv-x="477"/><glyph d="M852 1434l-408-295h-139l361 295h186zM1329 1434l-407-295h-140l361 295h186zM221 0h-184l219 989h184zM207-377l45 148q34-15 76-15 128 0 168 166l237 1067h185l-238-1067q-37-159-116.5-241t-217.5-82q-78 0-139 24z" horiz-adv-x="954"/><glyph d="M772-25q-143 0-241.5 43t-182.5 140l111 118q120-151 317-151 95 0 150 47t55 111q0 13-3.5 25t-13.5 22.5-17.5 18.5-25.5 18-27.5 15-34.5 14.5-34.5 13.5-38.5 14q-38 13-58.5 21t-55.5 23-55 28-45.5 33-39 41-23 49.5-9.5 60.5q0 46 15.5 86t34.5 65.5 56.5 53.5 59.5 40.5 65 35.5q39 21 57 31.5t43.5 28.5 35.5 36 10 39q0 57-57.5 92t-135.5 35q-94 0-161-57t-89-158l-223-1008h-184l223 1008q38 167 150.5 272.5t289.5 105.5q95 0 181-31t143-91.5 57-137.5q0-43-14.5-80t-33.5-61.5-54-49.5-59.5-38-65.5-33q-93-47-120-72-41-38-42-85 0-17 6-31t21.5-27 27.5-21.5 40.5-20.5 42.5-17.5 50-18.5q38-13 59.5-21t57-23.5 57-29 47.5-34.5 40-43.5 24-52.5 10-64q0-63-27-121.5t-76-104.5-124.5-74-165.5-28z" horiz-adv-x="1239"/><glyph d="M1190 1434l-408-295h-139l361 295h186zM-49-231l115 120q48-68 135.5-103.5t191.5-35.5q255 0 318 289l26 123q-80-74-161-117t-179-43q-132 0-215.5 61.5t-83.5 182.5q0 27 11 86l147 657h184l-137-608q-8-39-8-68 0-147 192-147 76 0 151.5 41t133.5 102l152 680h184l-209-936q-103-454-504-454-150 0-258.5 41t-185.5 129z" horiz-adv-x="1144"/><glyph d="M524 1157q-40 0-68 28t-28 68q0 47 37.5 83t83.5 36q41 0 68.5-27.5t27.5-68.5q0-46-37-82.5t-84-36.5zM950 1157q-40 0-68 28t-28 68q0 47 37 83t84 36q41 0 68.5-27.5t27.5-68.5q0-46-37-82.5t-84-36.5zM-49-231l115 120q48-68 135.5-103.5t191.5-35.5q255 0 318 289l26 123q-80-74-161-117t-179-43q-132 0-215.5 61.5t-83.5 182.5q0 27 11 86l147 657h184l-137-608q-8-39-8-68 0-147 192-147 76 0 151.5 41t133.5 102l152 680h184l-209-936q-103-454-504-454-150 0-258.5 41t-185.5 129z" horiz-adv-x="1144"/><glyph d="M1231 1536l-408-295h-139l360 295h187zM614 1126h232l223-1126h-211l-47 229h-551l-143-229h-221zM791 395l-97 549-340-549h437z" horiz-adv-x="1185"/><glyph d="M1042 1241h-116l-119 207-205-207h-123l258 295h172zM614 1126h232l223-1126h-211l-47 229h-551l-143-229h-221zM791 395l-97 549-340-549h437z" horiz-adv-x="1185"/><glyph d="M565 1260q-40 0-68 28t-28 68q0 47 37.5 83t83.5 36q41 0 68.5-28t27.5-69q0-46-37-82t-84-36zM991 1260q-40 0-68 28t-28 68q0 47 37 83t84 36q41 0 68.5-28t27.5-69q0-46-37-82t-84-36zM614 1126h232l223-1126h-211l-47 229h-551l-143-229h-221zM791 395l-97 549-340-549h437z" horiz-adv-x="1185"/><glyph d="M823 1241h-135l-276 295h182zM614 1126h232l223-1126h-211l-47 229h-551l-143-229h-221zM791 395l-97 549-340-549h437z" horiz-adv-x="1185"/><glyph d="M590 1395q0 91 67 158t158 67q83 0 136-52.5t53-135.5q0-91-67.5-158.5t-158.5-67.5q-83 0-135.5 53t-52.5 136zM909 1423q0 46-27.5 74.5t-72.5 28.5q-50 0-87.5-37t-37.5-86q0-46 28-74.5t72-28.5q51 0 88 36t37 87zM614 1126h232l223-1126h-211l-47 229h-551l-143-229h-221zM791 395l-97 549-340-549h437z" horiz-adv-x="1185"/><glyph d="M756 1333q-16 25-26.5 39.5t-30 26.5-42.5 12q-80 0-116-162h-107q55 275 236 275 28 0 51-8t41.5-25 28.5-29 26-35q16-26 26.5-39.5t29.5-25.5 42-12q79 0 117 161h109q-58-274-238-274-37 0-67.5 16.5t-44.5 33-35 46.5zM614 1126h232l223-1126h-211l-47 229h-551l-143-229h-221zM791 395l-97 549-340-549h437z" horiz-adv-x="1185"/><glyph d="M1485 0h-803l51 229h-426l-192-229h-219l960 1126h877l-37-168h-613l-65-299h598l-37-167h-598l-72-324h613zM770 395l121 549-453-549h332z" horiz-adv-x="1695"/><glyph d="M655 145q186 0 310 146l141-94q-188-222-459-222h-26l-54-86q33 23 68 23 53 0 86-33t33-90q0-83-62.5-133.5t-161.5-50.5q-71 0-131 23t-96 59l59 80q33-34 78.5-53t91.5-19q57 0 89 24.5t32 63.5q0 26-19 41.5t-52 15.5q-43 0-70-30l-66 43 78 133q-200 34-319 168.5t-119 332.5q0 177 90.5 330t245.5 243.5 336 90.5q158 0 281-75t178-199l-168-68q-40 77-122 124.5t-175 47.5q-90 0-175.5-38t-149-101.5-102-153.5-38.5-188q0-160 103-257.5t265-97.5z" horiz-adv-x="1193"/><glyph d="M1194 1536l-408-295h-139l361 295h186zM838 0h-801l248 1126h800l-36-168h-609l-67-299h598l-37-167h-598l-72-324h608z" horiz-adv-x="1048"/><glyph d="M1006 1241h-117l-119 207-205-207h-123l258 295h172zM838 0h-801l248 1126h800l-36-168h-609l-67-299h598l-37-167h-598l-72-324h608z" horiz-adv-x="1048"/><glyph d="M528 1260q-40 0-68 28t-28 68q0 47 37.5 83t83.5 36q41 0 68.5-28t27.5-69q0-46-37-82t-84-36zM954 1260q-40 0-68 28t-28 68q0 47 37 83t84 36q41 0 68.5-28t27.5-69q0-46-37-82t-84-36zM838 0h-801l248 1126h800l-36-168h-609l-67-299h598l-37-167h-598l-72-324h608z" horiz-adv-x="1048"/><glyph d="M786 1241h-135l-276 295h182zM838 0h-801l248 1126h800l-36-168h-609l-67-299h598l-37-167h-598l-72-324h608z" horiz-adv-x="1048"/><glyph d="M881 1536l-408-295h-139l360 295h187zM227 0h-190l248 1126h190z" horiz-adv-x="485"/><glyph d="M473 1241h-135l-277 295h183zM227 0h-190l248 1126h190z" horiz-adv-x="485"/><glyph d="M692 1241h-117l-118 207-205-207h-123l258 295h172zM227 0h-190l248 1126h190z" horiz-adv-x="485"/><glyph d="M215 1260q-40 0-68 28t-28 68q0 47 37.5 83t83.5 36q41 0 68.5-28t27.5-69q0-46-37-82t-84-36zM641 1260q-40 0-68 28t-28 68q0 47 37 83t84 36q41 0 68.5-28t27.5-69q0-46-37-82t-84-36zM227 0h-190l248 1126h190z" horiz-adv-x="485"/><glyph d="M813 1333q-16 26-26.5 39.5t-29.5 26-42 12.5q-81 0-117-162h-106q55 275 235 275 28 0 51-8t41.5-25 28.5-29 26-35q23-38 44.5-57.5t54.5-19.5q79 0 117 161h108q-58-274-237-274-37 0-67.5 16.5t-45.5 33-35 46.5zM1047 0h-195l-432 883-193-883h-190l248 1126h200l428-862 189 862h192z" horiz-adv-x="1302"/><glyph d="M1311 1536l-408-295h-139l360 295h187zM86 489q0 174 84 325.5t234.5 244 332.5 92.5q250 0 400.5-143.5t150.5-370.5q0-174-84-325.5t-234.5-244-332.5-92.5q-251 0-401 143t-150 371zM1092 625q0 155-96.5 255.5t-262.5 100.5q-98 0-183-40.5t-142-107-90-153-33-178.5q0-157 96-257t262-100q129 0 233 68.5t160 178 56 233.5z" horiz-adv-x="1351"/><glyph d="M1122 1241h-116l-119 207-205-207h-123l258 295h172zM86 489q0 174 84 325.5t234.5 244 332.5 92.5q250 0 400.5-143.5t150.5-370.5q0-174-84-325.5t-234.5-244-332.5-92.5q-251 0-401 143t-150 371zM1092 625q0 155-96.5 255.5t-262.5 100.5q-98 0-183-40.5t-142-107-90-153-33-178.5q0-157 96-257t262-100q129 0 233 68.5t160 178 56 233.5z" horiz-adv-x="1351"/><glyph d="M647 1260q-40 0-68 28t-28 68q0 47 37.5 83t83.5 36q41 0 68.5-28t27.5-69q0-46-37-82t-84-36zM1073 1260q-40 0-68 28t-28 68q0 47 37 83t84 36q41 0 68.5-28t27.5-69q0-46-37-82t-84-36zM86 489q0 174 84 325.5t234.5 244 332.5 92.5q250 0 400.5-143.5t150.5-370.5q0-174-84-325.5t-234.5-244-332.5-92.5q-251 0-401 143t-150 371zM1092 625q0 155-96.5 255.5t-262.5 100.5q-98 0-183-40.5t-142-107-90-153-33-178.5q0-157 96-257t262-100q129 0 233 68.5t160 178 56 233.5z" horiz-adv-x="1351"/><glyph d="M905 1241h-135l-276 295h182zM86 489q0 174 84 325.5t234.5 244 332.5 92.5q250 0 400.5-143.5t150.5-370.5q0-174-84-325.5t-234.5-244-332.5-92.5q-251 0-401 143t-150 371zM1092 625q0 155-96.5 255.5t-262.5 100.5q-98 0-183-40.5t-142-107-90-153-33-178.5q0-157 96-257t262-100q129 0 233 68.5t160 178 56 233.5z" horiz-adv-x="1351"/><glyph d="M1243 1174l-123-150q168-142 168-387 0-174-84-325.5t-234.5-244-332.5-92.5q-179 0-309 76l-123-149-64 51 119 145q-84 68-129 168.5t-45 222.5q0 174 84 325.5t234.5 244 332.5 92.5q183 0 318-80l125 154zM285 502q0-160 96-256l555 682q-85 53-203 53-98 0-183-40.5t-142-107-90-153-33-178.5zM643 145q129 0 233 68.5t160 178 56 233.5q0 148-93 252l-555-682q85-50 199-50z" horiz-adv-x="1351"/><glyph d="M836 1333q-16 25-26.5 39.5t-30 26.5-42.5 12q-80 0-116-162h-107q55 275 236 275 28 0 51-8t41.5-25 28.5-29 26-35q16-26 26.5-39.5t29.5-25.5 42-12q79 0 117 161h109q-58-274-238-274-37 0-67.5 16.5t-44.5 33-35 46.5zM86 489q0 174 84 325.5t234.5 244 332.5 92.5q250 0 400.5-143.5t150.5-370.5q0-174-84-325.5t-234.5-244-332.5-92.5q-251 0-401 143t-150 371zM1092 625q0 155-96.5 255.5t-262.5 100.5q-98 0-183-40.5t-142-107-90-153-33-178.5q0-157 96-257t262-100q129 0 233 68.5t160 178 56 233.5z" horiz-adv-x="1351"/><glyph d="M1726 0h-802l34 160q-63-91-159.5-138t-206.5-47q-228 0-367 143t-139 371q0 173 83 324t234.5 244.5 335.5 93.5q131 0 234.5-58t152.5-175l45 208h803l-37-168h-610l-65-299h598l-37-167h-598l-72-324h610zM1010 391l73 332q-32 130-128.5 194t-219.5 64q-125 0-229-65.5t-162.5-175-58.5-238.5q0-162 99.5-259.5t258.5-97.5q118 0 214.5 63.5t152.5 182.5z" horiz-adv-x="1937"/><glyph d="M1280 1536l-408-295h-139l361 295h186zM600-25q-225 0-350 101t-125 272q0 54 12 121l148 657h192l-143-655q-12-50-12-104 0-103 78-162.5t210-59.5q135 0 214 77.5t114 230.5l147 673h195l-154-688q-24-114-63.5-197.5t-102-144.5-152-91-208.5-30z" horiz-adv-x="1288"/><glyph d="M1092 1241h-117l-119 207-205-207h-123l258 295h172zM600-25q-225 0-350 101t-125 272q0 54 12 121l148 657h192l-143-655q-12-50-12-104 0-103 78-162.5t210-59.5q135 0 214 77.5t114 230.5l147 673h195l-154-688q-24-114-63.5-197.5t-102-144.5-152-91-208.5-30z" horiz-adv-x="1288"/><glyph d="M614 1260q-40 0-68 28t-28 68q0 47 37.5 83t83.5 36q41 0 68.5-28t27.5-69q0-46-37-82t-84-36zM1040 1260q-40 0-68 28t-28 68q0 47 37 83t84 36q41 0 68.5-28t27.5-69q0-46-37-82t-84-36zM600-25q-225 0-350 101t-125 272q0 54 12 121l148 657h192l-143-655q-12-50-12-104 0-103 78-162.5t210-59.5q135 0 214 77.5t114 230.5l147 673h195l-154-688q-24-114-63.5-197.5t-102-144.5-152-91-208.5-30z" horiz-adv-x="1288"/><glyph d="M872 1241h-135l-276 295h182zM600-25q-225 0-350 101t-125 272q0 54 12 121l148 657h192l-143-655q-12-50-12-104 0-103 78-162.5t210-59.5q135 0 214 77.5t114 230.5l147 673h195l-154-688q-24-114-63.5-197.5t-102-144.5-152-91-208.5-30z" horiz-adv-x="1288"/><glyph d="M1200 1536l-407-295h-140l361 295h186zM553 0h-191l105 473-324 653h217l234-491 442 491h224l-605-653z" horiz-adv-x="1130"/><glyph d="M537 1260q-40 0-68.5 28t-28.5 68q0 47 37.5 83t83.5 36q41 0 68.5-28t27.5-69q0-46-36.5-82t-83.5-36zM963 1260q-40 0-68.5 28t-28.5 68q0 47 37 83t84 36q41 0 68.5-28t27.5-69q0-46-36.5-82t-83.5-36zM553 0h-191l105 473-324 653h217l234-491 442 491h224l-605-653z" horiz-adv-x="1130"/><glyph d="M285 1126h374q156 0 281-62t195.5-173 70.5-250q0-91-25-180t-81.5-173-138-147.5-203.5-102-269-38.5h-452l110 504h-127l31 135h127zM524 168q117 0 211.5 40.5t152.5 107.5 89 147.5 31 165.5q0 148-101.5 238.5t-271.5 90.5h-197l-69-319h258l-31-135h-258l-74-336h260z" horiz-adv-x="1265"/><glyph d="M227 0h-190l248 1126h190l-39-184h256q163 0 265-82.5t102-220.5q0-104-48-193.5t-145.5-147.5-226.5-58h-358zM637 408q101 0 162 62.5t61 154.5q0 73-51.5 111t-138.5 38h-273l-80-366h320z" horiz-adv-x="1087"/><glyph d="M924 561l127-72q-112-178-236-299 53-77 143-190h-208q-7 9-30 37.5t-36 44.5q-153-105-315-105-163 0-265 80t-102 224q0 79 26.5 140.5t77.5 105 104.5 71.5 127.5 55q-41 103-41 187 0 131 99.5 220t236.5 89q116 0 199-57.5t83-159.5q0-42-11.5-78t-28.5-63-47.5-52.5-57-42.5-70-36-73-30-78.5-28q34-64 84-143 9-13 47-71.5t57-86.5q107 109 187 260zM467 840q0-45 31-133 50 17 83 30t70 33 58.5 40 36 48.5 14.5 61.5q0 52-32 79t-89 27q-75 0-123.5-51t-48.5-135zM393 111q101 0 213 75-68 100-117 174-44 72-100 181-99-43-152-99t-53-143q0-84 56-136t153-52z" horiz-adv-x="1144"/><glyph d="M1053 811l-54-109h-176l-151-272h178l-59-111h-183l-176-319h-133l178 319h-178l-174-319h-133l176 319h-168l59 111h172l152 272h-174l57 109h176l176 315h134l-177-315h175l178 315h133l-178-315h170zM688 702h-174l-152-272h177z" horiz-adv-x="1028"/><glyph d="M375 590q-112 0-180 64.5t-68 176.5q0 129 87 224.5t218 95.5q110 0 180-66.5t70-177.5q0-127-89-222t-218-95zM1200 1126l-1034-1126h-117l1032 1126h119zM426 1047q-74 0-126-63t-52-148q0-64 35-104t98-40q74 0 126 63t52 146q0 64-35 105t-98 41zM815-23q-110 0-178 65.5t-68 176.5q0 128 87 224t216 96q112 0 181-66t69-178q0-128-87.5-223t-219.5-95zM868 436q-74 0-126-64t-52-147q0-64 35-104.5t98-40.5q74 0 126 63t52 148q0 63-35.5 104t-97.5 41z" horiz-adv-x="1224"/><glyph d="M360-150l-131-73q-139 250-139 602 0 318 140.5 632.5t396.5 575.5l96-96q-438-560-438-1172 0-207 75-469z" horiz-adv-x="536"/><glyph d="M256 1513l129 74q141-254 141-602 0-319-140.5-633t-397.5-575l-94 96q438 557 438 1171 0 204-76 469z" horiz-adv-x="536"/><glyph d="M328-205h-400l396 1778h399l-31-131h-260l-334-1516h258z" horiz-adv-x="520"/><glyph d="M276-205h-397l29 131h258l338 1516h-260l28 131h400z" horiz-adv-x="520"/><glyph d="M356-205h-96q-99 0-171.5 65.5t-72.5 166.5q0 25 7 57l90 401q4 24 4 35 0 47-22 77t-58 30l26 114q56 0 90.5 39.5t47.5 102.5l88 399q33 145 121 218t217 73h125l-29-131h-125q-132 0-168-160l-98-430q-31-147-133-182 59-32 59-113 0-37-8-70l-88-401q-4-24-4-43 0-52 33-84.5t83-32.5h113z" horiz-adv-x="548"/></font>
</defs>
</svg>
