<svg id="Icons" xmlns="http://www.w3.org/2000/svg" xmlns:xlink="http://www.w3.org/1999/xlink" viewBox="0 0 47.63 51.62"><defs><style>.cls-1{fill:url(#linear-gradient);}.cls-2{fill:#fff;}</style><linearGradient id="linear-gradient" x1="1.03" y1="25.48" x2="46.29" y2="25.48" gradientUnits="userSpaceOnUse"><stop offset="0" stop-color="#771fe4"/><stop offset="1" stop-color="#4318b6"/></linearGradient></defs><title>Acf-Gallary</title><g id="ACF-Gallery"><circle class="cls-1" cx="23.66" cy="25.48" r="22.63"/><circle class="cls-2" cx="28.18" cy="19.12" r="5.12"/><path class="cls-2" d="M15.62,19.84l-6.16,6.8a1.69,1.69,0,0,0-.32,1.12v7.52a1.6,1.6,0,0,0,1.6,1.6h12.8a1.3,1.3,0,0,0,1.12-.56l3-3.44a1.4,1.4,0,0,0,0-2l-9.76-11A1.43,1.43,0,0,0,15.62,19.84Z"/><path class="cls-2" d="M25.06,31.2l-1.12,1.44-1.28,1.6A1.66,1.66,0,0,0,23.86,37H36.5a1.69,1.69,0,0,0,1.68-1.68v-1a2.27,2.27,0,0,0-.32-1l-5.84-7a1.66,1.66,0,0,0-2.56,0Z"/></g></svg>