<?xml version="1.0" encoding="utf-8"?>
<!-- Generator: Adobe Illustrator 24.1.3, SVG Export Plug-In . SVG Version: 6.00 Build 0)  -->
<svg version="1.1" id="Icons" xmlns="http://www.w3.org/2000/svg" xmlns:xlink="http://www.w3.org/1999/xlink" x="0px" y="0px"
	 viewBox="0 0 47.8 51.8" style="enable-background:new 0 0 47.8 51.8;" xml:space="preserve">
<style type="text/css">
	.st0{fill:url(#SVGID_1_);}
	.st1{fill:#FFFFFF;}
</style>
<linearGradient id="SVGID_1_" gradientUnits="userSpaceOnUse" x1="1.23" y1="28.34" x2="46.49" y2="28.34" gradientTransform="matrix(1 0 0 -1 0 54)">
	<stop  offset="0" style="stop-color:#771FE4"/>
	<stop  offset="1" style="stop-color:#4318B6"/>
</linearGradient>
<circle class="st0" cx="23.9" cy="25.7" r="22.6"/>
<path class="st1" d="M36.8,20.6H11.1c-0.6,0-1-0.4-1-1v-3.7c0-0.6,0.4-1,1-1h25.7c0.6,0,1,0.4,1,1v3.7
	C37.8,20.1,37.3,20.6,36.8,20.6z"/>
<path class="st1" d="M36.8,28.8H11.1c-0.6,0-1-0.4-1-1V24c0-0.6,0.4-1,1-1h25.7c0.6,0,1,0.4,1,1v3.7C37.8,28.3,37.3,28.8,36.8,28.8z
	"/>
<path class="st1" d="M36.7,37H11c-0.6,0-1-0.4-1-1v-3.7c0-0.6,0.4-1,1-1h25.7c0.6,0,1,0.4,1,1V36C37.7,36.5,37.3,37,36.7,37z"/>
</svg>
