<?xml version="1.0" encoding="utf-8"?>
<!-- Generator: Adobe Illustrator 26.0.1, SVG Export Plug-In . SVG Version: 6.00 Build 0)  -->
<svg version="1.1" id="Layer_1" xmlns="http://www.w3.org/2000/svg" xmlns:xlink="http://www.w3.org/1999/xlink" x="0px" y="0px"
	 viewBox="0 0 50 50" style="enable-background:new 0 0 50 50;" xml:space="preserve">
<style type="text/css">
	.st0{fill:#2B87DA;}
	.st1{fill:#FFFFFF;}
</style>
<g>
	<g>
		<path class="st0" d="M21.6,8.6C11,8.9,2.5,17.5,2.1,28C2,32.7,3.4,37,5.9,40.5c1,1.4,3,1.5,4.2,0.3l26.3-26.3
			C32.7,10.7,27.4,8.4,21.6,8.6z"/>
		<path class="st0" d="M25.1,9.8c-8.8,0-16,7.1-16,16c0,4.4,1.8,8.4,4.7,11.3l22.6-22.6C33.5,11.6,29.5,9.8,25.1,9.8z"/>
		<path class="st0" d="M40.2,10.8L13.8,37.1c3.8,3.8,9.1,6.1,14.9,5.9c10.5-0.3,19.1-8.9,19.5-19.5c0.1-4.6-1.3-9-3.8-12.4
			C43.4,9.7,41.4,9.5,40.2,10.8z"/>
		<path class="st0" d="M36.4,14.5L13.9,37c2.9,2.9,6.9,4.7,11.3,4.7c8.8,0,16-7.1,16-16C41.1,21.3,39.3,17.3,36.4,14.5z"/>
	</g>
	<g>
		<g>
			<path class="st1" d="M15,19.7c0.9,0,1.6,0.2,2.1,0.7c0.5,0.5,0.8,1.1,0.8,1.9s-0.3,1.5-0.8,1.9C16.5,24.8,15.8,25,15,25h-1.8
				v-5.4H15z M14.3,24.2H15c0.6,0,1-0.2,1.3-0.5c0.3-0.3,0.5-0.8,0.5-1.4c0-0.6-0.2-1-0.5-1.4c-0.3-0.3-0.7-0.5-1.3-0.5h-0.7V24.2z"
				/>
			<path class="st1" d="M19.9,19.7c0,0.2-0.1,0.3-0.2,0.5c-0.1,0.1-0.3,0.2-0.5,0.2c-0.2,0-0.3-0.1-0.5-0.2
				c-0.1-0.1-0.2-0.3-0.2-0.5c0-0.2,0.1-0.3,0.2-0.5c0.1-0.1,0.3-0.2,0.5-0.2c0.2,0,0.3,0.1,0.5,0.2C19.8,19.3,19.9,19.5,19.9,19.7z
				 M18.7,25v-4.3h1.1V25H18.7z"/>
			<path class="st1" d="M20.4,20.8h1.2l1.1,3.3l1.1-3.3h1.2L23.3,25H22L20.4,20.8z"/>
			<path class="st1" d="M16.3,27.1v0.8h-2v1.4H16v0.8h-1.8v1.5h2v0.8h-3.1v-5.4H16.3z"/>
			<path class="st1" d="M18.4,28.2v0.6c0.3-0.5,0.7-0.7,1.3-0.7c0.5,0,0.9,0.2,1.2,0.5c0.3,0.3,0.5,0.8,0.5,1.3v2.5h-1.1v-2.3
				c0-0.3-0.1-0.6-0.3-0.8c-0.2-0.2-0.4-0.3-0.7-0.3s-0.5,0.1-0.7,0.3c-0.2,0.2-0.3,0.4-0.3,0.8v2.3h-1.1v-4.3H18.4z"/>
			<path class="st1" d="M22.8,31.9c-0.4-0.4-0.6-0.9-0.6-1.6c0-0.6,0.2-1.2,0.6-1.6c0.4-0.4,0.9-0.6,1.4-0.6c0.6,0,1,0.2,1.3,0.7
				v-0.7h1.1v4.3c0,0.6-0.2,1.1-0.5,1.5c-0.4,0.4-0.9,0.6-1.5,0.6c-0.6,0-1.2-0.1-1.5-0.4c-0.4-0.3-0.6-0.7-0.6-1.1h1.1
				c0.1,0.2,0.2,0.3,0.4,0.4c0.2,0.1,0.4,0.2,0.7,0.2c0.3,0,0.5-0.1,0.7-0.3c0.2-0.2,0.3-0.5,0.3-0.9v-0.7c-0.3,0.5-0.8,0.8-1.3,0.8
				C23.6,32.5,23.2,32.3,22.8,31.9z M25.2,31.3c0.2-0.2,0.3-0.5,0.3-0.9s-0.1-0.7-0.3-0.9c-0.2-0.2-0.5-0.3-0.8-0.3
				c-0.3,0-0.6,0.1-0.8,0.3c-0.2,0.2-0.3,0.5-0.3,0.9c0,0.4,0.1,0.7,0.3,0.9c0.2,0.2,0.5,0.3,0.8,0.3C24.7,31.6,25,31.5,25.2,31.3z"
				/>
			<path class="st1" d="M29,27.1c0,0.2-0.1,0.3-0.2,0.5c-0.1,0.1-0.3,0.2-0.5,0.2s-0.3-0.1-0.5-0.2c-0.1-0.1-0.2-0.3-0.2-0.5
				c0-0.2,0.1-0.3,0.2-0.5c0.1-0.1,0.3-0.2,0.5-0.2s0.3,0.1,0.5,0.2C28.9,26.8,29,26.9,29,27.1z M27.8,32.5v-4.3h1.1v4.3H27.8z"/>
			<path class="st1" d="M31.1,28.2v0.6c0.3-0.5,0.7-0.7,1.3-0.7c0.5,0,0.9,0.2,1.2,0.5C33.9,29,34,29.4,34,30v2.5H33v-2.3
				c0-0.3-0.1-0.6-0.3-0.8c-0.2-0.2-0.4-0.3-0.7-0.3c-0.3,0-0.5,0.1-0.7,0.3c-0.2,0.2-0.3,0.4-0.3,0.8v2.3H30v-4.3H31.1z"/>
			<path class="st1" d="M36.9,32.5c-0.6,0-1.1-0.2-1.5-0.6c-0.4-0.4-0.6-0.9-0.6-1.6c0-0.7,0.2-1.2,0.6-1.6c0.4-0.4,0.9-0.6,1.5-0.6
				c0.6,0,1.1,0.2,1.5,0.6c0.4,0.4,0.6,0.9,0.6,1.5c0,0.1,0,0.3,0,0.4h-3.1c0,0.3,0.1,0.5,0.3,0.7c0.2,0.2,0.4,0.3,0.7,0.3
				c0.4,0,0.6-0.2,0.8-0.5h1.2c-0.1,0.4-0.4,0.7-0.7,1C37.9,32.4,37.4,32.5,36.9,32.5z M37.6,29.3c-0.2-0.2-0.4-0.3-0.7-0.3
				c-0.3,0-0.5,0.1-0.7,0.3c-0.2,0.2-0.3,0.4-0.3,0.7h2C37.9,29.7,37.8,29.5,37.6,29.3z"/>
		</g>
	</g>
	<g>
		<polygon class="st1" points="26.6,20.8 25.5,20.8 25.5,25 25.9,25 26.6,24.3 		"/>
		<path class="st1" d="M26,20.3c0.2,0,0.3-0.1,0.5-0.2c0.1-0.1,0.2-0.3,0.2-0.5c0-0.2-0.1-0.3-0.2-0.5C26.4,19.1,26.2,19,26,19
			s-0.3,0.1-0.5,0.2c-0.1,0.1-0.2,0.3-0.2,0.5c0,0.2,0.1,0.3,0.2,0.5C25.7,20.3,25.9,20.3,26,20.3z"/>
	</g>
</g>
</svg>
