<svg id="Icons" xmlns="http://www.w3.org/2000/svg" xmlns:xlink="http://www.w3.org/1999/xlink" viewBox="0 0 47.8 51.8"><defs><style>.cls-1{fill:url(#linear-gradient);}.cls-2{fill:#fff;}</style><linearGradient id="linear-gradient" x1="1.32" y1="25.66" x2="46.58" y2="25.66" gradientUnits="userSpaceOnUse"><stop offset="0" stop-color="#771fe4"/><stop offset="1" stop-color="#4318b6"/></linearGradient></defs><title>Gallary-Slider</title><g id="Galary_Slider" data-name="Galary Slider"><circle class="cls-1" cx="23.95" cy="25.66" r="22.63"/><path class="cls-2" d="M20.52,34.27a1.51,1.51,0,0,0-2.12,0l-3,3a1.49,1.49,0,0,0,0,2.12l3,3a1.5,1.5,0,0,0,2.12,0,1.49,1.49,0,0,0,0-2.12l-1.94-1.93,1.94-1.94a1.49,1.49,0,0,0,0-2.12Z"/><path class="cls-2" d="M29.5,34.27a1.5,1.5,0,1,0-2.12,2.12l1.94,1.94-1.94,1.93a1.51,1.51,0,0,0,0,2.12,1.53,1.53,0,0,0,1.06.44,1.49,1.49,0,0,0,1.06-.44l3-3a1.51,1.51,0,0,0,0-2.12Z"/><circle class="cls-2" cx="28.47" cy="13.96" r="5.12"/><path class="cls-2" d="M15.91,14.68l-6.16,6.8a1.69,1.69,0,0,0-.32,1.12v7.52a1.6,1.6,0,0,0,1.6,1.6h12.8A1.3,1.3,0,0,0,25,31.16l3-3.44a1.4,1.4,0,0,0,0-2l-9.76-11A1.43,1.43,0,0,0,15.91,14.68Z"/><path class="cls-2" d="M25.35,26l-1.12,1.44L23,29.08a1.66,1.66,0,0,0,1.2,2.72H36.79a1.69,1.69,0,0,0,1.68-1.68v-1a2.27,2.27,0,0,0-.32-1l-5.84-7a1.66,1.66,0,0,0-2.56,0Z"/></g></svg>