<svg id="Icons" xmlns="http://www.w3.org/2000/svg" xmlns:xlink="http://www.w3.org/1999/xlink" viewBox="0 0 47.8 51.8"><defs><style>.cls-1{fill:url(#linear-gradient);}.cls-2{fill:#fff;}</style><linearGradient id="linear-gradient" x1="1.11" y1="25.66" x2="46.37" y2="25.66" gradientUnits="userSpaceOnUse"><stop offset="0" stop-color="#771fe4"/><stop offset="1" stop-color="#4318b6"/></linearGradient></defs><title>OrderBy</title><g id="OrderBy"><circle class="cls-1" cx="23.74" cy="25.66" r="22.63"/><path class="cls-2" d="M22.37,17.51a.5.5,0,0,0,.14-.35.59.59,0,0,0-.15-.37L17.52,12a.51.51,0,0,0-.35-.13.54.54,0,0,0-.35.13L12,16.81a.46.46,0,0,0-.1.53.45.45,0,0,0,.45.3h2.92V38.52a.48.48,0,0,0,.13.35.48.48,0,0,0,.35.14h2.91a.47.47,0,0,0,.35-.14.45.45,0,0,0,.14-.35V17.64H22A.46.46,0,0,0,22.37,17.51Z"/><rect class="cls-2" x="23.18" y="12.14" width="14.8" height="4.06" rx="1.54"/><rect class="cls-2" x="23.18" y="19.91" width="12.64" height="4.06" rx="1.54"/><rect class="cls-2" x="23.18" y="27.68" width="9.65" height="4.06" rx="1.54"/><rect class="cls-2" x="23.18" y="35.45" width="7.84" height="4.06" rx="1.54"/></g></svg>