<svg xmlns="http://www.w3.org/2000/svg" xmlns:xlink="http://www.w3.org/1999/xlink" viewBox="0 0 45.26 45.26"><defs><style>.cls-1{fill:url(#linear-gradient);}.cls-2,.cls-3{fill:#fff;}.cls-2{stroke:#fff;stroke-miterlimit:10;stroke-width:0.5px;}</style><linearGradient id="linear-gradient" y1="22.63" x2="45.26" y2="22.63" gradientUnits="userSpaceOnUse"><stop offset="0" stop-color="#771fe4"/><stop offset="1" stop-color="#4318b6"/></linearGradient></defs><title>Post Slider</title><g id="Layer_2" data-name="Layer 2"><g id="Icons"><g id="Post_Slider" data-name="Post Slider"><circle class="cls-1" cx="22.63" cy="22.63" r="22.63"/><path class="cls-2" d="M27.75,9.23h-15a1.13,1.13,0,0,0-1,1.23,1.13,1.13,0,0,0,1,1.23h15a1.13,1.13,0,0,0,1-1.23A1.13,1.13,0,0,0,27.75,9.23Z"/><path class="cls-2" d="M27.75,20.44h-15a1.13,1.13,0,0,0-1,1.23,1.13,1.13,0,0,0,1,1.23h15a1.13,1.13,0,0,0,1-1.23A1.13,1.13,0,0,0,27.75,20.44Z"/><path class="cls-2" d="M32.24,14.83H13a1.24,1.24,0,1,0,0,2.47H32.24a1.24,1.24,0,1,0,0-2.47Z"/><g id="Slider"><path class="cls-3" d="M17.92,26.7a2.06,2.06,0,0,0-2.91,0L10.9,30.82a2.05,2.05,0,0,0,0,2.9L15,37.84a2.06,2.06,0,1,0,2.91-2.91l-2.66-2.66,2.66-2.66a2.06,2.06,0,0,0,0-2.91Z"/><path class="cls-3" d="M30.25,26.7a2.06,2.06,0,0,0-2.91,2.91L30,32.27l-2.66,2.66a2.06,2.06,0,0,0,2.91,2.91l4.11-4.12a2,2,0,0,0,0-2.9Z"/></g></g></g></g></svg>