<svg id="Icons" xmlns="http://www.w3.org/2000/svg" xmlns:xlink="http://www.w3.org/1999/xlink" viewBox="0 0 47.8 51.8"><defs><style>.cls-1{fill:url(#linear-gradient);}.cls-2{fill:#fff;}</style><linearGradient id="linear-gradient" x1="2.04" y1="25.66" x2="47.3" y2="25.66" gradientUnits="userSpaceOnUse"><stop offset="0" stop-color="#771fe4"/><stop offset="1" stop-color="#4318b6"/></linearGradient></defs><title>Post-Meta</title><g id="Post_Meta" data-name="Post Meta"><circle class="cls-1" cx="24.67" cy="25.66" r="22.63"/><path class="cls-2" d="M33,11.14H16.32a4,4,0,0,0-4,4v21a4,4,0,0,0,4,4H33a4,4,0,0,0,4-4v-21A4,4,0,0,0,33,11.14Zm-2.9,24.68H19.22a1.09,1.09,0,0,1,0-2.17H30.11a1.09,1.09,0,1,1,0,2.17Zm0-5.8H19.22a1.09,1.09,0,0,1,0-2.18H30.11a1.09,1.09,0,0,1,0,2.18Zm0-5.08H19.22a1.09,1.09,0,0,1,0-2.18H30.11a1.09,1.09,0,0,1,0,2.18Zm0-5.81H19.22a1.09,1.09,0,0,1,0-2.18H30.11a1.09,1.09,0,0,1,0,2.18Z"/></g></svg>