<svg id="Icons" xmlns="http://www.w3.org/2000/svg" xmlns:xlink="http://www.w3.org/1999/xlink" viewBox="0 0 47.8 51.8"><defs><style>.cls-1{fill:url(#linear-gradient);}.cls-2{fill:#fff;}</style><linearGradient id="linear-gradient" x1="1.31" y1="25.66" x2="46.57" y2="25.66" gradientUnits="userSpaceOnUse"><stop offset="0" stop-color="#771fe4"/><stop offset="1" stop-color="#4318b6"/></linearGradient></defs><title>Post-Carousel</title><g id="Post_Carousel" data-name="Post Carousel"><circle class="cls-1" cx="23.94" cy="25.66" r="22.63"/><path class="cls-2" d="M19.23,20a2,2,0,0,0-2.91,0l-4.11,4.11a2,2,0,0,0,0,2.91l4.11,4.11a2.06,2.06,0,0,0,2.91-2.91l-2.66-2.66,2.66-2.66a2.05,2.05,0,0,0,0-2.9Z"/><path class="cls-2" d="M31.56,20a2.05,2.05,0,1,0-2.91,2.9l2.66,2.66L28.65,28.2a2.06,2.06,0,0,0,2.91,2.91L35.67,27a2.06,2.06,0,0,0,0-2.91Z"/></g></svg>