<svg id="Icons" xmlns="http://www.w3.org/2000/svg" xmlns:xlink="http://www.w3.org/1999/xlink" viewBox="0 0 47.8 51.8"><defs><style>.cls-1{fill:url(#linear-gradient);}.cls-2{fill:#fff;}</style><linearGradient id="linear-gradient" x1="1.28" y1="25.66" x2="46.55" y2="25.66" gradientUnits="userSpaceOnUse"><stop offset="0" stop-color="#771fe4"/><stop offset="1" stop-color="#4318b6"/></linearGradient></defs><title>Repeater</title><g id="Repeater"><circle class="cls-1" cx="23.91" cy="25.66" r="22.63"/><path class="cls-2" d="M37,16.35a1,1,0,0,0-.54-1l-4.67-4.72a1.13,1.13,0,0,0-1.6,1.6L33,15.21h-21a1.12,1.12,0,0,0-1.14,1.14v8.82a1.14,1.14,0,1,0,2.28,0V17.49H33l-2.89,2.89a1.09,1.09,0,0,0,0,1.59,1.16,1.16,0,0,0,.8.35,1.18,1.18,0,0,0,.8-.35l4.67-4.67A1,1,0,0,0,37,16.35Z"/><path class="cls-2" d="M35.78,24.56a1.11,1.11,0,0,0-1.14,1.14v8.06H14.79l2.89-2.89a1.1,1.1,0,0,0,0-1.6,1.12,1.12,0,0,0-1.6,0L11.25,34.1a1.81,1.81,0,0,0-.15.19s0,0,0,.08,0,.07-.07.11,0,.08,0,.12,0,.07,0,.11,0,.15,0,.23h0v0a.34.34,0,0,0,0,.19.14.14,0,0,0,0,.11s0,.08,0,.11,0,.08,0,.12a.11.11,0,0,0,0,.07.55.55,0,0,1,.12.16s0,0,0,0L16,40.64a1.17,1.17,0,0,0,.8.34,1.08,1.08,0,0,0,.8-.34,1.1,1.1,0,0,0,0-1.6l-2.85-3h21a1.12,1.12,0,0,0,1.14-1.14V25.7A1.12,1.12,0,0,0,35.78,24.56Z"/></g></svg>