<svg id="Icons" xmlns="http://www.w3.org/2000/svg" xmlns:xlink="http://www.w3.org/1999/xlink" viewBox="0 0 47.8 51.8"><defs><style>.cls-1{fill:url(#linear-gradient);}.cls-2{fill:#fff;}</style><linearGradient id="linear-gradient" x1="1.85" y1="25.66" x2="47.11" y2="25.66" gradientUnits="userSpaceOnUse"><stop offset="0" stop-color="#771fe4"/><stop offset="1" stop-color="#4318b6"/></linearGradient></defs><title>Title-Text</title><g id="Post_Title" data-name="Post Title"><circle class="cls-1" cx="24.48" cy="25.66" r="22.63"/><path class="cls-2" d="M21.8,16.72h1.79a.89.89,0,0,1,.89.9h0a.89.89,0,0,0,.9.89h1.78a.89.89,0,0,0,.9-.89V14a.89.89,0,0,0-.9-.89H11.07a.89.89,0,0,0-.89.89v3.58a.89.89,0,0,0,.89.89h1.79a.89.89,0,0,0,.89-.89h0a.9.9,0,0,1,.9-.9h1.79a.89.89,0,0,1,.89.9V33.71a.89.89,0,0,1-.89.89H14.65a.89.89,0,0,0-.9.89v1.79a.9.9,0,0,0,.9.9h8.94a.89.89,0,0,0,.89-.9V35.49a.89.89,0,0,0-.89-.89H21.8a.89.89,0,0,1-.89-.89V17.62A.89.89,0,0,1,21.8,16.72Z"/><path class="cls-2" d="M24.48,22.09v4.47a.89.89,0,0,0,.9.89h1.78a.89.89,0,0,0,.9-.89h0a.89.89,0,0,1,.89-.9h0a.9.9,0,0,1,.9.9v7.15a.89.89,0,0,1-.9.89h0a.89.89,0,0,0-.89.89v1.79a.89.89,0,0,0,.89.9h5.37a.89.89,0,0,0,.89-.9V35.49a.89.89,0,0,0-.89-.89h0a.89.89,0,0,1-.9-.89V26.56a.9.9,0,0,1,.9-.9h0a.89.89,0,0,1,.89.9h0a.89.89,0,0,0,.89.89h1.79a.89.89,0,0,0,.9-.89V23a.89.89,0,0,0-.9-.89Z"/></g></svg>