<svg id="Icons" xmlns="http://www.w3.org/2000/svg" xmlns:xlink="http://www.w3.org/1999/xlink" viewBox="0 0 47.8 51.8"><defs><style>.cls-1{fill:url(#linear-gradient);}.cls-2{fill:#fff;}</style><linearGradient id="linear-gradient" x1="1.25" y1="25.66" x2="46.51" y2="25.66" gradientUnits="userSpaceOnUse"><stop offset="0" stop-color="#771fe4"/><stop offset="1" stop-color="#4318b6"/></linearGradient></defs><title>View-Post</title><g id="View_Post" data-name="View Post"><circle class="cls-1" cx="23.88" cy="25.66" r="22.63"/><path class="cls-2" d="M24.84,23.43A2.77,2.77,0,0,1,26,21.18a4.6,4.6,0,0,0-6.72,4.1,4.62,4.62,0,0,0,9.18.78A2.76,2.76,0,0,1,24.84,23.43Z"/><path class="cls-2" d="M39.45,24.67C39.17,24.35,32.39,17,23.9,17S8.63,24.35,8.35,24.67a.93.93,0,0,0,0,1.23c.28.31,7.06,7.71,15.55,7.71s15.27-7.4,15.55-7.71A.93.93,0,0,0,39.45,24.67ZM23.9,31.76a6.48,6.48,0,1,1,6.47-6.48A6.48,6.48,0,0,1,23.9,31.76Z"/></g></svg>