<svg height="42.47" viewBox="0 0 83.24 42.47" width="83.24" xmlns="http://www.w3.org/2000/svg"><path d="m1105.11 4541.1c-1.65-.04-2.72-1.63-1.98-3.66a2 2 0 0 1 .25-.58c1.84-2.22 2.35-4.38-.04-6.62a3.22 3.22 0 0 1 -.62-2.72c.64-7.18.12-14.36-.06-21.54-.05-2 1.31-3.44 1.55-5.33.13-1 1.55-1.01 2.47-.49 1.85 1.04 3.74 2.03 4.87 3.98 2.81 4.86 6.16 9.43 8.3 14.65a8.345 8.345 0 0 0 1.81 2.55c1.31 1.4 1.32 2.47-.08 3.87-4.22 4.23-7.86 8.94-11.66 13.52a5.459 5.459 0 0 1 -4.81 2.37zm4.71-14.11c1.6-1.77 2.85-3.15 4.1-4.54a1.625 1.625 0 0 0 .29-1.78c-1.13-2.9-2.28-5.8-4.69-8.13.41 4.66-.13 9.3.3 14.45zm-18.7-3.34a13.34 13.34 0 0 1 -2.3 4.92q-4.92 6.255-9.88 12.48a3.54 3.54 0 0 1 -4.32.87 3.59 3.59 0 0 1 -1.87-4.01 5.068 5.068 0 0 1 .78-1.72 2.168 2.168 0 0 0 -.05-3.1c-.9-1.11-.88-2.54-.88-3.93-.01-7.08-.06-14.16-.08-21.23a5.576 5.576 0 0 0 -.18-2.19 1.678 1.678 0 0 1 .46-2.26c.82-.59 1.64-.22 2.43.16a8.218 8.218 0 0 1 3.54 2.65c3.13 4.68 6.96 8.83 10.51 13.19a6 6 0 0 1 1.84 4.17zm-11.89 5.07c2.06-1.92 3.67-3.44 5.31-4.93a1.013 1.013 0 0 0 .29-1.59 38.06 38.06 0 0 0 -5.6-5.85zm-37.41-24.3a6.77 6.77 0 0 1 3.66 2.54c3.81 5.78 8.93 10.52 12.87 16.17 1.5 2.15 1.45 2.87-.44 4.62a104.707 104.707 0 0 0 -10.21 10.95c-1.54 1.91-2.96 2.28-4.68 1.36a3.7 3.7 0 0 1 -1.79-4.74 2.5 2.5 0 0 0 -.28-2.62 8.46 8.46 0 0 1 -.99-4.57c.16-4.53-.16-9.07.15-13.61a10.662 10.662 0 0 0 -.5-4.36c-.62-1.68.2-3.11.26-4.64.03-.86.84-1.13 1.95-1.1zm5.13 12.9c-.23.11-.47.22-.7.33.1 3.48-.17 6.98.24 11.06 1.87-1.84 3.22-3.18 4.58-4.5a1.276 1.276 0 0 0 .18-1.95c-1.42-1.66-2.86-3.3-4.3-4.94z" fill="#01b78b" fill-rule="evenodd" transform="translate(-1039.38 -4499.81)"/></svg>