<svg xmlns="http://www.w3.org/2000/svg" xmlns:xlink="http://www.w3.org/1999/xlink" viewBox="0 0 45.26 45.26"><defs><style>.cls-1{fill:url(#linear-gradient);}.cls-2{fill:none;stroke:#fff;stroke-miterlimit:10;stroke-width:2px;}.cls-3{fill:#fff;}</style><linearGradient id="linear-gradient" y1="22.63" x2="45.26" y2="22.63" gradientUnits="userSpaceOnUse"><stop offset="0" stop-color="#771fe4"/><stop offset="1" stop-color="#4318b6"/></linearGradient></defs><title>Thumbnail</title><g id="Layer_2" data-name="Layer 2"><g id="Icons"><g id="Thumbnail"><circle class="cls-1" cx="22.63" cy="22.63" r="22.63"/><rect class="cls-2" x="9.31" y="9.31" width="26.64" height="26.64" rx="2"/><ellipse class="cls-3" cx="26.2" cy="17.83" rx="4.04" ry="3.86"/><path class="cls-3" d="M16.29,18.38l-4.86,5.13a1.22,1.22,0,0,0-.25.84V30a1.24,1.24,0,0,0,1.26,1.2h10.1a1,1,0,0,0,.88-.42l2.33-2.59a1,1,0,0,0,0-1.51l-7.69-8.33A1.16,1.16,0,0,0,16.29,18.38Z"/><path class="cls-3" d="M23.74,27,22.85,28l-1,1.2a1.25,1.25,0,0,0,.95,2.06h10A1.31,1.31,0,0,0,34.08,30V29.3a1.6,1.6,0,0,0-.25-.78l-4.61-5.31a1.33,1.33,0,0,0-2,0Z"/></g></g></g></svg>